M48
; DRILL file {KiCad (5.1.10)-1} date 06/03/21 09:36:20
; FORMAT={-:-/ absolute / metric / decimal}
; #@! TF.CreationDate,2021-06-03T09:36:20+03:00
; #@! TF.GenerationSoftware,Kicad,Pcbnew,(5.1.10)-1
; #@! TF.FileFunction,Plated,1,2,PTH
FMAT,2
METRIC
T1C0.800
T2C1.000
%
G90
G05
T1
X73.66Y-100.33
X73.66Y-105.33
X73.66Y-110.49
X78.74Y-110.49
X85.09Y-100.33
X85.09Y-110.49
X89.595Y-100.135
X89.595Y-110.295
X93.145Y-100.135
X93.145Y-110.295
X100.965Y-104.14
X100.965Y-106.64
X107.061Y-101.854
X111.506Y-106.426
X113.03Y-100.965
T2
X63.246Y-102.87
X63.246Y-105.41
X63.246Y-107.95
X111.76Y-116.205
X115.57Y-106.045
X117.475Y-116.205
X125.73Y-98.425
X132.715Y-98.425
X132.715Y-116.205
X137.16Y-106.68
T0
M30
