%TF.GenerationSoftware,KiCad,Pcbnew,(5.1.10)-1*%
%TF.CreationDate,2021-06-03T09:36:08+03:00*%
%TF.ProjectId,SGX-CH4-sensor,5347582d-4348-4342-9d73-656e736f722e,rev?*%
%TF.SameCoordinates,Original*%
%TF.FileFunction,Copper,L1,Top*%
%TF.FilePolarity,Positive*%
%FSLAX46Y46*%
G04 Gerber Fmt 4.6, Leading zero omitted, Abs format (unit mm)*
G04 Created by KiCad (PCBNEW (5.1.10)-1) date 2021-06-03 09:36:08*
%MOMM*%
%LPD*%
G01*
G04 APERTURE LIST*
%TA.AperFunction,NonConductor*%
%ADD10C,0.300000*%
%TD*%
%TA.AperFunction,ComponentPad*%
%ADD11C,3.000000*%
%TD*%
%TA.AperFunction,ComponentPad*%
%ADD12R,3.000000X3.000000*%
%TD*%
%TA.AperFunction,ComponentPad*%
%ADD13C,2.000000*%
%TD*%
%TA.AperFunction,ComponentPad*%
%ADD14R,2.000000X2.000000*%
%TD*%
%TA.AperFunction,ComponentPad*%
%ADD15C,4.000000*%
%TD*%
%TA.AperFunction,ComponentPad*%
%ADD16R,4.000000X4.000000*%
%TD*%
%TA.AperFunction,SMDPad,CuDef*%
%ADD17R,1.060000X0.650000*%
%TD*%
%TA.AperFunction,SMDPad,CuDef*%
%ADD18C,3.000000*%
%TD*%
%TA.AperFunction,ComponentPad*%
%ADD19C,0.100000*%
%TD*%
%TA.AperFunction,ComponentPad*%
%ADD20R,5.000000X2.000000*%
%TD*%
%TA.AperFunction,ViaPad*%
%ADD21C,1.200000*%
%TD*%
%TA.AperFunction,Conductor*%
%ADD22C,0.500000*%
%TD*%
%TA.AperFunction,Conductor*%
%ADD23C,1.000000*%
%TD*%
%TA.AperFunction,Conductor*%
%ADD24C,2.000000*%
%TD*%
%TA.AperFunction,Conductor*%
%ADD25C,1.500000*%
%TD*%
%TA.AperFunction,Conductor*%
%ADD26C,0.700000*%
%TD*%
G04 APERTURE END LIST*
D10*
X89690000Y-92753571D02*
X88832857Y-92753571D01*
X89261428Y-92753571D02*
X89261428Y-91253571D01*
X89118571Y-91467857D01*
X88975714Y-91610714D01*
X88832857Y-91682142D01*
X92332857Y-92610714D02*
X92261428Y-92682142D01*
X92047142Y-92753571D01*
X91904285Y-92753571D01*
X91690000Y-92682142D01*
X91547142Y-92539285D01*
X91475714Y-92396428D01*
X91404285Y-92110714D01*
X91404285Y-91896428D01*
X91475714Y-91610714D01*
X91547142Y-91467857D01*
X91690000Y-91325000D01*
X91904285Y-91253571D01*
X92047142Y-91253571D01*
X92261428Y-91325000D01*
X92332857Y-91396428D01*
X92975714Y-92753571D02*
X92975714Y-91253571D01*
X93475714Y-92325000D01*
X93975714Y-91253571D01*
X93975714Y-92753571D01*
D11*
%TO.P,C1,1*%
%TO.N,Net-(C1-Pad1)*%
X73660000Y-100330000D03*
D12*
%TO.P,C1,2*%
%TO.N,GND*%
X73660000Y-105330000D03*
%TD*%
D13*
%TO.P,C2,1*%
%TO.N,Net-(C1-Pad1)*%
X100965000Y-104140000D03*
D14*
%TO.P,C2,2*%
%TO.N,Net-(C2-Pad2)*%
X100965000Y-106640000D03*
%TD*%
D12*
%TO.P,D1,1*%
%TO.N,Net-(C1-Pad1)*%
X93144999Y-100135001D03*
D11*
%TO.P,D1,2*%
%TO.N,Net-(C2-Pad2)*%
X93144999Y-110295001D03*
%TD*%
%TO.P,D2,2*%
%TO.N,Net-(C2-Pad2)*%
X85090000Y-110490000D03*
D12*
%TO.P,D2,1*%
%TO.N,Net-(C1-Pad1)*%
X85090000Y-100330000D03*
%TD*%
%TO.P,D3,1*%
%TO.N,Net-(C1-Pad1)*%
X89594999Y-100135001D03*
D11*
%TO.P,D3,2*%
%TO.N,Net-(C2-Pad2)*%
X89594999Y-110295001D03*
%TD*%
D15*
%TO.P,F1,1*%
%TO.N,Net-(C2-Pad2)*%
X78740000Y-110490000D03*
D12*
%TO.P,F1,2*%
%TO.N,GND*%
X73660000Y-110490000D03*
%TD*%
D16*
%TO.P,J2,1*%
%TO.N,Net-(J2-Pad1)*%
X125730000Y-98425000D03*
%TD*%
%TO.P,J3,1*%
%TO.N,Net-(J3-Pad1)*%
X117475000Y-116205000D03*
%TD*%
%TO.P,J4,1*%
%TO.N,Net-(J4-Pad1)*%
X115570000Y-106045000D03*
%TD*%
%TO.P,J5,1*%
%TO.N,Net-(C2-Pad2)*%
X132715000Y-116205000D03*
%TD*%
%TO.P,J6,1*%
%TO.N,Net-(C1-Pad1)*%
X137160000Y-106680000D03*
%TD*%
%TO.P,J8,1*%
%TO.N,Net-(J2-Pad1)*%
X132715000Y-98425000D03*
%TD*%
%TO.P,J9,1*%
%TO.N,Net-(J3-Pad1)*%
X111760000Y-116205000D03*
%TD*%
D17*
%TO.P,U1,1*%
%TO.N,Net-(J1-Pad1)*%
X107020000Y-104140000D03*
%TO.P,U1,2*%
%TO.N,Net-(C2-Pad2)*%
X107020000Y-105090000D03*
%TO.P,U1,3*%
%TO.N,Net-(J4-Pad1)*%
X107020000Y-106040000D03*
%TO.P,U1,4*%
%TO.N,Net-(J1-Pad1)*%
X109220000Y-106040000D03*
%TO.P,U1,5*%
%TO.N,Net-(C1-Pad1)*%
X109220000Y-104140000D03*
%TD*%
D18*
%TO.P,TP3,1*%
%TO.N,Net-(J1-Pad1)*%
X68580000Y-95885000D03*
%TD*%
%TA.AperFunction,ComponentPad*%
D19*
%TO.P,J1,1*%
%TO.N,Net-(J1-Pad1)*%
G36*
X61246000Y-103870000D02*
G01*
X61246000Y-101870000D01*
X65246000Y-101870000D01*
X65246000Y-103870000D01*
X61246000Y-103870000D01*
G37*
%TD.AperFunction*%
D13*
%TO.P,J1,2*%
%TO.N,Net-(C1-Pad1)*%
X63246000Y-105410000D03*
D20*
%TO.P,J1,3*%
%TO.N,GND*%
X63246000Y-107950000D03*
%TD*%
D18*
%TO.P,TP2,1*%
%TO.N,Net-(C2-Pad2)*%
X85217000Y-115189000D03*
%TD*%
D21*
%TO.N,Net-(C1-Pad1)*%
X113030000Y-100965000D03*
%TO.N,Net-(J1-Pad1)*%
X111506000Y-106426000D03*
X107061000Y-101854000D03*
%TD*%
D22*
%TO.N,*%
X86520000Y-93980000D02*
X96520000Y-93980000D01*
D23*
%TO.N,Net-(C1-Pad1)*%
X109855000Y-104140000D02*
X113030000Y-100965000D01*
X109220000Y-104140000D02*
X109855000Y-104140000D01*
D24*
X112665000Y-100965000D02*
X113030000Y-100965000D01*
D22*
%TO.N,Net-(C2-Pad2)*%
X106959000Y-105029000D02*
X107020000Y-105090000D01*
D25*
X85090000Y-115062000D02*
X85217000Y-115189000D01*
X85090000Y-110490000D02*
X85090000Y-115062000D01*
D26*
X104648000Y-105029000D02*
X106959000Y-105029000D01*
D23*
X103886000Y-105029000D02*
X104648000Y-105029000D01*
X102275000Y-106640000D02*
X103886000Y-105029000D01*
X100965000Y-106640000D02*
X102275000Y-106640000D01*
D22*
%TO.N,Net-(J1-Pad1)*%
X105410000Y-102235000D02*
X105410000Y-102530000D01*
D25*
X63246000Y-101219000D02*
X68580000Y-95885000D01*
X63246000Y-102870000D02*
X63246000Y-101219000D01*
D23*
X68580000Y-96520000D02*
X67945000Y-97155000D01*
X99695000Y-96520000D02*
X68580000Y-96520000D01*
X105410000Y-102235000D02*
X99695000Y-96520000D01*
X104648000Y-101473000D02*
X105410000Y-102235000D01*
X105029000Y-101854000D02*
X104648000Y-101473000D01*
X107061000Y-103124000D02*
X106680000Y-103505000D01*
D24*
X107061000Y-101854000D02*
X107061000Y-103124000D01*
D23*
X106680000Y-103505000D02*
X107020000Y-103845000D01*
X106172000Y-102743000D02*
X105918000Y-102743000D01*
X107061000Y-101854000D02*
X106172000Y-102743000D01*
X105918000Y-102743000D02*
X106680000Y-103505000D01*
X105410000Y-102235000D02*
X105918000Y-102743000D01*
X107061000Y-103912990D02*
X107020000Y-103953990D01*
X107061000Y-101854000D02*
X107061000Y-103912990D01*
D25*
X111120000Y-106040000D02*
X111506000Y-106426000D01*
X109220000Y-106040000D02*
X111120000Y-106040000D01*
X69215000Y-96520000D02*
X68580000Y-95885000D01*
X99695000Y-96520000D02*
X69215000Y-96520000D01*
X105029000Y-101854000D02*
X106680000Y-103505000D01*
X105029000Y-101854000D02*
X104140000Y-100965000D01*
X107061000Y-101854000D02*
X105029000Y-101854000D01*
X104140000Y-100965000D02*
X99695000Y-96520000D01*
D23*
%TO.N,Net-(J4-Pad1)*%
X107020000Y-107482500D02*
X107020000Y-106215009D01*
X114046000Y-108966000D02*
X108503500Y-108966000D01*
X108503500Y-108966000D02*
X107020000Y-107482500D01*
X115570000Y-107442000D02*
X114046000Y-108966000D01*
X115570000Y-106045000D02*
X115570000Y-107442000D01*
%TD*%
M02*
