M48
; DRILL file {KiCad (5.1.10)-1} date 11/22/21 13:12:38
; FORMAT={-:-/ absolute / metric / decimal}
; #@! TF.CreationDate,2021-11-22T13:12:38+02:00
; #@! TF.GenerationSoftware,Kicad,Pcbnew,(5.1.10)-1
; #@! TF.FileFunction,Plated,1,2,PTH
FMAT,2
METRIC
T1C0.700
T2C0.750
T3C0.800
T4C0.900
T5C1.000
T6C1.200
%
G90
G05
T1
X111.976Y-126.251
X111.976Y-133.871
T2
X116.835Y-129.149
X118.105Y-127.879
X118.105Y-130.419
X122.758Y-129.134
X124.028Y-127.864
X124.028Y-130.404
X128.402Y-124.348
X128.422Y-130.703
X129.672Y-123.078
X129.672Y-125.618
X129.692Y-129.433
X129.692Y-131.973
T3
X104.648Y-124.047
X104.648Y-131.547
X106.0Y-135.3
X106.0Y-148.0
X110.414Y-104.242
X110.414Y-106.782
X110.414Y-109.322
X110.414Y-111.862
X116.243Y-133.96
X116.243Y-149.2
X118.034Y-104.242
X118.034Y-106.782
X118.034Y-109.322
X118.034Y-111.862
X121.336Y-135.242
X121.336Y-150.482
X126.507Y-135.346
X126.507Y-148.046
X128.928Y-106.802
X128.928Y-119.502
X133.276Y-134.902
X133.276Y-147.602
T4
X135.59Y-126.436
X135.788Y-117.424
X135.867Y-109.144
X137.691Y-134.635
X137.836Y-141.465
X138.092Y-148.206
X138.13Y-126.436
X138.328Y-117.424
X138.407Y-109.144
X140.231Y-134.635
X140.376Y-141.465
X140.632Y-148.206
X142.979Y-126.345
X143.005Y-117.503
X143.314Y-109.123
X143.441Y-134.63
X143.543Y-141.45
X143.845Y-148.285
X145.519Y-126.345
X145.545Y-117.503
X145.854Y-109.123
X145.981Y-134.63
X146.083Y-141.45
X146.385Y-148.285
T5
X100.355Y-116.408
X100.355Y-118.948
X100.467Y-125.341
X100.467Y-127.881
X100.467Y-130.421
X100.607Y-136.169
X100.607Y-138.709
X100.607Y-141.249
X100.607Y-143.789
X105.855Y-106.43
X105.855Y-111.43
X123.241Y-104.525
X123.241Y-109.525
T6
X110.109Y-121.768
X110.515Y-116.281
X113.182Y-99.212
X122.809Y-121.768
X123.215Y-116.281
X133.502Y-99.212
T0
M30
