%TF.GenerationSoftware,KiCad,Pcbnew,(5.1.10)-1*%
%TF.CreationDate,2021-11-22T13:12:16+02:00*%
%TF.ProjectId,25-station-led-alarm,32352d73-7461-4746-996f-6e2d6c65642d,rev?*%
%TF.SameCoordinates,Original*%
%TF.FileFunction,Copper,L2,Bot*%
%TF.FilePolarity,Positive*%
%FSLAX46Y46*%
G04 Gerber Fmt 4.6, Leading zero omitted, Abs format (unit mm)*
G04 Created by KiCad (PCBNEW (5.1.10)-1) date 2021-11-22 13:12:16*
%MOMM*%
%LPD*%
G01*
G04 APERTURE LIST*
%TA.AperFunction,ComponentPad*%
%ADD10C,1.600000*%
%TD*%
%TA.AperFunction,ComponentPad*%
%ADD11O,1.600000X1.600000*%
%TD*%
%TA.AperFunction,ComponentPad*%
%ADD12O,1.700000X1.700000*%
%TD*%
%TA.AperFunction,ComponentPad*%
%ADD13R,1.700000X1.700000*%
%TD*%
%TA.AperFunction,ComponentPad*%
%ADD14R,2.400000X2.400000*%
%TD*%
%TA.AperFunction,ComponentPad*%
%ADD15O,2.400000X2.400000*%
%TD*%
%TA.AperFunction,ComponentPad*%
%ADD16R,1.800000X1.800000*%
%TD*%
%TA.AperFunction,ComponentPad*%
%ADD17C,1.800000*%
%TD*%
%TA.AperFunction,ComponentPad*%
%ADD18C,2.000000*%
%TD*%
%TA.AperFunction,ComponentPad*%
%ADD19C,1.400000*%
%TD*%
%TA.AperFunction,ComponentPad*%
%ADD20O,1.400000X1.400000*%
%TD*%
%TA.AperFunction,ComponentPad*%
%ADD21C,2.400000*%
%TD*%
%TA.AperFunction,ComponentPad*%
%ADD22R,1.600000X1.600000*%
%TD*%
%TA.AperFunction,ComponentPad*%
%ADD23R,1.300000X1.300000*%
%TD*%
%TA.AperFunction,ComponentPad*%
%ADD24C,1.300000*%
%TD*%
%TA.AperFunction,Conductor*%
%ADD25C,1.000000*%
%TD*%
%TA.AperFunction,Conductor*%
%ADD26C,0.254000*%
%TD*%
%TA.AperFunction,Conductor*%
%ADD27C,0.100000*%
%TD*%
G04 APERTURE END LIST*
D10*
%TO.P,R4,1*%
%TO.N,Net-(Q1-Pad2)*%
X126507240Y-135346440D03*
D11*
%TO.P,R4,2*%
%TO.N,/P1*%
X126507240Y-148046440D03*
%TD*%
D12*
%TO.P,buzzer1,2*%
%TO.N,Net-(D13-Pad2)*%
X100355400Y-118948200D03*
D13*
%TO.P,buzzer1,1*%
%TO.N,+10V*%
X100355400Y-116408200D03*
%TD*%
%TO.P,J2,1*%
%TO.N,GND*%
X100467160Y-130421380D03*
D12*
%TO.P,J2,2*%
%TO.N,Net-(J2-Pad2)*%
X100467160Y-127881380D03*
%TO.P,J2,3*%
%TO.N,+5V*%
X100467160Y-125341380D03*
%TD*%
D13*
%TO.P,J1,1*%
%TO.N,GND*%
X100606860Y-136169400D03*
D12*
%TO.P,J1,2*%
%TO.N,/P2*%
X100606860Y-138709400D03*
%TO.P,J1,3*%
%TO.N,/P1*%
X100606860Y-141249400D03*
%TO.P,J1,4*%
%TO.N,Net-(J1-Pad4)*%
X100606860Y-143789400D03*
%TD*%
D14*
%TO.P,D13,1*%
%TO.N,+10V*%
X122809000Y-121767600D03*
D15*
%TO.P,D13,2*%
%TO.N,Net-(D13-Pad2)*%
X110109000Y-121767600D03*
%TD*%
D11*
%TO.P,R5,2*%
%TO.N,/P2*%
X106000000Y-135300000D03*
D10*
%TO.P,R5,1*%
%TO.N,Net-(Q2-Pad2)*%
X106000000Y-148000000D03*
%TD*%
%TO.P,R2,1*%
%TO.N,Net-(Q1-Pad2)*%
X121335800Y-135242300D03*
D11*
%TO.P,R2,2*%
%TO.N,GND*%
X121335800Y-150482300D03*
%TD*%
%TO.P,R7,2*%
%TO.N,GND*%
X116243100Y-149199600D03*
D10*
%TO.P,R7,1*%
%TO.N,Net-(Q2-Pad2)*%
X116243100Y-133959600D03*
%TD*%
%TO.P,C3,1*%
%TO.N,GND*%
X104648000Y-131546600D03*
%TO.P,C3,2*%
%TO.N,+5V*%
X104648000Y-124046600D03*
%TD*%
D16*
%TO.P,D1,1*%
%TO.N,Net-(D1-Pad1)*%
X143441420Y-134630160D03*
D17*
%TO.P,D1,2*%
%TO.N,+5V*%
X145981420Y-134630160D03*
%TD*%
D16*
%TO.P,D2,1*%
%TO.N,Net-(D10-Pad1)*%
X137690860Y-134635240D03*
D17*
%TO.P,D2,2*%
%TO.N,Net-(D1-Pad1)*%
X140230860Y-134635240D03*
%TD*%
%TO.P,D3,2*%
%TO.N,+5V*%
X146083020Y-141450060D03*
D16*
%TO.P,D3,1*%
%TO.N,Net-(D3-Pad1)*%
X143543020Y-141450060D03*
%TD*%
%TO.P,D4,1*%
%TO.N,Net-(D10-Pad2)*%
X143845280Y-148285200D03*
D17*
%TO.P,D4,2*%
%TO.N,+5V*%
X146385280Y-148285200D03*
%TD*%
%TO.P,D5,2*%
%TO.N,+5V*%
X145854469Y-109123161D03*
D16*
%TO.P,D5,1*%
%TO.N,Net-(D5-Pad1)*%
X143314469Y-109123161D03*
%TD*%
%TO.P,D6,1*%
%TO.N,Net-(D11-Pad2)*%
X142979140Y-126344680D03*
D17*
%TO.P,D6,2*%
%TO.N,+5V*%
X145519140Y-126344680D03*
%TD*%
%TO.P,D7,2*%
%TO.N,+5V*%
X145544540Y-117502940D03*
D16*
%TO.P,D7,1*%
%TO.N,Net-(D12-Pad2)*%
X143004540Y-117502940D03*
%TD*%
%TO.P,D8,1*%
%TO.N,Net-(D11-Pad1)*%
X135867140Y-109143800D03*
D17*
%TO.P,D8,2*%
%TO.N,Net-(D5-Pad1)*%
X138407140Y-109143800D03*
%TD*%
D16*
%TO.P,D9,1*%
%TO.N,Net-(D10-Pad1)*%
X137835640Y-141465300D03*
D17*
%TO.P,D9,2*%
%TO.N,Net-(D3-Pad1)*%
X140375640Y-141465300D03*
%TD*%
%TO.P,D10,2*%
%TO.N,Net-(D10-Pad2)*%
X140632180Y-148206460D03*
D16*
%TO.P,D10,1*%
%TO.N,Net-(D10-Pad1)*%
X138092180Y-148206460D03*
%TD*%
D17*
%TO.P,D11,2*%
%TO.N,Net-(D11-Pad2)*%
X138130280Y-126436120D03*
D16*
%TO.P,D11,1*%
%TO.N,Net-(D11-Pad1)*%
X135590280Y-126436120D03*
%TD*%
%TO.P,D12,1*%
%TO.N,Net-(D11-Pad1)*%
X135788400Y-117424200D03*
D17*
%TO.P,D12,2*%
%TO.N,Net-(D12-Pad2)*%
X138328400Y-117424200D03*
%TD*%
D10*
%TO.P,R3,1*%
%TO.N,Net-(D11-Pad1)*%
X128927860Y-106801920D03*
D11*
%TO.P,R3,2*%
%TO.N,Net-(Q2-Pad3)*%
X128927860Y-119501920D03*
%TD*%
%TO.P,R6,2*%
%TO.N,Net-(Q1-Pad3)*%
X133276340Y-134901940D03*
D10*
%TO.P,R6,1*%
%TO.N,Net-(D10-Pad1)*%
X133276340Y-147601940D03*
%TD*%
D18*
%TO.P,C1,1*%
%TO.N,+10V*%
X105854500Y-111429800D03*
%TO.P,C1,2*%
%TO.N,GND*%
X105854500Y-106429800D03*
%TD*%
%TO.P,C2,2*%
%TO.N,Net-(C2-Pad2)*%
X123240800Y-104524800D03*
%TO.P,C2,1*%
%TO.N,Net-(C2-Pad1)*%
X123240800Y-109524800D03*
%TD*%
D14*
%TO.P,D14,1*%
%TO.N,+10V*%
X110515400Y-116281200D03*
D15*
%TO.P,D14,2*%
%TO.N,+5V*%
X123215400Y-116281200D03*
%TD*%
D19*
%TO.P,R1,1*%
%TO.N,GND*%
X111975900Y-133870700D03*
D20*
%TO.P,R1,2*%
%TO.N,Net-(R1-Pad2)*%
X111975900Y-126250700D03*
%TD*%
D21*
%TO.P,R8,1*%
%TO.N,+5V*%
X133502400Y-99212400D03*
D15*
%TO.P,R8,2*%
%TO.N,Net-(R8-Pad2)*%
X113182400Y-99212400D03*
%TD*%
D22*
%TO.P,U1,1*%
%TO.N,Net-(U1-Pad1)*%
X118033800Y-111861600D03*
D11*
%TO.P,U1,5*%
%TO.N,GND*%
X110413800Y-104241600D03*
%TO.P,U1,2*%
%TO.N,Net-(C2-Pad1)*%
X118033800Y-109321600D03*
%TO.P,U1,6*%
%TO.N,Net-(R1-Pad2)*%
X110413800Y-106781600D03*
%TO.P,U1,3*%
%TO.N,Net-(R8-Pad2)*%
X118033800Y-106781600D03*
%TO.P,U1,7*%
%TO.N,Net-(U1-Pad7)*%
X110413800Y-109321600D03*
%TO.P,U1,4*%
%TO.N,Net-(C2-Pad2)*%
X118033800Y-104241600D03*
%TO.P,U1,8*%
%TO.N,+10V*%
X110413800Y-111861600D03*
%TD*%
D23*
%TO.P,Q1,1*%
%TO.N,GND*%
X129692400Y-131973320D03*
D24*
%TO.P,Q1,3*%
%TO.N,Net-(Q1-Pad3)*%
X129692400Y-129433320D03*
%TO.P,Q1,2*%
%TO.N,Net-(Q1-Pad2)*%
X128422400Y-130703320D03*
%TD*%
%TO.P,Q2,2*%
%TO.N,Net-(Q2-Pad2)*%
X128402080Y-124348240D03*
%TO.P,Q2,3*%
%TO.N,Net-(Q2-Pad3)*%
X129672080Y-123078240D03*
D23*
%TO.P,Q2,1*%
%TO.N,GND*%
X129672080Y-125618240D03*
%TD*%
D24*
%TO.P,Q3,2*%
%TO.N,Net-(Q2-Pad2)*%
X116834920Y-129148840D03*
%TO.P,Q3,3*%
%TO.N,Net-(D13-Pad2)*%
X118104920Y-127878840D03*
D23*
%TO.P,Q3,1*%
%TO.N,GND*%
X118104920Y-130418840D03*
%TD*%
%TO.P,Q4,1*%
%TO.N,GND*%
X124028200Y-130403600D03*
D24*
%TO.P,Q4,3*%
%TO.N,Net-(D13-Pad2)*%
X124028200Y-127863600D03*
%TO.P,Q4,2*%
%TO.N,Net-(Q1-Pad2)*%
X122758200Y-129133600D03*
%TD*%
D25*
%TO.N,Net-(D1-Pad1)*%
X143436340Y-134635240D02*
X143441420Y-134630160D01*
X140230860Y-134635240D02*
X143436340Y-134635240D01*
%TO.N,+5V*%
X145981420Y-141348460D02*
X146083020Y-141450060D01*
X145981420Y-134630160D02*
X145981420Y-141348460D01*
X146083020Y-147982940D02*
X146385280Y-148285200D01*
X146083020Y-141450060D02*
X146083020Y-147982940D01*
X145854469Y-117193011D02*
X145544540Y-117502940D01*
X145854469Y-109123161D02*
X145854469Y-117193011D01*
X146184669Y-148485811D02*
X146385280Y-148285200D01*
X145544540Y-126319280D02*
X145519140Y-126344680D01*
X145544540Y-117502940D02*
X145544540Y-126319280D01*
X103353220Y-125341380D02*
X104648000Y-124046600D01*
X100467160Y-125341380D02*
X103353220Y-125341380D01*
X145519140Y-134167880D02*
X145981420Y-134630160D01*
X145519140Y-126344680D02*
X145519140Y-134167880D01*
X145854469Y-107652869D02*
X145854469Y-109123161D01*
X137414000Y-99212400D02*
X145854469Y-107652869D01*
X133502400Y-99212400D02*
X137414000Y-99212400D01*
X126720600Y-105994200D02*
X133502400Y-99212400D01*
X126720600Y-112776000D02*
X126720600Y-105994200D01*
X123215400Y-116281200D02*
X126720600Y-112776000D01*
%TO.N,Net-(D10-Pad1)*%
X137690860Y-141320520D02*
X137835640Y-141465300D01*
X137690860Y-134635240D02*
X137690860Y-141320520D01*
X133880860Y-148206460D02*
X133276340Y-147601940D01*
X137835640Y-147949920D02*
X138092180Y-148206460D01*
X137835640Y-146395440D02*
X137835640Y-147949920D01*
X137835640Y-141465300D02*
X137835640Y-146395440D01*
X137581640Y-147695920D02*
X138092180Y-148206460D01*
X137581640Y-146649440D02*
X137581640Y-147695920D01*
X137581640Y-146649440D02*
X137835640Y-146395440D01*
X136933940Y-148206460D02*
X136933940Y-147297140D01*
X136933940Y-147297140D02*
X137581640Y-146649440D01*
X138092180Y-148206460D02*
X136933940Y-148206460D01*
X136933940Y-148206460D02*
X136306560Y-148206460D01*
X137581640Y-146931380D02*
X136306560Y-148206460D01*
X137581640Y-146649440D02*
X137581640Y-146931380D01*
X136024620Y-148206460D02*
X137835640Y-146395440D01*
X135442960Y-148206460D02*
X136024620Y-148206460D01*
X136306560Y-148206460D02*
X135442960Y-148206460D01*
X135442960Y-148206460D02*
X133880860Y-148206460D01*
%TO.N,Net-(D3-Pad1)*%
X140390880Y-141450060D02*
X140375640Y-141465300D01*
X143543020Y-141450060D02*
X140390880Y-141450060D01*
%TO.N,Net-(D10-Pad2)*%
X143766540Y-148206460D02*
X143845280Y-148285200D01*
X140632180Y-148206460D02*
X143766540Y-148206460D01*
%TO.N,Net-(D5-Pad1)*%
X143293830Y-109143800D02*
X143314469Y-109123161D01*
X138407140Y-109143800D02*
X143293830Y-109143800D01*
%TO.N,Net-(D11-Pad2)*%
X142887700Y-126436120D02*
X142979140Y-126344680D01*
X138130280Y-126436120D02*
X142887700Y-126436120D01*
%TO.N,Net-(D12-Pad2)*%
X138407140Y-117502940D02*
X138328400Y-117424200D01*
X143004540Y-117502940D02*
X138407140Y-117502940D01*
%TO.N,Net-(D11-Pad1)*%
X135867140Y-117345460D02*
X135788400Y-117424200D01*
X135867140Y-109143800D02*
X135867140Y-117345460D01*
X135788400Y-126238000D02*
X135590280Y-126436120D01*
X135788400Y-117424200D02*
X135788400Y-126238000D01*
X133525260Y-106801920D02*
X135867140Y-109143800D01*
X128927860Y-106801920D02*
X133525260Y-106801920D01*
%TO.N,Net-(Q1-Pad2)*%
X121335800Y-130556000D02*
X122758200Y-129133600D01*
X126507240Y-132618480D02*
X126507240Y-135346440D01*
X128422400Y-130703320D02*
X126507240Y-132618480D01*
X121439940Y-135346440D02*
X121335800Y-135242300D01*
X126507240Y-134020560D02*
X125181360Y-135346440D01*
X126507240Y-132618480D02*
X126507240Y-134020560D01*
X126507240Y-135346440D02*
X125181360Y-135346440D01*
X121376440Y-134091680D02*
X122631200Y-135346440D01*
X121335800Y-134091680D02*
X121376440Y-134091680D01*
X122631200Y-135346440D02*
X121439940Y-135346440D01*
X125181360Y-135346440D02*
X122631200Y-135346440D01*
X121335800Y-135242300D02*
X121335800Y-134091680D01*
X121335800Y-134091680D02*
X121335800Y-130556000D01*
%TO.N,GND*%
X103522780Y-130421380D02*
X104648000Y-131546600D01*
X109651800Y-131546600D02*
X111975900Y-133870700D01*
X104648000Y-131546600D02*
X109651800Y-131546600D01*
X100606860Y-130561080D02*
X100467160Y-130421380D01*
X123948199Y-130483601D02*
X124028200Y-130403600D01*
X118104920Y-130418840D02*
X118169681Y-130483601D01*
X100606860Y-132082540D02*
X100606860Y-132036820D01*
X102222300Y-130421380D02*
X103522780Y-130421380D01*
X100467160Y-130421380D02*
X102222300Y-130421380D01*
X100606860Y-136169400D02*
X100606860Y-132082540D01*
X100606860Y-132036820D02*
X102222300Y-130421380D01*
X100606860Y-132082540D02*
X100606860Y-130561080D01*
%TO.N,Net-(Q2-Pad2)*%
X106000000Y-148000000D02*
X106000000Y-144202700D01*
X114823240Y-131160520D02*
X116834920Y-129148840D01*
X114823240Y-132539740D02*
X114823240Y-131160520D01*
X114823240Y-134955280D02*
X115035330Y-135167370D01*
X114823240Y-132539740D02*
X114823240Y-134955280D01*
X115035330Y-135167370D02*
X116243100Y-133959600D01*
X115035330Y-134133590D02*
X115726210Y-133442710D01*
X115035330Y-135167370D02*
X115035330Y-134133590D01*
X115726210Y-133442710D02*
X114823240Y-132539740D01*
X116243100Y-133959600D02*
X115726210Y-133442710D01*
X114524790Y-131458970D02*
X114823240Y-131160520D01*
X114524790Y-135677910D02*
X114524790Y-131458970D01*
X106000000Y-144202700D02*
X114524790Y-135677910D01*
X114524790Y-135677910D02*
X115035330Y-135167370D01*
%TO.N,/P1*%
X98640900Y-146596100D02*
X98640900Y-143215360D01*
X107218480Y-150622000D02*
X102666800Y-150622000D01*
X98640900Y-143215360D02*
X100606860Y-141249400D01*
X111241840Y-146598640D02*
X107218480Y-150622000D01*
X102666800Y-150622000D02*
X98640900Y-146596100D01*
X125059440Y-146598640D02*
X111241840Y-146598640D01*
X126507240Y-148046440D02*
X125059440Y-146598640D01*
%TO.N,/P2*%
X102590600Y-138709400D02*
X106000000Y-135300000D01*
X100606860Y-138709400D02*
X102590600Y-138709400D01*
%TO.N,Net-(D13-Pad2)*%
X107289600Y-118948200D02*
X110109000Y-121767600D01*
X100355400Y-118948200D02*
X107289600Y-118948200D01*
X110109000Y-121767600D02*
X112471200Y-124129800D01*
X123393441Y-127228841D02*
X124028200Y-127863600D01*
X118754919Y-127228841D02*
X123393441Y-127228841D01*
X118104920Y-127878840D02*
X118754919Y-127228841D01*
X112471200Y-124129800D02*
X114355880Y-124129800D01*
X123123960Y-126959360D02*
X124028200Y-127863600D01*
X117185440Y-126959360D02*
X123123960Y-126959360D01*
X114355880Y-124129800D02*
X117185440Y-126959360D01*
X117185440Y-126959360D02*
X118104920Y-127878840D01*
%TO.N,+10V*%
X110515400Y-111963200D02*
X110413800Y-111861600D01*
X106286300Y-111861600D02*
X105854500Y-111429800D01*
X105333800Y-111429800D02*
X100355400Y-116408200D01*
X105854500Y-111429800D02*
X105333800Y-111429800D01*
X116001800Y-121767600D02*
X110515400Y-116281200D01*
X122809000Y-121767600D02*
X116001800Y-121767600D01*
X109702600Y-111861600D02*
X110515400Y-112674400D01*
X110515400Y-112674400D02*
X110515400Y-111963200D01*
X108394500Y-111861600D02*
X109702600Y-111861600D01*
X108394500Y-111861600D02*
X106286300Y-111861600D01*
X110515400Y-113207800D02*
X109169200Y-111861600D01*
X109169200Y-111861600D02*
X108394500Y-111861600D01*
X110515400Y-113576100D02*
X110515400Y-113207800D01*
X110413800Y-111861600D02*
X109169200Y-111861600D01*
X110515400Y-113576100D02*
X110515400Y-112674400D01*
X110515400Y-113982500D02*
X108394500Y-111861600D01*
X110515400Y-114439700D02*
X110515400Y-113982500D01*
X110515400Y-116281200D02*
X110515400Y-114439700D01*
X110515400Y-114439700D02*
X110515400Y-113576100D01*
%TO.N,Net-(C2-Pad2)*%
X118317000Y-104524800D02*
X118033800Y-104241600D01*
X123240800Y-104524800D02*
X118317000Y-104524800D01*
%TO.N,Net-(C2-Pad1)*%
X123037600Y-109321600D02*
X123240800Y-109524800D01*
X118033800Y-109321600D02*
X123037600Y-109321600D01*
%TO.N,Net-(R8-Pad2)*%
X116840000Y-106781600D02*
X118033800Y-106781600D01*
X113182400Y-103124000D02*
X116840000Y-106781600D01*
X113182400Y-99212400D02*
X113182400Y-103124000D01*
%TO.N,Net-(Q1-Pad3)*%
X133276340Y-131173220D02*
X133276340Y-134901940D01*
X131536440Y-129433320D02*
X133276340Y-131173220D01*
X129692400Y-129433320D02*
X131536440Y-129433320D01*
%TO.N,Net-(Q2-Pad3)*%
X129672080Y-120246140D02*
X128927860Y-119501920D01*
X129672080Y-123078240D02*
X129672080Y-120246140D01*
%TD*%
D26*
%TO.N,+5V*%
X149340001Y-162340000D02*
X96660000Y-162340000D01*
X96660000Y-157725701D01*
X97215000Y-157725701D01*
X97215000Y-158274299D01*
X97322026Y-158812354D01*
X97531965Y-159319192D01*
X97836750Y-159775334D01*
X98224666Y-160163250D01*
X98680808Y-160468035D01*
X99187646Y-160677974D01*
X99725701Y-160785000D01*
X100274299Y-160785000D01*
X100812354Y-160677974D01*
X101319192Y-160468035D01*
X101775334Y-160163250D01*
X102163250Y-159775334D01*
X102468035Y-159319192D01*
X102677974Y-158812354D01*
X102785000Y-158274299D01*
X102785000Y-157725701D01*
X141215000Y-157725701D01*
X141215000Y-158274299D01*
X141322026Y-158812354D01*
X141531965Y-159319192D01*
X141836750Y-159775334D01*
X142224666Y-160163250D01*
X142680808Y-160468035D01*
X143187646Y-160677974D01*
X143725701Y-160785000D01*
X144274299Y-160785000D01*
X144812354Y-160677974D01*
X145319192Y-160468035D01*
X145775334Y-160163250D01*
X146163250Y-159775334D01*
X146468035Y-159319192D01*
X146677974Y-158812354D01*
X146785000Y-158274299D01*
X146785000Y-157725701D01*
X146677974Y-157187646D01*
X146468035Y-156680808D01*
X146163250Y-156224666D01*
X145775334Y-155836750D01*
X145319192Y-155531965D01*
X144812354Y-155322026D01*
X144274299Y-155215000D01*
X143725701Y-155215000D01*
X143187646Y-155322026D01*
X142680808Y-155531965D01*
X142224666Y-155836750D01*
X141836750Y-156224666D01*
X141531965Y-156680808D01*
X141322026Y-157187646D01*
X141215000Y-157725701D01*
X102785000Y-157725701D01*
X102677974Y-157187646D01*
X102468035Y-156680808D01*
X102163250Y-156224666D01*
X101775334Y-155836750D01*
X101319192Y-155531965D01*
X100812354Y-155322026D01*
X100274299Y-155215000D01*
X99725701Y-155215000D01*
X99187646Y-155322026D01*
X98680808Y-155531965D01*
X98224666Y-155836750D01*
X97836750Y-156224666D01*
X97531965Y-156680808D01*
X97322026Y-157187646D01*
X97215000Y-157725701D01*
X96660000Y-157725701D01*
X96660000Y-143215360D01*
X97500409Y-143215360D01*
X97505901Y-143271121D01*
X97505900Y-146540348D01*
X97500409Y-146596100D01*
X97505900Y-146651851D01*
X97522323Y-146818598D01*
X97587224Y-147032546D01*
X97692616Y-147229723D01*
X97834451Y-147402549D01*
X97877765Y-147438096D01*
X101824809Y-151385141D01*
X101860351Y-151428449D01*
X102033177Y-151570284D01*
X102230353Y-151675676D01*
X102444301Y-151740577D01*
X102611048Y-151757000D01*
X102611057Y-151757000D01*
X102666799Y-151762490D01*
X102722541Y-151757000D01*
X107162729Y-151757000D01*
X107218480Y-151762491D01*
X107274231Y-151757000D01*
X107274232Y-151757000D01*
X107440979Y-151740577D01*
X107654927Y-151675676D01*
X107852103Y-151570284D01*
X108024929Y-151428449D01*
X108060476Y-151385135D01*
X110387346Y-149058265D01*
X114808100Y-149058265D01*
X114808100Y-149340935D01*
X114863247Y-149618174D01*
X114971420Y-149879327D01*
X115128463Y-150114359D01*
X115328341Y-150314237D01*
X115563373Y-150471280D01*
X115824526Y-150579453D01*
X116101765Y-150634600D01*
X116384435Y-150634600D01*
X116661674Y-150579453D01*
X116922827Y-150471280D01*
X117117857Y-150340965D01*
X119900800Y-150340965D01*
X119900800Y-150623635D01*
X119955947Y-150900874D01*
X120064120Y-151162027D01*
X120221163Y-151397059D01*
X120421041Y-151596937D01*
X120656073Y-151753980D01*
X120917226Y-151862153D01*
X121194465Y-151917300D01*
X121477135Y-151917300D01*
X121754374Y-151862153D01*
X122015527Y-151753980D01*
X122250559Y-151596937D01*
X122450437Y-151397059D01*
X122607480Y-151162027D01*
X122715653Y-150900874D01*
X122770800Y-150623635D01*
X122770800Y-150340965D01*
X122715653Y-150063726D01*
X122607480Y-149802573D01*
X122450437Y-149567541D01*
X122250559Y-149367663D01*
X122015527Y-149210620D01*
X121754374Y-149102447D01*
X121477135Y-149047300D01*
X121194465Y-149047300D01*
X120917226Y-149102447D01*
X120656073Y-149210620D01*
X120421041Y-149367663D01*
X120221163Y-149567541D01*
X120064120Y-149802573D01*
X119955947Y-150063726D01*
X119900800Y-150340965D01*
X117117857Y-150340965D01*
X117157859Y-150314237D01*
X117357737Y-150114359D01*
X117514780Y-149879327D01*
X117622953Y-149618174D01*
X117678100Y-149340935D01*
X117678100Y-149058265D01*
X117622953Y-148781026D01*
X117514780Y-148519873D01*
X117357737Y-148284841D01*
X117157859Y-148084963D01*
X116922827Y-147927920D01*
X116661674Y-147819747D01*
X116384435Y-147764600D01*
X116101765Y-147764600D01*
X115824526Y-147819747D01*
X115563373Y-147927920D01*
X115328341Y-148084963D01*
X115128463Y-148284841D01*
X114971420Y-148519873D01*
X114863247Y-148781026D01*
X114808100Y-149058265D01*
X110387346Y-149058265D01*
X111711972Y-147733640D01*
X124589309Y-147733640D01*
X125079390Y-148223722D01*
X125127387Y-148465014D01*
X125235560Y-148726167D01*
X125392603Y-148961199D01*
X125592481Y-149161077D01*
X125827513Y-149318120D01*
X126088666Y-149426293D01*
X126365905Y-149481440D01*
X126648575Y-149481440D01*
X126925814Y-149426293D01*
X127186967Y-149318120D01*
X127421999Y-149161077D01*
X127621877Y-148961199D01*
X127778920Y-148726167D01*
X127887093Y-148465014D01*
X127942240Y-148187775D01*
X127942240Y-147905105D01*
X127887093Y-147627866D01*
X127817812Y-147460605D01*
X131841340Y-147460605D01*
X131841340Y-147743275D01*
X131896487Y-148020514D01*
X132004660Y-148281667D01*
X132161703Y-148516699D01*
X132361581Y-148716577D01*
X132596613Y-148873620D01*
X132857766Y-148981793D01*
X133093675Y-149028719D01*
X133247237Y-149154744D01*
X133444413Y-149260136D01*
X133658361Y-149325037D01*
X133825108Y-149341460D01*
X133825117Y-149341460D01*
X133880859Y-149346950D01*
X133936601Y-149341460D01*
X135968869Y-149341460D01*
X136024620Y-149346951D01*
X136080371Y-149341460D01*
X136250809Y-149341460D01*
X136306560Y-149346951D01*
X136362311Y-149341460D01*
X136599893Y-149341460D01*
X136602678Y-149350640D01*
X136661643Y-149460954D01*
X136740995Y-149557645D01*
X136837686Y-149636997D01*
X136948000Y-149695962D01*
X137067698Y-149732272D01*
X137192180Y-149744532D01*
X138992180Y-149744532D01*
X139116662Y-149732272D01*
X139236360Y-149695962D01*
X139346674Y-149636997D01*
X139443365Y-149557645D01*
X139522717Y-149460954D01*
X139581682Y-149350640D01*
X139587236Y-149332333D01*
X139653675Y-149398772D01*
X139905085Y-149566759D01*
X140184437Y-149682471D01*
X140480996Y-149741460D01*
X140783364Y-149741460D01*
X141079923Y-149682471D01*
X141359275Y-149566759D01*
X141610685Y-149398772D01*
X141667997Y-149341460D01*
X142329108Y-149341460D01*
X142355778Y-149429380D01*
X142414743Y-149539694D01*
X142494095Y-149636385D01*
X142590786Y-149715737D01*
X142701100Y-149774702D01*
X142820798Y-149811012D01*
X142945280Y-149823272D01*
X144745280Y-149823272D01*
X144869762Y-149811012D01*
X144989460Y-149774702D01*
X145099774Y-149715737D01*
X145196465Y-149636385D01*
X145275817Y-149539694D01*
X145334782Y-149429380D01*
X145338093Y-149418465D01*
X145384858Y-149465230D01*
X145500806Y-149349282D01*
X145584488Y-149603461D01*
X145857055Y-149734358D01*
X146149922Y-149809565D01*
X146451833Y-149826191D01*
X146751187Y-149783597D01*
X147036479Y-149683422D01*
X147186072Y-149603461D01*
X147269755Y-149349280D01*
X146385280Y-148464805D01*
X146371138Y-148478948D01*
X146191533Y-148299343D01*
X146205675Y-148285200D01*
X146564885Y-148285200D01*
X147449360Y-149169675D01*
X147703541Y-149085992D01*
X147834438Y-148813425D01*
X147909645Y-148520558D01*
X147926271Y-148218647D01*
X147883677Y-147919293D01*
X147783502Y-147634001D01*
X147703541Y-147484408D01*
X147449360Y-147400725D01*
X146564885Y-148285200D01*
X146205675Y-148285200D01*
X146191533Y-148271058D01*
X146371138Y-148091453D01*
X146385280Y-148105595D01*
X147269755Y-147221120D01*
X147186072Y-146966939D01*
X146913505Y-146836042D01*
X146620638Y-146760835D01*
X146318727Y-146744209D01*
X146019373Y-146786803D01*
X145734081Y-146886978D01*
X145584488Y-146966939D01*
X145500806Y-147221118D01*
X145384858Y-147105170D01*
X145338093Y-147151935D01*
X145334782Y-147141020D01*
X145275817Y-147030706D01*
X145196465Y-146934015D01*
X145099774Y-146854663D01*
X144989460Y-146795698D01*
X144869762Y-146759388D01*
X144745280Y-146747128D01*
X142945280Y-146747128D01*
X142820798Y-146759388D01*
X142701100Y-146795698D01*
X142590786Y-146854663D01*
X142494095Y-146934015D01*
X142414743Y-147030706D01*
X142392959Y-147071460D01*
X141667997Y-147071460D01*
X141610685Y-147014148D01*
X141359275Y-146846161D01*
X141079923Y-146730449D01*
X140783364Y-146671460D01*
X140480996Y-146671460D01*
X140184437Y-146730449D01*
X139905085Y-146846161D01*
X139653675Y-147014148D01*
X139587236Y-147080587D01*
X139581682Y-147062280D01*
X139522717Y-146951966D01*
X139443365Y-146855275D01*
X139346674Y-146775923D01*
X139236360Y-146716958D01*
X139116662Y-146680648D01*
X138992180Y-146668388D01*
X138970640Y-146668388D01*
X138970640Y-146451192D01*
X138976131Y-146395441D01*
X138970640Y-146339688D01*
X138970640Y-142957587D01*
X138979820Y-142954802D01*
X139090134Y-142895837D01*
X139186825Y-142816485D01*
X139266177Y-142719794D01*
X139325142Y-142609480D01*
X139330696Y-142591173D01*
X139397135Y-142657612D01*
X139648545Y-142825599D01*
X139927897Y-142941311D01*
X140224456Y-143000300D01*
X140526824Y-143000300D01*
X140823383Y-142941311D01*
X141102735Y-142825599D01*
X141354145Y-142657612D01*
X141426697Y-142585060D01*
X142050733Y-142585060D01*
X142053518Y-142594240D01*
X142112483Y-142704554D01*
X142191835Y-142801245D01*
X142288526Y-142880597D01*
X142398840Y-142939562D01*
X142518538Y-142975872D01*
X142643020Y-142988132D01*
X144443020Y-142988132D01*
X144567502Y-142975872D01*
X144687200Y-142939562D01*
X144797514Y-142880597D01*
X144894205Y-142801245D01*
X144973557Y-142704554D01*
X145032522Y-142594240D01*
X145035833Y-142583325D01*
X145082598Y-142630090D01*
X145198546Y-142514142D01*
X145282228Y-142768321D01*
X145554795Y-142899218D01*
X145847662Y-142974425D01*
X146149573Y-142991051D01*
X146448927Y-142948457D01*
X146734219Y-142848282D01*
X146883812Y-142768321D01*
X146967495Y-142514140D01*
X146083020Y-141629665D01*
X146068878Y-141643808D01*
X145889273Y-141464203D01*
X145903415Y-141450060D01*
X146262625Y-141450060D01*
X147147100Y-142334535D01*
X147401281Y-142250852D01*
X147532178Y-141978285D01*
X147607385Y-141685418D01*
X147624011Y-141383507D01*
X147581417Y-141084153D01*
X147481242Y-140798861D01*
X147401281Y-140649268D01*
X147147100Y-140565585D01*
X146262625Y-141450060D01*
X145903415Y-141450060D01*
X145889273Y-141435918D01*
X146068878Y-141256313D01*
X146083020Y-141270455D01*
X146967495Y-140385980D01*
X146883812Y-140131799D01*
X146611245Y-140000902D01*
X146318378Y-139925695D01*
X146016467Y-139909069D01*
X145717113Y-139951663D01*
X145431821Y-140051838D01*
X145282228Y-140131799D01*
X145198546Y-140385978D01*
X145082598Y-140270030D01*
X145035833Y-140316795D01*
X145032522Y-140305880D01*
X144973557Y-140195566D01*
X144894205Y-140098875D01*
X144797514Y-140019523D01*
X144687200Y-139960558D01*
X144567502Y-139924248D01*
X144443020Y-139911988D01*
X142643020Y-139911988D01*
X142518538Y-139924248D01*
X142398840Y-139960558D01*
X142288526Y-140019523D01*
X142191835Y-140098875D01*
X142112483Y-140195566D01*
X142053518Y-140305880D01*
X142050733Y-140315060D01*
X141396217Y-140315060D01*
X141354145Y-140272988D01*
X141102735Y-140105001D01*
X140823383Y-139989289D01*
X140526824Y-139930300D01*
X140224456Y-139930300D01*
X139927897Y-139989289D01*
X139648545Y-140105001D01*
X139397135Y-140272988D01*
X139330696Y-140339427D01*
X139325142Y-140321120D01*
X139266177Y-140210806D01*
X139186825Y-140114115D01*
X139090134Y-140034763D01*
X138979820Y-139975798D01*
X138860122Y-139939488D01*
X138825860Y-139936114D01*
X138825860Y-136127527D01*
X138835040Y-136124742D01*
X138945354Y-136065777D01*
X139042045Y-135986425D01*
X139121397Y-135889734D01*
X139180362Y-135779420D01*
X139185916Y-135761113D01*
X139252355Y-135827552D01*
X139503765Y-135995539D01*
X139783117Y-136111251D01*
X140079676Y-136170240D01*
X140382044Y-136170240D01*
X140678603Y-136111251D01*
X140957955Y-135995539D01*
X141209365Y-135827552D01*
X141266677Y-135770240D01*
X141950674Y-135770240D01*
X141951918Y-135774340D01*
X142010883Y-135884654D01*
X142090235Y-135981345D01*
X142186926Y-136060697D01*
X142297240Y-136119662D01*
X142416938Y-136155972D01*
X142541420Y-136168232D01*
X144341420Y-136168232D01*
X144465902Y-136155972D01*
X144585600Y-136119662D01*
X144695914Y-136060697D01*
X144792605Y-135981345D01*
X144871957Y-135884654D01*
X144930922Y-135774340D01*
X144934233Y-135763425D01*
X144980998Y-135810190D01*
X145096946Y-135694242D01*
X145180628Y-135948421D01*
X145453195Y-136079318D01*
X145746062Y-136154525D01*
X146047973Y-136171151D01*
X146347327Y-136128557D01*
X146632619Y-136028382D01*
X146782212Y-135948421D01*
X146865895Y-135694240D01*
X145981420Y-134809765D01*
X145967278Y-134823908D01*
X145787673Y-134644303D01*
X145801815Y-134630160D01*
X146161025Y-134630160D01*
X147045500Y-135514635D01*
X147299681Y-135430952D01*
X147430578Y-135158385D01*
X147505785Y-134865518D01*
X147522411Y-134563607D01*
X147479817Y-134264253D01*
X147379642Y-133978961D01*
X147299681Y-133829368D01*
X147045500Y-133745685D01*
X146161025Y-134630160D01*
X145801815Y-134630160D01*
X145787673Y-134616018D01*
X145967278Y-134436413D01*
X145981420Y-134450555D01*
X146865895Y-133566080D01*
X146782212Y-133311899D01*
X146509645Y-133181002D01*
X146216778Y-133105795D01*
X145914867Y-133089169D01*
X145615513Y-133131763D01*
X145330221Y-133231938D01*
X145180628Y-133311899D01*
X145096946Y-133566078D01*
X144980998Y-133450130D01*
X144934233Y-133496895D01*
X144930922Y-133485980D01*
X144871957Y-133375666D01*
X144792605Y-133278975D01*
X144695914Y-133199623D01*
X144585600Y-133140658D01*
X144465902Y-133104348D01*
X144341420Y-133092088D01*
X142541420Y-133092088D01*
X142416938Y-133104348D01*
X142297240Y-133140658D01*
X142186926Y-133199623D01*
X142090235Y-133278975D01*
X142010883Y-133375666D01*
X141951918Y-133485980D01*
X141947592Y-133500240D01*
X141266677Y-133500240D01*
X141209365Y-133442928D01*
X140957955Y-133274941D01*
X140678603Y-133159229D01*
X140382044Y-133100240D01*
X140079676Y-133100240D01*
X139783117Y-133159229D01*
X139503765Y-133274941D01*
X139252355Y-133442928D01*
X139185916Y-133509367D01*
X139180362Y-133491060D01*
X139121397Y-133380746D01*
X139042045Y-133284055D01*
X138945354Y-133204703D01*
X138835040Y-133145738D01*
X138715342Y-133109428D01*
X138590860Y-133097168D01*
X136790860Y-133097168D01*
X136666378Y-133109428D01*
X136546680Y-133145738D01*
X136436366Y-133204703D01*
X136339675Y-133284055D01*
X136260323Y-133380746D01*
X136201358Y-133491060D01*
X136165048Y-133610758D01*
X136152788Y-133735240D01*
X136152788Y-135535240D01*
X136165048Y-135659722D01*
X136201358Y-135779420D01*
X136260323Y-135889734D01*
X136339675Y-135986425D01*
X136436366Y-136065777D01*
X136546680Y-136124742D01*
X136555860Y-136127527D01*
X136555861Y-140055514D01*
X136484455Y-140114115D01*
X136405103Y-140210806D01*
X136346138Y-140321120D01*
X136309828Y-140440818D01*
X136297568Y-140565300D01*
X136297568Y-142365300D01*
X136309828Y-142489782D01*
X136346138Y-142609480D01*
X136405103Y-142719794D01*
X136484455Y-142816485D01*
X136581146Y-142895837D01*
X136691460Y-142954802D01*
X136700640Y-142957587D01*
X136700641Y-145925307D01*
X136170797Y-146455151D01*
X136127492Y-146490691D01*
X136091952Y-146533997D01*
X135554489Y-147071460D01*
X134609840Y-147071460D01*
X134548020Y-146922213D01*
X134390977Y-146687181D01*
X134191099Y-146487303D01*
X133956067Y-146330260D01*
X133694914Y-146222087D01*
X133417675Y-146166940D01*
X133135005Y-146166940D01*
X132857766Y-146222087D01*
X132596613Y-146330260D01*
X132361581Y-146487303D01*
X132161703Y-146687181D01*
X132004660Y-146922213D01*
X131896487Y-147183366D01*
X131841340Y-147460605D01*
X127817812Y-147460605D01*
X127778920Y-147366713D01*
X127621877Y-147131681D01*
X127421999Y-146931803D01*
X127186967Y-146774760D01*
X126925814Y-146666587D01*
X126684522Y-146618590D01*
X125901436Y-145835505D01*
X125865889Y-145792191D01*
X125693063Y-145650356D01*
X125495887Y-145544964D01*
X125281939Y-145480063D01*
X125115192Y-145463640D01*
X125115191Y-145463640D01*
X125059440Y-145458149D01*
X125003689Y-145463640D01*
X111297581Y-145463640D01*
X111241839Y-145458150D01*
X111186097Y-145463640D01*
X111186088Y-145463640D01*
X111019341Y-145480063D01*
X110805393Y-145544964D01*
X110608217Y-145650356D01*
X110435391Y-145792191D01*
X110399849Y-145835499D01*
X106748349Y-149487000D01*
X103136932Y-149487000D01*
X99775900Y-146125969D01*
X99775900Y-145020165D01*
X99903449Y-145105390D01*
X100173702Y-145217332D01*
X100460600Y-145274400D01*
X100753120Y-145274400D01*
X101040018Y-145217332D01*
X101310271Y-145105390D01*
X101553492Y-144942875D01*
X101760335Y-144736032D01*
X101922850Y-144492811D01*
X102034792Y-144222558D01*
X102091860Y-143935660D01*
X102091860Y-143643140D01*
X102034792Y-143356242D01*
X101922850Y-143085989D01*
X101760335Y-142842768D01*
X101553492Y-142635925D01*
X101379100Y-142519400D01*
X101553492Y-142402875D01*
X101760335Y-142196032D01*
X101922850Y-141952811D01*
X102034792Y-141682558D01*
X102091860Y-141395660D01*
X102091860Y-141103140D01*
X102034792Y-140816242D01*
X101922850Y-140545989D01*
X101760335Y-140302768D01*
X101553492Y-140095925D01*
X101379100Y-139979400D01*
X101553492Y-139862875D01*
X101571967Y-139844400D01*
X102534849Y-139844400D01*
X102590600Y-139849891D01*
X102646351Y-139844400D01*
X102646352Y-139844400D01*
X102813099Y-139827977D01*
X103027047Y-139763076D01*
X103224223Y-139657684D01*
X103397049Y-139515849D01*
X103432596Y-139472535D01*
X106177283Y-136727849D01*
X106418574Y-136679853D01*
X106679727Y-136571680D01*
X106914759Y-136414637D01*
X107114637Y-136214759D01*
X107271680Y-135979727D01*
X107379853Y-135718574D01*
X107435000Y-135441335D01*
X107435000Y-135158665D01*
X107379853Y-134881426D01*
X107271680Y-134620273D01*
X107114637Y-134385241D01*
X106914759Y-134185363D01*
X106679727Y-134028320D01*
X106418574Y-133920147D01*
X106141335Y-133865000D01*
X105858665Y-133865000D01*
X105581426Y-133920147D01*
X105320273Y-134028320D01*
X105085241Y-134185363D01*
X104885363Y-134385241D01*
X104728320Y-134620273D01*
X104620147Y-134881426D01*
X104572151Y-135122717D01*
X102120469Y-137574400D01*
X101765588Y-137574400D01*
X101811354Y-137549937D01*
X101908045Y-137470585D01*
X101987397Y-137373894D01*
X102046362Y-137263580D01*
X102082672Y-137143882D01*
X102094932Y-137019400D01*
X102094932Y-135319400D01*
X102082672Y-135194918D01*
X102046362Y-135075220D01*
X101987397Y-134964906D01*
X101908045Y-134868215D01*
X101811354Y-134788863D01*
X101741860Y-134751717D01*
X101741860Y-132506951D01*
X102692432Y-131556380D01*
X103052649Y-131556380D01*
X103220150Y-131723882D01*
X103268147Y-131965174D01*
X103376320Y-132226327D01*
X103533363Y-132461359D01*
X103733241Y-132661237D01*
X103968273Y-132818280D01*
X104229426Y-132926453D01*
X104506665Y-132981600D01*
X104789335Y-132981600D01*
X105066574Y-132926453D01*
X105327727Y-132818280D01*
X105532284Y-132681600D01*
X109181669Y-132681600D01*
X110675327Y-134175259D01*
X110692204Y-134260105D01*
X110792839Y-134503059D01*
X110938938Y-134721713D01*
X111124887Y-134907662D01*
X111343541Y-135053761D01*
X111586495Y-135154396D01*
X111844414Y-135205700D01*
X112107386Y-135205700D01*
X112365305Y-135154396D01*
X112608259Y-135053761D01*
X112826913Y-134907662D01*
X113012862Y-134721713D01*
X113158961Y-134503059D01*
X113259596Y-134260105D01*
X113310900Y-134002186D01*
X113310900Y-133739214D01*
X113259596Y-133481295D01*
X113158961Y-133238341D01*
X113012862Y-133019687D01*
X112826913Y-132833738D01*
X112608259Y-132687639D01*
X112365305Y-132587004D01*
X112280459Y-132570127D01*
X110493796Y-130783465D01*
X110458249Y-130740151D01*
X110285423Y-130598316D01*
X110088247Y-130492924D01*
X109874299Y-130428023D01*
X109707552Y-130411600D01*
X109707551Y-130411600D01*
X109651800Y-130406109D01*
X109596049Y-130411600D01*
X105532284Y-130411600D01*
X105327727Y-130274920D01*
X105066574Y-130166747D01*
X104825282Y-130118750D01*
X104364776Y-129658244D01*
X104329229Y-129614931D01*
X104156403Y-129473096D01*
X103959227Y-129367704D01*
X103745279Y-129302803D01*
X103578532Y-129286380D01*
X103578531Y-129286380D01*
X103522780Y-129280889D01*
X103467029Y-129286380D01*
X102278051Y-129286380D01*
X102222299Y-129280889D01*
X102166547Y-129286380D01*
X101884843Y-129286380D01*
X101847697Y-129216886D01*
X101768345Y-129120195D01*
X101671654Y-129040843D01*
X101561340Y-128981878D01*
X101488780Y-128959867D01*
X101620635Y-128828012D01*
X101783150Y-128584791D01*
X101895092Y-128314538D01*
X101952160Y-128027640D01*
X101952160Y-127735120D01*
X101895092Y-127448222D01*
X101783150Y-127177969D01*
X101620635Y-126934748D01*
X101413792Y-126727905D01*
X101231626Y-126606185D01*
X101348515Y-126536558D01*
X101564748Y-126341649D01*
X101738801Y-126108300D01*
X101863985Y-125845479D01*
X101908636Y-125698270D01*
X101787315Y-125468380D01*
X100594160Y-125468380D01*
X100594160Y-125488380D01*
X100340160Y-125488380D01*
X100340160Y-125468380D01*
X99147005Y-125468380D01*
X99025684Y-125698270D01*
X99070335Y-125845479D01*
X99195519Y-126108300D01*
X99369572Y-126341649D01*
X99585805Y-126536558D01*
X99702694Y-126606185D01*
X99520528Y-126727905D01*
X99313685Y-126934748D01*
X99151170Y-127177969D01*
X99039228Y-127448222D01*
X98982160Y-127735120D01*
X98982160Y-128027640D01*
X99039228Y-128314538D01*
X99151170Y-128584791D01*
X99313685Y-128828012D01*
X99445540Y-128959867D01*
X99372980Y-128981878D01*
X99262666Y-129040843D01*
X99165975Y-129120195D01*
X99086623Y-129216886D01*
X99027658Y-129327200D01*
X98991348Y-129446898D01*
X98979088Y-129571380D01*
X98979088Y-131271380D01*
X98991348Y-131395862D01*
X99027658Y-131515560D01*
X99086623Y-131625874D01*
X99165975Y-131722565D01*
X99262666Y-131801917D01*
X99372980Y-131860882D01*
X99471860Y-131890877D01*
X99471860Y-131981068D01*
X99466369Y-132036820D01*
X99471860Y-132092571D01*
X99471860Y-132138291D01*
X99471861Y-132138301D01*
X99471860Y-134751717D01*
X99402366Y-134788863D01*
X99305675Y-134868215D01*
X99226323Y-134964906D01*
X99167358Y-135075220D01*
X99131048Y-135194918D01*
X99118788Y-135319400D01*
X99118788Y-137019400D01*
X99131048Y-137143882D01*
X99167358Y-137263580D01*
X99226323Y-137373894D01*
X99305675Y-137470585D01*
X99402366Y-137549937D01*
X99512680Y-137608902D01*
X99585240Y-137630913D01*
X99453385Y-137762768D01*
X99290870Y-138005989D01*
X99178928Y-138276242D01*
X99121860Y-138563140D01*
X99121860Y-138855660D01*
X99178928Y-139142558D01*
X99290870Y-139412811D01*
X99453385Y-139656032D01*
X99660228Y-139862875D01*
X99834620Y-139979400D01*
X99660228Y-140095925D01*
X99453385Y-140302768D01*
X99290870Y-140545989D01*
X99178928Y-140816242D01*
X99121860Y-141103140D01*
X99121860Y-141129268D01*
X97877760Y-142373369D01*
X97834452Y-142408911D01*
X97692617Y-142581737D01*
X97663653Y-142635925D01*
X97587224Y-142778914D01*
X97522323Y-142992862D01*
X97500409Y-143215360D01*
X96660000Y-143215360D01*
X96660000Y-124984490D01*
X99025684Y-124984490D01*
X99147005Y-125214380D01*
X100340160Y-125214380D01*
X100340160Y-124020566D01*
X100594160Y-124020566D01*
X100594160Y-125214380D01*
X101787315Y-125214380D01*
X101879709Y-125039302D01*
X103834903Y-125039302D01*
X103906486Y-125283271D01*
X104161996Y-125404171D01*
X104436184Y-125472900D01*
X104718512Y-125486817D01*
X104998130Y-125445387D01*
X105264292Y-125350203D01*
X105389514Y-125283271D01*
X105461097Y-125039302D01*
X104648000Y-124226205D01*
X103834903Y-125039302D01*
X101879709Y-125039302D01*
X101908636Y-124984490D01*
X101863985Y-124837281D01*
X101738801Y-124574460D01*
X101564748Y-124341111D01*
X101348515Y-124146202D01*
X101299680Y-124117112D01*
X103207783Y-124117112D01*
X103249213Y-124396730D01*
X103344397Y-124662892D01*
X103411329Y-124788114D01*
X103655298Y-124859697D01*
X104468395Y-124046600D01*
X104827605Y-124046600D01*
X105640702Y-124859697D01*
X105884671Y-124788114D01*
X106005571Y-124532604D01*
X106074300Y-124258416D01*
X106088217Y-123976088D01*
X106046787Y-123696470D01*
X105951603Y-123430308D01*
X105884671Y-123305086D01*
X105640702Y-123233503D01*
X104827605Y-124046600D01*
X104468395Y-124046600D01*
X103655298Y-123233503D01*
X103411329Y-123305086D01*
X103290429Y-123560596D01*
X103221700Y-123834784D01*
X103207783Y-124117112D01*
X101299680Y-124117112D01*
X101098412Y-123997223D01*
X100824051Y-123899899D01*
X100594160Y-124020566D01*
X100340160Y-124020566D01*
X100110269Y-123899899D01*
X99835908Y-123997223D01*
X99585805Y-124146202D01*
X99369572Y-124341111D01*
X99195519Y-124574460D01*
X99070335Y-124837281D01*
X99025684Y-124984490D01*
X96660000Y-124984490D01*
X96660000Y-123053898D01*
X103834903Y-123053898D01*
X104648000Y-123866995D01*
X105461097Y-123053898D01*
X105389514Y-122809929D01*
X105134004Y-122689029D01*
X104859816Y-122620300D01*
X104577488Y-122606383D01*
X104297870Y-122647813D01*
X104031708Y-122742997D01*
X103906486Y-122809929D01*
X103834903Y-123053898D01*
X96660000Y-123053898D01*
X96660000Y-115558200D01*
X98867328Y-115558200D01*
X98867328Y-117258200D01*
X98879588Y-117382682D01*
X98915898Y-117502380D01*
X98974863Y-117612694D01*
X99054215Y-117709385D01*
X99150906Y-117788737D01*
X99261220Y-117847702D01*
X99333780Y-117869713D01*
X99201925Y-118001568D01*
X99039410Y-118244789D01*
X98927468Y-118515042D01*
X98870400Y-118801940D01*
X98870400Y-119094460D01*
X98927468Y-119381358D01*
X99039410Y-119651611D01*
X99201925Y-119894832D01*
X99408768Y-120101675D01*
X99651989Y-120264190D01*
X99922242Y-120376132D01*
X100209140Y-120433200D01*
X100501660Y-120433200D01*
X100788558Y-120376132D01*
X101058811Y-120264190D01*
X101302032Y-120101675D01*
X101320507Y-120083200D01*
X106819469Y-120083200D01*
X108282152Y-121545884D01*
X108274000Y-121586868D01*
X108274000Y-121948332D01*
X108344518Y-122302850D01*
X108482844Y-122636799D01*
X108683662Y-122937344D01*
X108939256Y-123192938D01*
X109239801Y-123393756D01*
X109573750Y-123532082D01*
X109928268Y-123602600D01*
X110289732Y-123602600D01*
X110330716Y-123594448D01*
X111629209Y-124892941D01*
X111664751Y-124936249D01*
X111679648Y-124948475D01*
X111586495Y-124967004D01*
X111343541Y-125067639D01*
X111124887Y-125213738D01*
X110938938Y-125399687D01*
X110792839Y-125618341D01*
X110692204Y-125861295D01*
X110640900Y-126119214D01*
X110640900Y-126382186D01*
X110692204Y-126640105D01*
X110792839Y-126883059D01*
X110938938Y-127101713D01*
X111124887Y-127287662D01*
X111343541Y-127433761D01*
X111586495Y-127534396D01*
X111844414Y-127585700D01*
X112107386Y-127585700D01*
X112365305Y-127534396D01*
X112608259Y-127433761D01*
X112826913Y-127287662D01*
X113012862Y-127101713D01*
X113158961Y-126883059D01*
X113259596Y-126640105D01*
X113310900Y-126382186D01*
X113310900Y-126119214D01*
X113259596Y-125861295D01*
X113158961Y-125618341D01*
X113012862Y-125399687D01*
X112877975Y-125264800D01*
X113885749Y-125264800D01*
X116343449Y-127722501D01*
X116378991Y-127765809D01*
X116422304Y-127801355D01*
X116521881Y-127900932D01*
X116460099Y-127913221D01*
X116226244Y-128010087D01*
X116015780Y-128150715D01*
X115836795Y-128329700D01*
X115696167Y-128540164D01*
X115599301Y-128774019D01*
X115597983Y-128780645D01*
X114060100Y-130318529D01*
X114016792Y-130354071D01*
X113981252Y-130397377D01*
X113761650Y-130616979D01*
X113718342Y-130652521D01*
X113576507Y-130825347D01*
X113538567Y-130896329D01*
X113471114Y-131022524D01*
X113406213Y-131236472D01*
X113384299Y-131458970D01*
X113389791Y-131514731D01*
X113389790Y-135207777D01*
X105236860Y-143360709D01*
X105193552Y-143396251D01*
X105051717Y-143569077D01*
X105012130Y-143643140D01*
X104946324Y-143766254D01*
X104881423Y-143980202D01*
X104859509Y-144202700D01*
X104865001Y-144258461D01*
X104865000Y-147115716D01*
X104728320Y-147320273D01*
X104620147Y-147581426D01*
X104565000Y-147858665D01*
X104565000Y-148141335D01*
X104620147Y-148418574D01*
X104728320Y-148679727D01*
X104885363Y-148914759D01*
X105085241Y-149114637D01*
X105320273Y-149271680D01*
X105581426Y-149379853D01*
X105858665Y-149435000D01*
X106141335Y-149435000D01*
X106418574Y-149379853D01*
X106679727Y-149271680D01*
X106914759Y-149114637D01*
X107114637Y-148914759D01*
X107271680Y-148679727D01*
X107379853Y-148418574D01*
X107435000Y-148141335D01*
X107435000Y-147858665D01*
X107379853Y-147581426D01*
X107271680Y-147320273D01*
X107135000Y-147115716D01*
X107135000Y-144672831D01*
X115287936Y-136519897D01*
X115331239Y-136484359D01*
X115366785Y-136441046D01*
X115798473Y-136009359D01*
X115841779Y-135973819D01*
X115877325Y-135930506D01*
X116420382Y-135387450D01*
X116661674Y-135339453D01*
X116922827Y-135231280D01*
X117157859Y-135074237D01*
X117357737Y-134874359D01*
X117514780Y-134639327D01*
X117622953Y-134378174D01*
X117678100Y-134100935D01*
X117678100Y-133818265D01*
X117622953Y-133541026D01*
X117514780Y-133279873D01*
X117357737Y-133044841D01*
X117157859Y-132844963D01*
X116922827Y-132687920D01*
X116661674Y-132579747D01*
X116420382Y-132531750D01*
X115958240Y-132069609D01*
X115958240Y-131630651D01*
X116816848Y-130772044D01*
X116816848Y-131068840D01*
X116829108Y-131193322D01*
X116865418Y-131313020D01*
X116924383Y-131423334D01*
X117003735Y-131520025D01*
X117100426Y-131599377D01*
X117210740Y-131658342D01*
X117330438Y-131694652D01*
X117454920Y-131706912D01*
X118754920Y-131706912D01*
X118879402Y-131694652D01*
X118999100Y-131658342D01*
X119109414Y-131599377D01*
X119206105Y-131520025D01*
X119285457Y-131423334D01*
X119344422Y-131313020D01*
X119380732Y-131193322D01*
X119392992Y-131068840D01*
X119392992Y-129768840D01*
X119380732Y-129644358D01*
X119344422Y-129524660D01*
X119285457Y-129414346D01*
X119206105Y-129317655D01*
X119109414Y-129238303D01*
X118999100Y-129179338D01*
X118879402Y-129143028D01*
X118754920Y-129130768D01*
X118397748Y-129130768D01*
X118479741Y-129114459D01*
X118713596Y-129017593D01*
X118924060Y-128876965D01*
X119103045Y-128697980D01*
X119243673Y-128487516D01*
X119294901Y-128363841D01*
X121727080Y-128363841D01*
X121619447Y-128524924D01*
X121522581Y-128758779D01*
X121521263Y-128765405D01*
X120572660Y-129714009D01*
X120529352Y-129749551D01*
X120387517Y-129922377D01*
X120354080Y-129984934D01*
X120282124Y-130119554D01*
X120217223Y-130333502D01*
X120195309Y-130556000D01*
X120200801Y-130611761D01*
X120200800Y-134035928D01*
X120195309Y-134091680D01*
X120200800Y-134147431D01*
X120200800Y-134358016D01*
X120064120Y-134562573D01*
X119955947Y-134823726D01*
X119900800Y-135100965D01*
X119900800Y-135383635D01*
X119955947Y-135660874D01*
X120064120Y-135922027D01*
X120221163Y-136157059D01*
X120421041Y-136356937D01*
X120656073Y-136513980D01*
X120917226Y-136622153D01*
X121194465Y-136677300D01*
X121477135Y-136677300D01*
X121754374Y-136622153D01*
X122015527Y-136513980D01*
X122064227Y-136481440D01*
X122575448Y-136481440D01*
X122631200Y-136486931D01*
X122686952Y-136481440D01*
X125125609Y-136481440D01*
X125181360Y-136486931D01*
X125237111Y-136481440D01*
X125622956Y-136481440D01*
X125827513Y-136618120D01*
X126088666Y-136726293D01*
X126365905Y-136781440D01*
X126648575Y-136781440D01*
X126925814Y-136726293D01*
X127186967Y-136618120D01*
X127421999Y-136461077D01*
X127621877Y-136261199D01*
X127778920Y-136026167D01*
X127887093Y-135765014D01*
X127942240Y-135487775D01*
X127942240Y-135205105D01*
X127887093Y-134927866D01*
X127778920Y-134666713D01*
X127642240Y-134462156D01*
X127642240Y-134076303D01*
X127647730Y-134020561D01*
X127642240Y-133964819D01*
X127642240Y-133088611D01*
X128404328Y-132326524D01*
X128404328Y-132623320D01*
X128416588Y-132747802D01*
X128452898Y-132867500D01*
X128511863Y-132977814D01*
X128591215Y-133074505D01*
X128687906Y-133153857D01*
X128798220Y-133212822D01*
X128917918Y-133249132D01*
X129042400Y-133261392D01*
X130342400Y-133261392D01*
X130466882Y-133249132D01*
X130586580Y-133212822D01*
X130696894Y-133153857D01*
X130793585Y-133074505D01*
X130872937Y-132977814D01*
X130931902Y-132867500D01*
X130968212Y-132747802D01*
X130980472Y-132623320D01*
X130980472Y-131323320D01*
X130968212Y-131198838D01*
X130931902Y-131079140D01*
X130872937Y-130968826D01*
X130793585Y-130872135D01*
X130696894Y-130792783D01*
X130586580Y-130733818D01*
X130466882Y-130697508D01*
X130342400Y-130685248D01*
X129985228Y-130685248D01*
X130067221Y-130668939D01*
X130301076Y-130572073D01*
X130306693Y-130568320D01*
X131066309Y-130568320D01*
X132141340Y-131643352D01*
X132141341Y-134017655D01*
X132004660Y-134222213D01*
X131896487Y-134483366D01*
X131841340Y-134760605D01*
X131841340Y-135043275D01*
X131896487Y-135320514D01*
X132004660Y-135581667D01*
X132161703Y-135816699D01*
X132361581Y-136016577D01*
X132596613Y-136173620D01*
X132857766Y-136281793D01*
X133135005Y-136336940D01*
X133417675Y-136336940D01*
X133694914Y-136281793D01*
X133956067Y-136173620D01*
X134191099Y-136016577D01*
X134390977Y-135816699D01*
X134548020Y-135581667D01*
X134656193Y-135320514D01*
X134711340Y-135043275D01*
X134711340Y-134760605D01*
X134656193Y-134483366D01*
X134548020Y-134222213D01*
X134411340Y-134017656D01*
X134411340Y-131228963D01*
X134416830Y-131173219D01*
X134411340Y-131117475D01*
X134411340Y-131117468D01*
X134394917Y-130950721D01*
X134392287Y-130942049D01*
X134369482Y-130866873D01*
X134330016Y-130736773D01*
X134224624Y-130539597D01*
X134082789Y-130366771D01*
X134039480Y-130331229D01*
X132378436Y-128670185D01*
X132342889Y-128626871D01*
X132170063Y-128485036D01*
X131972887Y-128379644D01*
X131758939Y-128314743D01*
X131592192Y-128298320D01*
X131592191Y-128298320D01*
X131536440Y-128292829D01*
X131480689Y-128298320D01*
X130306693Y-128298320D01*
X130301076Y-128294567D01*
X130067221Y-128197701D01*
X129818961Y-128148320D01*
X129565839Y-128148320D01*
X129317579Y-128197701D01*
X129083724Y-128294567D01*
X128873260Y-128435195D01*
X128694275Y-128614180D01*
X128553647Y-128824644D01*
X128456781Y-129058499D01*
X128407400Y-129306759D01*
X128407400Y-129418320D01*
X128295839Y-129418320D01*
X128047579Y-129467701D01*
X127813724Y-129564567D01*
X127603260Y-129705195D01*
X127424275Y-129884180D01*
X127283647Y-130094644D01*
X127186781Y-130328499D01*
X127185463Y-130335125D01*
X125744105Y-131776484D01*
X125700791Y-131812031D01*
X125558956Y-131984857D01*
X125454533Y-132180222D01*
X125453564Y-132182034D01*
X125388663Y-132395982D01*
X125366749Y-132618480D01*
X125372240Y-132674231D01*
X125372240Y-133550428D01*
X124711229Y-134211440D01*
X123101332Y-134211440D01*
X122470800Y-133580909D01*
X122470800Y-131026131D01*
X122740128Y-130756803D01*
X122740128Y-131053600D01*
X122752388Y-131178082D01*
X122788698Y-131297780D01*
X122847663Y-131408094D01*
X122927015Y-131504785D01*
X123023706Y-131584137D01*
X123134020Y-131643102D01*
X123253718Y-131679412D01*
X123378200Y-131691672D01*
X124678200Y-131691672D01*
X124802682Y-131679412D01*
X124922380Y-131643102D01*
X125032694Y-131584137D01*
X125129385Y-131504785D01*
X125208737Y-131408094D01*
X125267702Y-131297780D01*
X125304012Y-131178082D01*
X125316272Y-131053600D01*
X125316272Y-129753600D01*
X125304012Y-129629118D01*
X125267702Y-129509420D01*
X125208737Y-129399106D01*
X125129385Y-129302415D01*
X125032694Y-129223063D01*
X124922380Y-129164098D01*
X124802682Y-129127788D01*
X124678200Y-129115528D01*
X124321028Y-129115528D01*
X124403021Y-129099219D01*
X124636876Y-129002353D01*
X124847340Y-128861725D01*
X125026325Y-128682740D01*
X125166953Y-128472276D01*
X125263819Y-128238421D01*
X125313200Y-127990161D01*
X125313200Y-127737039D01*
X125263819Y-127488779D01*
X125166953Y-127254924D01*
X125026325Y-127044460D01*
X124847340Y-126865475D01*
X124636876Y-126724847D01*
X124403021Y-126627981D01*
X124396394Y-126626663D01*
X124235435Y-126465704D01*
X124199890Y-126422392D01*
X124156578Y-126386846D01*
X123965955Y-126196224D01*
X123930409Y-126152911D01*
X123757583Y-126011076D01*
X123560407Y-125905684D01*
X123346459Y-125840783D01*
X123179712Y-125824360D01*
X123179711Y-125824360D01*
X123123960Y-125818869D01*
X123068209Y-125824360D01*
X117655572Y-125824360D01*
X116052891Y-124221679D01*
X127117080Y-124221679D01*
X127117080Y-124474801D01*
X127166461Y-124723061D01*
X127263327Y-124956916D01*
X127403955Y-125167380D01*
X127582940Y-125346365D01*
X127793404Y-125486993D01*
X128027259Y-125583859D01*
X128275519Y-125633240D01*
X128384008Y-125633240D01*
X128384008Y-126268240D01*
X128396268Y-126392722D01*
X128432578Y-126512420D01*
X128491543Y-126622734D01*
X128570895Y-126719425D01*
X128667586Y-126798777D01*
X128777900Y-126857742D01*
X128897598Y-126894052D01*
X129022080Y-126906312D01*
X130322080Y-126906312D01*
X130446562Y-126894052D01*
X130566260Y-126857742D01*
X130676574Y-126798777D01*
X130773265Y-126719425D01*
X130852617Y-126622734D01*
X130911582Y-126512420D01*
X130947892Y-126392722D01*
X130960152Y-126268240D01*
X130960152Y-124968240D01*
X130947892Y-124843758D01*
X130911582Y-124724060D01*
X130852617Y-124613746D01*
X130773265Y-124517055D01*
X130676574Y-124437703D01*
X130566260Y-124378738D01*
X130446562Y-124342428D01*
X130322080Y-124330168D01*
X129964908Y-124330168D01*
X130046901Y-124313859D01*
X130280756Y-124216993D01*
X130491220Y-124076365D01*
X130670205Y-123897380D01*
X130810833Y-123686916D01*
X130907699Y-123453061D01*
X130957080Y-123204801D01*
X130957080Y-122951679D01*
X130907699Y-122703419D01*
X130810833Y-122469564D01*
X130807080Y-122463947D01*
X130807080Y-120301891D01*
X130812571Y-120246139D01*
X130790657Y-120023641D01*
X130725756Y-119809693D01*
X130620364Y-119612517D01*
X130478529Y-119439691D01*
X130435215Y-119404144D01*
X130355710Y-119324639D01*
X130307713Y-119083346D01*
X130199540Y-118822193D01*
X130042497Y-118587161D01*
X129842619Y-118387283D01*
X129607587Y-118230240D01*
X129346434Y-118122067D01*
X129069195Y-118066920D01*
X128786525Y-118066920D01*
X128509286Y-118122067D01*
X128248133Y-118230240D01*
X128013101Y-118387283D01*
X127813223Y-118587161D01*
X127656180Y-118822193D01*
X127548007Y-119083346D01*
X127492860Y-119360585D01*
X127492860Y-119643255D01*
X127548007Y-119920494D01*
X127656180Y-120181647D01*
X127813223Y-120416679D01*
X128013101Y-120616557D01*
X128248133Y-120773600D01*
X128509286Y-120881773D01*
X128537081Y-120887302D01*
X128537080Y-122463947D01*
X128533327Y-122469564D01*
X128436461Y-122703419D01*
X128387080Y-122951679D01*
X128387080Y-123063240D01*
X128275519Y-123063240D01*
X128027259Y-123112621D01*
X127793404Y-123209487D01*
X127582940Y-123350115D01*
X127403955Y-123529100D01*
X127263327Y-123739564D01*
X127166461Y-123973419D01*
X127117080Y-124221679D01*
X116052891Y-124221679D01*
X115197876Y-123366665D01*
X115162329Y-123323351D01*
X114989503Y-123181516D01*
X114792327Y-123076124D01*
X114578379Y-123011223D01*
X114411632Y-122994800D01*
X114411631Y-122994800D01*
X114355880Y-122989309D01*
X114300129Y-122994800D01*
X112941332Y-122994800D01*
X111935848Y-121989316D01*
X111944000Y-121948332D01*
X111944000Y-121586868D01*
X111873482Y-121232350D01*
X111735156Y-120898401D01*
X111534338Y-120597856D01*
X111278744Y-120342262D01*
X110978199Y-120141444D01*
X110644250Y-120003118D01*
X110289732Y-119932600D01*
X109928268Y-119932600D01*
X109887284Y-119940752D01*
X108131596Y-118185065D01*
X108096049Y-118141751D01*
X107923223Y-117999916D01*
X107726047Y-117894524D01*
X107512099Y-117829623D01*
X107345352Y-117813200D01*
X107345351Y-117813200D01*
X107289600Y-117807709D01*
X107233849Y-117813200D01*
X101514128Y-117813200D01*
X101559894Y-117788737D01*
X101656585Y-117709385D01*
X101735937Y-117612694D01*
X101794902Y-117502380D01*
X101831212Y-117382682D01*
X101843472Y-117258200D01*
X101843472Y-116525259D01*
X105369934Y-112998798D01*
X105377588Y-113001968D01*
X105693467Y-113064800D01*
X106015533Y-113064800D01*
X106331412Y-113001968D01*
X106344371Y-112996600D01*
X107924369Y-112996600D01*
X109370895Y-114443128D01*
X109315400Y-114443128D01*
X109190918Y-114455388D01*
X109071220Y-114491698D01*
X108960906Y-114550663D01*
X108864215Y-114630015D01*
X108784863Y-114726706D01*
X108725898Y-114837020D01*
X108689588Y-114956718D01*
X108677328Y-115081200D01*
X108677328Y-117481200D01*
X108689588Y-117605682D01*
X108725898Y-117725380D01*
X108784863Y-117835694D01*
X108864215Y-117932385D01*
X108960906Y-118011737D01*
X109071220Y-118070702D01*
X109190918Y-118107012D01*
X109315400Y-118119272D01*
X110748341Y-118119272D01*
X115159809Y-122530741D01*
X115195351Y-122574049D01*
X115368177Y-122715884D01*
X115565353Y-122821276D01*
X115779301Y-122886177D01*
X115946048Y-122902600D01*
X115946057Y-122902600D01*
X116001799Y-122908090D01*
X116057541Y-122902600D01*
X120970928Y-122902600D01*
X120970928Y-122967600D01*
X120983188Y-123092082D01*
X121019498Y-123211780D01*
X121078463Y-123322094D01*
X121157815Y-123418785D01*
X121254506Y-123498137D01*
X121364820Y-123557102D01*
X121484518Y-123593412D01*
X121609000Y-123605672D01*
X124009000Y-123605672D01*
X124133482Y-123593412D01*
X124253180Y-123557102D01*
X124363494Y-123498137D01*
X124460185Y-123418785D01*
X124539537Y-123322094D01*
X124598502Y-123211780D01*
X124634812Y-123092082D01*
X124647072Y-122967600D01*
X124647072Y-120567600D01*
X124634812Y-120443118D01*
X124598502Y-120323420D01*
X124539537Y-120213106D01*
X124460185Y-120116415D01*
X124363494Y-120037063D01*
X124253180Y-119978098D01*
X124133482Y-119941788D01*
X124009000Y-119929528D01*
X121609000Y-119929528D01*
X121484518Y-119941788D01*
X121364820Y-119978098D01*
X121254506Y-120037063D01*
X121157815Y-120116415D01*
X121078463Y-120213106D01*
X121019498Y-120323420D01*
X120983188Y-120443118D01*
X120970928Y-120567600D01*
X120970928Y-120632600D01*
X116471932Y-120632600D01*
X112532337Y-116693005D01*
X121427205Y-116693005D01*
X121499779Y-116932266D01*
X121659761Y-117254457D01*
X121879525Y-117539246D01*
X122150626Y-117775689D01*
X122462646Y-117954700D01*
X122803594Y-118069399D01*
X123088400Y-117953054D01*
X123088400Y-116408200D01*
X123342400Y-116408200D01*
X123342400Y-117953054D01*
X123627206Y-118069399D01*
X123968154Y-117954700D01*
X124280174Y-117775689D01*
X124551275Y-117539246D01*
X124771039Y-117254457D01*
X124931021Y-116932266D01*
X125003595Y-116693005D01*
X124886832Y-116408200D01*
X123342400Y-116408200D01*
X123088400Y-116408200D01*
X121543968Y-116408200D01*
X121427205Y-116693005D01*
X112532337Y-116693005D01*
X112353472Y-116514141D01*
X112353472Y-115869395D01*
X121427205Y-115869395D01*
X121543968Y-116154200D01*
X123088400Y-116154200D01*
X123088400Y-114609346D01*
X123342400Y-114609346D01*
X123342400Y-116154200D01*
X124886832Y-116154200D01*
X125003595Y-115869395D01*
X124931021Y-115630134D01*
X124771039Y-115307943D01*
X124551275Y-115023154D01*
X124280174Y-114786711D01*
X123968154Y-114607700D01*
X123627206Y-114493001D01*
X123342400Y-114609346D01*
X123088400Y-114609346D01*
X122803594Y-114493001D01*
X122462646Y-114607700D01*
X122150626Y-114786711D01*
X121879525Y-115023154D01*
X121659761Y-115307943D01*
X121499779Y-115630134D01*
X121427205Y-115869395D01*
X112353472Y-115869395D01*
X112353472Y-115081200D01*
X112341212Y-114956718D01*
X112304902Y-114837020D01*
X112245937Y-114726706D01*
X112166585Y-114630015D01*
X112069894Y-114550663D01*
X111959580Y-114491698D01*
X111839882Y-114455388D01*
X111715400Y-114443128D01*
X111650400Y-114443128D01*
X111650400Y-114038252D01*
X111655891Y-113982500D01*
X111650400Y-113926748D01*
X111650400Y-113263541D01*
X111655890Y-113207799D01*
X111650400Y-113152057D01*
X111650400Y-112730151D01*
X111655891Y-112674400D01*
X111650400Y-112618648D01*
X111650400Y-112593828D01*
X111685480Y-112541327D01*
X111793653Y-112280174D01*
X111848800Y-112002935D01*
X111848800Y-111720265D01*
X111793653Y-111443026D01*
X111685480Y-111181873D01*
X111528437Y-110946841D01*
X111328559Y-110746963D01*
X111096041Y-110591600D01*
X111328559Y-110436237D01*
X111528437Y-110236359D01*
X111685480Y-110001327D01*
X111793653Y-109740174D01*
X111848800Y-109462935D01*
X111848800Y-109180265D01*
X111793653Y-108903026D01*
X111685480Y-108641873D01*
X111528437Y-108406841D01*
X111328559Y-108206963D01*
X111096041Y-108051600D01*
X111328559Y-107896237D01*
X111528437Y-107696359D01*
X111685480Y-107461327D01*
X111793653Y-107200174D01*
X111848800Y-106922935D01*
X111848800Y-106640265D01*
X111793653Y-106363026D01*
X111685480Y-106101873D01*
X111528437Y-105866841D01*
X111328559Y-105666963D01*
X111096041Y-105511600D01*
X111328559Y-105356237D01*
X111528437Y-105156359D01*
X111685480Y-104921327D01*
X111793653Y-104660174D01*
X111848800Y-104382935D01*
X111848800Y-104100265D01*
X111793653Y-103823026D01*
X111685480Y-103561873D01*
X111528437Y-103326841D01*
X111328559Y-103126963D01*
X111093527Y-102969920D01*
X110832374Y-102861747D01*
X110555135Y-102806600D01*
X110272465Y-102806600D01*
X109995226Y-102861747D01*
X109734073Y-102969920D01*
X109499041Y-103126963D01*
X109299163Y-103326841D01*
X109142120Y-103561873D01*
X109033947Y-103823026D01*
X108978800Y-104100265D01*
X108978800Y-104382935D01*
X109033947Y-104660174D01*
X109142120Y-104921327D01*
X109299163Y-105156359D01*
X109499041Y-105356237D01*
X109731559Y-105511600D01*
X109499041Y-105666963D01*
X109299163Y-105866841D01*
X109142120Y-106101873D01*
X109033947Y-106363026D01*
X108978800Y-106640265D01*
X108978800Y-106922935D01*
X109033947Y-107200174D01*
X109142120Y-107461327D01*
X109299163Y-107696359D01*
X109499041Y-107896237D01*
X109731559Y-108051600D01*
X109499041Y-108206963D01*
X109299163Y-108406841D01*
X109142120Y-108641873D01*
X109033947Y-108903026D01*
X108978800Y-109180265D01*
X108978800Y-109462935D01*
X109033947Y-109740174D01*
X109142120Y-110001327D01*
X109299163Y-110236359D01*
X109499041Y-110436237D01*
X109731559Y-110591600D01*
X109529516Y-110726600D01*
X109224951Y-110726600D01*
X109169200Y-110721109D01*
X109113449Y-110726600D01*
X108450251Y-110726600D01*
X108394500Y-110721109D01*
X108338749Y-110726600D01*
X107332936Y-110726600D01*
X107303418Y-110655337D01*
X107124487Y-110387548D01*
X106896752Y-110159813D01*
X106628963Y-109980882D01*
X106331412Y-109857632D01*
X106015533Y-109794800D01*
X105693467Y-109794800D01*
X105377588Y-109857632D01*
X105080037Y-109980882D01*
X104812248Y-110159813D01*
X104584513Y-110387548D01*
X104405582Y-110655337D01*
X104336604Y-110821864D01*
X100238341Y-114920128D01*
X99505400Y-114920128D01*
X99380918Y-114932388D01*
X99261220Y-114968698D01*
X99150906Y-115027663D01*
X99054215Y-115107015D01*
X98974863Y-115203706D01*
X98915898Y-115314020D01*
X98879588Y-115433718D01*
X98867328Y-115558200D01*
X96660000Y-115558200D01*
X96660000Y-106268767D01*
X104219500Y-106268767D01*
X104219500Y-106590833D01*
X104282332Y-106906712D01*
X104405582Y-107204263D01*
X104584513Y-107472052D01*
X104812248Y-107699787D01*
X105080037Y-107878718D01*
X105377588Y-108001968D01*
X105693467Y-108064800D01*
X106015533Y-108064800D01*
X106331412Y-108001968D01*
X106628963Y-107878718D01*
X106896752Y-107699787D01*
X107124487Y-107472052D01*
X107303418Y-107204263D01*
X107426668Y-106906712D01*
X107489500Y-106590833D01*
X107489500Y-106268767D01*
X107426668Y-105952888D01*
X107303418Y-105655337D01*
X107124487Y-105387548D01*
X106896752Y-105159813D01*
X106628963Y-104980882D01*
X106331412Y-104857632D01*
X106015533Y-104794800D01*
X105693467Y-104794800D01*
X105377588Y-104857632D01*
X105080037Y-104980882D01*
X104812248Y-105159813D01*
X104584513Y-105387548D01*
X104405582Y-105655337D01*
X104282332Y-105952888D01*
X104219500Y-106268767D01*
X96660000Y-106268767D01*
X96660000Y-99725701D01*
X97215000Y-99725701D01*
X97215000Y-100274299D01*
X97322026Y-100812354D01*
X97531965Y-101319192D01*
X97836750Y-101775334D01*
X98224666Y-102163250D01*
X98680808Y-102468035D01*
X99187646Y-102677974D01*
X99725701Y-102785000D01*
X100274299Y-102785000D01*
X100812354Y-102677974D01*
X101319192Y-102468035D01*
X101775334Y-102163250D01*
X102163250Y-101775334D01*
X102468035Y-101319192D01*
X102677974Y-100812354D01*
X102785000Y-100274299D01*
X102785000Y-99725701D01*
X102677974Y-99187646D01*
X102613366Y-99031668D01*
X111347400Y-99031668D01*
X111347400Y-99393132D01*
X111417918Y-99747650D01*
X111556244Y-100081599D01*
X111757062Y-100382144D01*
X112012656Y-100637738D01*
X112047400Y-100660953D01*
X112047401Y-103068239D01*
X112041909Y-103124000D01*
X112063823Y-103346498D01*
X112128724Y-103560446D01*
X112177784Y-103652230D01*
X112234117Y-103757623D01*
X112375952Y-103930449D01*
X112419260Y-103965991D01*
X115998013Y-107544746D01*
X116033551Y-107588049D01*
X116076854Y-107623587D01*
X116076856Y-107623589D01*
X116206377Y-107729884D01*
X116403553Y-107835276D01*
X116617501Y-107900177D01*
X116783812Y-107916557D01*
X116840000Y-107922091D01*
X116895752Y-107916600D01*
X117149516Y-107916600D01*
X117351559Y-108051600D01*
X117119041Y-108206963D01*
X116919163Y-108406841D01*
X116762120Y-108641873D01*
X116653947Y-108903026D01*
X116598800Y-109180265D01*
X116598800Y-109462935D01*
X116653947Y-109740174D01*
X116762120Y-110001327D01*
X116919163Y-110236359D01*
X117117761Y-110434957D01*
X117109318Y-110435788D01*
X116989620Y-110472098D01*
X116879306Y-110531063D01*
X116782615Y-110610415D01*
X116703263Y-110707106D01*
X116644298Y-110817420D01*
X116607988Y-110937118D01*
X116595728Y-111061600D01*
X116595728Y-112661600D01*
X116607988Y-112786082D01*
X116644298Y-112905780D01*
X116703263Y-113016094D01*
X116782615Y-113112785D01*
X116879306Y-113192137D01*
X116989620Y-113251102D01*
X117109318Y-113287412D01*
X117233800Y-113299672D01*
X118833800Y-113299672D01*
X118958282Y-113287412D01*
X119077980Y-113251102D01*
X119188294Y-113192137D01*
X119284985Y-113112785D01*
X119364337Y-113016094D01*
X119423302Y-112905780D01*
X119459612Y-112786082D01*
X119471872Y-112661600D01*
X119471872Y-111061600D01*
X119459612Y-110937118D01*
X119423302Y-110817420D01*
X119364337Y-110707106D01*
X119284985Y-110610415D01*
X119188294Y-110531063D01*
X119077980Y-110472098D01*
X119026890Y-110456600D01*
X121897011Y-110456600D01*
X121970813Y-110567052D01*
X122198548Y-110794787D01*
X122466337Y-110973718D01*
X122763888Y-111096968D01*
X123079767Y-111159800D01*
X123401833Y-111159800D01*
X123717712Y-111096968D01*
X124015263Y-110973718D01*
X124283052Y-110794787D01*
X124510787Y-110567052D01*
X124689718Y-110299263D01*
X124812968Y-110001712D01*
X124875800Y-109685833D01*
X124875800Y-109363767D01*
X124812968Y-109047888D01*
X124689718Y-108750337D01*
X124510787Y-108482548D01*
X124283052Y-108254813D01*
X124015263Y-108075882D01*
X123717712Y-107952632D01*
X123401833Y-107889800D01*
X123079767Y-107889800D01*
X122763888Y-107952632D01*
X122466337Y-108075882D01*
X122300636Y-108186600D01*
X118918084Y-108186600D01*
X118716041Y-108051600D01*
X118948559Y-107896237D01*
X119148437Y-107696359D01*
X119305480Y-107461327D01*
X119413653Y-107200174D01*
X119468800Y-106922935D01*
X119468800Y-106660585D01*
X127492860Y-106660585D01*
X127492860Y-106943255D01*
X127548007Y-107220494D01*
X127656180Y-107481647D01*
X127813223Y-107716679D01*
X128013101Y-107916557D01*
X128248133Y-108073600D01*
X128509286Y-108181773D01*
X128786525Y-108236920D01*
X129069195Y-108236920D01*
X129346434Y-108181773D01*
X129607587Y-108073600D01*
X129812144Y-107936920D01*
X133055129Y-107936920D01*
X134329068Y-109210860D01*
X134329068Y-110043800D01*
X134341328Y-110168282D01*
X134377638Y-110287980D01*
X134436603Y-110398294D01*
X134515955Y-110494985D01*
X134612646Y-110574337D01*
X134722960Y-110633302D01*
X134732140Y-110636087D01*
X134732141Y-115908028D01*
X134644220Y-115934698D01*
X134533906Y-115993663D01*
X134437215Y-116073015D01*
X134357863Y-116169706D01*
X134298898Y-116280020D01*
X134262588Y-116399718D01*
X134250328Y-116524200D01*
X134250328Y-118324200D01*
X134262588Y-118448682D01*
X134298898Y-118568380D01*
X134357863Y-118678694D01*
X134437215Y-118775385D01*
X134533906Y-118854737D01*
X134644220Y-118913702D01*
X134653400Y-118916487D01*
X134653401Y-124901680D01*
X134565798Y-124910308D01*
X134446100Y-124946618D01*
X134335786Y-125005583D01*
X134239095Y-125084935D01*
X134159743Y-125181626D01*
X134100778Y-125291940D01*
X134064468Y-125411638D01*
X134052208Y-125536120D01*
X134052208Y-127336120D01*
X134064468Y-127460602D01*
X134100778Y-127580300D01*
X134159743Y-127690614D01*
X134239095Y-127787305D01*
X134335786Y-127866657D01*
X134446100Y-127925622D01*
X134565798Y-127961932D01*
X134690280Y-127974192D01*
X136490280Y-127974192D01*
X136614762Y-127961932D01*
X136734460Y-127925622D01*
X136844774Y-127866657D01*
X136941465Y-127787305D01*
X137020817Y-127690614D01*
X137079782Y-127580300D01*
X137085336Y-127561993D01*
X137151775Y-127628432D01*
X137403185Y-127796419D01*
X137682537Y-127912131D01*
X137979096Y-127971120D01*
X138281464Y-127971120D01*
X138578023Y-127912131D01*
X138857375Y-127796419D01*
X139108785Y-127628432D01*
X139166097Y-127571120D01*
X141533608Y-127571120D01*
X141548603Y-127599174D01*
X141627955Y-127695865D01*
X141724646Y-127775217D01*
X141834960Y-127834182D01*
X141954658Y-127870492D01*
X142079140Y-127882752D01*
X143879140Y-127882752D01*
X144003622Y-127870492D01*
X144123320Y-127834182D01*
X144233634Y-127775217D01*
X144330325Y-127695865D01*
X144409677Y-127599174D01*
X144468642Y-127488860D01*
X144471953Y-127477945D01*
X144518718Y-127524710D01*
X144634666Y-127408762D01*
X144718348Y-127662941D01*
X144990915Y-127793838D01*
X145283782Y-127869045D01*
X145585693Y-127885671D01*
X145885047Y-127843077D01*
X146170339Y-127742902D01*
X146319932Y-127662941D01*
X146403615Y-127408760D01*
X145519140Y-126524285D01*
X145504998Y-126538428D01*
X145325393Y-126358823D01*
X145339535Y-126344680D01*
X145698745Y-126344680D01*
X146583220Y-127229155D01*
X146837401Y-127145472D01*
X146968298Y-126872905D01*
X147043505Y-126580038D01*
X147060131Y-126278127D01*
X147017537Y-125978773D01*
X146917362Y-125693481D01*
X146837401Y-125543888D01*
X146583220Y-125460205D01*
X145698745Y-126344680D01*
X145339535Y-126344680D01*
X145325393Y-126330538D01*
X145504998Y-126150933D01*
X145519140Y-126165075D01*
X146403615Y-125280600D01*
X146319932Y-125026419D01*
X146047365Y-124895522D01*
X145754498Y-124820315D01*
X145452587Y-124803689D01*
X145153233Y-124846283D01*
X144867941Y-124946458D01*
X144718348Y-125026419D01*
X144634666Y-125280598D01*
X144518718Y-125164650D01*
X144471953Y-125211415D01*
X144468642Y-125200500D01*
X144409677Y-125090186D01*
X144330325Y-124993495D01*
X144233634Y-124914143D01*
X144123320Y-124855178D01*
X144003622Y-124818868D01*
X143879140Y-124806608D01*
X142079140Y-124806608D01*
X141954658Y-124818868D01*
X141834960Y-124855178D01*
X141724646Y-124914143D01*
X141627955Y-124993495D01*
X141548603Y-125090186D01*
X141489638Y-125200500D01*
X141459115Y-125301120D01*
X139166097Y-125301120D01*
X139108785Y-125243808D01*
X138857375Y-125075821D01*
X138578023Y-124960109D01*
X138281464Y-124901120D01*
X137979096Y-124901120D01*
X137682537Y-124960109D01*
X137403185Y-125075821D01*
X137151775Y-125243808D01*
X137085336Y-125310247D01*
X137079782Y-125291940D01*
X137020817Y-125181626D01*
X136941465Y-125084935D01*
X136923400Y-125070109D01*
X136923400Y-118916487D01*
X136932580Y-118913702D01*
X137042894Y-118854737D01*
X137139585Y-118775385D01*
X137218937Y-118678694D01*
X137277902Y-118568380D01*
X137283456Y-118550073D01*
X137349895Y-118616512D01*
X137601305Y-118784499D01*
X137880657Y-118900211D01*
X138177216Y-118959200D01*
X138479584Y-118959200D01*
X138776143Y-118900211D01*
X139055495Y-118784499D01*
X139274836Y-118637940D01*
X141512253Y-118637940D01*
X141515038Y-118647120D01*
X141574003Y-118757434D01*
X141653355Y-118854125D01*
X141750046Y-118933477D01*
X141860360Y-118992442D01*
X141980058Y-119028752D01*
X142104540Y-119041012D01*
X143904540Y-119041012D01*
X144029022Y-119028752D01*
X144148720Y-118992442D01*
X144259034Y-118933477D01*
X144355725Y-118854125D01*
X144435077Y-118757434D01*
X144494042Y-118647120D01*
X144497353Y-118636205D01*
X144544118Y-118682970D01*
X144660066Y-118567022D01*
X144743748Y-118821201D01*
X145016315Y-118952098D01*
X145309182Y-119027305D01*
X145611093Y-119043931D01*
X145910447Y-119001337D01*
X146195739Y-118901162D01*
X146345332Y-118821201D01*
X146429015Y-118567020D01*
X145544540Y-117682545D01*
X145530398Y-117696688D01*
X145350793Y-117517083D01*
X145364935Y-117502940D01*
X145724145Y-117502940D01*
X146608620Y-118387415D01*
X146862801Y-118303732D01*
X146993698Y-118031165D01*
X147068905Y-117738298D01*
X147085531Y-117436387D01*
X147042937Y-117137033D01*
X146942762Y-116851741D01*
X146862801Y-116702148D01*
X146608620Y-116618465D01*
X145724145Y-117502940D01*
X145364935Y-117502940D01*
X145350793Y-117488798D01*
X145530398Y-117309193D01*
X145544540Y-117323335D01*
X146429015Y-116438860D01*
X146345332Y-116184679D01*
X146072765Y-116053782D01*
X145779898Y-115978575D01*
X145477987Y-115961949D01*
X145178633Y-116004543D01*
X144893341Y-116104718D01*
X144743748Y-116184679D01*
X144660066Y-116438858D01*
X144544118Y-116322910D01*
X144497353Y-116369675D01*
X144494042Y-116358760D01*
X144435077Y-116248446D01*
X144355725Y-116151755D01*
X144259034Y-116072403D01*
X144148720Y-116013438D01*
X144029022Y-115977128D01*
X143904540Y-115964868D01*
X142104540Y-115964868D01*
X141980058Y-115977128D01*
X141860360Y-116013438D01*
X141750046Y-116072403D01*
X141653355Y-116151755D01*
X141574003Y-116248446D01*
X141515038Y-116358760D01*
X141512253Y-116367940D01*
X139442957Y-116367940D01*
X139306905Y-116231888D01*
X139055495Y-116063901D01*
X138776143Y-115948189D01*
X138479584Y-115889200D01*
X138177216Y-115889200D01*
X137880657Y-115948189D01*
X137601305Y-116063901D01*
X137349895Y-116231888D01*
X137283456Y-116298327D01*
X137277902Y-116280020D01*
X137218937Y-116169706D01*
X137139585Y-116073015D01*
X137042894Y-115993663D01*
X137002140Y-115971879D01*
X137002140Y-110636087D01*
X137011320Y-110633302D01*
X137121634Y-110574337D01*
X137218325Y-110494985D01*
X137297677Y-110398294D01*
X137356642Y-110287980D01*
X137362196Y-110269673D01*
X137428635Y-110336112D01*
X137680045Y-110504099D01*
X137959397Y-110619811D01*
X138255956Y-110678800D01*
X138558324Y-110678800D01*
X138854883Y-110619811D01*
X139134235Y-110504099D01*
X139385645Y-110336112D01*
X139442957Y-110278800D01*
X141831092Y-110278800D01*
X141883932Y-110377655D01*
X141963284Y-110474346D01*
X142059975Y-110553698D01*
X142170289Y-110612663D01*
X142289987Y-110648973D01*
X142414469Y-110661233D01*
X144214469Y-110661233D01*
X144338951Y-110648973D01*
X144458649Y-110612663D01*
X144568963Y-110553698D01*
X144665654Y-110474346D01*
X144745006Y-110377655D01*
X144803971Y-110267341D01*
X144807282Y-110256426D01*
X144854047Y-110303191D01*
X144969995Y-110187243D01*
X145053677Y-110441422D01*
X145326244Y-110572319D01*
X145619111Y-110647526D01*
X145921022Y-110664152D01*
X146220376Y-110621558D01*
X146505668Y-110521383D01*
X146655261Y-110441422D01*
X146738944Y-110187241D01*
X145854469Y-109302766D01*
X145840327Y-109316909D01*
X145660722Y-109137304D01*
X145674864Y-109123161D01*
X146034074Y-109123161D01*
X146918549Y-110007636D01*
X147172730Y-109923953D01*
X147303627Y-109651386D01*
X147378834Y-109358519D01*
X147395460Y-109056608D01*
X147352866Y-108757254D01*
X147252691Y-108471962D01*
X147172730Y-108322369D01*
X146918549Y-108238686D01*
X146034074Y-109123161D01*
X145674864Y-109123161D01*
X145660722Y-109109019D01*
X145840327Y-108929414D01*
X145854469Y-108943556D01*
X146738944Y-108059081D01*
X146655261Y-107804900D01*
X146382694Y-107674003D01*
X146089827Y-107598796D01*
X145787916Y-107582170D01*
X145488562Y-107624764D01*
X145203270Y-107724939D01*
X145053677Y-107804900D01*
X144969995Y-108059079D01*
X144854047Y-107943131D01*
X144807282Y-107989896D01*
X144803971Y-107978981D01*
X144745006Y-107868667D01*
X144665654Y-107771976D01*
X144568963Y-107692624D01*
X144458649Y-107633659D01*
X144338951Y-107597349D01*
X144214469Y-107585089D01*
X142414469Y-107585089D01*
X142289987Y-107597349D01*
X142170289Y-107633659D01*
X142059975Y-107692624D01*
X141963284Y-107771976D01*
X141883932Y-107868667D01*
X141824967Y-107978981D01*
X141815922Y-108008800D01*
X139442957Y-108008800D01*
X139385645Y-107951488D01*
X139134235Y-107783501D01*
X138854883Y-107667789D01*
X138558324Y-107608800D01*
X138255956Y-107608800D01*
X137959397Y-107667789D01*
X137680045Y-107783501D01*
X137428635Y-107951488D01*
X137362196Y-108017927D01*
X137356642Y-107999620D01*
X137297677Y-107889306D01*
X137218325Y-107792615D01*
X137121634Y-107713263D01*
X137011320Y-107654298D01*
X136891622Y-107617988D01*
X136767140Y-107605728D01*
X135934200Y-107605728D01*
X134367256Y-106038785D01*
X134331709Y-105995471D01*
X134158883Y-105853636D01*
X133961707Y-105748244D01*
X133747759Y-105683343D01*
X133581012Y-105666920D01*
X133581011Y-105666920D01*
X133525260Y-105661429D01*
X133469509Y-105666920D01*
X129812144Y-105666920D01*
X129607587Y-105530240D01*
X129346434Y-105422067D01*
X129069195Y-105366920D01*
X128786525Y-105366920D01*
X128509286Y-105422067D01*
X128248133Y-105530240D01*
X128013101Y-105687283D01*
X127813223Y-105887161D01*
X127656180Y-106122193D01*
X127548007Y-106383346D01*
X127492860Y-106660585D01*
X119468800Y-106660585D01*
X119468800Y-106640265D01*
X119413653Y-106363026D01*
X119305480Y-106101873D01*
X119148437Y-105866841D01*
X118948559Y-105666963D01*
X118937839Y-105659800D01*
X122063561Y-105659800D01*
X122198548Y-105794787D01*
X122466337Y-105973718D01*
X122763888Y-106096968D01*
X123079767Y-106159800D01*
X123401833Y-106159800D01*
X123717712Y-106096968D01*
X124015263Y-105973718D01*
X124283052Y-105794787D01*
X124510787Y-105567052D01*
X124689718Y-105299263D01*
X124812968Y-105001712D01*
X124875800Y-104685833D01*
X124875800Y-104363767D01*
X124812968Y-104047888D01*
X124689718Y-103750337D01*
X124510787Y-103482548D01*
X124283052Y-103254813D01*
X124015263Y-103075882D01*
X123717712Y-102952632D01*
X123401833Y-102889800D01*
X123079767Y-102889800D01*
X122763888Y-102952632D01*
X122466337Y-103075882D01*
X122198548Y-103254813D01*
X122063561Y-103389800D01*
X119190505Y-103389800D01*
X119148437Y-103326841D01*
X118948559Y-103126963D01*
X118713527Y-102969920D01*
X118452374Y-102861747D01*
X118175135Y-102806600D01*
X117892465Y-102806600D01*
X117615226Y-102861747D01*
X117354073Y-102969920D01*
X117119041Y-103126963D01*
X116919163Y-103326841D01*
X116762120Y-103561873D01*
X116653947Y-103823026D01*
X116598800Y-104100265D01*
X116598800Y-104382935D01*
X116653947Y-104660174D01*
X116762120Y-104921327D01*
X116919163Y-105156359D01*
X117119041Y-105356237D01*
X117351559Y-105511600D01*
X117245799Y-105582266D01*
X114317400Y-102653869D01*
X114317400Y-100660953D01*
X114352144Y-100637738D01*
X114499502Y-100490380D01*
X132404026Y-100490380D01*
X132523914Y-100775236D01*
X132847610Y-100936099D01*
X133196469Y-101030722D01*
X133557084Y-101055467D01*
X133915598Y-101009385D01*
X134258233Y-100894246D01*
X134480886Y-100775236D01*
X134600774Y-100490380D01*
X133502400Y-99392005D01*
X132404026Y-100490380D01*
X114499502Y-100490380D01*
X114607738Y-100382144D01*
X114808556Y-100081599D01*
X114946882Y-99747650D01*
X115017400Y-99393132D01*
X115017400Y-99267084D01*
X131659333Y-99267084D01*
X131705415Y-99625598D01*
X131820554Y-99968233D01*
X131939564Y-100190886D01*
X132224420Y-100310774D01*
X133322795Y-99212400D01*
X133682005Y-99212400D01*
X134780380Y-100310774D01*
X135065236Y-100190886D01*
X135226099Y-99867190D01*
X135264475Y-99725701D01*
X141215000Y-99725701D01*
X141215000Y-100274299D01*
X141322026Y-100812354D01*
X141531965Y-101319192D01*
X141836750Y-101775334D01*
X142224666Y-102163250D01*
X142680808Y-102468035D01*
X143187646Y-102677974D01*
X143725701Y-102785000D01*
X144274299Y-102785000D01*
X144812354Y-102677974D01*
X145319192Y-102468035D01*
X145775334Y-102163250D01*
X146163250Y-101775334D01*
X146468035Y-101319192D01*
X146677974Y-100812354D01*
X146785000Y-100274299D01*
X146785000Y-99725701D01*
X146677974Y-99187646D01*
X146468035Y-98680808D01*
X146163250Y-98224666D01*
X145775334Y-97836750D01*
X145319192Y-97531965D01*
X144812354Y-97322026D01*
X144274299Y-97215000D01*
X143725701Y-97215000D01*
X143187646Y-97322026D01*
X142680808Y-97531965D01*
X142224666Y-97836750D01*
X141836750Y-98224666D01*
X141531965Y-98680808D01*
X141322026Y-99187646D01*
X141215000Y-99725701D01*
X135264475Y-99725701D01*
X135320722Y-99518331D01*
X135345467Y-99157716D01*
X135299385Y-98799202D01*
X135184246Y-98456567D01*
X135065236Y-98233914D01*
X134780380Y-98114026D01*
X133682005Y-99212400D01*
X133322795Y-99212400D01*
X132224420Y-98114026D01*
X131939564Y-98233914D01*
X131778701Y-98557610D01*
X131684078Y-98906469D01*
X131659333Y-99267084D01*
X115017400Y-99267084D01*
X115017400Y-99031668D01*
X114946882Y-98677150D01*
X114808556Y-98343201D01*
X114607738Y-98042656D01*
X114499502Y-97934420D01*
X132404026Y-97934420D01*
X133502400Y-99032795D01*
X134600774Y-97934420D01*
X134480886Y-97649564D01*
X134157190Y-97488701D01*
X133808331Y-97394078D01*
X133447716Y-97369333D01*
X133089202Y-97415415D01*
X132746567Y-97530554D01*
X132523914Y-97649564D01*
X132404026Y-97934420D01*
X114499502Y-97934420D01*
X114352144Y-97787062D01*
X114051599Y-97586244D01*
X113717650Y-97447918D01*
X113363132Y-97377400D01*
X113001668Y-97377400D01*
X112647150Y-97447918D01*
X112313201Y-97586244D01*
X112012656Y-97787062D01*
X111757062Y-98042656D01*
X111556244Y-98343201D01*
X111417918Y-98677150D01*
X111347400Y-99031668D01*
X102613366Y-99031668D01*
X102468035Y-98680808D01*
X102163250Y-98224666D01*
X101775334Y-97836750D01*
X101319192Y-97531965D01*
X100812354Y-97322026D01*
X100274299Y-97215000D01*
X99725701Y-97215000D01*
X99187646Y-97322026D01*
X98680808Y-97531965D01*
X98224666Y-97836750D01*
X97836750Y-98224666D01*
X97531965Y-98680808D01*
X97322026Y-99187646D01*
X97215000Y-99725701D01*
X96660000Y-99725701D01*
X96660000Y-95660000D01*
X149340000Y-95660000D01*
X149340001Y-162340000D01*
%TA.AperFunction,Conductor*%
D27*
G36*
X149340001Y-162340000D02*
G01*
X96660000Y-162340000D01*
X96660000Y-157725701D01*
X97215000Y-157725701D01*
X97215000Y-158274299D01*
X97322026Y-158812354D01*
X97531965Y-159319192D01*
X97836750Y-159775334D01*
X98224666Y-160163250D01*
X98680808Y-160468035D01*
X99187646Y-160677974D01*
X99725701Y-160785000D01*
X100274299Y-160785000D01*
X100812354Y-160677974D01*
X101319192Y-160468035D01*
X101775334Y-160163250D01*
X102163250Y-159775334D01*
X102468035Y-159319192D01*
X102677974Y-158812354D01*
X102785000Y-158274299D01*
X102785000Y-157725701D01*
X141215000Y-157725701D01*
X141215000Y-158274299D01*
X141322026Y-158812354D01*
X141531965Y-159319192D01*
X141836750Y-159775334D01*
X142224666Y-160163250D01*
X142680808Y-160468035D01*
X143187646Y-160677974D01*
X143725701Y-160785000D01*
X144274299Y-160785000D01*
X144812354Y-160677974D01*
X145319192Y-160468035D01*
X145775334Y-160163250D01*
X146163250Y-159775334D01*
X146468035Y-159319192D01*
X146677974Y-158812354D01*
X146785000Y-158274299D01*
X146785000Y-157725701D01*
X146677974Y-157187646D01*
X146468035Y-156680808D01*
X146163250Y-156224666D01*
X145775334Y-155836750D01*
X145319192Y-155531965D01*
X144812354Y-155322026D01*
X144274299Y-155215000D01*
X143725701Y-155215000D01*
X143187646Y-155322026D01*
X142680808Y-155531965D01*
X142224666Y-155836750D01*
X141836750Y-156224666D01*
X141531965Y-156680808D01*
X141322026Y-157187646D01*
X141215000Y-157725701D01*
X102785000Y-157725701D01*
X102677974Y-157187646D01*
X102468035Y-156680808D01*
X102163250Y-156224666D01*
X101775334Y-155836750D01*
X101319192Y-155531965D01*
X100812354Y-155322026D01*
X100274299Y-155215000D01*
X99725701Y-155215000D01*
X99187646Y-155322026D01*
X98680808Y-155531965D01*
X98224666Y-155836750D01*
X97836750Y-156224666D01*
X97531965Y-156680808D01*
X97322026Y-157187646D01*
X97215000Y-157725701D01*
X96660000Y-157725701D01*
X96660000Y-143215360D01*
X97500409Y-143215360D01*
X97505901Y-143271121D01*
X97505900Y-146540348D01*
X97500409Y-146596100D01*
X97505900Y-146651851D01*
X97522323Y-146818598D01*
X97587224Y-147032546D01*
X97692616Y-147229723D01*
X97834451Y-147402549D01*
X97877765Y-147438096D01*
X101824809Y-151385141D01*
X101860351Y-151428449D01*
X102033177Y-151570284D01*
X102230353Y-151675676D01*
X102444301Y-151740577D01*
X102611048Y-151757000D01*
X102611057Y-151757000D01*
X102666799Y-151762490D01*
X102722541Y-151757000D01*
X107162729Y-151757000D01*
X107218480Y-151762491D01*
X107274231Y-151757000D01*
X107274232Y-151757000D01*
X107440979Y-151740577D01*
X107654927Y-151675676D01*
X107852103Y-151570284D01*
X108024929Y-151428449D01*
X108060476Y-151385135D01*
X110387346Y-149058265D01*
X114808100Y-149058265D01*
X114808100Y-149340935D01*
X114863247Y-149618174D01*
X114971420Y-149879327D01*
X115128463Y-150114359D01*
X115328341Y-150314237D01*
X115563373Y-150471280D01*
X115824526Y-150579453D01*
X116101765Y-150634600D01*
X116384435Y-150634600D01*
X116661674Y-150579453D01*
X116922827Y-150471280D01*
X117117857Y-150340965D01*
X119900800Y-150340965D01*
X119900800Y-150623635D01*
X119955947Y-150900874D01*
X120064120Y-151162027D01*
X120221163Y-151397059D01*
X120421041Y-151596937D01*
X120656073Y-151753980D01*
X120917226Y-151862153D01*
X121194465Y-151917300D01*
X121477135Y-151917300D01*
X121754374Y-151862153D01*
X122015527Y-151753980D01*
X122250559Y-151596937D01*
X122450437Y-151397059D01*
X122607480Y-151162027D01*
X122715653Y-150900874D01*
X122770800Y-150623635D01*
X122770800Y-150340965D01*
X122715653Y-150063726D01*
X122607480Y-149802573D01*
X122450437Y-149567541D01*
X122250559Y-149367663D01*
X122015527Y-149210620D01*
X121754374Y-149102447D01*
X121477135Y-149047300D01*
X121194465Y-149047300D01*
X120917226Y-149102447D01*
X120656073Y-149210620D01*
X120421041Y-149367663D01*
X120221163Y-149567541D01*
X120064120Y-149802573D01*
X119955947Y-150063726D01*
X119900800Y-150340965D01*
X117117857Y-150340965D01*
X117157859Y-150314237D01*
X117357737Y-150114359D01*
X117514780Y-149879327D01*
X117622953Y-149618174D01*
X117678100Y-149340935D01*
X117678100Y-149058265D01*
X117622953Y-148781026D01*
X117514780Y-148519873D01*
X117357737Y-148284841D01*
X117157859Y-148084963D01*
X116922827Y-147927920D01*
X116661674Y-147819747D01*
X116384435Y-147764600D01*
X116101765Y-147764600D01*
X115824526Y-147819747D01*
X115563373Y-147927920D01*
X115328341Y-148084963D01*
X115128463Y-148284841D01*
X114971420Y-148519873D01*
X114863247Y-148781026D01*
X114808100Y-149058265D01*
X110387346Y-149058265D01*
X111711972Y-147733640D01*
X124589309Y-147733640D01*
X125079390Y-148223722D01*
X125127387Y-148465014D01*
X125235560Y-148726167D01*
X125392603Y-148961199D01*
X125592481Y-149161077D01*
X125827513Y-149318120D01*
X126088666Y-149426293D01*
X126365905Y-149481440D01*
X126648575Y-149481440D01*
X126925814Y-149426293D01*
X127186967Y-149318120D01*
X127421999Y-149161077D01*
X127621877Y-148961199D01*
X127778920Y-148726167D01*
X127887093Y-148465014D01*
X127942240Y-148187775D01*
X127942240Y-147905105D01*
X127887093Y-147627866D01*
X127817812Y-147460605D01*
X131841340Y-147460605D01*
X131841340Y-147743275D01*
X131896487Y-148020514D01*
X132004660Y-148281667D01*
X132161703Y-148516699D01*
X132361581Y-148716577D01*
X132596613Y-148873620D01*
X132857766Y-148981793D01*
X133093675Y-149028719D01*
X133247237Y-149154744D01*
X133444413Y-149260136D01*
X133658361Y-149325037D01*
X133825108Y-149341460D01*
X133825117Y-149341460D01*
X133880859Y-149346950D01*
X133936601Y-149341460D01*
X135968869Y-149341460D01*
X136024620Y-149346951D01*
X136080371Y-149341460D01*
X136250809Y-149341460D01*
X136306560Y-149346951D01*
X136362311Y-149341460D01*
X136599893Y-149341460D01*
X136602678Y-149350640D01*
X136661643Y-149460954D01*
X136740995Y-149557645D01*
X136837686Y-149636997D01*
X136948000Y-149695962D01*
X137067698Y-149732272D01*
X137192180Y-149744532D01*
X138992180Y-149744532D01*
X139116662Y-149732272D01*
X139236360Y-149695962D01*
X139346674Y-149636997D01*
X139443365Y-149557645D01*
X139522717Y-149460954D01*
X139581682Y-149350640D01*
X139587236Y-149332333D01*
X139653675Y-149398772D01*
X139905085Y-149566759D01*
X140184437Y-149682471D01*
X140480996Y-149741460D01*
X140783364Y-149741460D01*
X141079923Y-149682471D01*
X141359275Y-149566759D01*
X141610685Y-149398772D01*
X141667997Y-149341460D01*
X142329108Y-149341460D01*
X142355778Y-149429380D01*
X142414743Y-149539694D01*
X142494095Y-149636385D01*
X142590786Y-149715737D01*
X142701100Y-149774702D01*
X142820798Y-149811012D01*
X142945280Y-149823272D01*
X144745280Y-149823272D01*
X144869762Y-149811012D01*
X144989460Y-149774702D01*
X145099774Y-149715737D01*
X145196465Y-149636385D01*
X145275817Y-149539694D01*
X145334782Y-149429380D01*
X145338093Y-149418465D01*
X145384858Y-149465230D01*
X145500806Y-149349282D01*
X145584488Y-149603461D01*
X145857055Y-149734358D01*
X146149922Y-149809565D01*
X146451833Y-149826191D01*
X146751187Y-149783597D01*
X147036479Y-149683422D01*
X147186072Y-149603461D01*
X147269755Y-149349280D01*
X146385280Y-148464805D01*
X146371138Y-148478948D01*
X146191533Y-148299343D01*
X146205675Y-148285200D01*
X146564885Y-148285200D01*
X147449360Y-149169675D01*
X147703541Y-149085992D01*
X147834438Y-148813425D01*
X147909645Y-148520558D01*
X147926271Y-148218647D01*
X147883677Y-147919293D01*
X147783502Y-147634001D01*
X147703541Y-147484408D01*
X147449360Y-147400725D01*
X146564885Y-148285200D01*
X146205675Y-148285200D01*
X146191533Y-148271058D01*
X146371138Y-148091453D01*
X146385280Y-148105595D01*
X147269755Y-147221120D01*
X147186072Y-146966939D01*
X146913505Y-146836042D01*
X146620638Y-146760835D01*
X146318727Y-146744209D01*
X146019373Y-146786803D01*
X145734081Y-146886978D01*
X145584488Y-146966939D01*
X145500806Y-147221118D01*
X145384858Y-147105170D01*
X145338093Y-147151935D01*
X145334782Y-147141020D01*
X145275817Y-147030706D01*
X145196465Y-146934015D01*
X145099774Y-146854663D01*
X144989460Y-146795698D01*
X144869762Y-146759388D01*
X144745280Y-146747128D01*
X142945280Y-146747128D01*
X142820798Y-146759388D01*
X142701100Y-146795698D01*
X142590786Y-146854663D01*
X142494095Y-146934015D01*
X142414743Y-147030706D01*
X142392959Y-147071460D01*
X141667997Y-147071460D01*
X141610685Y-147014148D01*
X141359275Y-146846161D01*
X141079923Y-146730449D01*
X140783364Y-146671460D01*
X140480996Y-146671460D01*
X140184437Y-146730449D01*
X139905085Y-146846161D01*
X139653675Y-147014148D01*
X139587236Y-147080587D01*
X139581682Y-147062280D01*
X139522717Y-146951966D01*
X139443365Y-146855275D01*
X139346674Y-146775923D01*
X139236360Y-146716958D01*
X139116662Y-146680648D01*
X138992180Y-146668388D01*
X138970640Y-146668388D01*
X138970640Y-146451192D01*
X138976131Y-146395441D01*
X138970640Y-146339688D01*
X138970640Y-142957587D01*
X138979820Y-142954802D01*
X139090134Y-142895837D01*
X139186825Y-142816485D01*
X139266177Y-142719794D01*
X139325142Y-142609480D01*
X139330696Y-142591173D01*
X139397135Y-142657612D01*
X139648545Y-142825599D01*
X139927897Y-142941311D01*
X140224456Y-143000300D01*
X140526824Y-143000300D01*
X140823383Y-142941311D01*
X141102735Y-142825599D01*
X141354145Y-142657612D01*
X141426697Y-142585060D01*
X142050733Y-142585060D01*
X142053518Y-142594240D01*
X142112483Y-142704554D01*
X142191835Y-142801245D01*
X142288526Y-142880597D01*
X142398840Y-142939562D01*
X142518538Y-142975872D01*
X142643020Y-142988132D01*
X144443020Y-142988132D01*
X144567502Y-142975872D01*
X144687200Y-142939562D01*
X144797514Y-142880597D01*
X144894205Y-142801245D01*
X144973557Y-142704554D01*
X145032522Y-142594240D01*
X145035833Y-142583325D01*
X145082598Y-142630090D01*
X145198546Y-142514142D01*
X145282228Y-142768321D01*
X145554795Y-142899218D01*
X145847662Y-142974425D01*
X146149573Y-142991051D01*
X146448927Y-142948457D01*
X146734219Y-142848282D01*
X146883812Y-142768321D01*
X146967495Y-142514140D01*
X146083020Y-141629665D01*
X146068878Y-141643808D01*
X145889273Y-141464203D01*
X145903415Y-141450060D01*
X146262625Y-141450060D01*
X147147100Y-142334535D01*
X147401281Y-142250852D01*
X147532178Y-141978285D01*
X147607385Y-141685418D01*
X147624011Y-141383507D01*
X147581417Y-141084153D01*
X147481242Y-140798861D01*
X147401281Y-140649268D01*
X147147100Y-140565585D01*
X146262625Y-141450060D01*
X145903415Y-141450060D01*
X145889273Y-141435918D01*
X146068878Y-141256313D01*
X146083020Y-141270455D01*
X146967495Y-140385980D01*
X146883812Y-140131799D01*
X146611245Y-140000902D01*
X146318378Y-139925695D01*
X146016467Y-139909069D01*
X145717113Y-139951663D01*
X145431821Y-140051838D01*
X145282228Y-140131799D01*
X145198546Y-140385978D01*
X145082598Y-140270030D01*
X145035833Y-140316795D01*
X145032522Y-140305880D01*
X144973557Y-140195566D01*
X144894205Y-140098875D01*
X144797514Y-140019523D01*
X144687200Y-139960558D01*
X144567502Y-139924248D01*
X144443020Y-139911988D01*
X142643020Y-139911988D01*
X142518538Y-139924248D01*
X142398840Y-139960558D01*
X142288526Y-140019523D01*
X142191835Y-140098875D01*
X142112483Y-140195566D01*
X142053518Y-140305880D01*
X142050733Y-140315060D01*
X141396217Y-140315060D01*
X141354145Y-140272988D01*
X141102735Y-140105001D01*
X140823383Y-139989289D01*
X140526824Y-139930300D01*
X140224456Y-139930300D01*
X139927897Y-139989289D01*
X139648545Y-140105001D01*
X139397135Y-140272988D01*
X139330696Y-140339427D01*
X139325142Y-140321120D01*
X139266177Y-140210806D01*
X139186825Y-140114115D01*
X139090134Y-140034763D01*
X138979820Y-139975798D01*
X138860122Y-139939488D01*
X138825860Y-139936114D01*
X138825860Y-136127527D01*
X138835040Y-136124742D01*
X138945354Y-136065777D01*
X139042045Y-135986425D01*
X139121397Y-135889734D01*
X139180362Y-135779420D01*
X139185916Y-135761113D01*
X139252355Y-135827552D01*
X139503765Y-135995539D01*
X139783117Y-136111251D01*
X140079676Y-136170240D01*
X140382044Y-136170240D01*
X140678603Y-136111251D01*
X140957955Y-135995539D01*
X141209365Y-135827552D01*
X141266677Y-135770240D01*
X141950674Y-135770240D01*
X141951918Y-135774340D01*
X142010883Y-135884654D01*
X142090235Y-135981345D01*
X142186926Y-136060697D01*
X142297240Y-136119662D01*
X142416938Y-136155972D01*
X142541420Y-136168232D01*
X144341420Y-136168232D01*
X144465902Y-136155972D01*
X144585600Y-136119662D01*
X144695914Y-136060697D01*
X144792605Y-135981345D01*
X144871957Y-135884654D01*
X144930922Y-135774340D01*
X144934233Y-135763425D01*
X144980998Y-135810190D01*
X145096946Y-135694242D01*
X145180628Y-135948421D01*
X145453195Y-136079318D01*
X145746062Y-136154525D01*
X146047973Y-136171151D01*
X146347327Y-136128557D01*
X146632619Y-136028382D01*
X146782212Y-135948421D01*
X146865895Y-135694240D01*
X145981420Y-134809765D01*
X145967278Y-134823908D01*
X145787673Y-134644303D01*
X145801815Y-134630160D01*
X146161025Y-134630160D01*
X147045500Y-135514635D01*
X147299681Y-135430952D01*
X147430578Y-135158385D01*
X147505785Y-134865518D01*
X147522411Y-134563607D01*
X147479817Y-134264253D01*
X147379642Y-133978961D01*
X147299681Y-133829368D01*
X147045500Y-133745685D01*
X146161025Y-134630160D01*
X145801815Y-134630160D01*
X145787673Y-134616018D01*
X145967278Y-134436413D01*
X145981420Y-134450555D01*
X146865895Y-133566080D01*
X146782212Y-133311899D01*
X146509645Y-133181002D01*
X146216778Y-133105795D01*
X145914867Y-133089169D01*
X145615513Y-133131763D01*
X145330221Y-133231938D01*
X145180628Y-133311899D01*
X145096946Y-133566078D01*
X144980998Y-133450130D01*
X144934233Y-133496895D01*
X144930922Y-133485980D01*
X144871957Y-133375666D01*
X144792605Y-133278975D01*
X144695914Y-133199623D01*
X144585600Y-133140658D01*
X144465902Y-133104348D01*
X144341420Y-133092088D01*
X142541420Y-133092088D01*
X142416938Y-133104348D01*
X142297240Y-133140658D01*
X142186926Y-133199623D01*
X142090235Y-133278975D01*
X142010883Y-133375666D01*
X141951918Y-133485980D01*
X141947592Y-133500240D01*
X141266677Y-133500240D01*
X141209365Y-133442928D01*
X140957955Y-133274941D01*
X140678603Y-133159229D01*
X140382044Y-133100240D01*
X140079676Y-133100240D01*
X139783117Y-133159229D01*
X139503765Y-133274941D01*
X139252355Y-133442928D01*
X139185916Y-133509367D01*
X139180362Y-133491060D01*
X139121397Y-133380746D01*
X139042045Y-133284055D01*
X138945354Y-133204703D01*
X138835040Y-133145738D01*
X138715342Y-133109428D01*
X138590860Y-133097168D01*
X136790860Y-133097168D01*
X136666378Y-133109428D01*
X136546680Y-133145738D01*
X136436366Y-133204703D01*
X136339675Y-133284055D01*
X136260323Y-133380746D01*
X136201358Y-133491060D01*
X136165048Y-133610758D01*
X136152788Y-133735240D01*
X136152788Y-135535240D01*
X136165048Y-135659722D01*
X136201358Y-135779420D01*
X136260323Y-135889734D01*
X136339675Y-135986425D01*
X136436366Y-136065777D01*
X136546680Y-136124742D01*
X136555860Y-136127527D01*
X136555861Y-140055514D01*
X136484455Y-140114115D01*
X136405103Y-140210806D01*
X136346138Y-140321120D01*
X136309828Y-140440818D01*
X136297568Y-140565300D01*
X136297568Y-142365300D01*
X136309828Y-142489782D01*
X136346138Y-142609480D01*
X136405103Y-142719794D01*
X136484455Y-142816485D01*
X136581146Y-142895837D01*
X136691460Y-142954802D01*
X136700640Y-142957587D01*
X136700641Y-145925307D01*
X136170797Y-146455151D01*
X136127492Y-146490691D01*
X136091952Y-146533997D01*
X135554489Y-147071460D01*
X134609840Y-147071460D01*
X134548020Y-146922213D01*
X134390977Y-146687181D01*
X134191099Y-146487303D01*
X133956067Y-146330260D01*
X133694914Y-146222087D01*
X133417675Y-146166940D01*
X133135005Y-146166940D01*
X132857766Y-146222087D01*
X132596613Y-146330260D01*
X132361581Y-146487303D01*
X132161703Y-146687181D01*
X132004660Y-146922213D01*
X131896487Y-147183366D01*
X131841340Y-147460605D01*
X127817812Y-147460605D01*
X127778920Y-147366713D01*
X127621877Y-147131681D01*
X127421999Y-146931803D01*
X127186967Y-146774760D01*
X126925814Y-146666587D01*
X126684522Y-146618590D01*
X125901436Y-145835505D01*
X125865889Y-145792191D01*
X125693063Y-145650356D01*
X125495887Y-145544964D01*
X125281939Y-145480063D01*
X125115192Y-145463640D01*
X125115191Y-145463640D01*
X125059440Y-145458149D01*
X125003689Y-145463640D01*
X111297581Y-145463640D01*
X111241839Y-145458150D01*
X111186097Y-145463640D01*
X111186088Y-145463640D01*
X111019341Y-145480063D01*
X110805393Y-145544964D01*
X110608217Y-145650356D01*
X110435391Y-145792191D01*
X110399849Y-145835499D01*
X106748349Y-149487000D01*
X103136932Y-149487000D01*
X99775900Y-146125969D01*
X99775900Y-145020165D01*
X99903449Y-145105390D01*
X100173702Y-145217332D01*
X100460600Y-145274400D01*
X100753120Y-145274400D01*
X101040018Y-145217332D01*
X101310271Y-145105390D01*
X101553492Y-144942875D01*
X101760335Y-144736032D01*
X101922850Y-144492811D01*
X102034792Y-144222558D01*
X102091860Y-143935660D01*
X102091860Y-143643140D01*
X102034792Y-143356242D01*
X101922850Y-143085989D01*
X101760335Y-142842768D01*
X101553492Y-142635925D01*
X101379100Y-142519400D01*
X101553492Y-142402875D01*
X101760335Y-142196032D01*
X101922850Y-141952811D01*
X102034792Y-141682558D01*
X102091860Y-141395660D01*
X102091860Y-141103140D01*
X102034792Y-140816242D01*
X101922850Y-140545989D01*
X101760335Y-140302768D01*
X101553492Y-140095925D01*
X101379100Y-139979400D01*
X101553492Y-139862875D01*
X101571967Y-139844400D01*
X102534849Y-139844400D01*
X102590600Y-139849891D01*
X102646351Y-139844400D01*
X102646352Y-139844400D01*
X102813099Y-139827977D01*
X103027047Y-139763076D01*
X103224223Y-139657684D01*
X103397049Y-139515849D01*
X103432596Y-139472535D01*
X106177283Y-136727849D01*
X106418574Y-136679853D01*
X106679727Y-136571680D01*
X106914759Y-136414637D01*
X107114637Y-136214759D01*
X107271680Y-135979727D01*
X107379853Y-135718574D01*
X107435000Y-135441335D01*
X107435000Y-135158665D01*
X107379853Y-134881426D01*
X107271680Y-134620273D01*
X107114637Y-134385241D01*
X106914759Y-134185363D01*
X106679727Y-134028320D01*
X106418574Y-133920147D01*
X106141335Y-133865000D01*
X105858665Y-133865000D01*
X105581426Y-133920147D01*
X105320273Y-134028320D01*
X105085241Y-134185363D01*
X104885363Y-134385241D01*
X104728320Y-134620273D01*
X104620147Y-134881426D01*
X104572151Y-135122717D01*
X102120469Y-137574400D01*
X101765588Y-137574400D01*
X101811354Y-137549937D01*
X101908045Y-137470585D01*
X101987397Y-137373894D01*
X102046362Y-137263580D01*
X102082672Y-137143882D01*
X102094932Y-137019400D01*
X102094932Y-135319400D01*
X102082672Y-135194918D01*
X102046362Y-135075220D01*
X101987397Y-134964906D01*
X101908045Y-134868215D01*
X101811354Y-134788863D01*
X101741860Y-134751717D01*
X101741860Y-132506951D01*
X102692432Y-131556380D01*
X103052649Y-131556380D01*
X103220150Y-131723882D01*
X103268147Y-131965174D01*
X103376320Y-132226327D01*
X103533363Y-132461359D01*
X103733241Y-132661237D01*
X103968273Y-132818280D01*
X104229426Y-132926453D01*
X104506665Y-132981600D01*
X104789335Y-132981600D01*
X105066574Y-132926453D01*
X105327727Y-132818280D01*
X105532284Y-132681600D01*
X109181669Y-132681600D01*
X110675327Y-134175259D01*
X110692204Y-134260105D01*
X110792839Y-134503059D01*
X110938938Y-134721713D01*
X111124887Y-134907662D01*
X111343541Y-135053761D01*
X111586495Y-135154396D01*
X111844414Y-135205700D01*
X112107386Y-135205700D01*
X112365305Y-135154396D01*
X112608259Y-135053761D01*
X112826913Y-134907662D01*
X113012862Y-134721713D01*
X113158961Y-134503059D01*
X113259596Y-134260105D01*
X113310900Y-134002186D01*
X113310900Y-133739214D01*
X113259596Y-133481295D01*
X113158961Y-133238341D01*
X113012862Y-133019687D01*
X112826913Y-132833738D01*
X112608259Y-132687639D01*
X112365305Y-132587004D01*
X112280459Y-132570127D01*
X110493796Y-130783465D01*
X110458249Y-130740151D01*
X110285423Y-130598316D01*
X110088247Y-130492924D01*
X109874299Y-130428023D01*
X109707552Y-130411600D01*
X109707551Y-130411600D01*
X109651800Y-130406109D01*
X109596049Y-130411600D01*
X105532284Y-130411600D01*
X105327727Y-130274920D01*
X105066574Y-130166747D01*
X104825282Y-130118750D01*
X104364776Y-129658244D01*
X104329229Y-129614931D01*
X104156403Y-129473096D01*
X103959227Y-129367704D01*
X103745279Y-129302803D01*
X103578532Y-129286380D01*
X103578531Y-129286380D01*
X103522780Y-129280889D01*
X103467029Y-129286380D01*
X102278051Y-129286380D01*
X102222299Y-129280889D01*
X102166547Y-129286380D01*
X101884843Y-129286380D01*
X101847697Y-129216886D01*
X101768345Y-129120195D01*
X101671654Y-129040843D01*
X101561340Y-128981878D01*
X101488780Y-128959867D01*
X101620635Y-128828012D01*
X101783150Y-128584791D01*
X101895092Y-128314538D01*
X101952160Y-128027640D01*
X101952160Y-127735120D01*
X101895092Y-127448222D01*
X101783150Y-127177969D01*
X101620635Y-126934748D01*
X101413792Y-126727905D01*
X101231626Y-126606185D01*
X101348515Y-126536558D01*
X101564748Y-126341649D01*
X101738801Y-126108300D01*
X101863985Y-125845479D01*
X101908636Y-125698270D01*
X101787315Y-125468380D01*
X100594160Y-125468380D01*
X100594160Y-125488380D01*
X100340160Y-125488380D01*
X100340160Y-125468380D01*
X99147005Y-125468380D01*
X99025684Y-125698270D01*
X99070335Y-125845479D01*
X99195519Y-126108300D01*
X99369572Y-126341649D01*
X99585805Y-126536558D01*
X99702694Y-126606185D01*
X99520528Y-126727905D01*
X99313685Y-126934748D01*
X99151170Y-127177969D01*
X99039228Y-127448222D01*
X98982160Y-127735120D01*
X98982160Y-128027640D01*
X99039228Y-128314538D01*
X99151170Y-128584791D01*
X99313685Y-128828012D01*
X99445540Y-128959867D01*
X99372980Y-128981878D01*
X99262666Y-129040843D01*
X99165975Y-129120195D01*
X99086623Y-129216886D01*
X99027658Y-129327200D01*
X98991348Y-129446898D01*
X98979088Y-129571380D01*
X98979088Y-131271380D01*
X98991348Y-131395862D01*
X99027658Y-131515560D01*
X99086623Y-131625874D01*
X99165975Y-131722565D01*
X99262666Y-131801917D01*
X99372980Y-131860882D01*
X99471860Y-131890877D01*
X99471860Y-131981068D01*
X99466369Y-132036820D01*
X99471860Y-132092571D01*
X99471860Y-132138291D01*
X99471861Y-132138301D01*
X99471860Y-134751717D01*
X99402366Y-134788863D01*
X99305675Y-134868215D01*
X99226323Y-134964906D01*
X99167358Y-135075220D01*
X99131048Y-135194918D01*
X99118788Y-135319400D01*
X99118788Y-137019400D01*
X99131048Y-137143882D01*
X99167358Y-137263580D01*
X99226323Y-137373894D01*
X99305675Y-137470585D01*
X99402366Y-137549937D01*
X99512680Y-137608902D01*
X99585240Y-137630913D01*
X99453385Y-137762768D01*
X99290870Y-138005989D01*
X99178928Y-138276242D01*
X99121860Y-138563140D01*
X99121860Y-138855660D01*
X99178928Y-139142558D01*
X99290870Y-139412811D01*
X99453385Y-139656032D01*
X99660228Y-139862875D01*
X99834620Y-139979400D01*
X99660228Y-140095925D01*
X99453385Y-140302768D01*
X99290870Y-140545989D01*
X99178928Y-140816242D01*
X99121860Y-141103140D01*
X99121860Y-141129268D01*
X97877760Y-142373369D01*
X97834452Y-142408911D01*
X97692617Y-142581737D01*
X97663653Y-142635925D01*
X97587224Y-142778914D01*
X97522323Y-142992862D01*
X97500409Y-143215360D01*
X96660000Y-143215360D01*
X96660000Y-124984490D01*
X99025684Y-124984490D01*
X99147005Y-125214380D01*
X100340160Y-125214380D01*
X100340160Y-124020566D01*
X100594160Y-124020566D01*
X100594160Y-125214380D01*
X101787315Y-125214380D01*
X101879709Y-125039302D01*
X103834903Y-125039302D01*
X103906486Y-125283271D01*
X104161996Y-125404171D01*
X104436184Y-125472900D01*
X104718512Y-125486817D01*
X104998130Y-125445387D01*
X105264292Y-125350203D01*
X105389514Y-125283271D01*
X105461097Y-125039302D01*
X104648000Y-124226205D01*
X103834903Y-125039302D01*
X101879709Y-125039302D01*
X101908636Y-124984490D01*
X101863985Y-124837281D01*
X101738801Y-124574460D01*
X101564748Y-124341111D01*
X101348515Y-124146202D01*
X101299680Y-124117112D01*
X103207783Y-124117112D01*
X103249213Y-124396730D01*
X103344397Y-124662892D01*
X103411329Y-124788114D01*
X103655298Y-124859697D01*
X104468395Y-124046600D01*
X104827605Y-124046600D01*
X105640702Y-124859697D01*
X105884671Y-124788114D01*
X106005571Y-124532604D01*
X106074300Y-124258416D01*
X106088217Y-123976088D01*
X106046787Y-123696470D01*
X105951603Y-123430308D01*
X105884671Y-123305086D01*
X105640702Y-123233503D01*
X104827605Y-124046600D01*
X104468395Y-124046600D01*
X103655298Y-123233503D01*
X103411329Y-123305086D01*
X103290429Y-123560596D01*
X103221700Y-123834784D01*
X103207783Y-124117112D01*
X101299680Y-124117112D01*
X101098412Y-123997223D01*
X100824051Y-123899899D01*
X100594160Y-124020566D01*
X100340160Y-124020566D01*
X100110269Y-123899899D01*
X99835908Y-123997223D01*
X99585805Y-124146202D01*
X99369572Y-124341111D01*
X99195519Y-124574460D01*
X99070335Y-124837281D01*
X99025684Y-124984490D01*
X96660000Y-124984490D01*
X96660000Y-123053898D01*
X103834903Y-123053898D01*
X104648000Y-123866995D01*
X105461097Y-123053898D01*
X105389514Y-122809929D01*
X105134004Y-122689029D01*
X104859816Y-122620300D01*
X104577488Y-122606383D01*
X104297870Y-122647813D01*
X104031708Y-122742997D01*
X103906486Y-122809929D01*
X103834903Y-123053898D01*
X96660000Y-123053898D01*
X96660000Y-115558200D01*
X98867328Y-115558200D01*
X98867328Y-117258200D01*
X98879588Y-117382682D01*
X98915898Y-117502380D01*
X98974863Y-117612694D01*
X99054215Y-117709385D01*
X99150906Y-117788737D01*
X99261220Y-117847702D01*
X99333780Y-117869713D01*
X99201925Y-118001568D01*
X99039410Y-118244789D01*
X98927468Y-118515042D01*
X98870400Y-118801940D01*
X98870400Y-119094460D01*
X98927468Y-119381358D01*
X99039410Y-119651611D01*
X99201925Y-119894832D01*
X99408768Y-120101675D01*
X99651989Y-120264190D01*
X99922242Y-120376132D01*
X100209140Y-120433200D01*
X100501660Y-120433200D01*
X100788558Y-120376132D01*
X101058811Y-120264190D01*
X101302032Y-120101675D01*
X101320507Y-120083200D01*
X106819469Y-120083200D01*
X108282152Y-121545884D01*
X108274000Y-121586868D01*
X108274000Y-121948332D01*
X108344518Y-122302850D01*
X108482844Y-122636799D01*
X108683662Y-122937344D01*
X108939256Y-123192938D01*
X109239801Y-123393756D01*
X109573750Y-123532082D01*
X109928268Y-123602600D01*
X110289732Y-123602600D01*
X110330716Y-123594448D01*
X111629209Y-124892941D01*
X111664751Y-124936249D01*
X111679648Y-124948475D01*
X111586495Y-124967004D01*
X111343541Y-125067639D01*
X111124887Y-125213738D01*
X110938938Y-125399687D01*
X110792839Y-125618341D01*
X110692204Y-125861295D01*
X110640900Y-126119214D01*
X110640900Y-126382186D01*
X110692204Y-126640105D01*
X110792839Y-126883059D01*
X110938938Y-127101713D01*
X111124887Y-127287662D01*
X111343541Y-127433761D01*
X111586495Y-127534396D01*
X111844414Y-127585700D01*
X112107386Y-127585700D01*
X112365305Y-127534396D01*
X112608259Y-127433761D01*
X112826913Y-127287662D01*
X113012862Y-127101713D01*
X113158961Y-126883059D01*
X113259596Y-126640105D01*
X113310900Y-126382186D01*
X113310900Y-126119214D01*
X113259596Y-125861295D01*
X113158961Y-125618341D01*
X113012862Y-125399687D01*
X112877975Y-125264800D01*
X113885749Y-125264800D01*
X116343449Y-127722501D01*
X116378991Y-127765809D01*
X116422304Y-127801355D01*
X116521881Y-127900932D01*
X116460099Y-127913221D01*
X116226244Y-128010087D01*
X116015780Y-128150715D01*
X115836795Y-128329700D01*
X115696167Y-128540164D01*
X115599301Y-128774019D01*
X115597983Y-128780645D01*
X114060100Y-130318529D01*
X114016792Y-130354071D01*
X113981252Y-130397377D01*
X113761650Y-130616979D01*
X113718342Y-130652521D01*
X113576507Y-130825347D01*
X113538567Y-130896329D01*
X113471114Y-131022524D01*
X113406213Y-131236472D01*
X113384299Y-131458970D01*
X113389791Y-131514731D01*
X113389790Y-135207777D01*
X105236860Y-143360709D01*
X105193552Y-143396251D01*
X105051717Y-143569077D01*
X105012130Y-143643140D01*
X104946324Y-143766254D01*
X104881423Y-143980202D01*
X104859509Y-144202700D01*
X104865001Y-144258461D01*
X104865000Y-147115716D01*
X104728320Y-147320273D01*
X104620147Y-147581426D01*
X104565000Y-147858665D01*
X104565000Y-148141335D01*
X104620147Y-148418574D01*
X104728320Y-148679727D01*
X104885363Y-148914759D01*
X105085241Y-149114637D01*
X105320273Y-149271680D01*
X105581426Y-149379853D01*
X105858665Y-149435000D01*
X106141335Y-149435000D01*
X106418574Y-149379853D01*
X106679727Y-149271680D01*
X106914759Y-149114637D01*
X107114637Y-148914759D01*
X107271680Y-148679727D01*
X107379853Y-148418574D01*
X107435000Y-148141335D01*
X107435000Y-147858665D01*
X107379853Y-147581426D01*
X107271680Y-147320273D01*
X107135000Y-147115716D01*
X107135000Y-144672831D01*
X115287936Y-136519897D01*
X115331239Y-136484359D01*
X115366785Y-136441046D01*
X115798473Y-136009359D01*
X115841779Y-135973819D01*
X115877325Y-135930506D01*
X116420382Y-135387450D01*
X116661674Y-135339453D01*
X116922827Y-135231280D01*
X117157859Y-135074237D01*
X117357737Y-134874359D01*
X117514780Y-134639327D01*
X117622953Y-134378174D01*
X117678100Y-134100935D01*
X117678100Y-133818265D01*
X117622953Y-133541026D01*
X117514780Y-133279873D01*
X117357737Y-133044841D01*
X117157859Y-132844963D01*
X116922827Y-132687920D01*
X116661674Y-132579747D01*
X116420382Y-132531750D01*
X115958240Y-132069609D01*
X115958240Y-131630651D01*
X116816848Y-130772044D01*
X116816848Y-131068840D01*
X116829108Y-131193322D01*
X116865418Y-131313020D01*
X116924383Y-131423334D01*
X117003735Y-131520025D01*
X117100426Y-131599377D01*
X117210740Y-131658342D01*
X117330438Y-131694652D01*
X117454920Y-131706912D01*
X118754920Y-131706912D01*
X118879402Y-131694652D01*
X118999100Y-131658342D01*
X119109414Y-131599377D01*
X119206105Y-131520025D01*
X119285457Y-131423334D01*
X119344422Y-131313020D01*
X119380732Y-131193322D01*
X119392992Y-131068840D01*
X119392992Y-129768840D01*
X119380732Y-129644358D01*
X119344422Y-129524660D01*
X119285457Y-129414346D01*
X119206105Y-129317655D01*
X119109414Y-129238303D01*
X118999100Y-129179338D01*
X118879402Y-129143028D01*
X118754920Y-129130768D01*
X118397748Y-129130768D01*
X118479741Y-129114459D01*
X118713596Y-129017593D01*
X118924060Y-128876965D01*
X119103045Y-128697980D01*
X119243673Y-128487516D01*
X119294901Y-128363841D01*
X121727080Y-128363841D01*
X121619447Y-128524924D01*
X121522581Y-128758779D01*
X121521263Y-128765405D01*
X120572660Y-129714009D01*
X120529352Y-129749551D01*
X120387517Y-129922377D01*
X120354080Y-129984934D01*
X120282124Y-130119554D01*
X120217223Y-130333502D01*
X120195309Y-130556000D01*
X120200801Y-130611761D01*
X120200800Y-134035928D01*
X120195309Y-134091680D01*
X120200800Y-134147431D01*
X120200800Y-134358016D01*
X120064120Y-134562573D01*
X119955947Y-134823726D01*
X119900800Y-135100965D01*
X119900800Y-135383635D01*
X119955947Y-135660874D01*
X120064120Y-135922027D01*
X120221163Y-136157059D01*
X120421041Y-136356937D01*
X120656073Y-136513980D01*
X120917226Y-136622153D01*
X121194465Y-136677300D01*
X121477135Y-136677300D01*
X121754374Y-136622153D01*
X122015527Y-136513980D01*
X122064227Y-136481440D01*
X122575448Y-136481440D01*
X122631200Y-136486931D01*
X122686952Y-136481440D01*
X125125609Y-136481440D01*
X125181360Y-136486931D01*
X125237111Y-136481440D01*
X125622956Y-136481440D01*
X125827513Y-136618120D01*
X126088666Y-136726293D01*
X126365905Y-136781440D01*
X126648575Y-136781440D01*
X126925814Y-136726293D01*
X127186967Y-136618120D01*
X127421999Y-136461077D01*
X127621877Y-136261199D01*
X127778920Y-136026167D01*
X127887093Y-135765014D01*
X127942240Y-135487775D01*
X127942240Y-135205105D01*
X127887093Y-134927866D01*
X127778920Y-134666713D01*
X127642240Y-134462156D01*
X127642240Y-134076303D01*
X127647730Y-134020561D01*
X127642240Y-133964819D01*
X127642240Y-133088611D01*
X128404328Y-132326524D01*
X128404328Y-132623320D01*
X128416588Y-132747802D01*
X128452898Y-132867500D01*
X128511863Y-132977814D01*
X128591215Y-133074505D01*
X128687906Y-133153857D01*
X128798220Y-133212822D01*
X128917918Y-133249132D01*
X129042400Y-133261392D01*
X130342400Y-133261392D01*
X130466882Y-133249132D01*
X130586580Y-133212822D01*
X130696894Y-133153857D01*
X130793585Y-133074505D01*
X130872937Y-132977814D01*
X130931902Y-132867500D01*
X130968212Y-132747802D01*
X130980472Y-132623320D01*
X130980472Y-131323320D01*
X130968212Y-131198838D01*
X130931902Y-131079140D01*
X130872937Y-130968826D01*
X130793585Y-130872135D01*
X130696894Y-130792783D01*
X130586580Y-130733818D01*
X130466882Y-130697508D01*
X130342400Y-130685248D01*
X129985228Y-130685248D01*
X130067221Y-130668939D01*
X130301076Y-130572073D01*
X130306693Y-130568320D01*
X131066309Y-130568320D01*
X132141340Y-131643352D01*
X132141341Y-134017655D01*
X132004660Y-134222213D01*
X131896487Y-134483366D01*
X131841340Y-134760605D01*
X131841340Y-135043275D01*
X131896487Y-135320514D01*
X132004660Y-135581667D01*
X132161703Y-135816699D01*
X132361581Y-136016577D01*
X132596613Y-136173620D01*
X132857766Y-136281793D01*
X133135005Y-136336940D01*
X133417675Y-136336940D01*
X133694914Y-136281793D01*
X133956067Y-136173620D01*
X134191099Y-136016577D01*
X134390977Y-135816699D01*
X134548020Y-135581667D01*
X134656193Y-135320514D01*
X134711340Y-135043275D01*
X134711340Y-134760605D01*
X134656193Y-134483366D01*
X134548020Y-134222213D01*
X134411340Y-134017656D01*
X134411340Y-131228963D01*
X134416830Y-131173219D01*
X134411340Y-131117475D01*
X134411340Y-131117468D01*
X134394917Y-130950721D01*
X134392287Y-130942049D01*
X134369482Y-130866873D01*
X134330016Y-130736773D01*
X134224624Y-130539597D01*
X134082789Y-130366771D01*
X134039480Y-130331229D01*
X132378436Y-128670185D01*
X132342889Y-128626871D01*
X132170063Y-128485036D01*
X131972887Y-128379644D01*
X131758939Y-128314743D01*
X131592192Y-128298320D01*
X131592191Y-128298320D01*
X131536440Y-128292829D01*
X131480689Y-128298320D01*
X130306693Y-128298320D01*
X130301076Y-128294567D01*
X130067221Y-128197701D01*
X129818961Y-128148320D01*
X129565839Y-128148320D01*
X129317579Y-128197701D01*
X129083724Y-128294567D01*
X128873260Y-128435195D01*
X128694275Y-128614180D01*
X128553647Y-128824644D01*
X128456781Y-129058499D01*
X128407400Y-129306759D01*
X128407400Y-129418320D01*
X128295839Y-129418320D01*
X128047579Y-129467701D01*
X127813724Y-129564567D01*
X127603260Y-129705195D01*
X127424275Y-129884180D01*
X127283647Y-130094644D01*
X127186781Y-130328499D01*
X127185463Y-130335125D01*
X125744105Y-131776484D01*
X125700791Y-131812031D01*
X125558956Y-131984857D01*
X125454533Y-132180222D01*
X125453564Y-132182034D01*
X125388663Y-132395982D01*
X125366749Y-132618480D01*
X125372240Y-132674231D01*
X125372240Y-133550428D01*
X124711229Y-134211440D01*
X123101332Y-134211440D01*
X122470800Y-133580909D01*
X122470800Y-131026131D01*
X122740128Y-130756803D01*
X122740128Y-131053600D01*
X122752388Y-131178082D01*
X122788698Y-131297780D01*
X122847663Y-131408094D01*
X122927015Y-131504785D01*
X123023706Y-131584137D01*
X123134020Y-131643102D01*
X123253718Y-131679412D01*
X123378200Y-131691672D01*
X124678200Y-131691672D01*
X124802682Y-131679412D01*
X124922380Y-131643102D01*
X125032694Y-131584137D01*
X125129385Y-131504785D01*
X125208737Y-131408094D01*
X125267702Y-131297780D01*
X125304012Y-131178082D01*
X125316272Y-131053600D01*
X125316272Y-129753600D01*
X125304012Y-129629118D01*
X125267702Y-129509420D01*
X125208737Y-129399106D01*
X125129385Y-129302415D01*
X125032694Y-129223063D01*
X124922380Y-129164098D01*
X124802682Y-129127788D01*
X124678200Y-129115528D01*
X124321028Y-129115528D01*
X124403021Y-129099219D01*
X124636876Y-129002353D01*
X124847340Y-128861725D01*
X125026325Y-128682740D01*
X125166953Y-128472276D01*
X125263819Y-128238421D01*
X125313200Y-127990161D01*
X125313200Y-127737039D01*
X125263819Y-127488779D01*
X125166953Y-127254924D01*
X125026325Y-127044460D01*
X124847340Y-126865475D01*
X124636876Y-126724847D01*
X124403021Y-126627981D01*
X124396394Y-126626663D01*
X124235435Y-126465704D01*
X124199890Y-126422392D01*
X124156578Y-126386846D01*
X123965955Y-126196224D01*
X123930409Y-126152911D01*
X123757583Y-126011076D01*
X123560407Y-125905684D01*
X123346459Y-125840783D01*
X123179712Y-125824360D01*
X123179711Y-125824360D01*
X123123960Y-125818869D01*
X123068209Y-125824360D01*
X117655572Y-125824360D01*
X116052891Y-124221679D01*
X127117080Y-124221679D01*
X127117080Y-124474801D01*
X127166461Y-124723061D01*
X127263327Y-124956916D01*
X127403955Y-125167380D01*
X127582940Y-125346365D01*
X127793404Y-125486993D01*
X128027259Y-125583859D01*
X128275519Y-125633240D01*
X128384008Y-125633240D01*
X128384008Y-126268240D01*
X128396268Y-126392722D01*
X128432578Y-126512420D01*
X128491543Y-126622734D01*
X128570895Y-126719425D01*
X128667586Y-126798777D01*
X128777900Y-126857742D01*
X128897598Y-126894052D01*
X129022080Y-126906312D01*
X130322080Y-126906312D01*
X130446562Y-126894052D01*
X130566260Y-126857742D01*
X130676574Y-126798777D01*
X130773265Y-126719425D01*
X130852617Y-126622734D01*
X130911582Y-126512420D01*
X130947892Y-126392722D01*
X130960152Y-126268240D01*
X130960152Y-124968240D01*
X130947892Y-124843758D01*
X130911582Y-124724060D01*
X130852617Y-124613746D01*
X130773265Y-124517055D01*
X130676574Y-124437703D01*
X130566260Y-124378738D01*
X130446562Y-124342428D01*
X130322080Y-124330168D01*
X129964908Y-124330168D01*
X130046901Y-124313859D01*
X130280756Y-124216993D01*
X130491220Y-124076365D01*
X130670205Y-123897380D01*
X130810833Y-123686916D01*
X130907699Y-123453061D01*
X130957080Y-123204801D01*
X130957080Y-122951679D01*
X130907699Y-122703419D01*
X130810833Y-122469564D01*
X130807080Y-122463947D01*
X130807080Y-120301891D01*
X130812571Y-120246139D01*
X130790657Y-120023641D01*
X130725756Y-119809693D01*
X130620364Y-119612517D01*
X130478529Y-119439691D01*
X130435215Y-119404144D01*
X130355710Y-119324639D01*
X130307713Y-119083346D01*
X130199540Y-118822193D01*
X130042497Y-118587161D01*
X129842619Y-118387283D01*
X129607587Y-118230240D01*
X129346434Y-118122067D01*
X129069195Y-118066920D01*
X128786525Y-118066920D01*
X128509286Y-118122067D01*
X128248133Y-118230240D01*
X128013101Y-118387283D01*
X127813223Y-118587161D01*
X127656180Y-118822193D01*
X127548007Y-119083346D01*
X127492860Y-119360585D01*
X127492860Y-119643255D01*
X127548007Y-119920494D01*
X127656180Y-120181647D01*
X127813223Y-120416679D01*
X128013101Y-120616557D01*
X128248133Y-120773600D01*
X128509286Y-120881773D01*
X128537081Y-120887302D01*
X128537080Y-122463947D01*
X128533327Y-122469564D01*
X128436461Y-122703419D01*
X128387080Y-122951679D01*
X128387080Y-123063240D01*
X128275519Y-123063240D01*
X128027259Y-123112621D01*
X127793404Y-123209487D01*
X127582940Y-123350115D01*
X127403955Y-123529100D01*
X127263327Y-123739564D01*
X127166461Y-123973419D01*
X127117080Y-124221679D01*
X116052891Y-124221679D01*
X115197876Y-123366665D01*
X115162329Y-123323351D01*
X114989503Y-123181516D01*
X114792327Y-123076124D01*
X114578379Y-123011223D01*
X114411632Y-122994800D01*
X114411631Y-122994800D01*
X114355880Y-122989309D01*
X114300129Y-122994800D01*
X112941332Y-122994800D01*
X111935848Y-121989316D01*
X111944000Y-121948332D01*
X111944000Y-121586868D01*
X111873482Y-121232350D01*
X111735156Y-120898401D01*
X111534338Y-120597856D01*
X111278744Y-120342262D01*
X110978199Y-120141444D01*
X110644250Y-120003118D01*
X110289732Y-119932600D01*
X109928268Y-119932600D01*
X109887284Y-119940752D01*
X108131596Y-118185065D01*
X108096049Y-118141751D01*
X107923223Y-117999916D01*
X107726047Y-117894524D01*
X107512099Y-117829623D01*
X107345352Y-117813200D01*
X107345351Y-117813200D01*
X107289600Y-117807709D01*
X107233849Y-117813200D01*
X101514128Y-117813200D01*
X101559894Y-117788737D01*
X101656585Y-117709385D01*
X101735937Y-117612694D01*
X101794902Y-117502380D01*
X101831212Y-117382682D01*
X101843472Y-117258200D01*
X101843472Y-116525259D01*
X105369934Y-112998798D01*
X105377588Y-113001968D01*
X105693467Y-113064800D01*
X106015533Y-113064800D01*
X106331412Y-113001968D01*
X106344371Y-112996600D01*
X107924369Y-112996600D01*
X109370895Y-114443128D01*
X109315400Y-114443128D01*
X109190918Y-114455388D01*
X109071220Y-114491698D01*
X108960906Y-114550663D01*
X108864215Y-114630015D01*
X108784863Y-114726706D01*
X108725898Y-114837020D01*
X108689588Y-114956718D01*
X108677328Y-115081200D01*
X108677328Y-117481200D01*
X108689588Y-117605682D01*
X108725898Y-117725380D01*
X108784863Y-117835694D01*
X108864215Y-117932385D01*
X108960906Y-118011737D01*
X109071220Y-118070702D01*
X109190918Y-118107012D01*
X109315400Y-118119272D01*
X110748341Y-118119272D01*
X115159809Y-122530741D01*
X115195351Y-122574049D01*
X115368177Y-122715884D01*
X115565353Y-122821276D01*
X115779301Y-122886177D01*
X115946048Y-122902600D01*
X115946057Y-122902600D01*
X116001799Y-122908090D01*
X116057541Y-122902600D01*
X120970928Y-122902600D01*
X120970928Y-122967600D01*
X120983188Y-123092082D01*
X121019498Y-123211780D01*
X121078463Y-123322094D01*
X121157815Y-123418785D01*
X121254506Y-123498137D01*
X121364820Y-123557102D01*
X121484518Y-123593412D01*
X121609000Y-123605672D01*
X124009000Y-123605672D01*
X124133482Y-123593412D01*
X124253180Y-123557102D01*
X124363494Y-123498137D01*
X124460185Y-123418785D01*
X124539537Y-123322094D01*
X124598502Y-123211780D01*
X124634812Y-123092082D01*
X124647072Y-122967600D01*
X124647072Y-120567600D01*
X124634812Y-120443118D01*
X124598502Y-120323420D01*
X124539537Y-120213106D01*
X124460185Y-120116415D01*
X124363494Y-120037063D01*
X124253180Y-119978098D01*
X124133482Y-119941788D01*
X124009000Y-119929528D01*
X121609000Y-119929528D01*
X121484518Y-119941788D01*
X121364820Y-119978098D01*
X121254506Y-120037063D01*
X121157815Y-120116415D01*
X121078463Y-120213106D01*
X121019498Y-120323420D01*
X120983188Y-120443118D01*
X120970928Y-120567600D01*
X120970928Y-120632600D01*
X116471932Y-120632600D01*
X112532337Y-116693005D01*
X121427205Y-116693005D01*
X121499779Y-116932266D01*
X121659761Y-117254457D01*
X121879525Y-117539246D01*
X122150626Y-117775689D01*
X122462646Y-117954700D01*
X122803594Y-118069399D01*
X123088400Y-117953054D01*
X123088400Y-116408200D01*
X123342400Y-116408200D01*
X123342400Y-117953054D01*
X123627206Y-118069399D01*
X123968154Y-117954700D01*
X124280174Y-117775689D01*
X124551275Y-117539246D01*
X124771039Y-117254457D01*
X124931021Y-116932266D01*
X125003595Y-116693005D01*
X124886832Y-116408200D01*
X123342400Y-116408200D01*
X123088400Y-116408200D01*
X121543968Y-116408200D01*
X121427205Y-116693005D01*
X112532337Y-116693005D01*
X112353472Y-116514141D01*
X112353472Y-115869395D01*
X121427205Y-115869395D01*
X121543968Y-116154200D01*
X123088400Y-116154200D01*
X123088400Y-114609346D01*
X123342400Y-114609346D01*
X123342400Y-116154200D01*
X124886832Y-116154200D01*
X125003595Y-115869395D01*
X124931021Y-115630134D01*
X124771039Y-115307943D01*
X124551275Y-115023154D01*
X124280174Y-114786711D01*
X123968154Y-114607700D01*
X123627206Y-114493001D01*
X123342400Y-114609346D01*
X123088400Y-114609346D01*
X122803594Y-114493001D01*
X122462646Y-114607700D01*
X122150626Y-114786711D01*
X121879525Y-115023154D01*
X121659761Y-115307943D01*
X121499779Y-115630134D01*
X121427205Y-115869395D01*
X112353472Y-115869395D01*
X112353472Y-115081200D01*
X112341212Y-114956718D01*
X112304902Y-114837020D01*
X112245937Y-114726706D01*
X112166585Y-114630015D01*
X112069894Y-114550663D01*
X111959580Y-114491698D01*
X111839882Y-114455388D01*
X111715400Y-114443128D01*
X111650400Y-114443128D01*
X111650400Y-114038252D01*
X111655891Y-113982500D01*
X111650400Y-113926748D01*
X111650400Y-113263541D01*
X111655890Y-113207799D01*
X111650400Y-113152057D01*
X111650400Y-112730151D01*
X111655891Y-112674400D01*
X111650400Y-112618648D01*
X111650400Y-112593828D01*
X111685480Y-112541327D01*
X111793653Y-112280174D01*
X111848800Y-112002935D01*
X111848800Y-111720265D01*
X111793653Y-111443026D01*
X111685480Y-111181873D01*
X111528437Y-110946841D01*
X111328559Y-110746963D01*
X111096041Y-110591600D01*
X111328559Y-110436237D01*
X111528437Y-110236359D01*
X111685480Y-110001327D01*
X111793653Y-109740174D01*
X111848800Y-109462935D01*
X111848800Y-109180265D01*
X111793653Y-108903026D01*
X111685480Y-108641873D01*
X111528437Y-108406841D01*
X111328559Y-108206963D01*
X111096041Y-108051600D01*
X111328559Y-107896237D01*
X111528437Y-107696359D01*
X111685480Y-107461327D01*
X111793653Y-107200174D01*
X111848800Y-106922935D01*
X111848800Y-106640265D01*
X111793653Y-106363026D01*
X111685480Y-106101873D01*
X111528437Y-105866841D01*
X111328559Y-105666963D01*
X111096041Y-105511600D01*
X111328559Y-105356237D01*
X111528437Y-105156359D01*
X111685480Y-104921327D01*
X111793653Y-104660174D01*
X111848800Y-104382935D01*
X111848800Y-104100265D01*
X111793653Y-103823026D01*
X111685480Y-103561873D01*
X111528437Y-103326841D01*
X111328559Y-103126963D01*
X111093527Y-102969920D01*
X110832374Y-102861747D01*
X110555135Y-102806600D01*
X110272465Y-102806600D01*
X109995226Y-102861747D01*
X109734073Y-102969920D01*
X109499041Y-103126963D01*
X109299163Y-103326841D01*
X109142120Y-103561873D01*
X109033947Y-103823026D01*
X108978800Y-104100265D01*
X108978800Y-104382935D01*
X109033947Y-104660174D01*
X109142120Y-104921327D01*
X109299163Y-105156359D01*
X109499041Y-105356237D01*
X109731559Y-105511600D01*
X109499041Y-105666963D01*
X109299163Y-105866841D01*
X109142120Y-106101873D01*
X109033947Y-106363026D01*
X108978800Y-106640265D01*
X108978800Y-106922935D01*
X109033947Y-107200174D01*
X109142120Y-107461327D01*
X109299163Y-107696359D01*
X109499041Y-107896237D01*
X109731559Y-108051600D01*
X109499041Y-108206963D01*
X109299163Y-108406841D01*
X109142120Y-108641873D01*
X109033947Y-108903026D01*
X108978800Y-109180265D01*
X108978800Y-109462935D01*
X109033947Y-109740174D01*
X109142120Y-110001327D01*
X109299163Y-110236359D01*
X109499041Y-110436237D01*
X109731559Y-110591600D01*
X109529516Y-110726600D01*
X109224951Y-110726600D01*
X109169200Y-110721109D01*
X109113449Y-110726600D01*
X108450251Y-110726600D01*
X108394500Y-110721109D01*
X108338749Y-110726600D01*
X107332936Y-110726600D01*
X107303418Y-110655337D01*
X107124487Y-110387548D01*
X106896752Y-110159813D01*
X106628963Y-109980882D01*
X106331412Y-109857632D01*
X106015533Y-109794800D01*
X105693467Y-109794800D01*
X105377588Y-109857632D01*
X105080037Y-109980882D01*
X104812248Y-110159813D01*
X104584513Y-110387548D01*
X104405582Y-110655337D01*
X104336604Y-110821864D01*
X100238341Y-114920128D01*
X99505400Y-114920128D01*
X99380918Y-114932388D01*
X99261220Y-114968698D01*
X99150906Y-115027663D01*
X99054215Y-115107015D01*
X98974863Y-115203706D01*
X98915898Y-115314020D01*
X98879588Y-115433718D01*
X98867328Y-115558200D01*
X96660000Y-115558200D01*
X96660000Y-106268767D01*
X104219500Y-106268767D01*
X104219500Y-106590833D01*
X104282332Y-106906712D01*
X104405582Y-107204263D01*
X104584513Y-107472052D01*
X104812248Y-107699787D01*
X105080037Y-107878718D01*
X105377588Y-108001968D01*
X105693467Y-108064800D01*
X106015533Y-108064800D01*
X106331412Y-108001968D01*
X106628963Y-107878718D01*
X106896752Y-107699787D01*
X107124487Y-107472052D01*
X107303418Y-107204263D01*
X107426668Y-106906712D01*
X107489500Y-106590833D01*
X107489500Y-106268767D01*
X107426668Y-105952888D01*
X107303418Y-105655337D01*
X107124487Y-105387548D01*
X106896752Y-105159813D01*
X106628963Y-104980882D01*
X106331412Y-104857632D01*
X106015533Y-104794800D01*
X105693467Y-104794800D01*
X105377588Y-104857632D01*
X105080037Y-104980882D01*
X104812248Y-105159813D01*
X104584513Y-105387548D01*
X104405582Y-105655337D01*
X104282332Y-105952888D01*
X104219500Y-106268767D01*
X96660000Y-106268767D01*
X96660000Y-99725701D01*
X97215000Y-99725701D01*
X97215000Y-100274299D01*
X97322026Y-100812354D01*
X97531965Y-101319192D01*
X97836750Y-101775334D01*
X98224666Y-102163250D01*
X98680808Y-102468035D01*
X99187646Y-102677974D01*
X99725701Y-102785000D01*
X100274299Y-102785000D01*
X100812354Y-102677974D01*
X101319192Y-102468035D01*
X101775334Y-102163250D01*
X102163250Y-101775334D01*
X102468035Y-101319192D01*
X102677974Y-100812354D01*
X102785000Y-100274299D01*
X102785000Y-99725701D01*
X102677974Y-99187646D01*
X102613366Y-99031668D01*
X111347400Y-99031668D01*
X111347400Y-99393132D01*
X111417918Y-99747650D01*
X111556244Y-100081599D01*
X111757062Y-100382144D01*
X112012656Y-100637738D01*
X112047400Y-100660953D01*
X112047401Y-103068239D01*
X112041909Y-103124000D01*
X112063823Y-103346498D01*
X112128724Y-103560446D01*
X112177784Y-103652230D01*
X112234117Y-103757623D01*
X112375952Y-103930449D01*
X112419260Y-103965991D01*
X115998013Y-107544746D01*
X116033551Y-107588049D01*
X116076854Y-107623587D01*
X116076856Y-107623589D01*
X116206377Y-107729884D01*
X116403553Y-107835276D01*
X116617501Y-107900177D01*
X116783812Y-107916557D01*
X116840000Y-107922091D01*
X116895752Y-107916600D01*
X117149516Y-107916600D01*
X117351559Y-108051600D01*
X117119041Y-108206963D01*
X116919163Y-108406841D01*
X116762120Y-108641873D01*
X116653947Y-108903026D01*
X116598800Y-109180265D01*
X116598800Y-109462935D01*
X116653947Y-109740174D01*
X116762120Y-110001327D01*
X116919163Y-110236359D01*
X117117761Y-110434957D01*
X117109318Y-110435788D01*
X116989620Y-110472098D01*
X116879306Y-110531063D01*
X116782615Y-110610415D01*
X116703263Y-110707106D01*
X116644298Y-110817420D01*
X116607988Y-110937118D01*
X116595728Y-111061600D01*
X116595728Y-112661600D01*
X116607988Y-112786082D01*
X116644298Y-112905780D01*
X116703263Y-113016094D01*
X116782615Y-113112785D01*
X116879306Y-113192137D01*
X116989620Y-113251102D01*
X117109318Y-113287412D01*
X117233800Y-113299672D01*
X118833800Y-113299672D01*
X118958282Y-113287412D01*
X119077980Y-113251102D01*
X119188294Y-113192137D01*
X119284985Y-113112785D01*
X119364337Y-113016094D01*
X119423302Y-112905780D01*
X119459612Y-112786082D01*
X119471872Y-112661600D01*
X119471872Y-111061600D01*
X119459612Y-110937118D01*
X119423302Y-110817420D01*
X119364337Y-110707106D01*
X119284985Y-110610415D01*
X119188294Y-110531063D01*
X119077980Y-110472098D01*
X119026890Y-110456600D01*
X121897011Y-110456600D01*
X121970813Y-110567052D01*
X122198548Y-110794787D01*
X122466337Y-110973718D01*
X122763888Y-111096968D01*
X123079767Y-111159800D01*
X123401833Y-111159800D01*
X123717712Y-111096968D01*
X124015263Y-110973718D01*
X124283052Y-110794787D01*
X124510787Y-110567052D01*
X124689718Y-110299263D01*
X124812968Y-110001712D01*
X124875800Y-109685833D01*
X124875800Y-109363767D01*
X124812968Y-109047888D01*
X124689718Y-108750337D01*
X124510787Y-108482548D01*
X124283052Y-108254813D01*
X124015263Y-108075882D01*
X123717712Y-107952632D01*
X123401833Y-107889800D01*
X123079767Y-107889800D01*
X122763888Y-107952632D01*
X122466337Y-108075882D01*
X122300636Y-108186600D01*
X118918084Y-108186600D01*
X118716041Y-108051600D01*
X118948559Y-107896237D01*
X119148437Y-107696359D01*
X119305480Y-107461327D01*
X119413653Y-107200174D01*
X119468800Y-106922935D01*
X119468800Y-106660585D01*
X127492860Y-106660585D01*
X127492860Y-106943255D01*
X127548007Y-107220494D01*
X127656180Y-107481647D01*
X127813223Y-107716679D01*
X128013101Y-107916557D01*
X128248133Y-108073600D01*
X128509286Y-108181773D01*
X128786525Y-108236920D01*
X129069195Y-108236920D01*
X129346434Y-108181773D01*
X129607587Y-108073600D01*
X129812144Y-107936920D01*
X133055129Y-107936920D01*
X134329068Y-109210860D01*
X134329068Y-110043800D01*
X134341328Y-110168282D01*
X134377638Y-110287980D01*
X134436603Y-110398294D01*
X134515955Y-110494985D01*
X134612646Y-110574337D01*
X134722960Y-110633302D01*
X134732140Y-110636087D01*
X134732141Y-115908028D01*
X134644220Y-115934698D01*
X134533906Y-115993663D01*
X134437215Y-116073015D01*
X134357863Y-116169706D01*
X134298898Y-116280020D01*
X134262588Y-116399718D01*
X134250328Y-116524200D01*
X134250328Y-118324200D01*
X134262588Y-118448682D01*
X134298898Y-118568380D01*
X134357863Y-118678694D01*
X134437215Y-118775385D01*
X134533906Y-118854737D01*
X134644220Y-118913702D01*
X134653400Y-118916487D01*
X134653401Y-124901680D01*
X134565798Y-124910308D01*
X134446100Y-124946618D01*
X134335786Y-125005583D01*
X134239095Y-125084935D01*
X134159743Y-125181626D01*
X134100778Y-125291940D01*
X134064468Y-125411638D01*
X134052208Y-125536120D01*
X134052208Y-127336120D01*
X134064468Y-127460602D01*
X134100778Y-127580300D01*
X134159743Y-127690614D01*
X134239095Y-127787305D01*
X134335786Y-127866657D01*
X134446100Y-127925622D01*
X134565798Y-127961932D01*
X134690280Y-127974192D01*
X136490280Y-127974192D01*
X136614762Y-127961932D01*
X136734460Y-127925622D01*
X136844774Y-127866657D01*
X136941465Y-127787305D01*
X137020817Y-127690614D01*
X137079782Y-127580300D01*
X137085336Y-127561993D01*
X137151775Y-127628432D01*
X137403185Y-127796419D01*
X137682537Y-127912131D01*
X137979096Y-127971120D01*
X138281464Y-127971120D01*
X138578023Y-127912131D01*
X138857375Y-127796419D01*
X139108785Y-127628432D01*
X139166097Y-127571120D01*
X141533608Y-127571120D01*
X141548603Y-127599174D01*
X141627955Y-127695865D01*
X141724646Y-127775217D01*
X141834960Y-127834182D01*
X141954658Y-127870492D01*
X142079140Y-127882752D01*
X143879140Y-127882752D01*
X144003622Y-127870492D01*
X144123320Y-127834182D01*
X144233634Y-127775217D01*
X144330325Y-127695865D01*
X144409677Y-127599174D01*
X144468642Y-127488860D01*
X144471953Y-127477945D01*
X144518718Y-127524710D01*
X144634666Y-127408762D01*
X144718348Y-127662941D01*
X144990915Y-127793838D01*
X145283782Y-127869045D01*
X145585693Y-127885671D01*
X145885047Y-127843077D01*
X146170339Y-127742902D01*
X146319932Y-127662941D01*
X146403615Y-127408760D01*
X145519140Y-126524285D01*
X145504998Y-126538428D01*
X145325393Y-126358823D01*
X145339535Y-126344680D01*
X145698745Y-126344680D01*
X146583220Y-127229155D01*
X146837401Y-127145472D01*
X146968298Y-126872905D01*
X147043505Y-126580038D01*
X147060131Y-126278127D01*
X147017537Y-125978773D01*
X146917362Y-125693481D01*
X146837401Y-125543888D01*
X146583220Y-125460205D01*
X145698745Y-126344680D01*
X145339535Y-126344680D01*
X145325393Y-126330538D01*
X145504998Y-126150933D01*
X145519140Y-126165075D01*
X146403615Y-125280600D01*
X146319932Y-125026419D01*
X146047365Y-124895522D01*
X145754498Y-124820315D01*
X145452587Y-124803689D01*
X145153233Y-124846283D01*
X144867941Y-124946458D01*
X144718348Y-125026419D01*
X144634666Y-125280598D01*
X144518718Y-125164650D01*
X144471953Y-125211415D01*
X144468642Y-125200500D01*
X144409677Y-125090186D01*
X144330325Y-124993495D01*
X144233634Y-124914143D01*
X144123320Y-124855178D01*
X144003622Y-124818868D01*
X143879140Y-124806608D01*
X142079140Y-124806608D01*
X141954658Y-124818868D01*
X141834960Y-124855178D01*
X141724646Y-124914143D01*
X141627955Y-124993495D01*
X141548603Y-125090186D01*
X141489638Y-125200500D01*
X141459115Y-125301120D01*
X139166097Y-125301120D01*
X139108785Y-125243808D01*
X138857375Y-125075821D01*
X138578023Y-124960109D01*
X138281464Y-124901120D01*
X137979096Y-124901120D01*
X137682537Y-124960109D01*
X137403185Y-125075821D01*
X137151775Y-125243808D01*
X137085336Y-125310247D01*
X137079782Y-125291940D01*
X137020817Y-125181626D01*
X136941465Y-125084935D01*
X136923400Y-125070109D01*
X136923400Y-118916487D01*
X136932580Y-118913702D01*
X137042894Y-118854737D01*
X137139585Y-118775385D01*
X137218937Y-118678694D01*
X137277902Y-118568380D01*
X137283456Y-118550073D01*
X137349895Y-118616512D01*
X137601305Y-118784499D01*
X137880657Y-118900211D01*
X138177216Y-118959200D01*
X138479584Y-118959200D01*
X138776143Y-118900211D01*
X139055495Y-118784499D01*
X139274836Y-118637940D01*
X141512253Y-118637940D01*
X141515038Y-118647120D01*
X141574003Y-118757434D01*
X141653355Y-118854125D01*
X141750046Y-118933477D01*
X141860360Y-118992442D01*
X141980058Y-119028752D01*
X142104540Y-119041012D01*
X143904540Y-119041012D01*
X144029022Y-119028752D01*
X144148720Y-118992442D01*
X144259034Y-118933477D01*
X144355725Y-118854125D01*
X144435077Y-118757434D01*
X144494042Y-118647120D01*
X144497353Y-118636205D01*
X144544118Y-118682970D01*
X144660066Y-118567022D01*
X144743748Y-118821201D01*
X145016315Y-118952098D01*
X145309182Y-119027305D01*
X145611093Y-119043931D01*
X145910447Y-119001337D01*
X146195739Y-118901162D01*
X146345332Y-118821201D01*
X146429015Y-118567020D01*
X145544540Y-117682545D01*
X145530398Y-117696688D01*
X145350793Y-117517083D01*
X145364935Y-117502940D01*
X145724145Y-117502940D01*
X146608620Y-118387415D01*
X146862801Y-118303732D01*
X146993698Y-118031165D01*
X147068905Y-117738298D01*
X147085531Y-117436387D01*
X147042937Y-117137033D01*
X146942762Y-116851741D01*
X146862801Y-116702148D01*
X146608620Y-116618465D01*
X145724145Y-117502940D01*
X145364935Y-117502940D01*
X145350793Y-117488798D01*
X145530398Y-117309193D01*
X145544540Y-117323335D01*
X146429015Y-116438860D01*
X146345332Y-116184679D01*
X146072765Y-116053782D01*
X145779898Y-115978575D01*
X145477987Y-115961949D01*
X145178633Y-116004543D01*
X144893341Y-116104718D01*
X144743748Y-116184679D01*
X144660066Y-116438858D01*
X144544118Y-116322910D01*
X144497353Y-116369675D01*
X144494042Y-116358760D01*
X144435077Y-116248446D01*
X144355725Y-116151755D01*
X144259034Y-116072403D01*
X144148720Y-116013438D01*
X144029022Y-115977128D01*
X143904540Y-115964868D01*
X142104540Y-115964868D01*
X141980058Y-115977128D01*
X141860360Y-116013438D01*
X141750046Y-116072403D01*
X141653355Y-116151755D01*
X141574003Y-116248446D01*
X141515038Y-116358760D01*
X141512253Y-116367940D01*
X139442957Y-116367940D01*
X139306905Y-116231888D01*
X139055495Y-116063901D01*
X138776143Y-115948189D01*
X138479584Y-115889200D01*
X138177216Y-115889200D01*
X137880657Y-115948189D01*
X137601305Y-116063901D01*
X137349895Y-116231888D01*
X137283456Y-116298327D01*
X137277902Y-116280020D01*
X137218937Y-116169706D01*
X137139585Y-116073015D01*
X137042894Y-115993663D01*
X137002140Y-115971879D01*
X137002140Y-110636087D01*
X137011320Y-110633302D01*
X137121634Y-110574337D01*
X137218325Y-110494985D01*
X137297677Y-110398294D01*
X137356642Y-110287980D01*
X137362196Y-110269673D01*
X137428635Y-110336112D01*
X137680045Y-110504099D01*
X137959397Y-110619811D01*
X138255956Y-110678800D01*
X138558324Y-110678800D01*
X138854883Y-110619811D01*
X139134235Y-110504099D01*
X139385645Y-110336112D01*
X139442957Y-110278800D01*
X141831092Y-110278800D01*
X141883932Y-110377655D01*
X141963284Y-110474346D01*
X142059975Y-110553698D01*
X142170289Y-110612663D01*
X142289987Y-110648973D01*
X142414469Y-110661233D01*
X144214469Y-110661233D01*
X144338951Y-110648973D01*
X144458649Y-110612663D01*
X144568963Y-110553698D01*
X144665654Y-110474346D01*
X144745006Y-110377655D01*
X144803971Y-110267341D01*
X144807282Y-110256426D01*
X144854047Y-110303191D01*
X144969995Y-110187243D01*
X145053677Y-110441422D01*
X145326244Y-110572319D01*
X145619111Y-110647526D01*
X145921022Y-110664152D01*
X146220376Y-110621558D01*
X146505668Y-110521383D01*
X146655261Y-110441422D01*
X146738944Y-110187241D01*
X145854469Y-109302766D01*
X145840327Y-109316909D01*
X145660722Y-109137304D01*
X145674864Y-109123161D01*
X146034074Y-109123161D01*
X146918549Y-110007636D01*
X147172730Y-109923953D01*
X147303627Y-109651386D01*
X147378834Y-109358519D01*
X147395460Y-109056608D01*
X147352866Y-108757254D01*
X147252691Y-108471962D01*
X147172730Y-108322369D01*
X146918549Y-108238686D01*
X146034074Y-109123161D01*
X145674864Y-109123161D01*
X145660722Y-109109019D01*
X145840327Y-108929414D01*
X145854469Y-108943556D01*
X146738944Y-108059081D01*
X146655261Y-107804900D01*
X146382694Y-107674003D01*
X146089827Y-107598796D01*
X145787916Y-107582170D01*
X145488562Y-107624764D01*
X145203270Y-107724939D01*
X145053677Y-107804900D01*
X144969995Y-108059079D01*
X144854047Y-107943131D01*
X144807282Y-107989896D01*
X144803971Y-107978981D01*
X144745006Y-107868667D01*
X144665654Y-107771976D01*
X144568963Y-107692624D01*
X144458649Y-107633659D01*
X144338951Y-107597349D01*
X144214469Y-107585089D01*
X142414469Y-107585089D01*
X142289987Y-107597349D01*
X142170289Y-107633659D01*
X142059975Y-107692624D01*
X141963284Y-107771976D01*
X141883932Y-107868667D01*
X141824967Y-107978981D01*
X141815922Y-108008800D01*
X139442957Y-108008800D01*
X139385645Y-107951488D01*
X139134235Y-107783501D01*
X138854883Y-107667789D01*
X138558324Y-107608800D01*
X138255956Y-107608800D01*
X137959397Y-107667789D01*
X137680045Y-107783501D01*
X137428635Y-107951488D01*
X137362196Y-108017927D01*
X137356642Y-107999620D01*
X137297677Y-107889306D01*
X137218325Y-107792615D01*
X137121634Y-107713263D01*
X137011320Y-107654298D01*
X136891622Y-107617988D01*
X136767140Y-107605728D01*
X135934200Y-107605728D01*
X134367256Y-106038785D01*
X134331709Y-105995471D01*
X134158883Y-105853636D01*
X133961707Y-105748244D01*
X133747759Y-105683343D01*
X133581012Y-105666920D01*
X133581011Y-105666920D01*
X133525260Y-105661429D01*
X133469509Y-105666920D01*
X129812144Y-105666920D01*
X129607587Y-105530240D01*
X129346434Y-105422067D01*
X129069195Y-105366920D01*
X128786525Y-105366920D01*
X128509286Y-105422067D01*
X128248133Y-105530240D01*
X128013101Y-105687283D01*
X127813223Y-105887161D01*
X127656180Y-106122193D01*
X127548007Y-106383346D01*
X127492860Y-106660585D01*
X119468800Y-106660585D01*
X119468800Y-106640265D01*
X119413653Y-106363026D01*
X119305480Y-106101873D01*
X119148437Y-105866841D01*
X118948559Y-105666963D01*
X118937839Y-105659800D01*
X122063561Y-105659800D01*
X122198548Y-105794787D01*
X122466337Y-105973718D01*
X122763888Y-106096968D01*
X123079767Y-106159800D01*
X123401833Y-106159800D01*
X123717712Y-106096968D01*
X124015263Y-105973718D01*
X124283052Y-105794787D01*
X124510787Y-105567052D01*
X124689718Y-105299263D01*
X124812968Y-105001712D01*
X124875800Y-104685833D01*
X124875800Y-104363767D01*
X124812968Y-104047888D01*
X124689718Y-103750337D01*
X124510787Y-103482548D01*
X124283052Y-103254813D01*
X124015263Y-103075882D01*
X123717712Y-102952632D01*
X123401833Y-102889800D01*
X123079767Y-102889800D01*
X122763888Y-102952632D01*
X122466337Y-103075882D01*
X122198548Y-103254813D01*
X122063561Y-103389800D01*
X119190505Y-103389800D01*
X119148437Y-103326841D01*
X118948559Y-103126963D01*
X118713527Y-102969920D01*
X118452374Y-102861747D01*
X118175135Y-102806600D01*
X117892465Y-102806600D01*
X117615226Y-102861747D01*
X117354073Y-102969920D01*
X117119041Y-103126963D01*
X116919163Y-103326841D01*
X116762120Y-103561873D01*
X116653947Y-103823026D01*
X116598800Y-104100265D01*
X116598800Y-104382935D01*
X116653947Y-104660174D01*
X116762120Y-104921327D01*
X116919163Y-105156359D01*
X117119041Y-105356237D01*
X117351559Y-105511600D01*
X117245799Y-105582266D01*
X114317400Y-102653869D01*
X114317400Y-100660953D01*
X114352144Y-100637738D01*
X114499502Y-100490380D01*
X132404026Y-100490380D01*
X132523914Y-100775236D01*
X132847610Y-100936099D01*
X133196469Y-101030722D01*
X133557084Y-101055467D01*
X133915598Y-101009385D01*
X134258233Y-100894246D01*
X134480886Y-100775236D01*
X134600774Y-100490380D01*
X133502400Y-99392005D01*
X132404026Y-100490380D01*
X114499502Y-100490380D01*
X114607738Y-100382144D01*
X114808556Y-100081599D01*
X114946882Y-99747650D01*
X115017400Y-99393132D01*
X115017400Y-99267084D01*
X131659333Y-99267084D01*
X131705415Y-99625598D01*
X131820554Y-99968233D01*
X131939564Y-100190886D01*
X132224420Y-100310774D01*
X133322795Y-99212400D01*
X133682005Y-99212400D01*
X134780380Y-100310774D01*
X135065236Y-100190886D01*
X135226099Y-99867190D01*
X135264475Y-99725701D01*
X141215000Y-99725701D01*
X141215000Y-100274299D01*
X141322026Y-100812354D01*
X141531965Y-101319192D01*
X141836750Y-101775334D01*
X142224666Y-102163250D01*
X142680808Y-102468035D01*
X143187646Y-102677974D01*
X143725701Y-102785000D01*
X144274299Y-102785000D01*
X144812354Y-102677974D01*
X145319192Y-102468035D01*
X145775334Y-102163250D01*
X146163250Y-101775334D01*
X146468035Y-101319192D01*
X146677974Y-100812354D01*
X146785000Y-100274299D01*
X146785000Y-99725701D01*
X146677974Y-99187646D01*
X146468035Y-98680808D01*
X146163250Y-98224666D01*
X145775334Y-97836750D01*
X145319192Y-97531965D01*
X144812354Y-97322026D01*
X144274299Y-97215000D01*
X143725701Y-97215000D01*
X143187646Y-97322026D01*
X142680808Y-97531965D01*
X142224666Y-97836750D01*
X141836750Y-98224666D01*
X141531965Y-98680808D01*
X141322026Y-99187646D01*
X141215000Y-99725701D01*
X135264475Y-99725701D01*
X135320722Y-99518331D01*
X135345467Y-99157716D01*
X135299385Y-98799202D01*
X135184246Y-98456567D01*
X135065236Y-98233914D01*
X134780380Y-98114026D01*
X133682005Y-99212400D01*
X133322795Y-99212400D01*
X132224420Y-98114026D01*
X131939564Y-98233914D01*
X131778701Y-98557610D01*
X131684078Y-98906469D01*
X131659333Y-99267084D01*
X115017400Y-99267084D01*
X115017400Y-99031668D01*
X114946882Y-98677150D01*
X114808556Y-98343201D01*
X114607738Y-98042656D01*
X114499502Y-97934420D01*
X132404026Y-97934420D01*
X133502400Y-99032795D01*
X134600774Y-97934420D01*
X134480886Y-97649564D01*
X134157190Y-97488701D01*
X133808331Y-97394078D01*
X133447716Y-97369333D01*
X133089202Y-97415415D01*
X132746567Y-97530554D01*
X132523914Y-97649564D01*
X132404026Y-97934420D01*
X114499502Y-97934420D01*
X114352144Y-97787062D01*
X114051599Y-97586244D01*
X113717650Y-97447918D01*
X113363132Y-97377400D01*
X113001668Y-97377400D01*
X112647150Y-97447918D01*
X112313201Y-97586244D01*
X112012656Y-97787062D01*
X111757062Y-98042656D01*
X111556244Y-98343201D01*
X111417918Y-98677150D01*
X111347400Y-99031668D01*
X102613366Y-99031668D01*
X102468035Y-98680808D01*
X102163250Y-98224666D01*
X101775334Y-97836750D01*
X101319192Y-97531965D01*
X100812354Y-97322026D01*
X100274299Y-97215000D01*
X99725701Y-97215000D01*
X99187646Y-97322026D01*
X98680808Y-97531965D01*
X98224666Y-97836750D01*
X97836750Y-98224666D01*
X97531965Y-98680808D01*
X97322026Y-99187646D01*
X97215000Y-99725701D01*
X96660000Y-99725701D01*
X96660000Y-95660000D01*
X149340000Y-95660000D01*
X149340001Y-162340000D01*
G37*
%TD.AperFunction*%
%TD*%
M02*
