%TF.GenerationSoftware,KiCad,Pcbnew,(5.1.10)-1*%
%TF.CreationDate,2021-11-22T13:12:16+02:00*%
%TF.ProjectId,25-station-led-alarm,32352d73-7461-4746-996f-6e2d6c65642d,rev?*%
%TF.SameCoordinates,Original*%
%TF.FileFunction,Soldermask,Top*%
%TF.FilePolarity,Negative*%
%FSLAX46Y46*%
G04 Gerber Fmt 4.6, Leading zero omitted, Abs format (unit mm)*
G04 Created by KiCad (PCBNEW (5.1.10)-1) date 2021-11-22 13:12:16*
%MOMM*%
%LPD*%
G01*
G04 APERTURE LIST*
%ADD10C,1.600000*%
%ADD11O,1.600000X1.600000*%
%ADD12O,1.700000X1.700000*%
%ADD13R,1.700000X1.700000*%
%ADD14R,2.400000X2.400000*%
%ADD15O,2.400000X2.400000*%
%ADD16R,1.800000X1.800000*%
%ADD17C,1.800000*%
%ADD18C,2.000000*%
%ADD19C,4.300000*%
%ADD20C,1.400000*%
%ADD21O,1.400000X1.400000*%
%ADD22C,2.400000*%
%ADD23R,1.600000X1.600000*%
%ADD24R,1.300000X1.300000*%
%ADD25C,1.300000*%
G04 APERTURE END LIST*
D10*
%TO.C,R4*%
X126507240Y-135346440D03*
D11*
X126507240Y-148046440D03*
%TD*%
D12*
%TO.C,buzzer1*%
X100355400Y-118948200D03*
D13*
X100355400Y-116408200D03*
%TD*%
%TO.C,J2*%
X100467160Y-130421380D03*
D12*
X100467160Y-127881380D03*
X100467160Y-125341380D03*
%TD*%
D13*
%TO.C,J1*%
X100606860Y-136169400D03*
D12*
X100606860Y-138709400D03*
X100606860Y-141249400D03*
X100606860Y-143789400D03*
%TD*%
D14*
%TO.C,D13*%
X122809000Y-121767600D03*
D15*
X110109000Y-121767600D03*
%TD*%
D11*
%TO.C,R5*%
X106000000Y-135300000D03*
D10*
X106000000Y-148000000D03*
%TD*%
%TO.C,R2*%
X121335800Y-135242300D03*
D11*
X121335800Y-150482300D03*
%TD*%
%TO.C,R7*%
X116243100Y-149199600D03*
D10*
X116243100Y-133959600D03*
%TD*%
%TO.C,C3*%
X104648000Y-131546600D03*
X104648000Y-124046600D03*
%TD*%
D16*
%TO.C,D1*%
X143441420Y-134630160D03*
D17*
X145981420Y-134630160D03*
%TD*%
D16*
%TO.C,D2*%
X137690860Y-134635240D03*
D17*
X140230860Y-134635240D03*
%TD*%
%TO.C,D3*%
X146083020Y-141450060D03*
D16*
X143543020Y-141450060D03*
%TD*%
%TO.C,D4*%
X143845280Y-148285200D03*
D17*
X146385280Y-148285200D03*
%TD*%
%TO.C,D5*%
X145854469Y-109123161D03*
D16*
X143314469Y-109123161D03*
%TD*%
%TO.C,D6*%
X142979140Y-126344680D03*
D17*
X145519140Y-126344680D03*
%TD*%
%TO.C,D7*%
X145544540Y-117502940D03*
D16*
X143004540Y-117502940D03*
%TD*%
%TO.C,D8*%
X135867140Y-109143800D03*
D17*
X138407140Y-109143800D03*
%TD*%
D16*
%TO.C,D9*%
X137835640Y-141465300D03*
D17*
X140375640Y-141465300D03*
%TD*%
%TO.C,D10*%
X140632180Y-148206460D03*
D16*
X138092180Y-148206460D03*
%TD*%
D17*
%TO.C,D11*%
X138130280Y-126436120D03*
D16*
X135590280Y-126436120D03*
%TD*%
%TO.C,D12*%
X135788400Y-117424200D03*
D17*
X138328400Y-117424200D03*
%TD*%
D10*
%TO.C,R3*%
X128927860Y-106801920D03*
D11*
X128927860Y-119501920D03*
%TD*%
%TO.C,R6*%
X133276340Y-134901940D03*
D10*
X133276340Y-147601940D03*
%TD*%
D18*
%TO.C,C1*%
X105854500Y-111429800D03*
X105854500Y-106429800D03*
%TD*%
%TO.C,C2*%
X123240800Y-104524800D03*
X123240800Y-109524800D03*
%TD*%
D14*
%TO.C,D14*%
X110515400Y-116281200D03*
D15*
X123215400Y-116281200D03*
%TD*%
D19*
%TO.C,H1*%
X144000000Y-158000000D03*
%TD*%
%TO.C,H2*%
X100000000Y-100000000D03*
%TD*%
%TO.C,H3*%
X144000000Y-100000000D03*
%TD*%
%TO.C,H4*%
X100000000Y-158000000D03*
%TD*%
D20*
%TO.C,R1*%
X111975900Y-133870700D03*
D21*
X111975900Y-126250700D03*
%TD*%
D22*
%TO.C,R8*%
X133502400Y-99212400D03*
D15*
X113182400Y-99212400D03*
%TD*%
D23*
%TO.C,U1*%
X118033800Y-111861600D03*
D11*
X110413800Y-104241600D03*
X118033800Y-109321600D03*
X110413800Y-106781600D03*
X118033800Y-106781600D03*
X110413800Y-109321600D03*
X118033800Y-104241600D03*
X110413800Y-111861600D03*
%TD*%
D24*
%TO.C,Q1*%
X129692400Y-131973320D03*
D25*
X129692400Y-129433320D03*
X128422400Y-130703320D03*
%TD*%
%TO.C,Q2*%
X128402080Y-124348240D03*
X129672080Y-123078240D03*
D24*
X129672080Y-125618240D03*
%TD*%
D25*
%TO.C,Q3*%
X116834920Y-129148840D03*
X118104920Y-127878840D03*
D24*
X118104920Y-130418840D03*
%TD*%
%TO.C,Q4*%
X124028200Y-130403600D03*
D25*
X124028200Y-127863600D03*
X122758200Y-129133600D03*
%TD*%
M02*
