%TF.GenerationSoftware,KiCad,Pcbnew,(5.1.10)-1*%
%TF.CreationDate,2021-11-22T13:12:16+02:00*%
%TF.ProjectId,25-station-led-alarm,32352d73-7461-4746-996f-6e2d6c65642d,rev?*%
%TF.SameCoordinates,Original*%
%TF.FileFunction,Copper,L1,Top*%
%TF.FilePolarity,Positive*%
%FSLAX46Y46*%
G04 Gerber Fmt 4.6, Leading zero omitted, Abs format (unit mm)*
G04 Created by KiCad (PCBNEW (5.1.10)-1) date 2021-11-22 13:12:16*
%MOMM*%
%LPD*%
G01*
G04 APERTURE LIST*
%TA.AperFunction,ComponentPad*%
%ADD10C,1.600000*%
%TD*%
%TA.AperFunction,ComponentPad*%
%ADD11O,1.600000X1.600000*%
%TD*%
%TA.AperFunction,ComponentPad*%
%ADD12O,1.700000X1.700000*%
%TD*%
%TA.AperFunction,ComponentPad*%
%ADD13R,1.700000X1.700000*%
%TD*%
%TA.AperFunction,ComponentPad*%
%ADD14R,2.400000X2.400000*%
%TD*%
%TA.AperFunction,ComponentPad*%
%ADD15O,2.400000X2.400000*%
%TD*%
%TA.AperFunction,ComponentPad*%
%ADD16R,1.800000X1.800000*%
%TD*%
%TA.AperFunction,ComponentPad*%
%ADD17C,1.800000*%
%TD*%
%TA.AperFunction,ComponentPad*%
%ADD18C,2.000000*%
%TD*%
%TA.AperFunction,ComponentPad*%
%ADD19C,1.400000*%
%TD*%
%TA.AperFunction,ComponentPad*%
%ADD20O,1.400000X1.400000*%
%TD*%
%TA.AperFunction,ComponentPad*%
%ADD21C,2.400000*%
%TD*%
%TA.AperFunction,ComponentPad*%
%ADD22R,1.600000X1.600000*%
%TD*%
%TA.AperFunction,ComponentPad*%
%ADD23R,1.300000X1.300000*%
%TD*%
%TA.AperFunction,ComponentPad*%
%ADD24C,1.300000*%
%TD*%
%TA.AperFunction,Conductor*%
%ADD25C,1.000000*%
%TD*%
%TA.AperFunction,Conductor*%
%ADD26C,0.254000*%
%TD*%
%TA.AperFunction,Conductor*%
%ADD27C,0.100000*%
%TD*%
G04 APERTURE END LIST*
D10*
%TO.P,R4,1*%
%TO.N,Net-(Q1-Pad2)*%
X126507240Y-135346440D03*
D11*
%TO.P,R4,2*%
%TO.N,/P1*%
X126507240Y-148046440D03*
%TD*%
D12*
%TO.P,buzzer1,2*%
%TO.N,Net-(D13-Pad2)*%
X100355400Y-118948200D03*
D13*
%TO.P,buzzer1,1*%
%TO.N,+10V*%
X100355400Y-116408200D03*
%TD*%
%TO.P,J2,1*%
%TO.N,GND*%
X100467160Y-130421380D03*
D12*
%TO.P,J2,2*%
%TO.N,Net-(J2-Pad2)*%
X100467160Y-127881380D03*
%TO.P,J2,3*%
%TO.N,+5V*%
X100467160Y-125341380D03*
%TD*%
D13*
%TO.P,J1,1*%
%TO.N,GND*%
X100606860Y-136169400D03*
D12*
%TO.P,J1,2*%
%TO.N,/P2*%
X100606860Y-138709400D03*
%TO.P,J1,3*%
%TO.N,/P1*%
X100606860Y-141249400D03*
%TO.P,J1,4*%
%TO.N,Net-(J1-Pad4)*%
X100606860Y-143789400D03*
%TD*%
D14*
%TO.P,D13,1*%
%TO.N,+10V*%
X122809000Y-121767600D03*
D15*
%TO.P,D13,2*%
%TO.N,Net-(D13-Pad2)*%
X110109000Y-121767600D03*
%TD*%
D11*
%TO.P,R5,2*%
%TO.N,/P2*%
X106000000Y-135300000D03*
D10*
%TO.P,R5,1*%
%TO.N,Net-(Q2-Pad2)*%
X106000000Y-148000000D03*
%TD*%
%TO.P,R2,1*%
%TO.N,Net-(Q1-Pad2)*%
X121335800Y-135242300D03*
D11*
%TO.P,R2,2*%
%TO.N,GND*%
X121335800Y-150482300D03*
%TD*%
%TO.P,R7,2*%
%TO.N,GND*%
X116243100Y-149199600D03*
D10*
%TO.P,R7,1*%
%TO.N,Net-(Q2-Pad2)*%
X116243100Y-133959600D03*
%TD*%
%TO.P,C3,1*%
%TO.N,GND*%
X104648000Y-131546600D03*
%TO.P,C3,2*%
%TO.N,+5V*%
X104648000Y-124046600D03*
%TD*%
D16*
%TO.P,D1,1*%
%TO.N,Net-(D1-Pad1)*%
X143441420Y-134630160D03*
D17*
%TO.P,D1,2*%
%TO.N,+5V*%
X145981420Y-134630160D03*
%TD*%
D16*
%TO.P,D2,1*%
%TO.N,Net-(D10-Pad1)*%
X137690860Y-134635240D03*
D17*
%TO.P,D2,2*%
%TO.N,Net-(D1-Pad1)*%
X140230860Y-134635240D03*
%TD*%
%TO.P,D3,2*%
%TO.N,+5V*%
X146083020Y-141450060D03*
D16*
%TO.P,D3,1*%
%TO.N,Net-(D3-Pad1)*%
X143543020Y-141450060D03*
%TD*%
%TO.P,D4,1*%
%TO.N,Net-(D10-Pad2)*%
X143845280Y-148285200D03*
D17*
%TO.P,D4,2*%
%TO.N,+5V*%
X146385280Y-148285200D03*
%TD*%
%TO.P,D5,2*%
%TO.N,+5V*%
X145854469Y-109123161D03*
D16*
%TO.P,D5,1*%
%TO.N,Net-(D5-Pad1)*%
X143314469Y-109123161D03*
%TD*%
%TO.P,D6,1*%
%TO.N,Net-(D11-Pad2)*%
X142979140Y-126344680D03*
D17*
%TO.P,D6,2*%
%TO.N,+5V*%
X145519140Y-126344680D03*
%TD*%
%TO.P,D7,2*%
%TO.N,+5V*%
X145544540Y-117502940D03*
D16*
%TO.P,D7,1*%
%TO.N,Net-(D12-Pad2)*%
X143004540Y-117502940D03*
%TD*%
%TO.P,D8,1*%
%TO.N,Net-(D11-Pad1)*%
X135867140Y-109143800D03*
D17*
%TO.P,D8,2*%
%TO.N,Net-(D5-Pad1)*%
X138407140Y-109143800D03*
%TD*%
D16*
%TO.P,D9,1*%
%TO.N,Net-(D10-Pad1)*%
X137835640Y-141465300D03*
D17*
%TO.P,D9,2*%
%TO.N,Net-(D3-Pad1)*%
X140375640Y-141465300D03*
%TD*%
%TO.P,D10,2*%
%TO.N,Net-(D10-Pad2)*%
X140632180Y-148206460D03*
D16*
%TO.P,D10,1*%
%TO.N,Net-(D10-Pad1)*%
X138092180Y-148206460D03*
%TD*%
D17*
%TO.P,D11,2*%
%TO.N,Net-(D11-Pad2)*%
X138130280Y-126436120D03*
D16*
%TO.P,D11,1*%
%TO.N,Net-(D11-Pad1)*%
X135590280Y-126436120D03*
%TD*%
%TO.P,D12,1*%
%TO.N,Net-(D11-Pad1)*%
X135788400Y-117424200D03*
D17*
%TO.P,D12,2*%
%TO.N,Net-(D12-Pad2)*%
X138328400Y-117424200D03*
%TD*%
D10*
%TO.P,R3,1*%
%TO.N,Net-(D11-Pad1)*%
X128927860Y-106801920D03*
D11*
%TO.P,R3,2*%
%TO.N,Net-(Q2-Pad3)*%
X128927860Y-119501920D03*
%TD*%
%TO.P,R6,2*%
%TO.N,Net-(Q1-Pad3)*%
X133276340Y-134901940D03*
D10*
%TO.P,R6,1*%
%TO.N,Net-(D10-Pad1)*%
X133276340Y-147601940D03*
%TD*%
D18*
%TO.P,C1,1*%
%TO.N,+10V*%
X105854500Y-111429800D03*
%TO.P,C1,2*%
%TO.N,GND*%
X105854500Y-106429800D03*
%TD*%
%TO.P,C2,2*%
%TO.N,Net-(C2-Pad2)*%
X123240800Y-104524800D03*
%TO.P,C2,1*%
%TO.N,Net-(C2-Pad1)*%
X123240800Y-109524800D03*
%TD*%
D14*
%TO.P,D14,1*%
%TO.N,+10V*%
X110515400Y-116281200D03*
D15*
%TO.P,D14,2*%
%TO.N,+5V*%
X123215400Y-116281200D03*
%TD*%
D19*
%TO.P,R1,1*%
%TO.N,GND*%
X111975900Y-133870700D03*
D20*
%TO.P,R1,2*%
%TO.N,Net-(R1-Pad2)*%
X111975900Y-126250700D03*
%TD*%
D21*
%TO.P,R8,1*%
%TO.N,+5V*%
X133502400Y-99212400D03*
D15*
%TO.P,R8,2*%
%TO.N,Net-(R8-Pad2)*%
X113182400Y-99212400D03*
%TD*%
D22*
%TO.P,U1,1*%
%TO.N,Net-(U1-Pad1)*%
X118033800Y-111861600D03*
D11*
%TO.P,U1,5*%
%TO.N,GND*%
X110413800Y-104241600D03*
%TO.P,U1,2*%
%TO.N,Net-(C2-Pad1)*%
X118033800Y-109321600D03*
%TO.P,U1,6*%
%TO.N,Net-(R1-Pad2)*%
X110413800Y-106781600D03*
%TO.P,U1,3*%
%TO.N,Net-(R8-Pad2)*%
X118033800Y-106781600D03*
%TO.P,U1,7*%
%TO.N,Net-(U1-Pad7)*%
X110413800Y-109321600D03*
%TO.P,U1,4*%
%TO.N,Net-(C2-Pad2)*%
X118033800Y-104241600D03*
%TO.P,U1,8*%
%TO.N,+10V*%
X110413800Y-111861600D03*
%TD*%
D23*
%TO.P,Q1,1*%
%TO.N,GND*%
X129692400Y-131973320D03*
D24*
%TO.P,Q1,3*%
%TO.N,Net-(Q1-Pad3)*%
X129692400Y-129433320D03*
%TO.P,Q1,2*%
%TO.N,Net-(Q1-Pad2)*%
X128422400Y-130703320D03*
%TD*%
%TO.P,Q2,2*%
%TO.N,Net-(Q2-Pad2)*%
X128402080Y-124348240D03*
%TO.P,Q2,3*%
%TO.N,Net-(Q2-Pad3)*%
X129672080Y-123078240D03*
D23*
%TO.P,Q2,1*%
%TO.N,GND*%
X129672080Y-125618240D03*
%TD*%
D24*
%TO.P,Q3,2*%
%TO.N,Net-(Q2-Pad2)*%
X116834920Y-129148840D03*
%TO.P,Q3,3*%
%TO.N,Net-(D13-Pad2)*%
X118104920Y-127878840D03*
D23*
%TO.P,Q3,1*%
%TO.N,GND*%
X118104920Y-130418840D03*
%TD*%
%TO.P,Q4,1*%
%TO.N,GND*%
X124028200Y-130403600D03*
D24*
%TO.P,Q4,3*%
%TO.N,Net-(D13-Pad2)*%
X124028200Y-127863600D03*
%TO.P,Q4,2*%
%TO.N,Net-(Q1-Pad2)*%
X122758200Y-129133600D03*
%TD*%
D25*
%TO.N,+5V*%
X104648000Y-126573280D02*
X104648000Y-124046600D01*
X107934760Y-129860040D02*
X104648000Y-126573280D01*
X118224300Y-122836940D02*
X111201200Y-129860040D01*
X111201200Y-129860040D02*
X107934760Y-129860040D01*
X118224300Y-118376700D02*
X118224300Y-122836940D01*
X120319800Y-116281200D02*
X118224300Y-118376700D01*
X123215400Y-116281200D02*
X120319800Y-116281200D01*
%TO.N,GND*%
X111975900Y-144932400D02*
X116243100Y-149199600D01*
X111975900Y-133870700D02*
X111975900Y-144932400D01*
X129612399Y-132053321D02*
X129692400Y-131973320D01*
X125677921Y-132053321D02*
X129612399Y-132053321D01*
X124028200Y-130403600D02*
X125677921Y-132053321D01*
X131886960Y-129778760D02*
X129692400Y-131973320D01*
X131886960Y-127833120D02*
X131886960Y-129778760D01*
X129672080Y-125618240D02*
X131886960Y-127833120D01*
X119603520Y-131917440D02*
X118104920Y-130418840D01*
X122514360Y-131917440D02*
X119603520Y-131917440D01*
X124028200Y-130403600D02*
X122514360Y-131917440D01*
X119739401Y-132053321D02*
X119603520Y-131917440D01*
X129150402Y-131973320D02*
X129070401Y-132053321D01*
X129692400Y-131973320D02*
X129150402Y-131973320D01*
X124028200Y-130403600D02*
X124028200Y-131607560D01*
X124028200Y-131607560D02*
X123582439Y-132053321D01*
X123582439Y-132053321D02*
X119739401Y-132053321D01*
X129070401Y-132053321D02*
X123582439Y-132053321D01*
%TO.N,Net-(Q2-Pad2)*%
X119014240Y-124348240D02*
X128402080Y-124348240D01*
X116184921Y-128498841D02*
X116184921Y-127177559D01*
X116184921Y-127177559D02*
X119014240Y-124348240D01*
X116834920Y-129148840D02*
X116184921Y-128498841D01*
%TO.N,Net-(R1-Pad2)*%
X115366800Y-110096300D02*
X115366800Y-122859800D01*
X115366800Y-122859800D02*
X111975900Y-126250700D01*
X112052100Y-106781600D02*
X115366800Y-110096300D01*
X110413800Y-106781600D02*
X112052100Y-106781600D01*
%TD*%
D26*
%TO.N,GND*%
X149340001Y-162340000D02*
X96660000Y-162340000D01*
X96660000Y-159954208D01*
X98225397Y-159954208D01*
X98459537Y-160336330D01*
X98944932Y-160591967D01*
X99470873Y-160747997D01*
X100017148Y-160798422D01*
X100562764Y-160741306D01*
X101086752Y-160578842D01*
X101540463Y-160336330D01*
X101774603Y-159954208D01*
X142225397Y-159954208D01*
X142459537Y-160336330D01*
X142944932Y-160591967D01*
X143470873Y-160747997D01*
X144017148Y-160798422D01*
X144562764Y-160741306D01*
X145086752Y-160578842D01*
X145540463Y-160336330D01*
X145774603Y-159954208D01*
X144000000Y-158179605D01*
X142225397Y-159954208D01*
X101774603Y-159954208D01*
X100000000Y-158179605D01*
X98225397Y-159954208D01*
X96660000Y-159954208D01*
X96660000Y-158017148D01*
X97201578Y-158017148D01*
X97258694Y-158562764D01*
X97421158Y-159086752D01*
X97663670Y-159540463D01*
X98045792Y-159774603D01*
X99820395Y-158000000D01*
X100179605Y-158000000D01*
X101954208Y-159774603D01*
X102336330Y-159540463D01*
X102591967Y-159055068D01*
X102747997Y-158529127D01*
X102798422Y-157982852D01*
X102741306Y-157437236D01*
X102578842Y-156913248D01*
X102501634Y-156768800D01*
X104952800Y-156768800D01*
X104952800Y-159105600D01*
X104955240Y-159130376D01*
X104962467Y-159154201D01*
X104974203Y-159176157D01*
X104989997Y-159195403D01*
X105009243Y-159211197D01*
X105031199Y-159222933D01*
X105055024Y-159230160D01*
X105079800Y-159232600D01*
X139166600Y-159232600D01*
X139195337Y-159229306D01*
X139218919Y-159221323D01*
X139240490Y-159208892D01*
X139259221Y-159192492D01*
X139274394Y-159172753D01*
X139285423Y-159150433D01*
X139291887Y-159126391D01*
X139293535Y-159101549D01*
X139258927Y-158017148D01*
X141201578Y-158017148D01*
X141258694Y-158562764D01*
X141421158Y-159086752D01*
X141663670Y-159540463D01*
X142045792Y-159774603D01*
X143820395Y-158000000D01*
X144179605Y-158000000D01*
X145954208Y-159774603D01*
X146336330Y-159540463D01*
X146591967Y-159055068D01*
X146747997Y-158529127D01*
X146798422Y-157982852D01*
X146741306Y-157437236D01*
X146578842Y-156913248D01*
X146336330Y-156459537D01*
X145954208Y-156225397D01*
X144179605Y-158000000D01*
X143820395Y-158000000D01*
X142045792Y-156225397D01*
X141663670Y-156459537D01*
X141408033Y-156944932D01*
X141252003Y-157470873D01*
X141201578Y-158017148D01*
X139258927Y-158017148D01*
X139217335Y-156713949D01*
X139214923Y-156693038D01*
X139207660Y-156669224D01*
X139195891Y-156647285D01*
X139180068Y-156628063D01*
X139160800Y-156612298D01*
X139138825Y-156600595D01*
X139114990Y-156593403D01*
X139090210Y-156591000D01*
X105079610Y-156641800D01*
X105055024Y-156644240D01*
X105031199Y-156651467D01*
X105009243Y-156663203D01*
X104989997Y-156678997D01*
X104974203Y-156698243D01*
X104962467Y-156720199D01*
X104955240Y-156744024D01*
X104952800Y-156768800D01*
X102501634Y-156768800D01*
X102336330Y-156459537D01*
X101954208Y-156225397D01*
X100179605Y-158000000D01*
X99820395Y-158000000D01*
X98045792Y-156225397D01*
X97663670Y-156459537D01*
X97408033Y-156944932D01*
X97252003Y-157470873D01*
X97201578Y-158017148D01*
X96660000Y-158017148D01*
X96660000Y-156045792D01*
X98225397Y-156045792D01*
X100000000Y-157820395D01*
X101774603Y-156045792D01*
X142225397Y-156045792D01*
X144000000Y-157820395D01*
X145774603Y-156045792D01*
X145540463Y-155663670D01*
X145055068Y-155408033D01*
X144529127Y-155252003D01*
X143982852Y-155201578D01*
X143437236Y-155258694D01*
X142913248Y-155421158D01*
X142459537Y-155663670D01*
X142225397Y-156045792D01*
X101774603Y-156045792D01*
X101540463Y-155663670D01*
X101055068Y-155408033D01*
X100529127Y-155252003D01*
X99982852Y-155201578D01*
X99437236Y-155258694D01*
X98913248Y-155421158D01*
X98459537Y-155663670D01*
X98225397Y-156045792D01*
X96660000Y-156045792D01*
X96660000Y-150831340D01*
X119943891Y-150831340D01*
X120038730Y-151096181D01*
X120183415Y-151337431D01*
X120372386Y-151545819D01*
X120598380Y-151713337D01*
X120852713Y-151833546D01*
X120986761Y-151874204D01*
X121208800Y-151752215D01*
X121208800Y-150609300D01*
X121462800Y-150609300D01*
X121462800Y-151752215D01*
X121684839Y-151874204D01*
X121818887Y-151833546D01*
X122073220Y-151713337D01*
X122299214Y-151545819D01*
X122488185Y-151337431D01*
X122632870Y-151096181D01*
X122727709Y-150831340D01*
X122606424Y-150609300D01*
X121462800Y-150609300D01*
X121208800Y-150609300D01*
X120065176Y-150609300D01*
X119943891Y-150831340D01*
X96660000Y-150831340D01*
X96660000Y-149548640D01*
X114851191Y-149548640D01*
X114946030Y-149813481D01*
X115090715Y-150054731D01*
X115279686Y-150263119D01*
X115505680Y-150430637D01*
X115760013Y-150550846D01*
X115894061Y-150591504D01*
X116116100Y-150469515D01*
X116116100Y-149326600D01*
X116370100Y-149326600D01*
X116370100Y-150469515D01*
X116592139Y-150591504D01*
X116726187Y-150550846D01*
X116980520Y-150430637D01*
X117206514Y-150263119D01*
X117324273Y-150133260D01*
X119943891Y-150133260D01*
X120065176Y-150355300D01*
X121208800Y-150355300D01*
X121208800Y-149212385D01*
X121462800Y-149212385D01*
X121462800Y-150355300D01*
X122606424Y-150355300D01*
X122727709Y-150133260D01*
X122632870Y-149868419D01*
X122488185Y-149627169D01*
X122299214Y-149418781D01*
X122073220Y-149251263D01*
X121818887Y-149131054D01*
X121684839Y-149090396D01*
X121462800Y-149212385D01*
X121208800Y-149212385D01*
X120986761Y-149090396D01*
X120852713Y-149131054D01*
X120598380Y-149251263D01*
X120372386Y-149418781D01*
X120183415Y-149627169D01*
X120038730Y-149868419D01*
X119943891Y-150133260D01*
X117324273Y-150133260D01*
X117395485Y-150054731D01*
X117540170Y-149813481D01*
X117635009Y-149548640D01*
X117513724Y-149326600D01*
X116370100Y-149326600D01*
X116116100Y-149326600D01*
X114972476Y-149326600D01*
X114851191Y-149548640D01*
X96660000Y-149548640D01*
X96660000Y-147858665D01*
X104565000Y-147858665D01*
X104565000Y-148141335D01*
X104620147Y-148418574D01*
X104728320Y-148679727D01*
X104885363Y-148914759D01*
X105085241Y-149114637D01*
X105320273Y-149271680D01*
X105581426Y-149379853D01*
X105858665Y-149435000D01*
X106141335Y-149435000D01*
X106418574Y-149379853D01*
X106679727Y-149271680D01*
X106914759Y-149114637D01*
X107114637Y-148914759D01*
X107157533Y-148850560D01*
X114851191Y-148850560D01*
X114972476Y-149072600D01*
X116116100Y-149072600D01*
X116116100Y-147929685D01*
X116370100Y-147929685D01*
X116370100Y-149072600D01*
X117513724Y-149072600D01*
X117635009Y-148850560D01*
X117540170Y-148585719D01*
X117395485Y-148344469D01*
X117206514Y-148136081D01*
X116980520Y-147968563D01*
X116846259Y-147905105D01*
X125072240Y-147905105D01*
X125072240Y-148187775D01*
X125127387Y-148465014D01*
X125235560Y-148726167D01*
X125392603Y-148961199D01*
X125592481Y-149161077D01*
X125827513Y-149318120D01*
X126088666Y-149426293D01*
X126365905Y-149481440D01*
X126648575Y-149481440D01*
X126925814Y-149426293D01*
X127186967Y-149318120D01*
X127421999Y-149161077D01*
X127621877Y-148961199D01*
X127778920Y-148726167D01*
X127887093Y-148465014D01*
X127942240Y-148187775D01*
X127942240Y-147905105D01*
X127887093Y-147627866D01*
X127817812Y-147460605D01*
X131841340Y-147460605D01*
X131841340Y-147743275D01*
X131896487Y-148020514D01*
X132004660Y-148281667D01*
X132161703Y-148516699D01*
X132361581Y-148716577D01*
X132596613Y-148873620D01*
X132857766Y-148981793D01*
X133135005Y-149036940D01*
X133417675Y-149036940D01*
X133694914Y-148981793D01*
X133956067Y-148873620D01*
X134191099Y-148716577D01*
X134390977Y-148516699D01*
X134548020Y-148281667D01*
X134656193Y-148020514D01*
X134711340Y-147743275D01*
X134711340Y-147460605D01*
X134680679Y-147306460D01*
X136554108Y-147306460D01*
X136554108Y-149106460D01*
X136566368Y-149230942D01*
X136602678Y-149350640D01*
X136661643Y-149460954D01*
X136740995Y-149557645D01*
X136837686Y-149636997D01*
X136948000Y-149695962D01*
X137067698Y-149732272D01*
X137192180Y-149744532D01*
X138992180Y-149744532D01*
X139116662Y-149732272D01*
X139236360Y-149695962D01*
X139346674Y-149636997D01*
X139443365Y-149557645D01*
X139522717Y-149460954D01*
X139581682Y-149350640D01*
X139587236Y-149332333D01*
X139653675Y-149398772D01*
X139905085Y-149566759D01*
X140184437Y-149682471D01*
X140480996Y-149741460D01*
X140783364Y-149741460D01*
X141079923Y-149682471D01*
X141359275Y-149566759D01*
X141610685Y-149398772D01*
X141824492Y-149184965D01*
X141992479Y-148933555D01*
X142108191Y-148654203D01*
X142167180Y-148357644D01*
X142167180Y-148055276D01*
X142108191Y-147758717D01*
X141992479Y-147479365D01*
X141929560Y-147385200D01*
X142307208Y-147385200D01*
X142307208Y-149185200D01*
X142319468Y-149309682D01*
X142355778Y-149429380D01*
X142414743Y-149539694D01*
X142494095Y-149636385D01*
X142590786Y-149715737D01*
X142701100Y-149774702D01*
X142820798Y-149811012D01*
X142945280Y-149823272D01*
X144745280Y-149823272D01*
X144869762Y-149811012D01*
X144989460Y-149774702D01*
X145099774Y-149715737D01*
X145196465Y-149636385D01*
X145275817Y-149539694D01*
X145334782Y-149429380D01*
X145340336Y-149411073D01*
X145406775Y-149477512D01*
X145658185Y-149645499D01*
X145937537Y-149761211D01*
X146234096Y-149820200D01*
X146536464Y-149820200D01*
X146833023Y-149761211D01*
X147112375Y-149645499D01*
X147363785Y-149477512D01*
X147577592Y-149263705D01*
X147745579Y-149012295D01*
X147861291Y-148732943D01*
X147920280Y-148436384D01*
X147920280Y-148134016D01*
X147861291Y-147837457D01*
X147745579Y-147558105D01*
X147577592Y-147306695D01*
X147363785Y-147092888D01*
X147112375Y-146924901D01*
X146833023Y-146809189D01*
X146536464Y-146750200D01*
X146234096Y-146750200D01*
X145937537Y-146809189D01*
X145658185Y-146924901D01*
X145406775Y-147092888D01*
X145340336Y-147159327D01*
X145334782Y-147141020D01*
X145275817Y-147030706D01*
X145196465Y-146934015D01*
X145099774Y-146854663D01*
X144989460Y-146795698D01*
X144869762Y-146759388D01*
X144745280Y-146747128D01*
X142945280Y-146747128D01*
X142820798Y-146759388D01*
X142701100Y-146795698D01*
X142590786Y-146854663D01*
X142494095Y-146934015D01*
X142414743Y-147030706D01*
X142355778Y-147141020D01*
X142319468Y-147260718D01*
X142307208Y-147385200D01*
X141929560Y-147385200D01*
X141824492Y-147227955D01*
X141610685Y-147014148D01*
X141359275Y-146846161D01*
X141079923Y-146730449D01*
X140783364Y-146671460D01*
X140480996Y-146671460D01*
X140184437Y-146730449D01*
X139905085Y-146846161D01*
X139653675Y-147014148D01*
X139587236Y-147080587D01*
X139581682Y-147062280D01*
X139522717Y-146951966D01*
X139443365Y-146855275D01*
X139346674Y-146775923D01*
X139236360Y-146716958D01*
X139116662Y-146680648D01*
X138992180Y-146668388D01*
X137192180Y-146668388D01*
X137067698Y-146680648D01*
X136948000Y-146716958D01*
X136837686Y-146775923D01*
X136740995Y-146855275D01*
X136661643Y-146951966D01*
X136602678Y-147062280D01*
X136566368Y-147181978D01*
X136554108Y-147306460D01*
X134680679Y-147306460D01*
X134656193Y-147183366D01*
X134548020Y-146922213D01*
X134390977Y-146687181D01*
X134191099Y-146487303D01*
X133956067Y-146330260D01*
X133694914Y-146222087D01*
X133417675Y-146166940D01*
X133135005Y-146166940D01*
X132857766Y-146222087D01*
X132596613Y-146330260D01*
X132361581Y-146487303D01*
X132161703Y-146687181D01*
X132004660Y-146922213D01*
X131896487Y-147183366D01*
X131841340Y-147460605D01*
X127817812Y-147460605D01*
X127778920Y-147366713D01*
X127621877Y-147131681D01*
X127421999Y-146931803D01*
X127186967Y-146774760D01*
X126925814Y-146666587D01*
X126648575Y-146611440D01*
X126365905Y-146611440D01*
X126088666Y-146666587D01*
X125827513Y-146774760D01*
X125592481Y-146931803D01*
X125392603Y-147131681D01*
X125235560Y-147366713D01*
X125127387Y-147627866D01*
X125072240Y-147905105D01*
X116846259Y-147905105D01*
X116726187Y-147848354D01*
X116592139Y-147807696D01*
X116370100Y-147929685D01*
X116116100Y-147929685D01*
X115894061Y-147807696D01*
X115760013Y-147848354D01*
X115505680Y-147968563D01*
X115279686Y-148136081D01*
X115090715Y-148344469D01*
X114946030Y-148585719D01*
X114851191Y-148850560D01*
X107157533Y-148850560D01*
X107271680Y-148679727D01*
X107379853Y-148418574D01*
X107435000Y-148141335D01*
X107435000Y-147858665D01*
X107379853Y-147581426D01*
X107271680Y-147320273D01*
X107114637Y-147085241D01*
X106914759Y-146885363D01*
X106679727Y-146728320D01*
X106418574Y-146620147D01*
X106141335Y-146565000D01*
X105858665Y-146565000D01*
X105581426Y-146620147D01*
X105320273Y-146728320D01*
X105085241Y-146885363D01*
X104885363Y-147085241D01*
X104728320Y-147320273D01*
X104620147Y-147581426D01*
X104565000Y-147858665D01*
X96660000Y-147858665D01*
X96660000Y-137019400D01*
X99118788Y-137019400D01*
X99131048Y-137143882D01*
X99167358Y-137263580D01*
X99226323Y-137373894D01*
X99305675Y-137470585D01*
X99402366Y-137549937D01*
X99512680Y-137608902D01*
X99585240Y-137630913D01*
X99453385Y-137762768D01*
X99290870Y-138005989D01*
X99178928Y-138276242D01*
X99121860Y-138563140D01*
X99121860Y-138855660D01*
X99178928Y-139142558D01*
X99290870Y-139412811D01*
X99453385Y-139656032D01*
X99660228Y-139862875D01*
X99834620Y-139979400D01*
X99660228Y-140095925D01*
X99453385Y-140302768D01*
X99290870Y-140545989D01*
X99178928Y-140816242D01*
X99121860Y-141103140D01*
X99121860Y-141395660D01*
X99178928Y-141682558D01*
X99290870Y-141952811D01*
X99453385Y-142196032D01*
X99660228Y-142402875D01*
X99834620Y-142519400D01*
X99660228Y-142635925D01*
X99453385Y-142842768D01*
X99290870Y-143085989D01*
X99178928Y-143356242D01*
X99121860Y-143643140D01*
X99121860Y-143935660D01*
X99178928Y-144222558D01*
X99290870Y-144492811D01*
X99453385Y-144736032D01*
X99660228Y-144942875D01*
X99903449Y-145105390D01*
X100173702Y-145217332D01*
X100460600Y-145274400D01*
X100753120Y-145274400D01*
X101040018Y-145217332D01*
X101310271Y-145105390D01*
X101553492Y-144942875D01*
X101760335Y-144736032D01*
X101922850Y-144492811D01*
X102034792Y-144222558D01*
X102091860Y-143935660D01*
X102091860Y-143643140D01*
X102034792Y-143356242D01*
X101922850Y-143085989D01*
X101760335Y-142842768D01*
X101553492Y-142635925D01*
X101379100Y-142519400D01*
X101553492Y-142402875D01*
X101760335Y-142196032D01*
X101922850Y-141952811D01*
X102034792Y-141682558D01*
X102091860Y-141395660D01*
X102091860Y-141103140D01*
X102034792Y-140816242D01*
X101930849Y-140565300D01*
X136297568Y-140565300D01*
X136297568Y-142365300D01*
X136309828Y-142489782D01*
X136346138Y-142609480D01*
X136405103Y-142719794D01*
X136484455Y-142816485D01*
X136581146Y-142895837D01*
X136691460Y-142954802D01*
X136811158Y-142991112D01*
X136935640Y-143003372D01*
X138735640Y-143003372D01*
X138860122Y-142991112D01*
X138979820Y-142954802D01*
X139090134Y-142895837D01*
X139186825Y-142816485D01*
X139266177Y-142719794D01*
X139325142Y-142609480D01*
X139330696Y-142591173D01*
X139397135Y-142657612D01*
X139648545Y-142825599D01*
X139927897Y-142941311D01*
X140224456Y-143000300D01*
X140526824Y-143000300D01*
X140823383Y-142941311D01*
X141102735Y-142825599D01*
X141354145Y-142657612D01*
X141567952Y-142443805D01*
X141735939Y-142192395D01*
X141851651Y-141913043D01*
X141910640Y-141616484D01*
X141910640Y-141314116D01*
X141851651Y-141017557D01*
X141735939Y-140738205D01*
X141610225Y-140550060D01*
X142004948Y-140550060D01*
X142004948Y-142350060D01*
X142017208Y-142474542D01*
X142053518Y-142594240D01*
X142112483Y-142704554D01*
X142191835Y-142801245D01*
X142288526Y-142880597D01*
X142398840Y-142939562D01*
X142518538Y-142975872D01*
X142643020Y-142988132D01*
X144443020Y-142988132D01*
X144567502Y-142975872D01*
X144687200Y-142939562D01*
X144797514Y-142880597D01*
X144894205Y-142801245D01*
X144973557Y-142704554D01*
X145032522Y-142594240D01*
X145038076Y-142575933D01*
X145104515Y-142642372D01*
X145355925Y-142810359D01*
X145635277Y-142926071D01*
X145931836Y-142985060D01*
X146234204Y-142985060D01*
X146530763Y-142926071D01*
X146810115Y-142810359D01*
X147061525Y-142642372D01*
X147275332Y-142428565D01*
X147443319Y-142177155D01*
X147559031Y-141897803D01*
X147618020Y-141601244D01*
X147618020Y-141298876D01*
X147559031Y-141002317D01*
X147443319Y-140722965D01*
X147275332Y-140471555D01*
X147061525Y-140257748D01*
X146810115Y-140089761D01*
X146530763Y-139974049D01*
X146234204Y-139915060D01*
X145931836Y-139915060D01*
X145635277Y-139974049D01*
X145355925Y-140089761D01*
X145104515Y-140257748D01*
X145038076Y-140324187D01*
X145032522Y-140305880D01*
X144973557Y-140195566D01*
X144894205Y-140098875D01*
X144797514Y-140019523D01*
X144687200Y-139960558D01*
X144567502Y-139924248D01*
X144443020Y-139911988D01*
X142643020Y-139911988D01*
X142518538Y-139924248D01*
X142398840Y-139960558D01*
X142288526Y-140019523D01*
X142191835Y-140098875D01*
X142112483Y-140195566D01*
X142053518Y-140305880D01*
X142017208Y-140425578D01*
X142004948Y-140550060D01*
X141610225Y-140550060D01*
X141567952Y-140486795D01*
X141354145Y-140272988D01*
X141102735Y-140105001D01*
X140823383Y-139989289D01*
X140526824Y-139930300D01*
X140224456Y-139930300D01*
X139927897Y-139989289D01*
X139648545Y-140105001D01*
X139397135Y-140272988D01*
X139330696Y-140339427D01*
X139325142Y-140321120D01*
X139266177Y-140210806D01*
X139186825Y-140114115D01*
X139090134Y-140034763D01*
X138979820Y-139975798D01*
X138860122Y-139939488D01*
X138735640Y-139927228D01*
X136935640Y-139927228D01*
X136811158Y-139939488D01*
X136691460Y-139975798D01*
X136581146Y-140034763D01*
X136484455Y-140114115D01*
X136405103Y-140210806D01*
X136346138Y-140321120D01*
X136309828Y-140440818D01*
X136297568Y-140565300D01*
X101930849Y-140565300D01*
X101922850Y-140545989D01*
X101760335Y-140302768D01*
X101553492Y-140095925D01*
X101379100Y-139979400D01*
X101553492Y-139862875D01*
X101760335Y-139656032D01*
X101922850Y-139412811D01*
X102034792Y-139142558D01*
X102091860Y-138855660D01*
X102091860Y-138563140D01*
X102034792Y-138276242D01*
X101922850Y-138005989D01*
X101760335Y-137762768D01*
X101628480Y-137630913D01*
X101701040Y-137608902D01*
X101811354Y-137549937D01*
X101908045Y-137470585D01*
X101987397Y-137373894D01*
X102046362Y-137263580D01*
X102082672Y-137143882D01*
X102094932Y-137019400D01*
X102091860Y-136455150D01*
X101933110Y-136296400D01*
X100733860Y-136296400D01*
X100733860Y-136316400D01*
X100479860Y-136316400D01*
X100479860Y-136296400D01*
X99280610Y-136296400D01*
X99121860Y-136455150D01*
X99118788Y-137019400D01*
X96660000Y-137019400D01*
X96660000Y-135319400D01*
X99118788Y-135319400D01*
X99121860Y-135883650D01*
X99280610Y-136042400D01*
X100479860Y-136042400D01*
X100479860Y-134843150D01*
X100733860Y-134843150D01*
X100733860Y-136042400D01*
X101933110Y-136042400D01*
X102091860Y-135883650D01*
X102094932Y-135319400D01*
X102082672Y-135194918D01*
X102071675Y-135158665D01*
X104565000Y-135158665D01*
X104565000Y-135441335D01*
X104620147Y-135718574D01*
X104728320Y-135979727D01*
X104885363Y-136214759D01*
X105085241Y-136414637D01*
X105320273Y-136571680D01*
X105581426Y-136679853D01*
X105858665Y-136735000D01*
X106141335Y-136735000D01*
X106418574Y-136679853D01*
X106679727Y-136571680D01*
X106914759Y-136414637D01*
X107114637Y-136214759D01*
X107271680Y-135979727D01*
X107379853Y-135718574D01*
X107435000Y-135441335D01*
X107435000Y-135158665D01*
X107379853Y-134881426D01*
X107342799Y-134791969D01*
X111234236Y-134791969D01*
X111293697Y-135025737D01*
X111532142Y-135136634D01*
X111787640Y-135198883D01*
X112050373Y-135210090D01*
X112310244Y-135169825D01*
X112557266Y-135079635D01*
X112658103Y-135025737D01*
X112717564Y-134791969D01*
X111975900Y-134050305D01*
X111234236Y-134791969D01*
X107342799Y-134791969D01*
X107271680Y-134620273D01*
X107114637Y-134385241D01*
X106914759Y-134185363D01*
X106679727Y-134028320D01*
X106478993Y-133945173D01*
X110636510Y-133945173D01*
X110676775Y-134205044D01*
X110766965Y-134452066D01*
X110820863Y-134552903D01*
X111054631Y-134612364D01*
X111796295Y-133870700D01*
X112155505Y-133870700D01*
X112897169Y-134612364D01*
X113130937Y-134552903D01*
X113241834Y-134314458D01*
X113304083Y-134058960D01*
X113314349Y-133818265D01*
X114808100Y-133818265D01*
X114808100Y-134100935D01*
X114863247Y-134378174D01*
X114971420Y-134639327D01*
X115128463Y-134874359D01*
X115328341Y-135074237D01*
X115563373Y-135231280D01*
X115824526Y-135339453D01*
X116101765Y-135394600D01*
X116384435Y-135394600D01*
X116661674Y-135339453D01*
X116922827Y-135231280D01*
X117117857Y-135100965D01*
X119900800Y-135100965D01*
X119900800Y-135383635D01*
X119955947Y-135660874D01*
X120064120Y-135922027D01*
X120221163Y-136157059D01*
X120421041Y-136356937D01*
X120656073Y-136513980D01*
X120917226Y-136622153D01*
X121194465Y-136677300D01*
X121477135Y-136677300D01*
X121754374Y-136622153D01*
X122015527Y-136513980D01*
X122250559Y-136356937D01*
X122450437Y-136157059D01*
X122607480Y-135922027D01*
X122715653Y-135660874D01*
X122770800Y-135383635D01*
X122770800Y-135205105D01*
X125072240Y-135205105D01*
X125072240Y-135487775D01*
X125127387Y-135765014D01*
X125235560Y-136026167D01*
X125392603Y-136261199D01*
X125592481Y-136461077D01*
X125827513Y-136618120D01*
X126088666Y-136726293D01*
X126365905Y-136781440D01*
X126648575Y-136781440D01*
X126925814Y-136726293D01*
X127186967Y-136618120D01*
X127421999Y-136461077D01*
X127621877Y-136261199D01*
X127778920Y-136026167D01*
X127887093Y-135765014D01*
X127942240Y-135487775D01*
X127942240Y-135205105D01*
X127887093Y-134927866D01*
X127817812Y-134760605D01*
X131841340Y-134760605D01*
X131841340Y-135043275D01*
X131896487Y-135320514D01*
X132004660Y-135581667D01*
X132161703Y-135816699D01*
X132361581Y-136016577D01*
X132596613Y-136173620D01*
X132857766Y-136281793D01*
X133135005Y-136336940D01*
X133417675Y-136336940D01*
X133694914Y-136281793D01*
X133956067Y-136173620D01*
X134191099Y-136016577D01*
X134390977Y-135816699D01*
X134548020Y-135581667D01*
X134656193Y-135320514D01*
X134711340Y-135043275D01*
X134711340Y-134760605D01*
X134656193Y-134483366D01*
X134548020Y-134222213D01*
X134390977Y-133987181D01*
X134191099Y-133787303D01*
X134113182Y-133735240D01*
X136152788Y-133735240D01*
X136152788Y-135535240D01*
X136165048Y-135659722D01*
X136201358Y-135779420D01*
X136260323Y-135889734D01*
X136339675Y-135986425D01*
X136436366Y-136065777D01*
X136546680Y-136124742D01*
X136666378Y-136161052D01*
X136790860Y-136173312D01*
X138590860Y-136173312D01*
X138715342Y-136161052D01*
X138835040Y-136124742D01*
X138945354Y-136065777D01*
X139042045Y-135986425D01*
X139121397Y-135889734D01*
X139180362Y-135779420D01*
X139185916Y-135761113D01*
X139252355Y-135827552D01*
X139503765Y-135995539D01*
X139783117Y-136111251D01*
X140079676Y-136170240D01*
X140382044Y-136170240D01*
X140678603Y-136111251D01*
X140957955Y-135995539D01*
X141209365Y-135827552D01*
X141423172Y-135613745D01*
X141591159Y-135362335D01*
X141706871Y-135082983D01*
X141765860Y-134786424D01*
X141765860Y-134484056D01*
X141706871Y-134187497D01*
X141591159Y-133908145D01*
X141472234Y-133730160D01*
X141903348Y-133730160D01*
X141903348Y-135530160D01*
X141915608Y-135654642D01*
X141951918Y-135774340D01*
X142010883Y-135884654D01*
X142090235Y-135981345D01*
X142186926Y-136060697D01*
X142297240Y-136119662D01*
X142416938Y-136155972D01*
X142541420Y-136168232D01*
X144341420Y-136168232D01*
X144465902Y-136155972D01*
X144585600Y-136119662D01*
X144695914Y-136060697D01*
X144792605Y-135981345D01*
X144871957Y-135884654D01*
X144930922Y-135774340D01*
X144936476Y-135756033D01*
X145002915Y-135822472D01*
X145254325Y-135990459D01*
X145533677Y-136106171D01*
X145830236Y-136165160D01*
X146132604Y-136165160D01*
X146429163Y-136106171D01*
X146708515Y-135990459D01*
X146959925Y-135822472D01*
X147173732Y-135608665D01*
X147341719Y-135357255D01*
X147457431Y-135077903D01*
X147516420Y-134781344D01*
X147516420Y-134478976D01*
X147457431Y-134182417D01*
X147341719Y-133903065D01*
X147173732Y-133651655D01*
X146959925Y-133437848D01*
X146708515Y-133269861D01*
X146429163Y-133154149D01*
X146132604Y-133095160D01*
X145830236Y-133095160D01*
X145533677Y-133154149D01*
X145254325Y-133269861D01*
X145002915Y-133437848D01*
X144936476Y-133504287D01*
X144930922Y-133485980D01*
X144871957Y-133375666D01*
X144792605Y-133278975D01*
X144695914Y-133199623D01*
X144585600Y-133140658D01*
X144465902Y-133104348D01*
X144341420Y-133092088D01*
X142541420Y-133092088D01*
X142416938Y-133104348D01*
X142297240Y-133140658D01*
X142186926Y-133199623D01*
X142090235Y-133278975D01*
X142010883Y-133375666D01*
X141951918Y-133485980D01*
X141915608Y-133605678D01*
X141903348Y-133730160D01*
X141472234Y-133730160D01*
X141423172Y-133656735D01*
X141209365Y-133442928D01*
X140957955Y-133274941D01*
X140678603Y-133159229D01*
X140382044Y-133100240D01*
X140079676Y-133100240D01*
X139783117Y-133159229D01*
X139503765Y-133274941D01*
X139252355Y-133442928D01*
X139185916Y-133509367D01*
X139180362Y-133491060D01*
X139121397Y-133380746D01*
X139042045Y-133284055D01*
X138945354Y-133204703D01*
X138835040Y-133145738D01*
X138715342Y-133109428D01*
X138590860Y-133097168D01*
X136790860Y-133097168D01*
X136666378Y-133109428D01*
X136546680Y-133145738D01*
X136436366Y-133204703D01*
X136339675Y-133284055D01*
X136260323Y-133380746D01*
X136201358Y-133491060D01*
X136165048Y-133610758D01*
X136152788Y-133735240D01*
X134113182Y-133735240D01*
X133956067Y-133630260D01*
X133694914Y-133522087D01*
X133417675Y-133466940D01*
X133135005Y-133466940D01*
X132857766Y-133522087D01*
X132596613Y-133630260D01*
X132361581Y-133787303D01*
X132161703Y-133987181D01*
X132004660Y-134222213D01*
X131896487Y-134483366D01*
X131841340Y-134760605D01*
X127817812Y-134760605D01*
X127778920Y-134666713D01*
X127621877Y-134431681D01*
X127421999Y-134231803D01*
X127186967Y-134074760D01*
X126925814Y-133966587D01*
X126648575Y-133911440D01*
X126365905Y-133911440D01*
X126088666Y-133966587D01*
X125827513Y-134074760D01*
X125592481Y-134231803D01*
X125392603Y-134431681D01*
X125235560Y-134666713D01*
X125127387Y-134927866D01*
X125072240Y-135205105D01*
X122770800Y-135205105D01*
X122770800Y-135100965D01*
X122715653Y-134823726D01*
X122607480Y-134562573D01*
X122450437Y-134327541D01*
X122250559Y-134127663D01*
X122015527Y-133970620D01*
X121754374Y-133862447D01*
X121477135Y-133807300D01*
X121194465Y-133807300D01*
X120917226Y-133862447D01*
X120656073Y-133970620D01*
X120421041Y-134127663D01*
X120221163Y-134327541D01*
X120064120Y-134562573D01*
X119955947Y-134823726D01*
X119900800Y-135100965D01*
X117117857Y-135100965D01*
X117157859Y-135074237D01*
X117357737Y-134874359D01*
X117514780Y-134639327D01*
X117622953Y-134378174D01*
X117678100Y-134100935D01*
X117678100Y-133818265D01*
X117622953Y-133541026D01*
X117514780Y-133279873D01*
X117357737Y-133044841D01*
X117157859Y-132844963D01*
X116922827Y-132687920D01*
X116661674Y-132579747D01*
X116384435Y-132524600D01*
X116101765Y-132524600D01*
X115824526Y-132579747D01*
X115563373Y-132687920D01*
X115328341Y-132844963D01*
X115128463Y-133044841D01*
X114971420Y-133279873D01*
X114863247Y-133541026D01*
X114808100Y-133818265D01*
X113314349Y-133818265D01*
X113315290Y-133796227D01*
X113275025Y-133536356D01*
X113184835Y-133289334D01*
X113130937Y-133188497D01*
X112897169Y-133129036D01*
X112155505Y-133870700D01*
X111796295Y-133870700D01*
X111054631Y-133129036D01*
X110820863Y-133188497D01*
X110709966Y-133426942D01*
X110647717Y-133682440D01*
X110636510Y-133945173D01*
X106478993Y-133945173D01*
X106418574Y-133920147D01*
X106141335Y-133865000D01*
X105858665Y-133865000D01*
X105581426Y-133920147D01*
X105320273Y-134028320D01*
X105085241Y-134185363D01*
X104885363Y-134385241D01*
X104728320Y-134620273D01*
X104620147Y-134881426D01*
X104565000Y-135158665D01*
X102071675Y-135158665D01*
X102046362Y-135075220D01*
X101987397Y-134964906D01*
X101908045Y-134868215D01*
X101811354Y-134788863D01*
X101701040Y-134729898D01*
X101581342Y-134693588D01*
X101456860Y-134681328D01*
X100892610Y-134684400D01*
X100733860Y-134843150D01*
X100479860Y-134843150D01*
X100321110Y-134684400D01*
X99756860Y-134681328D01*
X99632378Y-134693588D01*
X99512680Y-134729898D01*
X99402366Y-134788863D01*
X99305675Y-134868215D01*
X99226323Y-134964906D01*
X99167358Y-135075220D01*
X99131048Y-135194918D01*
X99118788Y-135319400D01*
X96660000Y-135319400D01*
X96660000Y-132539302D01*
X103834903Y-132539302D01*
X103906486Y-132783271D01*
X104161996Y-132904171D01*
X104436184Y-132972900D01*
X104718512Y-132986817D01*
X104970836Y-132949431D01*
X111234236Y-132949431D01*
X111975900Y-133691095D01*
X112717564Y-132949431D01*
X112658103Y-132715663D01*
X112419658Y-132604766D01*
X112164160Y-132542517D01*
X111901427Y-132531310D01*
X111641556Y-132571575D01*
X111394534Y-132661765D01*
X111293697Y-132715663D01*
X111234236Y-132949431D01*
X104970836Y-132949431D01*
X104998130Y-132945387D01*
X105264292Y-132850203D01*
X105389514Y-132783271D01*
X105461097Y-132539302D01*
X104648000Y-131726205D01*
X103834903Y-132539302D01*
X96660000Y-132539302D01*
X96660000Y-131271380D01*
X98979088Y-131271380D01*
X98991348Y-131395862D01*
X99027658Y-131515560D01*
X99086623Y-131625874D01*
X99165975Y-131722565D01*
X99262666Y-131801917D01*
X99372980Y-131860882D01*
X99492678Y-131897192D01*
X99617160Y-131909452D01*
X100181410Y-131906380D01*
X100340160Y-131747630D01*
X100340160Y-130548380D01*
X100594160Y-130548380D01*
X100594160Y-131747630D01*
X100752910Y-131906380D01*
X101317160Y-131909452D01*
X101441642Y-131897192D01*
X101561340Y-131860882D01*
X101671654Y-131801917D01*
X101768345Y-131722565D01*
X101847697Y-131625874D01*
X101852380Y-131617112D01*
X103207783Y-131617112D01*
X103249213Y-131896730D01*
X103344397Y-132162892D01*
X103411329Y-132288114D01*
X103655298Y-132359697D01*
X104468395Y-131546600D01*
X104827605Y-131546600D01*
X105640702Y-132359697D01*
X105884671Y-132288114D01*
X106005571Y-132032604D01*
X106074300Y-131758416D01*
X106088217Y-131476088D01*
X106046787Y-131196470D01*
X105951603Y-130930308D01*
X105884671Y-130805086D01*
X105640702Y-130733503D01*
X104827605Y-131546600D01*
X104468395Y-131546600D01*
X103655298Y-130733503D01*
X103411329Y-130805086D01*
X103290429Y-131060596D01*
X103221700Y-131334784D01*
X103207783Y-131617112D01*
X101852380Y-131617112D01*
X101906662Y-131515560D01*
X101942972Y-131395862D01*
X101955232Y-131271380D01*
X101952160Y-130707130D01*
X101798928Y-130553898D01*
X103834903Y-130553898D01*
X104648000Y-131366995D01*
X105461097Y-130553898D01*
X105389514Y-130309929D01*
X105134004Y-130189029D01*
X104859816Y-130120300D01*
X104577488Y-130106383D01*
X104297870Y-130147813D01*
X104031708Y-130242997D01*
X103906486Y-130309929D01*
X103834903Y-130553898D01*
X101798928Y-130553898D01*
X101793410Y-130548380D01*
X100594160Y-130548380D01*
X100340160Y-130548380D01*
X99140910Y-130548380D01*
X98982160Y-130707130D01*
X98979088Y-131271380D01*
X96660000Y-131271380D01*
X96660000Y-129571380D01*
X98979088Y-129571380D01*
X98982160Y-130135630D01*
X99140910Y-130294380D01*
X100340160Y-130294380D01*
X100340160Y-130274380D01*
X100594160Y-130274380D01*
X100594160Y-130294380D01*
X101793410Y-130294380D01*
X101952160Y-130135630D01*
X101955232Y-129571380D01*
X101942972Y-129446898D01*
X101906662Y-129327200D01*
X101847697Y-129216886D01*
X101768345Y-129120195D01*
X101671654Y-129040843D01*
X101561340Y-128981878D01*
X101488780Y-128959867D01*
X101620635Y-128828012D01*
X101783150Y-128584791D01*
X101895092Y-128314538D01*
X101952160Y-128027640D01*
X101952160Y-127735120D01*
X101895092Y-127448222D01*
X101783150Y-127177969D01*
X101620635Y-126934748D01*
X101413792Y-126727905D01*
X101239400Y-126611380D01*
X101413792Y-126494855D01*
X101620635Y-126288012D01*
X101783150Y-126044791D01*
X101895092Y-125774538D01*
X101952160Y-125487640D01*
X101952160Y-125195120D01*
X101895092Y-124908222D01*
X101783150Y-124637969D01*
X101620635Y-124394748D01*
X101413792Y-124187905D01*
X101170571Y-124025390D01*
X100900318Y-123913448D01*
X100859180Y-123905265D01*
X103213000Y-123905265D01*
X103213000Y-124187935D01*
X103268147Y-124465174D01*
X103376320Y-124726327D01*
X103513001Y-124930885D01*
X103513000Y-126517528D01*
X103507509Y-126573280D01*
X103513000Y-126629031D01*
X103529423Y-126795778D01*
X103594324Y-127009726D01*
X103699716Y-127206903D01*
X103841551Y-127379729D01*
X103884865Y-127415276D01*
X107092773Y-130623186D01*
X107128311Y-130666489D01*
X107171614Y-130702027D01*
X107171616Y-130702029D01*
X107301137Y-130808324D01*
X107498313Y-130913716D01*
X107712261Y-130978617D01*
X107934760Y-131000531D01*
X107990512Y-130995040D01*
X111145449Y-130995040D01*
X111201200Y-131000531D01*
X111256951Y-130995040D01*
X111256952Y-130995040D01*
X111423699Y-130978617D01*
X111637647Y-130913716D01*
X111834823Y-130808324D01*
X112007649Y-130666489D01*
X112043196Y-130623175D01*
X115049921Y-127616450D01*
X115049921Y-128443090D01*
X115044430Y-128498841D01*
X115049921Y-128554592D01*
X115066344Y-128721339D01*
X115131245Y-128935287D01*
X115236637Y-129132464D01*
X115378472Y-129305290D01*
X115421786Y-129340837D01*
X115597983Y-129517034D01*
X115599301Y-129523661D01*
X115696167Y-129757516D01*
X115836795Y-129967980D01*
X116015780Y-130146965D01*
X116226244Y-130287593D01*
X116460099Y-130384459D01*
X116708359Y-130433840D01*
X116819920Y-130433840D01*
X116819920Y-130545842D01*
X116978668Y-130545842D01*
X116819920Y-130704590D01*
X116816848Y-131068840D01*
X116829108Y-131193322D01*
X116865418Y-131313020D01*
X116924383Y-131423334D01*
X117003735Y-131520025D01*
X117100426Y-131599377D01*
X117210740Y-131658342D01*
X117330438Y-131694652D01*
X117454920Y-131706912D01*
X117819170Y-131703840D01*
X117977920Y-131545090D01*
X117977920Y-130545840D01*
X118231920Y-130545840D01*
X118231920Y-131545090D01*
X118390670Y-131703840D01*
X118754920Y-131706912D01*
X118879402Y-131694652D01*
X118999100Y-131658342D01*
X119109414Y-131599377D01*
X119206105Y-131520025D01*
X119285457Y-131423334D01*
X119344422Y-131313020D01*
X119380732Y-131193322D01*
X119392992Y-131068840D01*
X119389920Y-130704590D01*
X119231170Y-130545840D01*
X118231920Y-130545840D01*
X117977920Y-130545840D01*
X117957920Y-130545840D01*
X117957920Y-130291840D01*
X117977920Y-130291840D01*
X117977920Y-130271840D01*
X118231920Y-130271840D01*
X118231920Y-130291840D01*
X119231170Y-130291840D01*
X119389920Y-130133090D01*
X119392992Y-129768840D01*
X119380732Y-129644358D01*
X119344422Y-129524660D01*
X119285457Y-129414346D01*
X119206105Y-129317655D01*
X119109414Y-129238303D01*
X118999100Y-129179338D01*
X118879402Y-129143028D01*
X118754920Y-129130768D01*
X118390670Y-129133840D01*
X118231922Y-129292588D01*
X118231922Y-129163752D01*
X118479741Y-129114459D01*
X118713596Y-129017593D01*
X118729391Y-129007039D01*
X121473200Y-129007039D01*
X121473200Y-129260161D01*
X121522581Y-129508421D01*
X121619447Y-129742276D01*
X121760075Y-129952740D01*
X121939060Y-130131725D01*
X122149524Y-130272353D01*
X122383379Y-130369219D01*
X122631639Y-130418600D01*
X122743200Y-130418600D01*
X122743200Y-130530602D01*
X122901948Y-130530602D01*
X122743200Y-130689350D01*
X122740128Y-131053600D01*
X122752388Y-131178082D01*
X122788698Y-131297780D01*
X122847663Y-131408094D01*
X122927015Y-131504785D01*
X123023706Y-131584137D01*
X123134020Y-131643102D01*
X123253718Y-131679412D01*
X123378200Y-131691672D01*
X123742450Y-131688600D01*
X123901200Y-131529850D01*
X123901200Y-130530600D01*
X124155200Y-130530600D01*
X124155200Y-131529850D01*
X124313950Y-131688600D01*
X124678200Y-131691672D01*
X124802682Y-131679412D01*
X124922380Y-131643102D01*
X125032694Y-131584137D01*
X125129385Y-131504785D01*
X125208737Y-131408094D01*
X125267702Y-131297780D01*
X125304012Y-131178082D01*
X125316272Y-131053600D01*
X125313200Y-130689350D01*
X125200609Y-130576759D01*
X127137400Y-130576759D01*
X127137400Y-130829881D01*
X127186781Y-131078141D01*
X127283647Y-131311996D01*
X127424275Y-131522460D01*
X127603260Y-131701445D01*
X127813724Y-131842073D01*
X128047579Y-131938939D01*
X128295839Y-131988320D01*
X128407400Y-131988320D01*
X128407400Y-132100322D01*
X128566148Y-132100322D01*
X128407400Y-132259070D01*
X128404328Y-132623320D01*
X128416588Y-132747802D01*
X128452898Y-132867500D01*
X128511863Y-132977814D01*
X128591215Y-133074505D01*
X128687906Y-133153857D01*
X128798220Y-133212822D01*
X128917918Y-133249132D01*
X129042400Y-133261392D01*
X129406650Y-133258320D01*
X129565400Y-133099570D01*
X129565400Y-132100320D01*
X129819400Y-132100320D01*
X129819400Y-133099570D01*
X129978150Y-133258320D01*
X130342400Y-133261392D01*
X130466882Y-133249132D01*
X130586580Y-133212822D01*
X130696894Y-133153857D01*
X130793585Y-133074505D01*
X130872937Y-132977814D01*
X130931902Y-132867500D01*
X130968212Y-132747802D01*
X130980472Y-132623320D01*
X130977400Y-132259070D01*
X130818650Y-132100320D01*
X129819400Y-132100320D01*
X129565400Y-132100320D01*
X129545400Y-132100320D01*
X129545400Y-131846320D01*
X129565400Y-131846320D01*
X129565400Y-131826320D01*
X129819400Y-131826320D01*
X129819400Y-131846320D01*
X130818650Y-131846320D01*
X130977400Y-131687570D01*
X130980472Y-131323320D01*
X130968212Y-131198838D01*
X130931902Y-131079140D01*
X130872937Y-130968826D01*
X130793585Y-130872135D01*
X130696894Y-130792783D01*
X130586580Y-130733818D01*
X130466882Y-130697508D01*
X130342400Y-130685248D01*
X129978150Y-130688320D01*
X129819402Y-130847068D01*
X129819402Y-130718232D01*
X130067221Y-130668939D01*
X130301076Y-130572073D01*
X130511540Y-130431445D01*
X130690525Y-130252460D01*
X130831153Y-130041996D01*
X130928019Y-129808141D01*
X130977400Y-129559881D01*
X130977400Y-129306759D01*
X130928019Y-129058499D01*
X130831153Y-128824644D01*
X130690525Y-128614180D01*
X130511540Y-128435195D01*
X130301076Y-128294567D01*
X130067221Y-128197701D01*
X129818961Y-128148320D01*
X129565839Y-128148320D01*
X129317579Y-128197701D01*
X129083724Y-128294567D01*
X128873260Y-128435195D01*
X128694275Y-128614180D01*
X128553647Y-128824644D01*
X128456781Y-129058499D01*
X128407400Y-129306759D01*
X128407400Y-129418320D01*
X128295839Y-129418320D01*
X128047579Y-129467701D01*
X127813724Y-129564567D01*
X127603260Y-129705195D01*
X127424275Y-129884180D01*
X127283647Y-130094644D01*
X127186781Y-130328499D01*
X127137400Y-130576759D01*
X125200609Y-130576759D01*
X125154450Y-130530600D01*
X124155200Y-130530600D01*
X123901200Y-130530600D01*
X123881200Y-130530600D01*
X123881200Y-130276600D01*
X123901200Y-130276600D01*
X123901200Y-130256600D01*
X124155200Y-130256600D01*
X124155200Y-130276600D01*
X125154450Y-130276600D01*
X125313200Y-130117850D01*
X125316272Y-129753600D01*
X125304012Y-129629118D01*
X125267702Y-129509420D01*
X125208737Y-129399106D01*
X125129385Y-129302415D01*
X125032694Y-129223063D01*
X124922380Y-129164098D01*
X124802682Y-129127788D01*
X124678200Y-129115528D01*
X124313950Y-129118600D01*
X124155202Y-129277348D01*
X124155202Y-129148512D01*
X124403021Y-129099219D01*
X124636876Y-129002353D01*
X124847340Y-128861725D01*
X125026325Y-128682740D01*
X125166953Y-128472276D01*
X125263819Y-128238421D01*
X125313200Y-127990161D01*
X125313200Y-127737039D01*
X125263819Y-127488779D01*
X125166953Y-127254924D01*
X125026325Y-127044460D01*
X124847340Y-126865475D01*
X124636876Y-126724847D01*
X124403021Y-126627981D01*
X124154761Y-126578600D01*
X123901639Y-126578600D01*
X123653379Y-126627981D01*
X123419524Y-126724847D01*
X123209060Y-126865475D01*
X123030075Y-127044460D01*
X122889447Y-127254924D01*
X122792581Y-127488779D01*
X122743200Y-127737039D01*
X122743200Y-127848600D01*
X122631639Y-127848600D01*
X122383379Y-127897981D01*
X122149524Y-127994847D01*
X121939060Y-128135475D01*
X121760075Y-128314460D01*
X121619447Y-128524924D01*
X121522581Y-128758779D01*
X121473200Y-129007039D01*
X118729391Y-129007039D01*
X118924060Y-128876965D01*
X119103045Y-128697980D01*
X119243673Y-128487516D01*
X119340539Y-128253661D01*
X119389920Y-128005401D01*
X119389920Y-127752279D01*
X119340539Y-127504019D01*
X119243673Y-127270164D01*
X119103045Y-127059700D01*
X118924060Y-126880715D01*
X118713596Y-126740087D01*
X118479741Y-126643221D01*
X118350164Y-126617447D01*
X119484372Y-125483240D01*
X127787787Y-125483240D01*
X127793404Y-125486993D01*
X128027259Y-125583859D01*
X128275519Y-125633240D01*
X128387080Y-125633240D01*
X128387080Y-125745242D01*
X128545828Y-125745242D01*
X128387080Y-125903990D01*
X128384008Y-126268240D01*
X128396268Y-126392722D01*
X128432578Y-126512420D01*
X128491543Y-126622734D01*
X128570895Y-126719425D01*
X128667586Y-126798777D01*
X128777900Y-126857742D01*
X128897598Y-126894052D01*
X129022080Y-126906312D01*
X129386330Y-126903240D01*
X129545080Y-126744490D01*
X129545080Y-125745240D01*
X129799080Y-125745240D01*
X129799080Y-126744490D01*
X129957830Y-126903240D01*
X130322080Y-126906312D01*
X130446562Y-126894052D01*
X130566260Y-126857742D01*
X130676574Y-126798777D01*
X130773265Y-126719425D01*
X130852617Y-126622734D01*
X130911582Y-126512420D01*
X130947892Y-126392722D01*
X130960152Y-126268240D01*
X130957080Y-125903990D01*
X130798330Y-125745240D01*
X129799080Y-125745240D01*
X129545080Y-125745240D01*
X129525080Y-125745240D01*
X129525080Y-125536120D01*
X134052208Y-125536120D01*
X134052208Y-127336120D01*
X134064468Y-127460602D01*
X134100778Y-127580300D01*
X134159743Y-127690614D01*
X134239095Y-127787305D01*
X134335786Y-127866657D01*
X134446100Y-127925622D01*
X134565798Y-127961932D01*
X134690280Y-127974192D01*
X136490280Y-127974192D01*
X136614762Y-127961932D01*
X136734460Y-127925622D01*
X136844774Y-127866657D01*
X136941465Y-127787305D01*
X137020817Y-127690614D01*
X137079782Y-127580300D01*
X137085336Y-127561993D01*
X137151775Y-127628432D01*
X137403185Y-127796419D01*
X137682537Y-127912131D01*
X137979096Y-127971120D01*
X138281464Y-127971120D01*
X138578023Y-127912131D01*
X138857375Y-127796419D01*
X139108785Y-127628432D01*
X139322592Y-127414625D01*
X139490579Y-127163215D01*
X139606291Y-126883863D01*
X139665280Y-126587304D01*
X139665280Y-126284936D01*
X139606291Y-125988377D01*
X139490579Y-125709025D01*
X139322592Y-125457615D01*
X139309657Y-125444680D01*
X141441068Y-125444680D01*
X141441068Y-127244680D01*
X141453328Y-127369162D01*
X141489638Y-127488860D01*
X141548603Y-127599174D01*
X141627955Y-127695865D01*
X141724646Y-127775217D01*
X141834960Y-127834182D01*
X141954658Y-127870492D01*
X142079140Y-127882752D01*
X143879140Y-127882752D01*
X144003622Y-127870492D01*
X144123320Y-127834182D01*
X144233634Y-127775217D01*
X144330325Y-127695865D01*
X144409677Y-127599174D01*
X144468642Y-127488860D01*
X144474196Y-127470553D01*
X144540635Y-127536992D01*
X144792045Y-127704979D01*
X145071397Y-127820691D01*
X145367956Y-127879680D01*
X145670324Y-127879680D01*
X145966883Y-127820691D01*
X146246235Y-127704979D01*
X146497645Y-127536992D01*
X146711452Y-127323185D01*
X146879439Y-127071775D01*
X146995151Y-126792423D01*
X147054140Y-126495864D01*
X147054140Y-126193496D01*
X146995151Y-125896937D01*
X146879439Y-125617585D01*
X146711452Y-125366175D01*
X146497645Y-125152368D01*
X146246235Y-124984381D01*
X145966883Y-124868669D01*
X145670324Y-124809680D01*
X145367956Y-124809680D01*
X145071397Y-124868669D01*
X144792045Y-124984381D01*
X144540635Y-125152368D01*
X144474196Y-125218807D01*
X144468642Y-125200500D01*
X144409677Y-125090186D01*
X144330325Y-124993495D01*
X144233634Y-124914143D01*
X144123320Y-124855178D01*
X144003622Y-124818868D01*
X143879140Y-124806608D01*
X142079140Y-124806608D01*
X141954658Y-124818868D01*
X141834960Y-124855178D01*
X141724646Y-124914143D01*
X141627955Y-124993495D01*
X141548603Y-125090186D01*
X141489638Y-125200500D01*
X141453328Y-125320198D01*
X141441068Y-125444680D01*
X139309657Y-125444680D01*
X139108785Y-125243808D01*
X138857375Y-125075821D01*
X138578023Y-124960109D01*
X138281464Y-124901120D01*
X137979096Y-124901120D01*
X137682537Y-124960109D01*
X137403185Y-125075821D01*
X137151775Y-125243808D01*
X137085336Y-125310247D01*
X137079782Y-125291940D01*
X137020817Y-125181626D01*
X136941465Y-125084935D01*
X136844774Y-125005583D01*
X136734460Y-124946618D01*
X136614762Y-124910308D01*
X136490280Y-124898048D01*
X134690280Y-124898048D01*
X134565798Y-124910308D01*
X134446100Y-124946618D01*
X134335786Y-125005583D01*
X134239095Y-125084935D01*
X134159743Y-125181626D01*
X134100778Y-125291940D01*
X134064468Y-125411638D01*
X134052208Y-125536120D01*
X129525080Y-125536120D01*
X129525080Y-125491240D01*
X129545080Y-125491240D01*
X129545080Y-125471240D01*
X129799080Y-125471240D01*
X129799080Y-125491240D01*
X130798330Y-125491240D01*
X130957080Y-125332490D01*
X130960152Y-124968240D01*
X130947892Y-124843758D01*
X130911582Y-124724060D01*
X130852617Y-124613746D01*
X130773265Y-124517055D01*
X130676574Y-124437703D01*
X130566260Y-124378738D01*
X130446562Y-124342428D01*
X130322080Y-124330168D01*
X129957830Y-124333240D01*
X129799082Y-124491988D01*
X129799082Y-124363152D01*
X130046901Y-124313859D01*
X130280756Y-124216993D01*
X130491220Y-124076365D01*
X130670205Y-123897380D01*
X130810833Y-123686916D01*
X130907699Y-123453061D01*
X130957080Y-123204801D01*
X130957080Y-122951679D01*
X130907699Y-122703419D01*
X130810833Y-122469564D01*
X130670205Y-122259100D01*
X130491220Y-122080115D01*
X130280756Y-121939487D01*
X130046901Y-121842621D01*
X129798641Y-121793240D01*
X129545519Y-121793240D01*
X129297259Y-121842621D01*
X129063404Y-121939487D01*
X128852940Y-122080115D01*
X128673955Y-122259100D01*
X128533327Y-122469564D01*
X128436461Y-122703419D01*
X128387080Y-122951679D01*
X128387080Y-123063240D01*
X128275519Y-123063240D01*
X128027259Y-123112621D01*
X127793404Y-123209487D01*
X127787787Y-123213240D01*
X124597722Y-123213240D01*
X124598502Y-123211780D01*
X124634812Y-123092082D01*
X124647072Y-122967600D01*
X124647072Y-120567600D01*
X124634812Y-120443118D01*
X124598502Y-120323420D01*
X124539537Y-120213106D01*
X124460185Y-120116415D01*
X124363494Y-120037063D01*
X124253180Y-119978098D01*
X124133482Y-119941788D01*
X124009000Y-119929528D01*
X121609000Y-119929528D01*
X121484518Y-119941788D01*
X121364820Y-119978098D01*
X121254506Y-120037063D01*
X121157815Y-120116415D01*
X121078463Y-120213106D01*
X121019498Y-120323420D01*
X120983188Y-120443118D01*
X120970928Y-120567600D01*
X120970928Y-122967600D01*
X120983188Y-123092082D01*
X121019498Y-123211780D01*
X121020278Y-123213240D01*
X119296222Y-123213240D01*
X119342877Y-123059439D01*
X119359300Y-122892692D01*
X119359300Y-122892683D01*
X119364790Y-122836941D01*
X119359300Y-122781199D01*
X119359300Y-119360585D01*
X127492860Y-119360585D01*
X127492860Y-119643255D01*
X127548007Y-119920494D01*
X127656180Y-120181647D01*
X127813223Y-120416679D01*
X128013101Y-120616557D01*
X128248133Y-120773600D01*
X128509286Y-120881773D01*
X128786525Y-120936920D01*
X129069195Y-120936920D01*
X129346434Y-120881773D01*
X129607587Y-120773600D01*
X129842619Y-120616557D01*
X130042497Y-120416679D01*
X130199540Y-120181647D01*
X130307713Y-119920494D01*
X130362860Y-119643255D01*
X130362860Y-119360585D01*
X130307713Y-119083346D01*
X130199540Y-118822193D01*
X130042497Y-118587161D01*
X129842619Y-118387283D01*
X129607587Y-118230240D01*
X129346434Y-118122067D01*
X129069195Y-118066920D01*
X128786525Y-118066920D01*
X128509286Y-118122067D01*
X128248133Y-118230240D01*
X128013101Y-118387283D01*
X127813223Y-118587161D01*
X127656180Y-118822193D01*
X127548007Y-119083346D01*
X127492860Y-119360585D01*
X119359300Y-119360585D01*
X119359300Y-118846831D01*
X120789933Y-117416200D01*
X121766847Y-117416200D01*
X121790062Y-117450944D01*
X122045656Y-117706538D01*
X122346201Y-117907356D01*
X122680150Y-118045682D01*
X123034668Y-118116200D01*
X123396132Y-118116200D01*
X123750650Y-118045682D01*
X124084599Y-117907356D01*
X124385144Y-117706538D01*
X124640738Y-117450944D01*
X124841556Y-117150399D01*
X124979882Y-116816450D01*
X125038014Y-116524200D01*
X134250328Y-116524200D01*
X134250328Y-118324200D01*
X134262588Y-118448682D01*
X134298898Y-118568380D01*
X134357863Y-118678694D01*
X134437215Y-118775385D01*
X134533906Y-118854737D01*
X134644220Y-118913702D01*
X134763918Y-118950012D01*
X134888400Y-118962272D01*
X136688400Y-118962272D01*
X136812882Y-118950012D01*
X136932580Y-118913702D01*
X137042894Y-118854737D01*
X137139585Y-118775385D01*
X137218937Y-118678694D01*
X137277902Y-118568380D01*
X137283456Y-118550073D01*
X137349895Y-118616512D01*
X137601305Y-118784499D01*
X137880657Y-118900211D01*
X138177216Y-118959200D01*
X138479584Y-118959200D01*
X138776143Y-118900211D01*
X139055495Y-118784499D01*
X139306905Y-118616512D01*
X139520712Y-118402705D01*
X139688699Y-118151295D01*
X139804411Y-117871943D01*
X139863400Y-117575384D01*
X139863400Y-117273016D01*
X139804411Y-116976457D01*
X139688699Y-116697105D01*
X139625780Y-116602940D01*
X141466468Y-116602940D01*
X141466468Y-118402940D01*
X141478728Y-118527422D01*
X141515038Y-118647120D01*
X141574003Y-118757434D01*
X141653355Y-118854125D01*
X141750046Y-118933477D01*
X141860360Y-118992442D01*
X141980058Y-119028752D01*
X142104540Y-119041012D01*
X143904540Y-119041012D01*
X144029022Y-119028752D01*
X144148720Y-118992442D01*
X144259034Y-118933477D01*
X144355725Y-118854125D01*
X144435077Y-118757434D01*
X144494042Y-118647120D01*
X144499596Y-118628813D01*
X144566035Y-118695252D01*
X144817445Y-118863239D01*
X145096797Y-118978951D01*
X145393356Y-119037940D01*
X145695724Y-119037940D01*
X145992283Y-118978951D01*
X146271635Y-118863239D01*
X146523045Y-118695252D01*
X146736852Y-118481445D01*
X146904839Y-118230035D01*
X147020551Y-117950683D01*
X147079540Y-117654124D01*
X147079540Y-117351756D01*
X147020551Y-117055197D01*
X146904839Y-116775845D01*
X146736852Y-116524435D01*
X146523045Y-116310628D01*
X146271635Y-116142641D01*
X145992283Y-116026929D01*
X145695724Y-115967940D01*
X145393356Y-115967940D01*
X145096797Y-116026929D01*
X144817445Y-116142641D01*
X144566035Y-116310628D01*
X144499596Y-116377067D01*
X144494042Y-116358760D01*
X144435077Y-116248446D01*
X144355725Y-116151755D01*
X144259034Y-116072403D01*
X144148720Y-116013438D01*
X144029022Y-115977128D01*
X143904540Y-115964868D01*
X142104540Y-115964868D01*
X141980058Y-115977128D01*
X141860360Y-116013438D01*
X141750046Y-116072403D01*
X141653355Y-116151755D01*
X141574003Y-116248446D01*
X141515038Y-116358760D01*
X141478728Y-116478458D01*
X141466468Y-116602940D01*
X139625780Y-116602940D01*
X139520712Y-116445695D01*
X139306905Y-116231888D01*
X139055495Y-116063901D01*
X138776143Y-115948189D01*
X138479584Y-115889200D01*
X138177216Y-115889200D01*
X137880657Y-115948189D01*
X137601305Y-116063901D01*
X137349895Y-116231888D01*
X137283456Y-116298327D01*
X137277902Y-116280020D01*
X137218937Y-116169706D01*
X137139585Y-116073015D01*
X137042894Y-115993663D01*
X136932580Y-115934698D01*
X136812882Y-115898388D01*
X136688400Y-115886128D01*
X134888400Y-115886128D01*
X134763918Y-115898388D01*
X134644220Y-115934698D01*
X134533906Y-115993663D01*
X134437215Y-116073015D01*
X134357863Y-116169706D01*
X134298898Y-116280020D01*
X134262588Y-116399718D01*
X134250328Y-116524200D01*
X125038014Y-116524200D01*
X125050400Y-116461932D01*
X125050400Y-116100468D01*
X124979882Y-115745950D01*
X124841556Y-115412001D01*
X124640738Y-115111456D01*
X124385144Y-114855862D01*
X124084599Y-114655044D01*
X123750650Y-114516718D01*
X123396132Y-114446200D01*
X123034668Y-114446200D01*
X122680150Y-114516718D01*
X122346201Y-114655044D01*
X122045656Y-114855862D01*
X121790062Y-115111456D01*
X121766847Y-115146200D01*
X120375552Y-115146200D01*
X120319800Y-115140709D01*
X120097301Y-115162623D01*
X119883353Y-115227524D01*
X119686177Y-115332916D01*
X119556656Y-115439211D01*
X119556654Y-115439213D01*
X119513351Y-115474751D01*
X119477813Y-115518054D01*
X117461164Y-117534704D01*
X117417851Y-117570251D01*
X117276016Y-117743077D01*
X117207137Y-117871943D01*
X117170624Y-117940254D01*
X117105723Y-118154202D01*
X117083809Y-118376700D01*
X117089300Y-118432452D01*
X117089301Y-122366807D01*
X116497566Y-122958542D01*
X116501800Y-122915552D01*
X116507291Y-122859800D01*
X116501800Y-122804048D01*
X116501800Y-111061600D01*
X116595728Y-111061600D01*
X116595728Y-112661600D01*
X116607988Y-112786082D01*
X116644298Y-112905780D01*
X116703263Y-113016094D01*
X116782615Y-113112785D01*
X116879306Y-113192137D01*
X116989620Y-113251102D01*
X117109318Y-113287412D01*
X117233800Y-113299672D01*
X118833800Y-113299672D01*
X118958282Y-113287412D01*
X119077980Y-113251102D01*
X119188294Y-113192137D01*
X119284985Y-113112785D01*
X119364337Y-113016094D01*
X119423302Y-112905780D01*
X119459612Y-112786082D01*
X119471872Y-112661600D01*
X119471872Y-111061600D01*
X119459612Y-110937118D01*
X119423302Y-110817420D01*
X119364337Y-110707106D01*
X119284985Y-110610415D01*
X119188294Y-110531063D01*
X119077980Y-110472098D01*
X118958282Y-110435788D01*
X118949839Y-110434957D01*
X119148437Y-110236359D01*
X119305480Y-110001327D01*
X119413653Y-109740174D01*
X119468800Y-109462935D01*
X119468800Y-109363767D01*
X121605800Y-109363767D01*
X121605800Y-109685833D01*
X121668632Y-110001712D01*
X121791882Y-110299263D01*
X121970813Y-110567052D01*
X122198548Y-110794787D01*
X122466337Y-110973718D01*
X122763888Y-111096968D01*
X123079767Y-111159800D01*
X123401833Y-111159800D01*
X123717712Y-111096968D01*
X124015263Y-110973718D01*
X124283052Y-110794787D01*
X124510787Y-110567052D01*
X124689718Y-110299263D01*
X124812968Y-110001712D01*
X124875800Y-109685833D01*
X124875800Y-109363767D01*
X124812968Y-109047888D01*
X124689718Y-108750337D01*
X124510787Y-108482548D01*
X124283052Y-108254813D01*
X124266570Y-108243800D01*
X134329068Y-108243800D01*
X134329068Y-110043800D01*
X134341328Y-110168282D01*
X134377638Y-110287980D01*
X134436603Y-110398294D01*
X134515955Y-110494985D01*
X134612646Y-110574337D01*
X134722960Y-110633302D01*
X134842658Y-110669612D01*
X134967140Y-110681872D01*
X136767140Y-110681872D01*
X136891622Y-110669612D01*
X137011320Y-110633302D01*
X137121634Y-110574337D01*
X137218325Y-110494985D01*
X137297677Y-110398294D01*
X137356642Y-110287980D01*
X137362196Y-110269673D01*
X137428635Y-110336112D01*
X137680045Y-110504099D01*
X137959397Y-110619811D01*
X138255956Y-110678800D01*
X138558324Y-110678800D01*
X138854883Y-110619811D01*
X139134235Y-110504099D01*
X139385645Y-110336112D01*
X139599452Y-110122305D01*
X139767439Y-109870895D01*
X139883151Y-109591543D01*
X139942140Y-109294984D01*
X139942140Y-108992616D01*
X139883151Y-108696057D01*
X139767439Y-108416705D01*
X139638117Y-108223161D01*
X141776397Y-108223161D01*
X141776397Y-110023161D01*
X141788657Y-110147643D01*
X141824967Y-110267341D01*
X141883932Y-110377655D01*
X141963284Y-110474346D01*
X142059975Y-110553698D01*
X142170289Y-110612663D01*
X142289987Y-110648973D01*
X142414469Y-110661233D01*
X144214469Y-110661233D01*
X144338951Y-110648973D01*
X144458649Y-110612663D01*
X144568963Y-110553698D01*
X144665654Y-110474346D01*
X144745006Y-110377655D01*
X144803971Y-110267341D01*
X144809525Y-110249034D01*
X144875964Y-110315473D01*
X145127374Y-110483460D01*
X145406726Y-110599172D01*
X145703285Y-110658161D01*
X146005653Y-110658161D01*
X146302212Y-110599172D01*
X146581564Y-110483460D01*
X146832974Y-110315473D01*
X147046781Y-110101666D01*
X147214768Y-109850256D01*
X147330480Y-109570904D01*
X147389469Y-109274345D01*
X147389469Y-108971977D01*
X147330480Y-108675418D01*
X147214768Y-108396066D01*
X147046781Y-108144656D01*
X146832974Y-107930849D01*
X146581564Y-107762862D01*
X146302212Y-107647150D01*
X146005653Y-107588161D01*
X145703285Y-107588161D01*
X145406726Y-107647150D01*
X145127374Y-107762862D01*
X144875964Y-107930849D01*
X144809525Y-107997288D01*
X144803971Y-107978981D01*
X144745006Y-107868667D01*
X144665654Y-107771976D01*
X144568963Y-107692624D01*
X144458649Y-107633659D01*
X144338951Y-107597349D01*
X144214469Y-107585089D01*
X142414469Y-107585089D01*
X142289987Y-107597349D01*
X142170289Y-107633659D01*
X142059975Y-107692624D01*
X141963284Y-107771976D01*
X141883932Y-107868667D01*
X141824967Y-107978981D01*
X141788657Y-108098679D01*
X141776397Y-108223161D01*
X139638117Y-108223161D01*
X139599452Y-108165295D01*
X139385645Y-107951488D01*
X139134235Y-107783501D01*
X138854883Y-107667789D01*
X138558324Y-107608800D01*
X138255956Y-107608800D01*
X137959397Y-107667789D01*
X137680045Y-107783501D01*
X137428635Y-107951488D01*
X137362196Y-108017927D01*
X137356642Y-107999620D01*
X137297677Y-107889306D01*
X137218325Y-107792615D01*
X137121634Y-107713263D01*
X137011320Y-107654298D01*
X136891622Y-107617988D01*
X136767140Y-107605728D01*
X134967140Y-107605728D01*
X134842658Y-107617988D01*
X134722960Y-107654298D01*
X134612646Y-107713263D01*
X134515955Y-107792615D01*
X134436603Y-107889306D01*
X134377638Y-107999620D01*
X134341328Y-108119318D01*
X134329068Y-108243800D01*
X124266570Y-108243800D01*
X124015263Y-108075882D01*
X123717712Y-107952632D01*
X123401833Y-107889800D01*
X123079767Y-107889800D01*
X122763888Y-107952632D01*
X122466337Y-108075882D01*
X122198548Y-108254813D01*
X121970813Y-108482548D01*
X121791882Y-108750337D01*
X121668632Y-109047888D01*
X121605800Y-109363767D01*
X119468800Y-109363767D01*
X119468800Y-109180265D01*
X119413653Y-108903026D01*
X119305480Y-108641873D01*
X119148437Y-108406841D01*
X118948559Y-108206963D01*
X118716041Y-108051600D01*
X118948559Y-107896237D01*
X119148437Y-107696359D01*
X119305480Y-107461327D01*
X119413653Y-107200174D01*
X119468800Y-106922935D01*
X119468800Y-106660585D01*
X127492860Y-106660585D01*
X127492860Y-106943255D01*
X127548007Y-107220494D01*
X127656180Y-107481647D01*
X127813223Y-107716679D01*
X128013101Y-107916557D01*
X128248133Y-108073600D01*
X128509286Y-108181773D01*
X128786525Y-108236920D01*
X129069195Y-108236920D01*
X129346434Y-108181773D01*
X129607587Y-108073600D01*
X129842619Y-107916557D01*
X130042497Y-107716679D01*
X130199540Y-107481647D01*
X130307713Y-107220494D01*
X130362860Y-106943255D01*
X130362860Y-106660585D01*
X130307713Y-106383346D01*
X130199540Y-106122193D01*
X130042497Y-105887161D01*
X129842619Y-105687283D01*
X129607587Y-105530240D01*
X129346434Y-105422067D01*
X129069195Y-105366920D01*
X128786525Y-105366920D01*
X128509286Y-105422067D01*
X128248133Y-105530240D01*
X128013101Y-105687283D01*
X127813223Y-105887161D01*
X127656180Y-106122193D01*
X127548007Y-106383346D01*
X127492860Y-106660585D01*
X119468800Y-106660585D01*
X119468800Y-106640265D01*
X119413653Y-106363026D01*
X119305480Y-106101873D01*
X119148437Y-105866841D01*
X118948559Y-105666963D01*
X118716041Y-105511600D01*
X118948559Y-105356237D01*
X119148437Y-105156359D01*
X119305480Y-104921327D01*
X119413653Y-104660174D01*
X119468800Y-104382935D01*
X119468800Y-104363767D01*
X121605800Y-104363767D01*
X121605800Y-104685833D01*
X121668632Y-105001712D01*
X121791882Y-105299263D01*
X121970813Y-105567052D01*
X122198548Y-105794787D01*
X122466337Y-105973718D01*
X122763888Y-106096968D01*
X123079767Y-106159800D01*
X123401833Y-106159800D01*
X123717712Y-106096968D01*
X124015263Y-105973718D01*
X124283052Y-105794787D01*
X124510787Y-105567052D01*
X124689718Y-105299263D01*
X124812968Y-105001712D01*
X124875800Y-104685833D01*
X124875800Y-104363767D01*
X124812968Y-104047888D01*
X124689718Y-103750337D01*
X124510787Y-103482548D01*
X124283052Y-103254813D01*
X124015263Y-103075882D01*
X123717712Y-102952632D01*
X123401833Y-102889800D01*
X123079767Y-102889800D01*
X122763888Y-102952632D01*
X122466337Y-103075882D01*
X122198548Y-103254813D01*
X121970813Y-103482548D01*
X121791882Y-103750337D01*
X121668632Y-104047888D01*
X121605800Y-104363767D01*
X119468800Y-104363767D01*
X119468800Y-104100265D01*
X119413653Y-103823026D01*
X119305480Y-103561873D01*
X119148437Y-103326841D01*
X118948559Y-103126963D01*
X118713527Y-102969920D01*
X118452374Y-102861747D01*
X118175135Y-102806600D01*
X117892465Y-102806600D01*
X117615226Y-102861747D01*
X117354073Y-102969920D01*
X117119041Y-103126963D01*
X116919163Y-103326841D01*
X116762120Y-103561873D01*
X116653947Y-103823026D01*
X116598800Y-104100265D01*
X116598800Y-104382935D01*
X116653947Y-104660174D01*
X116762120Y-104921327D01*
X116919163Y-105156359D01*
X117119041Y-105356237D01*
X117351559Y-105511600D01*
X117119041Y-105666963D01*
X116919163Y-105866841D01*
X116762120Y-106101873D01*
X116653947Y-106363026D01*
X116598800Y-106640265D01*
X116598800Y-106922935D01*
X116653947Y-107200174D01*
X116762120Y-107461327D01*
X116919163Y-107696359D01*
X117119041Y-107896237D01*
X117351559Y-108051600D01*
X117119041Y-108206963D01*
X116919163Y-108406841D01*
X116762120Y-108641873D01*
X116653947Y-108903026D01*
X116598800Y-109180265D01*
X116598800Y-109462935D01*
X116653947Y-109740174D01*
X116762120Y-110001327D01*
X116919163Y-110236359D01*
X117117761Y-110434957D01*
X117109318Y-110435788D01*
X116989620Y-110472098D01*
X116879306Y-110531063D01*
X116782615Y-110610415D01*
X116703263Y-110707106D01*
X116644298Y-110817420D01*
X116607988Y-110937118D01*
X116595728Y-111061600D01*
X116501800Y-111061600D01*
X116501800Y-110152052D01*
X116507291Y-110096300D01*
X116485377Y-109873801D01*
X116420476Y-109659853D01*
X116315084Y-109462677D01*
X116208789Y-109333156D01*
X116208787Y-109333154D01*
X116173249Y-109289851D01*
X116129946Y-109254313D01*
X112894096Y-106018465D01*
X112858549Y-105975151D01*
X112685723Y-105833316D01*
X112488547Y-105727924D01*
X112274599Y-105663023D01*
X112107852Y-105646600D01*
X112107851Y-105646600D01*
X112052100Y-105641109D01*
X111996349Y-105646600D01*
X111298084Y-105646600D01*
X111093527Y-105509920D01*
X111082935Y-105505533D01*
X111268931Y-105393985D01*
X111477319Y-105205014D01*
X111644837Y-104979020D01*
X111765046Y-104724687D01*
X111805704Y-104590639D01*
X111683715Y-104368600D01*
X110540800Y-104368600D01*
X110540800Y-104388600D01*
X110286800Y-104388600D01*
X110286800Y-104368600D01*
X109143885Y-104368600D01*
X109021896Y-104590639D01*
X109062554Y-104724687D01*
X109182763Y-104979020D01*
X109350281Y-105205014D01*
X109558669Y-105393985D01*
X109744665Y-105505533D01*
X109734073Y-105509920D01*
X109499041Y-105666963D01*
X109299163Y-105866841D01*
X109142120Y-106101873D01*
X109033947Y-106363026D01*
X108978800Y-106640265D01*
X108978800Y-106922935D01*
X109033947Y-107200174D01*
X109142120Y-107461327D01*
X109299163Y-107696359D01*
X109499041Y-107896237D01*
X109731559Y-108051600D01*
X109499041Y-108206963D01*
X109299163Y-108406841D01*
X109142120Y-108641873D01*
X109033947Y-108903026D01*
X108978800Y-109180265D01*
X108978800Y-109462935D01*
X109033947Y-109740174D01*
X109142120Y-110001327D01*
X109299163Y-110236359D01*
X109499041Y-110436237D01*
X109731559Y-110591600D01*
X109499041Y-110746963D01*
X109299163Y-110946841D01*
X109142120Y-111181873D01*
X109033947Y-111443026D01*
X108978800Y-111720265D01*
X108978800Y-112002935D01*
X109033947Y-112280174D01*
X109142120Y-112541327D01*
X109299163Y-112776359D01*
X109499041Y-112976237D01*
X109734073Y-113133280D01*
X109995226Y-113241453D01*
X110272465Y-113296600D01*
X110555135Y-113296600D01*
X110832374Y-113241453D01*
X111093527Y-113133280D01*
X111328559Y-112976237D01*
X111528437Y-112776359D01*
X111685480Y-112541327D01*
X111793653Y-112280174D01*
X111848800Y-112002935D01*
X111848800Y-111720265D01*
X111793653Y-111443026D01*
X111685480Y-111181873D01*
X111528437Y-110946841D01*
X111328559Y-110746963D01*
X111096041Y-110591600D01*
X111328559Y-110436237D01*
X111528437Y-110236359D01*
X111685480Y-110001327D01*
X111793653Y-109740174D01*
X111848800Y-109462935D01*
X111848800Y-109180265D01*
X111793653Y-108903026D01*
X111685480Y-108641873D01*
X111528437Y-108406841D01*
X111328559Y-108206963D01*
X111096041Y-108051600D01*
X111298084Y-107916600D01*
X111581969Y-107916600D01*
X114231800Y-110566433D01*
X114231801Y-122389667D01*
X111671342Y-124950127D01*
X111586495Y-124967004D01*
X111343541Y-125067639D01*
X111124887Y-125213738D01*
X110938938Y-125399687D01*
X110792839Y-125618341D01*
X110692204Y-125861295D01*
X110640900Y-126119214D01*
X110640900Y-126382186D01*
X110692204Y-126640105D01*
X110792839Y-126883059D01*
X110938938Y-127101713D01*
X111124887Y-127287662D01*
X111343541Y-127433761D01*
X111586495Y-127534396D01*
X111844414Y-127585700D01*
X111870409Y-127585700D01*
X110731069Y-128725040D01*
X108404893Y-128725040D01*
X105783000Y-126103149D01*
X105783000Y-124930884D01*
X105919680Y-124726327D01*
X106027853Y-124465174D01*
X106083000Y-124187935D01*
X106083000Y-123905265D01*
X106027853Y-123628026D01*
X105919680Y-123366873D01*
X105762637Y-123131841D01*
X105562759Y-122931963D01*
X105327727Y-122774920D01*
X105066574Y-122666747D01*
X104789335Y-122611600D01*
X104506665Y-122611600D01*
X104229426Y-122666747D01*
X103968273Y-122774920D01*
X103733241Y-122931963D01*
X103533363Y-123131841D01*
X103376320Y-123366873D01*
X103268147Y-123628026D01*
X103213000Y-123905265D01*
X100859180Y-123905265D01*
X100613420Y-123856380D01*
X100320900Y-123856380D01*
X100034002Y-123913448D01*
X99763749Y-124025390D01*
X99520528Y-124187905D01*
X99313685Y-124394748D01*
X99151170Y-124637969D01*
X99039228Y-124908222D01*
X98982160Y-125195120D01*
X98982160Y-125487640D01*
X99039228Y-125774538D01*
X99151170Y-126044791D01*
X99313685Y-126288012D01*
X99520528Y-126494855D01*
X99694920Y-126611380D01*
X99520528Y-126727905D01*
X99313685Y-126934748D01*
X99151170Y-127177969D01*
X99039228Y-127448222D01*
X98982160Y-127735120D01*
X98982160Y-128027640D01*
X99039228Y-128314538D01*
X99151170Y-128584791D01*
X99313685Y-128828012D01*
X99445540Y-128959867D01*
X99372980Y-128981878D01*
X99262666Y-129040843D01*
X99165975Y-129120195D01*
X99086623Y-129216886D01*
X99027658Y-129327200D01*
X98991348Y-129446898D01*
X98979088Y-129571380D01*
X96660000Y-129571380D01*
X96660000Y-121586868D01*
X108274000Y-121586868D01*
X108274000Y-121948332D01*
X108344518Y-122302850D01*
X108482844Y-122636799D01*
X108683662Y-122937344D01*
X108939256Y-123192938D01*
X109239801Y-123393756D01*
X109573750Y-123532082D01*
X109928268Y-123602600D01*
X110289732Y-123602600D01*
X110644250Y-123532082D01*
X110978199Y-123393756D01*
X111278744Y-123192938D01*
X111534338Y-122937344D01*
X111735156Y-122636799D01*
X111873482Y-122302850D01*
X111944000Y-121948332D01*
X111944000Y-121586868D01*
X111873482Y-121232350D01*
X111735156Y-120898401D01*
X111534338Y-120597856D01*
X111278744Y-120342262D01*
X110978199Y-120141444D01*
X110644250Y-120003118D01*
X110289732Y-119932600D01*
X109928268Y-119932600D01*
X109573750Y-120003118D01*
X109239801Y-120141444D01*
X108939256Y-120342262D01*
X108683662Y-120597856D01*
X108482844Y-120898401D01*
X108344518Y-121232350D01*
X108274000Y-121586868D01*
X96660000Y-121586868D01*
X96660000Y-115558200D01*
X98867328Y-115558200D01*
X98867328Y-117258200D01*
X98879588Y-117382682D01*
X98915898Y-117502380D01*
X98974863Y-117612694D01*
X99054215Y-117709385D01*
X99150906Y-117788737D01*
X99261220Y-117847702D01*
X99333780Y-117869713D01*
X99201925Y-118001568D01*
X99039410Y-118244789D01*
X98927468Y-118515042D01*
X98870400Y-118801940D01*
X98870400Y-119094460D01*
X98927468Y-119381358D01*
X99039410Y-119651611D01*
X99201925Y-119894832D01*
X99408768Y-120101675D01*
X99651989Y-120264190D01*
X99922242Y-120376132D01*
X100209140Y-120433200D01*
X100501660Y-120433200D01*
X100788558Y-120376132D01*
X101058811Y-120264190D01*
X101302032Y-120101675D01*
X101508875Y-119894832D01*
X101671390Y-119651611D01*
X101783332Y-119381358D01*
X101840400Y-119094460D01*
X101840400Y-118801940D01*
X101783332Y-118515042D01*
X101671390Y-118244789D01*
X101508875Y-118001568D01*
X101377020Y-117869713D01*
X101449580Y-117847702D01*
X101559894Y-117788737D01*
X101656585Y-117709385D01*
X101735937Y-117612694D01*
X101794902Y-117502380D01*
X101831212Y-117382682D01*
X101843472Y-117258200D01*
X101843472Y-115558200D01*
X101831212Y-115433718D01*
X101794902Y-115314020D01*
X101735937Y-115203706D01*
X101656585Y-115107015D01*
X101625130Y-115081200D01*
X108677328Y-115081200D01*
X108677328Y-117481200D01*
X108689588Y-117605682D01*
X108725898Y-117725380D01*
X108784863Y-117835694D01*
X108864215Y-117932385D01*
X108960906Y-118011737D01*
X109071220Y-118070702D01*
X109190918Y-118107012D01*
X109315400Y-118119272D01*
X111715400Y-118119272D01*
X111839882Y-118107012D01*
X111959580Y-118070702D01*
X112069894Y-118011737D01*
X112166585Y-117932385D01*
X112245937Y-117835694D01*
X112304902Y-117725380D01*
X112341212Y-117605682D01*
X112353472Y-117481200D01*
X112353472Y-115081200D01*
X112341212Y-114956718D01*
X112304902Y-114837020D01*
X112245937Y-114726706D01*
X112166585Y-114630015D01*
X112069894Y-114550663D01*
X111959580Y-114491698D01*
X111839882Y-114455388D01*
X111715400Y-114443128D01*
X109315400Y-114443128D01*
X109190918Y-114455388D01*
X109071220Y-114491698D01*
X108960906Y-114550663D01*
X108864215Y-114630015D01*
X108784863Y-114726706D01*
X108725898Y-114837020D01*
X108689588Y-114956718D01*
X108677328Y-115081200D01*
X101625130Y-115081200D01*
X101559894Y-115027663D01*
X101449580Y-114968698D01*
X101329882Y-114932388D01*
X101205400Y-114920128D01*
X99505400Y-114920128D01*
X99380918Y-114932388D01*
X99261220Y-114968698D01*
X99150906Y-115027663D01*
X99054215Y-115107015D01*
X98974863Y-115203706D01*
X98915898Y-115314020D01*
X98879588Y-115433718D01*
X98867328Y-115558200D01*
X96660000Y-115558200D01*
X96660000Y-111268767D01*
X104219500Y-111268767D01*
X104219500Y-111590833D01*
X104282332Y-111906712D01*
X104405582Y-112204263D01*
X104584513Y-112472052D01*
X104812248Y-112699787D01*
X105080037Y-112878718D01*
X105377588Y-113001968D01*
X105693467Y-113064800D01*
X106015533Y-113064800D01*
X106331412Y-113001968D01*
X106628963Y-112878718D01*
X106896752Y-112699787D01*
X107124487Y-112472052D01*
X107303418Y-112204263D01*
X107426668Y-111906712D01*
X107489500Y-111590833D01*
X107489500Y-111268767D01*
X107426668Y-110952888D01*
X107303418Y-110655337D01*
X107124487Y-110387548D01*
X106896752Y-110159813D01*
X106628963Y-109980882D01*
X106331412Y-109857632D01*
X106015533Y-109794800D01*
X105693467Y-109794800D01*
X105377588Y-109857632D01*
X105080037Y-109980882D01*
X104812248Y-110159813D01*
X104584513Y-110387548D01*
X104405582Y-110655337D01*
X104282332Y-110952888D01*
X104219500Y-111268767D01*
X96660000Y-111268767D01*
X96660000Y-107565213D01*
X104898692Y-107565213D01*
X104994456Y-107829614D01*
X105284071Y-107970504D01*
X105595608Y-108052184D01*
X105917095Y-108071518D01*
X106236175Y-108027761D01*
X106540588Y-107922595D01*
X106714544Y-107829614D01*
X106810308Y-107565213D01*
X105854500Y-106609405D01*
X104898692Y-107565213D01*
X96660000Y-107565213D01*
X96660000Y-106492395D01*
X104212782Y-106492395D01*
X104256539Y-106811475D01*
X104361705Y-107115888D01*
X104454686Y-107289844D01*
X104719087Y-107385608D01*
X105674895Y-106429800D01*
X106034105Y-106429800D01*
X106989913Y-107385608D01*
X107254314Y-107289844D01*
X107395204Y-107000229D01*
X107476884Y-106688692D01*
X107496218Y-106367205D01*
X107452461Y-106048125D01*
X107347295Y-105743712D01*
X107254314Y-105569756D01*
X106989913Y-105473992D01*
X106034105Y-106429800D01*
X105674895Y-106429800D01*
X104719087Y-105473992D01*
X104454686Y-105569756D01*
X104313796Y-105859371D01*
X104232116Y-106170908D01*
X104212782Y-106492395D01*
X96660000Y-106492395D01*
X96660000Y-105294387D01*
X104898692Y-105294387D01*
X105854500Y-106250195D01*
X106810308Y-105294387D01*
X106714544Y-105029986D01*
X106424929Y-104889096D01*
X106113392Y-104807416D01*
X105791905Y-104788082D01*
X105472825Y-104831839D01*
X105168412Y-104937005D01*
X104994456Y-105029986D01*
X104898692Y-105294387D01*
X96660000Y-105294387D01*
X96660000Y-103892561D01*
X109021896Y-103892561D01*
X109143885Y-104114600D01*
X110286800Y-104114600D01*
X110286800Y-102970976D01*
X110540800Y-102970976D01*
X110540800Y-104114600D01*
X111683715Y-104114600D01*
X111805704Y-103892561D01*
X111765046Y-103758513D01*
X111644837Y-103504180D01*
X111477319Y-103278186D01*
X111268931Y-103089215D01*
X111027681Y-102944530D01*
X110762840Y-102849691D01*
X110540800Y-102970976D01*
X110286800Y-102970976D01*
X110064760Y-102849691D01*
X109799919Y-102944530D01*
X109558669Y-103089215D01*
X109350281Y-103278186D01*
X109182763Y-103504180D01*
X109062554Y-103758513D01*
X109021896Y-103892561D01*
X96660000Y-103892561D01*
X96660000Y-101954208D01*
X98225397Y-101954208D01*
X98459537Y-102336330D01*
X98944932Y-102591967D01*
X99470873Y-102747997D01*
X100017148Y-102798422D01*
X100562764Y-102741306D01*
X101086752Y-102578842D01*
X101540463Y-102336330D01*
X101774603Y-101954208D01*
X142225397Y-101954208D01*
X142459537Y-102336330D01*
X142944932Y-102591967D01*
X143470873Y-102747997D01*
X144017148Y-102798422D01*
X144562764Y-102741306D01*
X145086752Y-102578842D01*
X145540463Y-102336330D01*
X145774603Y-101954208D01*
X144000000Y-100179605D01*
X142225397Y-101954208D01*
X101774603Y-101954208D01*
X100000000Y-100179605D01*
X98225397Y-101954208D01*
X96660000Y-101954208D01*
X96660000Y-100017148D01*
X97201578Y-100017148D01*
X97258694Y-100562764D01*
X97421158Y-101086752D01*
X97663670Y-101540463D01*
X98045792Y-101774603D01*
X99820395Y-100000000D01*
X100179605Y-100000000D01*
X101954208Y-101774603D01*
X102336330Y-101540463D01*
X102591967Y-101055068D01*
X102747997Y-100529127D01*
X102798422Y-99982852D01*
X102741306Y-99437236D01*
X102615559Y-99031668D01*
X111347400Y-99031668D01*
X111347400Y-99393132D01*
X111417918Y-99747650D01*
X111556244Y-100081599D01*
X111757062Y-100382144D01*
X112012656Y-100637738D01*
X112313201Y-100838556D01*
X112647150Y-100976882D01*
X113001668Y-101047400D01*
X113363132Y-101047400D01*
X113717650Y-100976882D01*
X114051599Y-100838556D01*
X114352144Y-100637738D01*
X114607738Y-100382144D01*
X114808556Y-100081599D01*
X114946882Y-99747650D01*
X115017400Y-99393132D01*
X115017400Y-99031668D01*
X131667400Y-99031668D01*
X131667400Y-99393132D01*
X131737918Y-99747650D01*
X131876244Y-100081599D01*
X132077062Y-100382144D01*
X132332656Y-100637738D01*
X132633201Y-100838556D01*
X132967150Y-100976882D01*
X133321668Y-101047400D01*
X133683132Y-101047400D01*
X134037650Y-100976882D01*
X134371599Y-100838556D01*
X134672144Y-100637738D01*
X134927738Y-100382144D01*
X135128556Y-100081599D01*
X135155252Y-100017148D01*
X141201578Y-100017148D01*
X141258694Y-100562764D01*
X141421158Y-101086752D01*
X141663670Y-101540463D01*
X142045792Y-101774603D01*
X143820395Y-100000000D01*
X144179605Y-100000000D01*
X145954208Y-101774603D01*
X146336330Y-101540463D01*
X146591967Y-101055068D01*
X146747997Y-100529127D01*
X146798422Y-99982852D01*
X146741306Y-99437236D01*
X146578842Y-98913248D01*
X146336330Y-98459537D01*
X145954208Y-98225397D01*
X144179605Y-100000000D01*
X143820395Y-100000000D01*
X142045792Y-98225397D01*
X141663670Y-98459537D01*
X141408033Y-98944932D01*
X141252003Y-99470873D01*
X141201578Y-100017148D01*
X135155252Y-100017148D01*
X135266882Y-99747650D01*
X135337400Y-99393132D01*
X135337400Y-99031668D01*
X135266882Y-98677150D01*
X135128556Y-98343201D01*
X134929834Y-98045792D01*
X142225397Y-98045792D01*
X144000000Y-99820395D01*
X145774603Y-98045792D01*
X145540463Y-97663670D01*
X145055068Y-97408033D01*
X144529127Y-97252003D01*
X143982852Y-97201578D01*
X143437236Y-97258694D01*
X142913248Y-97421158D01*
X142459537Y-97663670D01*
X142225397Y-98045792D01*
X134929834Y-98045792D01*
X134927738Y-98042656D01*
X134672144Y-97787062D01*
X134371599Y-97586244D01*
X134037650Y-97447918D01*
X133683132Y-97377400D01*
X133321668Y-97377400D01*
X132967150Y-97447918D01*
X132633201Y-97586244D01*
X132332656Y-97787062D01*
X132077062Y-98042656D01*
X131876244Y-98343201D01*
X131737918Y-98677150D01*
X131667400Y-99031668D01*
X115017400Y-99031668D01*
X114946882Y-98677150D01*
X114808556Y-98343201D01*
X114607738Y-98042656D01*
X114352144Y-97787062D01*
X114051599Y-97586244D01*
X113717650Y-97447918D01*
X113363132Y-97377400D01*
X113001668Y-97377400D01*
X112647150Y-97447918D01*
X112313201Y-97586244D01*
X112012656Y-97787062D01*
X111757062Y-98042656D01*
X111556244Y-98343201D01*
X111417918Y-98677150D01*
X111347400Y-99031668D01*
X102615559Y-99031668D01*
X102578842Y-98913248D01*
X102336330Y-98459537D01*
X101954208Y-98225397D01*
X100179605Y-100000000D01*
X99820395Y-100000000D01*
X98045792Y-98225397D01*
X97663670Y-98459537D01*
X97408033Y-98944932D01*
X97252003Y-99470873D01*
X97201578Y-100017148D01*
X96660000Y-100017148D01*
X96660000Y-98045792D01*
X98225397Y-98045792D01*
X100000000Y-99820395D01*
X101774603Y-98045792D01*
X101540463Y-97663670D01*
X101055068Y-97408033D01*
X100529127Y-97252003D01*
X99982852Y-97201578D01*
X99437236Y-97258694D01*
X98913248Y-97421158D01*
X98459537Y-97663670D01*
X98225397Y-98045792D01*
X96660000Y-98045792D01*
X96660000Y-95660000D01*
X149340000Y-95660000D01*
X149340001Y-162340000D01*
%TA.AperFunction,Conductor*%
D27*
G36*
X149340001Y-162340000D02*
G01*
X96660000Y-162340000D01*
X96660000Y-159954208D01*
X98225397Y-159954208D01*
X98459537Y-160336330D01*
X98944932Y-160591967D01*
X99470873Y-160747997D01*
X100017148Y-160798422D01*
X100562764Y-160741306D01*
X101086752Y-160578842D01*
X101540463Y-160336330D01*
X101774603Y-159954208D01*
X142225397Y-159954208D01*
X142459537Y-160336330D01*
X142944932Y-160591967D01*
X143470873Y-160747997D01*
X144017148Y-160798422D01*
X144562764Y-160741306D01*
X145086752Y-160578842D01*
X145540463Y-160336330D01*
X145774603Y-159954208D01*
X144000000Y-158179605D01*
X142225397Y-159954208D01*
X101774603Y-159954208D01*
X100000000Y-158179605D01*
X98225397Y-159954208D01*
X96660000Y-159954208D01*
X96660000Y-158017148D01*
X97201578Y-158017148D01*
X97258694Y-158562764D01*
X97421158Y-159086752D01*
X97663670Y-159540463D01*
X98045792Y-159774603D01*
X99820395Y-158000000D01*
X100179605Y-158000000D01*
X101954208Y-159774603D01*
X102336330Y-159540463D01*
X102591967Y-159055068D01*
X102747997Y-158529127D01*
X102798422Y-157982852D01*
X102741306Y-157437236D01*
X102578842Y-156913248D01*
X102501634Y-156768800D01*
X104952800Y-156768800D01*
X104952800Y-159105600D01*
X104955240Y-159130376D01*
X104962467Y-159154201D01*
X104974203Y-159176157D01*
X104989997Y-159195403D01*
X105009243Y-159211197D01*
X105031199Y-159222933D01*
X105055024Y-159230160D01*
X105079800Y-159232600D01*
X139166600Y-159232600D01*
X139195337Y-159229306D01*
X139218919Y-159221323D01*
X139240490Y-159208892D01*
X139259221Y-159192492D01*
X139274394Y-159172753D01*
X139285423Y-159150433D01*
X139291887Y-159126391D01*
X139293535Y-159101549D01*
X139258927Y-158017148D01*
X141201578Y-158017148D01*
X141258694Y-158562764D01*
X141421158Y-159086752D01*
X141663670Y-159540463D01*
X142045792Y-159774603D01*
X143820395Y-158000000D01*
X144179605Y-158000000D01*
X145954208Y-159774603D01*
X146336330Y-159540463D01*
X146591967Y-159055068D01*
X146747997Y-158529127D01*
X146798422Y-157982852D01*
X146741306Y-157437236D01*
X146578842Y-156913248D01*
X146336330Y-156459537D01*
X145954208Y-156225397D01*
X144179605Y-158000000D01*
X143820395Y-158000000D01*
X142045792Y-156225397D01*
X141663670Y-156459537D01*
X141408033Y-156944932D01*
X141252003Y-157470873D01*
X141201578Y-158017148D01*
X139258927Y-158017148D01*
X139217335Y-156713949D01*
X139214923Y-156693038D01*
X139207660Y-156669224D01*
X139195891Y-156647285D01*
X139180068Y-156628063D01*
X139160800Y-156612298D01*
X139138825Y-156600595D01*
X139114990Y-156593403D01*
X139090210Y-156591000D01*
X105079610Y-156641800D01*
X105055024Y-156644240D01*
X105031199Y-156651467D01*
X105009243Y-156663203D01*
X104989997Y-156678997D01*
X104974203Y-156698243D01*
X104962467Y-156720199D01*
X104955240Y-156744024D01*
X104952800Y-156768800D01*
X102501634Y-156768800D01*
X102336330Y-156459537D01*
X101954208Y-156225397D01*
X100179605Y-158000000D01*
X99820395Y-158000000D01*
X98045792Y-156225397D01*
X97663670Y-156459537D01*
X97408033Y-156944932D01*
X97252003Y-157470873D01*
X97201578Y-158017148D01*
X96660000Y-158017148D01*
X96660000Y-156045792D01*
X98225397Y-156045792D01*
X100000000Y-157820395D01*
X101774603Y-156045792D01*
X142225397Y-156045792D01*
X144000000Y-157820395D01*
X145774603Y-156045792D01*
X145540463Y-155663670D01*
X145055068Y-155408033D01*
X144529127Y-155252003D01*
X143982852Y-155201578D01*
X143437236Y-155258694D01*
X142913248Y-155421158D01*
X142459537Y-155663670D01*
X142225397Y-156045792D01*
X101774603Y-156045792D01*
X101540463Y-155663670D01*
X101055068Y-155408033D01*
X100529127Y-155252003D01*
X99982852Y-155201578D01*
X99437236Y-155258694D01*
X98913248Y-155421158D01*
X98459537Y-155663670D01*
X98225397Y-156045792D01*
X96660000Y-156045792D01*
X96660000Y-150831340D01*
X119943891Y-150831340D01*
X120038730Y-151096181D01*
X120183415Y-151337431D01*
X120372386Y-151545819D01*
X120598380Y-151713337D01*
X120852713Y-151833546D01*
X120986761Y-151874204D01*
X121208800Y-151752215D01*
X121208800Y-150609300D01*
X121462800Y-150609300D01*
X121462800Y-151752215D01*
X121684839Y-151874204D01*
X121818887Y-151833546D01*
X122073220Y-151713337D01*
X122299214Y-151545819D01*
X122488185Y-151337431D01*
X122632870Y-151096181D01*
X122727709Y-150831340D01*
X122606424Y-150609300D01*
X121462800Y-150609300D01*
X121208800Y-150609300D01*
X120065176Y-150609300D01*
X119943891Y-150831340D01*
X96660000Y-150831340D01*
X96660000Y-149548640D01*
X114851191Y-149548640D01*
X114946030Y-149813481D01*
X115090715Y-150054731D01*
X115279686Y-150263119D01*
X115505680Y-150430637D01*
X115760013Y-150550846D01*
X115894061Y-150591504D01*
X116116100Y-150469515D01*
X116116100Y-149326600D01*
X116370100Y-149326600D01*
X116370100Y-150469515D01*
X116592139Y-150591504D01*
X116726187Y-150550846D01*
X116980520Y-150430637D01*
X117206514Y-150263119D01*
X117324273Y-150133260D01*
X119943891Y-150133260D01*
X120065176Y-150355300D01*
X121208800Y-150355300D01*
X121208800Y-149212385D01*
X121462800Y-149212385D01*
X121462800Y-150355300D01*
X122606424Y-150355300D01*
X122727709Y-150133260D01*
X122632870Y-149868419D01*
X122488185Y-149627169D01*
X122299214Y-149418781D01*
X122073220Y-149251263D01*
X121818887Y-149131054D01*
X121684839Y-149090396D01*
X121462800Y-149212385D01*
X121208800Y-149212385D01*
X120986761Y-149090396D01*
X120852713Y-149131054D01*
X120598380Y-149251263D01*
X120372386Y-149418781D01*
X120183415Y-149627169D01*
X120038730Y-149868419D01*
X119943891Y-150133260D01*
X117324273Y-150133260D01*
X117395485Y-150054731D01*
X117540170Y-149813481D01*
X117635009Y-149548640D01*
X117513724Y-149326600D01*
X116370100Y-149326600D01*
X116116100Y-149326600D01*
X114972476Y-149326600D01*
X114851191Y-149548640D01*
X96660000Y-149548640D01*
X96660000Y-147858665D01*
X104565000Y-147858665D01*
X104565000Y-148141335D01*
X104620147Y-148418574D01*
X104728320Y-148679727D01*
X104885363Y-148914759D01*
X105085241Y-149114637D01*
X105320273Y-149271680D01*
X105581426Y-149379853D01*
X105858665Y-149435000D01*
X106141335Y-149435000D01*
X106418574Y-149379853D01*
X106679727Y-149271680D01*
X106914759Y-149114637D01*
X107114637Y-148914759D01*
X107157533Y-148850560D01*
X114851191Y-148850560D01*
X114972476Y-149072600D01*
X116116100Y-149072600D01*
X116116100Y-147929685D01*
X116370100Y-147929685D01*
X116370100Y-149072600D01*
X117513724Y-149072600D01*
X117635009Y-148850560D01*
X117540170Y-148585719D01*
X117395485Y-148344469D01*
X117206514Y-148136081D01*
X116980520Y-147968563D01*
X116846259Y-147905105D01*
X125072240Y-147905105D01*
X125072240Y-148187775D01*
X125127387Y-148465014D01*
X125235560Y-148726167D01*
X125392603Y-148961199D01*
X125592481Y-149161077D01*
X125827513Y-149318120D01*
X126088666Y-149426293D01*
X126365905Y-149481440D01*
X126648575Y-149481440D01*
X126925814Y-149426293D01*
X127186967Y-149318120D01*
X127421999Y-149161077D01*
X127621877Y-148961199D01*
X127778920Y-148726167D01*
X127887093Y-148465014D01*
X127942240Y-148187775D01*
X127942240Y-147905105D01*
X127887093Y-147627866D01*
X127817812Y-147460605D01*
X131841340Y-147460605D01*
X131841340Y-147743275D01*
X131896487Y-148020514D01*
X132004660Y-148281667D01*
X132161703Y-148516699D01*
X132361581Y-148716577D01*
X132596613Y-148873620D01*
X132857766Y-148981793D01*
X133135005Y-149036940D01*
X133417675Y-149036940D01*
X133694914Y-148981793D01*
X133956067Y-148873620D01*
X134191099Y-148716577D01*
X134390977Y-148516699D01*
X134548020Y-148281667D01*
X134656193Y-148020514D01*
X134711340Y-147743275D01*
X134711340Y-147460605D01*
X134680679Y-147306460D01*
X136554108Y-147306460D01*
X136554108Y-149106460D01*
X136566368Y-149230942D01*
X136602678Y-149350640D01*
X136661643Y-149460954D01*
X136740995Y-149557645D01*
X136837686Y-149636997D01*
X136948000Y-149695962D01*
X137067698Y-149732272D01*
X137192180Y-149744532D01*
X138992180Y-149744532D01*
X139116662Y-149732272D01*
X139236360Y-149695962D01*
X139346674Y-149636997D01*
X139443365Y-149557645D01*
X139522717Y-149460954D01*
X139581682Y-149350640D01*
X139587236Y-149332333D01*
X139653675Y-149398772D01*
X139905085Y-149566759D01*
X140184437Y-149682471D01*
X140480996Y-149741460D01*
X140783364Y-149741460D01*
X141079923Y-149682471D01*
X141359275Y-149566759D01*
X141610685Y-149398772D01*
X141824492Y-149184965D01*
X141992479Y-148933555D01*
X142108191Y-148654203D01*
X142167180Y-148357644D01*
X142167180Y-148055276D01*
X142108191Y-147758717D01*
X141992479Y-147479365D01*
X141929560Y-147385200D01*
X142307208Y-147385200D01*
X142307208Y-149185200D01*
X142319468Y-149309682D01*
X142355778Y-149429380D01*
X142414743Y-149539694D01*
X142494095Y-149636385D01*
X142590786Y-149715737D01*
X142701100Y-149774702D01*
X142820798Y-149811012D01*
X142945280Y-149823272D01*
X144745280Y-149823272D01*
X144869762Y-149811012D01*
X144989460Y-149774702D01*
X145099774Y-149715737D01*
X145196465Y-149636385D01*
X145275817Y-149539694D01*
X145334782Y-149429380D01*
X145340336Y-149411073D01*
X145406775Y-149477512D01*
X145658185Y-149645499D01*
X145937537Y-149761211D01*
X146234096Y-149820200D01*
X146536464Y-149820200D01*
X146833023Y-149761211D01*
X147112375Y-149645499D01*
X147363785Y-149477512D01*
X147577592Y-149263705D01*
X147745579Y-149012295D01*
X147861291Y-148732943D01*
X147920280Y-148436384D01*
X147920280Y-148134016D01*
X147861291Y-147837457D01*
X147745579Y-147558105D01*
X147577592Y-147306695D01*
X147363785Y-147092888D01*
X147112375Y-146924901D01*
X146833023Y-146809189D01*
X146536464Y-146750200D01*
X146234096Y-146750200D01*
X145937537Y-146809189D01*
X145658185Y-146924901D01*
X145406775Y-147092888D01*
X145340336Y-147159327D01*
X145334782Y-147141020D01*
X145275817Y-147030706D01*
X145196465Y-146934015D01*
X145099774Y-146854663D01*
X144989460Y-146795698D01*
X144869762Y-146759388D01*
X144745280Y-146747128D01*
X142945280Y-146747128D01*
X142820798Y-146759388D01*
X142701100Y-146795698D01*
X142590786Y-146854663D01*
X142494095Y-146934015D01*
X142414743Y-147030706D01*
X142355778Y-147141020D01*
X142319468Y-147260718D01*
X142307208Y-147385200D01*
X141929560Y-147385200D01*
X141824492Y-147227955D01*
X141610685Y-147014148D01*
X141359275Y-146846161D01*
X141079923Y-146730449D01*
X140783364Y-146671460D01*
X140480996Y-146671460D01*
X140184437Y-146730449D01*
X139905085Y-146846161D01*
X139653675Y-147014148D01*
X139587236Y-147080587D01*
X139581682Y-147062280D01*
X139522717Y-146951966D01*
X139443365Y-146855275D01*
X139346674Y-146775923D01*
X139236360Y-146716958D01*
X139116662Y-146680648D01*
X138992180Y-146668388D01*
X137192180Y-146668388D01*
X137067698Y-146680648D01*
X136948000Y-146716958D01*
X136837686Y-146775923D01*
X136740995Y-146855275D01*
X136661643Y-146951966D01*
X136602678Y-147062280D01*
X136566368Y-147181978D01*
X136554108Y-147306460D01*
X134680679Y-147306460D01*
X134656193Y-147183366D01*
X134548020Y-146922213D01*
X134390977Y-146687181D01*
X134191099Y-146487303D01*
X133956067Y-146330260D01*
X133694914Y-146222087D01*
X133417675Y-146166940D01*
X133135005Y-146166940D01*
X132857766Y-146222087D01*
X132596613Y-146330260D01*
X132361581Y-146487303D01*
X132161703Y-146687181D01*
X132004660Y-146922213D01*
X131896487Y-147183366D01*
X131841340Y-147460605D01*
X127817812Y-147460605D01*
X127778920Y-147366713D01*
X127621877Y-147131681D01*
X127421999Y-146931803D01*
X127186967Y-146774760D01*
X126925814Y-146666587D01*
X126648575Y-146611440D01*
X126365905Y-146611440D01*
X126088666Y-146666587D01*
X125827513Y-146774760D01*
X125592481Y-146931803D01*
X125392603Y-147131681D01*
X125235560Y-147366713D01*
X125127387Y-147627866D01*
X125072240Y-147905105D01*
X116846259Y-147905105D01*
X116726187Y-147848354D01*
X116592139Y-147807696D01*
X116370100Y-147929685D01*
X116116100Y-147929685D01*
X115894061Y-147807696D01*
X115760013Y-147848354D01*
X115505680Y-147968563D01*
X115279686Y-148136081D01*
X115090715Y-148344469D01*
X114946030Y-148585719D01*
X114851191Y-148850560D01*
X107157533Y-148850560D01*
X107271680Y-148679727D01*
X107379853Y-148418574D01*
X107435000Y-148141335D01*
X107435000Y-147858665D01*
X107379853Y-147581426D01*
X107271680Y-147320273D01*
X107114637Y-147085241D01*
X106914759Y-146885363D01*
X106679727Y-146728320D01*
X106418574Y-146620147D01*
X106141335Y-146565000D01*
X105858665Y-146565000D01*
X105581426Y-146620147D01*
X105320273Y-146728320D01*
X105085241Y-146885363D01*
X104885363Y-147085241D01*
X104728320Y-147320273D01*
X104620147Y-147581426D01*
X104565000Y-147858665D01*
X96660000Y-147858665D01*
X96660000Y-137019400D01*
X99118788Y-137019400D01*
X99131048Y-137143882D01*
X99167358Y-137263580D01*
X99226323Y-137373894D01*
X99305675Y-137470585D01*
X99402366Y-137549937D01*
X99512680Y-137608902D01*
X99585240Y-137630913D01*
X99453385Y-137762768D01*
X99290870Y-138005989D01*
X99178928Y-138276242D01*
X99121860Y-138563140D01*
X99121860Y-138855660D01*
X99178928Y-139142558D01*
X99290870Y-139412811D01*
X99453385Y-139656032D01*
X99660228Y-139862875D01*
X99834620Y-139979400D01*
X99660228Y-140095925D01*
X99453385Y-140302768D01*
X99290870Y-140545989D01*
X99178928Y-140816242D01*
X99121860Y-141103140D01*
X99121860Y-141395660D01*
X99178928Y-141682558D01*
X99290870Y-141952811D01*
X99453385Y-142196032D01*
X99660228Y-142402875D01*
X99834620Y-142519400D01*
X99660228Y-142635925D01*
X99453385Y-142842768D01*
X99290870Y-143085989D01*
X99178928Y-143356242D01*
X99121860Y-143643140D01*
X99121860Y-143935660D01*
X99178928Y-144222558D01*
X99290870Y-144492811D01*
X99453385Y-144736032D01*
X99660228Y-144942875D01*
X99903449Y-145105390D01*
X100173702Y-145217332D01*
X100460600Y-145274400D01*
X100753120Y-145274400D01*
X101040018Y-145217332D01*
X101310271Y-145105390D01*
X101553492Y-144942875D01*
X101760335Y-144736032D01*
X101922850Y-144492811D01*
X102034792Y-144222558D01*
X102091860Y-143935660D01*
X102091860Y-143643140D01*
X102034792Y-143356242D01*
X101922850Y-143085989D01*
X101760335Y-142842768D01*
X101553492Y-142635925D01*
X101379100Y-142519400D01*
X101553492Y-142402875D01*
X101760335Y-142196032D01*
X101922850Y-141952811D01*
X102034792Y-141682558D01*
X102091860Y-141395660D01*
X102091860Y-141103140D01*
X102034792Y-140816242D01*
X101930849Y-140565300D01*
X136297568Y-140565300D01*
X136297568Y-142365300D01*
X136309828Y-142489782D01*
X136346138Y-142609480D01*
X136405103Y-142719794D01*
X136484455Y-142816485D01*
X136581146Y-142895837D01*
X136691460Y-142954802D01*
X136811158Y-142991112D01*
X136935640Y-143003372D01*
X138735640Y-143003372D01*
X138860122Y-142991112D01*
X138979820Y-142954802D01*
X139090134Y-142895837D01*
X139186825Y-142816485D01*
X139266177Y-142719794D01*
X139325142Y-142609480D01*
X139330696Y-142591173D01*
X139397135Y-142657612D01*
X139648545Y-142825599D01*
X139927897Y-142941311D01*
X140224456Y-143000300D01*
X140526824Y-143000300D01*
X140823383Y-142941311D01*
X141102735Y-142825599D01*
X141354145Y-142657612D01*
X141567952Y-142443805D01*
X141735939Y-142192395D01*
X141851651Y-141913043D01*
X141910640Y-141616484D01*
X141910640Y-141314116D01*
X141851651Y-141017557D01*
X141735939Y-140738205D01*
X141610225Y-140550060D01*
X142004948Y-140550060D01*
X142004948Y-142350060D01*
X142017208Y-142474542D01*
X142053518Y-142594240D01*
X142112483Y-142704554D01*
X142191835Y-142801245D01*
X142288526Y-142880597D01*
X142398840Y-142939562D01*
X142518538Y-142975872D01*
X142643020Y-142988132D01*
X144443020Y-142988132D01*
X144567502Y-142975872D01*
X144687200Y-142939562D01*
X144797514Y-142880597D01*
X144894205Y-142801245D01*
X144973557Y-142704554D01*
X145032522Y-142594240D01*
X145038076Y-142575933D01*
X145104515Y-142642372D01*
X145355925Y-142810359D01*
X145635277Y-142926071D01*
X145931836Y-142985060D01*
X146234204Y-142985060D01*
X146530763Y-142926071D01*
X146810115Y-142810359D01*
X147061525Y-142642372D01*
X147275332Y-142428565D01*
X147443319Y-142177155D01*
X147559031Y-141897803D01*
X147618020Y-141601244D01*
X147618020Y-141298876D01*
X147559031Y-141002317D01*
X147443319Y-140722965D01*
X147275332Y-140471555D01*
X147061525Y-140257748D01*
X146810115Y-140089761D01*
X146530763Y-139974049D01*
X146234204Y-139915060D01*
X145931836Y-139915060D01*
X145635277Y-139974049D01*
X145355925Y-140089761D01*
X145104515Y-140257748D01*
X145038076Y-140324187D01*
X145032522Y-140305880D01*
X144973557Y-140195566D01*
X144894205Y-140098875D01*
X144797514Y-140019523D01*
X144687200Y-139960558D01*
X144567502Y-139924248D01*
X144443020Y-139911988D01*
X142643020Y-139911988D01*
X142518538Y-139924248D01*
X142398840Y-139960558D01*
X142288526Y-140019523D01*
X142191835Y-140098875D01*
X142112483Y-140195566D01*
X142053518Y-140305880D01*
X142017208Y-140425578D01*
X142004948Y-140550060D01*
X141610225Y-140550060D01*
X141567952Y-140486795D01*
X141354145Y-140272988D01*
X141102735Y-140105001D01*
X140823383Y-139989289D01*
X140526824Y-139930300D01*
X140224456Y-139930300D01*
X139927897Y-139989289D01*
X139648545Y-140105001D01*
X139397135Y-140272988D01*
X139330696Y-140339427D01*
X139325142Y-140321120D01*
X139266177Y-140210806D01*
X139186825Y-140114115D01*
X139090134Y-140034763D01*
X138979820Y-139975798D01*
X138860122Y-139939488D01*
X138735640Y-139927228D01*
X136935640Y-139927228D01*
X136811158Y-139939488D01*
X136691460Y-139975798D01*
X136581146Y-140034763D01*
X136484455Y-140114115D01*
X136405103Y-140210806D01*
X136346138Y-140321120D01*
X136309828Y-140440818D01*
X136297568Y-140565300D01*
X101930849Y-140565300D01*
X101922850Y-140545989D01*
X101760335Y-140302768D01*
X101553492Y-140095925D01*
X101379100Y-139979400D01*
X101553492Y-139862875D01*
X101760335Y-139656032D01*
X101922850Y-139412811D01*
X102034792Y-139142558D01*
X102091860Y-138855660D01*
X102091860Y-138563140D01*
X102034792Y-138276242D01*
X101922850Y-138005989D01*
X101760335Y-137762768D01*
X101628480Y-137630913D01*
X101701040Y-137608902D01*
X101811354Y-137549937D01*
X101908045Y-137470585D01*
X101987397Y-137373894D01*
X102046362Y-137263580D01*
X102082672Y-137143882D01*
X102094932Y-137019400D01*
X102091860Y-136455150D01*
X101933110Y-136296400D01*
X100733860Y-136296400D01*
X100733860Y-136316400D01*
X100479860Y-136316400D01*
X100479860Y-136296400D01*
X99280610Y-136296400D01*
X99121860Y-136455150D01*
X99118788Y-137019400D01*
X96660000Y-137019400D01*
X96660000Y-135319400D01*
X99118788Y-135319400D01*
X99121860Y-135883650D01*
X99280610Y-136042400D01*
X100479860Y-136042400D01*
X100479860Y-134843150D01*
X100733860Y-134843150D01*
X100733860Y-136042400D01*
X101933110Y-136042400D01*
X102091860Y-135883650D01*
X102094932Y-135319400D01*
X102082672Y-135194918D01*
X102071675Y-135158665D01*
X104565000Y-135158665D01*
X104565000Y-135441335D01*
X104620147Y-135718574D01*
X104728320Y-135979727D01*
X104885363Y-136214759D01*
X105085241Y-136414637D01*
X105320273Y-136571680D01*
X105581426Y-136679853D01*
X105858665Y-136735000D01*
X106141335Y-136735000D01*
X106418574Y-136679853D01*
X106679727Y-136571680D01*
X106914759Y-136414637D01*
X107114637Y-136214759D01*
X107271680Y-135979727D01*
X107379853Y-135718574D01*
X107435000Y-135441335D01*
X107435000Y-135158665D01*
X107379853Y-134881426D01*
X107342799Y-134791969D01*
X111234236Y-134791969D01*
X111293697Y-135025737D01*
X111532142Y-135136634D01*
X111787640Y-135198883D01*
X112050373Y-135210090D01*
X112310244Y-135169825D01*
X112557266Y-135079635D01*
X112658103Y-135025737D01*
X112717564Y-134791969D01*
X111975900Y-134050305D01*
X111234236Y-134791969D01*
X107342799Y-134791969D01*
X107271680Y-134620273D01*
X107114637Y-134385241D01*
X106914759Y-134185363D01*
X106679727Y-134028320D01*
X106478993Y-133945173D01*
X110636510Y-133945173D01*
X110676775Y-134205044D01*
X110766965Y-134452066D01*
X110820863Y-134552903D01*
X111054631Y-134612364D01*
X111796295Y-133870700D01*
X112155505Y-133870700D01*
X112897169Y-134612364D01*
X113130937Y-134552903D01*
X113241834Y-134314458D01*
X113304083Y-134058960D01*
X113314349Y-133818265D01*
X114808100Y-133818265D01*
X114808100Y-134100935D01*
X114863247Y-134378174D01*
X114971420Y-134639327D01*
X115128463Y-134874359D01*
X115328341Y-135074237D01*
X115563373Y-135231280D01*
X115824526Y-135339453D01*
X116101765Y-135394600D01*
X116384435Y-135394600D01*
X116661674Y-135339453D01*
X116922827Y-135231280D01*
X117117857Y-135100965D01*
X119900800Y-135100965D01*
X119900800Y-135383635D01*
X119955947Y-135660874D01*
X120064120Y-135922027D01*
X120221163Y-136157059D01*
X120421041Y-136356937D01*
X120656073Y-136513980D01*
X120917226Y-136622153D01*
X121194465Y-136677300D01*
X121477135Y-136677300D01*
X121754374Y-136622153D01*
X122015527Y-136513980D01*
X122250559Y-136356937D01*
X122450437Y-136157059D01*
X122607480Y-135922027D01*
X122715653Y-135660874D01*
X122770800Y-135383635D01*
X122770800Y-135205105D01*
X125072240Y-135205105D01*
X125072240Y-135487775D01*
X125127387Y-135765014D01*
X125235560Y-136026167D01*
X125392603Y-136261199D01*
X125592481Y-136461077D01*
X125827513Y-136618120D01*
X126088666Y-136726293D01*
X126365905Y-136781440D01*
X126648575Y-136781440D01*
X126925814Y-136726293D01*
X127186967Y-136618120D01*
X127421999Y-136461077D01*
X127621877Y-136261199D01*
X127778920Y-136026167D01*
X127887093Y-135765014D01*
X127942240Y-135487775D01*
X127942240Y-135205105D01*
X127887093Y-134927866D01*
X127817812Y-134760605D01*
X131841340Y-134760605D01*
X131841340Y-135043275D01*
X131896487Y-135320514D01*
X132004660Y-135581667D01*
X132161703Y-135816699D01*
X132361581Y-136016577D01*
X132596613Y-136173620D01*
X132857766Y-136281793D01*
X133135005Y-136336940D01*
X133417675Y-136336940D01*
X133694914Y-136281793D01*
X133956067Y-136173620D01*
X134191099Y-136016577D01*
X134390977Y-135816699D01*
X134548020Y-135581667D01*
X134656193Y-135320514D01*
X134711340Y-135043275D01*
X134711340Y-134760605D01*
X134656193Y-134483366D01*
X134548020Y-134222213D01*
X134390977Y-133987181D01*
X134191099Y-133787303D01*
X134113182Y-133735240D01*
X136152788Y-133735240D01*
X136152788Y-135535240D01*
X136165048Y-135659722D01*
X136201358Y-135779420D01*
X136260323Y-135889734D01*
X136339675Y-135986425D01*
X136436366Y-136065777D01*
X136546680Y-136124742D01*
X136666378Y-136161052D01*
X136790860Y-136173312D01*
X138590860Y-136173312D01*
X138715342Y-136161052D01*
X138835040Y-136124742D01*
X138945354Y-136065777D01*
X139042045Y-135986425D01*
X139121397Y-135889734D01*
X139180362Y-135779420D01*
X139185916Y-135761113D01*
X139252355Y-135827552D01*
X139503765Y-135995539D01*
X139783117Y-136111251D01*
X140079676Y-136170240D01*
X140382044Y-136170240D01*
X140678603Y-136111251D01*
X140957955Y-135995539D01*
X141209365Y-135827552D01*
X141423172Y-135613745D01*
X141591159Y-135362335D01*
X141706871Y-135082983D01*
X141765860Y-134786424D01*
X141765860Y-134484056D01*
X141706871Y-134187497D01*
X141591159Y-133908145D01*
X141472234Y-133730160D01*
X141903348Y-133730160D01*
X141903348Y-135530160D01*
X141915608Y-135654642D01*
X141951918Y-135774340D01*
X142010883Y-135884654D01*
X142090235Y-135981345D01*
X142186926Y-136060697D01*
X142297240Y-136119662D01*
X142416938Y-136155972D01*
X142541420Y-136168232D01*
X144341420Y-136168232D01*
X144465902Y-136155972D01*
X144585600Y-136119662D01*
X144695914Y-136060697D01*
X144792605Y-135981345D01*
X144871957Y-135884654D01*
X144930922Y-135774340D01*
X144936476Y-135756033D01*
X145002915Y-135822472D01*
X145254325Y-135990459D01*
X145533677Y-136106171D01*
X145830236Y-136165160D01*
X146132604Y-136165160D01*
X146429163Y-136106171D01*
X146708515Y-135990459D01*
X146959925Y-135822472D01*
X147173732Y-135608665D01*
X147341719Y-135357255D01*
X147457431Y-135077903D01*
X147516420Y-134781344D01*
X147516420Y-134478976D01*
X147457431Y-134182417D01*
X147341719Y-133903065D01*
X147173732Y-133651655D01*
X146959925Y-133437848D01*
X146708515Y-133269861D01*
X146429163Y-133154149D01*
X146132604Y-133095160D01*
X145830236Y-133095160D01*
X145533677Y-133154149D01*
X145254325Y-133269861D01*
X145002915Y-133437848D01*
X144936476Y-133504287D01*
X144930922Y-133485980D01*
X144871957Y-133375666D01*
X144792605Y-133278975D01*
X144695914Y-133199623D01*
X144585600Y-133140658D01*
X144465902Y-133104348D01*
X144341420Y-133092088D01*
X142541420Y-133092088D01*
X142416938Y-133104348D01*
X142297240Y-133140658D01*
X142186926Y-133199623D01*
X142090235Y-133278975D01*
X142010883Y-133375666D01*
X141951918Y-133485980D01*
X141915608Y-133605678D01*
X141903348Y-133730160D01*
X141472234Y-133730160D01*
X141423172Y-133656735D01*
X141209365Y-133442928D01*
X140957955Y-133274941D01*
X140678603Y-133159229D01*
X140382044Y-133100240D01*
X140079676Y-133100240D01*
X139783117Y-133159229D01*
X139503765Y-133274941D01*
X139252355Y-133442928D01*
X139185916Y-133509367D01*
X139180362Y-133491060D01*
X139121397Y-133380746D01*
X139042045Y-133284055D01*
X138945354Y-133204703D01*
X138835040Y-133145738D01*
X138715342Y-133109428D01*
X138590860Y-133097168D01*
X136790860Y-133097168D01*
X136666378Y-133109428D01*
X136546680Y-133145738D01*
X136436366Y-133204703D01*
X136339675Y-133284055D01*
X136260323Y-133380746D01*
X136201358Y-133491060D01*
X136165048Y-133610758D01*
X136152788Y-133735240D01*
X134113182Y-133735240D01*
X133956067Y-133630260D01*
X133694914Y-133522087D01*
X133417675Y-133466940D01*
X133135005Y-133466940D01*
X132857766Y-133522087D01*
X132596613Y-133630260D01*
X132361581Y-133787303D01*
X132161703Y-133987181D01*
X132004660Y-134222213D01*
X131896487Y-134483366D01*
X131841340Y-134760605D01*
X127817812Y-134760605D01*
X127778920Y-134666713D01*
X127621877Y-134431681D01*
X127421999Y-134231803D01*
X127186967Y-134074760D01*
X126925814Y-133966587D01*
X126648575Y-133911440D01*
X126365905Y-133911440D01*
X126088666Y-133966587D01*
X125827513Y-134074760D01*
X125592481Y-134231803D01*
X125392603Y-134431681D01*
X125235560Y-134666713D01*
X125127387Y-134927866D01*
X125072240Y-135205105D01*
X122770800Y-135205105D01*
X122770800Y-135100965D01*
X122715653Y-134823726D01*
X122607480Y-134562573D01*
X122450437Y-134327541D01*
X122250559Y-134127663D01*
X122015527Y-133970620D01*
X121754374Y-133862447D01*
X121477135Y-133807300D01*
X121194465Y-133807300D01*
X120917226Y-133862447D01*
X120656073Y-133970620D01*
X120421041Y-134127663D01*
X120221163Y-134327541D01*
X120064120Y-134562573D01*
X119955947Y-134823726D01*
X119900800Y-135100965D01*
X117117857Y-135100965D01*
X117157859Y-135074237D01*
X117357737Y-134874359D01*
X117514780Y-134639327D01*
X117622953Y-134378174D01*
X117678100Y-134100935D01*
X117678100Y-133818265D01*
X117622953Y-133541026D01*
X117514780Y-133279873D01*
X117357737Y-133044841D01*
X117157859Y-132844963D01*
X116922827Y-132687920D01*
X116661674Y-132579747D01*
X116384435Y-132524600D01*
X116101765Y-132524600D01*
X115824526Y-132579747D01*
X115563373Y-132687920D01*
X115328341Y-132844963D01*
X115128463Y-133044841D01*
X114971420Y-133279873D01*
X114863247Y-133541026D01*
X114808100Y-133818265D01*
X113314349Y-133818265D01*
X113315290Y-133796227D01*
X113275025Y-133536356D01*
X113184835Y-133289334D01*
X113130937Y-133188497D01*
X112897169Y-133129036D01*
X112155505Y-133870700D01*
X111796295Y-133870700D01*
X111054631Y-133129036D01*
X110820863Y-133188497D01*
X110709966Y-133426942D01*
X110647717Y-133682440D01*
X110636510Y-133945173D01*
X106478993Y-133945173D01*
X106418574Y-133920147D01*
X106141335Y-133865000D01*
X105858665Y-133865000D01*
X105581426Y-133920147D01*
X105320273Y-134028320D01*
X105085241Y-134185363D01*
X104885363Y-134385241D01*
X104728320Y-134620273D01*
X104620147Y-134881426D01*
X104565000Y-135158665D01*
X102071675Y-135158665D01*
X102046362Y-135075220D01*
X101987397Y-134964906D01*
X101908045Y-134868215D01*
X101811354Y-134788863D01*
X101701040Y-134729898D01*
X101581342Y-134693588D01*
X101456860Y-134681328D01*
X100892610Y-134684400D01*
X100733860Y-134843150D01*
X100479860Y-134843150D01*
X100321110Y-134684400D01*
X99756860Y-134681328D01*
X99632378Y-134693588D01*
X99512680Y-134729898D01*
X99402366Y-134788863D01*
X99305675Y-134868215D01*
X99226323Y-134964906D01*
X99167358Y-135075220D01*
X99131048Y-135194918D01*
X99118788Y-135319400D01*
X96660000Y-135319400D01*
X96660000Y-132539302D01*
X103834903Y-132539302D01*
X103906486Y-132783271D01*
X104161996Y-132904171D01*
X104436184Y-132972900D01*
X104718512Y-132986817D01*
X104970836Y-132949431D01*
X111234236Y-132949431D01*
X111975900Y-133691095D01*
X112717564Y-132949431D01*
X112658103Y-132715663D01*
X112419658Y-132604766D01*
X112164160Y-132542517D01*
X111901427Y-132531310D01*
X111641556Y-132571575D01*
X111394534Y-132661765D01*
X111293697Y-132715663D01*
X111234236Y-132949431D01*
X104970836Y-132949431D01*
X104998130Y-132945387D01*
X105264292Y-132850203D01*
X105389514Y-132783271D01*
X105461097Y-132539302D01*
X104648000Y-131726205D01*
X103834903Y-132539302D01*
X96660000Y-132539302D01*
X96660000Y-131271380D01*
X98979088Y-131271380D01*
X98991348Y-131395862D01*
X99027658Y-131515560D01*
X99086623Y-131625874D01*
X99165975Y-131722565D01*
X99262666Y-131801917D01*
X99372980Y-131860882D01*
X99492678Y-131897192D01*
X99617160Y-131909452D01*
X100181410Y-131906380D01*
X100340160Y-131747630D01*
X100340160Y-130548380D01*
X100594160Y-130548380D01*
X100594160Y-131747630D01*
X100752910Y-131906380D01*
X101317160Y-131909452D01*
X101441642Y-131897192D01*
X101561340Y-131860882D01*
X101671654Y-131801917D01*
X101768345Y-131722565D01*
X101847697Y-131625874D01*
X101852380Y-131617112D01*
X103207783Y-131617112D01*
X103249213Y-131896730D01*
X103344397Y-132162892D01*
X103411329Y-132288114D01*
X103655298Y-132359697D01*
X104468395Y-131546600D01*
X104827605Y-131546600D01*
X105640702Y-132359697D01*
X105884671Y-132288114D01*
X106005571Y-132032604D01*
X106074300Y-131758416D01*
X106088217Y-131476088D01*
X106046787Y-131196470D01*
X105951603Y-130930308D01*
X105884671Y-130805086D01*
X105640702Y-130733503D01*
X104827605Y-131546600D01*
X104468395Y-131546600D01*
X103655298Y-130733503D01*
X103411329Y-130805086D01*
X103290429Y-131060596D01*
X103221700Y-131334784D01*
X103207783Y-131617112D01*
X101852380Y-131617112D01*
X101906662Y-131515560D01*
X101942972Y-131395862D01*
X101955232Y-131271380D01*
X101952160Y-130707130D01*
X101798928Y-130553898D01*
X103834903Y-130553898D01*
X104648000Y-131366995D01*
X105461097Y-130553898D01*
X105389514Y-130309929D01*
X105134004Y-130189029D01*
X104859816Y-130120300D01*
X104577488Y-130106383D01*
X104297870Y-130147813D01*
X104031708Y-130242997D01*
X103906486Y-130309929D01*
X103834903Y-130553898D01*
X101798928Y-130553898D01*
X101793410Y-130548380D01*
X100594160Y-130548380D01*
X100340160Y-130548380D01*
X99140910Y-130548380D01*
X98982160Y-130707130D01*
X98979088Y-131271380D01*
X96660000Y-131271380D01*
X96660000Y-129571380D01*
X98979088Y-129571380D01*
X98982160Y-130135630D01*
X99140910Y-130294380D01*
X100340160Y-130294380D01*
X100340160Y-130274380D01*
X100594160Y-130274380D01*
X100594160Y-130294380D01*
X101793410Y-130294380D01*
X101952160Y-130135630D01*
X101955232Y-129571380D01*
X101942972Y-129446898D01*
X101906662Y-129327200D01*
X101847697Y-129216886D01*
X101768345Y-129120195D01*
X101671654Y-129040843D01*
X101561340Y-128981878D01*
X101488780Y-128959867D01*
X101620635Y-128828012D01*
X101783150Y-128584791D01*
X101895092Y-128314538D01*
X101952160Y-128027640D01*
X101952160Y-127735120D01*
X101895092Y-127448222D01*
X101783150Y-127177969D01*
X101620635Y-126934748D01*
X101413792Y-126727905D01*
X101239400Y-126611380D01*
X101413792Y-126494855D01*
X101620635Y-126288012D01*
X101783150Y-126044791D01*
X101895092Y-125774538D01*
X101952160Y-125487640D01*
X101952160Y-125195120D01*
X101895092Y-124908222D01*
X101783150Y-124637969D01*
X101620635Y-124394748D01*
X101413792Y-124187905D01*
X101170571Y-124025390D01*
X100900318Y-123913448D01*
X100859180Y-123905265D01*
X103213000Y-123905265D01*
X103213000Y-124187935D01*
X103268147Y-124465174D01*
X103376320Y-124726327D01*
X103513001Y-124930885D01*
X103513000Y-126517528D01*
X103507509Y-126573280D01*
X103513000Y-126629031D01*
X103529423Y-126795778D01*
X103594324Y-127009726D01*
X103699716Y-127206903D01*
X103841551Y-127379729D01*
X103884865Y-127415276D01*
X107092773Y-130623186D01*
X107128311Y-130666489D01*
X107171614Y-130702027D01*
X107171616Y-130702029D01*
X107301137Y-130808324D01*
X107498313Y-130913716D01*
X107712261Y-130978617D01*
X107934760Y-131000531D01*
X107990512Y-130995040D01*
X111145449Y-130995040D01*
X111201200Y-131000531D01*
X111256951Y-130995040D01*
X111256952Y-130995040D01*
X111423699Y-130978617D01*
X111637647Y-130913716D01*
X111834823Y-130808324D01*
X112007649Y-130666489D01*
X112043196Y-130623175D01*
X115049921Y-127616450D01*
X115049921Y-128443090D01*
X115044430Y-128498841D01*
X115049921Y-128554592D01*
X115066344Y-128721339D01*
X115131245Y-128935287D01*
X115236637Y-129132464D01*
X115378472Y-129305290D01*
X115421786Y-129340837D01*
X115597983Y-129517034D01*
X115599301Y-129523661D01*
X115696167Y-129757516D01*
X115836795Y-129967980D01*
X116015780Y-130146965D01*
X116226244Y-130287593D01*
X116460099Y-130384459D01*
X116708359Y-130433840D01*
X116819920Y-130433840D01*
X116819920Y-130545842D01*
X116978668Y-130545842D01*
X116819920Y-130704590D01*
X116816848Y-131068840D01*
X116829108Y-131193322D01*
X116865418Y-131313020D01*
X116924383Y-131423334D01*
X117003735Y-131520025D01*
X117100426Y-131599377D01*
X117210740Y-131658342D01*
X117330438Y-131694652D01*
X117454920Y-131706912D01*
X117819170Y-131703840D01*
X117977920Y-131545090D01*
X117977920Y-130545840D01*
X118231920Y-130545840D01*
X118231920Y-131545090D01*
X118390670Y-131703840D01*
X118754920Y-131706912D01*
X118879402Y-131694652D01*
X118999100Y-131658342D01*
X119109414Y-131599377D01*
X119206105Y-131520025D01*
X119285457Y-131423334D01*
X119344422Y-131313020D01*
X119380732Y-131193322D01*
X119392992Y-131068840D01*
X119389920Y-130704590D01*
X119231170Y-130545840D01*
X118231920Y-130545840D01*
X117977920Y-130545840D01*
X117957920Y-130545840D01*
X117957920Y-130291840D01*
X117977920Y-130291840D01*
X117977920Y-130271840D01*
X118231920Y-130271840D01*
X118231920Y-130291840D01*
X119231170Y-130291840D01*
X119389920Y-130133090D01*
X119392992Y-129768840D01*
X119380732Y-129644358D01*
X119344422Y-129524660D01*
X119285457Y-129414346D01*
X119206105Y-129317655D01*
X119109414Y-129238303D01*
X118999100Y-129179338D01*
X118879402Y-129143028D01*
X118754920Y-129130768D01*
X118390670Y-129133840D01*
X118231922Y-129292588D01*
X118231922Y-129163752D01*
X118479741Y-129114459D01*
X118713596Y-129017593D01*
X118729391Y-129007039D01*
X121473200Y-129007039D01*
X121473200Y-129260161D01*
X121522581Y-129508421D01*
X121619447Y-129742276D01*
X121760075Y-129952740D01*
X121939060Y-130131725D01*
X122149524Y-130272353D01*
X122383379Y-130369219D01*
X122631639Y-130418600D01*
X122743200Y-130418600D01*
X122743200Y-130530602D01*
X122901948Y-130530602D01*
X122743200Y-130689350D01*
X122740128Y-131053600D01*
X122752388Y-131178082D01*
X122788698Y-131297780D01*
X122847663Y-131408094D01*
X122927015Y-131504785D01*
X123023706Y-131584137D01*
X123134020Y-131643102D01*
X123253718Y-131679412D01*
X123378200Y-131691672D01*
X123742450Y-131688600D01*
X123901200Y-131529850D01*
X123901200Y-130530600D01*
X124155200Y-130530600D01*
X124155200Y-131529850D01*
X124313950Y-131688600D01*
X124678200Y-131691672D01*
X124802682Y-131679412D01*
X124922380Y-131643102D01*
X125032694Y-131584137D01*
X125129385Y-131504785D01*
X125208737Y-131408094D01*
X125267702Y-131297780D01*
X125304012Y-131178082D01*
X125316272Y-131053600D01*
X125313200Y-130689350D01*
X125200609Y-130576759D01*
X127137400Y-130576759D01*
X127137400Y-130829881D01*
X127186781Y-131078141D01*
X127283647Y-131311996D01*
X127424275Y-131522460D01*
X127603260Y-131701445D01*
X127813724Y-131842073D01*
X128047579Y-131938939D01*
X128295839Y-131988320D01*
X128407400Y-131988320D01*
X128407400Y-132100322D01*
X128566148Y-132100322D01*
X128407400Y-132259070D01*
X128404328Y-132623320D01*
X128416588Y-132747802D01*
X128452898Y-132867500D01*
X128511863Y-132977814D01*
X128591215Y-133074505D01*
X128687906Y-133153857D01*
X128798220Y-133212822D01*
X128917918Y-133249132D01*
X129042400Y-133261392D01*
X129406650Y-133258320D01*
X129565400Y-133099570D01*
X129565400Y-132100320D01*
X129819400Y-132100320D01*
X129819400Y-133099570D01*
X129978150Y-133258320D01*
X130342400Y-133261392D01*
X130466882Y-133249132D01*
X130586580Y-133212822D01*
X130696894Y-133153857D01*
X130793585Y-133074505D01*
X130872937Y-132977814D01*
X130931902Y-132867500D01*
X130968212Y-132747802D01*
X130980472Y-132623320D01*
X130977400Y-132259070D01*
X130818650Y-132100320D01*
X129819400Y-132100320D01*
X129565400Y-132100320D01*
X129545400Y-132100320D01*
X129545400Y-131846320D01*
X129565400Y-131846320D01*
X129565400Y-131826320D01*
X129819400Y-131826320D01*
X129819400Y-131846320D01*
X130818650Y-131846320D01*
X130977400Y-131687570D01*
X130980472Y-131323320D01*
X130968212Y-131198838D01*
X130931902Y-131079140D01*
X130872937Y-130968826D01*
X130793585Y-130872135D01*
X130696894Y-130792783D01*
X130586580Y-130733818D01*
X130466882Y-130697508D01*
X130342400Y-130685248D01*
X129978150Y-130688320D01*
X129819402Y-130847068D01*
X129819402Y-130718232D01*
X130067221Y-130668939D01*
X130301076Y-130572073D01*
X130511540Y-130431445D01*
X130690525Y-130252460D01*
X130831153Y-130041996D01*
X130928019Y-129808141D01*
X130977400Y-129559881D01*
X130977400Y-129306759D01*
X130928019Y-129058499D01*
X130831153Y-128824644D01*
X130690525Y-128614180D01*
X130511540Y-128435195D01*
X130301076Y-128294567D01*
X130067221Y-128197701D01*
X129818961Y-128148320D01*
X129565839Y-128148320D01*
X129317579Y-128197701D01*
X129083724Y-128294567D01*
X128873260Y-128435195D01*
X128694275Y-128614180D01*
X128553647Y-128824644D01*
X128456781Y-129058499D01*
X128407400Y-129306759D01*
X128407400Y-129418320D01*
X128295839Y-129418320D01*
X128047579Y-129467701D01*
X127813724Y-129564567D01*
X127603260Y-129705195D01*
X127424275Y-129884180D01*
X127283647Y-130094644D01*
X127186781Y-130328499D01*
X127137400Y-130576759D01*
X125200609Y-130576759D01*
X125154450Y-130530600D01*
X124155200Y-130530600D01*
X123901200Y-130530600D01*
X123881200Y-130530600D01*
X123881200Y-130276600D01*
X123901200Y-130276600D01*
X123901200Y-130256600D01*
X124155200Y-130256600D01*
X124155200Y-130276600D01*
X125154450Y-130276600D01*
X125313200Y-130117850D01*
X125316272Y-129753600D01*
X125304012Y-129629118D01*
X125267702Y-129509420D01*
X125208737Y-129399106D01*
X125129385Y-129302415D01*
X125032694Y-129223063D01*
X124922380Y-129164098D01*
X124802682Y-129127788D01*
X124678200Y-129115528D01*
X124313950Y-129118600D01*
X124155202Y-129277348D01*
X124155202Y-129148512D01*
X124403021Y-129099219D01*
X124636876Y-129002353D01*
X124847340Y-128861725D01*
X125026325Y-128682740D01*
X125166953Y-128472276D01*
X125263819Y-128238421D01*
X125313200Y-127990161D01*
X125313200Y-127737039D01*
X125263819Y-127488779D01*
X125166953Y-127254924D01*
X125026325Y-127044460D01*
X124847340Y-126865475D01*
X124636876Y-126724847D01*
X124403021Y-126627981D01*
X124154761Y-126578600D01*
X123901639Y-126578600D01*
X123653379Y-126627981D01*
X123419524Y-126724847D01*
X123209060Y-126865475D01*
X123030075Y-127044460D01*
X122889447Y-127254924D01*
X122792581Y-127488779D01*
X122743200Y-127737039D01*
X122743200Y-127848600D01*
X122631639Y-127848600D01*
X122383379Y-127897981D01*
X122149524Y-127994847D01*
X121939060Y-128135475D01*
X121760075Y-128314460D01*
X121619447Y-128524924D01*
X121522581Y-128758779D01*
X121473200Y-129007039D01*
X118729391Y-129007039D01*
X118924060Y-128876965D01*
X119103045Y-128697980D01*
X119243673Y-128487516D01*
X119340539Y-128253661D01*
X119389920Y-128005401D01*
X119389920Y-127752279D01*
X119340539Y-127504019D01*
X119243673Y-127270164D01*
X119103045Y-127059700D01*
X118924060Y-126880715D01*
X118713596Y-126740087D01*
X118479741Y-126643221D01*
X118350164Y-126617447D01*
X119484372Y-125483240D01*
X127787787Y-125483240D01*
X127793404Y-125486993D01*
X128027259Y-125583859D01*
X128275519Y-125633240D01*
X128387080Y-125633240D01*
X128387080Y-125745242D01*
X128545828Y-125745242D01*
X128387080Y-125903990D01*
X128384008Y-126268240D01*
X128396268Y-126392722D01*
X128432578Y-126512420D01*
X128491543Y-126622734D01*
X128570895Y-126719425D01*
X128667586Y-126798777D01*
X128777900Y-126857742D01*
X128897598Y-126894052D01*
X129022080Y-126906312D01*
X129386330Y-126903240D01*
X129545080Y-126744490D01*
X129545080Y-125745240D01*
X129799080Y-125745240D01*
X129799080Y-126744490D01*
X129957830Y-126903240D01*
X130322080Y-126906312D01*
X130446562Y-126894052D01*
X130566260Y-126857742D01*
X130676574Y-126798777D01*
X130773265Y-126719425D01*
X130852617Y-126622734D01*
X130911582Y-126512420D01*
X130947892Y-126392722D01*
X130960152Y-126268240D01*
X130957080Y-125903990D01*
X130798330Y-125745240D01*
X129799080Y-125745240D01*
X129545080Y-125745240D01*
X129525080Y-125745240D01*
X129525080Y-125536120D01*
X134052208Y-125536120D01*
X134052208Y-127336120D01*
X134064468Y-127460602D01*
X134100778Y-127580300D01*
X134159743Y-127690614D01*
X134239095Y-127787305D01*
X134335786Y-127866657D01*
X134446100Y-127925622D01*
X134565798Y-127961932D01*
X134690280Y-127974192D01*
X136490280Y-127974192D01*
X136614762Y-127961932D01*
X136734460Y-127925622D01*
X136844774Y-127866657D01*
X136941465Y-127787305D01*
X137020817Y-127690614D01*
X137079782Y-127580300D01*
X137085336Y-127561993D01*
X137151775Y-127628432D01*
X137403185Y-127796419D01*
X137682537Y-127912131D01*
X137979096Y-127971120D01*
X138281464Y-127971120D01*
X138578023Y-127912131D01*
X138857375Y-127796419D01*
X139108785Y-127628432D01*
X139322592Y-127414625D01*
X139490579Y-127163215D01*
X139606291Y-126883863D01*
X139665280Y-126587304D01*
X139665280Y-126284936D01*
X139606291Y-125988377D01*
X139490579Y-125709025D01*
X139322592Y-125457615D01*
X139309657Y-125444680D01*
X141441068Y-125444680D01*
X141441068Y-127244680D01*
X141453328Y-127369162D01*
X141489638Y-127488860D01*
X141548603Y-127599174D01*
X141627955Y-127695865D01*
X141724646Y-127775217D01*
X141834960Y-127834182D01*
X141954658Y-127870492D01*
X142079140Y-127882752D01*
X143879140Y-127882752D01*
X144003622Y-127870492D01*
X144123320Y-127834182D01*
X144233634Y-127775217D01*
X144330325Y-127695865D01*
X144409677Y-127599174D01*
X144468642Y-127488860D01*
X144474196Y-127470553D01*
X144540635Y-127536992D01*
X144792045Y-127704979D01*
X145071397Y-127820691D01*
X145367956Y-127879680D01*
X145670324Y-127879680D01*
X145966883Y-127820691D01*
X146246235Y-127704979D01*
X146497645Y-127536992D01*
X146711452Y-127323185D01*
X146879439Y-127071775D01*
X146995151Y-126792423D01*
X147054140Y-126495864D01*
X147054140Y-126193496D01*
X146995151Y-125896937D01*
X146879439Y-125617585D01*
X146711452Y-125366175D01*
X146497645Y-125152368D01*
X146246235Y-124984381D01*
X145966883Y-124868669D01*
X145670324Y-124809680D01*
X145367956Y-124809680D01*
X145071397Y-124868669D01*
X144792045Y-124984381D01*
X144540635Y-125152368D01*
X144474196Y-125218807D01*
X144468642Y-125200500D01*
X144409677Y-125090186D01*
X144330325Y-124993495D01*
X144233634Y-124914143D01*
X144123320Y-124855178D01*
X144003622Y-124818868D01*
X143879140Y-124806608D01*
X142079140Y-124806608D01*
X141954658Y-124818868D01*
X141834960Y-124855178D01*
X141724646Y-124914143D01*
X141627955Y-124993495D01*
X141548603Y-125090186D01*
X141489638Y-125200500D01*
X141453328Y-125320198D01*
X141441068Y-125444680D01*
X139309657Y-125444680D01*
X139108785Y-125243808D01*
X138857375Y-125075821D01*
X138578023Y-124960109D01*
X138281464Y-124901120D01*
X137979096Y-124901120D01*
X137682537Y-124960109D01*
X137403185Y-125075821D01*
X137151775Y-125243808D01*
X137085336Y-125310247D01*
X137079782Y-125291940D01*
X137020817Y-125181626D01*
X136941465Y-125084935D01*
X136844774Y-125005583D01*
X136734460Y-124946618D01*
X136614762Y-124910308D01*
X136490280Y-124898048D01*
X134690280Y-124898048D01*
X134565798Y-124910308D01*
X134446100Y-124946618D01*
X134335786Y-125005583D01*
X134239095Y-125084935D01*
X134159743Y-125181626D01*
X134100778Y-125291940D01*
X134064468Y-125411638D01*
X134052208Y-125536120D01*
X129525080Y-125536120D01*
X129525080Y-125491240D01*
X129545080Y-125491240D01*
X129545080Y-125471240D01*
X129799080Y-125471240D01*
X129799080Y-125491240D01*
X130798330Y-125491240D01*
X130957080Y-125332490D01*
X130960152Y-124968240D01*
X130947892Y-124843758D01*
X130911582Y-124724060D01*
X130852617Y-124613746D01*
X130773265Y-124517055D01*
X130676574Y-124437703D01*
X130566260Y-124378738D01*
X130446562Y-124342428D01*
X130322080Y-124330168D01*
X129957830Y-124333240D01*
X129799082Y-124491988D01*
X129799082Y-124363152D01*
X130046901Y-124313859D01*
X130280756Y-124216993D01*
X130491220Y-124076365D01*
X130670205Y-123897380D01*
X130810833Y-123686916D01*
X130907699Y-123453061D01*
X130957080Y-123204801D01*
X130957080Y-122951679D01*
X130907699Y-122703419D01*
X130810833Y-122469564D01*
X130670205Y-122259100D01*
X130491220Y-122080115D01*
X130280756Y-121939487D01*
X130046901Y-121842621D01*
X129798641Y-121793240D01*
X129545519Y-121793240D01*
X129297259Y-121842621D01*
X129063404Y-121939487D01*
X128852940Y-122080115D01*
X128673955Y-122259100D01*
X128533327Y-122469564D01*
X128436461Y-122703419D01*
X128387080Y-122951679D01*
X128387080Y-123063240D01*
X128275519Y-123063240D01*
X128027259Y-123112621D01*
X127793404Y-123209487D01*
X127787787Y-123213240D01*
X124597722Y-123213240D01*
X124598502Y-123211780D01*
X124634812Y-123092082D01*
X124647072Y-122967600D01*
X124647072Y-120567600D01*
X124634812Y-120443118D01*
X124598502Y-120323420D01*
X124539537Y-120213106D01*
X124460185Y-120116415D01*
X124363494Y-120037063D01*
X124253180Y-119978098D01*
X124133482Y-119941788D01*
X124009000Y-119929528D01*
X121609000Y-119929528D01*
X121484518Y-119941788D01*
X121364820Y-119978098D01*
X121254506Y-120037063D01*
X121157815Y-120116415D01*
X121078463Y-120213106D01*
X121019498Y-120323420D01*
X120983188Y-120443118D01*
X120970928Y-120567600D01*
X120970928Y-122967600D01*
X120983188Y-123092082D01*
X121019498Y-123211780D01*
X121020278Y-123213240D01*
X119296222Y-123213240D01*
X119342877Y-123059439D01*
X119359300Y-122892692D01*
X119359300Y-122892683D01*
X119364790Y-122836941D01*
X119359300Y-122781199D01*
X119359300Y-119360585D01*
X127492860Y-119360585D01*
X127492860Y-119643255D01*
X127548007Y-119920494D01*
X127656180Y-120181647D01*
X127813223Y-120416679D01*
X128013101Y-120616557D01*
X128248133Y-120773600D01*
X128509286Y-120881773D01*
X128786525Y-120936920D01*
X129069195Y-120936920D01*
X129346434Y-120881773D01*
X129607587Y-120773600D01*
X129842619Y-120616557D01*
X130042497Y-120416679D01*
X130199540Y-120181647D01*
X130307713Y-119920494D01*
X130362860Y-119643255D01*
X130362860Y-119360585D01*
X130307713Y-119083346D01*
X130199540Y-118822193D01*
X130042497Y-118587161D01*
X129842619Y-118387283D01*
X129607587Y-118230240D01*
X129346434Y-118122067D01*
X129069195Y-118066920D01*
X128786525Y-118066920D01*
X128509286Y-118122067D01*
X128248133Y-118230240D01*
X128013101Y-118387283D01*
X127813223Y-118587161D01*
X127656180Y-118822193D01*
X127548007Y-119083346D01*
X127492860Y-119360585D01*
X119359300Y-119360585D01*
X119359300Y-118846831D01*
X120789933Y-117416200D01*
X121766847Y-117416200D01*
X121790062Y-117450944D01*
X122045656Y-117706538D01*
X122346201Y-117907356D01*
X122680150Y-118045682D01*
X123034668Y-118116200D01*
X123396132Y-118116200D01*
X123750650Y-118045682D01*
X124084599Y-117907356D01*
X124385144Y-117706538D01*
X124640738Y-117450944D01*
X124841556Y-117150399D01*
X124979882Y-116816450D01*
X125038014Y-116524200D01*
X134250328Y-116524200D01*
X134250328Y-118324200D01*
X134262588Y-118448682D01*
X134298898Y-118568380D01*
X134357863Y-118678694D01*
X134437215Y-118775385D01*
X134533906Y-118854737D01*
X134644220Y-118913702D01*
X134763918Y-118950012D01*
X134888400Y-118962272D01*
X136688400Y-118962272D01*
X136812882Y-118950012D01*
X136932580Y-118913702D01*
X137042894Y-118854737D01*
X137139585Y-118775385D01*
X137218937Y-118678694D01*
X137277902Y-118568380D01*
X137283456Y-118550073D01*
X137349895Y-118616512D01*
X137601305Y-118784499D01*
X137880657Y-118900211D01*
X138177216Y-118959200D01*
X138479584Y-118959200D01*
X138776143Y-118900211D01*
X139055495Y-118784499D01*
X139306905Y-118616512D01*
X139520712Y-118402705D01*
X139688699Y-118151295D01*
X139804411Y-117871943D01*
X139863400Y-117575384D01*
X139863400Y-117273016D01*
X139804411Y-116976457D01*
X139688699Y-116697105D01*
X139625780Y-116602940D01*
X141466468Y-116602940D01*
X141466468Y-118402940D01*
X141478728Y-118527422D01*
X141515038Y-118647120D01*
X141574003Y-118757434D01*
X141653355Y-118854125D01*
X141750046Y-118933477D01*
X141860360Y-118992442D01*
X141980058Y-119028752D01*
X142104540Y-119041012D01*
X143904540Y-119041012D01*
X144029022Y-119028752D01*
X144148720Y-118992442D01*
X144259034Y-118933477D01*
X144355725Y-118854125D01*
X144435077Y-118757434D01*
X144494042Y-118647120D01*
X144499596Y-118628813D01*
X144566035Y-118695252D01*
X144817445Y-118863239D01*
X145096797Y-118978951D01*
X145393356Y-119037940D01*
X145695724Y-119037940D01*
X145992283Y-118978951D01*
X146271635Y-118863239D01*
X146523045Y-118695252D01*
X146736852Y-118481445D01*
X146904839Y-118230035D01*
X147020551Y-117950683D01*
X147079540Y-117654124D01*
X147079540Y-117351756D01*
X147020551Y-117055197D01*
X146904839Y-116775845D01*
X146736852Y-116524435D01*
X146523045Y-116310628D01*
X146271635Y-116142641D01*
X145992283Y-116026929D01*
X145695724Y-115967940D01*
X145393356Y-115967940D01*
X145096797Y-116026929D01*
X144817445Y-116142641D01*
X144566035Y-116310628D01*
X144499596Y-116377067D01*
X144494042Y-116358760D01*
X144435077Y-116248446D01*
X144355725Y-116151755D01*
X144259034Y-116072403D01*
X144148720Y-116013438D01*
X144029022Y-115977128D01*
X143904540Y-115964868D01*
X142104540Y-115964868D01*
X141980058Y-115977128D01*
X141860360Y-116013438D01*
X141750046Y-116072403D01*
X141653355Y-116151755D01*
X141574003Y-116248446D01*
X141515038Y-116358760D01*
X141478728Y-116478458D01*
X141466468Y-116602940D01*
X139625780Y-116602940D01*
X139520712Y-116445695D01*
X139306905Y-116231888D01*
X139055495Y-116063901D01*
X138776143Y-115948189D01*
X138479584Y-115889200D01*
X138177216Y-115889200D01*
X137880657Y-115948189D01*
X137601305Y-116063901D01*
X137349895Y-116231888D01*
X137283456Y-116298327D01*
X137277902Y-116280020D01*
X137218937Y-116169706D01*
X137139585Y-116073015D01*
X137042894Y-115993663D01*
X136932580Y-115934698D01*
X136812882Y-115898388D01*
X136688400Y-115886128D01*
X134888400Y-115886128D01*
X134763918Y-115898388D01*
X134644220Y-115934698D01*
X134533906Y-115993663D01*
X134437215Y-116073015D01*
X134357863Y-116169706D01*
X134298898Y-116280020D01*
X134262588Y-116399718D01*
X134250328Y-116524200D01*
X125038014Y-116524200D01*
X125050400Y-116461932D01*
X125050400Y-116100468D01*
X124979882Y-115745950D01*
X124841556Y-115412001D01*
X124640738Y-115111456D01*
X124385144Y-114855862D01*
X124084599Y-114655044D01*
X123750650Y-114516718D01*
X123396132Y-114446200D01*
X123034668Y-114446200D01*
X122680150Y-114516718D01*
X122346201Y-114655044D01*
X122045656Y-114855862D01*
X121790062Y-115111456D01*
X121766847Y-115146200D01*
X120375552Y-115146200D01*
X120319800Y-115140709D01*
X120097301Y-115162623D01*
X119883353Y-115227524D01*
X119686177Y-115332916D01*
X119556656Y-115439211D01*
X119556654Y-115439213D01*
X119513351Y-115474751D01*
X119477813Y-115518054D01*
X117461164Y-117534704D01*
X117417851Y-117570251D01*
X117276016Y-117743077D01*
X117207137Y-117871943D01*
X117170624Y-117940254D01*
X117105723Y-118154202D01*
X117083809Y-118376700D01*
X117089300Y-118432452D01*
X117089301Y-122366807D01*
X116497566Y-122958542D01*
X116501800Y-122915552D01*
X116507291Y-122859800D01*
X116501800Y-122804048D01*
X116501800Y-111061600D01*
X116595728Y-111061600D01*
X116595728Y-112661600D01*
X116607988Y-112786082D01*
X116644298Y-112905780D01*
X116703263Y-113016094D01*
X116782615Y-113112785D01*
X116879306Y-113192137D01*
X116989620Y-113251102D01*
X117109318Y-113287412D01*
X117233800Y-113299672D01*
X118833800Y-113299672D01*
X118958282Y-113287412D01*
X119077980Y-113251102D01*
X119188294Y-113192137D01*
X119284985Y-113112785D01*
X119364337Y-113016094D01*
X119423302Y-112905780D01*
X119459612Y-112786082D01*
X119471872Y-112661600D01*
X119471872Y-111061600D01*
X119459612Y-110937118D01*
X119423302Y-110817420D01*
X119364337Y-110707106D01*
X119284985Y-110610415D01*
X119188294Y-110531063D01*
X119077980Y-110472098D01*
X118958282Y-110435788D01*
X118949839Y-110434957D01*
X119148437Y-110236359D01*
X119305480Y-110001327D01*
X119413653Y-109740174D01*
X119468800Y-109462935D01*
X119468800Y-109363767D01*
X121605800Y-109363767D01*
X121605800Y-109685833D01*
X121668632Y-110001712D01*
X121791882Y-110299263D01*
X121970813Y-110567052D01*
X122198548Y-110794787D01*
X122466337Y-110973718D01*
X122763888Y-111096968D01*
X123079767Y-111159800D01*
X123401833Y-111159800D01*
X123717712Y-111096968D01*
X124015263Y-110973718D01*
X124283052Y-110794787D01*
X124510787Y-110567052D01*
X124689718Y-110299263D01*
X124812968Y-110001712D01*
X124875800Y-109685833D01*
X124875800Y-109363767D01*
X124812968Y-109047888D01*
X124689718Y-108750337D01*
X124510787Y-108482548D01*
X124283052Y-108254813D01*
X124266570Y-108243800D01*
X134329068Y-108243800D01*
X134329068Y-110043800D01*
X134341328Y-110168282D01*
X134377638Y-110287980D01*
X134436603Y-110398294D01*
X134515955Y-110494985D01*
X134612646Y-110574337D01*
X134722960Y-110633302D01*
X134842658Y-110669612D01*
X134967140Y-110681872D01*
X136767140Y-110681872D01*
X136891622Y-110669612D01*
X137011320Y-110633302D01*
X137121634Y-110574337D01*
X137218325Y-110494985D01*
X137297677Y-110398294D01*
X137356642Y-110287980D01*
X137362196Y-110269673D01*
X137428635Y-110336112D01*
X137680045Y-110504099D01*
X137959397Y-110619811D01*
X138255956Y-110678800D01*
X138558324Y-110678800D01*
X138854883Y-110619811D01*
X139134235Y-110504099D01*
X139385645Y-110336112D01*
X139599452Y-110122305D01*
X139767439Y-109870895D01*
X139883151Y-109591543D01*
X139942140Y-109294984D01*
X139942140Y-108992616D01*
X139883151Y-108696057D01*
X139767439Y-108416705D01*
X139638117Y-108223161D01*
X141776397Y-108223161D01*
X141776397Y-110023161D01*
X141788657Y-110147643D01*
X141824967Y-110267341D01*
X141883932Y-110377655D01*
X141963284Y-110474346D01*
X142059975Y-110553698D01*
X142170289Y-110612663D01*
X142289987Y-110648973D01*
X142414469Y-110661233D01*
X144214469Y-110661233D01*
X144338951Y-110648973D01*
X144458649Y-110612663D01*
X144568963Y-110553698D01*
X144665654Y-110474346D01*
X144745006Y-110377655D01*
X144803971Y-110267341D01*
X144809525Y-110249034D01*
X144875964Y-110315473D01*
X145127374Y-110483460D01*
X145406726Y-110599172D01*
X145703285Y-110658161D01*
X146005653Y-110658161D01*
X146302212Y-110599172D01*
X146581564Y-110483460D01*
X146832974Y-110315473D01*
X147046781Y-110101666D01*
X147214768Y-109850256D01*
X147330480Y-109570904D01*
X147389469Y-109274345D01*
X147389469Y-108971977D01*
X147330480Y-108675418D01*
X147214768Y-108396066D01*
X147046781Y-108144656D01*
X146832974Y-107930849D01*
X146581564Y-107762862D01*
X146302212Y-107647150D01*
X146005653Y-107588161D01*
X145703285Y-107588161D01*
X145406726Y-107647150D01*
X145127374Y-107762862D01*
X144875964Y-107930849D01*
X144809525Y-107997288D01*
X144803971Y-107978981D01*
X144745006Y-107868667D01*
X144665654Y-107771976D01*
X144568963Y-107692624D01*
X144458649Y-107633659D01*
X144338951Y-107597349D01*
X144214469Y-107585089D01*
X142414469Y-107585089D01*
X142289987Y-107597349D01*
X142170289Y-107633659D01*
X142059975Y-107692624D01*
X141963284Y-107771976D01*
X141883932Y-107868667D01*
X141824967Y-107978981D01*
X141788657Y-108098679D01*
X141776397Y-108223161D01*
X139638117Y-108223161D01*
X139599452Y-108165295D01*
X139385645Y-107951488D01*
X139134235Y-107783501D01*
X138854883Y-107667789D01*
X138558324Y-107608800D01*
X138255956Y-107608800D01*
X137959397Y-107667789D01*
X137680045Y-107783501D01*
X137428635Y-107951488D01*
X137362196Y-108017927D01*
X137356642Y-107999620D01*
X137297677Y-107889306D01*
X137218325Y-107792615D01*
X137121634Y-107713263D01*
X137011320Y-107654298D01*
X136891622Y-107617988D01*
X136767140Y-107605728D01*
X134967140Y-107605728D01*
X134842658Y-107617988D01*
X134722960Y-107654298D01*
X134612646Y-107713263D01*
X134515955Y-107792615D01*
X134436603Y-107889306D01*
X134377638Y-107999620D01*
X134341328Y-108119318D01*
X134329068Y-108243800D01*
X124266570Y-108243800D01*
X124015263Y-108075882D01*
X123717712Y-107952632D01*
X123401833Y-107889800D01*
X123079767Y-107889800D01*
X122763888Y-107952632D01*
X122466337Y-108075882D01*
X122198548Y-108254813D01*
X121970813Y-108482548D01*
X121791882Y-108750337D01*
X121668632Y-109047888D01*
X121605800Y-109363767D01*
X119468800Y-109363767D01*
X119468800Y-109180265D01*
X119413653Y-108903026D01*
X119305480Y-108641873D01*
X119148437Y-108406841D01*
X118948559Y-108206963D01*
X118716041Y-108051600D01*
X118948559Y-107896237D01*
X119148437Y-107696359D01*
X119305480Y-107461327D01*
X119413653Y-107200174D01*
X119468800Y-106922935D01*
X119468800Y-106660585D01*
X127492860Y-106660585D01*
X127492860Y-106943255D01*
X127548007Y-107220494D01*
X127656180Y-107481647D01*
X127813223Y-107716679D01*
X128013101Y-107916557D01*
X128248133Y-108073600D01*
X128509286Y-108181773D01*
X128786525Y-108236920D01*
X129069195Y-108236920D01*
X129346434Y-108181773D01*
X129607587Y-108073600D01*
X129842619Y-107916557D01*
X130042497Y-107716679D01*
X130199540Y-107481647D01*
X130307713Y-107220494D01*
X130362860Y-106943255D01*
X130362860Y-106660585D01*
X130307713Y-106383346D01*
X130199540Y-106122193D01*
X130042497Y-105887161D01*
X129842619Y-105687283D01*
X129607587Y-105530240D01*
X129346434Y-105422067D01*
X129069195Y-105366920D01*
X128786525Y-105366920D01*
X128509286Y-105422067D01*
X128248133Y-105530240D01*
X128013101Y-105687283D01*
X127813223Y-105887161D01*
X127656180Y-106122193D01*
X127548007Y-106383346D01*
X127492860Y-106660585D01*
X119468800Y-106660585D01*
X119468800Y-106640265D01*
X119413653Y-106363026D01*
X119305480Y-106101873D01*
X119148437Y-105866841D01*
X118948559Y-105666963D01*
X118716041Y-105511600D01*
X118948559Y-105356237D01*
X119148437Y-105156359D01*
X119305480Y-104921327D01*
X119413653Y-104660174D01*
X119468800Y-104382935D01*
X119468800Y-104363767D01*
X121605800Y-104363767D01*
X121605800Y-104685833D01*
X121668632Y-105001712D01*
X121791882Y-105299263D01*
X121970813Y-105567052D01*
X122198548Y-105794787D01*
X122466337Y-105973718D01*
X122763888Y-106096968D01*
X123079767Y-106159800D01*
X123401833Y-106159800D01*
X123717712Y-106096968D01*
X124015263Y-105973718D01*
X124283052Y-105794787D01*
X124510787Y-105567052D01*
X124689718Y-105299263D01*
X124812968Y-105001712D01*
X124875800Y-104685833D01*
X124875800Y-104363767D01*
X124812968Y-104047888D01*
X124689718Y-103750337D01*
X124510787Y-103482548D01*
X124283052Y-103254813D01*
X124015263Y-103075882D01*
X123717712Y-102952632D01*
X123401833Y-102889800D01*
X123079767Y-102889800D01*
X122763888Y-102952632D01*
X122466337Y-103075882D01*
X122198548Y-103254813D01*
X121970813Y-103482548D01*
X121791882Y-103750337D01*
X121668632Y-104047888D01*
X121605800Y-104363767D01*
X119468800Y-104363767D01*
X119468800Y-104100265D01*
X119413653Y-103823026D01*
X119305480Y-103561873D01*
X119148437Y-103326841D01*
X118948559Y-103126963D01*
X118713527Y-102969920D01*
X118452374Y-102861747D01*
X118175135Y-102806600D01*
X117892465Y-102806600D01*
X117615226Y-102861747D01*
X117354073Y-102969920D01*
X117119041Y-103126963D01*
X116919163Y-103326841D01*
X116762120Y-103561873D01*
X116653947Y-103823026D01*
X116598800Y-104100265D01*
X116598800Y-104382935D01*
X116653947Y-104660174D01*
X116762120Y-104921327D01*
X116919163Y-105156359D01*
X117119041Y-105356237D01*
X117351559Y-105511600D01*
X117119041Y-105666963D01*
X116919163Y-105866841D01*
X116762120Y-106101873D01*
X116653947Y-106363026D01*
X116598800Y-106640265D01*
X116598800Y-106922935D01*
X116653947Y-107200174D01*
X116762120Y-107461327D01*
X116919163Y-107696359D01*
X117119041Y-107896237D01*
X117351559Y-108051600D01*
X117119041Y-108206963D01*
X116919163Y-108406841D01*
X116762120Y-108641873D01*
X116653947Y-108903026D01*
X116598800Y-109180265D01*
X116598800Y-109462935D01*
X116653947Y-109740174D01*
X116762120Y-110001327D01*
X116919163Y-110236359D01*
X117117761Y-110434957D01*
X117109318Y-110435788D01*
X116989620Y-110472098D01*
X116879306Y-110531063D01*
X116782615Y-110610415D01*
X116703263Y-110707106D01*
X116644298Y-110817420D01*
X116607988Y-110937118D01*
X116595728Y-111061600D01*
X116501800Y-111061600D01*
X116501800Y-110152052D01*
X116507291Y-110096300D01*
X116485377Y-109873801D01*
X116420476Y-109659853D01*
X116315084Y-109462677D01*
X116208789Y-109333156D01*
X116208787Y-109333154D01*
X116173249Y-109289851D01*
X116129946Y-109254313D01*
X112894096Y-106018465D01*
X112858549Y-105975151D01*
X112685723Y-105833316D01*
X112488547Y-105727924D01*
X112274599Y-105663023D01*
X112107852Y-105646600D01*
X112107851Y-105646600D01*
X112052100Y-105641109D01*
X111996349Y-105646600D01*
X111298084Y-105646600D01*
X111093527Y-105509920D01*
X111082935Y-105505533D01*
X111268931Y-105393985D01*
X111477319Y-105205014D01*
X111644837Y-104979020D01*
X111765046Y-104724687D01*
X111805704Y-104590639D01*
X111683715Y-104368600D01*
X110540800Y-104368600D01*
X110540800Y-104388600D01*
X110286800Y-104388600D01*
X110286800Y-104368600D01*
X109143885Y-104368600D01*
X109021896Y-104590639D01*
X109062554Y-104724687D01*
X109182763Y-104979020D01*
X109350281Y-105205014D01*
X109558669Y-105393985D01*
X109744665Y-105505533D01*
X109734073Y-105509920D01*
X109499041Y-105666963D01*
X109299163Y-105866841D01*
X109142120Y-106101873D01*
X109033947Y-106363026D01*
X108978800Y-106640265D01*
X108978800Y-106922935D01*
X109033947Y-107200174D01*
X109142120Y-107461327D01*
X109299163Y-107696359D01*
X109499041Y-107896237D01*
X109731559Y-108051600D01*
X109499041Y-108206963D01*
X109299163Y-108406841D01*
X109142120Y-108641873D01*
X109033947Y-108903026D01*
X108978800Y-109180265D01*
X108978800Y-109462935D01*
X109033947Y-109740174D01*
X109142120Y-110001327D01*
X109299163Y-110236359D01*
X109499041Y-110436237D01*
X109731559Y-110591600D01*
X109499041Y-110746963D01*
X109299163Y-110946841D01*
X109142120Y-111181873D01*
X109033947Y-111443026D01*
X108978800Y-111720265D01*
X108978800Y-112002935D01*
X109033947Y-112280174D01*
X109142120Y-112541327D01*
X109299163Y-112776359D01*
X109499041Y-112976237D01*
X109734073Y-113133280D01*
X109995226Y-113241453D01*
X110272465Y-113296600D01*
X110555135Y-113296600D01*
X110832374Y-113241453D01*
X111093527Y-113133280D01*
X111328559Y-112976237D01*
X111528437Y-112776359D01*
X111685480Y-112541327D01*
X111793653Y-112280174D01*
X111848800Y-112002935D01*
X111848800Y-111720265D01*
X111793653Y-111443026D01*
X111685480Y-111181873D01*
X111528437Y-110946841D01*
X111328559Y-110746963D01*
X111096041Y-110591600D01*
X111328559Y-110436237D01*
X111528437Y-110236359D01*
X111685480Y-110001327D01*
X111793653Y-109740174D01*
X111848800Y-109462935D01*
X111848800Y-109180265D01*
X111793653Y-108903026D01*
X111685480Y-108641873D01*
X111528437Y-108406841D01*
X111328559Y-108206963D01*
X111096041Y-108051600D01*
X111298084Y-107916600D01*
X111581969Y-107916600D01*
X114231800Y-110566433D01*
X114231801Y-122389667D01*
X111671342Y-124950127D01*
X111586495Y-124967004D01*
X111343541Y-125067639D01*
X111124887Y-125213738D01*
X110938938Y-125399687D01*
X110792839Y-125618341D01*
X110692204Y-125861295D01*
X110640900Y-126119214D01*
X110640900Y-126382186D01*
X110692204Y-126640105D01*
X110792839Y-126883059D01*
X110938938Y-127101713D01*
X111124887Y-127287662D01*
X111343541Y-127433761D01*
X111586495Y-127534396D01*
X111844414Y-127585700D01*
X111870409Y-127585700D01*
X110731069Y-128725040D01*
X108404893Y-128725040D01*
X105783000Y-126103149D01*
X105783000Y-124930884D01*
X105919680Y-124726327D01*
X106027853Y-124465174D01*
X106083000Y-124187935D01*
X106083000Y-123905265D01*
X106027853Y-123628026D01*
X105919680Y-123366873D01*
X105762637Y-123131841D01*
X105562759Y-122931963D01*
X105327727Y-122774920D01*
X105066574Y-122666747D01*
X104789335Y-122611600D01*
X104506665Y-122611600D01*
X104229426Y-122666747D01*
X103968273Y-122774920D01*
X103733241Y-122931963D01*
X103533363Y-123131841D01*
X103376320Y-123366873D01*
X103268147Y-123628026D01*
X103213000Y-123905265D01*
X100859180Y-123905265D01*
X100613420Y-123856380D01*
X100320900Y-123856380D01*
X100034002Y-123913448D01*
X99763749Y-124025390D01*
X99520528Y-124187905D01*
X99313685Y-124394748D01*
X99151170Y-124637969D01*
X99039228Y-124908222D01*
X98982160Y-125195120D01*
X98982160Y-125487640D01*
X99039228Y-125774538D01*
X99151170Y-126044791D01*
X99313685Y-126288012D01*
X99520528Y-126494855D01*
X99694920Y-126611380D01*
X99520528Y-126727905D01*
X99313685Y-126934748D01*
X99151170Y-127177969D01*
X99039228Y-127448222D01*
X98982160Y-127735120D01*
X98982160Y-128027640D01*
X99039228Y-128314538D01*
X99151170Y-128584791D01*
X99313685Y-128828012D01*
X99445540Y-128959867D01*
X99372980Y-128981878D01*
X99262666Y-129040843D01*
X99165975Y-129120195D01*
X99086623Y-129216886D01*
X99027658Y-129327200D01*
X98991348Y-129446898D01*
X98979088Y-129571380D01*
X96660000Y-129571380D01*
X96660000Y-121586868D01*
X108274000Y-121586868D01*
X108274000Y-121948332D01*
X108344518Y-122302850D01*
X108482844Y-122636799D01*
X108683662Y-122937344D01*
X108939256Y-123192938D01*
X109239801Y-123393756D01*
X109573750Y-123532082D01*
X109928268Y-123602600D01*
X110289732Y-123602600D01*
X110644250Y-123532082D01*
X110978199Y-123393756D01*
X111278744Y-123192938D01*
X111534338Y-122937344D01*
X111735156Y-122636799D01*
X111873482Y-122302850D01*
X111944000Y-121948332D01*
X111944000Y-121586868D01*
X111873482Y-121232350D01*
X111735156Y-120898401D01*
X111534338Y-120597856D01*
X111278744Y-120342262D01*
X110978199Y-120141444D01*
X110644250Y-120003118D01*
X110289732Y-119932600D01*
X109928268Y-119932600D01*
X109573750Y-120003118D01*
X109239801Y-120141444D01*
X108939256Y-120342262D01*
X108683662Y-120597856D01*
X108482844Y-120898401D01*
X108344518Y-121232350D01*
X108274000Y-121586868D01*
X96660000Y-121586868D01*
X96660000Y-115558200D01*
X98867328Y-115558200D01*
X98867328Y-117258200D01*
X98879588Y-117382682D01*
X98915898Y-117502380D01*
X98974863Y-117612694D01*
X99054215Y-117709385D01*
X99150906Y-117788737D01*
X99261220Y-117847702D01*
X99333780Y-117869713D01*
X99201925Y-118001568D01*
X99039410Y-118244789D01*
X98927468Y-118515042D01*
X98870400Y-118801940D01*
X98870400Y-119094460D01*
X98927468Y-119381358D01*
X99039410Y-119651611D01*
X99201925Y-119894832D01*
X99408768Y-120101675D01*
X99651989Y-120264190D01*
X99922242Y-120376132D01*
X100209140Y-120433200D01*
X100501660Y-120433200D01*
X100788558Y-120376132D01*
X101058811Y-120264190D01*
X101302032Y-120101675D01*
X101508875Y-119894832D01*
X101671390Y-119651611D01*
X101783332Y-119381358D01*
X101840400Y-119094460D01*
X101840400Y-118801940D01*
X101783332Y-118515042D01*
X101671390Y-118244789D01*
X101508875Y-118001568D01*
X101377020Y-117869713D01*
X101449580Y-117847702D01*
X101559894Y-117788737D01*
X101656585Y-117709385D01*
X101735937Y-117612694D01*
X101794902Y-117502380D01*
X101831212Y-117382682D01*
X101843472Y-117258200D01*
X101843472Y-115558200D01*
X101831212Y-115433718D01*
X101794902Y-115314020D01*
X101735937Y-115203706D01*
X101656585Y-115107015D01*
X101625130Y-115081200D01*
X108677328Y-115081200D01*
X108677328Y-117481200D01*
X108689588Y-117605682D01*
X108725898Y-117725380D01*
X108784863Y-117835694D01*
X108864215Y-117932385D01*
X108960906Y-118011737D01*
X109071220Y-118070702D01*
X109190918Y-118107012D01*
X109315400Y-118119272D01*
X111715400Y-118119272D01*
X111839882Y-118107012D01*
X111959580Y-118070702D01*
X112069894Y-118011737D01*
X112166585Y-117932385D01*
X112245937Y-117835694D01*
X112304902Y-117725380D01*
X112341212Y-117605682D01*
X112353472Y-117481200D01*
X112353472Y-115081200D01*
X112341212Y-114956718D01*
X112304902Y-114837020D01*
X112245937Y-114726706D01*
X112166585Y-114630015D01*
X112069894Y-114550663D01*
X111959580Y-114491698D01*
X111839882Y-114455388D01*
X111715400Y-114443128D01*
X109315400Y-114443128D01*
X109190918Y-114455388D01*
X109071220Y-114491698D01*
X108960906Y-114550663D01*
X108864215Y-114630015D01*
X108784863Y-114726706D01*
X108725898Y-114837020D01*
X108689588Y-114956718D01*
X108677328Y-115081200D01*
X101625130Y-115081200D01*
X101559894Y-115027663D01*
X101449580Y-114968698D01*
X101329882Y-114932388D01*
X101205400Y-114920128D01*
X99505400Y-114920128D01*
X99380918Y-114932388D01*
X99261220Y-114968698D01*
X99150906Y-115027663D01*
X99054215Y-115107015D01*
X98974863Y-115203706D01*
X98915898Y-115314020D01*
X98879588Y-115433718D01*
X98867328Y-115558200D01*
X96660000Y-115558200D01*
X96660000Y-111268767D01*
X104219500Y-111268767D01*
X104219500Y-111590833D01*
X104282332Y-111906712D01*
X104405582Y-112204263D01*
X104584513Y-112472052D01*
X104812248Y-112699787D01*
X105080037Y-112878718D01*
X105377588Y-113001968D01*
X105693467Y-113064800D01*
X106015533Y-113064800D01*
X106331412Y-113001968D01*
X106628963Y-112878718D01*
X106896752Y-112699787D01*
X107124487Y-112472052D01*
X107303418Y-112204263D01*
X107426668Y-111906712D01*
X107489500Y-111590833D01*
X107489500Y-111268767D01*
X107426668Y-110952888D01*
X107303418Y-110655337D01*
X107124487Y-110387548D01*
X106896752Y-110159813D01*
X106628963Y-109980882D01*
X106331412Y-109857632D01*
X106015533Y-109794800D01*
X105693467Y-109794800D01*
X105377588Y-109857632D01*
X105080037Y-109980882D01*
X104812248Y-110159813D01*
X104584513Y-110387548D01*
X104405582Y-110655337D01*
X104282332Y-110952888D01*
X104219500Y-111268767D01*
X96660000Y-111268767D01*
X96660000Y-107565213D01*
X104898692Y-107565213D01*
X104994456Y-107829614D01*
X105284071Y-107970504D01*
X105595608Y-108052184D01*
X105917095Y-108071518D01*
X106236175Y-108027761D01*
X106540588Y-107922595D01*
X106714544Y-107829614D01*
X106810308Y-107565213D01*
X105854500Y-106609405D01*
X104898692Y-107565213D01*
X96660000Y-107565213D01*
X96660000Y-106492395D01*
X104212782Y-106492395D01*
X104256539Y-106811475D01*
X104361705Y-107115888D01*
X104454686Y-107289844D01*
X104719087Y-107385608D01*
X105674895Y-106429800D01*
X106034105Y-106429800D01*
X106989913Y-107385608D01*
X107254314Y-107289844D01*
X107395204Y-107000229D01*
X107476884Y-106688692D01*
X107496218Y-106367205D01*
X107452461Y-106048125D01*
X107347295Y-105743712D01*
X107254314Y-105569756D01*
X106989913Y-105473992D01*
X106034105Y-106429800D01*
X105674895Y-106429800D01*
X104719087Y-105473992D01*
X104454686Y-105569756D01*
X104313796Y-105859371D01*
X104232116Y-106170908D01*
X104212782Y-106492395D01*
X96660000Y-106492395D01*
X96660000Y-105294387D01*
X104898692Y-105294387D01*
X105854500Y-106250195D01*
X106810308Y-105294387D01*
X106714544Y-105029986D01*
X106424929Y-104889096D01*
X106113392Y-104807416D01*
X105791905Y-104788082D01*
X105472825Y-104831839D01*
X105168412Y-104937005D01*
X104994456Y-105029986D01*
X104898692Y-105294387D01*
X96660000Y-105294387D01*
X96660000Y-103892561D01*
X109021896Y-103892561D01*
X109143885Y-104114600D01*
X110286800Y-104114600D01*
X110286800Y-102970976D01*
X110540800Y-102970976D01*
X110540800Y-104114600D01*
X111683715Y-104114600D01*
X111805704Y-103892561D01*
X111765046Y-103758513D01*
X111644837Y-103504180D01*
X111477319Y-103278186D01*
X111268931Y-103089215D01*
X111027681Y-102944530D01*
X110762840Y-102849691D01*
X110540800Y-102970976D01*
X110286800Y-102970976D01*
X110064760Y-102849691D01*
X109799919Y-102944530D01*
X109558669Y-103089215D01*
X109350281Y-103278186D01*
X109182763Y-103504180D01*
X109062554Y-103758513D01*
X109021896Y-103892561D01*
X96660000Y-103892561D01*
X96660000Y-101954208D01*
X98225397Y-101954208D01*
X98459537Y-102336330D01*
X98944932Y-102591967D01*
X99470873Y-102747997D01*
X100017148Y-102798422D01*
X100562764Y-102741306D01*
X101086752Y-102578842D01*
X101540463Y-102336330D01*
X101774603Y-101954208D01*
X142225397Y-101954208D01*
X142459537Y-102336330D01*
X142944932Y-102591967D01*
X143470873Y-102747997D01*
X144017148Y-102798422D01*
X144562764Y-102741306D01*
X145086752Y-102578842D01*
X145540463Y-102336330D01*
X145774603Y-101954208D01*
X144000000Y-100179605D01*
X142225397Y-101954208D01*
X101774603Y-101954208D01*
X100000000Y-100179605D01*
X98225397Y-101954208D01*
X96660000Y-101954208D01*
X96660000Y-100017148D01*
X97201578Y-100017148D01*
X97258694Y-100562764D01*
X97421158Y-101086752D01*
X97663670Y-101540463D01*
X98045792Y-101774603D01*
X99820395Y-100000000D01*
X100179605Y-100000000D01*
X101954208Y-101774603D01*
X102336330Y-101540463D01*
X102591967Y-101055068D01*
X102747997Y-100529127D01*
X102798422Y-99982852D01*
X102741306Y-99437236D01*
X102615559Y-99031668D01*
X111347400Y-99031668D01*
X111347400Y-99393132D01*
X111417918Y-99747650D01*
X111556244Y-100081599D01*
X111757062Y-100382144D01*
X112012656Y-100637738D01*
X112313201Y-100838556D01*
X112647150Y-100976882D01*
X113001668Y-101047400D01*
X113363132Y-101047400D01*
X113717650Y-100976882D01*
X114051599Y-100838556D01*
X114352144Y-100637738D01*
X114607738Y-100382144D01*
X114808556Y-100081599D01*
X114946882Y-99747650D01*
X115017400Y-99393132D01*
X115017400Y-99031668D01*
X131667400Y-99031668D01*
X131667400Y-99393132D01*
X131737918Y-99747650D01*
X131876244Y-100081599D01*
X132077062Y-100382144D01*
X132332656Y-100637738D01*
X132633201Y-100838556D01*
X132967150Y-100976882D01*
X133321668Y-101047400D01*
X133683132Y-101047400D01*
X134037650Y-100976882D01*
X134371599Y-100838556D01*
X134672144Y-100637738D01*
X134927738Y-100382144D01*
X135128556Y-100081599D01*
X135155252Y-100017148D01*
X141201578Y-100017148D01*
X141258694Y-100562764D01*
X141421158Y-101086752D01*
X141663670Y-101540463D01*
X142045792Y-101774603D01*
X143820395Y-100000000D01*
X144179605Y-100000000D01*
X145954208Y-101774603D01*
X146336330Y-101540463D01*
X146591967Y-101055068D01*
X146747997Y-100529127D01*
X146798422Y-99982852D01*
X146741306Y-99437236D01*
X146578842Y-98913248D01*
X146336330Y-98459537D01*
X145954208Y-98225397D01*
X144179605Y-100000000D01*
X143820395Y-100000000D01*
X142045792Y-98225397D01*
X141663670Y-98459537D01*
X141408033Y-98944932D01*
X141252003Y-99470873D01*
X141201578Y-100017148D01*
X135155252Y-100017148D01*
X135266882Y-99747650D01*
X135337400Y-99393132D01*
X135337400Y-99031668D01*
X135266882Y-98677150D01*
X135128556Y-98343201D01*
X134929834Y-98045792D01*
X142225397Y-98045792D01*
X144000000Y-99820395D01*
X145774603Y-98045792D01*
X145540463Y-97663670D01*
X145055068Y-97408033D01*
X144529127Y-97252003D01*
X143982852Y-97201578D01*
X143437236Y-97258694D01*
X142913248Y-97421158D01*
X142459537Y-97663670D01*
X142225397Y-98045792D01*
X134929834Y-98045792D01*
X134927738Y-98042656D01*
X134672144Y-97787062D01*
X134371599Y-97586244D01*
X134037650Y-97447918D01*
X133683132Y-97377400D01*
X133321668Y-97377400D01*
X132967150Y-97447918D01*
X132633201Y-97586244D01*
X132332656Y-97787062D01*
X132077062Y-98042656D01*
X131876244Y-98343201D01*
X131737918Y-98677150D01*
X131667400Y-99031668D01*
X115017400Y-99031668D01*
X114946882Y-98677150D01*
X114808556Y-98343201D01*
X114607738Y-98042656D01*
X114352144Y-97787062D01*
X114051599Y-97586244D01*
X113717650Y-97447918D01*
X113363132Y-97377400D01*
X113001668Y-97377400D01*
X112647150Y-97447918D01*
X112313201Y-97586244D01*
X112012656Y-97787062D01*
X111757062Y-98042656D01*
X111556244Y-98343201D01*
X111417918Y-98677150D01*
X111347400Y-99031668D01*
X102615559Y-99031668D01*
X102578842Y-98913248D01*
X102336330Y-98459537D01*
X101954208Y-98225397D01*
X100179605Y-100000000D01*
X99820395Y-100000000D01*
X98045792Y-98225397D01*
X97663670Y-98459537D01*
X97408033Y-98944932D01*
X97252003Y-99470873D01*
X97201578Y-100017148D01*
X96660000Y-100017148D01*
X96660000Y-98045792D01*
X98225397Y-98045792D01*
X100000000Y-99820395D01*
X101774603Y-98045792D01*
X101540463Y-97663670D01*
X101055068Y-97408033D01*
X100529127Y-97252003D01*
X99982852Y-97201578D01*
X99437236Y-97258694D01*
X98913248Y-97421158D01*
X98459537Y-97663670D01*
X98225397Y-98045792D01*
X96660000Y-98045792D01*
X96660000Y-95660000D01*
X149340000Y-95660000D01*
X149340001Y-162340000D01*
G37*
%TD.AperFunction*%
%TD*%
M02*
