%TF.GenerationSoftware,KiCad,Pcbnew,(5.1.0)-1*%
%TF.CreationDate,2021-11-19T17:00:51+02:00*%
%TF.ProjectId,25-station-led-alarm,32352d73-7461-4746-996f-6e2d6c65642d,rev?*%
%TF.SameCoordinates,Original*%
%TF.FileFunction,Copper,L2,Bot*%
%TF.FilePolarity,Positive*%
%FSLAX46Y46*%
G04 Gerber Fmt 4.6, Leading zero omitted, Abs format (unit mm)*
G04 Created by KiCad (PCBNEW (5.1.0)-1) date 2021-11-19 17:00:51*
%MOMM*%
%LPD*%
G04 APERTURE LIST*
%TA.AperFunction,ComponentPad*%
%ADD10R,1.800000X1.800000*%
%TD*%
%TA.AperFunction,ComponentPad*%
%ADD11C,1.800000*%
%TD*%
%TA.AperFunction,ComponentPad*%
%ADD12R,1.700000X1.700000*%
%TD*%
%TA.AperFunction,ComponentPad*%
%ADD13O,1.700000X1.700000*%
%TD*%
%TA.AperFunction,ComponentPad*%
%ADD14R,1.300000X1.300000*%
%TD*%
%TA.AperFunction,ComponentPad*%
%ADD15C,1.300000*%
%TD*%
%TA.AperFunction,ComponentPad*%
%ADD16R,2.400000X2.400000*%
%TD*%
%TA.AperFunction,ComponentPad*%
%ADD17O,2.400000X2.400000*%
%TD*%
%TA.AperFunction,ComponentPad*%
%ADD18C,1.600000*%
%TD*%
%TA.AperFunction,ComponentPad*%
%ADD19O,1.600000X1.600000*%
%TD*%
%TA.AperFunction,Conductor*%
%ADD20C,1.000000*%
%TD*%
%TA.AperFunction,Conductor*%
%ADD21C,0.254000*%
%TD*%
G04 APERTURE END LIST*
D10*
%TO.P,D1,1*%
%TO.N,Net-(D1-Pad1)*%
X95105220Y-107477560D03*
D11*
%TO.P,D1,2*%
%TO.N,+5V*%
X97645220Y-107477560D03*
%TD*%
D12*
%TO.P,J1,1*%
%TO.N,GND*%
X62252860Y-145059400D03*
D13*
%TO.P,J1,2*%
%TO.N,/P2*%
X62252860Y-147599400D03*
%TO.P,J1,3*%
%TO.N,/P1*%
X62252860Y-150139400D03*
%TO.P,J1,4*%
%TO.N,N/C*%
X62252860Y-152679400D03*
%TD*%
D12*
%TO.P,J2,1*%
%TO.N,GND*%
X62113160Y-139311380D03*
D13*
%TO.P,J2,2*%
%TO.N,N/C*%
X62113160Y-136771380D03*
%TO.P,J2,3*%
%TO.N,+5V*%
X62113160Y-134231380D03*
%TD*%
D12*
%TO.P,J3,1*%
%TO.N,+5V*%
X62166500Y-129164080D03*
D13*
%TO.P,J3,2*%
%TO.N,Net-(D13-Pad1)*%
X62166500Y-126624080D03*
%TD*%
%TO.P,J4,2*%
%TO.N,Net-(D13-Pad2)*%
X62174120Y-118303040D03*
D12*
%TO.P,J4,1*%
%TO.N,Net-(D13-Pad1)*%
X62174120Y-120843040D03*
%TD*%
D14*
%TO.P,Q3,1*%
%TO.N,Net-(D13-Pad2)*%
X71912480Y-133438900D03*
D15*
%TO.P,Q3,3*%
%TO.N,GND*%
X74452480Y-133438900D03*
%TO.P,Q3,2*%
%TO.N,Net-(Q2-Pad2)*%
X73182480Y-132168900D03*
%TD*%
%TO.P,Q4,2*%
%TO.N,Net-(Q1-Pad2)*%
X70815200Y-146248120D03*
%TO.P,Q4,3*%
%TO.N,GND*%
X69545200Y-144978120D03*
D14*
%TO.P,Q4,1*%
%TO.N,Net-(D13-Pad2)*%
X72085200Y-144978120D03*
%TD*%
D10*
%TO.P,D2,1*%
%TO.N,Net-(D10-Pad1)*%
X89354660Y-107482640D03*
D11*
%TO.P,D2,2*%
%TO.N,Net-(D1-Pad1)*%
X91894660Y-107482640D03*
%TD*%
%TO.P,D3,2*%
%TO.N,+5V*%
X97746820Y-114297460D03*
D10*
%TO.P,D3,1*%
%TO.N,Net-(D3-Pad1)*%
X95206820Y-114297460D03*
%TD*%
%TO.P,D4,1*%
%TO.N,Net-(D10-Pad2)*%
X95509080Y-121132600D03*
D11*
%TO.P,D4,2*%
%TO.N,+5V*%
X98049080Y-121132600D03*
%TD*%
%TO.P,D5,2*%
%TO.N,+5V*%
X97848469Y-131500561D03*
D10*
%TO.P,D5,1*%
%TO.N,Net-(D5-Pad1)*%
X95308469Y-131500561D03*
%TD*%
%TO.P,D6,1*%
%TO.N,Net-(D11-Pad2)*%
X94973140Y-148722080D03*
D11*
%TO.P,D6,2*%
%TO.N,+5V*%
X97513140Y-148722080D03*
%TD*%
%TO.P,D7,2*%
%TO.N,+5V*%
X97538540Y-139880340D03*
D10*
%TO.P,D7,1*%
%TO.N,Net-(D12-Pad2)*%
X94998540Y-139880340D03*
%TD*%
%TO.P,D8,1*%
%TO.N,Net-(D11-Pad1)*%
X87861140Y-131521200D03*
D11*
%TO.P,D8,2*%
%TO.N,Net-(D5-Pad1)*%
X90401140Y-131521200D03*
%TD*%
D10*
%TO.P,D9,1*%
%TO.N,Net-(D10-Pad1)*%
X89499440Y-114312700D03*
D11*
%TO.P,D9,2*%
%TO.N,Net-(D3-Pad1)*%
X92039440Y-114312700D03*
%TD*%
%TO.P,D10,2*%
%TO.N,Net-(D10-Pad2)*%
X92295980Y-121053860D03*
D10*
%TO.P,D10,1*%
%TO.N,Net-(D10-Pad1)*%
X89755980Y-121053860D03*
%TD*%
D11*
%TO.P,D11,2*%
%TO.N,Net-(D11-Pad2)*%
X90124280Y-148813520D03*
D10*
%TO.P,D11,1*%
%TO.N,Net-(D11-Pad1)*%
X87584280Y-148813520D03*
%TD*%
%TO.P,D12,1*%
%TO.N,Net-(D11-Pad1)*%
X87782400Y-139801600D03*
D11*
%TO.P,D12,2*%
%TO.N,Net-(D12-Pad2)*%
X90322400Y-139801600D03*
%TD*%
D16*
%TO.P,D13,1*%
%TO.N,Net-(D13-Pad1)*%
X67972940Y-128559560D03*
D17*
%TO.P,D13,2*%
%TO.N,Net-(D13-Pad2)*%
X67972940Y-115859560D03*
%TD*%
D15*
%TO.P,Q1,2*%
%TO.N,Net-(Q1-Pad2)*%
X79136240Y-106392980D03*
%TO.P,Q1,3*%
%TO.N,GND*%
X77866240Y-105122980D03*
D14*
%TO.P,Q1,1*%
%TO.N,Net-(Q1-Pad1)*%
X80406240Y-105122980D03*
%TD*%
%TO.P,Q2,1*%
%TO.N,Net-(Q2-Pad1)*%
X79339440Y-146288760D03*
D15*
%TO.P,Q2,3*%
%TO.N,GND*%
X76799440Y-146288760D03*
%TO.P,Q2,2*%
%TO.N,Net-(Q2-Pad2)*%
X78069440Y-147558760D03*
%TD*%
D18*
%TO.P,R2,1*%
%TO.N,Net-(Q1-Pad2)*%
X75265280Y-111597440D03*
D19*
%TO.P,R2,2*%
%TO.N,GND*%
X60025280Y-111597440D03*
%TD*%
D18*
%TO.P,R3,1*%
%TO.N,Net-(D11-Pad1)*%
X80921860Y-129179320D03*
D19*
%TO.P,R3,2*%
%TO.N,Net-(Q2-Pad1)*%
X80921860Y-141879320D03*
%TD*%
D18*
%TO.P,R4,1*%
%TO.N,Net-(Q1-Pad2)*%
X79504540Y-111589820D03*
D19*
%TO.P,R4,2*%
%TO.N,/P1*%
X79504540Y-124289820D03*
%TD*%
%TO.P,R5,2*%
%TO.N,/P2*%
X66946780Y-152115520D03*
D18*
%TO.P,R5,1*%
%TO.N,Net-(Q2-Pad2)*%
X79646780Y-152115520D03*
%TD*%
D19*
%TO.P,R6,2*%
%TO.N,Net-(Q1-Pad1)*%
X84940140Y-107749340D03*
D18*
%TO.P,R6,1*%
%TO.N,Net-(D10-Pad1)*%
X84940140Y-120449340D03*
%TD*%
D19*
%TO.P,R7,2*%
%TO.N,GND*%
X74838560Y-104993440D03*
D18*
%TO.P,R7,1*%
%TO.N,Net-(Q2-Pad2)*%
X59598560Y-104993440D03*
%TD*%
%TO.P,C3,1*%
%TO.N,GND*%
X68940680Y-139214860D03*
%TO.P,C3,2*%
%TO.N,+5V*%
X76440680Y-139214860D03*
%TD*%
D20*
%TO.N,Net-(D1-Pad1)*%
X95100140Y-107482640D02*
X95105220Y-107477560D01*
X91894660Y-107482640D02*
X95100140Y-107482640D01*
%TO.N,+5V*%
X97645220Y-114195860D02*
X97746820Y-114297460D01*
X97645220Y-107477560D02*
X97645220Y-114195860D01*
X97746820Y-120830340D02*
X98049080Y-121132600D01*
X97746820Y-114297460D02*
X97746820Y-120830340D01*
X97848469Y-139570411D02*
X97538540Y-139880340D01*
X97848469Y-131500561D02*
X97848469Y-139570411D01*
X97848469Y-121333211D02*
X98049080Y-121132600D01*
X97848469Y-131500561D02*
X97848469Y-121333211D01*
X97538540Y-148696680D02*
X97513140Y-148722080D01*
X97538540Y-139880340D02*
X97538540Y-148696680D01*
X62166500Y-134178040D02*
X62113160Y-134231380D01*
X62166500Y-129164080D02*
X62166500Y-134178040D01*
X97513140Y-149994872D02*
X97513140Y-148722080D01*
X92860112Y-154647900D02*
X97513140Y-149994872D01*
X74302620Y-154647900D02*
X92860112Y-154647900D01*
X64871600Y-145216880D02*
X74302620Y-154647900D01*
X62963159Y-135081379D02*
X62113160Y-134231380D01*
X64871600Y-136989820D02*
X62963159Y-135081379D01*
X76440680Y-139214860D02*
X74215640Y-136989820D01*
X64871600Y-139235180D02*
X64871600Y-138948160D01*
X74215640Y-136989820D02*
X66829940Y-136989820D01*
X64871600Y-139235180D02*
X64871600Y-145216880D01*
X65171320Y-136989820D02*
X64871600Y-137289540D01*
X66139060Y-136989820D02*
X65171320Y-136989820D01*
X64871600Y-137289540D02*
X64871600Y-139235180D01*
X64871600Y-136989820D02*
X64871600Y-137289540D01*
X66139060Y-136989820D02*
X64871600Y-136989820D01*
X66829940Y-136989820D02*
X66139060Y-136989820D01*
X65161160Y-137289540D02*
X65845690Y-137974070D01*
X64871600Y-137289540D02*
X65161160Y-137289540D01*
X64871600Y-138948160D02*
X65845690Y-137974070D01*
X65845690Y-137974070D02*
X66829940Y-136989820D01*
%TO.N,Net-(D10-Pad1)*%
X89354660Y-114167920D02*
X89499440Y-114312700D01*
X89354660Y-107482640D02*
X89354660Y-114167920D01*
X85544660Y-121053860D02*
X84940140Y-120449340D01*
X89755980Y-121053860D02*
X85544660Y-121053860D01*
X84940140Y-118872000D02*
X89499440Y-114312700D01*
X84940140Y-120449340D02*
X84940140Y-118872000D01*
%TO.N,Net-(D3-Pad1)*%
X92054680Y-114297460D02*
X92039440Y-114312700D01*
X95206820Y-114297460D02*
X92054680Y-114297460D01*
%TO.N,Net-(D10-Pad2)*%
X95430340Y-121053860D02*
X95509080Y-121132600D01*
X92295980Y-121053860D02*
X95430340Y-121053860D01*
%TO.N,Net-(D5-Pad1)*%
X95287830Y-131521200D02*
X95308469Y-131500561D01*
X90401140Y-131521200D02*
X95287830Y-131521200D01*
%TO.N,Net-(D11-Pad2)*%
X94881700Y-148813520D02*
X94973140Y-148722080D01*
X90124280Y-148813520D02*
X94881700Y-148813520D01*
%TO.N,Net-(D12-Pad2)*%
X90401140Y-139880340D02*
X90322400Y-139801600D01*
X94998540Y-139880340D02*
X90401140Y-139880340D01*
%TO.N,Net-(D11-Pad1)*%
X87861140Y-139722860D02*
X87782400Y-139801600D01*
X87861140Y-131521200D02*
X87861140Y-139722860D01*
X87782400Y-148615400D02*
X87584280Y-148813520D01*
X87782400Y-139801600D02*
X87782400Y-148615400D01*
X85519260Y-129179320D02*
X87861140Y-131521200D01*
X80921860Y-129179320D02*
X85519260Y-129179320D01*
%TO.N,Net-(Q1-Pad2)*%
X79136240Y-111221520D02*
X79504540Y-111589820D01*
X79136240Y-106392980D02*
X79136240Y-111221520D01*
X79496920Y-111597440D02*
X79504540Y-111589820D01*
X75265280Y-111597440D02*
X79496920Y-111597440D01*
X75265280Y-129600960D02*
X75265280Y-111597440D01*
X79075280Y-133410960D02*
X75265280Y-129600960D01*
X79075280Y-140548042D02*
X79075280Y-133410960D01*
X72725203Y-146898119D02*
X79075280Y-140548042D01*
X70815200Y-146248120D02*
X71465199Y-146898119D01*
X71465199Y-146898119D02*
X72725203Y-146898119D01*
%TO.N,GND*%
X69545200Y-139819380D02*
X68940680Y-139214860D01*
X69545200Y-144978120D02*
X69545200Y-139819380D01*
%TO.N,Net-(Q1-Pad1)*%
X82313780Y-105122980D02*
X84940140Y-107749340D01*
X80406240Y-105122980D02*
X82313780Y-105122980D01*
%TO.N,Net-(Q2-Pad1)*%
X79339440Y-143461740D02*
X80921860Y-141879320D01*
X79339440Y-146288760D02*
X79339440Y-143461740D01*
%TO.N,Net-(Q2-Pad2)*%
X78069440Y-150538180D02*
X79646780Y-152115520D01*
X78069440Y-147558760D02*
X78069440Y-150538180D01*
X73182480Y-131249662D02*
X73182480Y-132168900D01*
X73182480Y-116550440D02*
X73182480Y-131249662D01*
X62425479Y-105793439D02*
X73182480Y-116550440D01*
X59598560Y-104993440D02*
X60398559Y-105793439D01*
X60398559Y-105793439D02*
X62425479Y-105793439D01*
%TO.N,/P2*%
X66768980Y-152115520D02*
X62252860Y-147599400D01*
X66946780Y-152115520D02*
X66768980Y-152115520D01*
%TO.N,Net-(D13-Pad1)*%
X62174120Y-126616460D02*
X62166500Y-126624080D01*
X62174120Y-120843040D02*
X62174120Y-126616460D01*
X66037460Y-126624080D02*
X67972940Y-128559560D01*
X62166500Y-126624080D02*
X66037460Y-126624080D01*
%TO.N,Net-(D13-Pad2)*%
X71638160Y-133713220D02*
X71912480Y-133438900D01*
X69172939Y-117059559D02*
X67972940Y-115859560D01*
X71409560Y-119296180D02*
X69172939Y-117059559D01*
X71409560Y-132935980D02*
X71409560Y-119296180D01*
X71912480Y-133438900D02*
X71409560Y-132935980D01*
X64617600Y-115859560D02*
X62174120Y-118303040D01*
X67972940Y-115859560D02*
X64617600Y-115859560D01*
X72085200Y-133611620D02*
X71912480Y-133438900D01*
%TD*%
D21*
%TO.N,+5V*%
G36*
X99834046Y-101991822D02*
G01*
X100022379Y-155354235D01*
X99962475Y-155354680D01*
X99935364Y-155357554D01*
X58665205Y-155340448D01*
X58636151Y-147599400D01*
X60760675Y-147599400D01*
X60789347Y-147890511D01*
X60874261Y-148170434D01*
X61012154Y-148428414D01*
X61197726Y-148654534D01*
X61423846Y-148840106D01*
X61478651Y-148869400D01*
X61423846Y-148898694D01*
X61197726Y-149084266D01*
X61012154Y-149310386D01*
X60874261Y-149568366D01*
X60789347Y-149848289D01*
X60760675Y-150139400D01*
X60789347Y-150430511D01*
X60874261Y-150710434D01*
X61012154Y-150968414D01*
X61197726Y-151194534D01*
X61423846Y-151380106D01*
X61478651Y-151409400D01*
X61423846Y-151438694D01*
X61197726Y-151624266D01*
X61012154Y-151850386D01*
X60874261Y-152108366D01*
X60789347Y-152388289D01*
X60760675Y-152679400D01*
X60789347Y-152970511D01*
X60874261Y-153250434D01*
X61012154Y-153508414D01*
X61197726Y-153734534D01*
X61423846Y-153920106D01*
X61681826Y-154057999D01*
X61961749Y-154142913D01*
X62179910Y-154164400D01*
X62325810Y-154164400D01*
X62543971Y-154142913D01*
X62823894Y-154057999D01*
X63081874Y-153920106D01*
X63307994Y-153734534D01*
X63493566Y-153508414D01*
X63631459Y-153250434D01*
X63716373Y-152970511D01*
X63745045Y-152679400D01*
X63716373Y-152388289D01*
X63631459Y-152108366D01*
X63493566Y-151850386D01*
X63307994Y-151624266D01*
X63081874Y-151438694D01*
X63027069Y-151409400D01*
X63081874Y-151380106D01*
X63307994Y-151194534D01*
X63493566Y-150968414D01*
X63631459Y-150710434D01*
X63661088Y-150612760D01*
X65570595Y-152522267D01*
X65614598Y-152667328D01*
X65747848Y-152916621D01*
X65927172Y-153135128D01*
X66145679Y-153314452D01*
X66394972Y-153447702D01*
X66665471Y-153529756D01*
X66876288Y-153550520D01*
X67017272Y-153550520D01*
X67228089Y-153529756D01*
X67498588Y-153447702D01*
X67747881Y-153314452D01*
X67966388Y-153135128D01*
X68145712Y-152916621D01*
X68278962Y-152667328D01*
X68361016Y-152396829D01*
X68388723Y-152115520D01*
X68361016Y-151834211D01*
X68278962Y-151563712D01*
X68145712Y-151314419D01*
X67966388Y-151095912D01*
X67747881Y-150916588D01*
X67498588Y-150783338D01*
X67228089Y-150701284D01*
X67017272Y-150680520D01*
X66939112Y-150680520D01*
X63732705Y-147474114D01*
X63716373Y-147308289D01*
X63631459Y-147028366D01*
X63493566Y-146770386D01*
X63307994Y-146544266D01*
X63278173Y-146519793D01*
X63347040Y-146498902D01*
X63457354Y-146439937D01*
X63554045Y-146360585D01*
X63633397Y-146263894D01*
X63692362Y-146153580D01*
X63728672Y-146033882D01*
X63740932Y-145909400D01*
X63740932Y-144209400D01*
X63728672Y-144084918D01*
X63692362Y-143965220D01*
X63633397Y-143854906D01*
X63554045Y-143758215D01*
X63457354Y-143678863D01*
X63347040Y-143619898D01*
X63227342Y-143583588D01*
X63102860Y-143571328D01*
X61402860Y-143571328D01*
X61278378Y-143583588D01*
X61158680Y-143619898D01*
X61048366Y-143678863D01*
X60951675Y-143758215D01*
X60872323Y-143854906D01*
X60813358Y-143965220D01*
X60777048Y-144084918D01*
X60764788Y-144209400D01*
X60764788Y-145909400D01*
X60777048Y-146033882D01*
X60813358Y-146153580D01*
X60872323Y-146263894D01*
X60951675Y-146360585D01*
X61048366Y-146439937D01*
X61158680Y-146498902D01*
X61227547Y-146519793D01*
X61197726Y-146544266D01*
X61012154Y-146770386D01*
X60874261Y-147028366D01*
X60789347Y-147308289D01*
X60760675Y-147599400D01*
X58636151Y-147599400D01*
X58595509Y-136771380D01*
X60620975Y-136771380D01*
X60649647Y-137062491D01*
X60734561Y-137342414D01*
X60872454Y-137600394D01*
X61058026Y-137826514D01*
X61087847Y-137850987D01*
X61018980Y-137871878D01*
X60908666Y-137930843D01*
X60811975Y-138010195D01*
X60732623Y-138106886D01*
X60673658Y-138217200D01*
X60637348Y-138336898D01*
X60625088Y-138461380D01*
X60625088Y-140161380D01*
X60637348Y-140285862D01*
X60673658Y-140405560D01*
X60732623Y-140515874D01*
X60811975Y-140612565D01*
X60908666Y-140691917D01*
X61018980Y-140750882D01*
X61138678Y-140787192D01*
X61263160Y-140799452D01*
X62963160Y-140799452D01*
X63087642Y-140787192D01*
X63207340Y-140750882D01*
X63317654Y-140691917D01*
X63414345Y-140612565D01*
X63493697Y-140515874D01*
X63552662Y-140405560D01*
X63588972Y-140285862D01*
X63601232Y-140161380D01*
X63601232Y-138461380D01*
X63588972Y-138336898D01*
X63552662Y-138217200D01*
X63493697Y-138106886D01*
X63414345Y-138010195D01*
X63317654Y-137930843D01*
X63207340Y-137871878D01*
X63138473Y-137850987D01*
X63168294Y-137826514D01*
X63353866Y-137600394D01*
X63491759Y-137342414D01*
X63576673Y-137062491D01*
X63605345Y-136771380D01*
X63576673Y-136480269D01*
X63491759Y-136200346D01*
X63353866Y-135942366D01*
X63168294Y-135716246D01*
X62942174Y-135530674D01*
X62877637Y-135496179D01*
X62994515Y-135426558D01*
X63210748Y-135231649D01*
X63384801Y-134998300D01*
X63509985Y-134735479D01*
X63554636Y-134588270D01*
X63433315Y-134358380D01*
X62240160Y-134358380D01*
X62240160Y-134378380D01*
X61986160Y-134378380D01*
X61986160Y-134358380D01*
X60793005Y-134358380D01*
X60671684Y-134588270D01*
X60716335Y-134735479D01*
X60841519Y-134998300D01*
X61015572Y-135231649D01*
X61231805Y-135426558D01*
X61348683Y-135496179D01*
X61284146Y-135530674D01*
X61058026Y-135716246D01*
X60872454Y-135942366D01*
X60734561Y-136200346D01*
X60649647Y-136480269D01*
X60620975Y-136771380D01*
X58595509Y-136771380D01*
X58584636Y-133874490D01*
X60671684Y-133874490D01*
X60793005Y-134104380D01*
X61986160Y-134104380D01*
X61986160Y-132910566D01*
X62240160Y-132910566D01*
X62240160Y-134104380D01*
X63433315Y-134104380D01*
X63554636Y-133874490D01*
X63509985Y-133727281D01*
X63384801Y-133464460D01*
X63210748Y-133231111D01*
X62994515Y-133036202D01*
X62744412Y-132887223D01*
X62470051Y-132789899D01*
X62240160Y-132910566D01*
X61986160Y-132910566D01*
X61756269Y-132789899D01*
X61481908Y-132887223D01*
X61231805Y-133036202D01*
X61015572Y-133231111D01*
X60841519Y-133464460D01*
X60716335Y-133727281D01*
X60671684Y-133874490D01*
X58584636Y-133874490D01*
X58570147Y-130014080D01*
X60678428Y-130014080D01*
X60690688Y-130138562D01*
X60726998Y-130258260D01*
X60785963Y-130368574D01*
X60865315Y-130465265D01*
X60962006Y-130544617D01*
X61072320Y-130603582D01*
X61192018Y-130639892D01*
X61316500Y-130652152D01*
X61880750Y-130649080D01*
X62039500Y-130490330D01*
X62039500Y-129291080D01*
X62293500Y-129291080D01*
X62293500Y-130490330D01*
X62452250Y-130649080D01*
X63016500Y-130652152D01*
X63140982Y-130639892D01*
X63260680Y-130603582D01*
X63370994Y-130544617D01*
X63467685Y-130465265D01*
X63547037Y-130368574D01*
X63606002Y-130258260D01*
X63642312Y-130138562D01*
X63654572Y-130014080D01*
X63651500Y-129449830D01*
X63492750Y-129291080D01*
X62293500Y-129291080D01*
X62039500Y-129291080D01*
X60840250Y-129291080D01*
X60681500Y-129449830D01*
X60678428Y-130014080D01*
X58570147Y-130014080D01*
X58501021Y-111597440D01*
X58583337Y-111597440D01*
X58611044Y-111878749D01*
X58693098Y-112149248D01*
X58826348Y-112398541D01*
X59005672Y-112617048D01*
X59224179Y-112796372D01*
X59473472Y-112929622D01*
X59743971Y-113011676D01*
X59954788Y-113032440D01*
X60095772Y-113032440D01*
X60306589Y-113011676D01*
X60577088Y-112929622D01*
X60826381Y-112796372D01*
X61044888Y-112617048D01*
X61224212Y-112398541D01*
X61357462Y-112149248D01*
X61439516Y-111878749D01*
X61467223Y-111597440D01*
X61439516Y-111316131D01*
X61357462Y-111045632D01*
X61224212Y-110796339D01*
X61044888Y-110577832D01*
X60826381Y-110398508D01*
X60577088Y-110265258D01*
X60306589Y-110183204D01*
X60095772Y-110162440D01*
X59954788Y-110162440D01*
X59743971Y-110183204D01*
X59473472Y-110265258D01*
X59224179Y-110398508D01*
X59005672Y-110577832D01*
X58826348Y-110796339D01*
X58693098Y-111045632D01*
X58611044Y-111316131D01*
X58583337Y-111597440D01*
X58501021Y-111597440D01*
X58479642Y-105901792D01*
X58483923Y-105908199D01*
X58683801Y-106108077D01*
X58918833Y-106265120D01*
X59179986Y-106373293D01*
X59421278Y-106421290D01*
X59556567Y-106556579D01*
X59592110Y-106599888D01*
X59764936Y-106741723D01*
X59962112Y-106847115D01*
X60176060Y-106912016D01*
X60342807Y-106928439D01*
X60342816Y-106928439D01*
X60398558Y-106933929D01*
X60454300Y-106928439D01*
X61955348Y-106928439D01*
X72047480Y-117020573D01*
X72047480Y-118328968D01*
X70014931Y-116296420D01*
X70014927Y-116296415D01*
X69795412Y-116076900D01*
X69816818Y-115859560D01*
X69781388Y-115499837D01*
X69676461Y-115153938D01*
X69506069Y-114835156D01*
X69276759Y-114555741D01*
X68997344Y-114326431D01*
X68678562Y-114156039D01*
X68332663Y-114051112D01*
X68063079Y-114024560D01*
X67882801Y-114024560D01*
X67613217Y-114051112D01*
X67267318Y-114156039D01*
X66948536Y-114326431D01*
X66669121Y-114555741D01*
X66530575Y-114724560D01*
X64673352Y-114724560D01*
X64617600Y-114719069D01*
X64561848Y-114724560D01*
X64395101Y-114740983D01*
X64181153Y-114805884D01*
X63983977Y-114911276D01*
X63854456Y-115017571D01*
X63854455Y-115017572D01*
X63811151Y-115053111D01*
X63775613Y-115096414D01*
X62048834Y-116823195D01*
X61883009Y-116839527D01*
X61603086Y-116924441D01*
X61345106Y-117062334D01*
X61118986Y-117247906D01*
X60933414Y-117474026D01*
X60795521Y-117732006D01*
X60710607Y-118011929D01*
X60681935Y-118303040D01*
X60710607Y-118594151D01*
X60795521Y-118874074D01*
X60933414Y-119132054D01*
X61118986Y-119358174D01*
X61148807Y-119382647D01*
X61079940Y-119403538D01*
X60969626Y-119462503D01*
X60872935Y-119541855D01*
X60793583Y-119638546D01*
X60734618Y-119748860D01*
X60698308Y-119868558D01*
X60686048Y-119993040D01*
X60686048Y-121693040D01*
X60698308Y-121817522D01*
X60734618Y-121937220D01*
X60793583Y-122047534D01*
X60872935Y-122144225D01*
X60969626Y-122223577D01*
X61039120Y-122260723D01*
X61039121Y-125656977D01*
X60925794Y-125795066D01*
X60787901Y-126053046D01*
X60702987Y-126332969D01*
X60674315Y-126624080D01*
X60702987Y-126915191D01*
X60787901Y-127195114D01*
X60925794Y-127453094D01*
X61111366Y-127679214D01*
X61141187Y-127703687D01*
X61072320Y-127724578D01*
X60962006Y-127783543D01*
X60865315Y-127862895D01*
X60785963Y-127959586D01*
X60726998Y-128069900D01*
X60690688Y-128189598D01*
X60678428Y-128314080D01*
X60681500Y-128878330D01*
X60840250Y-129037080D01*
X62039500Y-129037080D01*
X62039500Y-129017080D01*
X62293500Y-129017080D01*
X62293500Y-129037080D01*
X63492750Y-129037080D01*
X63651500Y-128878330D01*
X63654572Y-128314080D01*
X63642312Y-128189598D01*
X63606002Y-128069900D01*
X63547037Y-127959586D01*
X63467685Y-127862895D01*
X63370994Y-127783543D01*
X63325228Y-127759080D01*
X65567329Y-127759080D01*
X66134868Y-128326619D01*
X66134868Y-129759560D01*
X66147128Y-129884042D01*
X66183438Y-130003740D01*
X66242403Y-130114054D01*
X66321755Y-130210745D01*
X66418446Y-130290097D01*
X66528760Y-130349062D01*
X66648458Y-130385372D01*
X66772940Y-130397632D01*
X69172940Y-130397632D01*
X69297422Y-130385372D01*
X69417120Y-130349062D01*
X69527434Y-130290097D01*
X69624125Y-130210745D01*
X69703477Y-130114054D01*
X69762442Y-130003740D01*
X69798752Y-129884042D01*
X69811012Y-129759560D01*
X69811012Y-127359560D01*
X69798752Y-127235078D01*
X69762442Y-127115380D01*
X69703477Y-127005066D01*
X69624125Y-126908375D01*
X69527434Y-126829023D01*
X69417120Y-126770058D01*
X69297422Y-126733748D01*
X69172940Y-126721488D01*
X67739999Y-126721488D01*
X66879456Y-125860945D01*
X66843909Y-125817631D01*
X66671083Y-125675796D01*
X66473907Y-125570404D01*
X66259959Y-125505503D01*
X66093212Y-125489080D01*
X66093211Y-125489080D01*
X66037460Y-125483589D01*
X65981709Y-125489080D01*
X63309120Y-125489080D01*
X63309120Y-122260723D01*
X63378614Y-122223577D01*
X63475305Y-122144225D01*
X63554657Y-122047534D01*
X63613622Y-121937220D01*
X63649932Y-121817522D01*
X63662192Y-121693040D01*
X63662192Y-119993040D01*
X63649932Y-119868558D01*
X63613622Y-119748860D01*
X63554657Y-119638546D01*
X63475305Y-119541855D01*
X63378614Y-119462503D01*
X63268300Y-119403538D01*
X63199433Y-119382647D01*
X63229254Y-119358174D01*
X63414826Y-119132054D01*
X63552719Y-118874074D01*
X63637633Y-118594151D01*
X63653965Y-118428326D01*
X65087733Y-116994560D01*
X66530575Y-116994560D01*
X66669121Y-117163379D01*
X66948536Y-117392689D01*
X67267318Y-117563081D01*
X67613217Y-117668008D01*
X67882801Y-117694560D01*
X68063079Y-117694560D01*
X68190280Y-117682032D01*
X68409795Y-117901547D01*
X68409800Y-117901551D01*
X70274561Y-119766313D01*
X70274560Y-132880229D01*
X70269069Y-132935980D01*
X70274560Y-132991731D01*
X70290983Y-133158478D01*
X70355884Y-133372426D01*
X70461276Y-133569603D01*
X70506399Y-133624585D01*
X70497669Y-133713220D01*
X70519583Y-133935718D01*
X70584484Y-134149666D01*
X70660455Y-134291798D01*
X70672978Y-134333080D01*
X70731943Y-134443394D01*
X70811295Y-134540085D01*
X70907986Y-134619437D01*
X71018300Y-134678402D01*
X71059582Y-134690925D01*
X71201714Y-134766896D01*
X71415662Y-134831797D01*
X71638160Y-134853711D01*
X71860658Y-134831797D01*
X72074606Y-134766896D01*
X72106122Y-134750050D01*
X72307698Y-134730197D01*
X72318329Y-134726972D01*
X72562480Y-134726972D01*
X72686962Y-134714712D01*
X72806660Y-134678402D01*
X72916974Y-134619437D01*
X73013665Y-134540085D01*
X73093017Y-134443394D01*
X73151982Y-134333080D01*
X73188292Y-134213382D01*
X73200552Y-134088900D01*
X73200552Y-133844749D01*
X73203777Y-133834118D01*
X73209454Y-133776481D01*
X73216861Y-133813721D01*
X73313727Y-134047576D01*
X73454355Y-134258040D01*
X73633340Y-134437025D01*
X73843804Y-134577653D01*
X74077659Y-134674519D01*
X74325919Y-134723900D01*
X74579041Y-134723900D01*
X74827301Y-134674519D01*
X75061156Y-134577653D01*
X75271620Y-134437025D01*
X75450605Y-134258040D01*
X75591233Y-134047576D01*
X75688099Y-133813721D01*
X75737480Y-133565461D01*
X75737480Y-133312339D01*
X75688099Y-133064079D01*
X75591233Y-132830224D01*
X75450605Y-132619760D01*
X75271620Y-132440775D01*
X75061156Y-132300147D01*
X74827301Y-132203281D01*
X74579041Y-132153900D01*
X74467480Y-132153900D01*
X74467480Y-132042339D01*
X74418099Y-131794079D01*
X74321233Y-131560224D01*
X74317480Y-131554607D01*
X74317480Y-130235173D01*
X74458831Y-130407409D01*
X74502145Y-130442956D01*
X77940281Y-133881094D01*
X77940280Y-140077910D01*
X73373272Y-144644919D01*
X73373272Y-144328120D01*
X73361012Y-144203638D01*
X73324702Y-144083940D01*
X73265737Y-143973626D01*
X73186385Y-143876935D01*
X73089694Y-143797583D01*
X72979380Y-143738618D01*
X72859682Y-143702308D01*
X72735200Y-143690048D01*
X71435200Y-143690048D01*
X71310718Y-143702308D01*
X71191020Y-143738618D01*
X71080706Y-143797583D01*
X70984015Y-143876935D01*
X70904663Y-143973626D01*
X70845698Y-144083940D01*
X70809388Y-144203638D01*
X70797128Y-144328120D01*
X70797128Y-144685292D01*
X70780819Y-144603299D01*
X70683953Y-144369444D01*
X70680200Y-144363827D01*
X70680200Y-140207562D01*
X75627583Y-140207562D01*
X75699166Y-140451531D01*
X75954676Y-140572431D01*
X76228864Y-140641160D01*
X76511192Y-140655077D01*
X76790810Y-140613647D01*
X77056972Y-140518463D01*
X77182194Y-140451531D01*
X77253777Y-140207562D01*
X76440680Y-139394465D01*
X75627583Y-140207562D01*
X70680200Y-140207562D01*
X70680200Y-139875121D01*
X70685690Y-139819379D01*
X70680200Y-139763637D01*
X70680200Y-139763628D01*
X70663777Y-139596881D01*
X70598876Y-139382933D01*
X70546729Y-139285372D01*
X75000463Y-139285372D01*
X75041893Y-139564990D01*
X75137077Y-139831152D01*
X75204009Y-139956374D01*
X75447978Y-140027957D01*
X76261075Y-139214860D01*
X76620285Y-139214860D01*
X77433382Y-140027957D01*
X77677351Y-139956374D01*
X77798251Y-139700864D01*
X77866980Y-139426676D01*
X77880897Y-139144348D01*
X77839467Y-138864730D01*
X77744283Y-138598568D01*
X77677351Y-138473346D01*
X77433382Y-138401763D01*
X76620285Y-139214860D01*
X76261075Y-139214860D01*
X75447978Y-138401763D01*
X75204009Y-138473346D01*
X75083109Y-138728856D01*
X75014380Y-139003044D01*
X75000463Y-139285372D01*
X70546729Y-139285372D01*
X70493484Y-139185757D01*
X70367459Y-139032195D01*
X70320533Y-138796286D01*
X70212360Y-138535133D01*
X70055317Y-138300101D01*
X69977374Y-138222158D01*
X75627583Y-138222158D01*
X76440680Y-139035255D01*
X77253777Y-138222158D01*
X77182194Y-137978189D01*
X76926684Y-137857289D01*
X76652496Y-137788560D01*
X76370168Y-137774643D01*
X76090550Y-137816073D01*
X75824388Y-137911257D01*
X75699166Y-137978189D01*
X75627583Y-138222158D01*
X69977374Y-138222158D01*
X69855439Y-138100223D01*
X69620407Y-137943180D01*
X69359254Y-137835007D01*
X69082015Y-137779860D01*
X68799345Y-137779860D01*
X68522106Y-137835007D01*
X68260953Y-137943180D01*
X68025921Y-138100223D01*
X67826043Y-138300101D01*
X67669000Y-138535133D01*
X67560827Y-138796286D01*
X67505680Y-139073525D01*
X67505680Y-139356195D01*
X67560827Y-139633434D01*
X67669000Y-139894587D01*
X67826043Y-140129619D01*
X68025921Y-140329497D01*
X68260953Y-140486540D01*
X68410201Y-140548360D01*
X68410200Y-144363827D01*
X68406447Y-144369444D01*
X68309581Y-144603299D01*
X68260200Y-144851559D01*
X68260200Y-145104681D01*
X68309581Y-145352941D01*
X68406447Y-145586796D01*
X68547075Y-145797260D01*
X68726060Y-145976245D01*
X68936524Y-146116873D01*
X69170379Y-146213739D01*
X69418639Y-146263120D01*
X69530200Y-146263120D01*
X69530200Y-146374681D01*
X69579581Y-146622941D01*
X69676447Y-146856796D01*
X69817075Y-147067260D01*
X69996060Y-147246245D01*
X70206524Y-147386873D01*
X70440379Y-147483739D01*
X70447006Y-147485057D01*
X70623203Y-147661254D01*
X70658750Y-147704568D01*
X70831576Y-147846403D01*
X71028752Y-147951795D01*
X71242700Y-148016696D01*
X71409447Y-148033119D01*
X71409456Y-148033119D01*
X71465198Y-148038609D01*
X71520940Y-148033119D01*
X72669452Y-148033119D01*
X72725203Y-148038610D01*
X72780954Y-148033119D01*
X72780955Y-148033119D01*
X72947702Y-148016696D01*
X73161650Y-147951795D01*
X73358826Y-147846403D01*
X73531652Y-147704568D01*
X73567199Y-147661254D01*
X78380616Y-142847838D01*
X78353308Y-142898928D01*
X78285764Y-143025294D01*
X78220863Y-143239242D01*
X78198949Y-143461740D01*
X78204441Y-143517501D01*
X78204440Y-145228778D01*
X78158903Y-145284266D01*
X78099938Y-145394580D01*
X78063628Y-145514278D01*
X78051368Y-145638760D01*
X78051368Y-145995932D01*
X78035059Y-145913939D01*
X77938193Y-145680084D01*
X77797565Y-145469620D01*
X77618580Y-145290635D01*
X77408116Y-145150007D01*
X77174261Y-145053141D01*
X76926001Y-145003760D01*
X76672879Y-145003760D01*
X76424619Y-145053141D01*
X76190764Y-145150007D01*
X75980300Y-145290635D01*
X75801315Y-145469620D01*
X75660687Y-145680084D01*
X75563821Y-145913939D01*
X75514440Y-146162199D01*
X75514440Y-146415321D01*
X75563821Y-146663581D01*
X75660687Y-146897436D01*
X75801315Y-147107900D01*
X75980300Y-147286885D01*
X76190764Y-147427513D01*
X76424619Y-147524379D01*
X76672879Y-147573760D01*
X76784440Y-147573760D01*
X76784440Y-147685321D01*
X76833821Y-147933581D01*
X76930687Y-148167436D01*
X76934440Y-148173053D01*
X76934441Y-150482419D01*
X76928949Y-150538180D01*
X76950863Y-150760678D01*
X77015764Y-150974626D01*
X77027693Y-150996943D01*
X77121157Y-151171803D01*
X77262992Y-151344629D01*
X77306300Y-151380171D01*
X78218931Y-152292803D01*
X78266927Y-152534094D01*
X78375100Y-152795247D01*
X78532143Y-153030279D01*
X78732021Y-153230157D01*
X78967053Y-153387200D01*
X79228206Y-153495373D01*
X79505445Y-153550520D01*
X79788115Y-153550520D01*
X80065354Y-153495373D01*
X80326507Y-153387200D01*
X80561539Y-153230157D01*
X80761417Y-153030279D01*
X80918460Y-152795247D01*
X81026633Y-152534094D01*
X81081780Y-152256855D01*
X81081780Y-151974185D01*
X81026633Y-151696946D01*
X80918460Y-151435793D01*
X80761417Y-151200761D01*
X80561539Y-151000883D01*
X80326507Y-150843840D01*
X80065354Y-150735667D01*
X79824063Y-150687671D01*
X79204440Y-150068049D01*
X79204440Y-148173053D01*
X79208193Y-148167436D01*
X79305059Y-147933581D01*
X79354440Y-147685321D01*
X79354440Y-147576832D01*
X79989440Y-147576832D01*
X80113922Y-147564572D01*
X80233620Y-147528262D01*
X80343934Y-147469297D01*
X80440625Y-147389945D01*
X80519977Y-147293254D01*
X80578942Y-147182940D01*
X80615252Y-147063242D01*
X80627512Y-146938760D01*
X80627512Y-145638760D01*
X80615252Y-145514278D01*
X80578942Y-145394580D01*
X80519977Y-145284266D01*
X80474440Y-145228779D01*
X80474440Y-143931871D01*
X81102878Y-143303434D01*
X81203169Y-143293556D01*
X81473668Y-143211502D01*
X81722961Y-143078252D01*
X81941468Y-142898928D01*
X82120792Y-142680421D01*
X82254042Y-142431128D01*
X82336096Y-142160629D01*
X82363803Y-141879320D01*
X82336096Y-141598011D01*
X82254042Y-141327512D01*
X82120792Y-141078219D01*
X81941468Y-140859712D01*
X81722961Y-140680388D01*
X81473668Y-140547138D01*
X81203169Y-140465084D01*
X80992352Y-140444320D01*
X80851368Y-140444320D01*
X80640551Y-140465084D01*
X80370052Y-140547138D01*
X80207292Y-140634135D01*
X80210280Y-140603794D01*
X80210280Y-140603793D01*
X80215771Y-140548043D01*
X80210280Y-140492291D01*
X80210280Y-133466712D01*
X80215771Y-133410960D01*
X80193857Y-133188461D01*
X80128956Y-132974513D01*
X80023564Y-132777337D01*
X79917269Y-132647816D01*
X79917267Y-132647814D01*
X79881729Y-132604511D01*
X79838426Y-132568973D01*
X76400280Y-129130829D01*
X76400280Y-129037985D01*
X79486860Y-129037985D01*
X79486860Y-129320655D01*
X79542007Y-129597894D01*
X79650180Y-129859047D01*
X79807223Y-130094079D01*
X80007101Y-130293957D01*
X80242133Y-130451000D01*
X80503286Y-130559173D01*
X80780525Y-130614320D01*
X81063195Y-130614320D01*
X81340434Y-130559173D01*
X81601587Y-130451000D01*
X81806144Y-130314320D01*
X85049129Y-130314320D01*
X86323068Y-131588260D01*
X86323068Y-132421200D01*
X86335328Y-132545682D01*
X86371638Y-132665380D01*
X86430603Y-132775694D01*
X86509955Y-132872385D01*
X86606646Y-132951737D01*
X86716960Y-133010702D01*
X86726140Y-133013487D01*
X86726141Y-138285428D01*
X86638220Y-138312098D01*
X86527906Y-138371063D01*
X86431215Y-138450415D01*
X86351863Y-138547106D01*
X86292898Y-138657420D01*
X86256588Y-138777118D01*
X86244328Y-138901600D01*
X86244328Y-140701600D01*
X86256588Y-140826082D01*
X86292898Y-140945780D01*
X86351863Y-141056094D01*
X86431215Y-141152785D01*
X86527906Y-141232137D01*
X86638220Y-141291102D01*
X86647400Y-141293887D01*
X86647401Y-147279080D01*
X86559798Y-147287708D01*
X86440100Y-147324018D01*
X86329786Y-147382983D01*
X86233095Y-147462335D01*
X86153743Y-147559026D01*
X86094778Y-147669340D01*
X86058468Y-147789038D01*
X86046208Y-147913520D01*
X86046208Y-149713520D01*
X86058468Y-149838002D01*
X86094778Y-149957700D01*
X86153743Y-150068014D01*
X86233095Y-150164705D01*
X86329786Y-150244057D01*
X86440100Y-150303022D01*
X86559798Y-150339332D01*
X86684280Y-150351592D01*
X88484280Y-150351592D01*
X88608762Y-150339332D01*
X88728460Y-150303022D01*
X88838774Y-150244057D01*
X88935465Y-150164705D01*
X89014817Y-150068014D01*
X89073782Y-149957700D01*
X89079336Y-149939393D01*
X89145775Y-150005832D01*
X89397185Y-150173819D01*
X89676537Y-150289531D01*
X89973096Y-150348520D01*
X90275464Y-150348520D01*
X90572023Y-150289531D01*
X90851375Y-150173819D01*
X91102785Y-150005832D01*
X91160097Y-149948520D01*
X93527608Y-149948520D01*
X93542603Y-149976574D01*
X93621955Y-150073265D01*
X93718646Y-150152617D01*
X93828960Y-150211582D01*
X93948658Y-150247892D01*
X94073140Y-150260152D01*
X95873140Y-150260152D01*
X95997622Y-150247892D01*
X96117320Y-150211582D01*
X96227634Y-150152617D01*
X96324325Y-150073265D01*
X96403677Y-149976574D01*
X96462642Y-149866260D01*
X96465953Y-149855345D01*
X96512718Y-149902110D01*
X96628666Y-149786162D01*
X96712348Y-150040341D01*
X96984915Y-150171238D01*
X97277782Y-150246445D01*
X97579693Y-150263071D01*
X97879047Y-150220477D01*
X98164339Y-150120302D01*
X98313932Y-150040341D01*
X98397615Y-149786160D01*
X97513140Y-148901685D01*
X97498998Y-148915828D01*
X97319393Y-148736223D01*
X97333535Y-148722080D01*
X97692745Y-148722080D01*
X98577220Y-149606555D01*
X98831401Y-149522872D01*
X98962298Y-149250305D01*
X99037505Y-148957438D01*
X99054131Y-148655527D01*
X99011537Y-148356173D01*
X98911362Y-148070881D01*
X98831401Y-147921288D01*
X98577220Y-147837605D01*
X97692745Y-148722080D01*
X97333535Y-148722080D01*
X97319393Y-148707938D01*
X97498998Y-148528333D01*
X97513140Y-148542475D01*
X98397615Y-147658000D01*
X98313932Y-147403819D01*
X98041365Y-147272922D01*
X97748498Y-147197715D01*
X97446587Y-147181089D01*
X97147233Y-147223683D01*
X96861941Y-147323858D01*
X96712348Y-147403819D01*
X96628666Y-147657998D01*
X96512718Y-147542050D01*
X96465953Y-147588815D01*
X96462642Y-147577900D01*
X96403677Y-147467586D01*
X96324325Y-147370895D01*
X96227634Y-147291543D01*
X96117320Y-147232578D01*
X95997622Y-147196268D01*
X95873140Y-147184008D01*
X94073140Y-147184008D01*
X93948658Y-147196268D01*
X93828960Y-147232578D01*
X93718646Y-147291543D01*
X93621955Y-147370895D01*
X93542603Y-147467586D01*
X93483638Y-147577900D01*
X93453115Y-147678520D01*
X91160097Y-147678520D01*
X91102785Y-147621208D01*
X90851375Y-147453221D01*
X90572023Y-147337509D01*
X90275464Y-147278520D01*
X89973096Y-147278520D01*
X89676537Y-147337509D01*
X89397185Y-147453221D01*
X89145775Y-147621208D01*
X89079336Y-147687647D01*
X89073782Y-147669340D01*
X89014817Y-147559026D01*
X88935465Y-147462335D01*
X88917400Y-147447509D01*
X88917400Y-141293887D01*
X88926580Y-141291102D01*
X89036894Y-141232137D01*
X89133585Y-141152785D01*
X89212937Y-141056094D01*
X89271902Y-140945780D01*
X89277456Y-140927473D01*
X89343895Y-140993912D01*
X89595305Y-141161899D01*
X89874657Y-141277611D01*
X90171216Y-141336600D01*
X90473584Y-141336600D01*
X90770143Y-141277611D01*
X91049495Y-141161899D01*
X91268836Y-141015340D01*
X93506253Y-141015340D01*
X93509038Y-141024520D01*
X93568003Y-141134834D01*
X93647355Y-141231525D01*
X93744046Y-141310877D01*
X93854360Y-141369842D01*
X93974058Y-141406152D01*
X94098540Y-141418412D01*
X95898540Y-141418412D01*
X96023022Y-141406152D01*
X96142720Y-141369842D01*
X96253034Y-141310877D01*
X96349725Y-141231525D01*
X96429077Y-141134834D01*
X96488042Y-141024520D01*
X96491353Y-141013605D01*
X96538118Y-141060370D01*
X96654066Y-140944422D01*
X96737748Y-141198601D01*
X97010315Y-141329498D01*
X97303182Y-141404705D01*
X97605093Y-141421331D01*
X97904447Y-141378737D01*
X98189739Y-141278562D01*
X98339332Y-141198601D01*
X98423015Y-140944420D01*
X97538540Y-140059945D01*
X97524398Y-140074088D01*
X97344793Y-139894483D01*
X97358935Y-139880340D01*
X97718145Y-139880340D01*
X98602620Y-140764815D01*
X98856801Y-140681132D01*
X98987698Y-140408565D01*
X99062905Y-140115698D01*
X99079531Y-139813787D01*
X99036937Y-139514433D01*
X98936762Y-139229141D01*
X98856801Y-139079548D01*
X98602620Y-138995865D01*
X97718145Y-139880340D01*
X97358935Y-139880340D01*
X97344793Y-139866198D01*
X97524398Y-139686593D01*
X97538540Y-139700735D01*
X98423015Y-138816260D01*
X98339332Y-138562079D01*
X98066765Y-138431182D01*
X97773898Y-138355975D01*
X97471987Y-138339349D01*
X97172633Y-138381943D01*
X96887341Y-138482118D01*
X96737748Y-138562079D01*
X96654066Y-138816258D01*
X96538118Y-138700310D01*
X96491353Y-138747075D01*
X96488042Y-138736160D01*
X96429077Y-138625846D01*
X96349725Y-138529155D01*
X96253034Y-138449803D01*
X96142720Y-138390838D01*
X96023022Y-138354528D01*
X95898540Y-138342268D01*
X94098540Y-138342268D01*
X93974058Y-138354528D01*
X93854360Y-138390838D01*
X93744046Y-138449803D01*
X93647355Y-138529155D01*
X93568003Y-138625846D01*
X93509038Y-138736160D01*
X93506253Y-138745340D01*
X91436957Y-138745340D01*
X91300905Y-138609288D01*
X91049495Y-138441301D01*
X90770143Y-138325589D01*
X90473584Y-138266600D01*
X90171216Y-138266600D01*
X89874657Y-138325589D01*
X89595305Y-138441301D01*
X89343895Y-138609288D01*
X89277456Y-138675727D01*
X89271902Y-138657420D01*
X89212937Y-138547106D01*
X89133585Y-138450415D01*
X89036894Y-138371063D01*
X88996140Y-138349279D01*
X88996140Y-133013487D01*
X89005320Y-133010702D01*
X89115634Y-132951737D01*
X89212325Y-132872385D01*
X89291677Y-132775694D01*
X89350642Y-132665380D01*
X89356196Y-132647073D01*
X89422635Y-132713512D01*
X89674045Y-132881499D01*
X89953397Y-132997211D01*
X90249956Y-133056200D01*
X90552324Y-133056200D01*
X90848883Y-132997211D01*
X91128235Y-132881499D01*
X91379645Y-132713512D01*
X91436957Y-132656200D01*
X93825092Y-132656200D01*
X93877932Y-132755055D01*
X93957284Y-132851746D01*
X94053975Y-132931098D01*
X94164289Y-132990063D01*
X94283987Y-133026373D01*
X94408469Y-133038633D01*
X96208469Y-133038633D01*
X96332951Y-133026373D01*
X96452649Y-132990063D01*
X96562963Y-132931098D01*
X96659654Y-132851746D01*
X96739006Y-132755055D01*
X96797971Y-132644741D01*
X96801282Y-132633826D01*
X96848047Y-132680591D01*
X96963995Y-132564643D01*
X97047677Y-132818822D01*
X97320244Y-132949719D01*
X97613111Y-133024926D01*
X97915022Y-133041552D01*
X98214376Y-132998958D01*
X98499668Y-132898783D01*
X98649261Y-132818822D01*
X98732944Y-132564641D01*
X97848469Y-131680166D01*
X97834327Y-131694309D01*
X97654722Y-131514704D01*
X97668864Y-131500561D01*
X98028074Y-131500561D01*
X98912549Y-132385036D01*
X99166730Y-132301353D01*
X99297627Y-132028786D01*
X99372834Y-131735919D01*
X99389460Y-131434008D01*
X99346866Y-131134654D01*
X99246691Y-130849362D01*
X99166730Y-130699769D01*
X98912549Y-130616086D01*
X98028074Y-131500561D01*
X97668864Y-131500561D01*
X97654722Y-131486419D01*
X97834327Y-131306814D01*
X97848469Y-131320956D01*
X98732944Y-130436481D01*
X98649261Y-130182300D01*
X98376694Y-130051403D01*
X98083827Y-129976196D01*
X97781916Y-129959570D01*
X97482562Y-130002164D01*
X97197270Y-130102339D01*
X97047677Y-130182300D01*
X96963995Y-130436479D01*
X96848047Y-130320531D01*
X96801282Y-130367296D01*
X96797971Y-130356381D01*
X96739006Y-130246067D01*
X96659654Y-130149376D01*
X96562963Y-130070024D01*
X96452649Y-130011059D01*
X96332951Y-129974749D01*
X96208469Y-129962489D01*
X94408469Y-129962489D01*
X94283987Y-129974749D01*
X94164289Y-130011059D01*
X94053975Y-130070024D01*
X93957284Y-130149376D01*
X93877932Y-130246067D01*
X93818967Y-130356381D01*
X93809922Y-130386200D01*
X91436957Y-130386200D01*
X91379645Y-130328888D01*
X91128235Y-130160901D01*
X90848883Y-130045189D01*
X90552324Y-129986200D01*
X90249956Y-129986200D01*
X89953397Y-130045189D01*
X89674045Y-130160901D01*
X89422635Y-130328888D01*
X89356196Y-130395327D01*
X89350642Y-130377020D01*
X89291677Y-130266706D01*
X89212325Y-130170015D01*
X89115634Y-130090663D01*
X89005320Y-130031698D01*
X88885622Y-129995388D01*
X88761140Y-129983128D01*
X87928200Y-129983128D01*
X86361256Y-128416185D01*
X86325709Y-128372871D01*
X86152883Y-128231036D01*
X85955707Y-128125644D01*
X85741759Y-128060743D01*
X85575012Y-128044320D01*
X85575011Y-128044320D01*
X85519260Y-128038829D01*
X85463509Y-128044320D01*
X81806144Y-128044320D01*
X81601587Y-127907640D01*
X81340434Y-127799467D01*
X81063195Y-127744320D01*
X80780525Y-127744320D01*
X80503286Y-127799467D01*
X80242133Y-127907640D01*
X80007101Y-128064683D01*
X79807223Y-128264561D01*
X79650180Y-128499593D01*
X79542007Y-128760746D01*
X79486860Y-129037985D01*
X76400280Y-129037985D01*
X76400280Y-124289820D01*
X78062597Y-124289820D01*
X78090304Y-124571129D01*
X78172358Y-124841628D01*
X78305608Y-125090921D01*
X78484932Y-125309428D01*
X78703439Y-125488752D01*
X78952732Y-125622002D01*
X79223231Y-125704056D01*
X79434048Y-125724820D01*
X79575032Y-125724820D01*
X79785849Y-125704056D01*
X80056348Y-125622002D01*
X80305641Y-125488752D01*
X80524148Y-125309428D01*
X80703472Y-125090921D01*
X80836722Y-124841628D01*
X80918776Y-124571129D01*
X80946483Y-124289820D01*
X80918776Y-124008511D01*
X80836722Y-123738012D01*
X80703472Y-123488719D01*
X80524148Y-123270212D01*
X80305641Y-123090888D01*
X80056348Y-122957638D01*
X79785849Y-122875584D01*
X79575032Y-122854820D01*
X79434048Y-122854820D01*
X79223231Y-122875584D01*
X78952732Y-122957638D01*
X78703439Y-123090888D01*
X78484932Y-123270212D01*
X78305608Y-123488719D01*
X78172358Y-123738012D01*
X78090304Y-124008511D01*
X78062597Y-124289820D01*
X76400280Y-124289820D01*
X76400280Y-120308005D01*
X83505140Y-120308005D01*
X83505140Y-120590675D01*
X83560287Y-120867914D01*
X83668460Y-121129067D01*
X83825503Y-121364099D01*
X84025381Y-121563977D01*
X84260413Y-121721020D01*
X84521566Y-121829193D01*
X84757475Y-121876119D01*
X84911037Y-122002144D01*
X85108213Y-122107536D01*
X85322161Y-122172437D01*
X85488908Y-122188860D01*
X85488917Y-122188860D01*
X85544659Y-122194350D01*
X85600401Y-122188860D01*
X88263693Y-122188860D01*
X88266478Y-122198040D01*
X88325443Y-122308354D01*
X88404795Y-122405045D01*
X88501486Y-122484397D01*
X88611800Y-122543362D01*
X88731498Y-122579672D01*
X88855980Y-122591932D01*
X90655980Y-122591932D01*
X90780462Y-122579672D01*
X90900160Y-122543362D01*
X91010474Y-122484397D01*
X91107165Y-122405045D01*
X91186517Y-122308354D01*
X91245482Y-122198040D01*
X91251036Y-122179733D01*
X91317475Y-122246172D01*
X91568885Y-122414159D01*
X91848237Y-122529871D01*
X92144796Y-122588860D01*
X92447164Y-122588860D01*
X92743723Y-122529871D01*
X93023075Y-122414159D01*
X93274485Y-122246172D01*
X93331797Y-122188860D01*
X93992908Y-122188860D01*
X94019578Y-122276780D01*
X94078543Y-122387094D01*
X94157895Y-122483785D01*
X94254586Y-122563137D01*
X94364900Y-122622102D01*
X94484598Y-122658412D01*
X94609080Y-122670672D01*
X96409080Y-122670672D01*
X96533562Y-122658412D01*
X96653260Y-122622102D01*
X96763574Y-122563137D01*
X96860265Y-122483785D01*
X96939617Y-122387094D01*
X96998582Y-122276780D01*
X97001893Y-122265865D01*
X97048658Y-122312630D01*
X97164606Y-122196682D01*
X97248288Y-122450861D01*
X97520855Y-122581758D01*
X97813722Y-122656965D01*
X98115633Y-122673591D01*
X98414987Y-122630997D01*
X98700279Y-122530822D01*
X98849872Y-122450861D01*
X98933555Y-122196680D01*
X98049080Y-121312205D01*
X98034938Y-121326348D01*
X97855333Y-121146743D01*
X97869475Y-121132600D01*
X98228685Y-121132600D01*
X99113160Y-122017075D01*
X99367341Y-121933392D01*
X99498238Y-121660825D01*
X99573445Y-121367958D01*
X99590071Y-121066047D01*
X99547477Y-120766693D01*
X99447302Y-120481401D01*
X99367341Y-120331808D01*
X99113160Y-120248125D01*
X98228685Y-121132600D01*
X97869475Y-121132600D01*
X97855333Y-121118458D01*
X98034938Y-120938853D01*
X98049080Y-120952995D01*
X98933555Y-120068520D01*
X98849872Y-119814339D01*
X98577305Y-119683442D01*
X98284438Y-119608235D01*
X97982527Y-119591609D01*
X97683173Y-119634203D01*
X97397881Y-119734378D01*
X97248288Y-119814339D01*
X97164606Y-120068518D01*
X97048658Y-119952570D01*
X97001893Y-119999335D01*
X96998582Y-119988420D01*
X96939617Y-119878106D01*
X96860265Y-119781415D01*
X96763574Y-119702063D01*
X96653260Y-119643098D01*
X96533562Y-119606788D01*
X96409080Y-119594528D01*
X94609080Y-119594528D01*
X94484598Y-119606788D01*
X94364900Y-119643098D01*
X94254586Y-119702063D01*
X94157895Y-119781415D01*
X94078543Y-119878106D01*
X94056759Y-119918860D01*
X93331797Y-119918860D01*
X93274485Y-119861548D01*
X93023075Y-119693561D01*
X92743723Y-119577849D01*
X92447164Y-119518860D01*
X92144796Y-119518860D01*
X91848237Y-119577849D01*
X91568885Y-119693561D01*
X91317475Y-119861548D01*
X91251036Y-119927987D01*
X91245482Y-119909680D01*
X91186517Y-119799366D01*
X91107165Y-119702675D01*
X91010474Y-119623323D01*
X90900160Y-119564358D01*
X90780462Y-119528048D01*
X90655980Y-119515788D01*
X88855980Y-119515788D01*
X88731498Y-119528048D01*
X88611800Y-119564358D01*
X88501486Y-119623323D01*
X88404795Y-119702675D01*
X88325443Y-119799366D01*
X88266478Y-119909680D01*
X88263693Y-119918860D01*
X86273640Y-119918860D01*
X86211820Y-119769613D01*
X86075140Y-119565056D01*
X86075140Y-119342131D01*
X89566500Y-115850772D01*
X90399440Y-115850772D01*
X90523922Y-115838512D01*
X90643620Y-115802202D01*
X90753934Y-115743237D01*
X90850625Y-115663885D01*
X90929977Y-115567194D01*
X90988942Y-115456880D01*
X90994496Y-115438573D01*
X91060935Y-115505012D01*
X91312345Y-115672999D01*
X91591697Y-115788711D01*
X91888256Y-115847700D01*
X92190624Y-115847700D01*
X92487183Y-115788711D01*
X92766535Y-115672999D01*
X93017945Y-115505012D01*
X93090497Y-115432460D01*
X93714533Y-115432460D01*
X93717318Y-115441640D01*
X93776283Y-115551954D01*
X93855635Y-115648645D01*
X93952326Y-115727997D01*
X94062640Y-115786962D01*
X94182338Y-115823272D01*
X94306820Y-115835532D01*
X96106820Y-115835532D01*
X96231302Y-115823272D01*
X96351000Y-115786962D01*
X96461314Y-115727997D01*
X96558005Y-115648645D01*
X96637357Y-115551954D01*
X96696322Y-115441640D01*
X96699633Y-115430725D01*
X96746398Y-115477490D01*
X96862346Y-115361542D01*
X96946028Y-115615721D01*
X97218595Y-115746618D01*
X97511462Y-115821825D01*
X97813373Y-115838451D01*
X98112727Y-115795857D01*
X98398019Y-115695682D01*
X98547612Y-115615721D01*
X98631295Y-115361540D01*
X97746820Y-114477065D01*
X97732678Y-114491208D01*
X97553073Y-114311603D01*
X97567215Y-114297460D01*
X97926425Y-114297460D01*
X98810900Y-115181935D01*
X99065081Y-115098252D01*
X99195978Y-114825685D01*
X99271185Y-114532818D01*
X99287811Y-114230907D01*
X99245217Y-113931553D01*
X99145042Y-113646261D01*
X99065081Y-113496668D01*
X98810900Y-113412985D01*
X97926425Y-114297460D01*
X97567215Y-114297460D01*
X97553073Y-114283318D01*
X97732678Y-114103713D01*
X97746820Y-114117855D01*
X98631295Y-113233380D01*
X98547612Y-112979199D01*
X98275045Y-112848302D01*
X97982178Y-112773095D01*
X97680267Y-112756469D01*
X97380913Y-112799063D01*
X97095621Y-112899238D01*
X96946028Y-112979199D01*
X96862346Y-113233378D01*
X96746398Y-113117430D01*
X96699633Y-113164195D01*
X96696322Y-113153280D01*
X96637357Y-113042966D01*
X96558005Y-112946275D01*
X96461314Y-112866923D01*
X96351000Y-112807958D01*
X96231302Y-112771648D01*
X96106820Y-112759388D01*
X94306820Y-112759388D01*
X94182338Y-112771648D01*
X94062640Y-112807958D01*
X93952326Y-112866923D01*
X93855635Y-112946275D01*
X93776283Y-113042966D01*
X93717318Y-113153280D01*
X93714533Y-113162460D01*
X93060017Y-113162460D01*
X93017945Y-113120388D01*
X92766535Y-112952401D01*
X92487183Y-112836689D01*
X92190624Y-112777700D01*
X91888256Y-112777700D01*
X91591697Y-112836689D01*
X91312345Y-112952401D01*
X91060935Y-113120388D01*
X90994496Y-113186827D01*
X90988942Y-113168520D01*
X90929977Y-113058206D01*
X90850625Y-112961515D01*
X90753934Y-112882163D01*
X90643620Y-112823198D01*
X90523922Y-112786888D01*
X90489660Y-112783514D01*
X90489660Y-108974927D01*
X90498840Y-108972142D01*
X90609154Y-108913177D01*
X90705845Y-108833825D01*
X90785197Y-108737134D01*
X90844162Y-108626820D01*
X90849716Y-108608513D01*
X90916155Y-108674952D01*
X91167565Y-108842939D01*
X91446917Y-108958651D01*
X91743476Y-109017640D01*
X92045844Y-109017640D01*
X92342403Y-108958651D01*
X92621755Y-108842939D01*
X92873165Y-108674952D01*
X92930477Y-108617640D01*
X93614474Y-108617640D01*
X93615718Y-108621740D01*
X93674683Y-108732054D01*
X93754035Y-108828745D01*
X93850726Y-108908097D01*
X93961040Y-108967062D01*
X94080738Y-109003372D01*
X94205220Y-109015632D01*
X96005220Y-109015632D01*
X96129702Y-109003372D01*
X96249400Y-108967062D01*
X96359714Y-108908097D01*
X96456405Y-108828745D01*
X96535757Y-108732054D01*
X96594722Y-108621740D01*
X96598033Y-108610825D01*
X96644798Y-108657590D01*
X96760746Y-108541642D01*
X96844428Y-108795821D01*
X97116995Y-108926718D01*
X97409862Y-109001925D01*
X97711773Y-109018551D01*
X98011127Y-108975957D01*
X98296419Y-108875782D01*
X98446012Y-108795821D01*
X98529695Y-108541640D01*
X97645220Y-107657165D01*
X97631078Y-107671308D01*
X97451473Y-107491703D01*
X97465615Y-107477560D01*
X97824825Y-107477560D01*
X98709300Y-108362035D01*
X98963481Y-108278352D01*
X99094378Y-108005785D01*
X99169585Y-107712918D01*
X99186211Y-107411007D01*
X99143617Y-107111653D01*
X99043442Y-106826361D01*
X98963481Y-106676768D01*
X98709300Y-106593085D01*
X97824825Y-107477560D01*
X97465615Y-107477560D01*
X97451473Y-107463418D01*
X97631078Y-107283813D01*
X97645220Y-107297955D01*
X98529695Y-106413480D01*
X98446012Y-106159299D01*
X98173445Y-106028402D01*
X97880578Y-105953195D01*
X97578667Y-105936569D01*
X97279313Y-105979163D01*
X96994021Y-106079338D01*
X96844428Y-106159299D01*
X96760746Y-106413478D01*
X96644798Y-106297530D01*
X96598033Y-106344295D01*
X96594722Y-106333380D01*
X96535757Y-106223066D01*
X96456405Y-106126375D01*
X96359714Y-106047023D01*
X96249400Y-105988058D01*
X96129702Y-105951748D01*
X96005220Y-105939488D01*
X94205220Y-105939488D01*
X94080738Y-105951748D01*
X93961040Y-105988058D01*
X93850726Y-106047023D01*
X93754035Y-106126375D01*
X93674683Y-106223066D01*
X93615718Y-106333380D01*
X93611392Y-106347640D01*
X92930477Y-106347640D01*
X92873165Y-106290328D01*
X92621755Y-106122341D01*
X92342403Y-106006629D01*
X92045844Y-105947640D01*
X91743476Y-105947640D01*
X91446917Y-106006629D01*
X91167565Y-106122341D01*
X90916155Y-106290328D01*
X90849716Y-106356767D01*
X90844162Y-106338460D01*
X90785197Y-106228146D01*
X90705845Y-106131455D01*
X90609154Y-106052103D01*
X90498840Y-105993138D01*
X90379142Y-105956828D01*
X90254660Y-105944568D01*
X88454660Y-105944568D01*
X88330178Y-105956828D01*
X88210480Y-105993138D01*
X88100166Y-106052103D01*
X88003475Y-106131455D01*
X87924123Y-106228146D01*
X87865158Y-106338460D01*
X87828848Y-106458158D01*
X87816588Y-106582640D01*
X87816588Y-108382640D01*
X87828848Y-108507122D01*
X87865158Y-108626820D01*
X87924123Y-108737134D01*
X88003475Y-108833825D01*
X88100166Y-108913177D01*
X88210480Y-108972142D01*
X88219660Y-108974927D01*
X88219661Y-112902914D01*
X88148255Y-112961515D01*
X88068903Y-113058206D01*
X88009938Y-113168520D01*
X87973628Y-113288218D01*
X87961368Y-113412700D01*
X87961368Y-114245640D01*
X84177000Y-118030009D01*
X84133692Y-118065551D01*
X83991857Y-118238377D01*
X83957294Y-118303040D01*
X83886464Y-118435554D01*
X83821563Y-118649502D01*
X83799649Y-118872000D01*
X83805140Y-118927751D01*
X83805140Y-119565056D01*
X83668460Y-119769613D01*
X83560287Y-120030766D01*
X83505140Y-120308005D01*
X76400280Y-120308005D01*
X76400280Y-112732440D01*
X78631661Y-112732440D01*
X78824813Y-112861500D01*
X79085966Y-112969673D01*
X79363205Y-113024820D01*
X79645875Y-113024820D01*
X79923114Y-112969673D01*
X80184267Y-112861500D01*
X80419299Y-112704457D01*
X80619177Y-112504579D01*
X80776220Y-112269547D01*
X80884393Y-112008394D01*
X80939540Y-111731155D01*
X80939540Y-111448485D01*
X80884393Y-111171246D01*
X80776220Y-110910093D01*
X80619177Y-110675061D01*
X80419299Y-110475183D01*
X80271240Y-110376253D01*
X80271240Y-107007273D01*
X80274993Y-107001656D01*
X80371859Y-106767801D01*
X80421240Y-106519541D01*
X80421240Y-106411052D01*
X81056240Y-106411052D01*
X81180722Y-106398792D01*
X81300420Y-106362482D01*
X81410734Y-106303517D01*
X81466221Y-106257980D01*
X81843649Y-106257980D01*
X83516026Y-107930358D01*
X83525904Y-108030649D01*
X83607958Y-108301148D01*
X83741208Y-108550441D01*
X83920532Y-108768948D01*
X84139039Y-108948272D01*
X84388332Y-109081522D01*
X84658831Y-109163576D01*
X84869648Y-109184340D01*
X85010632Y-109184340D01*
X85221449Y-109163576D01*
X85491948Y-109081522D01*
X85741241Y-108948272D01*
X85959748Y-108768948D01*
X86139072Y-108550441D01*
X86272322Y-108301148D01*
X86354376Y-108030649D01*
X86382083Y-107749340D01*
X86354376Y-107468031D01*
X86272322Y-107197532D01*
X86139072Y-106948239D01*
X85959748Y-106729732D01*
X85741241Y-106550408D01*
X85491948Y-106417158D01*
X85221449Y-106335104D01*
X85121158Y-106325226D01*
X83155776Y-104359845D01*
X83120229Y-104316531D01*
X82947403Y-104174696D01*
X82750227Y-104069304D01*
X82536279Y-104004403D01*
X82369532Y-103987980D01*
X82369531Y-103987980D01*
X82313780Y-103982489D01*
X82258029Y-103987980D01*
X81466221Y-103987980D01*
X81410734Y-103942443D01*
X81300420Y-103883478D01*
X81180722Y-103847168D01*
X81056240Y-103834908D01*
X79756240Y-103834908D01*
X79631758Y-103847168D01*
X79512060Y-103883478D01*
X79401746Y-103942443D01*
X79305055Y-104021795D01*
X79225703Y-104118486D01*
X79166738Y-104228800D01*
X79130428Y-104348498D01*
X79118168Y-104472980D01*
X79118168Y-104830152D01*
X79101859Y-104748159D01*
X79004993Y-104514304D01*
X78864365Y-104303840D01*
X78685380Y-104124855D01*
X78474916Y-103984227D01*
X78241061Y-103887361D01*
X77992801Y-103837980D01*
X77739679Y-103837980D01*
X77491419Y-103887361D01*
X77257564Y-103984227D01*
X77047100Y-104124855D01*
X76868115Y-104303840D01*
X76727487Y-104514304D01*
X76630621Y-104748159D01*
X76581240Y-104996419D01*
X76581240Y-105249541D01*
X76630621Y-105497801D01*
X76727487Y-105731656D01*
X76868115Y-105942120D01*
X77047100Y-106121105D01*
X77257564Y-106261733D01*
X77491419Y-106358599D01*
X77739679Y-106407980D01*
X77851240Y-106407980D01*
X77851240Y-106519541D01*
X77900621Y-106767801D01*
X77997487Y-107001656D01*
X78001240Y-107007273D01*
X78001241Y-110462440D01*
X76149564Y-110462440D01*
X75945007Y-110325760D01*
X75683854Y-110217587D01*
X75406615Y-110162440D01*
X75123945Y-110162440D01*
X74846706Y-110217587D01*
X74585553Y-110325760D01*
X74350521Y-110482803D01*
X74150643Y-110682681D01*
X73993600Y-110917713D01*
X73885427Y-111178866D01*
X73830280Y-111456105D01*
X73830280Y-111738775D01*
X73885427Y-112016014D01*
X73993600Y-112277167D01*
X74130281Y-112481725D01*
X74130281Y-115916228D01*
X74024469Y-115787296D01*
X74024467Y-115787294D01*
X73988929Y-115743991D01*
X73945626Y-115708453D01*
X63267475Y-105030304D01*
X63237222Y-104993440D01*
X73396617Y-104993440D01*
X73424324Y-105274749D01*
X73506378Y-105545248D01*
X73639628Y-105794541D01*
X73818952Y-106013048D01*
X74037459Y-106192372D01*
X74286752Y-106325622D01*
X74557251Y-106407676D01*
X74768068Y-106428440D01*
X74909052Y-106428440D01*
X75119869Y-106407676D01*
X75390368Y-106325622D01*
X75639661Y-106192372D01*
X75858168Y-106013048D01*
X76037492Y-105794541D01*
X76170742Y-105545248D01*
X76252796Y-105274749D01*
X76280503Y-104993440D01*
X76252796Y-104712131D01*
X76170742Y-104441632D01*
X76037492Y-104192339D01*
X75858168Y-103973832D01*
X75639661Y-103794508D01*
X75390368Y-103661258D01*
X75119869Y-103579204D01*
X74909052Y-103558440D01*
X74768068Y-103558440D01*
X74557251Y-103579204D01*
X74286752Y-103661258D01*
X74037459Y-103794508D01*
X73818952Y-103973832D01*
X73639628Y-104192339D01*
X73506378Y-104441632D01*
X73424324Y-104712131D01*
X73396617Y-104993440D01*
X63237222Y-104993440D01*
X63231928Y-104986990D01*
X63059102Y-104845155D01*
X62861926Y-104739763D01*
X62647978Y-104674862D01*
X62481231Y-104658439D01*
X62481230Y-104658439D01*
X62425479Y-104652948D01*
X62369728Y-104658439D01*
X60995037Y-104658439D01*
X60978413Y-104574866D01*
X60870240Y-104313713D01*
X60713197Y-104078681D01*
X60513319Y-103878803D01*
X60278287Y-103721760D01*
X60017134Y-103613587D01*
X59739895Y-103558440D01*
X59457225Y-103558440D01*
X59179986Y-103613587D01*
X58918833Y-103721760D01*
X58683801Y-103878803D01*
X58483923Y-104078681D01*
X58472861Y-104095236D01*
X58463662Y-101644256D01*
X99834046Y-101991822D01*
X99834046Y-101991822D01*
G37*
X99834046Y-101991822D02*
X100022379Y-155354235D01*
X99962475Y-155354680D01*
X99935364Y-155357554D01*
X58665205Y-155340448D01*
X58636151Y-147599400D01*
X60760675Y-147599400D01*
X60789347Y-147890511D01*
X60874261Y-148170434D01*
X61012154Y-148428414D01*
X61197726Y-148654534D01*
X61423846Y-148840106D01*
X61478651Y-148869400D01*
X61423846Y-148898694D01*
X61197726Y-149084266D01*
X61012154Y-149310386D01*
X60874261Y-149568366D01*
X60789347Y-149848289D01*
X60760675Y-150139400D01*
X60789347Y-150430511D01*
X60874261Y-150710434D01*
X61012154Y-150968414D01*
X61197726Y-151194534D01*
X61423846Y-151380106D01*
X61478651Y-151409400D01*
X61423846Y-151438694D01*
X61197726Y-151624266D01*
X61012154Y-151850386D01*
X60874261Y-152108366D01*
X60789347Y-152388289D01*
X60760675Y-152679400D01*
X60789347Y-152970511D01*
X60874261Y-153250434D01*
X61012154Y-153508414D01*
X61197726Y-153734534D01*
X61423846Y-153920106D01*
X61681826Y-154057999D01*
X61961749Y-154142913D01*
X62179910Y-154164400D01*
X62325810Y-154164400D01*
X62543971Y-154142913D01*
X62823894Y-154057999D01*
X63081874Y-153920106D01*
X63307994Y-153734534D01*
X63493566Y-153508414D01*
X63631459Y-153250434D01*
X63716373Y-152970511D01*
X63745045Y-152679400D01*
X63716373Y-152388289D01*
X63631459Y-152108366D01*
X63493566Y-151850386D01*
X63307994Y-151624266D01*
X63081874Y-151438694D01*
X63027069Y-151409400D01*
X63081874Y-151380106D01*
X63307994Y-151194534D01*
X63493566Y-150968414D01*
X63631459Y-150710434D01*
X63661088Y-150612760D01*
X65570595Y-152522267D01*
X65614598Y-152667328D01*
X65747848Y-152916621D01*
X65927172Y-153135128D01*
X66145679Y-153314452D01*
X66394972Y-153447702D01*
X66665471Y-153529756D01*
X66876288Y-153550520D01*
X67017272Y-153550520D01*
X67228089Y-153529756D01*
X67498588Y-153447702D01*
X67747881Y-153314452D01*
X67966388Y-153135128D01*
X68145712Y-152916621D01*
X68278962Y-152667328D01*
X68361016Y-152396829D01*
X68388723Y-152115520D01*
X68361016Y-151834211D01*
X68278962Y-151563712D01*
X68145712Y-151314419D01*
X67966388Y-151095912D01*
X67747881Y-150916588D01*
X67498588Y-150783338D01*
X67228089Y-150701284D01*
X67017272Y-150680520D01*
X66939112Y-150680520D01*
X63732705Y-147474114D01*
X63716373Y-147308289D01*
X63631459Y-147028366D01*
X63493566Y-146770386D01*
X63307994Y-146544266D01*
X63278173Y-146519793D01*
X63347040Y-146498902D01*
X63457354Y-146439937D01*
X63554045Y-146360585D01*
X63633397Y-146263894D01*
X63692362Y-146153580D01*
X63728672Y-146033882D01*
X63740932Y-145909400D01*
X63740932Y-144209400D01*
X63728672Y-144084918D01*
X63692362Y-143965220D01*
X63633397Y-143854906D01*
X63554045Y-143758215D01*
X63457354Y-143678863D01*
X63347040Y-143619898D01*
X63227342Y-143583588D01*
X63102860Y-143571328D01*
X61402860Y-143571328D01*
X61278378Y-143583588D01*
X61158680Y-143619898D01*
X61048366Y-143678863D01*
X60951675Y-143758215D01*
X60872323Y-143854906D01*
X60813358Y-143965220D01*
X60777048Y-144084918D01*
X60764788Y-144209400D01*
X60764788Y-145909400D01*
X60777048Y-146033882D01*
X60813358Y-146153580D01*
X60872323Y-146263894D01*
X60951675Y-146360585D01*
X61048366Y-146439937D01*
X61158680Y-146498902D01*
X61227547Y-146519793D01*
X61197726Y-146544266D01*
X61012154Y-146770386D01*
X60874261Y-147028366D01*
X60789347Y-147308289D01*
X60760675Y-147599400D01*
X58636151Y-147599400D01*
X58595509Y-136771380D01*
X60620975Y-136771380D01*
X60649647Y-137062491D01*
X60734561Y-137342414D01*
X60872454Y-137600394D01*
X61058026Y-137826514D01*
X61087847Y-137850987D01*
X61018980Y-137871878D01*
X60908666Y-137930843D01*
X60811975Y-138010195D01*
X60732623Y-138106886D01*
X60673658Y-138217200D01*
X60637348Y-138336898D01*
X60625088Y-138461380D01*
X60625088Y-140161380D01*
X60637348Y-140285862D01*
X60673658Y-140405560D01*
X60732623Y-140515874D01*
X60811975Y-140612565D01*
X60908666Y-140691917D01*
X61018980Y-140750882D01*
X61138678Y-140787192D01*
X61263160Y-140799452D01*
X62963160Y-140799452D01*
X63087642Y-140787192D01*
X63207340Y-140750882D01*
X63317654Y-140691917D01*
X63414345Y-140612565D01*
X63493697Y-140515874D01*
X63552662Y-140405560D01*
X63588972Y-140285862D01*
X63601232Y-140161380D01*
X63601232Y-138461380D01*
X63588972Y-138336898D01*
X63552662Y-138217200D01*
X63493697Y-138106886D01*
X63414345Y-138010195D01*
X63317654Y-137930843D01*
X63207340Y-137871878D01*
X63138473Y-137850987D01*
X63168294Y-137826514D01*
X63353866Y-137600394D01*
X63491759Y-137342414D01*
X63576673Y-137062491D01*
X63605345Y-136771380D01*
X63576673Y-136480269D01*
X63491759Y-136200346D01*
X63353866Y-135942366D01*
X63168294Y-135716246D01*
X62942174Y-135530674D01*
X62877637Y-135496179D01*
X62994515Y-135426558D01*
X63210748Y-135231649D01*
X63384801Y-134998300D01*
X63509985Y-134735479D01*
X63554636Y-134588270D01*
X63433315Y-134358380D01*
X62240160Y-134358380D01*
X62240160Y-134378380D01*
X61986160Y-134378380D01*
X61986160Y-134358380D01*
X60793005Y-134358380D01*
X60671684Y-134588270D01*
X60716335Y-134735479D01*
X60841519Y-134998300D01*
X61015572Y-135231649D01*
X61231805Y-135426558D01*
X61348683Y-135496179D01*
X61284146Y-135530674D01*
X61058026Y-135716246D01*
X60872454Y-135942366D01*
X60734561Y-136200346D01*
X60649647Y-136480269D01*
X60620975Y-136771380D01*
X58595509Y-136771380D01*
X58584636Y-133874490D01*
X60671684Y-133874490D01*
X60793005Y-134104380D01*
X61986160Y-134104380D01*
X61986160Y-132910566D01*
X62240160Y-132910566D01*
X62240160Y-134104380D01*
X63433315Y-134104380D01*
X63554636Y-133874490D01*
X63509985Y-133727281D01*
X63384801Y-133464460D01*
X63210748Y-133231111D01*
X62994515Y-133036202D01*
X62744412Y-132887223D01*
X62470051Y-132789899D01*
X62240160Y-132910566D01*
X61986160Y-132910566D01*
X61756269Y-132789899D01*
X61481908Y-132887223D01*
X61231805Y-133036202D01*
X61015572Y-133231111D01*
X60841519Y-133464460D01*
X60716335Y-133727281D01*
X60671684Y-133874490D01*
X58584636Y-133874490D01*
X58570147Y-130014080D01*
X60678428Y-130014080D01*
X60690688Y-130138562D01*
X60726998Y-130258260D01*
X60785963Y-130368574D01*
X60865315Y-130465265D01*
X60962006Y-130544617D01*
X61072320Y-130603582D01*
X61192018Y-130639892D01*
X61316500Y-130652152D01*
X61880750Y-130649080D01*
X62039500Y-130490330D01*
X62039500Y-129291080D01*
X62293500Y-129291080D01*
X62293500Y-130490330D01*
X62452250Y-130649080D01*
X63016500Y-130652152D01*
X63140982Y-130639892D01*
X63260680Y-130603582D01*
X63370994Y-130544617D01*
X63467685Y-130465265D01*
X63547037Y-130368574D01*
X63606002Y-130258260D01*
X63642312Y-130138562D01*
X63654572Y-130014080D01*
X63651500Y-129449830D01*
X63492750Y-129291080D01*
X62293500Y-129291080D01*
X62039500Y-129291080D01*
X60840250Y-129291080D01*
X60681500Y-129449830D01*
X60678428Y-130014080D01*
X58570147Y-130014080D01*
X58501021Y-111597440D01*
X58583337Y-111597440D01*
X58611044Y-111878749D01*
X58693098Y-112149248D01*
X58826348Y-112398541D01*
X59005672Y-112617048D01*
X59224179Y-112796372D01*
X59473472Y-112929622D01*
X59743971Y-113011676D01*
X59954788Y-113032440D01*
X60095772Y-113032440D01*
X60306589Y-113011676D01*
X60577088Y-112929622D01*
X60826381Y-112796372D01*
X61044888Y-112617048D01*
X61224212Y-112398541D01*
X61357462Y-112149248D01*
X61439516Y-111878749D01*
X61467223Y-111597440D01*
X61439516Y-111316131D01*
X61357462Y-111045632D01*
X61224212Y-110796339D01*
X61044888Y-110577832D01*
X60826381Y-110398508D01*
X60577088Y-110265258D01*
X60306589Y-110183204D01*
X60095772Y-110162440D01*
X59954788Y-110162440D01*
X59743971Y-110183204D01*
X59473472Y-110265258D01*
X59224179Y-110398508D01*
X59005672Y-110577832D01*
X58826348Y-110796339D01*
X58693098Y-111045632D01*
X58611044Y-111316131D01*
X58583337Y-111597440D01*
X58501021Y-111597440D01*
X58479642Y-105901792D01*
X58483923Y-105908199D01*
X58683801Y-106108077D01*
X58918833Y-106265120D01*
X59179986Y-106373293D01*
X59421278Y-106421290D01*
X59556567Y-106556579D01*
X59592110Y-106599888D01*
X59764936Y-106741723D01*
X59962112Y-106847115D01*
X60176060Y-106912016D01*
X60342807Y-106928439D01*
X60342816Y-106928439D01*
X60398558Y-106933929D01*
X60454300Y-106928439D01*
X61955348Y-106928439D01*
X72047480Y-117020573D01*
X72047480Y-118328968D01*
X70014931Y-116296420D01*
X70014927Y-116296415D01*
X69795412Y-116076900D01*
X69816818Y-115859560D01*
X69781388Y-115499837D01*
X69676461Y-115153938D01*
X69506069Y-114835156D01*
X69276759Y-114555741D01*
X68997344Y-114326431D01*
X68678562Y-114156039D01*
X68332663Y-114051112D01*
X68063079Y-114024560D01*
X67882801Y-114024560D01*
X67613217Y-114051112D01*
X67267318Y-114156039D01*
X66948536Y-114326431D01*
X66669121Y-114555741D01*
X66530575Y-114724560D01*
X64673352Y-114724560D01*
X64617600Y-114719069D01*
X64561848Y-114724560D01*
X64395101Y-114740983D01*
X64181153Y-114805884D01*
X63983977Y-114911276D01*
X63854456Y-115017571D01*
X63854455Y-115017572D01*
X63811151Y-115053111D01*
X63775613Y-115096414D01*
X62048834Y-116823195D01*
X61883009Y-116839527D01*
X61603086Y-116924441D01*
X61345106Y-117062334D01*
X61118986Y-117247906D01*
X60933414Y-117474026D01*
X60795521Y-117732006D01*
X60710607Y-118011929D01*
X60681935Y-118303040D01*
X60710607Y-118594151D01*
X60795521Y-118874074D01*
X60933414Y-119132054D01*
X61118986Y-119358174D01*
X61148807Y-119382647D01*
X61079940Y-119403538D01*
X60969626Y-119462503D01*
X60872935Y-119541855D01*
X60793583Y-119638546D01*
X60734618Y-119748860D01*
X60698308Y-119868558D01*
X60686048Y-119993040D01*
X60686048Y-121693040D01*
X60698308Y-121817522D01*
X60734618Y-121937220D01*
X60793583Y-122047534D01*
X60872935Y-122144225D01*
X60969626Y-122223577D01*
X61039120Y-122260723D01*
X61039121Y-125656977D01*
X60925794Y-125795066D01*
X60787901Y-126053046D01*
X60702987Y-126332969D01*
X60674315Y-126624080D01*
X60702987Y-126915191D01*
X60787901Y-127195114D01*
X60925794Y-127453094D01*
X61111366Y-127679214D01*
X61141187Y-127703687D01*
X61072320Y-127724578D01*
X60962006Y-127783543D01*
X60865315Y-127862895D01*
X60785963Y-127959586D01*
X60726998Y-128069900D01*
X60690688Y-128189598D01*
X60678428Y-128314080D01*
X60681500Y-128878330D01*
X60840250Y-129037080D01*
X62039500Y-129037080D01*
X62039500Y-129017080D01*
X62293500Y-129017080D01*
X62293500Y-129037080D01*
X63492750Y-129037080D01*
X63651500Y-128878330D01*
X63654572Y-128314080D01*
X63642312Y-128189598D01*
X63606002Y-128069900D01*
X63547037Y-127959586D01*
X63467685Y-127862895D01*
X63370994Y-127783543D01*
X63325228Y-127759080D01*
X65567329Y-127759080D01*
X66134868Y-128326619D01*
X66134868Y-129759560D01*
X66147128Y-129884042D01*
X66183438Y-130003740D01*
X66242403Y-130114054D01*
X66321755Y-130210745D01*
X66418446Y-130290097D01*
X66528760Y-130349062D01*
X66648458Y-130385372D01*
X66772940Y-130397632D01*
X69172940Y-130397632D01*
X69297422Y-130385372D01*
X69417120Y-130349062D01*
X69527434Y-130290097D01*
X69624125Y-130210745D01*
X69703477Y-130114054D01*
X69762442Y-130003740D01*
X69798752Y-129884042D01*
X69811012Y-129759560D01*
X69811012Y-127359560D01*
X69798752Y-127235078D01*
X69762442Y-127115380D01*
X69703477Y-127005066D01*
X69624125Y-126908375D01*
X69527434Y-126829023D01*
X69417120Y-126770058D01*
X69297422Y-126733748D01*
X69172940Y-126721488D01*
X67739999Y-126721488D01*
X66879456Y-125860945D01*
X66843909Y-125817631D01*
X66671083Y-125675796D01*
X66473907Y-125570404D01*
X66259959Y-125505503D01*
X66093212Y-125489080D01*
X66093211Y-125489080D01*
X66037460Y-125483589D01*
X65981709Y-125489080D01*
X63309120Y-125489080D01*
X63309120Y-122260723D01*
X63378614Y-122223577D01*
X63475305Y-122144225D01*
X63554657Y-122047534D01*
X63613622Y-121937220D01*
X63649932Y-121817522D01*
X63662192Y-121693040D01*
X63662192Y-119993040D01*
X63649932Y-119868558D01*
X63613622Y-119748860D01*
X63554657Y-119638546D01*
X63475305Y-119541855D01*
X63378614Y-119462503D01*
X63268300Y-119403538D01*
X63199433Y-119382647D01*
X63229254Y-119358174D01*
X63414826Y-119132054D01*
X63552719Y-118874074D01*
X63637633Y-118594151D01*
X63653965Y-118428326D01*
X65087733Y-116994560D01*
X66530575Y-116994560D01*
X66669121Y-117163379D01*
X66948536Y-117392689D01*
X67267318Y-117563081D01*
X67613217Y-117668008D01*
X67882801Y-117694560D01*
X68063079Y-117694560D01*
X68190280Y-117682032D01*
X68409795Y-117901547D01*
X68409800Y-117901551D01*
X70274561Y-119766313D01*
X70274560Y-132880229D01*
X70269069Y-132935980D01*
X70274560Y-132991731D01*
X70290983Y-133158478D01*
X70355884Y-133372426D01*
X70461276Y-133569603D01*
X70506399Y-133624585D01*
X70497669Y-133713220D01*
X70519583Y-133935718D01*
X70584484Y-134149666D01*
X70660455Y-134291798D01*
X70672978Y-134333080D01*
X70731943Y-134443394D01*
X70811295Y-134540085D01*
X70907986Y-134619437D01*
X71018300Y-134678402D01*
X71059582Y-134690925D01*
X71201714Y-134766896D01*
X71415662Y-134831797D01*
X71638160Y-134853711D01*
X71860658Y-134831797D01*
X72074606Y-134766896D01*
X72106122Y-134750050D01*
X72307698Y-134730197D01*
X72318329Y-134726972D01*
X72562480Y-134726972D01*
X72686962Y-134714712D01*
X72806660Y-134678402D01*
X72916974Y-134619437D01*
X73013665Y-134540085D01*
X73093017Y-134443394D01*
X73151982Y-134333080D01*
X73188292Y-134213382D01*
X73200552Y-134088900D01*
X73200552Y-133844749D01*
X73203777Y-133834118D01*
X73209454Y-133776481D01*
X73216861Y-133813721D01*
X73313727Y-134047576D01*
X73454355Y-134258040D01*
X73633340Y-134437025D01*
X73843804Y-134577653D01*
X74077659Y-134674519D01*
X74325919Y-134723900D01*
X74579041Y-134723900D01*
X74827301Y-134674519D01*
X75061156Y-134577653D01*
X75271620Y-134437025D01*
X75450605Y-134258040D01*
X75591233Y-134047576D01*
X75688099Y-133813721D01*
X75737480Y-133565461D01*
X75737480Y-133312339D01*
X75688099Y-133064079D01*
X75591233Y-132830224D01*
X75450605Y-132619760D01*
X75271620Y-132440775D01*
X75061156Y-132300147D01*
X74827301Y-132203281D01*
X74579041Y-132153900D01*
X74467480Y-132153900D01*
X74467480Y-132042339D01*
X74418099Y-131794079D01*
X74321233Y-131560224D01*
X74317480Y-131554607D01*
X74317480Y-130235173D01*
X74458831Y-130407409D01*
X74502145Y-130442956D01*
X77940281Y-133881094D01*
X77940280Y-140077910D01*
X73373272Y-144644919D01*
X73373272Y-144328120D01*
X73361012Y-144203638D01*
X73324702Y-144083940D01*
X73265737Y-143973626D01*
X73186385Y-143876935D01*
X73089694Y-143797583D01*
X72979380Y-143738618D01*
X72859682Y-143702308D01*
X72735200Y-143690048D01*
X71435200Y-143690048D01*
X71310718Y-143702308D01*
X71191020Y-143738618D01*
X71080706Y-143797583D01*
X70984015Y-143876935D01*
X70904663Y-143973626D01*
X70845698Y-144083940D01*
X70809388Y-144203638D01*
X70797128Y-144328120D01*
X70797128Y-144685292D01*
X70780819Y-144603299D01*
X70683953Y-144369444D01*
X70680200Y-144363827D01*
X70680200Y-140207562D01*
X75627583Y-140207562D01*
X75699166Y-140451531D01*
X75954676Y-140572431D01*
X76228864Y-140641160D01*
X76511192Y-140655077D01*
X76790810Y-140613647D01*
X77056972Y-140518463D01*
X77182194Y-140451531D01*
X77253777Y-140207562D01*
X76440680Y-139394465D01*
X75627583Y-140207562D01*
X70680200Y-140207562D01*
X70680200Y-139875121D01*
X70685690Y-139819379D01*
X70680200Y-139763637D01*
X70680200Y-139763628D01*
X70663777Y-139596881D01*
X70598876Y-139382933D01*
X70546729Y-139285372D01*
X75000463Y-139285372D01*
X75041893Y-139564990D01*
X75137077Y-139831152D01*
X75204009Y-139956374D01*
X75447978Y-140027957D01*
X76261075Y-139214860D01*
X76620285Y-139214860D01*
X77433382Y-140027957D01*
X77677351Y-139956374D01*
X77798251Y-139700864D01*
X77866980Y-139426676D01*
X77880897Y-139144348D01*
X77839467Y-138864730D01*
X77744283Y-138598568D01*
X77677351Y-138473346D01*
X77433382Y-138401763D01*
X76620285Y-139214860D01*
X76261075Y-139214860D01*
X75447978Y-138401763D01*
X75204009Y-138473346D01*
X75083109Y-138728856D01*
X75014380Y-139003044D01*
X75000463Y-139285372D01*
X70546729Y-139285372D01*
X70493484Y-139185757D01*
X70367459Y-139032195D01*
X70320533Y-138796286D01*
X70212360Y-138535133D01*
X70055317Y-138300101D01*
X69977374Y-138222158D01*
X75627583Y-138222158D01*
X76440680Y-139035255D01*
X77253777Y-138222158D01*
X77182194Y-137978189D01*
X76926684Y-137857289D01*
X76652496Y-137788560D01*
X76370168Y-137774643D01*
X76090550Y-137816073D01*
X75824388Y-137911257D01*
X75699166Y-137978189D01*
X75627583Y-138222158D01*
X69977374Y-138222158D01*
X69855439Y-138100223D01*
X69620407Y-137943180D01*
X69359254Y-137835007D01*
X69082015Y-137779860D01*
X68799345Y-137779860D01*
X68522106Y-137835007D01*
X68260953Y-137943180D01*
X68025921Y-138100223D01*
X67826043Y-138300101D01*
X67669000Y-138535133D01*
X67560827Y-138796286D01*
X67505680Y-139073525D01*
X67505680Y-139356195D01*
X67560827Y-139633434D01*
X67669000Y-139894587D01*
X67826043Y-140129619D01*
X68025921Y-140329497D01*
X68260953Y-140486540D01*
X68410201Y-140548360D01*
X68410200Y-144363827D01*
X68406447Y-144369444D01*
X68309581Y-144603299D01*
X68260200Y-144851559D01*
X68260200Y-145104681D01*
X68309581Y-145352941D01*
X68406447Y-145586796D01*
X68547075Y-145797260D01*
X68726060Y-145976245D01*
X68936524Y-146116873D01*
X69170379Y-146213739D01*
X69418639Y-146263120D01*
X69530200Y-146263120D01*
X69530200Y-146374681D01*
X69579581Y-146622941D01*
X69676447Y-146856796D01*
X69817075Y-147067260D01*
X69996060Y-147246245D01*
X70206524Y-147386873D01*
X70440379Y-147483739D01*
X70447006Y-147485057D01*
X70623203Y-147661254D01*
X70658750Y-147704568D01*
X70831576Y-147846403D01*
X71028752Y-147951795D01*
X71242700Y-148016696D01*
X71409447Y-148033119D01*
X71409456Y-148033119D01*
X71465198Y-148038609D01*
X71520940Y-148033119D01*
X72669452Y-148033119D01*
X72725203Y-148038610D01*
X72780954Y-148033119D01*
X72780955Y-148033119D01*
X72947702Y-148016696D01*
X73161650Y-147951795D01*
X73358826Y-147846403D01*
X73531652Y-147704568D01*
X73567199Y-147661254D01*
X78380616Y-142847838D01*
X78353308Y-142898928D01*
X78285764Y-143025294D01*
X78220863Y-143239242D01*
X78198949Y-143461740D01*
X78204441Y-143517501D01*
X78204440Y-145228778D01*
X78158903Y-145284266D01*
X78099938Y-145394580D01*
X78063628Y-145514278D01*
X78051368Y-145638760D01*
X78051368Y-145995932D01*
X78035059Y-145913939D01*
X77938193Y-145680084D01*
X77797565Y-145469620D01*
X77618580Y-145290635D01*
X77408116Y-145150007D01*
X77174261Y-145053141D01*
X76926001Y-145003760D01*
X76672879Y-145003760D01*
X76424619Y-145053141D01*
X76190764Y-145150007D01*
X75980300Y-145290635D01*
X75801315Y-145469620D01*
X75660687Y-145680084D01*
X75563821Y-145913939D01*
X75514440Y-146162199D01*
X75514440Y-146415321D01*
X75563821Y-146663581D01*
X75660687Y-146897436D01*
X75801315Y-147107900D01*
X75980300Y-147286885D01*
X76190764Y-147427513D01*
X76424619Y-147524379D01*
X76672879Y-147573760D01*
X76784440Y-147573760D01*
X76784440Y-147685321D01*
X76833821Y-147933581D01*
X76930687Y-148167436D01*
X76934440Y-148173053D01*
X76934441Y-150482419D01*
X76928949Y-150538180D01*
X76950863Y-150760678D01*
X77015764Y-150974626D01*
X77027693Y-150996943D01*
X77121157Y-151171803D01*
X77262992Y-151344629D01*
X77306300Y-151380171D01*
X78218931Y-152292803D01*
X78266927Y-152534094D01*
X78375100Y-152795247D01*
X78532143Y-153030279D01*
X78732021Y-153230157D01*
X78967053Y-153387200D01*
X79228206Y-153495373D01*
X79505445Y-153550520D01*
X79788115Y-153550520D01*
X80065354Y-153495373D01*
X80326507Y-153387200D01*
X80561539Y-153230157D01*
X80761417Y-153030279D01*
X80918460Y-152795247D01*
X81026633Y-152534094D01*
X81081780Y-152256855D01*
X81081780Y-151974185D01*
X81026633Y-151696946D01*
X80918460Y-151435793D01*
X80761417Y-151200761D01*
X80561539Y-151000883D01*
X80326507Y-150843840D01*
X80065354Y-150735667D01*
X79824063Y-150687671D01*
X79204440Y-150068049D01*
X79204440Y-148173053D01*
X79208193Y-148167436D01*
X79305059Y-147933581D01*
X79354440Y-147685321D01*
X79354440Y-147576832D01*
X79989440Y-147576832D01*
X80113922Y-147564572D01*
X80233620Y-147528262D01*
X80343934Y-147469297D01*
X80440625Y-147389945D01*
X80519977Y-147293254D01*
X80578942Y-147182940D01*
X80615252Y-147063242D01*
X80627512Y-146938760D01*
X80627512Y-145638760D01*
X80615252Y-145514278D01*
X80578942Y-145394580D01*
X80519977Y-145284266D01*
X80474440Y-145228779D01*
X80474440Y-143931871D01*
X81102878Y-143303434D01*
X81203169Y-143293556D01*
X81473668Y-143211502D01*
X81722961Y-143078252D01*
X81941468Y-142898928D01*
X82120792Y-142680421D01*
X82254042Y-142431128D01*
X82336096Y-142160629D01*
X82363803Y-141879320D01*
X82336096Y-141598011D01*
X82254042Y-141327512D01*
X82120792Y-141078219D01*
X81941468Y-140859712D01*
X81722961Y-140680388D01*
X81473668Y-140547138D01*
X81203169Y-140465084D01*
X80992352Y-140444320D01*
X80851368Y-140444320D01*
X80640551Y-140465084D01*
X80370052Y-140547138D01*
X80207292Y-140634135D01*
X80210280Y-140603794D01*
X80210280Y-140603793D01*
X80215771Y-140548043D01*
X80210280Y-140492291D01*
X80210280Y-133466712D01*
X80215771Y-133410960D01*
X80193857Y-133188461D01*
X80128956Y-132974513D01*
X80023564Y-132777337D01*
X79917269Y-132647816D01*
X79917267Y-132647814D01*
X79881729Y-132604511D01*
X79838426Y-132568973D01*
X76400280Y-129130829D01*
X76400280Y-129037985D01*
X79486860Y-129037985D01*
X79486860Y-129320655D01*
X79542007Y-129597894D01*
X79650180Y-129859047D01*
X79807223Y-130094079D01*
X80007101Y-130293957D01*
X80242133Y-130451000D01*
X80503286Y-130559173D01*
X80780525Y-130614320D01*
X81063195Y-130614320D01*
X81340434Y-130559173D01*
X81601587Y-130451000D01*
X81806144Y-130314320D01*
X85049129Y-130314320D01*
X86323068Y-131588260D01*
X86323068Y-132421200D01*
X86335328Y-132545682D01*
X86371638Y-132665380D01*
X86430603Y-132775694D01*
X86509955Y-132872385D01*
X86606646Y-132951737D01*
X86716960Y-133010702D01*
X86726140Y-133013487D01*
X86726141Y-138285428D01*
X86638220Y-138312098D01*
X86527906Y-138371063D01*
X86431215Y-138450415D01*
X86351863Y-138547106D01*
X86292898Y-138657420D01*
X86256588Y-138777118D01*
X86244328Y-138901600D01*
X86244328Y-140701600D01*
X86256588Y-140826082D01*
X86292898Y-140945780D01*
X86351863Y-141056094D01*
X86431215Y-141152785D01*
X86527906Y-141232137D01*
X86638220Y-141291102D01*
X86647400Y-141293887D01*
X86647401Y-147279080D01*
X86559798Y-147287708D01*
X86440100Y-147324018D01*
X86329786Y-147382983D01*
X86233095Y-147462335D01*
X86153743Y-147559026D01*
X86094778Y-147669340D01*
X86058468Y-147789038D01*
X86046208Y-147913520D01*
X86046208Y-149713520D01*
X86058468Y-149838002D01*
X86094778Y-149957700D01*
X86153743Y-150068014D01*
X86233095Y-150164705D01*
X86329786Y-150244057D01*
X86440100Y-150303022D01*
X86559798Y-150339332D01*
X86684280Y-150351592D01*
X88484280Y-150351592D01*
X88608762Y-150339332D01*
X88728460Y-150303022D01*
X88838774Y-150244057D01*
X88935465Y-150164705D01*
X89014817Y-150068014D01*
X89073782Y-149957700D01*
X89079336Y-149939393D01*
X89145775Y-150005832D01*
X89397185Y-150173819D01*
X89676537Y-150289531D01*
X89973096Y-150348520D01*
X90275464Y-150348520D01*
X90572023Y-150289531D01*
X90851375Y-150173819D01*
X91102785Y-150005832D01*
X91160097Y-149948520D01*
X93527608Y-149948520D01*
X93542603Y-149976574D01*
X93621955Y-150073265D01*
X93718646Y-150152617D01*
X93828960Y-150211582D01*
X93948658Y-150247892D01*
X94073140Y-150260152D01*
X95873140Y-150260152D01*
X95997622Y-150247892D01*
X96117320Y-150211582D01*
X96227634Y-150152617D01*
X96324325Y-150073265D01*
X96403677Y-149976574D01*
X96462642Y-149866260D01*
X96465953Y-149855345D01*
X96512718Y-149902110D01*
X96628666Y-149786162D01*
X96712348Y-150040341D01*
X96984915Y-150171238D01*
X97277782Y-150246445D01*
X97579693Y-150263071D01*
X97879047Y-150220477D01*
X98164339Y-150120302D01*
X98313932Y-150040341D01*
X98397615Y-149786160D01*
X97513140Y-148901685D01*
X97498998Y-148915828D01*
X97319393Y-148736223D01*
X97333535Y-148722080D01*
X97692745Y-148722080D01*
X98577220Y-149606555D01*
X98831401Y-149522872D01*
X98962298Y-149250305D01*
X99037505Y-148957438D01*
X99054131Y-148655527D01*
X99011537Y-148356173D01*
X98911362Y-148070881D01*
X98831401Y-147921288D01*
X98577220Y-147837605D01*
X97692745Y-148722080D01*
X97333535Y-148722080D01*
X97319393Y-148707938D01*
X97498998Y-148528333D01*
X97513140Y-148542475D01*
X98397615Y-147658000D01*
X98313932Y-147403819D01*
X98041365Y-147272922D01*
X97748498Y-147197715D01*
X97446587Y-147181089D01*
X97147233Y-147223683D01*
X96861941Y-147323858D01*
X96712348Y-147403819D01*
X96628666Y-147657998D01*
X96512718Y-147542050D01*
X96465953Y-147588815D01*
X96462642Y-147577900D01*
X96403677Y-147467586D01*
X96324325Y-147370895D01*
X96227634Y-147291543D01*
X96117320Y-147232578D01*
X95997622Y-147196268D01*
X95873140Y-147184008D01*
X94073140Y-147184008D01*
X93948658Y-147196268D01*
X93828960Y-147232578D01*
X93718646Y-147291543D01*
X93621955Y-147370895D01*
X93542603Y-147467586D01*
X93483638Y-147577900D01*
X93453115Y-147678520D01*
X91160097Y-147678520D01*
X91102785Y-147621208D01*
X90851375Y-147453221D01*
X90572023Y-147337509D01*
X90275464Y-147278520D01*
X89973096Y-147278520D01*
X89676537Y-147337509D01*
X89397185Y-147453221D01*
X89145775Y-147621208D01*
X89079336Y-147687647D01*
X89073782Y-147669340D01*
X89014817Y-147559026D01*
X88935465Y-147462335D01*
X88917400Y-147447509D01*
X88917400Y-141293887D01*
X88926580Y-141291102D01*
X89036894Y-141232137D01*
X89133585Y-141152785D01*
X89212937Y-141056094D01*
X89271902Y-140945780D01*
X89277456Y-140927473D01*
X89343895Y-140993912D01*
X89595305Y-141161899D01*
X89874657Y-141277611D01*
X90171216Y-141336600D01*
X90473584Y-141336600D01*
X90770143Y-141277611D01*
X91049495Y-141161899D01*
X91268836Y-141015340D01*
X93506253Y-141015340D01*
X93509038Y-141024520D01*
X93568003Y-141134834D01*
X93647355Y-141231525D01*
X93744046Y-141310877D01*
X93854360Y-141369842D01*
X93974058Y-141406152D01*
X94098540Y-141418412D01*
X95898540Y-141418412D01*
X96023022Y-141406152D01*
X96142720Y-141369842D01*
X96253034Y-141310877D01*
X96349725Y-141231525D01*
X96429077Y-141134834D01*
X96488042Y-141024520D01*
X96491353Y-141013605D01*
X96538118Y-141060370D01*
X96654066Y-140944422D01*
X96737748Y-141198601D01*
X97010315Y-141329498D01*
X97303182Y-141404705D01*
X97605093Y-141421331D01*
X97904447Y-141378737D01*
X98189739Y-141278562D01*
X98339332Y-141198601D01*
X98423015Y-140944420D01*
X97538540Y-140059945D01*
X97524398Y-140074088D01*
X97344793Y-139894483D01*
X97358935Y-139880340D01*
X97718145Y-139880340D01*
X98602620Y-140764815D01*
X98856801Y-140681132D01*
X98987698Y-140408565D01*
X99062905Y-140115698D01*
X99079531Y-139813787D01*
X99036937Y-139514433D01*
X98936762Y-139229141D01*
X98856801Y-139079548D01*
X98602620Y-138995865D01*
X97718145Y-139880340D01*
X97358935Y-139880340D01*
X97344793Y-139866198D01*
X97524398Y-139686593D01*
X97538540Y-139700735D01*
X98423015Y-138816260D01*
X98339332Y-138562079D01*
X98066765Y-138431182D01*
X97773898Y-138355975D01*
X97471987Y-138339349D01*
X97172633Y-138381943D01*
X96887341Y-138482118D01*
X96737748Y-138562079D01*
X96654066Y-138816258D01*
X96538118Y-138700310D01*
X96491353Y-138747075D01*
X96488042Y-138736160D01*
X96429077Y-138625846D01*
X96349725Y-138529155D01*
X96253034Y-138449803D01*
X96142720Y-138390838D01*
X96023022Y-138354528D01*
X95898540Y-138342268D01*
X94098540Y-138342268D01*
X93974058Y-138354528D01*
X93854360Y-138390838D01*
X93744046Y-138449803D01*
X93647355Y-138529155D01*
X93568003Y-138625846D01*
X93509038Y-138736160D01*
X93506253Y-138745340D01*
X91436957Y-138745340D01*
X91300905Y-138609288D01*
X91049495Y-138441301D01*
X90770143Y-138325589D01*
X90473584Y-138266600D01*
X90171216Y-138266600D01*
X89874657Y-138325589D01*
X89595305Y-138441301D01*
X89343895Y-138609288D01*
X89277456Y-138675727D01*
X89271902Y-138657420D01*
X89212937Y-138547106D01*
X89133585Y-138450415D01*
X89036894Y-138371063D01*
X88996140Y-138349279D01*
X88996140Y-133013487D01*
X89005320Y-133010702D01*
X89115634Y-132951737D01*
X89212325Y-132872385D01*
X89291677Y-132775694D01*
X89350642Y-132665380D01*
X89356196Y-132647073D01*
X89422635Y-132713512D01*
X89674045Y-132881499D01*
X89953397Y-132997211D01*
X90249956Y-133056200D01*
X90552324Y-133056200D01*
X90848883Y-132997211D01*
X91128235Y-132881499D01*
X91379645Y-132713512D01*
X91436957Y-132656200D01*
X93825092Y-132656200D01*
X93877932Y-132755055D01*
X93957284Y-132851746D01*
X94053975Y-132931098D01*
X94164289Y-132990063D01*
X94283987Y-133026373D01*
X94408469Y-133038633D01*
X96208469Y-133038633D01*
X96332951Y-133026373D01*
X96452649Y-132990063D01*
X96562963Y-132931098D01*
X96659654Y-132851746D01*
X96739006Y-132755055D01*
X96797971Y-132644741D01*
X96801282Y-132633826D01*
X96848047Y-132680591D01*
X96963995Y-132564643D01*
X97047677Y-132818822D01*
X97320244Y-132949719D01*
X97613111Y-133024926D01*
X97915022Y-133041552D01*
X98214376Y-132998958D01*
X98499668Y-132898783D01*
X98649261Y-132818822D01*
X98732944Y-132564641D01*
X97848469Y-131680166D01*
X97834327Y-131694309D01*
X97654722Y-131514704D01*
X97668864Y-131500561D01*
X98028074Y-131500561D01*
X98912549Y-132385036D01*
X99166730Y-132301353D01*
X99297627Y-132028786D01*
X99372834Y-131735919D01*
X99389460Y-131434008D01*
X99346866Y-131134654D01*
X99246691Y-130849362D01*
X99166730Y-130699769D01*
X98912549Y-130616086D01*
X98028074Y-131500561D01*
X97668864Y-131500561D01*
X97654722Y-131486419D01*
X97834327Y-131306814D01*
X97848469Y-131320956D01*
X98732944Y-130436481D01*
X98649261Y-130182300D01*
X98376694Y-130051403D01*
X98083827Y-129976196D01*
X97781916Y-129959570D01*
X97482562Y-130002164D01*
X97197270Y-130102339D01*
X97047677Y-130182300D01*
X96963995Y-130436479D01*
X96848047Y-130320531D01*
X96801282Y-130367296D01*
X96797971Y-130356381D01*
X96739006Y-130246067D01*
X96659654Y-130149376D01*
X96562963Y-130070024D01*
X96452649Y-130011059D01*
X96332951Y-129974749D01*
X96208469Y-129962489D01*
X94408469Y-129962489D01*
X94283987Y-129974749D01*
X94164289Y-130011059D01*
X94053975Y-130070024D01*
X93957284Y-130149376D01*
X93877932Y-130246067D01*
X93818967Y-130356381D01*
X93809922Y-130386200D01*
X91436957Y-130386200D01*
X91379645Y-130328888D01*
X91128235Y-130160901D01*
X90848883Y-130045189D01*
X90552324Y-129986200D01*
X90249956Y-129986200D01*
X89953397Y-130045189D01*
X89674045Y-130160901D01*
X89422635Y-130328888D01*
X89356196Y-130395327D01*
X89350642Y-130377020D01*
X89291677Y-130266706D01*
X89212325Y-130170015D01*
X89115634Y-130090663D01*
X89005320Y-130031698D01*
X88885622Y-129995388D01*
X88761140Y-129983128D01*
X87928200Y-129983128D01*
X86361256Y-128416185D01*
X86325709Y-128372871D01*
X86152883Y-128231036D01*
X85955707Y-128125644D01*
X85741759Y-128060743D01*
X85575012Y-128044320D01*
X85575011Y-128044320D01*
X85519260Y-128038829D01*
X85463509Y-128044320D01*
X81806144Y-128044320D01*
X81601587Y-127907640D01*
X81340434Y-127799467D01*
X81063195Y-127744320D01*
X80780525Y-127744320D01*
X80503286Y-127799467D01*
X80242133Y-127907640D01*
X80007101Y-128064683D01*
X79807223Y-128264561D01*
X79650180Y-128499593D01*
X79542007Y-128760746D01*
X79486860Y-129037985D01*
X76400280Y-129037985D01*
X76400280Y-124289820D01*
X78062597Y-124289820D01*
X78090304Y-124571129D01*
X78172358Y-124841628D01*
X78305608Y-125090921D01*
X78484932Y-125309428D01*
X78703439Y-125488752D01*
X78952732Y-125622002D01*
X79223231Y-125704056D01*
X79434048Y-125724820D01*
X79575032Y-125724820D01*
X79785849Y-125704056D01*
X80056348Y-125622002D01*
X80305641Y-125488752D01*
X80524148Y-125309428D01*
X80703472Y-125090921D01*
X80836722Y-124841628D01*
X80918776Y-124571129D01*
X80946483Y-124289820D01*
X80918776Y-124008511D01*
X80836722Y-123738012D01*
X80703472Y-123488719D01*
X80524148Y-123270212D01*
X80305641Y-123090888D01*
X80056348Y-122957638D01*
X79785849Y-122875584D01*
X79575032Y-122854820D01*
X79434048Y-122854820D01*
X79223231Y-122875584D01*
X78952732Y-122957638D01*
X78703439Y-123090888D01*
X78484932Y-123270212D01*
X78305608Y-123488719D01*
X78172358Y-123738012D01*
X78090304Y-124008511D01*
X78062597Y-124289820D01*
X76400280Y-124289820D01*
X76400280Y-120308005D01*
X83505140Y-120308005D01*
X83505140Y-120590675D01*
X83560287Y-120867914D01*
X83668460Y-121129067D01*
X83825503Y-121364099D01*
X84025381Y-121563977D01*
X84260413Y-121721020D01*
X84521566Y-121829193D01*
X84757475Y-121876119D01*
X84911037Y-122002144D01*
X85108213Y-122107536D01*
X85322161Y-122172437D01*
X85488908Y-122188860D01*
X85488917Y-122188860D01*
X85544659Y-122194350D01*
X85600401Y-122188860D01*
X88263693Y-122188860D01*
X88266478Y-122198040D01*
X88325443Y-122308354D01*
X88404795Y-122405045D01*
X88501486Y-122484397D01*
X88611800Y-122543362D01*
X88731498Y-122579672D01*
X88855980Y-122591932D01*
X90655980Y-122591932D01*
X90780462Y-122579672D01*
X90900160Y-122543362D01*
X91010474Y-122484397D01*
X91107165Y-122405045D01*
X91186517Y-122308354D01*
X91245482Y-122198040D01*
X91251036Y-122179733D01*
X91317475Y-122246172D01*
X91568885Y-122414159D01*
X91848237Y-122529871D01*
X92144796Y-122588860D01*
X92447164Y-122588860D01*
X92743723Y-122529871D01*
X93023075Y-122414159D01*
X93274485Y-122246172D01*
X93331797Y-122188860D01*
X93992908Y-122188860D01*
X94019578Y-122276780D01*
X94078543Y-122387094D01*
X94157895Y-122483785D01*
X94254586Y-122563137D01*
X94364900Y-122622102D01*
X94484598Y-122658412D01*
X94609080Y-122670672D01*
X96409080Y-122670672D01*
X96533562Y-122658412D01*
X96653260Y-122622102D01*
X96763574Y-122563137D01*
X96860265Y-122483785D01*
X96939617Y-122387094D01*
X96998582Y-122276780D01*
X97001893Y-122265865D01*
X97048658Y-122312630D01*
X97164606Y-122196682D01*
X97248288Y-122450861D01*
X97520855Y-122581758D01*
X97813722Y-122656965D01*
X98115633Y-122673591D01*
X98414987Y-122630997D01*
X98700279Y-122530822D01*
X98849872Y-122450861D01*
X98933555Y-122196680D01*
X98049080Y-121312205D01*
X98034938Y-121326348D01*
X97855333Y-121146743D01*
X97869475Y-121132600D01*
X98228685Y-121132600D01*
X99113160Y-122017075D01*
X99367341Y-121933392D01*
X99498238Y-121660825D01*
X99573445Y-121367958D01*
X99590071Y-121066047D01*
X99547477Y-120766693D01*
X99447302Y-120481401D01*
X99367341Y-120331808D01*
X99113160Y-120248125D01*
X98228685Y-121132600D01*
X97869475Y-121132600D01*
X97855333Y-121118458D01*
X98034938Y-120938853D01*
X98049080Y-120952995D01*
X98933555Y-120068520D01*
X98849872Y-119814339D01*
X98577305Y-119683442D01*
X98284438Y-119608235D01*
X97982527Y-119591609D01*
X97683173Y-119634203D01*
X97397881Y-119734378D01*
X97248288Y-119814339D01*
X97164606Y-120068518D01*
X97048658Y-119952570D01*
X97001893Y-119999335D01*
X96998582Y-119988420D01*
X96939617Y-119878106D01*
X96860265Y-119781415D01*
X96763574Y-119702063D01*
X96653260Y-119643098D01*
X96533562Y-119606788D01*
X96409080Y-119594528D01*
X94609080Y-119594528D01*
X94484598Y-119606788D01*
X94364900Y-119643098D01*
X94254586Y-119702063D01*
X94157895Y-119781415D01*
X94078543Y-119878106D01*
X94056759Y-119918860D01*
X93331797Y-119918860D01*
X93274485Y-119861548D01*
X93023075Y-119693561D01*
X92743723Y-119577849D01*
X92447164Y-119518860D01*
X92144796Y-119518860D01*
X91848237Y-119577849D01*
X91568885Y-119693561D01*
X91317475Y-119861548D01*
X91251036Y-119927987D01*
X91245482Y-119909680D01*
X91186517Y-119799366D01*
X91107165Y-119702675D01*
X91010474Y-119623323D01*
X90900160Y-119564358D01*
X90780462Y-119528048D01*
X90655980Y-119515788D01*
X88855980Y-119515788D01*
X88731498Y-119528048D01*
X88611800Y-119564358D01*
X88501486Y-119623323D01*
X88404795Y-119702675D01*
X88325443Y-119799366D01*
X88266478Y-119909680D01*
X88263693Y-119918860D01*
X86273640Y-119918860D01*
X86211820Y-119769613D01*
X86075140Y-119565056D01*
X86075140Y-119342131D01*
X89566500Y-115850772D01*
X90399440Y-115850772D01*
X90523922Y-115838512D01*
X90643620Y-115802202D01*
X90753934Y-115743237D01*
X90850625Y-115663885D01*
X90929977Y-115567194D01*
X90988942Y-115456880D01*
X90994496Y-115438573D01*
X91060935Y-115505012D01*
X91312345Y-115672999D01*
X91591697Y-115788711D01*
X91888256Y-115847700D01*
X92190624Y-115847700D01*
X92487183Y-115788711D01*
X92766535Y-115672999D01*
X93017945Y-115505012D01*
X93090497Y-115432460D01*
X93714533Y-115432460D01*
X93717318Y-115441640D01*
X93776283Y-115551954D01*
X93855635Y-115648645D01*
X93952326Y-115727997D01*
X94062640Y-115786962D01*
X94182338Y-115823272D01*
X94306820Y-115835532D01*
X96106820Y-115835532D01*
X96231302Y-115823272D01*
X96351000Y-115786962D01*
X96461314Y-115727997D01*
X96558005Y-115648645D01*
X96637357Y-115551954D01*
X96696322Y-115441640D01*
X96699633Y-115430725D01*
X96746398Y-115477490D01*
X96862346Y-115361542D01*
X96946028Y-115615721D01*
X97218595Y-115746618D01*
X97511462Y-115821825D01*
X97813373Y-115838451D01*
X98112727Y-115795857D01*
X98398019Y-115695682D01*
X98547612Y-115615721D01*
X98631295Y-115361540D01*
X97746820Y-114477065D01*
X97732678Y-114491208D01*
X97553073Y-114311603D01*
X97567215Y-114297460D01*
X97926425Y-114297460D01*
X98810900Y-115181935D01*
X99065081Y-115098252D01*
X99195978Y-114825685D01*
X99271185Y-114532818D01*
X99287811Y-114230907D01*
X99245217Y-113931553D01*
X99145042Y-113646261D01*
X99065081Y-113496668D01*
X98810900Y-113412985D01*
X97926425Y-114297460D01*
X97567215Y-114297460D01*
X97553073Y-114283318D01*
X97732678Y-114103713D01*
X97746820Y-114117855D01*
X98631295Y-113233380D01*
X98547612Y-112979199D01*
X98275045Y-112848302D01*
X97982178Y-112773095D01*
X97680267Y-112756469D01*
X97380913Y-112799063D01*
X97095621Y-112899238D01*
X96946028Y-112979199D01*
X96862346Y-113233378D01*
X96746398Y-113117430D01*
X96699633Y-113164195D01*
X96696322Y-113153280D01*
X96637357Y-113042966D01*
X96558005Y-112946275D01*
X96461314Y-112866923D01*
X96351000Y-112807958D01*
X96231302Y-112771648D01*
X96106820Y-112759388D01*
X94306820Y-112759388D01*
X94182338Y-112771648D01*
X94062640Y-112807958D01*
X93952326Y-112866923D01*
X93855635Y-112946275D01*
X93776283Y-113042966D01*
X93717318Y-113153280D01*
X93714533Y-113162460D01*
X93060017Y-113162460D01*
X93017945Y-113120388D01*
X92766535Y-112952401D01*
X92487183Y-112836689D01*
X92190624Y-112777700D01*
X91888256Y-112777700D01*
X91591697Y-112836689D01*
X91312345Y-112952401D01*
X91060935Y-113120388D01*
X90994496Y-113186827D01*
X90988942Y-113168520D01*
X90929977Y-113058206D01*
X90850625Y-112961515D01*
X90753934Y-112882163D01*
X90643620Y-112823198D01*
X90523922Y-112786888D01*
X90489660Y-112783514D01*
X90489660Y-108974927D01*
X90498840Y-108972142D01*
X90609154Y-108913177D01*
X90705845Y-108833825D01*
X90785197Y-108737134D01*
X90844162Y-108626820D01*
X90849716Y-108608513D01*
X90916155Y-108674952D01*
X91167565Y-108842939D01*
X91446917Y-108958651D01*
X91743476Y-109017640D01*
X92045844Y-109017640D01*
X92342403Y-108958651D01*
X92621755Y-108842939D01*
X92873165Y-108674952D01*
X92930477Y-108617640D01*
X93614474Y-108617640D01*
X93615718Y-108621740D01*
X93674683Y-108732054D01*
X93754035Y-108828745D01*
X93850726Y-108908097D01*
X93961040Y-108967062D01*
X94080738Y-109003372D01*
X94205220Y-109015632D01*
X96005220Y-109015632D01*
X96129702Y-109003372D01*
X96249400Y-108967062D01*
X96359714Y-108908097D01*
X96456405Y-108828745D01*
X96535757Y-108732054D01*
X96594722Y-108621740D01*
X96598033Y-108610825D01*
X96644798Y-108657590D01*
X96760746Y-108541642D01*
X96844428Y-108795821D01*
X97116995Y-108926718D01*
X97409862Y-109001925D01*
X97711773Y-109018551D01*
X98011127Y-108975957D01*
X98296419Y-108875782D01*
X98446012Y-108795821D01*
X98529695Y-108541640D01*
X97645220Y-107657165D01*
X97631078Y-107671308D01*
X97451473Y-107491703D01*
X97465615Y-107477560D01*
X97824825Y-107477560D01*
X98709300Y-108362035D01*
X98963481Y-108278352D01*
X99094378Y-108005785D01*
X99169585Y-107712918D01*
X99186211Y-107411007D01*
X99143617Y-107111653D01*
X99043442Y-106826361D01*
X98963481Y-106676768D01*
X98709300Y-106593085D01*
X97824825Y-107477560D01*
X97465615Y-107477560D01*
X97451473Y-107463418D01*
X97631078Y-107283813D01*
X97645220Y-107297955D01*
X98529695Y-106413480D01*
X98446012Y-106159299D01*
X98173445Y-106028402D01*
X97880578Y-105953195D01*
X97578667Y-105936569D01*
X97279313Y-105979163D01*
X96994021Y-106079338D01*
X96844428Y-106159299D01*
X96760746Y-106413478D01*
X96644798Y-106297530D01*
X96598033Y-106344295D01*
X96594722Y-106333380D01*
X96535757Y-106223066D01*
X96456405Y-106126375D01*
X96359714Y-106047023D01*
X96249400Y-105988058D01*
X96129702Y-105951748D01*
X96005220Y-105939488D01*
X94205220Y-105939488D01*
X94080738Y-105951748D01*
X93961040Y-105988058D01*
X93850726Y-106047023D01*
X93754035Y-106126375D01*
X93674683Y-106223066D01*
X93615718Y-106333380D01*
X93611392Y-106347640D01*
X92930477Y-106347640D01*
X92873165Y-106290328D01*
X92621755Y-106122341D01*
X92342403Y-106006629D01*
X92045844Y-105947640D01*
X91743476Y-105947640D01*
X91446917Y-106006629D01*
X91167565Y-106122341D01*
X90916155Y-106290328D01*
X90849716Y-106356767D01*
X90844162Y-106338460D01*
X90785197Y-106228146D01*
X90705845Y-106131455D01*
X90609154Y-106052103D01*
X90498840Y-105993138D01*
X90379142Y-105956828D01*
X90254660Y-105944568D01*
X88454660Y-105944568D01*
X88330178Y-105956828D01*
X88210480Y-105993138D01*
X88100166Y-106052103D01*
X88003475Y-106131455D01*
X87924123Y-106228146D01*
X87865158Y-106338460D01*
X87828848Y-106458158D01*
X87816588Y-106582640D01*
X87816588Y-108382640D01*
X87828848Y-108507122D01*
X87865158Y-108626820D01*
X87924123Y-108737134D01*
X88003475Y-108833825D01*
X88100166Y-108913177D01*
X88210480Y-108972142D01*
X88219660Y-108974927D01*
X88219661Y-112902914D01*
X88148255Y-112961515D01*
X88068903Y-113058206D01*
X88009938Y-113168520D01*
X87973628Y-113288218D01*
X87961368Y-113412700D01*
X87961368Y-114245640D01*
X84177000Y-118030009D01*
X84133692Y-118065551D01*
X83991857Y-118238377D01*
X83957294Y-118303040D01*
X83886464Y-118435554D01*
X83821563Y-118649502D01*
X83799649Y-118872000D01*
X83805140Y-118927751D01*
X83805140Y-119565056D01*
X83668460Y-119769613D01*
X83560287Y-120030766D01*
X83505140Y-120308005D01*
X76400280Y-120308005D01*
X76400280Y-112732440D01*
X78631661Y-112732440D01*
X78824813Y-112861500D01*
X79085966Y-112969673D01*
X79363205Y-113024820D01*
X79645875Y-113024820D01*
X79923114Y-112969673D01*
X80184267Y-112861500D01*
X80419299Y-112704457D01*
X80619177Y-112504579D01*
X80776220Y-112269547D01*
X80884393Y-112008394D01*
X80939540Y-111731155D01*
X80939540Y-111448485D01*
X80884393Y-111171246D01*
X80776220Y-110910093D01*
X80619177Y-110675061D01*
X80419299Y-110475183D01*
X80271240Y-110376253D01*
X80271240Y-107007273D01*
X80274993Y-107001656D01*
X80371859Y-106767801D01*
X80421240Y-106519541D01*
X80421240Y-106411052D01*
X81056240Y-106411052D01*
X81180722Y-106398792D01*
X81300420Y-106362482D01*
X81410734Y-106303517D01*
X81466221Y-106257980D01*
X81843649Y-106257980D01*
X83516026Y-107930358D01*
X83525904Y-108030649D01*
X83607958Y-108301148D01*
X83741208Y-108550441D01*
X83920532Y-108768948D01*
X84139039Y-108948272D01*
X84388332Y-109081522D01*
X84658831Y-109163576D01*
X84869648Y-109184340D01*
X85010632Y-109184340D01*
X85221449Y-109163576D01*
X85491948Y-109081522D01*
X85741241Y-108948272D01*
X85959748Y-108768948D01*
X86139072Y-108550441D01*
X86272322Y-108301148D01*
X86354376Y-108030649D01*
X86382083Y-107749340D01*
X86354376Y-107468031D01*
X86272322Y-107197532D01*
X86139072Y-106948239D01*
X85959748Y-106729732D01*
X85741241Y-106550408D01*
X85491948Y-106417158D01*
X85221449Y-106335104D01*
X85121158Y-106325226D01*
X83155776Y-104359845D01*
X83120229Y-104316531D01*
X82947403Y-104174696D01*
X82750227Y-104069304D01*
X82536279Y-104004403D01*
X82369532Y-103987980D01*
X82369531Y-103987980D01*
X82313780Y-103982489D01*
X82258029Y-103987980D01*
X81466221Y-103987980D01*
X81410734Y-103942443D01*
X81300420Y-103883478D01*
X81180722Y-103847168D01*
X81056240Y-103834908D01*
X79756240Y-103834908D01*
X79631758Y-103847168D01*
X79512060Y-103883478D01*
X79401746Y-103942443D01*
X79305055Y-104021795D01*
X79225703Y-104118486D01*
X79166738Y-104228800D01*
X79130428Y-104348498D01*
X79118168Y-104472980D01*
X79118168Y-104830152D01*
X79101859Y-104748159D01*
X79004993Y-104514304D01*
X78864365Y-104303840D01*
X78685380Y-104124855D01*
X78474916Y-103984227D01*
X78241061Y-103887361D01*
X77992801Y-103837980D01*
X77739679Y-103837980D01*
X77491419Y-103887361D01*
X77257564Y-103984227D01*
X77047100Y-104124855D01*
X76868115Y-104303840D01*
X76727487Y-104514304D01*
X76630621Y-104748159D01*
X76581240Y-104996419D01*
X76581240Y-105249541D01*
X76630621Y-105497801D01*
X76727487Y-105731656D01*
X76868115Y-105942120D01*
X77047100Y-106121105D01*
X77257564Y-106261733D01*
X77491419Y-106358599D01*
X77739679Y-106407980D01*
X77851240Y-106407980D01*
X77851240Y-106519541D01*
X77900621Y-106767801D01*
X77997487Y-107001656D01*
X78001240Y-107007273D01*
X78001241Y-110462440D01*
X76149564Y-110462440D01*
X75945007Y-110325760D01*
X75683854Y-110217587D01*
X75406615Y-110162440D01*
X75123945Y-110162440D01*
X74846706Y-110217587D01*
X74585553Y-110325760D01*
X74350521Y-110482803D01*
X74150643Y-110682681D01*
X73993600Y-110917713D01*
X73885427Y-111178866D01*
X73830280Y-111456105D01*
X73830280Y-111738775D01*
X73885427Y-112016014D01*
X73993600Y-112277167D01*
X74130281Y-112481725D01*
X74130281Y-115916228D01*
X74024469Y-115787296D01*
X74024467Y-115787294D01*
X73988929Y-115743991D01*
X73945626Y-115708453D01*
X63267475Y-105030304D01*
X63237222Y-104993440D01*
X73396617Y-104993440D01*
X73424324Y-105274749D01*
X73506378Y-105545248D01*
X73639628Y-105794541D01*
X73818952Y-106013048D01*
X74037459Y-106192372D01*
X74286752Y-106325622D01*
X74557251Y-106407676D01*
X74768068Y-106428440D01*
X74909052Y-106428440D01*
X75119869Y-106407676D01*
X75390368Y-106325622D01*
X75639661Y-106192372D01*
X75858168Y-106013048D01*
X76037492Y-105794541D01*
X76170742Y-105545248D01*
X76252796Y-105274749D01*
X76280503Y-104993440D01*
X76252796Y-104712131D01*
X76170742Y-104441632D01*
X76037492Y-104192339D01*
X75858168Y-103973832D01*
X75639661Y-103794508D01*
X75390368Y-103661258D01*
X75119869Y-103579204D01*
X74909052Y-103558440D01*
X74768068Y-103558440D01*
X74557251Y-103579204D01*
X74286752Y-103661258D01*
X74037459Y-103794508D01*
X73818952Y-103973832D01*
X73639628Y-104192339D01*
X73506378Y-104441632D01*
X73424324Y-104712131D01*
X73396617Y-104993440D01*
X63237222Y-104993440D01*
X63231928Y-104986990D01*
X63059102Y-104845155D01*
X62861926Y-104739763D01*
X62647978Y-104674862D01*
X62481231Y-104658439D01*
X62481230Y-104658439D01*
X62425479Y-104652948D01*
X62369728Y-104658439D01*
X60995037Y-104658439D01*
X60978413Y-104574866D01*
X60870240Y-104313713D01*
X60713197Y-104078681D01*
X60513319Y-103878803D01*
X60278287Y-103721760D01*
X60017134Y-103613587D01*
X59739895Y-103558440D01*
X59457225Y-103558440D01*
X59179986Y-103613587D01*
X58918833Y-103721760D01*
X58683801Y-103878803D01*
X58483923Y-104078681D01*
X58472861Y-104095236D01*
X58463662Y-101644256D01*
X99834046Y-101991822D01*
%TD*%
M02*
