M48
; DRILL file {KiCad (5.1.10)-1} date 11/19/21 12:16:06
; FORMAT={-:-/ absolute / metric / decimal}
; #@! TF.CreationDate,2021-11-19T12:16:06+02:00
; #@! TF.GenerationSoftware,Kicad,Pcbnew,(5.1.10)-1
; #@! TF.FileFunction,Plated,1,2,PTH
FMAT,2
METRIC
T1C0.750
T2C0.762
T3C0.800
T4C0.900
T5C1.000
T6C1.200
%
G90
G05
T1
X137.155Y-137.582
X138.425Y-138.852
X139.695Y-137.582
X140.246Y-111.089
X141.204Y-122.87
X141.516Y-109.819
X141.516Y-112.359
X142.474Y-121.6
X142.474Y-124.14
T2
X146.771Y-146.483
X146.771Y-152.983
T3
X129.438Y-100.579
X129.438Y-115.819
X129.593Y-122.829
X129.593Y-135.529
X132.779Y-138.133
X132.779Y-153.373
X135.0Y-98.3
X135.0Y-111.0
X135.0Y-116.0
X135.0Y-131.24
X137.772Y-143.091
X137.772Y-155.791
X147.0Y-100.0
X147.0Y-112.7
X147.0Y-124.3
X147.0Y-137.0
X162.0Y-143.0
X162.0Y-158.24
T4
X152.0Y-100.0
X152.0Y-109.0
X152.0Y-118.0
X153.0Y-126.0
X153.0Y-132.0
X153.0Y-138.0
X154.54Y-100.0
X154.54Y-109.0
X154.54Y-118.0
X155.54Y-126.0
X155.54Y-132.0
X155.54Y-138.0
X160.0Y-100.0
X160.0Y-109.0
X160.0Y-118.0
X160.0Y-126.0
X160.0Y-132.0
X160.0Y-138.0
X162.54Y-100.0
X162.54Y-109.0
X162.54Y-118.0
X162.54Y-126.0
X162.54Y-132.0
X162.54Y-138.0
T5
X141.127Y-91.605
X141.127Y-94.145
X143.667Y-91.605
X143.667Y-94.145
X146.207Y-91.605
X146.207Y-94.145
T6
X156.487Y-144.988
X156.487Y-157.688
T0
M30
