%TF.GenerationSoftware,KiCad,Pcbnew,(5.1.10)-1*%
%TF.CreationDate,2021-11-19T12:16:16+02:00*%
%TF.ProjectId,25-station-led-alarm,32352d73-7461-4746-996f-6e2d6c65642d,rev?*%
%TF.SameCoordinates,Original*%
%TF.FileFunction,Soldermask,Top*%
%TF.FilePolarity,Negative*%
%FSLAX46Y46*%
G04 Gerber Fmt 4.6, Leading zero omitted, Abs format (unit mm)*
G04 Created by KiCad (PCBNEW (5.1.10)-1) date 2021-11-19 12:16:16*
%MOMM*%
%LPD*%
G01*
G04 APERTURE LIST*
%ADD10R,1.800000X1.800000*%
%ADD11C,1.800000*%
%ADD12C,1.300000*%
%ADD13R,1.300000X1.300000*%
%ADD14C,1.600000*%
%ADD15O,1.600000X1.600000*%
%ADD16C,1.524000*%
%ADD17R,1.700000X1.700000*%
%ADD18O,1.700000X1.700000*%
%ADD19R,2.400000X2.400000*%
%ADD20O,2.400000X2.400000*%
%ADD21C,2.700000*%
G04 APERTURE END LIST*
D10*
%TO.C,D1*%
X160000000Y-132000000D03*
D11*
X162540000Y-132000000D03*
%TD*%
%TO.C,D2*%
X155540000Y-132000000D03*
D10*
X153000000Y-132000000D03*
%TD*%
D11*
%TO.C,D3*%
X162540000Y-138000000D03*
D10*
X160000000Y-138000000D03*
%TD*%
%TO.C,D4*%
X160000000Y-126000000D03*
D11*
X162540000Y-126000000D03*
%TD*%
D10*
%TO.C,D5*%
X160000000Y-118000000D03*
D11*
X162540000Y-118000000D03*
%TD*%
%TO.C,D6*%
X162540000Y-109000000D03*
D10*
X160000000Y-109000000D03*
%TD*%
%TO.C,D7*%
X160000000Y-100000000D03*
D11*
X162540000Y-100000000D03*
%TD*%
D10*
%TO.C,D8*%
X152000000Y-118000000D03*
D11*
X154540000Y-118000000D03*
%TD*%
D10*
%TO.C,D9*%
X153000000Y-138000000D03*
D11*
X155540000Y-138000000D03*
%TD*%
%TO.C,D10*%
X155540000Y-126000000D03*
D10*
X153000000Y-126000000D03*
%TD*%
%TO.C,D11*%
X152000000Y-109000000D03*
D11*
X154540000Y-109000000D03*
%TD*%
%TO.C,D12*%
X154540000Y-100000000D03*
D10*
X152000000Y-100000000D03*
%TD*%
D12*
%TO.C,Q1*%
X141203680Y-122869960D03*
X142473680Y-121599960D03*
D13*
X142473680Y-124139960D03*
%TD*%
D12*
%TO.C,Q2*%
X140246100Y-111089440D03*
X141516100Y-109819440D03*
D13*
X141516100Y-112359440D03*
%TD*%
%TO.C,Q3*%
X139694920Y-137581640D03*
D12*
X137154920Y-137581640D03*
X138424920Y-138851640D03*
%TD*%
D14*
%TO.C,R1*%
X162000000Y-143000000D03*
D15*
X162000000Y-158240000D03*
%TD*%
D14*
%TO.C,R2*%
X129438400Y-115818920D03*
D15*
X129438400Y-100578920D03*
%TD*%
D14*
%TO.C,R3*%
X147000000Y-100000000D03*
D15*
X147000000Y-112700000D03*
%TD*%
D14*
%TO.C,R4*%
X129593340Y-122829320D03*
D15*
X129593340Y-135529320D03*
%TD*%
%TO.C,R5*%
X135000000Y-98300000D03*
D14*
X135000000Y-111000000D03*
%TD*%
D15*
%TO.C,R6*%
X147000000Y-124300000D03*
D14*
X147000000Y-137000000D03*
%TD*%
D15*
%TO.C,R7*%
X135000000Y-131240000D03*
D14*
X135000000Y-116000000D03*
%TD*%
D15*
%TO.C,R8*%
X132778500Y-138132820D03*
D14*
X132778500Y-153372820D03*
%TD*%
%TO.C,R9*%
X137772140Y-143090900D03*
D15*
X137772140Y-155790900D03*
%TD*%
D16*
%TO.C,BZ1*%
X146771360Y-152983000D03*
X146771360Y-146483000D03*
%TD*%
D17*
%TO.C,J1*%
X141127480Y-94145100D03*
D18*
X141127480Y-91605100D03*
X143667480Y-94145100D03*
X143667480Y-91605100D03*
X146207480Y-94145100D03*
X146207480Y-91605100D03*
%TD*%
D19*
%TO.C,D13*%
X156486860Y-157688280D03*
D20*
X156486860Y-144988280D03*
%TD*%
D21*
%TO.C,H1*%
X128287780Y-156136340D03*
%TD*%
%TO.C,H2*%
X127713740Y-146799300D03*
%TD*%
%TO.C,H3*%
X128399540Y-91521280D03*
%TD*%
%TO.C,H4*%
X161846260Y-91188540D03*
%TD*%
M02*
