%TF.GenerationSoftware,KiCad,Pcbnew,(5.1.0)-1*%
%TF.CreationDate,2021-11-19T17:00:51+02:00*%
%TF.ProjectId,25-station-led-alarm,32352d73-7461-4746-996f-6e2d6c65642d,rev?*%
%TF.SameCoordinates,Original*%
%TF.FileFunction,Legend,Top*%
%TF.FilePolarity,Positive*%
%FSLAX46Y46*%
G04 Gerber Fmt 4.6, Leading zero omitted, Abs format (unit mm)*
G04 Created by KiCad (PCBNEW (5.1.0)-1) date 2021-11-19 17:00:51*
%MOMM*%
%LPD*%
G04 APERTURE LIST*
%ADD10C,0.120000*%
%ADD11C,0.150000*%
G04 APERTURE END LIST*
D10*
%TO.C,D1*%
X94815220Y-108557560D02*
X94815220Y-108713560D01*
X94815220Y-106241560D02*
X94815220Y-106397560D01*
X98047555Y-106398952D02*
G75*
G03X94815220Y-106242044I-1672335J-1078608D01*
G01*
X98047555Y-108556168D02*
G75*
G02X94815220Y-108713076I-1672335J1078608D01*
G01*
X97416350Y-106397723D02*
G75*
G03X95334259Y-106397560I-1041130J-1079837D01*
G01*
X97416350Y-108557397D02*
G75*
G02X95334259Y-108557560I-1041130J1079837D01*
G01*
%TO.C,J1*%
X60922860Y-154009400D02*
X63582860Y-154009400D01*
X60922860Y-146329400D02*
X60922860Y-154009400D01*
X63582860Y-146329400D02*
X63582860Y-154009400D01*
X60922860Y-146329400D02*
X63582860Y-146329400D01*
X60922860Y-145059400D02*
X60922860Y-143729400D01*
X60922860Y-143729400D02*
X62252860Y-143729400D01*
%TO.C,J2*%
X63443160Y-132901380D02*
X60783160Y-132901380D01*
X63443160Y-138041380D02*
X63443160Y-132901380D01*
X60783160Y-138041380D02*
X60783160Y-132901380D01*
X63443160Y-138041380D02*
X60783160Y-138041380D01*
X63443160Y-139311380D02*
X63443160Y-140641380D01*
X63443160Y-140641380D02*
X62113160Y-140641380D01*
%TO.C,J3*%
X63496500Y-125294080D02*
X60836500Y-125294080D01*
X63496500Y-127894080D02*
X63496500Y-125294080D01*
X60836500Y-127894080D02*
X60836500Y-125294080D01*
X63496500Y-127894080D02*
X60836500Y-127894080D01*
X63496500Y-129164080D02*
X63496500Y-130494080D01*
X63496500Y-130494080D02*
X62166500Y-130494080D01*
%TO.C,J4*%
X63504120Y-122173040D02*
X62174120Y-122173040D01*
X63504120Y-120843040D02*
X63504120Y-122173040D01*
X63504120Y-119573040D02*
X60844120Y-119573040D01*
X60844120Y-119573040D02*
X60844120Y-116973040D01*
X63504120Y-119573040D02*
X63504120Y-116973040D01*
X63504120Y-116973040D02*
X60844120Y-116973040D01*
%TO.C,Q3*%
X75020958Y-135277378D02*
G75*
G03X73182480Y-130838900I-1838478J1838478D01*
G01*
X71344002Y-135277378D02*
G75*
G02X73182480Y-130838900I1838478J1838478D01*
G01*
X71382480Y-135288900D02*
X74982480Y-135288900D01*
%TO.C,Q4*%
X72615200Y-143128120D02*
X69015200Y-143128120D01*
X72653678Y-143139642D02*
G75*
G02X70815200Y-147578120I-1838478J-1838478D01*
G01*
X68976722Y-143139642D02*
G75*
G03X70815200Y-147578120I1838478J-1838478D01*
G01*
%TO.C,D2*%
X92296995Y-106404032D02*
G75*
G03X89064660Y-106247124I-1672335J-1078608D01*
G01*
X92296995Y-108561248D02*
G75*
G02X89064660Y-108718156I-1672335J1078608D01*
G01*
X91665790Y-106402803D02*
G75*
G03X89583699Y-106402640I-1041130J-1079837D01*
G01*
X91665790Y-108562477D02*
G75*
G02X89583699Y-108562640I-1041130J1079837D01*
G01*
X89064660Y-106246640D02*
X89064660Y-106402640D01*
X89064660Y-108562640D02*
X89064660Y-108718640D01*
%TO.C,D3*%
X94916820Y-115377460D02*
X94916820Y-115533460D01*
X94916820Y-113061460D02*
X94916820Y-113217460D01*
X97517950Y-115377297D02*
G75*
G02X95435859Y-115377460I-1041130J1079837D01*
G01*
X97517950Y-113217623D02*
G75*
G03X95435859Y-113217460I-1041130J-1079837D01*
G01*
X98149155Y-115376068D02*
G75*
G02X94916820Y-115532976I-1672335J1078608D01*
G01*
X98149155Y-113218852D02*
G75*
G03X94916820Y-113061944I-1672335J-1078608D01*
G01*
%TO.C,D4*%
X98451415Y-120053992D02*
G75*
G03X95219080Y-119897084I-1672335J-1078608D01*
G01*
X98451415Y-122211208D02*
G75*
G02X95219080Y-122368116I-1672335J1078608D01*
G01*
X97820210Y-120052763D02*
G75*
G03X95738119Y-120052600I-1041130J-1079837D01*
G01*
X97820210Y-122212437D02*
G75*
G02X95738119Y-122212600I-1041130J1079837D01*
G01*
X95219080Y-119896600D02*
X95219080Y-120052600D01*
X95219080Y-122212600D02*
X95219080Y-122368600D01*
%TO.C,D5*%
X94018469Y-129955561D02*
X94018469Y-133045561D01*
X99078469Y-131500561D02*
G75*
G03X99078469Y-131500561I-2500000J0D01*
G01*
X99568469Y-131500099D02*
G75*
G02X94018469Y-133045391I-2990000J-462D01*
G01*
X99568469Y-131501023D02*
G75*
G03X94018469Y-129955731I-2990000J462D01*
G01*
%TO.C,D6*%
X99233140Y-148722542D02*
G75*
G03X93683140Y-147177250I-2990000J462D01*
G01*
X99233140Y-148721618D02*
G75*
G02X93683140Y-150266910I-2990000J-462D01*
G01*
X98743140Y-148722080D02*
G75*
G03X98743140Y-148722080I-2500000J0D01*
G01*
X93683140Y-147177080D02*
X93683140Y-150267080D01*
%TO.C,D7*%
X93708540Y-138335340D02*
X93708540Y-141425340D01*
X98768540Y-139880340D02*
G75*
G03X98768540Y-139880340I-2500000J0D01*
G01*
X99258540Y-139879878D02*
G75*
G02X93708540Y-141425170I-2990000J-462D01*
G01*
X99258540Y-139880802D02*
G75*
G03X93708540Y-138335510I-2990000J462D01*
G01*
%TO.C,D8*%
X92121140Y-131521662D02*
G75*
G03X86571140Y-129976370I-2990000J462D01*
G01*
X92121140Y-131520738D02*
G75*
G02X86571140Y-133066030I-2990000J-462D01*
G01*
X91631140Y-131521200D02*
G75*
G03X91631140Y-131521200I-2500000J0D01*
G01*
X86571140Y-129976200D02*
X86571140Y-133066200D01*
%TO.C,D9*%
X92441775Y-113234092D02*
G75*
G03X89209440Y-113077184I-1672335J-1078608D01*
G01*
X92441775Y-115391308D02*
G75*
G02X89209440Y-115548216I-1672335J1078608D01*
G01*
X91810570Y-113232863D02*
G75*
G03X89728479Y-113232700I-1041130J-1079837D01*
G01*
X91810570Y-115392537D02*
G75*
G02X89728479Y-115392700I-1041130J1079837D01*
G01*
X89209440Y-113076700D02*
X89209440Y-113232700D01*
X89209440Y-115392700D02*
X89209440Y-115548700D01*
%TO.C,D10*%
X89465980Y-122133860D02*
X89465980Y-122289860D01*
X89465980Y-119817860D02*
X89465980Y-119973860D01*
X92067110Y-122133697D02*
G75*
G02X89985019Y-122133860I-1041130J1079837D01*
G01*
X92067110Y-119974023D02*
G75*
G03X89985019Y-119973860I-1041130J-1079837D01*
G01*
X92698315Y-122132468D02*
G75*
G02X89465980Y-122289376I-1672335J1078608D01*
G01*
X92698315Y-119975252D02*
G75*
G03X89465980Y-119818344I-1672335J-1078608D01*
G01*
%TO.C,D11*%
X86294280Y-147268520D02*
X86294280Y-150358520D01*
X91354280Y-148813520D02*
G75*
G03X91354280Y-148813520I-2500000J0D01*
G01*
X91844280Y-148813058D02*
G75*
G02X86294280Y-150358350I-2990000J-462D01*
G01*
X91844280Y-148813982D02*
G75*
G03X86294280Y-147268690I-2990000J462D01*
G01*
%TO.C,D12*%
X92042400Y-139802062D02*
G75*
G03X86492400Y-138256770I-2990000J462D01*
G01*
X92042400Y-139801138D02*
G75*
G02X86492400Y-141346430I-2990000J-462D01*
G01*
X91552400Y-139801600D02*
G75*
G03X91552400Y-139801600I-2500000J0D01*
G01*
X86492400Y-138256600D02*
X86492400Y-141346600D01*
%TO.C,D13*%
X66052940Y-126129560D02*
X69892940Y-126129560D01*
X69892940Y-126129560D02*
X69892940Y-118289560D01*
X69892940Y-118289560D02*
X66052940Y-118289560D01*
X66052940Y-118289560D02*
X66052940Y-126129560D01*
X67972940Y-127119560D02*
X67972940Y-126129560D01*
X67972940Y-117299560D02*
X67972940Y-118289560D01*
X66052940Y-124869560D02*
X69892940Y-124869560D01*
X66052940Y-124749560D02*
X69892940Y-124749560D01*
X66052940Y-124989560D02*
X69892940Y-124989560D01*
%TO.C,Q1*%
X80936240Y-103272980D02*
X77336240Y-103272980D01*
X80974718Y-103284502D02*
G75*
G02X79136240Y-107722980I-1838478J-1838478D01*
G01*
X77297762Y-103284502D02*
G75*
G03X79136240Y-107722980I1838478J-1838478D01*
G01*
%TO.C,Q2*%
X76230962Y-144450282D02*
G75*
G03X78069440Y-148888760I1838478J-1838478D01*
G01*
X79907918Y-144450282D02*
G75*
G02X78069440Y-148888760I-1838478J-1838478D01*
G01*
X79869440Y-144438760D02*
X76269440Y-144438760D01*
%TO.C,R2*%
X72265280Y-113317440D02*
X72265280Y-109877440D01*
X72265280Y-109877440D02*
X63025280Y-109877440D01*
X63025280Y-109877440D02*
X63025280Y-113317440D01*
X63025280Y-113317440D02*
X72265280Y-113317440D01*
X74225280Y-111597440D02*
X72265280Y-111597440D01*
X61065280Y-111597440D02*
X63025280Y-111597440D01*
%TO.C,R3*%
X82641860Y-130909320D02*
X79201860Y-130909320D01*
X79201860Y-130909320D02*
X79201860Y-140149320D01*
X79201860Y-140149320D02*
X82641860Y-140149320D01*
X82641860Y-140149320D02*
X82641860Y-130909320D01*
X80921860Y-130219320D02*
X80921860Y-130909320D01*
X80921860Y-140839320D02*
X80921860Y-140149320D01*
%TO.C,R4*%
X81224540Y-113319820D02*
X77784540Y-113319820D01*
X77784540Y-113319820D02*
X77784540Y-122559820D01*
X77784540Y-122559820D02*
X81224540Y-122559820D01*
X81224540Y-122559820D02*
X81224540Y-113319820D01*
X79504540Y-112629820D02*
X79504540Y-113319820D01*
X79504540Y-123249820D02*
X79504540Y-122559820D01*
%TO.C,R5*%
X67986780Y-152115520D02*
X68676780Y-152115520D01*
X78606780Y-152115520D02*
X77916780Y-152115520D01*
X68676780Y-153835520D02*
X77916780Y-153835520D01*
X68676780Y-150395520D02*
X68676780Y-153835520D01*
X77916780Y-150395520D02*
X68676780Y-150395520D01*
X77916780Y-153835520D02*
X77916780Y-150395520D01*
%TO.C,R6*%
X84940140Y-108789340D02*
X84940140Y-109479340D01*
X84940140Y-119409340D02*
X84940140Y-118719340D01*
X83220140Y-109479340D02*
X83220140Y-118719340D01*
X86660140Y-109479340D02*
X83220140Y-109479340D01*
X86660140Y-118719340D02*
X86660140Y-109479340D01*
X83220140Y-118719340D02*
X86660140Y-118719340D01*
%TO.C,R7*%
X73798560Y-104993440D02*
X71838560Y-104993440D01*
X60638560Y-104993440D02*
X62598560Y-104993440D01*
X71838560Y-103273440D02*
X62598560Y-103273440D01*
X71838560Y-106713440D02*
X71838560Y-103273440D01*
X62598560Y-106713440D02*
X71838560Y-106713440D01*
X62598560Y-103273440D02*
X62598560Y-106713440D01*
%TO.C,C3*%
X68070680Y-137493860D02*
X77310680Y-137493860D01*
X68070680Y-140935860D02*
X77310680Y-140935860D01*
X68070680Y-137493860D02*
X68070680Y-138549860D01*
X68070680Y-139879860D02*
X68070680Y-140935860D01*
X77310680Y-137493860D02*
X77310680Y-138549860D01*
X77310680Y-139879860D02*
X77310680Y-140935860D01*
%TO.C,D1*%
D11*
X95637124Y-104969940D02*
X95637124Y-103969940D01*
X95875220Y-103969940D01*
X96018077Y-104017560D01*
X96113315Y-104112798D01*
X96160934Y-104208036D01*
X96208553Y-104398512D01*
X96208553Y-104541369D01*
X96160934Y-104731845D01*
X96113315Y-104827083D01*
X96018077Y-104922321D01*
X95875220Y-104969940D01*
X95637124Y-104969940D01*
X97160934Y-104969940D02*
X96589505Y-104969940D01*
X96875220Y-104969940D02*
X96875220Y-103969940D01*
X96779981Y-104112798D01*
X96684743Y-104208036D01*
X96589505Y-104255655D01*
%TO.C,J1*%
X61919526Y-142181780D02*
X61919526Y-142896066D01*
X61871907Y-143038923D01*
X61776669Y-143134161D01*
X61633812Y-143181780D01*
X61538574Y-143181780D01*
X62919526Y-143181780D02*
X62348098Y-143181780D01*
X62633812Y-143181780D02*
X62633812Y-142181780D01*
X62538574Y-142324638D01*
X62443336Y-142419876D01*
X62348098Y-142467495D01*
%TO.C,J2*%
X61779826Y-141093760D02*
X61779826Y-141808046D01*
X61732207Y-141950903D01*
X61636969Y-142046141D01*
X61494112Y-142093760D01*
X61398874Y-142093760D01*
X62208398Y-141188999D02*
X62256017Y-141141380D01*
X62351255Y-141093760D01*
X62589350Y-141093760D01*
X62684588Y-141141380D01*
X62732207Y-141188999D01*
X62779826Y-141284237D01*
X62779826Y-141379475D01*
X62732207Y-141522332D01*
X62160779Y-142093760D01*
X62779826Y-142093760D01*
%TO.C,J3*%
X61833166Y-130946460D02*
X61833166Y-131660746D01*
X61785547Y-131803603D01*
X61690309Y-131898841D01*
X61547452Y-131946460D01*
X61452214Y-131946460D01*
X62214119Y-130946460D02*
X62833166Y-130946460D01*
X62499833Y-131327413D01*
X62642690Y-131327413D01*
X62737928Y-131375032D01*
X62785547Y-131422651D01*
X62833166Y-131517889D01*
X62833166Y-131755984D01*
X62785547Y-131851222D01*
X62737928Y-131898841D01*
X62642690Y-131946460D01*
X62356976Y-131946460D01*
X62261738Y-131898841D01*
X62214119Y-131851222D01*
%TO.C,J4*%
X61840786Y-122625420D02*
X61840786Y-123339706D01*
X61793167Y-123482563D01*
X61697929Y-123577801D01*
X61555072Y-123625420D01*
X61459834Y-123625420D01*
X62745548Y-122958754D02*
X62745548Y-123625420D01*
X62507453Y-122577801D02*
X62269358Y-123292087D01*
X62888405Y-123292087D01*
%TO.C,Q3*%
X73087241Y-130426519D02*
X72992003Y-130378900D01*
X72896765Y-130283661D01*
X72753908Y-130140804D01*
X72658670Y-130093185D01*
X72563432Y-130093185D01*
X72611051Y-130331280D02*
X72515813Y-130283661D01*
X72420575Y-130188423D01*
X72372956Y-129997947D01*
X72372956Y-129664614D01*
X72420575Y-129474138D01*
X72515813Y-129378900D01*
X72611051Y-129331280D01*
X72801527Y-129331280D01*
X72896765Y-129378900D01*
X72992003Y-129474138D01*
X73039622Y-129664614D01*
X73039622Y-129997947D01*
X72992003Y-130188423D01*
X72896765Y-130283661D01*
X72801527Y-130331280D01*
X72611051Y-130331280D01*
X73372956Y-129331280D02*
X73992003Y-129331280D01*
X73658670Y-129712233D01*
X73801527Y-129712233D01*
X73896765Y-129759852D01*
X73944384Y-129807471D01*
X73992003Y-129902709D01*
X73992003Y-130140804D01*
X73944384Y-130236042D01*
X73896765Y-130283661D01*
X73801527Y-130331280D01*
X73515813Y-130331280D01*
X73420575Y-130283661D01*
X73372956Y-130236042D01*
%TO.C,Q4*%
X70719961Y-149085739D02*
X70624723Y-149038120D01*
X70529485Y-148942881D01*
X70386628Y-148800024D01*
X70291390Y-148752405D01*
X70196152Y-148752405D01*
X70243771Y-148990500D02*
X70148533Y-148942881D01*
X70053295Y-148847643D01*
X70005676Y-148657167D01*
X70005676Y-148323834D01*
X70053295Y-148133358D01*
X70148533Y-148038120D01*
X70243771Y-147990500D01*
X70434247Y-147990500D01*
X70529485Y-148038120D01*
X70624723Y-148133358D01*
X70672342Y-148323834D01*
X70672342Y-148657167D01*
X70624723Y-148847643D01*
X70529485Y-148942881D01*
X70434247Y-148990500D01*
X70243771Y-148990500D01*
X71529485Y-148323834D02*
X71529485Y-148990500D01*
X71291390Y-147942881D02*
X71053295Y-148657167D01*
X71672342Y-148657167D01*
%TO.C,D2*%
X89886564Y-104975020D02*
X89886564Y-103975020D01*
X90124660Y-103975020D01*
X90267517Y-104022640D01*
X90362755Y-104117878D01*
X90410374Y-104213116D01*
X90457993Y-104403592D01*
X90457993Y-104546449D01*
X90410374Y-104736925D01*
X90362755Y-104832163D01*
X90267517Y-104927401D01*
X90124660Y-104975020D01*
X89886564Y-104975020D01*
X90838945Y-104070259D02*
X90886564Y-104022640D01*
X90981802Y-103975020D01*
X91219898Y-103975020D01*
X91315136Y-104022640D01*
X91362755Y-104070259D01*
X91410374Y-104165497D01*
X91410374Y-104260735D01*
X91362755Y-104403592D01*
X90791326Y-104975020D01*
X91410374Y-104975020D01*
%TO.C,D3*%
X95738724Y-111789840D02*
X95738724Y-110789840D01*
X95976820Y-110789840D01*
X96119677Y-110837460D01*
X96214915Y-110932698D01*
X96262534Y-111027936D01*
X96310153Y-111218412D01*
X96310153Y-111361269D01*
X96262534Y-111551745D01*
X96214915Y-111646983D01*
X96119677Y-111742221D01*
X95976820Y-111789840D01*
X95738724Y-111789840D01*
X96643486Y-110789840D02*
X97262534Y-110789840D01*
X96929200Y-111170793D01*
X97072058Y-111170793D01*
X97167296Y-111218412D01*
X97214915Y-111266031D01*
X97262534Y-111361269D01*
X97262534Y-111599364D01*
X97214915Y-111694602D01*
X97167296Y-111742221D01*
X97072058Y-111789840D01*
X96786343Y-111789840D01*
X96691105Y-111742221D01*
X96643486Y-111694602D01*
%TO.C,D4*%
X96040984Y-118624980D02*
X96040984Y-117624980D01*
X96279080Y-117624980D01*
X96421937Y-117672600D01*
X96517175Y-117767838D01*
X96564794Y-117863076D01*
X96612413Y-118053552D01*
X96612413Y-118196409D01*
X96564794Y-118386885D01*
X96517175Y-118482123D01*
X96421937Y-118577361D01*
X96279080Y-118624980D01*
X96040984Y-118624980D01*
X97469556Y-117958314D02*
X97469556Y-118624980D01*
X97231460Y-117577361D02*
X96993365Y-118291647D01*
X97612413Y-118291647D01*
%TO.C,D5*%
X95840373Y-127992941D02*
X95840373Y-126992941D01*
X96078469Y-126992941D01*
X96221326Y-127040561D01*
X96316564Y-127135799D01*
X96364183Y-127231037D01*
X96411802Y-127421513D01*
X96411802Y-127564370D01*
X96364183Y-127754846D01*
X96316564Y-127850084D01*
X96221326Y-127945322D01*
X96078469Y-127992941D01*
X95840373Y-127992941D01*
X97316564Y-126992941D02*
X96840373Y-126992941D01*
X96792754Y-127469132D01*
X96840373Y-127421513D01*
X96935611Y-127373894D01*
X97173707Y-127373894D01*
X97268945Y-127421513D01*
X97316564Y-127469132D01*
X97364183Y-127564370D01*
X97364183Y-127802465D01*
X97316564Y-127897703D01*
X97268945Y-127945322D01*
X97173707Y-127992941D01*
X96935611Y-127992941D01*
X96840373Y-127945322D01*
X96792754Y-127897703D01*
%TO.C,D6*%
X95505044Y-145214460D02*
X95505044Y-144214460D01*
X95743140Y-144214460D01*
X95885997Y-144262080D01*
X95981235Y-144357318D01*
X96028854Y-144452556D01*
X96076473Y-144643032D01*
X96076473Y-144785889D01*
X96028854Y-144976365D01*
X95981235Y-145071603D01*
X95885997Y-145166841D01*
X95743140Y-145214460D01*
X95505044Y-145214460D01*
X96933616Y-144214460D02*
X96743140Y-144214460D01*
X96647901Y-144262080D01*
X96600282Y-144309699D01*
X96505044Y-144452556D01*
X96457425Y-144643032D01*
X96457425Y-145023984D01*
X96505044Y-145119222D01*
X96552663Y-145166841D01*
X96647901Y-145214460D01*
X96838378Y-145214460D01*
X96933616Y-145166841D01*
X96981235Y-145119222D01*
X97028854Y-145023984D01*
X97028854Y-144785889D01*
X96981235Y-144690651D01*
X96933616Y-144643032D01*
X96838378Y-144595413D01*
X96647901Y-144595413D01*
X96552663Y-144643032D01*
X96505044Y-144690651D01*
X96457425Y-144785889D01*
%TO.C,D7*%
X95530444Y-136372720D02*
X95530444Y-135372720D01*
X95768540Y-135372720D01*
X95911397Y-135420340D01*
X96006635Y-135515578D01*
X96054254Y-135610816D01*
X96101873Y-135801292D01*
X96101873Y-135944149D01*
X96054254Y-136134625D01*
X96006635Y-136229863D01*
X95911397Y-136325101D01*
X95768540Y-136372720D01*
X95530444Y-136372720D01*
X96435206Y-135372720D02*
X97101873Y-135372720D01*
X96673301Y-136372720D01*
%TO.C,D8*%
X88393044Y-128013580D02*
X88393044Y-127013580D01*
X88631140Y-127013580D01*
X88773997Y-127061200D01*
X88869235Y-127156438D01*
X88916854Y-127251676D01*
X88964473Y-127442152D01*
X88964473Y-127585009D01*
X88916854Y-127775485D01*
X88869235Y-127870723D01*
X88773997Y-127965961D01*
X88631140Y-128013580D01*
X88393044Y-128013580D01*
X89535901Y-127442152D02*
X89440663Y-127394533D01*
X89393044Y-127346914D01*
X89345425Y-127251676D01*
X89345425Y-127204057D01*
X89393044Y-127108819D01*
X89440663Y-127061200D01*
X89535901Y-127013580D01*
X89726378Y-127013580D01*
X89821616Y-127061200D01*
X89869235Y-127108819D01*
X89916854Y-127204057D01*
X89916854Y-127251676D01*
X89869235Y-127346914D01*
X89821616Y-127394533D01*
X89726378Y-127442152D01*
X89535901Y-127442152D01*
X89440663Y-127489771D01*
X89393044Y-127537390D01*
X89345425Y-127632628D01*
X89345425Y-127823104D01*
X89393044Y-127918342D01*
X89440663Y-127965961D01*
X89535901Y-128013580D01*
X89726378Y-128013580D01*
X89821616Y-127965961D01*
X89869235Y-127918342D01*
X89916854Y-127823104D01*
X89916854Y-127632628D01*
X89869235Y-127537390D01*
X89821616Y-127489771D01*
X89726378Y-127442152D01*
%TO.C,D9*%
X90031344Y-111805080D02*
X90031344Y-110805080D01*
X90269440Y-110805080D01*
X90412297Y-110852700D01*
X90507535Y-110947938D01*
X90555154Y-111043176D01*
X90602773Y-111233652D01*
X90602773Y-111376509D01*
X90555154Y-111566985D01*
X90507535Y-111662223D01*
X90412297Y-111757461D01*
X90269440Y-111805080D01*
X90031344Y-111805080D01*
X91078963Y-111805080D02*
X91269440Y-111805080D01*
X91364678Y-111757461D01*
X91412297Y-111709842D01*
X91507535Y-111566985D01*
X91555154Y-111376509D01*
X91555154Y-110995557D01*
X91507535Y-110900319D01*
X91459916Y-110852700D01*
X91364678Y-110805080D01*
X91174201Y-110805080D01*
X91078963Y-110852700D01*
X91031344Y-110900319D01*
X90983725Y-110995557D01*
X90983725Y-111233652D01*
X91031344Y-111328890D01*
X91078963Y-111376509D01*
X91174201Y-111424128D01*
X91364678Y-111424128D01*
X91459916Y-111376509D01*
X91507535Y-111328890D01*
X91555154Y-111233652D01*
%TO.C,D10*%
X89811694Y-118546240D02*
X89811694Y-117546240D01*
X90049789Y-117546240D01*
X90192646Y-117593860D01*
X90287884Y-117689098D01*
X90335503Y-117784336D01*
X90383122Y-117974812D01*
X90383122Y-118117669D01*
X90335503Y-118308145D01*
X90287884Y-118403383D01*
X90192646Y-118498621D01*
X90049789Y-118546240D01*
X89811694Y-118546240D01*
X91335503Y-118546240D02*
X90764075Y-118546240D01*
X91049789Y-118546240D02*
X91049789Y-117546240D01*
X90954551Y-117689098D01*
X90859313Y-117784336D01*
X90764075Y-117831955D01*
X91954551Y-117546240D02*
X92049789Y-117546240D01*
X92145027Y-117593860D01*
X92192646Y-117641479D01*
X92240265Y-117736717D01*
X92287884Y-117927193D01*
X92287884Y-118165288D01*
X92240265Y-118355764D01*
X92192646Y-118451002D01*
X92145027Y-118498621D01*
X92049789Y-118546240D01*
X91954551Y-118546240D01*
X91859313Y-118498621D01*
X91811694Y-118451002D01*
X91764075Y-118355764D01*
X91716456Y-118165288D01*
X91716456Y-117927193D01*
X91764075Y-117736717D01*
X91811694Y-117641479D01*
X91859313Y-117593860D01*
X91954551Y-117546240D01*
%TO.C,D11*%
X87639994Y-145305900D02*
X87639994Y-144305900D01*
X87878089Y-144305900D01*
X88020946Y-144353520D01*
X88116184Y-144448758D01*
X88163803Y-144543996D01*
X88211422Y-144734472D01*
X88211422Y-144877329D01*
X88163803Y-145067805D01*
X88116184Y-145163043D01*
X88020946Y-145258281D01*
X87878089Y-145305900D01*
X87639994Y-145305900D01*
X89163803Y-145305900D02*
X88592375Y-145305900D01*
X88878089Y-145305900D02*
X88878089Y-144305900D01*
X88782851Y-144448758D01*
X88687613Y-144543996D01*
X88592375Y-144591615D01*
X90116184Y-145305900D02*
X89544756Y-145305900D01*
X89830470Y-145305900D02*
X89830470Y-144305900D01*
X89735232Y-144448758D01*
X89639994Y-144543996D01*
X89544756Y-144591615D01*
%TO.C,D12*%
X87838114Y-136293980D02*
X87838114Y-135293980D01*
X88076209Y-135293980D01*
X88219066Y-135341600D01*
X88314304Y-135436838D01*
X88361923Y-135532076D01*
X88409542Y-135722552D01*
X88409542Y-135865409D01*
X88361923Y-136055885D01*
X88314304Y-136151123D01*
X88219066Y-136246361D01*
X88076209Y-136293980D01*
X87838114Y-136293980D01*
X89361923Y-136293980D02*
X88790495Y-136293980D01*
X89076209Y-136293980D02*
X89076209Y-135293980D01*
X88980971Y-135436838D01*
X88885733Y-135532076D01*
X88790495Y-135579695D01*
X89742876Y-135389219D02*
X89790495Y-135341600D01*
X89885733Y-135293980D01*
X90123828Y-135293980D01*
X90219066Y-135341600D01*
X90266685Y-135389219D01*
X90314304Y-135484457D01*
X90314304Y-135579695D01*
X90266685Y-135722552D01*
X89695257Y-136293980D01*
X90314304Y-136293980D01*
%TO.C,D13*%
X65505320Y-123423845D02*
X64505320Y-123423845D01*
X64505320Y-123185750D01*
X64552940Y-123042893D01*
X64648178Y-122947655D01*
X64743416Y-122900036D01*
X64933892Y-122852417D01*
X65076749Y-122852417D01*
X65267225Y-122900036D01*
X65362463Y-122947655D01*
X65457701Y-123042893D01*
X65505320Y-123185750D01*
X65505320Y-123423845D01*
X65505320Y-121900036D02*
X65505320Y-122471464D01*
X65505320Y-122185750D02*
X64505320Y-122185750D01*
X64648178Y-122280988D01*
X64743416Y-122376226D01*
X64791035Y-122471464D01*
X64505320Y-121566702D02*
X64505320Y-120947655D01*
X64886273Y-121280988D01*
X64886273Y-121138131D01*
X64933892Y-121042893D01*
X64981511Y-120995274D01*
X65076749Y-120947655D01*
X65314844Y-120947655D01*
X65410082Y-120995274D01*
X65457701Y-121042893D01*
X65505320Y-121138131D01*
X65505320Y-121423845D01*
X65457701Y-121519083D01*
X65410082Y-121566702D01*
X66225320Y-128821464D02*
X65225320Y-128821464D01*
X66225320Y-128250036D02*
X65653892Y-128678607D01*
X65225320Y-128250036D02*
X65796749Y-128821464D01*
%TO.C,Q1*%
X79041001Y-109230599D02*
X78945763Y-109182980D01*
X78850525Y-109087741D01*
X78707668Y-108944884D01*
X78612430Y-108897265D01*
X78517192Y-108897265D01*
X78564811Y-109135360D02*
X78469573Y-109087741D01*
X78374335Y-108992503D01*
X78326716Y-108802027D01*
X78326716Y-108468694D01*
X78374335Y-108278218D01*
X78469573Y-108182980D01*
X78564811Y-108135360D01*
X78755287Y-108135360D01*
X78850525Y-108182980D01*
X78945763Y-108278218D01*
X78993382Y-108468694D01*
X78993382Y-108802027D01*
X78945763Y-108992503D01*
X78850525Y-109087741D01*
X78755287Y-109135360D01*
X78564811Y-109135360D01*
X79945763Y-109135360D02*
X79374335Y-109135360D01*
X79660049Y-109135360D02*
X79660049Y-108135360D01*
X79564811Y-108278218D01*
X79469573Y-108373456D01*
X79374335Y-108421075D01*
%TO.C,Q2*%
X77974201Y-150396379D02*
X77878963Y-150348760D01*
X77783725Y-150253521D01*
X77640868Y-150110664D01*
X77545630Y-150063045D01*
X77450392Y-150063045D01*
X77498011Y-150301140D02*
X77402773Y-150253521D01*
X77307535Y-150158283D01*
X77259916Y-149967807D01*
X77259916Y-149634474D01*
X77307535Y-149443998D01*
X77402773Y-149348760D01*
X77498011Y-149301140D01*
X77688487Y-149301140D01*
X77783725Y-149348760D01*
X77878963Y-149443998D01*
X77926582Y-149634474D01*
X77926582Y-149967807D01*
X77878963Y-150158283D01*
X77783725Y-150253521D01*
X77688487Y-150301140D01*
X77498011Y-150301140D01*
X78307535Y-149396379D02*
X78355154Y-149348760D01*
X78450392Y-149301140D01*
X78688487Y-149301140D01*
X78783725Y-149348760D01*
X78831344Y-149396379D01*
X78878963Y-149491617D01*
X78878963Y-149586855D01*
X78831344Y-149729712D01*
X78259916Y-150301140D01*
X78878963Y-150301140D01*
%TO.C,R2*%
X67478613Y-114769820D02*
X67145280Y-114293630D01*
X66907184Y-114769820D02*
X66907184Y-113769820D01*
X67288137Y-113769820D01*
X67383375Y-113817440D01*
X67430994Y-113865059D01*
X67478613Y-113960297D01*
X67478613Y-114103154D01*
X67430994Y-114198392D01*
X67383375Y-114246011D01*
X67288137Y-114293630D01*
X66907184Y-114293630D01*
X67859565Y-113865059D02*
X67907184Y-113817440D01*
X68002422Y-113769820D01*
X68240518Y-113769820D01*
X68335756Y-113817440D01*
X68383375Y-113865059D01*
X68430994Y-113960297D01*
X68430994Y-114055535D01*
X68383375Y-114198392D01*
X67811946Y-114769820D01*
X68430994Y-114769820D01*
%TO.C,R3*%
X84094240Y-135695986D02*
X83618050Y-136029320D01*
X84094240Y-136267415D02*
X83094240Y-136267415D01*
X83094240Y-135886462D01*
X83141860Y-135791224D01*
X83189479Y-135743605D01*
X83284717Y-135695986D01*
X83427574Y-135695986D01*
X83522812Y-135743605D01*
X83570431Y-135791224D01*
X83618050Y-135886462D01*
X83618050Y-136267415D01*
X83094240Y-135362653D02*
X83094240Y-134743605D01*
X83475193Y-135076939D01*
X83475193Y-134934081D01*
X83522812Y-134838843D01*
X83570431Y-134791224D01*
X83665669Y-134743605D01*
X83903764Y-134743605D01*
X83999002Y-134791224D01*
X84046621Y-134838843D01*
X84094240Y-134934081D01*
X84094240Y-135219796D01*
X84046621Y-135315034D01*
X83999002Y-135362653D01*
%TO.C,R4*%
X82676920Y-118106486D02*
X82200730Y-118439820D01*
X82676920Y-118677915D02*
X81676920Y-118677915D01*
X81676920Y-118296962D01*
X81724540Y-118201724D01*
X81772159Y-118154105D01*
X81867397Y-118106486D01*
X82010254Y-118106486D01*
X82105492Y-118154105D01*
X82153111Y-118201724D01*
X82200730Y-118296962D01*
X82200730Y-118677915D01*
X82010254Y-117249343D02*
X82676920Y-117249343D01*
X81629301Y-117487439D02*
X82343587Y-117725534D01*
X82343587Y-117106486D01*
%TO.C,R5*%
X73130113Y-155287900D02*
X72796780Y-154811710D01*
X72558684Y-155287900D02*
X72558684Y-154287900D01*
X72939637Y-154287900D01*
X73034875Y-154335520D01*
X73082494Y-154383139D01*
X73130113Y-154478377D01*
X73130113Y-154621234D01*
X73082494Y-154716472D01*
X73034875Y-154764091D01*
X72939637Y-154811710D01*
X72558684Y-154811710D01*
X74034875Y-154287900D02*
X73558684Y-154287900D01*
X73511065Y-154764091D01*
X73558684Y-154716472D01*
X73653922Y-154668853D01*
X73892018Y-154668853D01*
X73987256Y-154716472D01*
X74034875Y-154764091D01*
X74082494Y-154859329D01*
X74082494Y-155097424D01*
X74034875Y-155192662D01*
X73987256Y-155240281D01*
X73892018Y-155287900D01*
X73653922Y-155287900D01*
X73558684Y-155240281D01*
X73511065Y-155192662D01*
%TO.C,R6*%
X82672520Y-114266006D02*
X82196330Y-114599340D01*
X82672520Y-114837435D02*
X81672520Y-114837435D01*
X81672520Y-114456482D01*
X81720140Y-114361244D01*
X81767759Y-114313625D01*
X81862997Y-114266006D01*
X82005854Y-114266006D01*
X82101092Y-114313625D01*
X82148711Y-114361244D01*
X82196330Y-114456482D01*
X82196330Y-114837435D01*
X81672520Y-113408863D02*
X81672520Y-113599340D01*
X81720140Y-113694578D01*
X81767759Y-113742197D01*
X81910616Y-113837435D01*
X82101092Y-113885054D01*
X82482044Y-113885054D01*
X82577282Y-113837435D01*
X82624901Y-113789816D01*
X82672520Y-113694578D01*
X82672520Y-113504101D01*
X82624901Y-113408863D01*
X82577282Y-113361244D01*
X82482044Y-113313625D01*
X82243949Y-113313625D01*
X82148711Y-113361244D01*
X82101092Y-113408863D01*
X82053473Y-113504101D01*
X82053473Y-113694578D01*
X82101092Y-113789816D01*
X82148711Y-113837435D01*
X82243949Y-113885054D01*
%TO.C,R7*%
X67051893Y-102725820D02*
X66718560Y-102249630D01*
X66480464Y-102725820D02*
X66480464Y-101725820D01*
X66861417Y-101725820D01*
X66956655Y-101773440D01*
X67004274Y-101821059D01*
X67051893Y-101916297D01*
X67051893Y-102059154D01*
X67004274Y-102154392D01*
X66956655Y-102202011D01*
X66861417Y-102249630D01*
X66480464Y-102249630D01*
X67385226Y-101725820D02*
X68051893Y-101725820D01*
X67623321Y-102725820D01*
%TO.C,C3*%
X72524013Y-136722002D02*
X72476394Y-136769621D01*
X72333537Y-136817240D01*
X72238299Y-136817240D01*
X72095441Y-136769621D01*
X72000203Y-136674383D01*
X71952584Y-136579145D01*
X71904965Y-136388669D01*
X71904965Y-136245812D01*
X71952584Y-136055336D01*
X72000203Y-135960098D01*
X72095441Y-135864860D01*
X72238299Y-135817240D01*
X72333537Y-135817240D01*
X72476394Y-135864860D01*
X72524013Y-135912479D01*
X72857346Y-135817240D02*
X73476394Y-135817240D01*
X73143060Y-136198193D01*
X73285918Y-136198193D01*
X73381156Y-136245812D01*
X73428775Y-136293431D01*
X73476394Y-136388669D01*
X73476394Y-136626764D01*
X73428775Y-136722002D01*
X73381156Y-136769621D01*
X73285918Y-136817240D01*
X73000203Y-136817240D01*
X72904965Y-136769621D01*
X72857346Y-136722002D01*
%TD*%
M02*
