%TF.GenerationSoftware,KiCad,Pcbnew,(5.1.0)-1*%
%TF.CreationDate,2021-11-19T17:00:51+02:00*%
%TF.ProjectId,25-station-led-alarm,32352d73-7461-4746-996f-6e2d6c65642d,rev?*%
%TF.SameCoordinates,Original*%
%TF.FileFunction,Copper,L1,Top*%
%TF.FilePolarity,Positive*%
%FSLAX46Y46*%
G04 Gerber Fmt 4.6, Leading zero omitted, Abs format (unit mm)*
G04 Created by KiCad (PCBNEW (5.1.0)-1) date 2021-11-19 17:00:51*
%MOMM*%
%LPD*%
G04 APERTURE LIST*
%TA.AperFunction,ComponentPad*%
%ADD10R,1.800000X1.800000*%
%TD*%
%TA.AperFunction,ComponentPad*%
%ADD11C,1.800000*%
%TD*%
%TA.AperFunction,ComponentPad*%
%ADD12R,1.700000X1.700000*%
%TD*%
%TA.AperFunction,ComponentPad*%
%ADD13O,1.700000X1.700000*%
%TD*%
%TA.AperFunction,ComponentPad*%
%ADD14R,1.300000X1.300000*%
%TD*%
%TA.AperFunction,ComponentPad*%
%ADD15C,1.300000*%
%TD*%
%TA.AperFunction,ComponentPad*%
%ADD16R,2.400000X2.400000*%
%TD*%
%TA.AperFunction,ComponentPad*%
%ADD17O,2.400000X2.400000*%
%TD*%
%TA.AperFunction,ComponentPad*%
%ADD18C,1.600000*%
%TD*%
%TA.AperFunction,ComponentPad*%
%ADD19O,1.600000X1.600000*%
%TD*%
%TA.AperFunction,Conductor*%
%ADD20C,1.000000*%
%TD*%
%TA.AperFunction,Conductor*%
%ADD21C,0.254000*%
%TD*%
G04 APERTURE END LIST*
D10*
%TO.P,D1,1*%
%TO.N,Net-(D1-Pad1)*%
X95105220Y-107477560D03*
D11*
%TO.P,D1,2*%
%TO.N,+5V*%
X97645220Y-107477560D03*
%TD*%
D12*
%TO.P,J1,1*%
%TO.N,GND*%
X62252860Y-145059400D03*
D13*
%TO.P,J1,2*%
%TO.N,/P2*%
X62252860Y-147599400D03*
%TO.P,J1,3*%
%TO.N,/P1*%
X62252860Y-150139400D03*
%TO.P,J1,4*%
%TO.N,N/C*%
X62252860Y-152679400D03*
%TD*%
D12*
%TO.P,J2,1*%
%TO.N,GND*%
X62113160Y-139311380D03*
D13*
%TO.P,J2,2*%
%TO.N,N/C*%
X62113160Y-136771380D03*
%TO.P,J2,3*%
%TO.N,+5V*%
X62113160Y-134231380D03*
%TD*%
D12*
%TO.P,J3,1*%
%TO.N,+5V*%
X62166500Y-129164080D03*
D13*
%TO.P,J3,2*%
%TO.N,Net-(D13-Pad1)*%
X62166500Y-126624080D03*
%TD*%
%TO.P,J4,2*%
%TO.N,Net-(D13-Pad2)*%
X62174120Y-118303040D03*
D12*
%TO.P,J4,1*%
%TO.N,Net-(D13-Pad1)*%
X62174120Y-120843040D03*
%TD*%
D14*
%TO.P,Q3,1*%
%TO.N,Net-(D13-Pad2)*%
X71912480Y-133438900D03*
D15*
%TO.P,Q3,3*%
%TO.N,GND*%
X74452480Y-133438900D03*
%TO.P,Q3,2*%
%TO.N,Net-(Q2-Pad2)*%
X73182480Y-132168900D03*
%TD*%
%TO.P,Q4,2*%
%TO.N,Net-(Q1-Pad2)*%
X70815200Y-146248120D03*
%TO.P,Q4,3*%
%TO.N,GND*%
X69545200Y-144978120D03*
D14*
%TO.P,Q4,1*%
%TO.N,Net-(D13-Pad2)*%
X72085200Y-144978120D03*
%TD*%
D10*
%TO.P,D2,1*%
%TO.N,Net-(D10-Pad1)*%
X89354660Y-107482640D03*
D11*
%TO.P,D2,2*%
%TO.N,Net-(D1-Pad1)*%
X91894660Y-107482640D03*
%TD*%
%TO.P,D3,2*%
%TO.N,+5V*%
X97746820Y-114297460D03*
D10*
%TO.P,D3,1*%
%TO.N,Net-(D3-Pad1)*%
X95206820Y-114297460D03*
%TD*%
%TO.P,D4,1*%
%TO.N,Net-(D10-Pad2)*%
X95509080Y-121132600D03*
D11*
%TO.P,D4,2*%
%TO.N,+5V*%
X98049080Y-121132600D03*
%TD*%
%TO.P,D5,2*%
%TO.N,+5V*%
X97848469Y-131500561D03*
D10*
%TO.P,D5,1*%
%TO.N,Net-(D5-Pad1)*%
X95308469Y-131500561D03*
%TD*%
%TO.P,D6,1*%
%TO.N,Net-(D11-Pad2)*%
X94973140Y-148722080D03*
D11*
%TO.P,D6,2*%
%TO.N,+5V*%
X97513140Y-148722080D03*
%TD*%
%TO.P,D7,2*%
%TO.N,+5V*%
X97538540Y-139880340D03*
D10*
%TO.P,D7,1*%
%TO.N,Net-(D12-Pad2)*%
X94998540Y-139880340D03*
%TD*%
%TO.P,D8,1*%
%TO.N,Net-(D11-Pad1)*%
X87861140Y-131521200D03*
D11*
%TO.P,D8,2*%
%TO.N,Net-(D5-Pad1)*%
X90401140Y-131521200D03*
%TD*%
D10*
%TO.P,D9,1*%
%TO.N,Net-(D10-Pad1)*%
X89499440Y-114312700D03*
D11*
%TO.P,D9,2*%
%TO.N,Net-(D3-Pad1)*%
X92039440Y-114312700D03*
%TD*%
%TO.P,D10,2*%
%TO.N,Net-(D10-Pad2)*%
X92295980Y-121053860D03*
D10*
%TO.P,D10,1*%
%TO.N,Net-(D10-Pad1)*%
X89755980Y-121053860D03*
%TD*%
D11*
%TO.P,D11,2*%
%TO.N,Net-(D11-Pad2)*%
X90124280Y-148813520D03*
D10*
%TO.P,D11,1*%
%TO.N,Net-(D11-Pad1)*%
X87584280Y-148813520D03*
%TD*%
%TO.P,D12,1*%
%TO.N,Net-(D11-Pad1)*%
X87782400Y-139801600D03*
D11*
%TO.P,D12,2*%
%TO.N,Net-(D12-Pad2)*%
X90322400Y-139801600D03*
%TD*%
D16*
%TO.P,D13,1*%
%TO.N,Net-(D13-Pad1)*%
X67972940Y-128559560D03*
D17*
%TO.P,D13,2*%
%TO.N,Net-(D13-Pad2)*%
X67972940Y-115859560D03*
%TD*%
D15*
%TO.P,Q1,2*%
%TO.N,Net-(Q1-Pad2)*%
X79136240Y-106392980D03*
%TO.P,Q1,3*%
%TO.N,GND*%
X77866240Y-105122980D03*
D14*
%TO.P,Q1,1*%
%TO.N,Net-(Q1-Pad1)*%
X80406240Y-105122980D03*
%TD*%
%TO.P,Q2,1*%
%TO.N,Net-(Q2-Pad1)*%
X79339440Y-146288760D03*
D15*
%TO.P,Q2,3*%
%TO.N,GND*%
X76799440Y-146288760D03*
%TO.P,Q2,2*%
%TO.N,Net-(Q2-Pad2)*%
X78069440Y-147558760D03*
%TD*%
D18*
%TO.P,R2,1*%
%TO.N,Net-(Q1-Pad2)*%
X75265280Y-111597440D03*
D19*
%TO.P,R2,2*%
%TO.N,GND*%
X60025280Y-111597440D03*
%TD*%
D18*
%TO.P,R3,1*%
%TO.N,Net-(D11-Pad1)*%
X80921860Y-129179320D03*
D19*
%TO.P,R3,2*%
%TO.N,Net-(Q2-Pad1)*%
X80921860Y-141879320D03*
%TD*%
D18*
%TO.P,R4,1*%
%TO.N,Net-(Q1-Pad2)*%
X79504540Y-111589820D03*
D19*
%TO.P,R4,2*%
%TO.N,/P1*%
X79504540Y-124289820D03*
%TD*%
%TO.P,R5,2*%
%TO.N,/P2*%
X66946780Y-152115520D03*
D18*
%TO.P,R5,1*%
%TO.N,Net-(Q2-Pad2)*%
X79646780Y-152115520D03*
%TD*%
D19*
%TO.P,R6,2*%
%TO.N,Net-(Q1-Pad1)*%
X84940140Y-107749340D03*
D18*
%TO.P,R6,1*%
%TO.N,Net-(D10-Pad1)*%
X84940140Y-120449340D03*
%TD*%
D19*
%TO.P,R7,2*%
%TO.N,GND*%
X74838560Y-104993440D03*
D18*
%TO.P,R7,1*%
%TO.N,Net-(Q2-Pad2)*%
X59598560Y-104993440D03*
%TD*%
%TO.P,C3,1*%
%TO.N,GND*%
X68940680Y-139214860D03*
%TO.P,C3,2*%
%TO.N,+5V*%
X76440680Y-139214860D03*
%TD*%
D20*
%TO.N,Net-(Q2-Pad2)*%
X73804479Y-132088899D02*
X80270359Y-132088899D01*
X73182480Y-132168900D02*
X73724478Y-132168900D01*
X73724478Y-132168900D02*
X73804479Y-132088899D01*
X80270359Y-132088899D02*
X83718400Y-135536940D01*
X83718400Y-148043900D02*
X79646780Y-152115520D01*
X83718400Y-135536940D02*
X83718400Y-148043900D01*
%TO.N,/P1*%
X77619860Y-124289820D02*
X79504540Y-124289820D01*
X66705480Y-135204200D02*
X77619860Y-124289820D01*
X66705480Y-147443339D02*
X66705480Y-135204200D01*
X64027199Y-150121620D02*
X66705480Y-147443339D01*
X62252860Y-150139400D02*
X62270640Y-150121620D01*
X62270640Y-150121620D02*
X64027199Y-150121620D01*
%TO.N,Net-(D13-Pad2)*%
X72085200Y-133611620D02*
X71912480Y-133438900D01*
X72085200Y-144978120D02*
X72085200Y-133611620D01*
%TD*%
D21*
%TO.N,GND*%
G36*
X99834028Y-101986726D02*
G01*
X100022379Y-155354235D01*
X99962475Y-155354680D01*
X99935364Y-155357554D01*
X58626810Y-155340432D01*
X58603277Y-147599400D01*
X60760675Y-147599400D01*
X60789347Y-147890511D01*
X60874261Y-148170434D01*
X61012154Y-148428414D01*
X61197726Y-148654534D01*
X61423846Y-148840106D01*
X61478651Y-148869400D01*
X61423846Y-148898694D01*
X61197726Y-149084266D01*
X61012154Y-149310386D01*
X60874261Y-149568366D01*
X60789347Y-149848289D01*
X60760675Y-150139400D01*
X60789347Y-150430511D01*
X60874261Y-150710434D01*
X61012154Y-150968414D01*
X61197726Y-151194534D01*
X61423846Y-151380106D01*
X61478651Y-151409400D01*
X61423846Y-151438694D01*
X61197726Y-151624266D01*
X61012154Y-151850386D01*
X60874261Y-152108366D01*
X60789347Y-152388289D01*
X60760675Y-152679400D01*
X60789347Y-152970511D01*
X60874261Y-153250434D01*
X61012154Y-153508414D01*
X61197726Y-153734534D01*
X61423846Y-153920106D01*
X61681826Y-154057999D01*
X61961749Y-154142913D01*
X62179910Y-154164400D01*
X62325810Y-154164400D01*
X62543971Y-154142913D01*
X62823894Y-154057999D01*
X63081874Y-153920106D01*
X63307994Y-153734534D01*
X63493566Y-153508414D01*
X63631459Y-153250434D01*
X63716373Y-152970511D01*
X63745045Y-152679400D01*
X63716373Y-152388289D01*
X63633630Y-152115520D01*
X65504837Y-152115520D01*
X65532544Y-152396829D01*
X65614598Y-152667328D01*
X65747848Y-152916621D01*
X65927172Y-153135128D01*
X66145679Y-153314452D01*
X66394972Y-153447702D01*
X66665471Y-153529756D01*
X66876288Y-153550520D01*
X67017272Y-153550520D01*
X67228089Y-153529756D01*
X67498588Y-153447702D01*
X67747881Y-153314452D01*
X67966388Y-153135128D01*
X68145712Y-152916621D01*
X68278962Y-152667328D01*
X68361016Y-152396829D01*
X68388723Y-152115520D01*
X68361016Y-151834211D01*
X68278962Y-151563712D01*
X68145712Y-151314419D01*
X67966388Y-151095912D01*
X67747881Y-150916588D01*
X67498588Y-150783338D01*
X67228089Y-150701284D01*
X67017272Y-150680520D01*
X66876288Y-150680520D01*
X66665471Y-150701284D01*
X66394972Y-150783338D01*
X66145679Y-150916588D01*
X65927172Y-151095912D01*
X65747848Y-151314419D01*
X65614598Y-151563712D01*
X65532544Y-151834211D01*
X65504837Y-152115520D01*
X63633630Y-152115520D01*
X63631459Y-152108366D01*
X63493566Y-151850386D01*
X63307994Y-151624266D01*
X63081874Y-151438694D01*
X63027069Y-151409400D01*
X63081874Y-151380106D01*
X63232342Y-151256620D01*
X63971448Y-151256620D01*
X64027199Y-151262111D01*
X64082950Y-151256620D01*
X64082951Y-151256620D01*
X64249698Y-151240197D01*
X64463646Y-151175296D01*
X64660822Y-151069904D01*
X64833648Y-150928069D01*
X64869195Y-150884755D01*
X67468621Y-148285330D01*
X67511929Y-148249788D01*
X67653764Y-148076962D01*
X67759156Y-147879786D01*
X67824057Y-147665838D01*
X67840480Y-147499091D01*
X67840480Y-147499082D01*
X67845970Y-147443340D01*
X67840480Y-147387598D01*
X67840480Y-145054575D01*
X68256248Y-145054575D01*
X68295930Y-145304569D01*
X68383622Y-145542016D01*
X68430999Y-145630654D01*
X68659673Y-145684042D01*
X69365595Y-144978120D01*
X68659673Y-144272198D01*
X68430999Y-144325586D01*
X68325105Y-144555494D01*
X68266098Y-144801644D01*
X68256248Y-145054575D01*
X67840480Y-145054575D01*
X67840480Y-144092593D01*
X68839278Y-144092593D01*
X69545200Y-144798515D01*
X70251122Y-144092593D01*
X70197734Y-143863919D01*
X69967826Y-143758025D01*
X69721676Y-143699018D01*
X69468745Y-143689168D01*
X69218751Y-143728850D01*
X68981304Y-143816542D01*
X68892666Y-143863919D01*
X68839278Y-144092593D01*
X67840480Y-144092593D01*
X67840480Y-140207562D01*
X68127583Y-140207562D01*
X68199166Y-140451531D01*
X68454676Y-140572431D01*
X68728864Y-140641160D01*
X69011192Y-140655077D01*
X69290810Y-140613647D01*
X69556972Y-140518463D01*
X69682194Y-140451531D01*
X69753777Y-140207562D01*
X68940680Y-139394465D01*
X68127583Y-140207562D01*
X67840480Y-140207562D01*
X67840480Y-139996416D01*
X67947978Y-140027957D01*
X68761075Y-139214860D01*
X69120285Y-139214860D01*
X69933382Y-140027957D01*
X70177351Y-139956374D01*
X70298251Y-139700864D01*
X70366980Y-139426676D01*
X70380897Y-139144348D01*
X70339467Y-138864730D01*
X70244283Y-138598568D01*
X70177351Y-138473346D01*
X69933382Y-138401763D01*
X69120285Y-139214860D01*
X68761075Y-139214860D01*
X67947978Y-138401763D01*
X67840480Y-138433304D01*
X67840480Y-138222158D01*
X68127583Y-138222158D01*
X68940680Y-139035255D01*
X69753777Y-138222158D01*
X69682194Y-137978189D01*
X69426684Y-137857289D01*
X69152496Y-137788560D01*
X68870168Y-137774643D01*
X68590550Y-137816073D01*
X68324388Y-137911257D01*
X68199166Y-137978189D01*
X68127583Y-138222158D01*
X67840480Y-138222158D01*
X67840480Y-135674331D01*
X70624408Y-132890403D01*
X70624408Y-134088900D01*
X70636668Y-134213382D01*
X70672978Y-134333080D01*
X70731943Y-134443394D01*
X70811295Y-134540085D01*
X70907986Y-134619437D01*
X70950201Y-134642002D01*
X70950200Y-143918139D01*
X70904663Y-143973626D01*
X70845698Y-144083940D01*
X70809388Y-144203638D01*
X70797128Y-144328120D01*
X70797128Y-144668416D01*
X70794470Y-144651671D01*
X70706778Y-144414224D01*
X70659401Y-144325586D01*
X70430727Y-144272198D01*
X69724805Y-144978120D01*
X69738948Y-144992263D01*
X69559343Y-145171868D01*
X69545200Y-145157725D01*
X68839278Y-145863647D01*
X68892666Y-146092321D01*
X69122574Y-146198215D01*
X69368724Y-146257222D01*
X69530200Y-146263510D01*
X69530200Y-146374681D01*
X69579581Y-146622941D01*
X69676447Y-146856796D01*
X69817075Y-147067260D01*
X69996060Y-147246245D01*
X70206524Y-147386873D01*
X70440379Y-147483739D01*
X70688639Y-147533120D01*
X70941761Y-147533120D01*
X71190021Y-147483739D01*
X71423876Y-147386873D01*
X71634340Y-147246245D01*
X71706298Y-147174287D01*
X76093518Y-147174287D01*
X76146906Y-147402961D01*
X76376814Y-147508855D01*
X76622964Y-147567862D01*
X76784440Y-147574150D01*
X76784440Y-147685321D01*
X76833821Y-147933581D01*
X76930687Y-148167436D01*
X77071315Y-148377900D01*
X77250300Y-148556885D01*
X77460764Y-148697513D01*
X77694619Y-148794379D01*
X77942879Y-148843760D01*
X78196001Y-148843760D01*
X78444261Y-148794379D01*
X78678116Y-148697513D01*
X78888580Y-148556885D01*
X79067565Y-148377900D01*
X79208193Y-148167436D01*
X79305059Y-147933581D01*
X79354440Y-147685321D01*
X79354440Y-147576832D01*
X79989440Y-147576832D01*
X80113922Y-147564572D01*
X80233620Y-147528262D01*
X80343934Y-147469297D01*
X80440625Y-147389945D01*
X80519977Y-147293254D01*
X80578942Y-147182940D01*
X80615252Y-147063242D01*
X80627512Y-146938760D01*
X80627512Y-145638760D01*
X80615252Y-145514278D01*
X80578942Y-145394580D01*
X80519977Y-145284266D01*
X80440625Y-145187575D01*
X80343934Y-145108223D01*
X80233620Y-145049258D01*
X80113922Y-145012948D01*
X79989440Y-145000688D01*
X78689440Y-145000688D01*
X78564958Y-145012948D01*
X78445260Y-145049258D01*
X78334946Y-145108223D01*
X78238255Y-145187575D01*
X78158903Y-145284266D01*
X78099938Y-145394580D01*
X78063628Y-145514278D01*
X78051368Y-145638760D01*
X78051368Y-145979056D01*
X78048710Y-145962311D01*
X77961018Y-145724864D01*
X77913641Y-145636226D01*
X77684967Y-145582838D01*
X76979045Y-146288760D01*
X76993188Y-146302903D01*
X76813583Y-146482508D01*
X76799440Y-146468365D01*
X76093518Y-147174287D01*
X71706298Y-147174287D01*
X71813325Y-147067260D01*
X71953953Y-146856796D01*
X72050819Y-146622941D01*
X72100200Y-146374681D01*
X72100200Y-146365215D01*
X75510488Y-146365215D01*
X75550170Y-146615209D01*
X75637862Y-146852656D01*
X75685239Y-146941294D01*
X75913913Y-146994682D01*
X76619835Y-146288760D01*
X75913913Y-145582838D01*
X75685239Y-145636226D01*
X75579345Y-145866134D01*
X75520338Y-146112284D01*
X75510488Y-146365215D01*
X72100200Y-146365215D01*
X72100200Y-146266192D01*
X72735200Y-146266192D01*
X72859682Y-146253932D01*
X72979380Y-146217622D01*
X73089694Y-146158657D01*
X73186385Y-146079305D01*
X73265737Y-145982614D01*
X73324702Y-145872300D01*
X73361012Y-145752602D01*
X73373272Y-145628120D01*
X73373272Y-145403233D01*
X76093518Y-145403233D01*
X76799440Y-146109155D01*
X77505362Y-145403233D01*
X77451974Y-145174559D01*
X77222066Y-145068665D01*
X76975916Y-145009658D01*
X76722985Y-144999808D01*
X76472991Y-145039490D01*
X76235544Y-145127182D01*
X76146906Y-145174559D01*
X76093518Y-145403233D01*
X73373272Y-145403233D01*
X73373272Y-144328120D01*
X73361012Y-144203638D01*
X73324702Y-144083940D01*
X73265737Y-143973626D01*
X73220200Y-143918139D01*
X73220200Y-141879320D01*
X79479917Y-141879320D01*
X79507624Y-142160629D01*
X79589678Y-142431128D01*
X79722928Y-142680421D01*
X79902252Y-142898928D01*
X80120759Y-143078252D01*
X80370052Y-143211502D01*
X80640551Y-143293556D01*
X80851368Y-143314320D01*
X80992352Y-143314320D01*
X81203169Y-143293556D01*
X81473668Y-143211502D01*
X81722961Y-143078252D01*
X81941468Y-142898928D01*
X82120792Y-142680421D01*
X82254042Y-142431128D01*
X82336096Y-142160629D01*
X82363803Y-141879320D01*
X82336096Y-141598011D01*
X82254042Y-141327512D01*
X82120792Y-141078219D01*
X81941468Y-140859712D01*
X81722961Y-140680388D01*
X81473668Y-140547138D01*
X81203169Y-140465084D01*
X80992352Y-140444320D01*
X80851368Y-140444320D01*
X80640551Y-140465084D01*
X80370052Y-140547138D01*
X80120759Y-140680388D01*
X79902252Y-140859712D01*
X79722928Y-141078219D01*
X79589678Y-141327512D01*
X79507624Y-141598011D01*
X79479917Y-141879320D01*
X73220200Y-141879320D01*
X73220200Y-139073525D01*
X75005680Y-139073525D01*
X75005680Y-139356195D01*
X75060827Y-139633434D01*
X75169000Y-139894587D01*
X75326043Y-140129619D01*
X75525921Y-140329497D01*
X75760953Y-140486540D01*
X76022106Y-140594713D01*
X76299345Y-140649860D01*
X76582015Y-140649860D01*
X76859254Y-140594713D01*
X77120407Y-140486540D01*
X77355439Y-140329497D01*
X77555317Y-140129619D01*
X77712360Y-139894587D01*
X77820533Y-139633434D01*
X77875680Y-139356195D01*
X77875680Y-139073525D01*
X77820533Y-138796286D01*
X77712360Y-138535133D01*
X77555317Y-138300101D01*
X77355439Y-138100223D01*
X77120407Y-137943180D01*
X76859254Y-137835007D01*
X76582015Y-137779860D01*
X76299345Y-137779860D01*
X76022106Y-137835007D01*
X75760953Y-137943180D01*
X75525921Y-138100223D01*
X75326043Y-138300101D01*
X75169000Y-138535133D01*
X75060827Y-138796286D01*
X75005680Y-139073525D01*
X73220200Y-139073525D01*
X73220200Y-134324427D01*
X73746558Y-134324427D01*
X73799946Y-134553101D01*
X74029854Y-134658995D01*
X74276004Y-134718002D01*
X74528935Y-134727852D01*
X74778929Y-134688170D01*
X75016376Y-134600478D01*
X75105014Y-134553101D01*
X75158402Y-134324427D01*
X74452480Y-133618505D01*
X73746558Y-134324427D01*
X73220200Y-134324427D01*
X73220200Y-133811353D01*
X73290902Y-134002796D01*
X73338279Y-134091434D01*
X73566953Y-134144822D01*
X74272875Y-133438900D01*
X74258733Y-133424758D01*
X74438338Y-133245153D01*
X74452480Y-133259295D01*
X74466623Y-133245153D01*
X74646228Y-133424758D01*
X74632085Y-133438900D01*
X75338007Y-134144822D01*
X75566681Y-134091434D01*
X75672575Y-133861526D01*
X75731582Y-133615376D01*
X75741432Y-133362445D01*
X75719440Y-133223899D01*
X79800228Y-133223899D01*
X82583400Y-136007072D01*
X82583401Y-147573767D01*
X79469499Y-150687670D01*
X79228206Y-150735667D01*
X78967053Y-150843840D01*
X78732021Y-151000883D01*
X78532143Y-151200761D01*
X78375100Y-151435793D01*
X78266927Y-151696946D01*
X78211780Y-151974185D01*
X78211780Y-152256855D01*
X78266927Y-152534094D01*
X78375100Y-152795247D01*
X78532143Y-153030279D01*
X78732021Y-153230157D01*
X78967053Y-153387200D01*
X79228206Y-153495373D01*
X79505445Y-153550520D01*
X79788115Y-153550520D01*
X80065354Y-153495373D01*
X80326507Y-153387200D01*
X80561539Y-153230157D01*
X80761417Y-153030279D01*
X80918460Y-152795247D01*
X81026633Y-152534094D01*
X81074630Y-152292801D01*
X84481541Y-148885891D01*
X84524849Y-148850349D01*
X84666684Y-148677523D01*
X84772076Y-148480347D01*
X84836977Y-148266399D01*
X84853400Y-148099652D01*
X84853400Y-148099645D01*
X84858890Y-148043901D01*
X84853400Y-147988157D01*
X84853400Y-147913520D01*
X86046208Y-147913520D01*
X86046208Y-149713520D01*
X86058468Y-149838002D01*
X86094778Y-149957700D01*
X86153743Y-150068014D01*
X86233095Y-150164705D01*
X86329786Y-150244057D01*
X86440100Y-150303022D01*
X86559798Y-150339332D01*
X86684280Y-150351592D01*
X88484280Y-150351592D01*
X88608762Y-150339332D01*
X88728460Y-150303022D01*
X88838774Y-150244057D01*
X88935465Y-150164705D01*
X89014817Y-150068014D01*
X89073782Y-149957700D01*
X89079336Y-149939393D01*
X89145775Y-150005832D01*
X89397185Y-150173819D01*
X89676537Y-150289531D01*
X89973096Y-150348520D01*
X90275464Y-150348520D01*
X90572023Y-150289531D01*
X90851375Y-150173819D01*
X91102785Y-150005832D01*
X91316592Y-149792025D01*
X91484579Y-149540615D01*
X91600291Y-149261263D01*
X91659280Y-148964704D01*
X91659280Y-148662336D01*
X91600291Y-148365777D01*
X91484579Y-148086425D01*
X91316592Y-147835015D01*
X91303657Y-147822080D01*
X93435068Y-147822080D01*
X93435068Y-149622080D01*
X93447328Y-149746562D01*
X93483638Y-149866260D01*
X93542603Y-149976574D01*
X93621955Y-150073265D01*
X93718646Y-150152617D01*
X93828960Y-150211582D01*
X93948658Y-150247892D01*
X94073140Y-150260152D01*
X95873140Y-150260152D01*
X95997622Y-150247892D01*
X96117320Y-150211582D01*
X96227634Y-150152617D01*
X96324325Y-150073265D01*
X96403677Y-149976574D01*
X96462642Y-149866260D01*
X96468196Y-149847953D01*
X96534635Y-149914392D01*
X96786045Y-150082379D01*
X97065397Y-150198091D01*
X97361956Y-150257080D01*
X97664324Y-150257080D01*
X97960883Y-150198091D01*
X98240235Y-150082379D01*
X98491645Y-149914392D01*
X98705452Y-149700585D01*
X98873439Y-149449175D01*
X98989151Y-149169823D01*
X99048140Y-148873264D01*
X99048140Y-148570896D01*
X98989151Y-148274337D01*
X98873439Y-147994985D01*
X98705452Y-147743575D01*
X98491645Y-147529768D01*
X98240235Y-147361781D01*
X97960883Y-147246069D01*
X97664324Y-147187080D01*
X97361956Y-147187080D01*
X97065397Y-147246069D01*
X96786045Y-147361781D01*
X96534635Y-147529768D01*
X96468196Y-147596207D01*
X96462642Y-147577900D01*
X96403677Y-147467586D01*
X96324325Y-147370895D01*
X96227634Y-147291543D01*
X96117320Y-147232578D01*
X95997622Y-147196268D01*
X95873140Y-147184008D01*
X94073140Y-147184008D01*
X93948658Y-147196268D01*
X93828960Y-147232578D01*
X93718646Y-147291543D01*
X93621955Y-147370895D01*
X93542603Y-147467586D01*
X93483638Y-147577900D01*
X93447328Y-147697598D01*
X93435068Y-147822080D01*
X91303657Y-147822080D01*
X91102785Y-147621208D01*
X90851375Y-147453221D01*
X90572023Y-147337509D01*
X90275464Y-147278520D01*
X89973096Y-147278520D01*
X89676537Y-147337509D01*
X89397185Y-147453221D01*
X89145775Y-147621208D01*
X89079336Y-147687647D01*
X89073782Y-147669340D01*
X89014817Y-147559026D01*
X88935465Y-147462335D01*
X88838774Y-147382983D01*
X88728460Y-147324018D01*
X88608762Y-147287708D01*
X88484280Y-147275448D01*
X86684280Y-147275448D01*
X86559798Y-147287708D01*
X86440100Y-147324018D01*
X86329786Y-147382983D01*
X86233095Y-147462335D01*
X86153743Y-147559026D01*
X86094778Y-147669340D01*
X86058468Y-147789038D01*
X86046208Y-147913520D01*
X84853400Y-147913520D01*
X84853400Y-138901600D01*
X86244328Y-138901600D01*
X86244328Y-140701600D01*
X86256588Y-140826082D01*
X86292898Y-140945780D01*
X86351863Y-141056094D01*
X86431215Y-141152785D01*
X86527906Y-141232137D01*
X86638220Y-141291102D01*
X86757918Y-141327412D01*
X86882400Y-141339672D01*
X88682400Y-141339672D01*
X88806882Y-141327412D01*
X88926580Y-141291102D01*
X89036894Y-141232137D01*
X89133585Y-141152785D01*
X89212937Y-141056094D01*
X89271902Y-140945780D01*
X89277456Y-140927473D01*
X89343895Y-140993912D01*
X89595305Y-141161899D01*
X89874657Y-141277611D01*
X90171216Y-141336600D01*
X90473584Y-141336600D01*
X90770143Y-141277611D01*
X91049495Y-141161899D01*
X91300905Y-140993912D01*
X91514712Y-140780105D01*
X91682699Y-140528695D01*
X91798411Y-140249343D01*
X91857400Y-139952784D01*
X91857400Y-139650416D01*
X91798411Y-139353857D01*
X91682699Y-139074505D01*
X91619780Y-138980340D01*
X93460468Y-138980340D01*
X93460468Y-140780340D01*
X93472728Y-140904822D01*
X93509038Y-141024520D01*
X93568003Y-141134834D01*
X93647355Y-141231525D01*
X93744046Y-141310877D01*
X93854360Y-141369842D01*
X93974058Y-141406152D01*
X94098540Y-141418412D01*
X95898540Y-141418412D01*
X96023022Y-141406152D01*
X96142720Y-141369842D01*
X96253034Y-141310877D01*
X96349725Y-141231525D01*
X96429077Y-141134834D01*
X96488042Y-141024520D01*
X96493596Y-141006213D01*
X96560035Y-141072652D01*
X96811445Y-141240639D01*
X97090797Y-141356351D01*
X97387356Y-141415340D01*
X97689724Y-141415340D01*
X97986283Y-141356351D01*
X98265635Y-141240639D01*
X98517045Y-141072652D01*
X98730852Y-140858845D01*
X98898839Y-140607435D01*
X99014551Y-140328083D01*
X99073540Y-140031524D01*
X99073540Y-139729156D01*
X99014551Y-139432597D01*
X98898839Y-139153245D01*
X98730852Y-138901835D01*
X98517045Y-138688028D01*
X98265635Y-138520041D01*
X97986283Y-138404329D01*
X97689724Y-138345340D01*
X97387356Y-138345340D01*
X97090797Y-138404329D01*
X96811445Y-138520041D01*
X96560035Y-138688028D01*
X96493596Y-138754467D01*
X96488042Y-138736160D01*
X96429077Y-138625846D01*
X96349725Y-138529155D01*
X96253034Y-138449803D01*
X96142720Y-138390838D01*
X96023022Y-138354528D01*
X95898540Y-138342268D01*
X94098540Y-138342268D01*
X93974058Y-138354528D01*
X93854360Y-138390838D01*
X93744046Y-138449803D01*
X93647355Y-138529155D01*
X93568003Y-138625846D01*
X93509038Y-138736160D01*
X93472728Y-138855858D01*
X93460468Y-138980340D01*
X91619780Y-138980340D01*
X91514712Y-138823095D01*
X91300905Y-138609288D01*
X91049495Y-138441301D01*
X90770143Y-138325589D01*
X90473584Y-138266600D01*
X90171216Y-138266600D01*
X89874657Y-138325589D01*
X89595305Y-138441301D01*
X89343895Y-138609288D01*
X89277456Y-138675727D01*
X89271902Y-138657420D01*
X89212937Y-138547106D01*
X89133585Y-138450415D01*
X89036894Y-138371063D01*
X88926580Y-138312098D01*
X88806882Y-138275788D01*
X88682400Y-138263528D01*
X86882400Y-138263528D01*
X86757918Y-138275788D01*
X86638220Y-138312098D01*
X86527906Y-138371063D01*
X86431215Y-138450415D01*
X86351863Y-138547106D01*
X86292898Y-138657420D01*
X86256588Y-138777118D01*
X86244328Y-138901600D01*
X84853400Y-138901600D01*
X84853400Y-135592681D01*
X84858890Y-135536939D01*
X84853400Y-135481197D01*
X84853400Y-135481188D01*
X84836977Y-135314441D01*
X84772076Y-135100493D01*
X84666684Y-134903317D01*
X84524849Y-134730491D01*
X84481541Y-134694949D01*
X81112355Y-131325764D01*
X81076808Y-131282450D01*
X80903982Y-131140615D01*
X80706806Y-131035223D01*
X80492858Y-130970322D01*
X80326111Y-130953899D01*
X80326110Y-130953899D01*
X80270359Y-130948408D01*
X80214608Y-130953899D01*
X73860220Y-130953899D01*
X73804478Y-130948409D01*
X73748737Y-130953899D01*
X73748727Y-130953899D01*
X73634288Y-130965170D01*
X73557301Y-130933281D01*
X73309041Y-130883900D01*
X73055919Y-130883900D01*
X72807659Y-130933281D01*
X72573804Y-131030147D01*
X72363340Y-131170775D01*
X72184355Y-131349760D01*
X72043727Y-131560224D01*
X71946861Y-131794079D01*
X71897480Y-132042339D01*
X71897480Y-132150828D01*
X71363983Y-132150828D01*
X72893611Y-130621200D01*
X86323068Y-130621200D01*
X86323068Y-132421200D01*
X86335328Y-132545682D01*
X86371638Y-132665380D01*
X86430603Y-132775694D01*
X86509955Y-132872385D01*
X86606646Y-132951737D01*
X86716960Y-133010702D01*
X86836658Y-133047012D01*
X86961140Y-133059272D01*
X88761140Y-133059272D01*
X88885622Y-133047012D01*
X89005320Y-133010702D01*
X89115634Y-132951737D01*
X89212325Y-132872385D01*
X89291677Y-132775694D01*
X89350642Y-132665380D01*
X89356196Y-132647073D01*
X89422635Y-132713512D01*
X89674045Y-132881499D01*
X89953397Y-132997211D01*
X90249956Y-133056200D01*
X90552324Y-133056200D01*
X90848883Y-132997211D01*
X91128235Y-132881499D01*
X91379645Y-132713512D01*
X91593452Y-132499705D01*
X91761439Y-132248295D01*
X91877151Y-131968943D01*
X91936140Y-131672384D01*
X91936140Y-131370016D01*
X91877151Y-131073457D01*
X91761439Y-130794105D01*
X91632117Y-130600561D01*
X93770397Y-130600561D01*
X93770397Y-132400561D01*
X93782657Y-132525043D01*
X93818967Y-132644741D01*
X93877932Y-132755055D01*
X93957284Y-132851746D01*
X94053975Y-132931098D01*
X94164289Y-132990063D01*
X94283987Y-133026373D01*
X94408469Y-133038633D01*
X96208469Y-133038633D01*
X96332951Y-133026373D01*
X96452649Y-132990063D01*
X96562963Y-132931098D01*
X96659654Y-132851746D01*
X96739006Y-132755055D01*
X96797971Y-132644741D01*
X96803525Y-132626434D01*
X96869964Y-132692873D01*
X97121374Y-132860860D01*
X97400726Y-132976572D01*
X97697285Y-133035561D01*
X97999653Y-133035561D01*
X98296212Y-132976572D01*
X98575564Y-132860860D01*
X98826974Y-132692873D01*
X99040781Y-132479066D01*
X99208768Y-132227656D01*
X99324480Y-131948304D01*
X99383469Y-131651745D01*
X99383469Y-131349377D01*
X99324480Y-131052818D01*
X99208768Y-130773466D01*
X99040781Y-130522056D01*
X98826974Y-130308249D01*
X98575564Y-130140262D01*
X98296212Y-130024550D01*
X97999653Y-129965561D01*
X97697285Y-129965561D01*
X97400726Y-130024550D01*
X97121374Y-130140262D01*
X96869964Y-130308249D01*
X96803525Y-130374688D01*
X96797971Y-130356381D01*
X96739006Y-130246067D01*
X96659654Y-130149376D01*
X96562963Y-130070024D01*
X96452649Y-130011059D01*
X96332951Y-129974749D01*
X96208469Y-129962489D01*
X94408469Y-129962489D01*
X94283987Y-129974749D01*
X94164289Y-130011059D01*
X94053975Y-130070024D01*
X93957284Y-130149376D01*
X93877932Y-130246067D01*
X93818967Y-130356381D01*
X93782657Y-130476079D01*
X93770397Y-130600561D01*
X91632117Y-130600561D01*
X91593452Y-130542695D01*
X91379645Y-130328888D01*
X91128235Y-130160901D01*
X90848883Y-130045189D01*
X90552324Y-129986200D01*
X90249956Y-129986200D01*
X89953397Y-130045189D01*
X89674045Y-130160901D01*
X89422635Y-130328888D01*
X89356196Y-130395327D01*
X89350642Y-130377020D01*
X89291677Y-130266706D01*
X89212325Y-130170015D01*
X89115634Y-130090663D01*
X89005320Y-130031698D01*
X88885622Y-129995388D01*
X88761140Y-129983128D01*
X86961140Y-129983128D01*
X86836658Y-129995388D01*
X86716960Y-130031698D01*
X86606646Y-130090663D01*
X86509955Y-130170015D01*
X86430603Y-130266706D01*
X86371638Y-130377020D01*
X86335328Y-130496718D01*
X86323068Y-130621200D01*
X72893611Y-130621200D01*
X74476826Y-129037985D01*
X79486860Y-129037985D01*
X79486860Y-129320655D01*
X79542007Y-129597894D01*
X79650180Y-129859047D01*
X79807223Y-130094079D01*
X80007101Y-130293957D01*
X80242133Y-130451000D01*
X80503286Y-130559173D01*
X80780525Y-130614320D01*
X81063195Y-130614320D01*
X81340434Y-130559173D01*
X81601587Y-130451000D01*
X81836619Y-130293957D01*
X82036497Y-130094079D01*
X82193540Y-129859047D01*
X82301713Y-129597894D01*
X82356860Y-129320655D01*
X82356860Y-129037985D01*
X82301713Y-128760746D01*
X82193540Y-128499593D01*
X82036497Y-128264561D01*
X81836619Y-128064683D01*
X81601587Y-127907640D01*
X81340434Y-127799467D01*
X81063195Y-127744320D01*
X80780525Y-127744320D01*
X80503286Y-127799467D01*
X80242133Y-127907640D01*
X80007101Y-128064683D01*
X79807223Y-128264561D01*
X79650180Y-128499593D01*
X79542007Y-128760746D01*
X79486860Y-129037985D01*
X74476826Y-129037985D01*
X78089992Y-125424820D01*
X78625538Y-125424820D01*
X78703439Y-125488752D01*
X78952732Y-125622002D01*
X79223231Y-125704056D01*
X79434048Y-125724820D01*
X79575032Y-125724820D01*
X79785849Y-125704056D01*
X80056348Y-125622002D01*
X80305641Y-125488752D01*
X80524148Y-125309428D01*
X80703472Y-125090921D01*
X80836722Y-124841628D01*
X80918776Y-124571129D01*
X80946483Y-124289820D01*
X80918776Y-124008511D01*
X80836722Y-123738012D01*
X80703472Y-123488719D01*
X80524148Y-123270212D01*
X80305641Y-123090888D01*
X80056348Y-122957638D01*
X79785849Y-122875584D01*
X79575032Y-122854820D01*
X79434048Y-122854820D01*
X79223231Y-122875584D01*
X78952732Y-122957638D01*
X78703439Y-123090888D01*
X78625538Y-123154820D01*
X77675603Y-123154820D01*
X77619859Y-123149330D01*
X77564115Y-123154820D01*
X77564108Y-123154820D01*
X77418353Y-123169176D01*
X77397360Y-123171243D01*
X77347565Y-123186349D01*
X77183413Y-123236144D01*
X76986237Y-123341536D01*
X76813411Y-123483371D01*
X76777869Y-123526679D01*
X65942340Y-134362209D01*
X65899032Y-134397751D01*
X65757197Y-134570577D01*
X65747534Y-134588656D01*
X65651804Y-134767754D01*
X65586903Y-134981702D01*
X65564989Y-135204200D01*
X65570481Y-135259961D01*
X65570480Y-146973207D01*
X63557068Y-148986620D01*
X63189012Y-148986620D01*
X63081874Y-148898694D01*
X63027069Y-148869400D01*
X63081874Y-148840106D01*
X63307994Y-148654534D01*
X63493566Y-148428414D01*
X63631459Y-148170434D01*
X63716373Y-147890511D01*
X63745045Y-147599400D01*
X63716373Y-147308289D01*
X63631459Y-147028366D01*
X63493566Y-146770386D01*
X63307994Y-146544266D01*
X63278173Y-146519793D01*
X63347040Y-146498902D01*
X63457354Y-146439937D01*
X63554045Y-146360585D01*
X63633397Y-146263894D01*
X63692362Y-146153580D01*
X63728672Y-146033882D01*
X63740932Y-145909400D01*
X63737860Y-145345150D01*
X63579110Y-145186400D01*
X62379860Y-145186400D01*
X62379860Y-145206400D01*
X62125860Y-145206400D01*
X62125860Y-145186400D01*
X60926610Y-145186400D01*
X60767860Y-145345150D01*
X60764788Y-145909400D01*
X60777048Y-146033882D01*
X60813358Y-146153580D01*
X60872323Y-146263894D01*
X60951675Y-146360585D01*
X61048366Y-146439937D01*
X61158680Y-146498902D01*
X61227547Y-146519793D01*
X61197726Y-146544266D01*
X61012154Y-146770386D01*
X60874261Y-147028366D01*
X60789347Y-147308289D01*
X60760675Y-147599400D01*
X58603277Y-147599400D01*
X58592972Y-144209400D01*
X60764788Y-144209400D01*
X60767860Y-144773650D01*
X60926610Y-144932400D01*
X62125860Y-144932400D01*
X62125860Y-143733150D01*
X62379860Y-143733150D01*
X62379860Y-144932400D01*
X63579110Y-144932400D01*
X63737860Y-144773650D01*
X63740932Y-144209400D01*
X63728672Y-144084918D01*
X63692362Y-143965220D01*
X63633397Y-143854906D01*
X63554045Y-143758215D01*
X63457354Y-143678863D01*
X63347040Y-143619898D01*
X63227342Y-143583588D01*
X63102860Y-143571328D01*
X62538610Y-143574400D01*
X62379860Y-143733150D01*
X62125860Y-143733150D01*
X61967110Y-143574400D01*
X61402860Y-143571328D01*
X61278378Y-143583588D01*
X61158680Y-143619898D01*
X61048366Y-143678863D01*
X60951675Y-143758215D01*
X60872323Y-143854906D01*
X60813358Y-143965220D01*
X60777048Y-144084918D01*
X60764788Y-144209400D01*
X58592972Y-144209400D01*
X58580665Y-140161380D01*
X60625088Y-140161380D01*
X60637348Y-140285862D01*
X60673658Y-140405560D01*
X60732623Y-140515874D01*
X60811975Y-140612565D01*
X60908666Y-140691917D01*
X61018980Y-140750882D01*
X61138678Y-140787192D01*
X61263160Y-140799452D01*
X61827410Y-140796380D01*
X61986160Y-140637630D01*
X61986160Y-139438380D01*
X62240160Y-139438380D01*
X62240160Y-140637630D01*
X62398910Y-140796380D01*
X62963160Y-140799452D01*
X63087642Y-140787192D01*
X63207340Y-140750882D01*
X63317654Y-140691917D01*
X63414345Y-140612565D01*
X63493697Y-140515874D01*
X63552662Y-140405560D01*
X63588972Y-140285862D01*
X63601232Y-140161380D01*
X63598160Y-139597130D01*
X63439410Y-139438380D01*
X62240160Y-139438380D01*
X61986160Y-139438380D01*
X60786910Y-139438380D01*
X60628160Y-139597130D01*
X60625088Y-140161380D01*
X58580665Y-140161380D01*
X58562637Y-134231380D01*
X60620975Y-134231380D01*
X60649647Y-134522491D01*
X60734561Y-134802414D01*
X60872454Y-135060394D01*
X61058026Y-135286514D01*
X61284146Y-135472086D01*
X61338951Y-135501380D01*
X61284146Y-135530674D01*
X61058026Y-135716246D01*
X60872454Y-135942366D01*
X60734561Y-136200346D01*
X60649647Y-136480269D01*
X60620975Y-136771380D01*
X60649647Y-137062491D01*
X60734561Y-137342414D01*
X60872454Y-137600394D01*
X61058026Y-137826514D01*
X61087847Y-137850987D01*
X61018980Y-137871878D01*
X60908666Y-137930843D01*
X60811975Y-138010195D01*
X60732623Y-138106886D01*
X60673658Y-138217200D01*
X60637348Y-138336898D01*
X60625088Y-138461380D01*
X60628160Y-139025630D01*
X60786910Y-139184380D01*
X61986160Y-139184380D01*
X61986160Y-139164380D01*
X62240160Y-139164380D01*
X62240160Y-139184380D01*
X63439410Y-139184380D01*
X63598160Y-139025630D01*
X63601232Y-138461380D01*
X63588972Y-138336898D01*
X63552662Y-138217200D01*
X63493697Y-138106886D01*
X63414345Y-138010195D01*
X63317654Y-137930843D01*
X63207340Y-137871878D01*
X63138473Y-137850987D01*
X63168294Y-137826514D01*
X63353866Y-137600394D01*
X63491759Y-137342414D01*
X63576673Y-137062491D01*
X63605345Y-136771380D01*
X63576673Y-136480269D01*
X63491759Y-136200346D01*
X63353866Y-135942366D01*
X63168294Y-135716246D01*
X62942174Y-135530674D01*
X62887369Y-135501380D01*
X62942174Y-135472086D01*
X63168294Y-135286514D01*
X63353866Y-135060394D01*
X63491759Y-134802414D01*
X63576673Y-134522491D01*
X63605345Y-134231380D01*
X63576673Y-133940269D01*
X63491759Y-133660346D01*
X63353866Y-133402366D01*
X63168294Y-133176246D01*
X62942174Y-132990674D01*
X62684194Y-132852781D01*
X62404271Y-132767867D01*
X62186110Y-132746380D01*
X62040210Y-132746380D01*
X61822049Y-132767867D01*
X61542126Y-132852781D01*
X61284146Y-132990674D01*
X61058026Y-133176246D01*
X60872454Y-133402366D01*
X60734561Y-133660346D01*
X60649647Y-133940269D01*
X60620975Y-134231380D01*
X58562637Y-134231380D01*
X58539511Y-126624080D01*
X60674315Y-126624080D01*
X60702987Y-126915191D01*
X60787901Y-127195114D01*
X60925794Y-127453094D01*
X61111366Y-127679214D01*
X61141187Y-127703687D01*
X61072320Y-127724578D01*
X60962006Y-127783543D01*
X60865315Y-127862895D01*
X60785963Y-127959586D01*
X60726998Y-128069900D01*
X60690688Y-128189598D01*
X60678428Y-128314080D01*
X60678428Y-130014080D01*
X60690688Y-130138562D01*
X60726998Y-130258260D01*
X60785963Y-130368574D01*
X60865315Y-130465265D01*
X60962006Y-130544617D01*
X61072320Y-130603582D01*
X61192018Y-130639892D01*
X61316500Y-130652152D01*
X63016500Y-130652152D01*
X63140982Y-130639892D01*
X63260680Y-130603582D01*
X63370994Y-130544617D01*
X63467685Y-130465265D01*
X63547037Y-130368574D01*
X63606002Y-130258260D01*
X63642312Y-130138562D01*
X63654572Y-130014080D01*
X63654572Y-128314080D01*
X63642312Y-128189598D01*
X63606002Y-128069900D01*
X63547037Y-127959586D01*
X63467685Y-127862895D01*
X63370994Y-127783543D01*
X63260680Y-127724578D01*
X63191813Y-127703687D01*
X63221634Y-127679214D01*
X63407206Y-127453094D01*
X63457200Y-127359560D01*
X66134868Y-127359560D01*
X66134868Y-129759560D01*
X66147128Y-129884042D01*
X66183438Y-130003740D01*
X66242403Y-130114054D01*
X66321755Y-130210745D01*
X66418446Y-130290097D01*
X66528760Y-130349062D01*
X66648458Y-130385372D01*
X66772940Y-130397632D01*
X69172940Y-130397632D01*
X69297422Y-130385372D01*
X69417120Y-130349062D01*
X69527434Y-130290097D01*
X69624125Y-130210745D01*
X69703477Y-130114054D01*
X69762442Y-130003740D01*
X69798752Y-129884042D01*
X69811012Y-129759560D01*
X69811012Y-127359560D01*
X69798752Y-127235078D01*
X69762442Y-127115380D01*
X69703477Y-127005066D01*
X69624125Y-126908375D01*
X69527434Y-126829023D01*
X69417120Y-126770058D01*
X69297422Y-126733748D01*
X69172940Y-126721488D01*
X66772940Y-126721488D01*
X66648458Y-126733748D01*
X66528760Y-126770058D01*
X66418446Y-126829023D01*
X66321755Y-126908375D01*
X66242403Y-127005066D01*
X66183438Y-127115380D01*
X66147128Y-127235078D01*
X66134868Y-127359560D01*
X63457200Y-127359560D01*
X63545099Y-127195114D01*
X63630013Y-126915191D01*
X63658685Y-126624080D01*
X63630013Y-126332969D01*
X63545099Y-126053046D01*
X63407206Y-125795066D01*
X63221634Y-125568946D01*
X62995514Y-125383374D01*
X62737534Y-125245481D01*
X62457611Y-125160567D01*
X62239450Y-125139080D01*
X62093550Y-125139080D01*
X61875389Y-125160567D01*
X61595466Y-125245481D01*
X61337486Y-125383374D01*
X61111366Y-125568946D01*
X60925794Y-125795066D01*
X60787901Y-126053046D01*
X60702987Y-126332969D01*
X60674315Y-126624080D01*
X58539511Y-126624080D01*
X58514214Y-118303040D01*
X60681935Y-118303040D01*
X60710607Y-118594151D01*
X60795521Y-118874074D01*
X60933414Y-119132054D01*
X61118986Y-119358174D01*
X61148807Y-119382647D01*
X61079940Y-119403538D01*
X60969626Y-119462503D01*
X60872935Y-119541855D01*
X60793583Y-119638546D01*
X60734618Y-119748860D01*
X60698308Y-119868558D01*
X60686048Y-119993040D01*
X60686048Y-121693040D01*
X60698308Y-121817522D01*
X60734618Y-121937220D01*
X60793583Y-122047534D01*
X60872935Y-122144225D01*
X60969626Y-122223577D01*
X61079940Y-122282542D01*
X61199638Y-122318852D01*
X61324120Y-122331112D01*
X63024120Y-122331112D01*
X63148602Y-122318852D01*
X63268300Y-122282542D01*
X63378614Y-122223577D01*
X63475305Y-122144225D01*
X63554657Y-122047534D01*
X63613622Y-121937220D01*
X63649932Y-121817522D01*
X63662192Y-121693040D01*
X63662192Y-120308005D01*
X83505140Y-120308005D01*
X83505140Y-120590675D01*
X83560287Y-120867914D01*
X83668460Y-121129067D01*
X83825503Y-121364099D01*
X84025381Y-121563977D01*
X84260413Y-121721020D01*
X84521566Y-121829193D01*
X84798805Y-121884340D01*
X85081475Y-121884340D01*
X85358714Y-121829193D01*
X85619867Y-121721020D01*
X85854899Y-121563977D01*
X86054777Y-121364099D01*
X86211820Y-121129067D01*
X86319993Y-120867914D01*
X86375140Y-120590675D01*
X86375140Y-120308005D01*
X86344479Y-120153860D01*
X88217908Y-120153860D01*
X88217908Y-121953860D01*
X88230168Y-122078342D01*
X88266478Y-122198040D01*
X88325443Y-122308354D01*
X88404795Y-122405045D01*
X88501486Y-122484397D01*
X88611800Y-122543362D01*
X88731498Y-122579672D01*
X88855980Y-122591932D01*
X90655980Y-122591932D01*
X90780462Y-122579672D01*
X90900160Y-122543362D01*
X91010474Y-122484397D01*
X91107165Y-122405045D01*
X91186517Y-122308354D01*
X91245482Y-122198040D01*
X91251036Y-122179733D01*
X91317475Y-122246172D01*
X91568885Y-122414159D01*
X91848237Y-122529871D01*
X92144796Y-122588860D01*
X92447164Y-122588860D01*
X92743723Y-122529871D01*
X93023075Y-122414159D01*
X93274485Y-122246172D01*
X93488292Y-122032365D01*
X93656279Y-121780955D01*
X93771991Y-121501603D01*
X93830980Y-121205044D01*
X93830980Y-120902676D01*
X93771991Y-120606117D01*
X93656279Y-120326765D01*
X93593360Y-120232600D01*
X93971008Y-120232600D01*
X93971008Y-122032600D01*
X93983268Y-122157082D01*
X94019578Y-122276780D01*
X94078543Y-122387094D01*
X94157895Y-122483785D01*
X94254586Y-122563137D01*
X94364900Y-122622102D01*
X94484598Y-122658412D01*
X94609080Y-122670672D01*
X96409080Y-122670672D01*
X96533562Y-122658412D01*
X96653260Y-122622102D01*
X96763574Y-122563137D01*
X96860265Y-122483785D01*
X96939617Y-122387094D01*
X96998582Y-122276780D01*
X97004136Y-122258473D01*
X97070575Y-122324912D01*
X97321985Y-122492899D01*
X97601337Y-122608611D01*
X97897896Y-122667600D01*
X98200264Y-122667600D01*
X98496823Y-122608611D01*
X98776175Y-122492899D01*
X99027585Y-122324912D01*
X99241392Y-122111105D01*
X99409379Y-121859695D01*
X99525091Y-121580343D01*
X99584080Y-121283784D01*
X99584080Y-120981416D01*
X99525091Y-120684857D01*
X99409379Y-120405505D01*
X99241392Y-120154095D01*
X99027585Y-119940288D01*
X98776175Y-119772301D01*
X98496823Y-119656589D01*
X98200264Y-119597600D01*
X97897896Y-119597600D01*
X97601337Y-119656589D01*
X97321985Y-119772301D01*
X97070575Y-119940288D01*
X97004136Y-120006727D01*
X96998582Y-119988420D01*
X96939617Y-119878106D01*
X96860265Y-119781415D01*
X96763574Y-119702063D01*
X96653260Y-119643098D01*
X96533562Y-119606788D01*
X96409080Y-119594528D01*
X94609080Y-119594528D01*
X94484598Y-119606788D01*
X94364900Y-119643098D01*
X94254586Y-119702063D01*
X94157895Y-119781415D01*
X94078543Y-119878106D01*
X94019578Y-119988420D01*
X93983268Y-120108118D01*
X93971008Y-120232600D01*
X93593360Y-120232600D01*
X93488292Y-120075355D01*
X93274485Y-119861548D01*
X93023075Y-119693561D01*
X92743723Y-119577849D01*
X92447164Y-119518860D01*
X92144796Y-119518860D01*
X91848237Y-119577849D01*
X91568885Y-119693561D01*
X91317475Y-119861548D01*
X91251036Y-119927987D01*
X91245482Y-119909680D01*
X91186517Y-119799366D01*
X91107165Y-119702675D01*
X91010474Y-119623323D01*
X90900160Y-119564358D01*
X90780462Y-119528048D01*
X90655980Y-119515788D01*
X88855980Y-119515788D01*
X88731498Y-119528048D01*
X88611800Y-119564358D01*
X88501486Y-119623323D01*
X88404795Y-119702675D01*
X88325443Y-119799366D01*
X88266478Y-119909680D01*
X88230168Y-120029378D01*
X88217908Y-120153860D01*
X86344479Y-120153860D01*
X86319993Y-120030766D01*
X86211820Y-119769613D01*
X86054777Y-119534581D01*
X85854899Y-119334703D01*
X85619867Y-119177660D01*
X85358714Y-119069487D01*
X85081475Y-119014340D01*
X84798805Y-119014340D01*
X84521566Y-119069487D01*
X84260413Y-119177660D01*
X84025381Y-119334703D01*
X83825503Y-119534581D01*
X83668460Y-119769613D01*
X83560287Y-120030766D01*
X83505140Y-120308005D01*
X63662192Y-120308005D01*
X63662192Y-119993040D01*
X63649932Y-119868558D01*
X63613622Y-119748860D01*
X63554657Y-119638546D01*
X63475305Y-119541855D01*
X63378614Y-119462503D01*
X63268300Y-119403538D01*
X63199433Y-119382647D01*
X63229254Y-119358174D01*
X63414826Y-119132054D01*
X63552719Y-118874074D01*
X63637633Y-118594151D01*
X63666305Y-118303040D01*
X63637633Y-118011929D01*
X63552719Y-117732006D01*
X63414826Y-117474026D01*
X63229254Y-117247906D01*
X63003134Y-117062334D01*
X62745154Y-116924441D01*
X62465231Y-116839527D01*
X62247070Y-116818040D01*
X62101170Y-116818040D01*
X61883009Y-116839527D01*
X61603086Y-116924441D01*
X61345106Y-117062334D01*
X61118986Y-117247906D01*
X60933414Y-117474026D01*
X60795521Y-117732006D01*
X60710607Y-118011929D01*
X60681935Y-118303040D01*
X58514214Y-118303040D01*
X58506786Y-115859560D01*
X66129062Y-115859560D01*
X66164492Y-116219283D01*
X66269419Y-116565182D01*
X66439811Y-116883964D01*
X66669121Y-117163379D01*
X66948536Y-117392689D01*
X67267318Y-117563081D01*
X67613217Y-117668008D01*
X67882801Y-117694560D01*
X68063079Y-117694560D01*
X68332663Y-117668008D01*
X68678562Y-117563081D01*
X68997344Y-117392689D01*
X69276759Y-117163379D01*
X69506069Y-116883964D01*
X69676461Y-116565182D01*
X69781388Y-116219283D01*
X69816818Y-115859560D01*
X69781388Y-115499837D01*
X69676461Y-115153938D01*
X69506069Y-114835156D01*
X69276759Y-114555741D01*
X68997344Y-114326431D01*
X68678562Y-114156039D01*
X68332663Y-114051112D01*
X68063079Y-114024560D01*
X67882801Y-114024560D01*
X67613217Y-114051112D01*
X67267318Y-114156039D01*
X66948536Y-114326431D01*
X66669121Y-114555741D01*
X66439811Y-114835156D01*
X66269419Y-115153938D01*
X66164492Y-115499837D01*
X66129062Y-115859560D01*
X58506786Y-115859560D01*
X58499347Y-113412700D01*
X87961368Y-113412700D01*
X87961368Y-115212700D01*
X87973628Y-115337182D01*
X88009938Y-115456880D01*
X88068903Y-115567194D01*
X88148255Y-115663885D01*
X88244946Y-115743237D01*
X88355260Y-115802202D01*
X88474958Y-115838512D01*
X88599440Y-115850772D01*
X90399440Y-115850772D01*
X90523922Y-115838512D01*
X90643620Y-115802202D01*
X90753934Y-115743237D01*
X90850625Y-115663885D01*
X90929977Y-115567194D01*
X90988942Y-115456880D01*
X90994496Y-115438573D01*
X91060935Y-115505012D01*
X91312345Y-115672999D01*
X91591697Y-115788711D01*
X91888256Y-115847700D01*
X92190624Y-115847700D01*
X92487183Y-115788711D01*
X92766535Y-115672999D01*
X93017945Y-115505012D01*
X93231752Y-115291205D01*
X93399739Y-115039795D01*
X93515451Y-114760443D01*
X93574440Y-114463884D01*
X93574440Y-114161516D01*
X93515451Y-113864957D01*
X93399739Y-113585605D01*
X93274025Y-113397460D01*
X93668748Y-113397460D01*
X93668748Y-115197460D01*
X93681008Y-115321942D01*
X93717318Y-115441640D01*
X93776283Y-115551954D01*
X93855635Y-115648645D01*
X93952326Y-115727997D01*
X94062640Y-115786962D01*
X94182338Y-115823272D01*
X94306820Y-115835532D01*
X96106820Y-115835532D01*
X96231302Y-115823272D01*
X96351000Y-115786962D01*
X96461314Y-115727997D01*
X96558005Y-115648645D01*
X96637357Y-115551954D01*
X96696322Y-115441640D01*
X96701876Y-115423333D01*
X96768315Y-115489772D01*
X97019725Y-115657759D01*
X97299077Y-115773471D01*
X97595636Y-115832460D01*
X97898004Y-115832460D01*
X98194563Y-115773471D01*
X98473915Y-115657759D01*
X98725325Y-115489772D01*
X98939132Y-115275965D01*
X99107119Y-115024555D01*
X99222831Y-114745203D01*
X99281820Y-114448644D01*
X99281820Y-114146276D01*
X99222831Y-113849717D01*
X99107119Y-113570365D01*
X98939132Y-113318955D01*
X98725325Y-113105148D01*
X98473915Y-112937161D01*
X98194563Y-112821449D01*
X97898004Y-112762460D01*
X97595636Y-112762460D01*
X97299077Y-112821449D01*
X97019725Y-112937161D01*
X96768315Y-113105148D01*
X96701876Y-113171587D01*
X96696322Y-113153280D01*
X96637357Y-113042966D01*
X96558005Y-112946275D01*
X96461314Y-112866923D01*
X96351000Y-112807958D01*
X96231302Y-112771648D01*
X96106820Y-112759388D01*
X94306820Y-112759388D01*
X94182338Y-112771648D01*
X94062640Y-112807958D01*
X93952326Y-112866923D01*
X93855635Y-112946275D01*
X93776283Y-113042966D01*
X93717318Y-113153280D01*
X93681008Y-113272978D01*
X93668748Y-113397460D01*
X93274025Y-113397460D01*
X93231752Y-113334195D01*
X93017945Y-113120388D01*
X92766535Y-112952401D01*
X92487183Y-112836689D01*
X92190624Y-112777700D01*
X91888256Y-112777700D01*
X91591697Y-112836689D01*
X91312345Y-112952401D01*
X91060935Y-113120388D01*
X90994496Y-113186827D01*
X90988942Y-113168520D01*
X90929977Y-113058206D01*
X90850625Y-112961515D01*
X90753934Y-112882163D01*
X90643620Y-112823198D01*
X90523922Y-112786888D01*
X90399440Y-112774628D01*
X88599440Y-112774628D01*
X88474958Y-112786888D01*
X88355260Y-112823198D01*
X88244946Y-112882163D01*
X88148255Y-112961515D01*
X88068903Y-113058206D01*
X88009938Y-113168520D01*
X87973628Y-113288218D01*
X87961368Y-113412700D01*
X58499347Y-113412700D01*
X58494889Y-111946479D01*
X58633376Y-111946479D01*
X58674034Y-112080527D01*
X58794243Y-112334860D01*
X58961761Y-112560854D01*
X59170149Y-112749825D01*
X59411399Y-112894510D01*
X59676240Y-112989349D01*
X59898280Y-112868064D01*
X59898280Y-111724440D01*
X60152280Y-111724440D01*
X60152280Y-112868064D01*
X60374320Y-112989349D01*
X60639161Y-112894510D01*
X60880411Y-112749825D01*
X61088799Y-112560854D01*
X61256317Y-112334860D01*
X61376526Y-112080527D01*
X61417184Y-111946479D01*
X61295195Y-111724440D01*
X60152280Y-111724440D01*
X59898280Y-111724440D01*
X58755365Y-111724440D01*
X58633376Y-111946479D01*
X58494889Y-111946479D01*
X58492767Y-111248401D01*
X58633376Y-111248401D01*
X58755365Y-111470440D01*
X59898280Y-111470440D01*
X59898280Y-110326816D01*
X60152280Y-110326816D01*
X60152280Y-111470440D01*
X61295195Y-111470440D01*
X61303070Y-111456105D01*
X73830280Y-111456105D01*
X73830280Y-111738775D01*
X73885427Y-112016014D01*
X73993600Y-112277167D01*
X74150643Y-112512199D01*
X74350521Y-112712077D01*
X74585553Y-112869120D01*
X74846706Y-112977293D01*
X75123945Y-113032440D01*
X75406615Y-113032440D01*
X75683854Y-112977293D01*
X75945007Y-112869120D01*
X76180039Y-112712077D01*
X76379917Y-112512199D01*
X76536960Y-112277167D01*
X76645133Y-112016014D01*
X76700280Y-111738775D01*
X76700280Y-111456105D01*
X76698765Y-111448485D01*
X78069540Y-111448485D01*
X78069540Y-111731155D01*
X78124687Y-112008394D01*
X78232860Y-112269547D01*
X78389903Y-112504579D01*
X78589781Y-112704457D01*
X78824813Y-112861500D01*
X79085966Y-112969673D01*
X79363205Y-113024820D01*
X79645875Y-113024820D01*
X79923114Y-112969673D01*
X80184267Y-112861500D01*
X80419299Y-112704457D01*
X80619177Y-112504579D01*
X80776220Y-112269547D01*
X80884393Y-112008394D01*
X80939540Y-111731155D01*
X80939540Y-111448485D01*
X80884393Y-111171246D01*
X80776220Y-110910093D01*
X80619177Y-110675061D01*
X80419299Y-110475183D01*
X80184267Y-110318140D01*
X79923114Y-110209967D01*
X79645875Y-110154820D01*
X79363205Y-110154820D01*
X79085966Y-110209967D01*
X78824813Y-110318140D01*
X78589781Y-110475183D01*
X78389903Y-110675061D01*
X78232860Y-110910093D01*
X78124687Y-111171246D01*
X78069540Y-111448485D01*
X76698765Y-111448485D01*
X76645133Y-111178866D01*
X76536960Y-110917713D01*
X76379917Y-110682681D01*
X76180039Y-110482803D01*
X75945007Y-110325760D01*
X75683854Y-110217587D01*
X75406615Y-110162440D01*
X75123945Y-110162440D01*
X74846706Y-110217587D01*
X74585553Y-110325760D01*
X74350521Y-110482803D01*
X74150643Y-110682681D01*
X73993600Y-110917713D01*
X73885427Y-111178866D01*
X73830280Y-111456105D01*
X61303070Y-111456105D01*
X61417184Y-111248401D01*
X61376526Y-111114353D01*
X61256317Y-110860020D01*
X61088799Y-110634026D01*
X60880411Y-110445055D01*
X60639161Y-110300370D01*
X60374320Y-110205531D01*
X60152280Y-110326816D01*
X59898280Y-110326816D01*
X59676240Y-110205531D01*
X59411399Y-110300370D01*
X59170149Y-110445055D01*
X58961761Y-110634026D01*
X58794243Y-110860020D01*
X58674034Y-111114353D01*
X58633376Y-111248401D01*
X58492767Y-111248401D01*
X58482130Y-107749340D01*
X83498197Y-107749340D01*
X83525904Y-108030649D01*
X83607958Y-108301148D01*
X83741208Y-108550441D01*
X83920532Y-108768948D01*
X84139039Y-108948272D01*
X84388332Y-109081522D01*
X84658831Y-109163576D01*
X84869648Y-109184340D01*
X85010632Y-109184340D01*
X85221449Y-109163576D01*
X85491948Y-109081522D01*
X85741241Y-108948272D01*
X85959748Y-108768948D01*
X86139072Y-108550441D01*
X86272322Y-108301148D01*
X86354376Y-108030649D01*
X86382083Y-107749340D01*
X86354376Y-107468031D01*
X86272322Y-107197532D01*
X86139072Y-106948239D01*
X85959748Y-106729732D01*
X85780516Y-106582640D01*
X87816588Y-106582640D01*
X87816588Y-108382640D01*
X87828848Y-108507122D01*
X87865158Y-108626820D01*
X87924123Y-108737134D01*
X88003475Y-108833825D01*
X88100166Y-108913177D01*
X88210480Y-108972142D01*
X88330178Y-109008452D01*
X88454660Y-109020712D01*
X90254660Y-109020712D01*
X90379142Y-109008452D01*
X90498840Y-108972142D01*
X90609154Y-108913177D01*
X90705845Y-108833825D01*
X90785197Y-108737134D01*
X90844162Y-108626820D01*
X90849716Y-108608513D01*
X90916155Y-108674952D01*
X91167565Y-108842939D01*
X91446917Y-108958651D01*
X91743476Y-109017640D01*
X92045844Y-109017640D01*
X92342403Y-108958651D01*
X92621755Y-108842939D01*
X92873165Y-108674952D01*
X93086972Y-108461145D01*
X93254959Y-108209735D01*
X93370671Y-107930383D01*
X93429660Y-107633824D01*
X93429660Y-107331456D01*
X93370671Y-107034897D01*
X93254959Y-106755545D01*
X93136034Y-106577560D01*
X93567148Y-106577560D01*
X93567148Y-108377560D01*
X93579408Y-108502042D01*
X93615718Y-108621740D01*
X93674683Y-108732054D01*
X93754035Y-108828745D01*
X93850726Y-108908097D01*
X93961040Y-108967062D01*
X94080738Y-109003372D01*
X94205220Y-109015632D01*
X96005220Y-109015632D01*
X96129702Y-109003372D01*
X96249400Y-108967062D01*
X96359714Y-108908097D01*
X96456405Y-108828745D01*
X96535757Y-108732054D01*
X96594722Y-108621740D01*
X96600276Y-108603433D01*
X96666715Y-108669872D01*
X96918125Y-108837859D01*
X97197477Y-108953571D01*
X97494036Y-109012560D01*
X97796404Y-109012560D01*
X98092963Y-108953571D01*
X98372315Y-108837859D01*
X98623725Y-108669872D01*
X98837532Y-108456065D01*
X99005519Y-108204655D01*
X99121231Y-107925303D01*
X99180220Y-107628744D01*
X99180220Y-107326376D01*
X99121231Y-107029817D01*
X99005519Y-106750465D01*
X98837532Y-106499055D01*
X98623725Y-106285248D01*
X98372315Y-106117261D01*
X98092963Y-106001549D01*
X97796404Y-105942560D01*
X97494036Y-105942560D01*
X97197477Y-106001549D01*
X96918125Y-106117261D01*
X96666715Y-106285248D01*
X96600276Y-106351687D01*
X96594722Y-106333380D01*
X96535757Y-106223066D01*
X96456405Y-106126375D01*
X96359714Y-106047023D01*
X96249400Y-105988058D01*
X96129702Y-105951748D01*
X96005220Y-105939488D01*
X94205220Y-105939488D01*
X94080738Y-105951748D01*
X93961040Y-105988058D01*
X93850726Y-106047023D01*
X93754035Y-106126375D01*
X93674683Y-106223066D01*
X93615718Y-106333380D01*
X93579408Y-106453078D01*
X93567148Y-106577560D01*
X93136034Y-106577560D01*
X93086972Y-106504135D01*
X92873165Y-106290328D01*
X92621755Y-106122341D01*
X92342403Y-106006629D01*
X92045844Y-105947640D01*
X91743476Y-105947640D01*
X91446917Y-106006629D01*
X91167565Y-106122341D01*
X90916155Y-106290328D01*
X90849716Y-106356767D01*
X90844162Y-106338460D01*
X90785197Y-106228146D01*
X90705845Y-106131455D01*
X90609154Y-106052103D01*
X90498840Y-105993138D01*
X90379142Y-105956828D01*
X90254660Y-105944568D01*
X88454660Y-105944568D01*
X88330178Y-105956828D01*
X88210480Y-105993138D01*
X88100166Y-106052103D01*
X88003475Y-106131455D01*
X87924123Y-106228146D01*
X87865158Y-106338460D01*
X87828848Y-106458158D01*
X87816588Y-106582640D01*
X85780516Y-106582640D01*
X85741241Y-106550408D01*
X85491948Y-106417158D01*
X85221449Y-106335104D01*
X85010632Y-106314340D01*
X84869648Y-106314340D01*
X84658831Y-106335104D01*
X84388332Y-106417158D01*
X84139039Y-106550408D01*
X83920532Y-106729732D01*
X83741208Y-106948239D01*
X83607958Y-107197532D01*
X83525904Y-107468031D01*
X83498197Y-107749340D01*
X58482130Y-107749340D01*
X58476498Y-105897087D01*
X58483923Y-105908199D01*
X58683801Y-106108077D01*
X58918833Y-106265120D01*
X59179986Y-106373293D01*
X59457225Y-106428440D01*
X59739895Y-106428440D01*
X60017134Y-106373293D01*
X60278287Y-106265120D01*
X60513319Y-106108077D01*
X60713197Y-105908199D01*
X60870240Y-105673167D01*
X60978413Y-105412014D01*
X60992244Y-105342479D01*
X73446656Y-105342479D01*
X73487314Y-105476527D01*
X73607523Y-105730860D01*
X73775041Y-105956854D01*
X73983429Y-106145825D01*
X74224679Y-106290510D01*
X74489520Y-106385349D01*
X74711560Y-106264064D01*
X74711560Y-105120440D01*
X74965560Y-105120440D01*
X74965560Y-106264064D01*
X75187600Y-106385349D01*
X75452441Y-106290510D01*
X75693691Y-106145825D01*
X75845118Y-106008507D01*
X77160318Y-106008507D01*
X77213706Y-106237181D01*
X77443614Y-106343075D01*
X77689764Y-106402082D01*
X77851240Y-106408370D01*
X77851240Y-106519541D01*
X77900621Y-106767801D01*
X77997487Y-107001656D01*
X78138115Y-107212120D01*
X78317100Y-107391105D01*
X78527564Y-107531733D01*
X78761419Y-107628599D01*
X79009679Y-107677980D01*
X79262801Y-107677980D01*
X79511061Y-107628599D01*
X79744916Y-107531733D01*
X79955380Y-107391105D01*
X80134365Y-107212120D01*
X80274993Y-107001656D01*
X80371859Y-106767801D01*
X80421240Y-106519541D01*
X80421240Y-106411052D01*
X81056240Y-106411052D01*
X81180722Y-106398792D01*
X81300420Y-106362482D01*
X81410734Y-106303517D01*
X81507425Y-106224165D01*
X81586777Y-106127474D01*
X81645742Y-106017160D01*
X81682052Y-105897462D01*
X81694312Y-105772980D01*
X81694312Y-104472980D01*
X81682052Y-104348498D01*
X81645742Y-104228800D01*
X81586777Y-104118486D01*
X81507425Y-104021795D01*
X81410734Y-103942443D01*
X81300420Y-103883478D01*
X81180722Y-103847168D01*
X81056240Y-103834908D01*
X79756240Y-103834908D01*
X79631758Y-103847168D01*
X79512060Y-103883478D01*
X79401746Y-103942443D01*
X79305055Y-104021795D01*
X79225703Y-104118486D01*
X79166738Y-104228800D01*
X79130428Y-104348498D01*
X79118168Y-104472980D01*
X79118168Y-104813276D01*
X79115510Y-104796531D01*
X79027818Y-104559084D01*
X78980441Y-104470446D01*
X78751767Y-104417058D01*
X78045845Y-105122980D01*
X78059988Y-105137123D01*
X77880383Y-105316728D01*
X77866240Y-105302585D01*
X77160318Y-106008507D01*
X75845118Y-106008507D01*
X75902079Y-105956854D01*
X76069597Y-105730860D01*
X76189806Y-105476527D01*
X76230464Y-105342479D01*
X76151876Y-105199435D01*
X76577288Y-105199435D01*
X76616970Y-105449429D01*
X76704662Y-105686876D01*
X76752039Y-105775514D01*
X76980713Y-105828902D01*
X77686635Y-105122980D01*
X76980713Y-104417058D01*
X76752039Y-104470446D01*
X76646145Y-104700354D01*
X76587138Y-104946504D01*
X76577288Y-105199435D01*
X76151876Y-105199435D01*
X76108475Y-105120440D01*
X74965560Y-105120440D01*
X74711560Y-105120440D01*
X73568645Y-105120440D01*
X73446656Y-105342479D01*
X60992244Y-105342479D01*
X61033560Y-105134775D01*
X61033560Y-104852105D01*
X60992245Y-104644401D01*
X73446656Y-104644401D01*
X73568645Y-104866440D01*
X74711560Y-104866440D01*
X74711560Y-103722816D01*
X74965560Y-103722816D01*
X74965560Y-104866440D01*
X76108475Y-104866440D01*
X76230464Y-104644401D01*
X76189806Y-104510353D01*
X76069597Y-104256020D01*
X76055835Y-104237453D01*
X77160318Y-104237453D01*
X77866240Y-104943375D01*
X78572162Y-104237453D01*
X78518774Y-104008779D01*
X78288866Y-103902885D01*
X78042716Y-103843878D01*
X77789785Y-103834028D01*
X77539791Y-103873710D01*
X77302344Y-103961402D01*
X77213706Y-104008779D01*
X77160318Y-104237453D01*
X76055835Y-104237453D01*
X75902079Y-104030026D01*
X75693691Y-103841055D01*
X75452441Y-103696370D01*
X75187600Y-103601531D01*
X74965560Y-103722816D01*
X74711560Y-103722816D01*
X74489520Y-103601531D01*
X74224679Y-103696370D01*
X73983429Y-103841055D01*
X73775041Y-104030026D01*
X73607523Y-104256020D01*
X73487314Y-104510353D01*
X73446656Y-104644401D01*
X60992245Y-104644401D01*
X60978413Y-104574866D01*
X60870240Y-104313713D01*
X60713197Y-104078681D01*
X60513319Y-103878803D01*
X60278287Y-103721760D01*
X60017134Y-103613587D01*
X59739895Y-103558440D01*
X59457225Y-103558440D01*
X59179986Y-103613587D01*
X58918833Y-103721760D01*
X58683801Y-103878803D01*
X58483923Y-104078681D01*
X58471029Y-104097979D01*
X58463569Y-101644239D01*
X99834028Y-101986726D01*
X99834028Y-101986726D01*
G37*
X99834028Y-101986726D02*
X100022379Y-155354235D01*
X99962475Y-155354680D01*
X99935364Y-155357554D01*
X58626810Y-155340432D01*
X58603277Y-147599400D01*
X60760675Y-147599400D01*
X60789347Y-147890511D01*
X60874261Y-148170434D01*
X61012154Y-148428414D01*
X61197726Y-148654534D01*
X61423846Y-148840106D01*
X61478651Y-148869400D01*
X61423846Y-148898694D01*
X61197726Y-149084266D01*
X61012154Y-149310386D01*
X60874261Y-149568366D01*
X60789347Y-149848289D01*
X60760675Y-150139400D01*
X60789347Y-150430511D01*
X60874261Y-150710434D01*
X61012154Y-150968414D01*
X61197726Y-151194534D01*
X61423846Y-151380106D01*
X61478651Y-151409400D01*
X61423846Y-151438694D01*
X61197726Y-151624266D01*
X61012154Y-151850386D01*
X60874261Y-152108366D01*
X60789347Y-152388289D01*
X60760675Y-152679400D01*
X60789347Y-152970511D01*
X60874261Y-153250434D01*
X61012154Y-153508414D01*
X61197726Y-153734534D01*
X61423846Y-153920106D01*
X61681826Y-154057999D01*
X61961749Y-154142913D01*
X62179910Y-154164400D01*
X62325810Y-154164400D01*
X62543971Y-154142913D01*
X62823894Y-154057999D01*
X63081874Y-153920106D01*
X63307994Y-153734534D01*
X63493566Y-153508414D01*
X63631459Y-153250434D01*
X63716373Y-152970511D01*
X63745045Y-152679400D01*
X63716373Y-152388289D01*
X63633630Y-152115520D01*
X65504837Y-152115520D01*
X65532544Y-152396829D01*
X65614598Y-152667328D01*
X65747848Y-152916621D01*
X65927172Y-153135128D01*
X66145679Y-153314452D01*
X66394972Y-153447702D01*
X66665471Y-153529756D01*
X66876288Y-153550520D01*
X67017272Y-153550520D01*
X67228089Y-153529756D01*
X67498588Y-153447702D01*
X67747881Y-153314452D01*
X67966388Y-153135128D01*
X68145712Y-152916621D01*
X68278962Y-152667328D01*
X68361016Y-152396829D01*
X68388723Y-152115520D01*
X68361016Y-151834211D01*
X68278962Y-151563712D01*
X68145712Y-151314419D01*
X67966388Y-151095912D01*
X67747881Y-150916588D01*
X67498588Y-150783338D01*
X67228089Y-150701284D01*
X67017272Y-150680520D01*
X66876288Y-150680520D01*
X66665471Y-150701284D01*
X66394972Y-150783338D01*
X66145679Y-150916588D01*
X65927172Y-151095912D01*
X65747848Y-151314419D01*
X65614598Y-151563712D01*
X65532544Y-151834211D01*
X65504837Y-152115520D01*
X63633630Y-152115520D01*
X63631459Y-152108366D01*
X63493566Y-151850386D01*
X63307994Y-151624266D01*
X63081874Y-151438694D01*
X63027069Y-151409400D01*
X63081874Y-151380106D01*
X63232342Y-151256620D01*
X63971448Y-151256620D01*
X64027199Y-151262111D01*
X64082950Y-151256620D01*
X64082951Y-151256620D01*
X64249698Y-151240197D01*
X64463646Y-151175296D01*
X64660822Y-151069904D01*
X64833648Y-150928069D01*
X64869195Y-150884755D01*
X67468621Y-148285330D01*
X67511929Y-148249788D01*
X67653764Y-148076962D01*
X67759156Y-147879786D01*
X67824057Y-147665838D01*
X67840480Y-147499091D01*
X67840480Y-147499082D01*
X67845970Y-147443340D01*
X67840480Y-147387598D01*
X67840480Y-145054575D01*
X68256248Y-145054575D01*
X68295930Y-145304569D01*
X68383622Y-145542016D01*
X68430999Y-145630654D01*
X68659673Y-145684042D01*
X69365595Y-144978120D01*
X68659673Y-144272198D01*
X68430999Y-144325586D01*
X68325105Y-144555494D01*
X68266098Y-144801644D01*
X68256248Y-145054575D01*
X67840480Y-145054575D01*
X67840480Y-144092593D01*
X68839278Y-144092593D01*
X69545200Y-144798515D01*
X70251122Y-144092593D01*
X70197734Y-143863919D01*
X69967826Y-143758025D01*
X69721676Y-143699018D01*
X69468745Y-143689168D01*
X69218751Y-143728850D01*
X68981304Y-143816542D01*
X68892666Y-143863919D01*
X68839278Y-144092593D01*
X67840480Y-144092593D01*
X67840480Y-140207562D01*
X68127583Y-140207562D01*
X68199166Y-140451531D01*
X68454676Y-140572431D01*
X68728864Y-140641160D01*
X69011192Y-140655077D01*
X69290810Y-140613647D01*
X69556972Y-140518463D01*
X69682194Y-140451531D01*
X69753777Y-140207562D01*
X68940680Y-139394465D01*
X68127583Y-140207562D01*
X67840480Y-140207562D01*
X67840480Y-139996416D01*
X67947978Y-140027957D01*
X68761075Y-139214860D01*
X69120285Y-139214860D01*
X69933382Y-140027957D01*
X70177351Y-139956374D01*
X70298251Y-139700864D01*
X70366980Y-139426676D01*
X70380897Y-139144348D01*
X70339467Y-138864730D01*
X70244283Y-138598568D01*
X70177351Y-138473346D01*
X69933382Y-138401763D01*
X69120285Y-139214860D01*
X68761075Y-139214860D01*
X67947978Y-138401763D01*
X67840480Y-138433304D01*
X67840480Y-138222158D01*
X68127583Y-138222158D01*
X68940680Y-139035255D01*
X69753777Y-138222158D01*
X69682194Y-137978189D01*
X69426684Y-137857289D01*
X69152496Y-137788560D01*
X68870168Y-137774643D01*
X68590550Y-137816073D01*
X68324388Y-137911257D01*
X68199166Y-137978189D01*
X68127583Y-138222158D01*
X67840480Y-138222158D01*
X67840480Y-135674331D01*
X70624408Y-132890403D01*
X70624408Y-134088900D01*
X70636668Y-134213382D01*
X70672978Y-134333080D01*
X70731943Y-134443394D01*
X70811295Y-134540085D01*
X70907986Y-134619437D01*
X70950201Y-134642002D01*
X70950200Y-143918139D01*
X70904663Y-143973626D01*
X70845698Y-144083940D01*
X70809388Y-144203638D01*
X70797128Y-144328120D01*
X70797128Y-144668416D01*
X70794470Y-144651671D01*
X70706778Y-144414224D01*
X70659401Y-144325586D01*
X70430727Y-144272198D01*
X69724805Y-144978120D01*
X69738948Y-144992263D01*
X69559343Y-145171868D01*
X69545200Y-145157725D01*
X68839278Y-145863647D01*
X68892666Y-146092321D01*
X69122574Y-146198215D01*
X69368724Y-146257222D01*
X69530200Y-146263510D01*
X69530200Y-146374681D01*
X69579581Y-146622941D01*
X69676447Y-146856796D01*
X69817075Y-147067260D01*
X69996060Y-147246245D01*
X70206524Y-147386873D01*
X70440379Y-147483739D01*
X70688639Y-147533120D01*
X70941761Y-147533120D01*
X71190021Y-147483739D01*
X71423876Y-147386873D01*
X71634340Y-147246245D01*
X71706298Y-147174287D01*
X76093518Y-147174287D01*
X76146906Y-147402961D01*
X76376814Y-147508855D01*
X76622964Y-147567862D01*
X76784440Y-147574150D01*
X76784440Y-147685321D01*
X76833821Y-147933581D01*
X76930687Y-148167436D01*
X77071315Y-148377900D01*
X77250300Y-148556885D01*
X77460764Y-148697513D01*
X77694619Y-148794379D01*
X77942879Y-148843760D01*
X78196001Y-148843760D01*
X78444261Y-148794379D01*
X78678116Y-148697513D01*
X78888580Y-148556885D01*
X79067565Y-148377900D01*
X79208193Y-148167436D01*
X79305059Y-147933581D01*
X79354440Y-147685321D01*
X79354440Y-147576832D01*
X79989440Y-147576832D01*
X80113922Y-147564572D01*
X80233620Y-147528262D01*
X80343934Y-147469297D01*
X80440625Y-147389945D01*
X80519977Y-147293254D01*
X80578942Y-147182940D01*
X80615252Y-147063242D01*
X80627512Y-146938760D01*
X80627512Y-145638760D01*
X80615252Y-145514278D01*
X80578942Y-145394580D01*
X80519977Y-145284266D01*
X80440625Y-145187575D01*
X80343934Y-145108223D01*
X80233620Y-145049258D01*
X80113922Y-145012948D01*
X79989440Y-145000688D01*
X78689440Y-145000688D01*
X78564958Y-145012948D01*
X78445260Y-145049258D01*
X78334946Y-145108223D01*
X78238255Y-145187575D01*
X78158903Y-145284266D01*
X78099938Y-145394580D01*
X78063628Y-145514278D01*
X78051368Y-145638760D01*
X78051368Y-145979056D01*
X78048710Y-145962311D01*
X77961018Y-145724864D01*
X77913641Y-145636226D01*
X77684967Y-145582838D01*
X76979045Y-146288760D01*
X76993188Y-146302903D01*
X76813583Y-146482508D01*
X76799440Y-146468365D01*
X76093518Y-147174287D01*
X71706298Y-147174287D01*
X71813325Y-147067260D01*
X71953953Y-146856796D01*
X72050819Y-146622941D01*
X72100200Y-146374681D01*
X72100200Y-146365215D01*
X75510488Y-146365215D01*
X75550170Y-146615209D01*
X75637862Y-146852656D01*
X75685239Y-146941294D01*
X75913913Y-146994682D01*
X76619835Y-146288760D01*
X75913913Y-145582838D01*
X75685239Y-145636226D01*
X75579345Y-145866134D01*
X75520338Y-146112284D01*
X75510488Y-146365215D01*
X72100200Y-146365215D01*
X72100200Y-146266192D01*
X72735200Y-146266192D01*
X72859682Y-146253932D01*
X72979380Y-146217622D01*
X73089694Y-146158657D01*
X73186385Y-146079305D01*
X73265737Y-145982614D01*
X73324702Y-145872300D01*
X73361012Y-145752602D01*
X73373272Y-145628120D01*
X73373272Y-145403233D01*
X76093518Y-145403233D01*
X76799440Y-146109155D01*
X77505362Y-145403233D01*
X77451974Y-145174559D01*
X77222066Y-145068665D01*
X76975916Y-145009658D01*
X76722985Y-144999808D01*
X76472991Y-145039490D01*
X76235544Y-145127182D01*
X76146906Y-145174559D01*
X76093518Y-145403233D01*
X73373272Y-145403233D01*
X73373272Y-144328120D01*
X73361012Y-144203638D01*
X73324702Y-144083940D01*
X73265737Y-143973626D01*
X73220200Y-143918139D01*
X73220200Y-141879320D01*
X79479917Y-141879320D01*
X79507624Y-142160629D01*
X79589678Y-142431128D01*
X79722928Y-142680421D01*
X79902252Y-142898928D01*
X80120759Y-143078252D01*
X80370052Y-143211502D01*
X80640551Y-143293556D01*
X80851368Y-143314320D01*
X80992352Y-143314320D01*
X81203169Y-143293556D01*
X81473668Y-143211502D01*
X81722961Y-143078252D01*
X81941468Y-142898928D01*
X82120792Y-142680421D01*
X82254042Y-142431128D01*
X82336096Y-142160629D01*
X82363803Y-141879320D01*
X82336096Y-141598011D01*
X82254042Y-141327512D01*
X82120792Y-141078219D01*
X81941468Y-140859712D01*
X81722961Y-140680388D01*
X81473668Y-140547138D01*
X81203169Y-140465084D01*
X80992352Y-140444320D01*
X80851368Y-140444320D01*
X80640551Y-140465084D01*
X80370052Y-140547138D01*
X80120759Y-140680388D01*
X79902252Y-140859712D01*
X79722928Y-141078219D01*
X79589678Y-141327512D01*
X79507624Y-141598011D01*
X79479917Y-141879320D01*
X73220200Y-141879320D01*
X73220200Y-139073525D01*
X75005680Y-139073525D01*
X75005680Y-139356195D01*
X75060827Y-139633434D01*
X75169000Y-139894587D01*
X75326043Y-140129619D01*
X75525921Y-140329497D01*
X75760953Y-140486540D01*
X76022106Y-140594713D01*
X76299345Y-140649860D01*
X76582015Y-140649860D01*
X76859254Y-140594713D01*
X77120407Y-140486540D01*
X77355439Y-140329497D01*
X77555317Y-140129619D01*
X77712360Y-139894587D01*
X77820533Y-139633434D01*
X77875680Y-139356195D01*
X77875680Y-139073525D01*
X77820533Y-138796286D01*
X77712360Y-138535133D01*
X77555317Y-138300101D01*
X77355439Y-138100223D01*
X77120407Y-137943180D01*
X76859254Y-137835007D01*
X76582015Y-137779860D01*
X76299345Y-137779860D01*
X76022106Y-137835007D01*
X75760953Y-137943180D01*
X75525921Y-138100223D01*
X75326043Y-138300101D01*
X75169000Y-138535133D01*
X75060827Y-138796286D01*
X75005680Y-139073525D01*
X73220200Y-139073525D01*
X73220200Y-134324427D01*
X73746558Y-134324427D01*
X73799946Y-134553101D01*
X74029854Y-134658995D01*
X74276004Y-134718002D01*
X74528935Y-134727852D01*
X74778929Y-134688170D01*
X75016376Y-134600478D01*
X75105014Y-134553101D01*
X75158402Y-134324427D01*
X74452480Y-133618505D01*
X73746558Y-134324427D01*
X73220200Y-134324427D01*
X73220200Y-133811353D01*
X73290902Y-134002796D01*
X73338279Y-134091434D01*
X73566953Y-134144822D01*
X74272875Y-133438900D01*
X74258733Y-133424758D01*
X74438338Y-133245153D01*
X74452480Y-133259295D01*
X74466623Y-133245153D01*
X74646228Y-133424758D01*
X74632085Y-133438900D01*
X75338007Y-134144822D01*
X75566681Y-134091434D01*
X75672575Y-133861526D01*
X75731582Y-133615376D01*
X75741432Y-133362445D01*
X75719440Y-133223899D01*
X79800228Y-133223899D01*
X82583400Y-136007072D01*
X82583401Y-147573767D01*
X79469499Y-150687670D01*
X79228206Y-150735667D01*
X78967053Y-150843840D01*
X78732021Y-151000883D01*
X78532143Y-151200761D01*
X78375100Y-151435793D01*
X78266927Y-151696946D01*
X78211780Y-151974185D01*
X78211780Y-152256855D01*
X78266927Y-152534094D01*
X78375100Y-152795247D01*
X78532143Y-153030279D01*
X78732021Y-153230157D01*
X78967053Y-153387200D01*
X79228206Y-153495373D01*
X79505445Y-153550520D01*
X79788115Y-153550520D01*
X80065354Y-153495373D01*
X80326507Y-153387200D01*
X80561539Y-153230157D01*
X80761417Y-153030279D01*
X80918460Y-152795247D01*
X81026633Y-152534094D01*
X81074630Y-152292801D01*
X84481541Y-148885891D01*
X84524849Y-148850349D01*
X84666684Y-148677523D01*
X84772076Y-148480347D01*
X84836977Y-148266399D01*
X84853400Y-148099652D01*
X84853400Y-148099645D01*
X84858890Y-148043901D01*
X84853400Y-147988157D01*
X84853400Y-147913520D01*
X86046208Y-147913520D01*
X86046208Y-149713520D01*
X86058468Y-149838002D01*
X86094778Y-149957700D01*
X86153743Y-150068014D01*
X86233095Y-150164705D01*
X86329786Y-150244057D01*
X86440100Y-150303022D01*
X86559798Y-150339332D01*
X86684280Y-150351592D01*
X88484280Y-150351592D01*
X88608762Y-150339332D01*
X88728460Y-150303022D01*
X88838774Y-150244057D01*
X88935465Y-150164705D01*
X89014817Y-150068014D01*
X89073782Y-149957700D01*
X89079336Y-149939393D01*
X89145775Y-150005832D01*
X89397185Y-150173819D01*
X89676537Y-150289531D01*
X89973096Y-150348520D01*
X90275464Y-150348520D01*
X90572023Y-150289531D01*
X90851375Y-150173819D01*
X91102785Y-150005832D01*
X91316592Y-149792025D01*
X91484579Y-149540615D01*
X91600291Y-149261263D01*
X91659280Y-148964704D01*
X91659280Y-148662336D01*
X91600291Y-148365777D01*
X91484579Y-148086425D01*
X91316592Y-147835015D01*
X91303657Y-147822080D01*
X93435068Y-147822080D01*
X93435068Y-149622080D01*
X93447328Y-149746562D01*
X93483638Y-149866260D01*
X93542603Y-149976574D01*
X93621955Y-150073265D01*
X93718646Y-150152617D01*
X93828960Y-150211582D01*
X93948658Y-150247892D01*
X94073140Y-150260152D01*
X95873140Y-150260152D01*
X95997622Y-150247892D01*
X96117320Y-150211582D01*
X96227634Y-150152617D01*
X96324325Y-150073265D01*
X96403677Y-149976574D01*
X96462642Y-149866260D01*
X96468196Y-149847953D01*
X96534635Y-149914392D01*
X96786045Y-150082379D01*
X97065397Y-150198091D01*
X97361956Y-150257080D01*
X97664324Y-150257080D01*
X97960883Y-150198091D01*
X98240235Y-150082379D01*
X98491645Y-149914392D01*
X98705452Y-149700585D01*
X98873439Y-149449175D01*
X98989151Y-149169823D01*
X99048140Y-148873264D01*
X99048140Y-148570896D01*
X98989151Y-148274337D01*
X98873439Y-147994985D01*
X98705452Y-147743575D01*
X98491645Y-147529768D01*
X98240235Y-147361781D01*
X97960883Y-147246069D01*
X97664324Y-147187080D01*
X97361956Y-147187080D01*
X97065397Y-147246069D01*
X96786045Y-147361781D01*
X96534635Y-147529768D01*
X96468196Y-147596207D01*
X96462642Y-147577900D01*
X96403677Y-147467586D01*
X96324325Y-147370895D01*
X96227634Y-147291543D01*
X96117320Y-147232578D01*
X95997622Y-147196268D01*
X95873140Y-147184008D01*
X94073140Y-147184008D01*
X93948658Y-147196268D01*
X93828960Y-147232578D01*
X93718646Y-147291543D01*
X93621955Y-147370895D01*
X93542603Y-147467586D01*
X93483638Y-147577900D01*
X93447328Y-147697598D01*
X93435068Y-147822080D01*
X91303657Y-147822080D01*
X91102785Y-147621208D01*
X90851375Y-147453221D01*
X90572023Y-147337509D01*
X90275464Y-147278520D01*
X89973096Y-147278520D01*
X89676537Y-147337509D01*
X89397185Y-147453221D01*
X89145775Y-147621208D01*
X89079336Y-147687647D01*
X89073782Y-147669340D01*
X89014817Y-147559026D01*
X88935465Y-147462335D01*
X88838774Y-147382983D01*
X88728460Y-147324018D01*
X88608762Y-147287708D01*
X88484280Y-147275448D01*
X86684280Y-147275448D01*
X86559798Y-147287708D01*
X86440100Y-147324018D01*
X86329786Y-147382983D01*
X86233095Y-147462335D01*
X86153743Y-147559026D01*
X86094778Y-147669340D01*
X86058468Y-147789038D01*
X86046208Y-147913520D01*
X84853400Y-147913520D01*
X84853400Y-138901600D01*
X86244328Y-138901600D01*
X86244328Y-140701600D01*
X86256588Y-140826082D01*
X86292898Y-140945780D01*
X86351863Y-141056094D01*
X86431215Y-141152785D01*
X86527906Y-141232137D01*
X86638220Y-141291102D01*
X86757918Y-141327412D01*
X86882400Y-141339672D01*
X88682400Y-141339672D01*
X88806882Y-141327412D01*
X88926580Y-141291102D01*
X89036894Y-141232137D01*
X89133585Y-141152785D01*
X89212937Y-141056094D01*
X89271902Y-140945780D01*
X89277456Y-140927473D01*
X89343895Y-140993912D01*
X89595305Y-141161899D01*
X89874657Y-141277611D01*
X90171216Y-141336600D01*
X90473584Y-141336600D01*
X90770143Y-141277611D01*
X91049495Y-141161899D01*
X91300905Y-140993912D01*
X91514712Y-140780105D01*
X91682699Y-140528695D01*
X91798411Y-140249343D01*
X91857400Y-139952784D01*
X91857400Y-139650416D01*
X91798411Y-139353857D01*
X91682699Y-139074505D01*
X91619780Y-138980340D01*
X93460468Y-138980340D01*
X93460468Y-140780340D01*
X93472728Y-140904822D01*
X93509038Y-141024520D01*
X93568003Y-141134834D01*
X93647355Y-141231525D01*
X93744046Y-141310877D01*
X93854360Y-141369842D01*
X93974058Y-141406152D01*
X94098540Y-141418412D01*
X95898540Y-141418412D01*
X96023022Y-141406152D01*
X96142720Y-141369842D01*
X96253034Y-141310877D01*
X96349725Y-141231525D01*
X96429077Y-141134834D01*
X96488042Y-141024520D01*
X96493596Y-141006213D01*
X96560035Y-141072652D01*
X96811445Y-141240639D01*
X97090797Y-141356351D01*
X97387356Y-141415340D01*
X97689724Y-141415340D01*
X97986283Y-141356351D01*
X98265635Y-141240639D01*
X98517045Y-141072652D01*
X98730852Y-140858845D01*
X98898839Y-140607435D01*
X99014551Y-140328083D01*
X99073540Y-140031524D01*
X99073540Y-139729156D01*
X99014551Y-139432597D01*
X98898839Y-139153245D01*
X98730852Y-138901835D01*
X98517045Y-138688028D01*
X98265635Y-138520041D01*
X97986283Y-138404329D01*
X97689724Y-138345340D01*
X97387356Y-138345340D01*
X97090797Y-138404329D01*
X96811445Y-138520041D01*
X96560035Y-138688028D01*
X96493596Y-138754467D01*
X96488042Y-138736160D01*
X96429077Y-138625846D01*
X96349725Y-138529155D01*
X96253034Y-138449803D01*
X96142720Y-138390838D01*
X96023022Y-138354528D01*
X95898540Y-138342268D01*
X94098540Y-138342268D01*
X93974058Y-138354528D01*
X93854360Y-138390838D01*
X93744046Y-138449803D01*
X93647355Y-138529155D01*
X93568003Y-138625846D01*
X93509038Y-138736160D01*
X93472728Y-138855858D01*
X93460468Y-138980340D01*
X91619780Y-138980340D01*
X91514712Y-138823095D01*
X91300905Y-138609288D01*
X91049495Y-138441301D01*
X90770143Y-138325589D01*
X90473584Y-138266600D01*
X90171216Y-138266600D01*
X89874657Y-138325589D01*
X89595305Y-138441301D01*
X89343895Y-138609288D01*
X89277456Y-138675727D01*
X89271902Y-138657420D01*
X89212937Y-138547106D01*
X89133585Y-138450415D01*
X89036894Y-138371063D01*
X88926580Y-138312098D01*
X88806882Y-138275788D01*
X88682400Y-138263528D01*
X86882400Y-138263528D01*
X86757918Y-138275788D01*
X86638220Y-138312098D01*
X86527906Y-138371063D01*
X86431215Y-138450415D01*
X86351863Y-138547106D01*
X86292898Y-138657420D01*
X86256588Y-138777118D01*
X86244328Y-138901600D01*
X84853400Y-138901600D01*
X84853400Y-135592681D01*
X84858890Y-135536939D01*
X84853400Y-135481197D01*
X84853400Y-135481188D01*
X84836977Y-135314441D01*
X84772076Y-135100493D01*
X84666684Y-134903317D01*
X84524849Y-134730491D01*
X84481541Y-134694949D01*
X81112355Y-131325764D01*
X81076808Y-131282450D01*
X80903982Y-131140615D01*
X80706806Y-131035223D01*
X80492858Y-130970322D01*
X80326111Y-130953899D01*
X80326110Y-130953899D01*
X80270359Y-130948408D01*
X80214608Y-130953899D01*
X73860220Y-130953899D01*
X73804478Y-130948409D01*
X73748737Y-130953899D01*
X73748727Y-130953899D01*
X73634288Y-130965170D01*
X73557301Y-130933281D01*
X73309041Y-130883900D01*
X73055919Y-130883900D01*
X72807659Y-130933281D01*
X72573804Y-131030147D01*
X72363340Y-131170775D01*
X72184355Y-131349760D01*
X72043727Y-131560224D01*
X71946861Y-131794079D01*
X71897480Y-132042339D01*
X71897480Y-132150828D01*
X71363983Y-132150828D01*
X72893611Y-130621200D01*
X86323068Y-130621200D01*
X86323068Y-132421200D01*
X86335328Y-132545682D01*
X86371638Y-132665380D01*
X86430603Y-132775694D01*
X86509955Y-132872385D01*
X86606646Y-132951737D01*
X86716960Y-133010702D01*
X86836658Y-133047012D01*
X86961140Y-133059272D01*
X88761140Y-133059272D01*
X88885622Y-133047012D01*
X89005320Y-133010702D01*
X89115634Y-132951737D01*
X89212325Y-132872385D01*
X89291677Y-132775694D01*
X89350642Y-132665380D01*
X89356196Y-132647073D01*
X89422635Y-132713512D01*
X89674045Y-132881499D01*
X89953397Y-132997211D01*
X90249956Y-133056200D01*
X90552324Y-133056200D01*
X90848883Y-132997211D01*
X91128235Y-132881499D01*
X91379645Y-132713512D01*
X91593452Y-132499705D01*
X91761439Y-132248295D01*
X91877151Y-131968943D01*
X91936140Y-131672384D01*
X91936140Y-131370016D01*
X91877151Y-131073457D01*
X91761439Y-130794105D01*
X91632117Y-130600561D01*
X93770397Y-130600561D01*
X93770397Y-132400561D01*
X93782657Y-132525043D01*
X93818967Y-132644741D01*
X93877932Y-132755055D01*
X93957284Y-132851746D01*
X94053975Y-132931098D01*
X94164289Y-132990063D01*
X94283987Y-133026373D01*
X94408469Y-133038633D01*
X96208469Y-133038633D01*
X96332951Y-133026373D01*
X96452649Y-132990063D01*
X96562963Y-132931098D01*
X96659654Y-132851746D01*
X96739006Y-132755055D01*
X96797971Y-132644741D01*
X96803525Y-132626434D01*
X96869964Y-132692873D01*
X97121374Y-132860860D01*
X97400726Y-132976572D01*
X97697285Y-133035561D01*
X97999653Y-133035561D01*
X98296212Y-132976572D01*
X98575564Y-132860860D01*
X98826974Y-132692873D01*
X99040781Y-132479066D01*
X99208768Y-132227656D01*
X99324480Y-131948304D01*
X99383469Y-131651745D01*
X99383469Y-131349377D01*
X99324480Y-131052818D01*
X99208768Y-130773466D01*
X99040781Y-130522056D01*
X98826974Y-130308249D01*
X98575564Y-130140262D01*
X98296212Y-130024550D01*
X97999653Y-129965561D01*
X97697285Y-129965561D01*
X97400726Y-130024550D01*
X97121374Y-130140262D01*
X96869964Y-130308249D01*
X96803525Y-130374688D01*
X96797971Y-130356381D01*
X96739006Y-130246067D01*
X96659654Y-130149376D01*
X96562963Y-130070024D01*
X96452649Y-130011059D01*
X96332951Y-129974749D01*
X96208469Y-129962489D01*
X94408469Y-129962489D01*
X94283987Y-129974749D01*
X94164289Y-130011059D01*
X94053975Y-130070024D01*
X93957284Y-130149376D01*
X93877932Y-130246067D01*
X93818967Y-130356381D01*
X93782657Y-130476079D01*
X93770397Y-130600561D01*
X91632117Y-130600561D01*
X91593452Y-130542695D01*
X91379645Y-130328888D01*
X91128235Y-130160901D01*
X90848883Y-130045189D01*
X90552324Y-129986200D01*
X90249956Y-129986200D01*
X89953397Y-130045189D01*
X89674045Y-130160901D01*
X89422635Y-130328888D01*
X89356196Y-130395327D01*
X89350642Y-130377020D01*
X89291677Y-130266706D01*
X89212325Y-130170015D01*
X89115634Y-130090663D01*
X89005320Y-130031698D01*
X88885622Y-129995388D01*
X88761140Y-129983128D01*
X86961140Y-129983128D01*
X86836658Y-129995388D01*
X86716960Y-130031698D01*
X86606646Y-130090663D01*
X86509955Y-130170015D01*
X86430603Y-130266706D01*
X86371638Y-130377020D01*
X86335328Y-130496718D01*
X86323068Y-130621200D01*
X72893611Y-130621200D01*
X74476826Y-129037985D01*
X79486860Y-129037985D01*
X79486860Y-129320655D01*
X79542007Y-129597894D01*
X79650180Y-129859047D01*
X79807223Y-130094079D01*
X80007101Y-130293957D01*
X80242133Y-130451000D01*
X80503286Y-130559173D01*
X80780525Y-130614320D01*
X81063195Y-130614320D01*
X81340434Y-130559173D01*
X81601587Y-130451000D01*
X81836619Y-130293957D01*
X82036497Y-130094079D01*
X82193540Y-129859047D01*
X82301713Y-129597894D01*
X82356860Y-129320655D01*
X82356860Y-129037985D01*
X82301713Y-128760746D01*
X82193540Y-128499593D01*
X82036497Y-128264561D01*
X81836619Y-128064683D01*
X81601587Y-127907640D01*
X81340434Y-127799467D01*
X81063195Y-127744320D01*
X80780525Y-127744320D01*
X80503286Y-127799467D01*
X80242133Y-127907640D01*
X80007101Y-128064683D01*
X79807223Y-128264561D01*
X79650180Y-128499593D01*
X79542007Y-128760746D01*
X79486860Y-129037985D01*
X74476826Y-129037985D01*
X78089992Y-125424820D01*
X78625538Y-125424820D01*
X78703439Y-125488752D01*
X78952732Y-125622002D01*
X79223231Y-125704056D01*
X79434048Y-125724820D01*
X79575032Y-125724820D01*
X79785849Y-125704056D01*
X80056348Y-125622002D01*
X80305641Y-125488752D01*
X80524148Y-125309428D01*
X80703472Y-125090921D01*
X80836722Y-124841628D01*
X80918776Y-124571129D01*
X80946483Y-124289820D01*
X80918776Y-124008511D01*
X80836722Y-123738012D01*
X80703472Y-123488719D01*
X80524148Y-123270212D01*
X80305641Y-123090888D01*
X80056348Y-122957638D01*
X79785849Y-122875584D01*
X79575032Y-122854820D01*
X79434048Y-122854820D01*
X79223231Y-122875584D01*
X78952732Y-122957638D01*
X78703439Y-123090888D01*
X78625538Y-123154820D01*
X77675603Y-123154820D01*
X77619859Y-123149330D01*
X77564115Y-123154820D01*
X77564108Y-123154820D01*
X77418353Y-123169176D01*
X77397360Y-123171243D01*
X77347565Y-123186349D01*
X77183413Y-123236144D01*
X76986237Y-123341536D01*
X76813411Y-123483371D01*
X76777869Y-123526679D01*
X65942340Y-134362209D01*
X65899032Y-134397751D01*
X65757197Y-134570577D01*
X65747534Y-134588656D01*
X65651804Y-134767754D01*
X65586903Y-134981702D01*
X65564989Y-135204200D01*
X65570481Y-135259961D01*
X65570480Y-146973207D01*
X63557068Y-148986620D01*
X63189012Y-148986620D01*
X63081874Y-148898694D01*
X63027069Y-148869400D01*
X63081874Y-148840106D01*
X63307994Y-148654534D01*
X63493566Y-148428414D01*
X63631459Y-148170434D01*
X63716373Y-147890511D01*
X63745045Y-147599400D01*
X63716373Y-147308289D01*
X63631459Y-147028366D01*
X63493566Y-146770386D01*
X63307994Y-146544266D01*
X63278173Y-146519793D01*
X63347040Y-146498902D01*
X63457354Y-146439937D01*
X63554045Y-146360585D01*
X63633397Y-146263894D01*
X63692362Y-146153580D01*
X63728672Y-146033882D01*
X63740932Y-145909400D01*
X63737860Y-145345150D01*
X63579110Y-145186400D01*
X62379860Y-145186400D01*
X62379860Y-145206400D01*
X62125860Y-145206400D01*
X62125860Y-145186400D01*
X60926610Y-145186400D01*
X60767860Y-145345150D01*
X60764788Y-145909400D01*
X60777048Y-146033882D01*
X60813358Y-146153580D01*
X60872323Y-146263894D01*
X60951675Y-146360585D01*
X61048366Y-146439937D01*
X61158680Y-146498902D01*
X61227547Y-146519793D01*
X61197726Y-146544266D01*
X61012154Y-146770386D01*
X60874261Y-147028366D01*
X60789347Y-147308289D01*
X60760675Y-147599400D01*
X58603277Y-147599400D01*
X58592972Y-144209400D01*
X60764788Y-144209400D01*
X60767860Y-144773650D01*
X60926610Y-144932400D01*
X62125860Y-144932400D01*
X62125860Y-143733150D01*
X62379860Y-143733150D01*
X62379860Y-144932400D01*
X63579110Y-144932400D01*
X63737860Y-144773650D01*
X63740932Y-144209400D01*
X63728672Y-144084918D01*
X63692362Y-143965220D01*
X63633397Y-143854906D01*
X63554045Y-143758215D01*
X63457354Y-143678863D01*
X63347040Y-143619898D01*
X63227342Y-143583588D01*
X63102860Y-143571328D01*
X62538610Y-143574400D01*
X62379860Y-143733150D01*
X62125860Y-143733150D01*
X61967110Y-143574400D01*
X61402860Y-143571328D01*
X61278378Y-143583588D01*
X61158680Y-143619898D01*
X61048366Y-143678863D01*
X60951675Y-143758215D01*
X60872323Y-143854906D01*
X60813358Y-143965220D01*
X60777048Y-144084918D01*
X60764788Y-144209400D01*
X58592972Y-144209400D01*
X58580665Y-140161380D01*
X60625088Y-140161380D01*
X60637348Y-140285862D01*
X60673658Y-140405560D01*
X60732623Y-140515874D01*
X60811975Y-140612565D01*
X60908666Y-140691917D01*
X61018980Y-140750882D01*
X61138678Y-140787192D01*
X61263160Y-140799452D01*
X61827410Y-140796380D01*
X61986160Y-140637630D01*
X61986160Y-139438380D01*
X62240160Y-139438380D01*
X62240160Y-140637630D01*
X62398910Y-140796380D01*
X62963160Y-140799452D01*
X63087642Y-140787192D01*
X63207340Y-140750882D01*
X63317654Y-140691917D01*
X63414345Y-140612565D01*
X63493697Y-140515874D01*
X63552662Y-140405560D01*
X63588972Y-140285862D01*
X63601232Y-140161380D01*
X63598160Y-139597130D01*
X63439410Y-139438380D01*
X62240160Y-139438380D01*
X61986160Y-139438380D01*
X60786910Y-139438380D01*
X60628160Y-139597130D01*
X60625088Y-140161380D01*
X58580665Y-140161380D01*
X58562637Y-134231380D01*
X60620975Y-134231380D01*
X60649647Y-134522491D01*
X60734561Y-134802414D01*
X60872454Y-135060394D01*
X61058026Y-135286514D01*
X61284146Y-135472086D01*
X61338951Y-135501380D01*
X61284146Y-135530674D01*
X61058026Y-135716246D01*
X60872454Y-135942366D01*
X60734561Y-136200346D01*
X60649647Y-136480269D01*
X60620975Y-136771380D01*
X60649647Y-137062491D01*
X60734561Y-137342414D01*
X60872454Y-137600394D01*
X61058026Y-137826514D01*
X61087847Y-137850987D01*
X61018980Y-137871878D01*
X60908666Y-137930843D01*
X60811975Y-138010195D01*
X60732623Y-138106886D01*
X60673658Y-138217200D01*
X60637348Y-138336898D01*
X60625088Y-138461380D01*
X60628160Y-139025630D01*
X60786910Y-139184380D01*
X61986160Y-139184380D01*
X61986160Y-139164380D01*
X62240160Y-139164380D01*
X62240160Y-139184380D01*
X63439410Y-139184380D01*
X63598160Y-139025630D01*
X63601232Y-138461380D01*
X63588972Y-138336898D01*
X63552662Y-138217200D01*
X63493697Y-138106886D01*
X63414345Y-138010195D01*
X63317654Y-137930843D01*
X63207340Y-137871878D01*
X63138473Y-137850987D01*
X63168294Y-137826514D01*
X63353866Y-137600394D01*
X63491759Y-137342414D01*
X63576673Y-137062491D01*
X63605345Y-136771380D01*
X63576673Y-136480269D01*
X63491759Y-136200346D01*
X63353866Y-135942366D01*
X63168294Y-135716246D01*
X62942174Y-135530674D01*
X62887369Y-135501380D01*
X62942174Y-135472086D01*
X63168294Y-135286514D01*
X63353866Y-135060394D01*
X63491759Y-134802414D01*
X63576673Y-134522491D01*
X63605345Y-134231380D01*
X63576673Y-133940269D01*
X63491759Y-133660346D01*
X63353866Y-133402366D01*
X63168294Y-133176246D01*
X62942174Y-132990674D01*
X62684194Y-132852781D01*
X62404271Y-132767867D01*
X62186110Y-132746380D01*
X62040210Y-132746380D01*
X61822049Y-132767867D01*
X61542126Y-132852781D01*
X61284146Y-132990674D01*
X61058026Y-133176246D01*
X60872454Y-133402366D01*
X60734561Y-133660346D01*
X60649647Y-133940269D01*
X60620975Y-134231380D01*
X58562637Y-134231380D01*
X58539511Y-126624080D01*
X60674315Y-126624080D01*
X60702987Y-126915191D01*
X60787901Y-127195114D01*
X60925794Y-127453094D01*
X61111366Y-127679214D01*
X61141187Y-127703687D01*
X61072320Y-127724578D01*
X60962006Y-127783543D01*
X60865315Y-127862895D01*
X60785963Y-127959586D01*
X60726998Y-128069900D01*
X60690688Y-128189598D01*
X60678428Y-128314080D01*
X60678428Y-130014080D01*
X60690688Y-130138562D01*
X60726998Y-130258260D01*
X60785963Y-130368574D01*
X60865315Y-130465265D01*
X60962006Y-130544617D01*
X61072320Y-130603582D01*
X61192018Y-130639892D01*
X61316500Y-130652152D01*
X63016500Y-130652152D01*
X63140982Y-130639892D01*
X63260680Y-130603582D01*
X63370994Y-130544617D01*
X63467685Y-130465265D01*
X63547037Y-130368574D01*
X63606002Y-130258260D01*
X63642312Y-130138562D01*
X63654572Y-130014080D01*
X63654572Y-128314080D01*
X63642312Y-128189598D01*
X63606002Y-128069900D01*
X63547037Y-127959586D01*
X63467685Y-127862895D01*
X63370994Y-127783543D01*
X63260680Y-127724578D01*
X63191813Y-127703687D01*
X63221634Y-127679214D01*
X63407206Y-127453094D01*
X63457200Y-127359560D01*
X66134868Y-127359560D01*
X66134868Y-129759560D01*
X66147128Y-129884042D01*
X66183438Y-130003740D01*
X66242403Y-130114054D01*
X66321755Y-130210745D01*
X66418446Y-130290097D01*
X66528760Y-130349062D01*
X66648458Y-130385372D01*
X66772940Y-130397632D01*
X69172940Y-130397632D01*
X69297422Y-130385372D01*
X69417120Y-130349062D01*
X69527434Y-130290097D01*
X69624125Y-130210745D01*
X69703477Y-130114054D01*
X69762442Y-130003740D01*
X69798752Y-129884042D01*
X69811012Y-129759560D01*
X69811012Y-127359560D01*
X69798752Y-127235078D01*
X69762442Y-127115380D01*
X69703477Y-127005066D01*
X69624125Y-126908375D01*
X69527434Y-126829023D01*
X69417120Y-126770058D01*
X69297422Y-126733748D01*
X69172940Y-126721488D01*
X66772940Y-126721488D01*
X66648458Y-126733748D01*
X66528760Y-126770058D01*
X66418446Y-126829023D01*
X66321755Y-126908375D01*
X66242403Y-127005066D01*
X66183438Y-127115380D01*
X66147128Y-127235078D01*
X66134868Y-127359560D01*
X63457200Y-127359560D01*
X63545099Y-127195114D01*
X63630013Y-126915191D01*
X63658685Y-126624080D01*
X63630013Y-126332969D01*
X63545099Y-126053046D01*
X63407206Y-125795066D01*
X63221634Y-125568946D01*
X62995514Y-125383374D01*
X62737534Y-125245481D01*
X62457611Y-125160567D01*
X62239450Y-125139080D01*
X62093550Y-125139080D01*
X61875389Y-125160567D01*
X61595466Y-125245481D01*
X61337486Y-125383374D01*
X61111366Y-125568946D01*
X60925794Y-125795066D01*
X60787901Y-126053046D01*
X60702987Y-126332969D01*
X60674315Y-126624080D01*
X58539511Y-126624080D01*
X58514214Y-118303040D01*
X60681935Y-118303040D01*
X60710607Y-118594151D01*
X60795521Y-118874074D01*
X60933414Y-119132054D01*
X61118986Y-119358174D01*
X61148807Y-119382647D01*
X61079940Y-119403538D01*
X60969626Y-119462503D01*
X60872935Y-119541855D01*
X60793583Y-119638546D01*
X60734618Y-119748860D01*
X60698308Y-119868558D01*
X60686048Y-119993040D01*
X60686048Y-121693040D01*
X60698308Y-121817522D01*
X60734618Y-121937220D01*
X60793583Y-122047534D01*
X60872935Y-122144225D01*
X60969626Y-122223577D01*
X61079940Y-122282542D01*
X61199638Y-122318852D01*
X61324120Y-122331112D01*
X63024120Y-122331112D01*
X63148602Y-122318852D01*
X63268300Y-122282542D01*
X63378614Y-122223577D01*
X63475305Y-122144225D01*
X63554657Y-122047534D01*
X63613622Y-121937220D01*
X63649932Y-121817522D01*
X63662192Y-121693040D01*
X63662192Y-120308005D01*
X83505140Y-120308005D01*
X83505140Y-120590675D01*
X83560287Y-120867914D01*
X83668460Y-121129067D01*
X83825503Y-121364099D01*
X84025381Y-121563977D01*
X84260413Y-121721020D01*
X84521566Y-121829193D01*
X84798805Y-121884340D01*
X85081475Y-121884340D01*
X85358714Y-121829193D01*
X85619867Y-121721020D01*
X85854899Y-121563977D01*
X86054777Y-121364099D01*
X86211820Y-121129067D01*
X86319993Y-120867914D01*
X86375140Y-120590675D01*
X86375140Y-120308005D01*
X86344479Y-120153860D01*
X88217908Y-120153860D01*
X88217908Y-121953860D01*
X88230168Y-122078342D01*
X88266478Y-122198040D01*
X88325443Y-122308354D01*
X88404795Y-122405045D01*
X88501486Y-122484397D01*
X88611800Y-122543362D01*
X88731498Y-122579672D01*
X88855980Y-122591932D01*
X90655980Y-122591932D01*
X90780462Y-122579672D01*
X90900160Y-122543362D01*
X91010474Y-122484397D01*
X91107165Y-122405045D01*
X91186517Y-122308354D01*
X91245482Y-122198040D01*
X91251036Y-122179733D01*
X91317475Y-122246172D01*
X91568885Y-122414159D01*
X91848237Y-122529871D01*
X92144796Y-122588860D01*
X92447164Y-122588860D01*
X92743723Y-122529871D01*
X93023075Y-122414159D01*
X93274485Y-122246172D01*
X93488292Y-122032365D01*
X93656279Y-121780955D01*
X93771991Y-121501603D01*
X93830980Y-121205044D01*
X93830980Y-120902676D01*
X93771991Y-120606117D01*
X93656279Y-120326765D01*
X93593360Y-120232600D01*
X93971008Y-120232600D01*
X93971008Y-122032600D01*
X93983268Y-122157082D01*
X94019578Y-122276780D01*
X94078543Y-122387094D01*
X94157895Y-122483785D01*
X94254586Y-122563137D01*
X94364900Y-122622102D01*
X94484598Y-122658412D01*
X94609080Y-122670672D01*
X96409080Y-122670672D01*
X96533562Y-122658412D01*
X96653260Y-122622102D01*
X96763574Y-122563137D01*
X96860265Y-122483785D01*
X96939617Y-122387094D01*
X96998582Y-122276780D01*
X97004136Y-122258473D01*
X97070575Y-122324912D01*
X97321985Y-122492899D01*
X97601337Y-122608611D01*
X97897896Y-122667600D01*
X98200264Y-122667600D01*
X98496823Y-122608611D01*
X98776175Y-122492899D01*
X99027585Y-122324912D01*
X99241392Y-122111105D01*
X99409379Y-121859695D01*
X99525091Y-121580343D01*
X99584080Y-121283784D01*
X99584080Y-120981416D01*
X99525091Y-120684857D01*
X99409379Y-120405505D01*
X99241392Y-120154095D01*
X99027585Y-119940288D01*
X98776175Y-119772301D01*
X98496823Y-119656589D01*
X98200264Y-119597600D01*
X97897896Y-119597600D01*
X97601337Y-119656589D01*
X97321985Y-119772301D01*
X97070575Y-119940288D01*
X97004136Y-120006727D01*
X96998582Y-119988420D01*
X96939617Y-119878106D01*
X96860265Y-119781415D01*
X96763574Y-119702063D01*
X96653260Y-119643098D01*
X96533562Y-119606788D01*
X96409080Y-119594528D01*
X94609080Y-119594528D01*
X94484598Y-119606788D01*
X94364900Y-119643098D01*
X94254586Y-119702063D01*
X94157895Y-119781415D01*
X94078543Y-119878106D01*
X94019578Y-119988420D01*
X93983268Y-120108118D01*
X93971008Y-120232600D01*
X93593360Y-120232600D01*
X93488292Y-120075355D01*
X93274485Y-119861548D01*
X93023075Y-119693561D01*
X92743723Y-119577849D01*
X92447164Y-119518860D01*
X92144796Y-119518860D01*
X91848237Y-119577849D01*
X91568885Y-119693561D01*
X91317475Y-119861548D01*
X91251036Y-119927987D01*
X91245482Y-119909680D01*
X91186517Y-119799366D01*
X91107165Y-119702675D01*
X91010474Y-119623323D01*
X90900160Y-119564358D01*
X90780462Y-119528048D01*
X90655980Y-119515788D01*
X88855980Y-119515788D01*
X88731498Y-119528048D01*
X88611800Y-119564358D01*
X88501486Y-119623323D01*
X88404795Y-119702675D01*
X88325443Y-119799366D01*
X88266478Y-119909680D01*
X88230168Y-120029378D01*
X88217908Y-120153860D01*
X86344479Y-120153860D01*
X86319993Y-120030766D01*
X86211820Y-119769613D01*
X86054777Y-119534581D01*
X85854899Y-119334703D01*
X85619867Y-119177660D01*
X85358714Y-119069487D01*
X85081475Y-119014340D01*
X84798805Y-119014340D01*
X84521566Y-119069487D01*
X84260413Y-119177660D01*
X84025381Y-119334703D01*
X83825503Y-119534581D01*
X83668460Y-119769613D01*
X83560287Y-120030766D01*
X83505140Y-120308005D01*
X63662192Y-120308005D01*
X63662192Y-119993040D01*
X63649932Y-119868558D01*
X63613622Y-119748860D01*
X63554657Y-119638546D01*
X63475305Y-119541855D01*
X63378614Y-119462503D01*
X63268300Y-119403538D01*
X63199433Y-119382647D01*
X63229254Y-119358174D01*
X63414826Y-119132054D01*
X63552719Y-118874074D01*
X63637633Y-118594151D01*
X63666305Y-118303040D01*
X63637633Y-118011929D01*
X63552719Y-117732006D01*
X63414826Y-117474026D01*
X63229254Y-117247906D01*
X63003134Y-117062334D01*
X62745154Y-116924441D01*
X62465231Y-116839527D01*
X62247070Y-116818040D01*
X62101170Y-116818040D01*
X61883009Y-116839527D01*
X61603086Y-116924441D01*
X61345106Y-117062334D01*
X61118986Y-117247906D01*
X60933414Y-117474026D01*
X60795521Y-117732006D01*
X60710607Y-118011929D01*
X60681935Y-118303040D01*
X58514214Y-118303040D01*
X58506786Y-115859560D01*
X66129062Y-115859560D01*
X66164492Y-116219283D01*
X66269419Y-116565182D01*
X66439811Y-116883964D01*
X66669121Y-117163379D01*
X66948536Y-117392689D01*
X67267318Y-117563081D01*
X67613217Y-117668008D01*
X67882801Y-117694560D01*
X68063079Y-117694560D01*
X68332663Y-117668008D01*
X68678562Y-117563081D01*
X68997344Y-117392689D01*
X69276759Y-117163379D01*
X69506069Y-116883964D01*
X69676461Y-116565182D01*
X69781388Y-116219283D01*
X69816818Y-115859560D01*
X69781388Y-115499837D01*
X69676461Y-115153938D01*
X69506069Y-114835156D01*
X69276759Y-114555741D01*
X68997344Y-114326431D01*
X68678562Y-114156039D01*
X68332663Y-114051112D01*
X68063079Y-114024560D01*
X67882801Y-114024560D01*
X67613217Y-114051112D01*
X67267318Y-114156039D01*
X66948536Y-114326431D01*
X66669121Y-114555741D01*
X66439811Y-114835156D01*
X66269419Y-115153938D01*
X66164492Y-115499837D01*
X66129062Y-115859560D01*
X58506786Y-115859560D01*
X58499347Y-113412700D01*
X87961368Y-113412700D01*
X87961368Y-115212700D01*
X87973628Y-115337182D01*
X88009938Y-115456880D01*
X88068903Y-115567194D01*
X88148255Y-115663885D01*
X88244946Y-115743237D01*
X88355260Y-115802202D01*
X88474958Y-115838512D01*
X88599440Y-115850772D01*
X90399440Y-115850772D01*
X90523922Y-115838512D01*
X90643620Y-115802202D01*
X90753934Y-115743237D01*
X90850625Y-115663885D01*
X90929977Y-115567194D01*
X90988942Y-115456880D01*
X90994496Y-115438573D01*
X91060935Y-115505012D01*
X91312345Y-115672999D01*
X91591697Y-115788711D01*
X91888256Y-115847700D01*
X92190624Y-115847700D01*
X92487183Y-115788711D01*
X92766535Y-115672999D01*
X93017945Y-115505012D01*
X93231752Y-115291205D01*
X93399739Y-115039795D01*
X93515451Y-114760443D01*
X93574440Y-114463884D01*
X93574440Y-114161516D01*
X93515451Y-113864957D01*
X93399739Y-113585605D01*
X93274025Y-113397460D01*
X93668748Y-113397460D01*
X93668748Y-115197460D01*
X93681008Y-115321942D01*
X93717318Y-115441640D01*
X93776283Y-115551954D01*
X93855635Y-115648645D01*
X93952326Y-115727997D01*
X94062640Y-115786962D01*
X94182338Y-115823272D01*
X94306820Y-115835532D01*
X96106820Y-115835532D01*
X96231302Y-115823272D01*
X96351000Y-115786962D01*
X96461314Y-115727997D01*
X96558005Y-115648645D01*
X96637357Y-115551954D01*
X96696322Y-115441640D01*
X96701876Y-115423333D01*
X96768315Y-115489772D01*
X97019725Y-115657759D01*
X97299077Y-115773471D01*
X97595636Y-115832460D01*
X97898004Y-115832460D01*
X98194563Y-115773471D01*
X98473915Y-115657759D01*
X98725325Y-115489772D01*
X98939132Y-115275965D01*
X99107119Y-115024555D01*
X99222831Y-114745203D01*
X99281820Y-114448644D01*
X99281820Y-114146276D01*
X99222831Y-113849717D01*
X99107119Y-113570365D01*
X98939132Y-113318955D01*
X98725325Y-113105148D01*
X98473915Y-112937161D01*
X98194563Y-112821449D01*
X97898004Y-112762460D01*
X97595636Y-112762460D01*
X97299077Y-112821449D01*
X97019725Y-112937161D01*
X96768315Y-113105148D01*
X96701876Y-113171587D01*
X96696322Y-113153280D01*
X96637357Y-113042966D01*
X96558005Y-112946275D01*
X96461314Y-112866923D01*
X96351000Y-112807958D01*
X96231302Y-112771648D01*
X96106820Y-112759388D01*
X94306820Y-112759388D01*
X94182338Y-112771648D01*
X94062640Y-112807958D01*
X93952326Y-112866923D01*
X93855635Y-112946275D01*
X93776283Y-113042966D01*
X93717318Y-113153280D01*
X93681008Y-113272978D01*
X93668748Y-113397460D01*
X93274025Y-113397460D01*
X93231752Y-113334195D01*
X93017945Y-113120388D01*
X92766535Y-112952401D01*
X92487183Y-112836689D01*
X92190624Y-112777700D01*
X91888256Y-112777700D01*
X91591697Y-112836689D01*
X91312345Y-112952401D01*
X91060935Y-113120388D01*
X90994496Y-113186827D01*
X90988942Y-113168520D01*
X90929977Y-113058206D01*
X90850625Y-112961515D01*
X90753934Y-112882163D01*
X90643620Y-112823198D01*
X90523922Y-112786888D01*
X90399440Y-112774628D01*
X88599440Y-112774628D01*
X88474958Y-112786888D01*
X88355260Y-112823198D01*
X88244946Y-112882163D01*
X88148255Y-112961515D01*
X88068903Y-113058206D01*
X88009938Y-113168520D01*
X87973628Y-113288218D01*
X87961368Y-113412700D01*
X58499347Y-113412700D01*
X58494889Y-111946479D01*
X58633376Y-111946479D01*
X58674034Y-112080527D01*
X58794243Y-112334860D01*
X58961761Y-112560854D01*
X59170149Y-112749825D01*
X59411399Y-112894510D01*
X59676240Y-112989349D01*
X59898280Y-112868064D01*
X59898280Y-111724440D01*
X60152280Y-111724440D01*
X60152280Y-112868064D01*
X60374320Y-112989349D01*
X60639161Y-112894510D01*
X60880411Y-112749825D01*
X61088799Y-112560854D01*
X61256317Y-112334860D01*
X61376526Y-112080527D01*
X61417184Y-111946479D01*
X61295195Y-111724440D01*
X60152280Y-111724440D01*
X59898280Y-111724440D01*
X58755365Y-111724440D01*
X58633376Y-111946479D01*
X58494889Y-111946479D01*
X58492767Y-111248401D01*
X58633376Y-111248401D01*
X58755365Y-111470440D01*
X59898280Y-111470440D01*
X59898280Y-110326816D01*
X60152280Y-110326816D01*
X60152280Y-111470440D01*
X61295195Y-111470440D01*
X61303070Y-111456105D01*
X73830280Y-111456105D01*
X73830280Y-111738775D01*
X73885427Y-112016014D01*
X73993600Y-112277167D01*
X74150643Y-112512199D01*
X74350521Y-112712077D01*
X74585553Y-112869120D01*
X74846706Y-112977293D01*
X75123945Y-113032440D01*
X75406615Y-113032440D01*
X75683854Y-112977293D01*
X75945007Y-112869120D01*
X76180039Y-112712077D01*
X76379917Y-112512199D01*
X76536960Y-112277167D01*
X76645133Y-112016014D01*
X76700280Y-111738775D01*
X76700280Y-111456105D01*
X76698765Y-111448485D01*
X78069540Y-111448485D01*
X78069540Y-111731155D01*
X78124687Y-112008394D01*
X78232860Y-112269547D01*
X78389903Y-112504579D01*
X78589781Y-112704457D01*
X78824813Y-112861500D01*
X79085966Y-112969673D01*
X79363205Y-113024820D01*
X79645875Y-113024820D01*
X79923114Y-112969673D01*
X80184267Y-112861500D01*
X80419299Y-112704457D01*
X80619177Y-112504579D01*
X80776220Y-112269547D01*
X80884393Y-112008394D01*
X80939540Y-111731155D01*
X80939540Y-111448485D01*
X80884393Y-111171246D01*
X80776220Y-110910093D01*
X80619177Y-110675061D01*
X80419299Y-110475183D01*
X80184267Y-110318140D01*
X79923114Y-110209967D01*
X79645875Y-110154820D01*
X79363205Y-110154820D01*
X79085966Y-110209967D01*
X78824813Y-110318140D01*
X78589781Y-110475183D01*
X78389903Y-110675061D01*
X78232860Y-110910093D01*
X78124687Y-111171246D01*
X78069540Y-111448485D01*
X76698765Y-111448485D01*
X76645133Y-111178866D01*
X76536960Y-110917713D01*
X76379917Y-110682681D01*
X76180039Y-110482803D01*
X75945007Y-110325760D01*
X75683854Y-110217587D01*
X75406615Y-110162440D01*
X75123945Y-110162440D01*
X74846706Y-110217587D01*
X74585553Y-110325760D01*
X74350521Y-110482803D01*
X74150643Y-110682681D01*
X73993600Y-110917713D01*
X73885427Y-111178866D01*
X73830280Y-111456105D01*
X61303070Y-111456105D01*
X61417184Y-111248401D01*
X61376526Y-111114353D01*
X61256317Y-110860020D01*
X61088799Y-110634026D01*
X60880411Y-110445055D01*
X60639161Y-110300370D01*
X60374320Y-110205531D01*
X60152280Y-110326816D01*
X59898280Y-110326816D01*
X59676240Y-110205531D01*
X59411399Y-110300370D01*
X59170149Y-110445055D01*
X58961761Y-110634026D01*
X58794243Y-110860020D01*
X58674034Y-111114353D01*
X58633376Y-111248401D01*
X58492767Y-111248401D01*
X58482130Y-107749340D01*
X83498197Y-107749340D01*
X83525904Y-108030649D01*
X83607958Y-108301148D01*
X83741208Y-108550441D01*
X83920532Y-108768948D01*
X84139039Y-108948272D01*
X84388332Y-109081522D01*
X84658831Y-109163576D01*
X84869648Y-109184340D01*
X85010632Y-109184340D01*
X85221449Y-109163576D01*
X85491948Y-109081522D01*
X85741241Y-108948272D01*
X85959748Y-108768948D01*
X86139072Y-108550441D01*
X86272322Y-108301148D01*
X86354376Y-108030649D01*
X86382083Y-107749340D01*
X86354376Y-107468031D01*
X86272322Y-107197532D01*
X86139072Y-106948239D01*
X85959748Y-106729732D01*
X85780516Y-106582640D01*
X87816588Y-106582640D01*
X87816588Y-108382640D01*
X87828848Y-108507122D01*
X87865158Y-108626820D01*
X87924123Y-108737134D01*
X88003475Y-108833825D01*
X88100166Y-108913177D01*
X88210480Y-108972142D01*
X88330178Y-109008452D01*
X88454660Y-109020712D01*
X90254660Y-109020712D01*
X90379142Y-109008452D01*
X90498840Y-108972142D01*
X90609154Y-108913177D01*
X90705845Y-108833825D01*
X90785197Y-108737134D01*
X90844162Y-108626820D01*
X90849716Y-108608513D01*
X90916155Y-108674952D01*
X91167565Y-108842939D01*
X91446917Y-108958651D01*
X91743476Y-109017640D01*
X92045844Y-109017640D01*
X92342403Y-108958651D01*
X92621755Y-108842939D01*
X92873165Y-108674952D01*
X93086972Y-108461145D01*
X93254959Y-108209735D01*
X93370671Y-107930383D01*
X93429660Y-107633824D01*
X93429660Y-107331456D01*
X93370671Y-107034897D01*
X93254959Y-106755545D01*
X93136034Y-106577560D01*
X93567148Y-106577560D01*
X93567148Y-108377560D01*
X93579408Y-108502042D01*
X93615718Y-108621740D01*
X93674683Y-108732054D01*
X93754035Y-108828745D01*
X93850726Y-108908097D01*
X93961040Y-108967062D01*
X94080738Y-109003372D01*
X94205220Y-109015632D01*
X96005220Y-109015632D01*
X96129702Y-109003372D01*
X96249400Y-108967062D01*
X96359714Y-108908097D01*
X96456405Y-108828745D01*
X96535757Y-108732054D01*
X96594722Y-108621740D01*
X96600276Y-108603433D01*
X96666715Y-108669872D01*
X96918125Y-108837859D01*
X97197477Y-108953571D01*
X97494036Y-109012560D01*
X97796404Y-109012560D01*
X98092963Y-108953571D01*
X98372315Y-108837859D01*
X98623725Y-108669872D01*
X98837532Y-108456065D01*
X99005519Y-108204655D01*
X99121231Y-107925303D01*
X99180220Y-107628744D01*
X99180220Y-107326376D01*
X99121231Y-107029817D01*
X99005519Y-106750465D01*
X98837532Y-106499055D01*
X98623725Y-106285248D01*
X98372315Y-106117261D01*
X98092963Y-106001549D01*
X97796404Y-105942560D01*
X97494036Y-105942560D01*
X97197477Y-106001549D01*
X96918125Y-106117261D01*
X96666715Y-106285248D01*
X96600276Y-106351687D01*
X96594722Y-106333380D01*
X96535757Y-106223066D01*
X96456405Y-106126375D01*
X96359714Y-106047023D01*
X96249400Y-105988058D01*
X96129702Y-105951748D01*
X96005220Y-105939488D01*
X94205220Y-105939488D01*
X94080738Y-105951748D01*
X93961040Y-105988058D01*
X93850726Y-106047023D01*
X93754035Y-106126375D01*
X93674683Y-106223066D01*
X93615718Y-106333380D01*
X93579408Y-106453078D01*
X93567148Y-106577560D01*
X93136034Y-106577560D01*
X93086972Y-106504135D01*
X92873165Y-106290328D01*
X92621755Y-106122341D01*
X92342403Y-106006629D01*
X92045844Y-105947640D01*
X91743476Y-105947640D01*
X91446917Y-106006629D01*
X91167565Y-106122341D01*
X90916155Y-106290328D01*
X90849716Y-106356767D01*
X90844162Y-106338460D01*
X90785197Y-106228146D01*
X90705845Y-106131455D01*
X90609154Y-106052103D01*
X90498840Y-105993138D01*
X90379142Y-105956828D01*
X90254660Y-105944568D01*
X88454660Y-105944568D01*
X88330178Y-105956828D01*
X88210480Y-105993138D01*
X88100166Y-106052103D01*
X88003475Y-106131455D01*
X87924123Y-106228146D01*
X87865158Y-106338460D01*
X87828848Y-106458158D01*
X87816588Y-106582640D01*
X85780516Y-106582640D01*
X85741241Y-106550408D01*
X85491948Y-106417158D01*
X85221449Y-106335104D01*
X85010632Y-106314340D01*
X84869648Y-106314340D01*
X84658831Y-106335104D01*
X84388332Y-106417158D01*
X84139039Y-106550408D01*
X83920532Y-106729732D01*
X83741208Y-106948239D01*
X83607958Y-107197532D01*
X83525904Y-107468031D01*
X83498197Y-107749340D01*
X58482130Y-107749340D01*
X58476498Y-105897087D01*
X58483923Y-105908199D01*
X58683801Y-106108077D01*
X58918833Y-106265120D01*
X59179986Y-106373293D01*
X59457225Y-106428440D01*
X59739895Y-106428440D01*
X60017134Y-106373293D01*
X60278287Y-106265120D01*
X60513319Y-106108077D01*
X60713197Y-105908199D01*
X60870240Y-105673167D01*
X60978413Y-105412014D01*
X60992244Y-105342479D01*
X73446656Y-105342479D01*
X73487314Y-105476527D01*
X73607523Y-105730860D01*
X73775041Y-105956854D01*
X73983429Y-106145825D01*
X74224679Y-106290510D01*
X74489520Y-106385349D01*
X74711560Y-106264064D01*
X74711560Y-105120440D01*
X74965560Y-105120440D01*
X74965560Y-106264064D01*
X75187600Y-106385349D01*
X75452441Y-106290510D01*
X75693691Y-106145825D01*
X75845118Y-106008507D01*
X77160318Y-106008507D01*
X77213706Y-106237181D01*
X77443614Y-106343075D01*
X77689764Y-106402082D01*
X77851240Y-106408370D01*
X77851240Y-106519541D01*
X77900621Y-106767801D01*
X77997487Y-107001656D01*
X78138115Y-107212120D01*
X78317100Y-107391105D01*
X78527564Y-107531733D01*
X78761419Y-107628599D01*
X79009679Y-107677980D01*
X79262801Y-107677980D01*
X79511061Y-107628599D01*
X79744916Y-107531733D01*
X79955380Y-107391105D01*
X80134365Y-107212120D01*
X80274993Y-107001656D01*
X80371859Y-106767801D01*
X80421240Y-106519541D01*
X80421240Y-106411052D01*
X81056240Y-106411052D01*
X81180722Y-106398792D01*
X81300420Y-106362482D01*
X81410734Y-106303517D01*
X81507425Y-106224165D01*
X81586777Y-106127474D01*
X81645742Y-106017160D01*
X81682052Y-105897462D01*
X81694312Y-105772980D01*
X81694312Y-104472980D01*
X81682052Y-104348498D01*
X81645742Y-104228800D01*
X81586777Y-104118486D01*
X81507425Y-104021795D01*
X81410734Y-103942443D01*
X81300420Y-103883478D01*
X81180722Y-103847168D01*
X81056240Y-103834908D01*
X79756240Y-103834908D01*
X79631758Y-103847168D01*
X79512060Y-103883478D01*
X79401746Y-103942443D01*
X79305055Y-104021795D01*
X79225703Y-104118486D01*
X79166738Y-104228800D01*
X79130428Y-104348498D01*
X79118168Y-104472980D01*
X79118168Y-104813276D01*
X79115510Y-104796531D01*
X79027818Y-104559084D01*
X78980441Y-104470446D01*
X78751767Y-104417058D01*
X78045845Y-105122980D01*
X78059988Y-105137123D01*
X77880383Y-105316728D01*
X77866240Y-105302585D01*
X77160318Y-106008507D01*
X75845118Y-106008507D01*
X75902079Y-105956854D01*
X76069597Y-105730860D01*
X76189806Y-105476527D01*
X76230464Y-105342479D01*
X76151876Y-105199435D01*
X76577288Y-105199435D01*
X76616970Y-105449429D01*
X76704662Y-105686876D01*
X76752039Y-105775514D01*
X76980713Y-105828902D01*
X77686635Y-105122980D01*
X76980713Y-104417058D01*
X76752039Y-104470446D01*
X76646145Y-104700354D01*
X76587138Y-104946504D01*
X76577288Y-105199435D01*
X76151876Y-105199435D01*
X76108475Y-105120440D01*
X74965560Y-105120440D01*
X74711560Y-105120440D01*
X73568645Y-105120440D01*
X73446656Y-105342479D01*
X60992244Y-105342479D01*
X61033560Y-105134775D01*
X61033560Y-104852105D01*
X60992245Y-104644401D01*
X73446656Y-104644401D01*
X73568645Y-104866440D01*
X74711560Y-104866440D01*
X74711560Y-103722816D01*
X74965560Y-103722816D01*
X74965560Y-104866440D01*
X76108475Y-104866440D01*
X76230464Y-104644401D01*
X76189806Y-104510353D01*
X76069597Y-104256020D01*
X76055835Y-104237453D01*
X77160318Y-104237453D01*
X77866240Y-104943375D01*
X78572162Y-104237453D01*
X78518774Y-104008779D01*
X78288866Y-103902885D01*
X78042716Y-103843878D01*
X77789785Y-103834028D01*
X77539791Y-103873710D01*
X77302344Y-103961402D01*
X77213706Y-104008779D01*
X77160318Y-104237453D01*
X76055835Y-104237453D01*
X75902079Y-104030026D01*
X75693691Y-103841055D01*
X75452441Y-103696370D01*
X75187600Y-103601531D01*
X74965560Y-103722816D01*
X74711560Y-103722816D01*
X74489520Y-103601531D01*
X74224679Y-103696370D01*
X73983429Y-103841055D01*
X73775041Y-104030026D01*
X73607523Y-104256020D01*
X73487314Y-104510353D01*
X73446656Y-104644401D01*
X60992245Y-104644401D01*
X60978413Y-104574866D01*
X60870240Y-104313713D01*
X60713197Y-104078681D01*
X60513319Y-103878803D01*
X60278287Y-103721760D01*
X60017134Y-103613587D01*
X59739895Y-103558440D01*
X59457225Y-103558440D01*
X59179986Y-103613587D01*
X58918833Y-103721760D01*
X58683801Y-103878803D01*
X58483923Y-104078681D01*
X58471029Y-104097979D01*
X58463569Y-101644239D01*
X99834028Y-101986726D01*
%TD*%
M02*
