%TF.GenerationSoftware,KiCad,Pcbnew,(5.1.0)-1*%
%TF.CreationDate,2021-11-19T17:00:51+02:00*%
%TF.ProjectId,25-station-led-alarm,32352d73-7461-4746-996f-6e2d6c65642d,rev?*%
%TF.SameCoordinates,Original*%
%TF.FileFunction,Soldermask,Top*%
%TF.FilePolarity,Negative*%
%FSLAX46Y46*%
G04 Gerber Fmt 4.6, Leading zero omitted, Abs format (unit mm)*
G04 Created by KiCad (PCBNEW (5.1.0)-1) date 2021-11-19 17:00:51*
%MOMM*%
%LPD*%
G04 APERTURE LIST*
%ADD10R,1.800000X1.800000*%
%ADD11C,1.800000*%
%ADD12R,1.700000X1.700000*%
%ADD13O,1.700000X1.700000*%
%ADD14R,1.300000X1.300000*%
%ADD15C,1.300000*%
%ADD16R,2.400000X2.400000*%
%ADD17O,2.400000X2.400000*%
%ADD18C,1.600000*%
%ADD19O,1.600000X1.600000*%
G04 APERTURE END LIST*
D10*
%TO.C,D1*%
X95105220Y-107477560D03*
D11*
X97645220Y-107477560D03*
%TD*%
D12*
%TO.C,J1*%
X62252860Y-145059400D03*
D13*
X62252860Y-147599400D03*
X62252860Y-150139400D03*
X62252860Y-152679400D03*
%TD*%
D12*
%TO.C,J2*%
X62113160Y-139311380D03*
D13*
X62113160Y-136771380D03*
X62113160Y-134231380D03*
%TD*%
D12*
%TO.C,J3*%
X62166500Y-129164080D03*
D13*
X62166500Y-126624080D03*
%TD*%
%TO.C,J4*%
X62174120Y-118303040D03*
D12*
X62174120Y-120843040D03*
%TD*%
D14*
%TO.C,Q3*%
X71912480Y-133438900D03*
D15*
X74452480Y-133438900D03*
X73182480Y-132168900D03*
%TD*%
%TO.C,Q4*%
X70815200Y-146248120D03*
X69545200Y-144978120D03*
D14*
X72085200Y-144978120D03*
%TD*%
D10*
%TO.C,D2*%
X89354660Y-107482640D03*
D11*
X91894660Y-107482640D03*
%TD*%
%TO.C,D3*%
X97746820Y-114297460D03*
D10*
X95206820Y-114297460D03*
%TD*%
%TO.C,D4*%
X95509080Y-121132600D03*
D11*
X98049080Y-121132600D03*
%TD*%
%TO.C,D5*%
X97848469Y-131500561D03*
D10*
X95308469Y-131500561D03*
%TD*%
%TO.C,D6*%
X94973140Y-148722080D03*
D11*
X97513140Y-148722080D03*
%TD*%
%TO.C,D7*%
X97538540Y-139880340D03*
D10*
X94998540Y-139880340D03*
%TD*%
%TO.C,D8*%
X87861140Y-131521200D03*
D11*
X90401140Y-131521200D03*
%TD*%
D10*
%TO.C,D9*%
X89499440Y-114312700D03*
D11*
X92039440Y-114312700D03*
%TD*%
%TO.C,D10*%
X92295980Y-121053860D03*
D10*
X89755980Y-121053860D03*
%TD*%
D11*
%TO.C,D11*%
X90124280Y-148813520D03*
D10*
X87584280Y-148813520D03*
%TD*%
%TO.C,D12*%
X87782400Y-139801600D03*
D11*
X90322400Y-139801600D03*
%TD*%
D16*
%TO.C,D13*%
X67972940Y-128559560D03*
D17*
X67972940Y-115859560D03*
%TD*%
D15*
%TO.C,Q1*%
X79136240Y-106392980D03*
X77866240Y-105122980D03*
D14*
X80406240Y-105122980D03*
%TD*%
%TO.C,Q2*%
X79339440Y-146288760D03*
D15*
X76799440Y-146288760D03*
X78069440Y-147558760D03*
%TD*%
D18*
%TO.C,R2*%
X75265280Y-111597440D03*
D19*
X60025280Y-111597440D03*
%TD*%
D18*
%TO.C,R3*%
X80921860Y-129179320D03*
D19*
X80921860Y-141879320D03*
%TD*%
D18*
%TO.C,R4*%
X79504540Y-111589820D03*
D19*
X79504540Y-124289820D03*
%TD*%
%TO.C,R5*%
X66946780Y-152115520D03*
D18*
X79646780Y-152115520D03*
%TD*%
D19*
%TO.C,R6*%
X84940140Y-107749340D03*
D18*
X84940140Y-120449340D03*
%TD*%
D19*
%TO.C,R7*%
X74838560Y-104993440D03*
D18*
X59598560Y-104993440D03*
%TD*%
%TO.C,C3*%
X68940680Y-139214860D03*
X76440680Y-139214860D03*
%TD*%
M02*
