M48
; DRILL file {KiCad (5.1.0)-1} date 19-Nov-21 17:00:48
; FORMAT={-:-/ absolute / metric / decimal}
; #@! TF.CreationDate,2021-11-19T17:00:48+02:00
; #@! TF.GenerationSoftware,Kicad,Pcbnew,(5.1.0)-1
; #@! TF.FileFunction,Plated,1,2,PTH
FMAT,2
METRIC
T1C0.750
T2C0.800
T3C0.900
T4C1.000
T5C1.200
%
G90
G05
T1
X78.069Y-147.559
X73.182Y-132.169
X69.545Y-144.978
X70.815Y-146.248
X72.085Y-144.978
X76.799Y-146.289
X79.339Y-146.289
X77.866Y-105.123
X79.136Y-106.393
X80.406Y-105.123
X71.912Y-133.439
X74.452Y-133.439
T2
X79.505Y-111.59
X79.505Y-124.29
X59.599Y-104.993
X74.839Y-104.993
X60.025Y-111.597
X75.265Y-111.597
X68.941Y-139.215
X76.441Y-139.215
X84.94Y-107.749
X84.94Y-120.449
X66.947Y-152.116
X79.647Y-152.116
X80.922Y-129.179
X80.922Y-141.879
T3
X94.999Y-139.88
X97.539Y-139.88
X87.584Y-148.814
X90.124Y-148.814
X89.355Y-107.483
X91.895Y-107.483
X95.308Y-131.501
X97.848Y-131.501
X89.756Y-121.054
X92.296Y-121.054
X87.861Y-131.521
X90.401Y-131.521
X89.499Y-114.313
X92.039Y-114.313
X95.207Y-114.297
X97.747Y-114.297
X94.973Y-148.722
X97.513Y-148.722
X87.782Y-139.802
X90.322Y-139.802
X95.105Y-107.478
X97.645Y-107.478
X95.509Y-121.133
X98.049Y-121.133
T4
X62.113Y-134.231
X62.113Y-136.771
X62.113Y-139.311
X62.174Y-118.303
X62.174Y-120.843
X62.253Y-145.059
X62.253Y-147.599
X62.253Y-150.139
X62.253Y-152.679
X62.166Y-126.624
X62.166Y-129.164
T5
X67.973Y-115.86
X67.973Y-128.56
T0
M30
