M48
; DRILL file {KiCad (6.0.7)} date Wed Oct  5 08:16:57 2022
; FORMAT={-:-/ absolute / metric / decimal}
; #@! TF.CreationDate,2022-10-05T08:16:57+03:00
; #@! TF.GenerationSoftware,Kicad,Pcbnew,(6.0.7)
; #@! TF.FileFunction,Plated,1,2,PTH
FMAT,2
METRIC
; #@! TA.AperFunction,Plated,PTH,ViaDrill
T1C0.200
; #@! TA.AperFunction,Plated,PTH,ComponentDrill
T2C0.700
; #@! TA.AperFunction,Plated,PTH,ComponentDrill
T3C0.750
; #@! TA.AperFunction,Plated,PTH,ComponentDrill
T4C0.770
; #@! TA.AperFunction,Plated,PTH,ComponentDrill
T5C0.800
; #@! TA.AperFunction,Plated,PTH,ComponentDrill
T6C0.900
; #@! TA.AperFunction,Plated,PTH,ComponentDrill
T7C1.000
; #@! TA.AperFunction,Plated,PTH,ComponentDrill
T8C1.200
; #@! TA.AperFunction,Plated,PTH,ComponentDrill
T9C1.300
; #@! TA.AperFunction,Plated,PTH,ComponentDrill
T10C1.320
; #@! TA.AperFunction,Plated,PTH,ComponentDrill
T11C1.400
; #@! TA.AperFunction,Plated,PTH,ComponentDrill
T12C3.200
%
G90
G05
T1
X36.652Y-102.819
X37.668Y-84.963
X38.1Y-98.552
X38.1Y-100.01
X38.354Y-101.727
X38.478Y-112.017
X38.913Y-86.03
X38.938Y-87.325
X39.22Y-111.275
X39.243Y-106.172
X39.243Y-107.569
X39.573Y-102.057
X40.183Y-105.004
X40.259Y-95.631
X40.894Y-88.126
X40.894Y-89.125
X40.894Y-92.583
X40.894Y-100.965
X41.493Y-88.112
X41.529Y-89.125
X41.656Y-98.541
X41.656Y-99.84
X42.139Y-86.589
X42.799Y-93.218
X42.799Y-100.838
X42.824Y-89.789
X42.907Y-95.231
X42.926Y-98.541
X42.98Y-93.789
X43.51Y-85.674
X43.63Y-95.25
X44.171Y-102.184
X45.339Y-101.321
X45.466Y-99.06
X45.593Y-88.468
X46.027Y-98.753
X46.457Y-89.789
X46.711Y-92.38
X48.26Y-96.265
X48.285Y-113.97
X48.815Y-96.039
X49.149Y-113.157
X50.063Y-88.341
X54.483Y-98.027
X54.483Y-100.457
X55.118Y-98.027
X55.245Y-100.426
X58.903Y-156.997
X58.928Y-153.899
X59.639Y-157.124
X59.69Y-153.899
X70.739Y-115.951
X71.136Y-115.316
X71.371Y-127.254
X71.371Y-127.889
X72.263Y-111.125
X72.771Y-110.617
X74.17Y-115.316
X74.17Y-115.951
X74.17Y-127.254
X74.17Y-127.854
X74.549Y-113.284
X74.676Y-103.759
X74.905Y-154.254
X74.905Y-156.597
X75.057Y-104.394
X75.057Y-112.903
X75.494Y-154.142
X75.502Y-156.648
X76.327Y-103.251
X76.708Y-103.759
X84.404Y-157.861
X86.247Y-157.836
X89.408Y-153.924
X89.408Y-156.718
X90.043Y-153.924
X90.043Y-156.718
X91.821Y-90.983
X94.666Y-89.129
X94.92Y-90.526
X97.003Y-89.814
X98.378Y-169.363
X101.459Y-104.343
X101.93Y-118.313
X101.956Y-117.551
X102.757Y-104.369
X104.8Y-118.364
X104.826Y-117.551
X106.807Y-124.46
X106.807Y-126.238
X109.347Y-120.193
X109.461Y-119.532
X110.76Y-120.167
X110.795Y-119.558
X113.944Y-85.319
T2
X29.718Y-123.063
X31.826Y-135.89
X34.798Y-123.063
X36.347Y-109.423
X36.373Y-114.122
X36.373Y-116.611
X36.449Y-111.811
X36.906Y-135.89
X41.427Y-109.423
X41.453Y-114.122
X41.453Y-116.611
X41.529Y-111.811
X49.276Y-101.854
X49.276Y-106.934
X51.613Y-128.957
X51.613Y-134.037
X56.388Y-105.41
X57.276Y-82.855
X57.277Y-92.837
X60.655Y-160.375
X60.655Y-165.455
X61.468Y-105.41
X62.356Y-82.855
X62.357Y-92.837
X65.024Y-82.906
X65.024Y-87.986
X69.799Y-85.047
X69.799Y-90.127
X69.799Y-94.141
X69.799Y-99.221
X81.97Y-170.887
X81.97Y-175.967
X82.02Y-161.617
X82.02Y-166.697
X86.08Y-97.925
X91.16Y-97.925
X93.193Y-162.763
X98.273Y-162.763
X102.006Y-85.047
X102.006Y-90.127
X102.006Y-94.241
X102.006Y-99.321
X105.765Y-86.004
X107.442Y-106.451
X109.449Y-156.312
X109.931Y-122.758
X110.185Y-117.475
X110.845Y-86.004
X110.897Y-138.836
X110.897Y-143.916
X112.522Y-106.451
X113.77Y-171.318
X113.77Y-176.398
X113.897Y-162.022
X113.897Y-167.102
X114.3Y-83.159
X114.3Y-88.239
X114.529Y-156.312
X115.011Y-122.758
X115.265Y-117.475
X117.958Y-123.393
X118.592Y-117.78
X119.939Y-155.931
X123.038Y-123.393
X123.672Y-117.78
X125.019Y-155.931
T3
X62.611Y-108.331
X62.611Y-109.601
X62.611Y-110.871
T4
X37.414Y-124.892
X37.414Y-132.512
X39.954Y-124.892
X39.954Y-132.512
X42.494Y-124.892
X42.494Y-132.512
X45.034Y-124.892
X45.034Y-132.512
T5
X29.616Y-127.853
X29.616Y-132.853
X33.376Y-108.661
X33.376Y-118.821
X39.918Y-135.382
X44.918Y-135.382
X45.045Y-109.941
X45.045Y-112.481
X45.045Y-115.021
X45.045Y-117.561
X47.457Y-160.35
X48.006Y-176.103
X48.187Y-126.644
X48.187Y-129.144
X49.457Y-160.35
X49.776Y-166.425
X49.776Y-171.505
X50.546Y-176.103
X52.316Y-168.965
X52.654Y-104.338
X52.654Y-106.838
X52.665Y-109.941
X52.665Y-112.481
X52.665Y-115.021
X52.665Y-117.561
X53.086Y-176.103
X53.34Y-155.575
X53.34Y-157.575
X55.397Y-127.457
X55.397Y-137.617
X58.852Y-127.483
X58.852Y-137.643
X63.729Y-162.936
X63.729Y-165.436
X66.294Y-108.244
X66.294Y-110.744
X68.021Y-175.378
X68.275Y-167.7
X70.561Y-175.378
X70.815Y-170.24
X73.101Y-175.378
X73.355Y-167.7
X73.609Y-86.423
X73.609Y-93.899
X73.609Y-101.514
X76.149Y-86.423
X76.149Y-93.899
X76.149Y-98.974
X78.689Y-86.423
X78.689Y-93.899
X78.689Y-101.514
X81.097Y-97.722
X83.597Y-97.722
X85.195Y-176.018
X85.348Y-162.31
X85.373Y-169.16
X87.735Y-176.018
X87.888Y-159.77
X87.913Y-169.16
X90.275Y-176.018
X90.428Y-162.31
X90.453Y-169.16
X93.65Y-85.703
X93.65Y-93.315
X93.65Y-100.203
X96.19Y-85.703
X96.19Y-93.315
X96.19Y-102.743
X98.73Y-85.703
X98.73Y-93.315
X98.73Y-100.203
X100.827Y-163.068
X103.327Y-163.068
X105.388Y-175.298
X105.541Y-168.44
X105.664Y-96.825
X106.023Y-161.583
X107.457Y-103.327
X107.928Y-175.298
X108.01Y-150.266
X108.081Y-168.44
X108.11Y-112.116
X108.204Y-94.285
X108.204Y-99.365
X108.563Y-164.123
X109.01Y-125.298
X109.01Y-130.378
X109.957Y-103.327
X110.468Y-175.298
X110.55Y-147.726
X110.55Y-152.806
X110.621Y-168.44
X110.65Y-109.576
X110.65Y-114.656
X110.846Y-133.827
X110.846Y-136.327
X111.103Y-161.583
X111.55Y-127.838
X111.684Y-92.096
X114.224Y-92.096
X115.846Y-126.34
X115.846Y-128.88
X115.846Y-131.42
X116.566Y-147.498
X116.566Y-150.038
X116.566Y-152.578
X116.667Y-108.737
X116.667Y-111.277
X116.667Y-113.817
X116.764Y-92.096
X119.482Y-92.816
X122.022Y-92.816
X122.78Y-126.34
X122.78Y-128.88
X122.78Y-131.42
X123.5Y-147.549
X123.5Y-150.089
X123.5Y-152.629
X123.601Y-108.737
X123.601Y-111.277
X123.601Y-113.817
X124.562Y-92.816
T6
X33.503Y-128.241
X33.503Y-133.321
X35.839Y-155.448
X45.999Y-155.448
X47.32Y-121.641
X51.237Y-84.557
X51.237Y-91.161
X52.4Y-121.641
X53.777Y-84.557
X53.777Y-91.161
X57.866Y-88.341
X60.406Y-88.341
T7
X29.845Y-109.403
X29.845Y-111.943
X32.893Y-92.608
X32.893Y-95.148
X32.893Y-97.688
X32.893Y-100.228
X32.893Y-102.768
T8
X62.662Y-150.749
X67.662Y-150.749
X68.5Y-135.255
X73.5Y-135.255
X74.088Y-119.431
X79.088Y-119.431
X81.686Y-149.283
X81.686Y-154.283
X89.383Y-108.327
X89.383Y-113.327
X96.172Y-152.654
X96.705Y-136.576
X97.061Y-121.844
X101.172Y-152.654
X101.705Y-136.576
X102.061Y-121.844
T9
X56.9Y-118.11
X66.9Y-115.61
X66.9Y-120.61
T10
X58.068Y-173.507
X63.068Y-173.507
X83.819Y-88.324
X88.819Y-88.324
X95.152Y-173.427
X100.152Y-173.427
X120.167Y-98.857
X120.167Y-103.857
X120.168Y-136.805
X120.168Y-141.805
T11
X35.941Y-140.066
X35.941Y-150.764
X45.441Y-140.066
X45.441Y-150.764
T12
X32.0Y-86.0
X32.0Y-176.0
X81.483Y-130.912
X122.0Y-86.0
X122.0Y-176.0
T0
M30
