%TF.GenerationSoftware,KiCad,Pcbnew,(6.0.7)*%
%TF.CreationDate,2022-10-05T08:16:40+03:00*%
%TF.ProjectId,irigatii2,69726967-6174-4696-9932-2e6b69636164,rev?*%
%TF.SameCoordinates,Original*%
%TF.FileFunction,Soldermask,Top*%
%TF.FilePolarity,Negative*%
%FSLAX46Y46*%
G04 Gerber Fmt 4.6, Leading zero omitted, Abs format (unit mm)*
G04 Created by KiCad (PCBNEW (6.0.7)) date 2022-10-05 08:16:40*
%MOMM*%
%LPD*%
G01*
G04 APERTURE LIST*
G04 Aperture macros list*
%AMRoundRect*
0 Rectangle with rounded corners*
0 $1 Rounding radius*
0 $2 $3 $4 $5 $6 $7 $8 $9 X,Y pos of 4 corners*
0 Add a 4 corners polygon primitive as box body*
4,1,4,$2,$3,$4,$5,$6,$7,$8,$9,$2,$3,0*
0 Add four circle primitives for the rounded corners*
1,1,$1+$1,$2,$3*
1,1,$1+$1,$4,$5*
1,1,$1+$1,$6,$7*
1,1,$1+$1,$8,$9*
0 Add four rect primitives between the rounded corners*
20,1,$1+$1,$2,$3,$4,$5,0*
20,1,$1+$1,$4,$5,$6,$7,0*
20,1,$1+$1,$6,$7,$8,$9,0*
20,1,$1+$1,$8,$9,$2,$3,0*%
G04 Aperture macros list end*
%TA.AperFunction,Profile*%
%ADD10C,0.150000*%
%TD*%
%ADD11R,1.500000X1.000000*%
%ADD12R,1.700000X1.700000*%
%ADD13O,1.700000X1.700000*%
%ADD14C,1.400000*%
%ADD15O,1.400000X1.400000*%
%ADD16R,1.500000X1.500000*%
%ADD17C,1.500000*%
%ADD18R,1.000000X1.500000*%
%ADD19R,3.960000X1.980000*%
%ADD20O,3.960000X1.980000*%
%ADD21R,1.800000X1.800000*%
%ADD22O,1.800000X1.800000*%
%ADD23R,0.450000X1.475000*%
%ADD24C,1.600000*%
%ADD25R,1.170000X1.170000*%
%ADD26C,1.170000*%
%ADD27RoundRect,0.250000X0.475000X-0.337500X0.475000X0.337500X-0.475000X0.337500X-0.475000X-0.337500X0*%
%ADD28C,3.600000*%
%ADD29C,6.400000*%
%ADD30R,2.400000X2.400000*%
%ADD31C,2.400000*%
%ADD32RoundRect,0.250000X-0.475000X0.337500X-0.475000X-0.337500X0.475000X-0.337500X0.475000X0.337500X0*%
%ADD33O,1.600000X1.600000*%
%ADD34C,1.800000*%
%ADD35R,1.980000X3.960000*%
%ADD36O,1.980000X3.960000*%
%ADD37R,1.600000X1.600000*%
%ADD38R,2.400000X1.600000*%
%ADD39O,2.400000X1.600000*%
%ADD40C,2.301240*%
%ADD41C,2.340000*%
%ADD42R,1.500000X1.050000*%
%ADD43O,1.500000X1.050000*%
G04 APERTURE END LIST*
D10*
X28912780Y-80877533D02*
G75*
G03*
X27565448Y-82299928I22280J-1370417D01*
G01*
X27559000Y-179500667D02*
X27565448Y-82299928D01*
X127529559Y-82227378D02*
G75*
G03*
X126107071Y-80880047I-1370459J-22322D01*
G01*
X126179621Y-180844073D02*
X28981400Y-180847999D01*
X28912780Y-80877528D02*
X126107071Y-80880047D01*
X127529471Y-82227379D02*
X127526953Y-179421673D01*
X126179622Y-180844159D02*
G75*
G03*
X127526953Y-179421673I-22322J1370459D01*
G01*
X27558995Y-179500667D02*
G75*
G03*
X28981400Y-180847999I1370405J22267D01*
G01*
D11*
%TO.C,JP5*%
X33401000Y-113121200D03*
X33401000Y-111821200D03*
%TD*%
D12*
%TO.C,J1*%
X29845000Y-111942800D03*
D13*
X29845000Y-109402800D03*
%TD*%
D14*
%TO.C,R25*%
X98272600Y-162763200D03*
D15*
X93192600Y-162763200D03*
%TD*%
D14*
%TO.C,R13*%
X65024000Y-87985600D03*
D15*
X65024000Y-82905600D03*
%TD*%
D14*
%TO.C,R12*%
X57277000Y-92837000D03*
D15*
X62357000Y-92837000D03*
%TD*%
D14*
%TO.C,R5*%
X36449000Y-111810800D03*
D15*
X41529000Y-111810800D03*
%TD*%
D16*
%TO.C,Q27*%
X116565800Y-152577800D03*
D17*
X116565800Y-150037800D03*
X116565800Y-147497800D03*
%TD*%
D18*
%TO.C,JP2*%
X41295800Y-105054400D03*
X42595800Y-105054400D03*
X43895800Y-105054400D03*
%TD*%
D19*
%TO.C,J7*%
X120168200Y-141804600D03*
D20*
X120168200Y-136804600D03*
%TD*%
D21*
%TO.C,D3*%
X33502600Y-133321000D03*
D22*
X33502600Y-128241000D03*
%TD*%
D23*
%TO.C,IC2*%
X38929600Y-97040000D03*
X39579600Y-97040000D03*
X40229600Y-97040000D03*
X40879600Y-97040000D03*
X41529600Y-97040000D03*
X42179600Y-97040000D03*
X42829600Y-97040000D03*
X43479600Y-97040000D03*
X44129600Y-97040000D03*
X44779600Y-97040000D03*
X45429600Y-97040000D03*
X46079600Y-97040000D03*
X46729600Y-97040000D03*
X47379600Y-97040000D03*
X47379600Y-91164000D03*
X46729600Y-91164000D03*
X46079600Y-91164000D03*
X45429600Y-91164000D03*
X44779600Y-91164000D03*
X44129600Y-91164000D03*
X43479600Y-91164000D03*
X42829600Y-91164000D03*
X42179600Y-91164000D03*
X41529600Y-91164000D03*
X40879600Y-91164000D03*
X40229600Y-91164000D03*
X39579600Y-91164000D03*
X38929600Y-91164000D03*
%TD*%
D24*
%TO.C,C17*%
X63728600Y-165435600D03*
X63728600Y-162935600D03*
%TD*%
D16*
%TO.C,Q26*%
X108204000Y-99364800D03*
D17*
X105664000Y-96824800D03*
X108204000Y-94284800D03*
%TD*%
D25*
%TO.C,IC1*%
X45034200Y-124891800D03*
D26*
X42494200Y-124891800D03*
X39954200Y-124891800D03*
X37414200Y-124891800D03*
X37414200Y-132511800D03*
X39954200Y-132511800D03*
X42494200Y-132511800D03*
X45034200Y-132511800D03*
%TD*%
D27*
%TO.C,C8*%
X43510200Y-88696800D03*
X43510200Y-86621800D03*
%TD*%
D28*
%TO.C,H3*%
X122000000Y-176000000D03*
D29*
X122000000Y-176000000D03*
%TD*%
D16*
%TO.C,Q13*%
X85347800Y-162310200D03*
D17*
X87887800Y-159770200D03*
X90427800Y-162310200D03*
%TD*%
D14*
%TO.C,R30*%
X109448600Y-156311600D03*
D15*
X114528600Y-156311600D03*
%TD*%
D19*
%TO.C,J8*%
X120167400Y-103857000D03*
D20*
X120167400Y-98857000D03*
%TD*%
D16*
%TO.C,Q33*%
X123600800Y-113817400D03*
D17*
X123600800Y-111277400D03*
X123600800Y-108737400D03*
%TD*%
D16*
%TO.C,Q17*%
X85373200Y-169160200D03*
D17*
X87913200Y-169160200D03*
X90453200Y-169160200D03*
%TD*%
D14*
%TO.C,R20*%
X102006400Y-94241200D03*
D15*
X102006400Y-99321200D03*
%TD*%
D24*
%TO.C,C13*%
X81096800Y-97721800D03*
X83596800Y-97721800D03*
%TD*%
D30*
%TO.C,C4*%
X101705415Y-136575800D03*
D31*
X96705415Y-136575800D03*
%TD*%
D14*
%TO.C,R23*%
X113897400Y-162022000D03*
D15*
X113897400Y-167102000D03*
%TD*%
D14*
%TO.C,R39*%
X114300000Y-83158800D03*
D15*
X114300000Y-88238800D03*
%TD*%
D32*
%TO.C,C10*%
X39522400Y-99190900D03*
X39522400Y-101265900D03*
%TD*%
D21*
%TO.C,D2*%
X45999400Y-155448000D03*
D22*
X35839400Y-155448000D03*
%TD*%
D14*
%TO.C,R26*%
X102006400Y-90127200D03*
D15*
X102006400Y-85047200D03*
%TD*%
D16*
%TO.C,Q36*%
X73355200Y-167700200D03*
D17*
X70815200Y-170240200D03*
X68275200Y-167700200D03*
%TD*%
D16*
%TO.C,Q21*%
X85195400Y-176018200D03*
D17*
X87735400Y-176018200D03*
X90275400Y-176018200D03*
%TD*%
D14*
%TO.C,R21*%
X69799200Y-99221200D03*
D15*
X69799200Y-94141200D03*
%TD*%
D16*
%TO.C,Q35*%
X49776000Y-166425200D03*
D17*
X52316000Y-168965200D03*
X49776000Y-171505200D03*
%TD*%
D16*
%TO.C,Q20*%
X73609200Y-86423200D03*
D17*
X76149200Y-86423200D03*
X78689200Y-86423200D03*
%TD*%
D14*
%TO.C,R27*%
X69799200Y-90127200D03*
D15*
X69799200Y-85047200D03*
%TD*%
D16*
%TO.C,Q18*%
X110620800Y-168440200D03*
D17*
X108080800Y-168440200D03*
X105540800Y-168440200D03*
%TD*%
D14*
%TO.C,R8*%
X41452800Y-114122200D03*
D15*
X36372800Y-114122200D03*
%TD*%
D30*
%TO.C,C20*%
X101172015Y-152654000D03*
D31*
X96172015Y-152654000D03*
%TD*%
D14*
%TO.C,R10*%
X41427400Y-109423200D03*
D15*
X36347400Y-109423200D03*
%TD*%
D16*
%TO.C,Q11*%
X98729800Y-100203000D03*
D17*
X96189800Y-102743000D03*
X93649800Y-100203000D03*
%TD*%
D11*
%TO.C,JP4*%
X37642800Y-86025200D03*
X37642800Y-87325200D03*
X37642800Y-88625200D03*
%TD*%
D14*
%TO.C,R34*%
X110897200Y-138836400D03*
D15*
X110897200Y-143916400D03*
%TD*%
D24*
%TO.C,C14*%
X103327200Y-163068000D03*
X100827200Y-163068000D03*
%TD*%
D12*
%TO.C,J2*%
X32893000Y-92608400D03*
D13*
X32893000Y-95148400D03*
X32893000Y-97688400D03*
X32893000Y-100228400D03*
X32893000Y-102768400D03*
%TD*%
D30*
%TO.C,C6*%
X68499985Y-135255000D03*
D31*
X73499985Y-135255000D03*
%TD*%
D16*
%TO.C,Q32*%
X122780000Y-126339600D03*
D17*
X122780000Y-128879600D03*
X122780000Y-131419600D03*
%TD*%
D24*
%TO.C,C16*%
X109956600Y-103327200D03*
X107456600Y-103327200D03*
%TD*%
D16*
%TO.C,Q19*%
X98729800Y-85703200D03*
D17*
X96189800Y-85703200D03*
X93649800Y-85703200D03*
%TD*%
D24*
%TO.C,C15*%
X110846400Y-133827200D03*
X110846400Y-136327200D03*
%TD*%
D14*
%TO.C,R37*%
X117957600Y-123393200D03*
D15*
X123037600Y-123393200D03*
%TD*%
D16*
%TO.C,Q25*%
X110650400Y-114655600D03*
D17*
X108110400Y-112115600D03*
X110650400Y-109575600D03*
%TD*%
D24*
%TO.C,R2*%
X33375600Y-108661200D03*
D33*
X33375600Y-118821200D03*
%TD*%
D28*
%TO.C,H1*%
X32000000Y-86000000D03*
D29*
X32000000Y-86000000D03*
%TD*%
D24*
%TO.C,R3*%
X55397400Y-127457200D03*
D33*
X55397400Y-137617200D03*
%TD*%
D11*
%TO.C,JP3*%
X46863000Y-88472800D03*
X46863000Y-87172800D03*
X46863000Y-85872800D03*
%TD*%
D30*
%TO.C,C1*%
X74087985Y-119430800D03*
D31*
X79087985Y-119430800D03*
%TD*%
D14*
%TO.C,R24*%
X86079800Y-97925000D03*
D15*
X91159800Y-97925000D03*
%TD*%
D24*
%TO.C,C7*%
X48187200Y-126644400D03*
X48187200Y-129144400D03*
%TD*%
%TO.C,C11*%
X52654200Y-104337800D03*
X52654200Y-106837800D03*
%TD*%
D16*
%TO.C,Q38*%
X73101200Y-175378200D03*
D17*
X70561200Y-175378200D03*
X68021200Y-175378200D03*
%TD*%
D24*
%TO.C,C5*%
X44918000Y-135382000D03*
X39918000Y-135382000D03*
%TD*%
D16*
%TO.C,Q15*%
X98729800Y-93315200D03*
D17*
X96189800Y-93315200D03*
X93649800Y-93315200D03*
%TD*%
D21*
%TO.C,D6*%
X60406200Y-88341200D03*
D34*
X57866200Y-88341200D03*
%TD*%
D35*
%TO.C,J9*%
X58068000Y-173507400D03*
D36*
X63068000Y-173507400D03*
%TD*%
D16*
%TO.C,Q37*%
X48006000Y-176102600D03*
D17*
X50546000Y-176102600D03*
X53086000Y-176102600D03*
%TD*%
D37*
%TO.C,C19*%
X47457287Y-160350200D03*
D24*
X49457287Y-160350200D03*
%TD*%
D30*
%TO.C,C23*%
X102061015Y-121843800D03*
D31*
X97061015Y-121843800D03*
%TD*%
D16*
%TO.C,Q28*%
X115845800Y-126339600D03*
D17*
X115845800Y-128879600D03*
X115845800Y-131419600D03*
%TD*%
D24*
%TO.C,C2*%
X29616400Y-127852800D03*
X29616400Y-132852800D03*
%TD*%
D38*
%TO.C,U1*%
X45044600Y-109941200D03*
D39*
X45044600Y-112481200D03*
X45044600Y-115021200D03*
X45044600Y-117561200D03*
X52664600Y-117561200D03*
X52664600Y-115021200D03*
X52664600Y-112481200D03*
X52664600Y-109941200D03*
%TD*%
D14*
%TO.C,R11*%
X56388000Y-105410000D03*
D15*
X61468000Y-105410000D03*
%TD*%
D21*
%TO.C,D4*%
X53776800Y-84556600D03*
D34*
X51236800Y-84556600D03*
%TD*%
D14*
%TO.C,R29*%
X113770400Y-171318400D03*
D15*
X113770400Y-176398400D03*
%TD*%
D14*
%TO.C,R36*%
X119938800Y-155930600D03*
D15*
X125018800Y-155930600D03*
%TD*%
D16*
%TO.C,Q23*%
X110549600Y-152806400D03*
D17*
X108009600Y-150266400D03*
X110549600Y-147726400D03*
%TD*%
D14*
%TO.C,R9*%
X49276000Y-101854000D03*
D15*
X49276000Y-106934000D03*
%TD*%
D40*
%TO.C,T1*%
X45440600Y-140065760D03*
X35941000Y-140065760D03*
X35941000Y-150764240D03*
X45440600Y-150764240D03*
%TD*%
D16*
%TO.C,Q34*%
X119481600Y-92816000D03*
D17*
X122021600Y-92816000D03*
X124561600Y-92816000D03*
%TD*%
D16*
%TO.C,Q12*%
X73609200Y-101514400D03*
D17*
X76149200Y-98974400D03*
X78689200Y-101514400D03*
%TD*%
D32*
%TO.C,C9*%
X44170600Y-99212400D03*
X44170600Y-101287400D03*
%TD*%
D41*
%TO.C,RV1*%
X66899800Y-115609600D03*
X56899800Y-118109600D03*
X66899800Y-120609600D03*
%TD*%
D42*
%TO.C,U2*%
X62611000Y-110871000D03*
D43*
X62611000Y-109601000D03*
X62611000Y-108331000D03*
%TD*%
D16*
%TO.C,Q22*%
X110468400Y-175298200D03*
D17*
X107928400Y-175298200D03*
X105388400Y-175298200D03*
%TD*%
D29*
%TO.C,H5*%
X81483200Y-130911600D03*
D28*
X81483200Y-130911600D03*
%TD*%
D16*
%TO.C,Q24*%
X109009600Y-125298200D03*
D17*
X111549600Y-127838200D03*
X109009600Y-130378200D03*
%TD*%
D16*
%TO.C,Q29*%
X116666600Y-113817400D03*
D17*
X116666600Y-111277400D03*
X116666600Y-108737400D03*
%TD*%
D14*
%TO.C,R7*%
X51612800Y-134036600D03*
D15*
X51612800Y-128956600D03*
%TD*%
D14*
%TO.C,R40*%
X60655200Y-160374800D03*
D15*
X60655200Y-165454800D03*
%TD*%
D37*
%TO.C,C18*%
X53340000Y-155575000D03*
D24*
X53340000Y-157575000D03*
%TD*%
%TO.C,R4*%
X58851800Y-137642600D03*
D33*
X58851800Y-127482600D03*
%TD*%
D21*
%TO.C,D1*%
X47320200Y-121640600D03*
D22*
X52400200Y-121640600D03*
%TD*%
D14*
%TO.C,R38*%
X118591800Y-117779800D03*
D15*
X123671800Y-117779800D03*
%TD*%
D14*
%TO.C,R1*%
X31826200Y-135890000D03*
D15*
X36906200Y-135890000D03*
%TD*%
D16*
%TO.C,Q14*%
X111103400Y-161583000D03*
D17*
X108563400Y-164123000D03*
X106023400Y-161583000D03*
%TD*%
D16*
%TO.C,Q16*%
X73609200Y-93898800D03*
D17*
X76149200Y-93898800D03*
X78689200Y-93898800D03*
%TD*%
D35*
%TO.C,J6*%
X95152200Y-173427400D03*
D36*
X100152200Y-173427400D03*
%TD*%
D35*
%TO.C,J5*%
X88819400Y-88323800D03*
D36*
X83819400Y-88323800D03*
%TD*%
D29*
%TO.C,H4*%
X32000000Y-176000000D03*
D28*
X32000000Y-176000000D03*
%TD*%
D16*
%TO.C,Q31*%
X123500000Y-152628600D03*
D17*
X123500000Y-150088600D03*
X123500000Y-147548600D03*
%TD*%
D14*
%TO.C,R33*%
X105764800Y-86004400D03*
D15*
X110844800Y-86004400D03*
%TD*%
D24*
%TO.C,C12*%
X66294000Y-110744000D03*
X66294000Y-108244000D03*
%TD*%
D30*
%TO.C,C22*%
X89382600Y-108327185D03*
D31*
X89382600Y-113327185D03*
%TD*%
D14*
%TO.C,R28*%
X81969600Y-170886600D03*
D15*
X81969600Y-175966600D03*
%TD*%
D14*
%TO.C,R31*%
X109931200Y-122758200D03*
D15*
X115011200Y-122758200D03*
%TD*%
D30*
%TO.C,C21*%
X81686400Y-154283415D03*
D31*
X81686400Y-149283415D03*
%TD*%
D14*
%TO.C,R22*%
X82020400Y-166697200D03*
D15*
X82020400Y-161617200D03*
%TD*%
D14*
%TO.C,R6*%
X36372800Y-116611400D03*
D15*
X41452800Y-116611400D03*
%TD*%
D21*
%TO.C,D5*%
X53776800Y-91160600D03*
D34*
X51236800Y-91160600D03*
%TD*%
D16*
%TO.C,Q30*%
X116763800Y-92096000D03*
D17*
X114223800Y-92096000D03*
X111683800Y-92096000D03*
%TD*%
D14*
%TO.C,R17*%
X57276200Y-82854800D03*
D15*
X62356200Y-82854800D03*
%TD*%
D14*
%TO.C,R35*%
X107442000Y-106451400D03*
D15*
X112522000Y-106451400D03*
%TD*%
D29*
%TO.C,H2*%
X122000000Y-86000000D03*
D28*
X122000000Y-86000000D03*
%TD*%
D14*
%TO.C,R32*%
X115265200Y-117475000D03*
D15*
X110185200Y-117475000D03*
%TD*%
D11*
%TO.C,JP1*%
X36636700Y-101960200D03*
X36636700Y-100660200D03*
X36636700Y-99360200D03*
%TD*%
D30*
%TO.C,C3*%
X62661800Y-150749000D03*
D31*
X67661800Y-150749000D03*
%TD*%
D14*
%TO.C,R16*%
X29718000Y-123063000D03*
D15*
X34798000Y-123063000D03*
%TD*%
M02*
