%TF.GenerationSoftware,KiCad,Pcbnew,(6.0.7)*%
%TF.CreationDate,2022-10-05T08:16:40+03:00*%
%TF.ProjectId,irigatii2,69726967-6174-4696-9932-2e6b69636164,rev?*%
%TF.SameCoordinates,Original*%
%TF.FileFunction,Legend,Bot*%
%TF.FilePolarity,Positive*%
%FSLAX46Y46*%
G04 Gerber Fmt 4.6, Leading zero omitted, Abs format (unit mm)*
G04 Created by KiCad (PCBNEW (6.0.7)) date 2022-10-05 08:16:40*
%MOMM*%
%LPD*%
G01*
G04 APERTURE LIST*
%TA.AperFunction,Profile*%
%ADD10C,0.150000*%
%TD*%
%ADD11R,1.700000X1.700000*%
%ADD12O,1.700000X1.700000*%
%ADD13C,1.400000*%
%ADD14O,1.400000X1.400000*%
%ADD15R,1.500000X1.500000*%
%ADD16C,1.500000*%
%ADD17R,3.960000X1.980000*%
%ADD18O,3.960000X1.980000*%
%ADD19R,1.800000X1.800000*%
%ADD20O,1.800000X1.800000*%
%ADD21C,1.600000*%
%ADD22R,1.170000X1.170000*%
%ADD23C,1.170000*%
%ADD24C,3.600000*%
%ADD25C,6.400000*%
%ADD26R,2.400000X2.400000*%
%ADD27C,2.400000*%
%ADD28O,1.600000X1.600000*%
%ADD29C,1.800000*%
%ADD30R,1.980000X3.960000*%
%ADD31O,1.980000X3.960000*%
%ADD32R,1.600000X1.600000*%
%ADD33R,2.400000X1.600000*%
%ADD34O,2.400000X1.600000*%
%ADD35C,2.301240*%
%ADD36C,2.340000*%
%ADD37R,1.500000X1.050000*%
%ADD38O,1.500000X1.050000*%
G04 APERTURE END LIST*
D10*
X28912780Y-80877533D02*
G75*
G03*
X27565448Y-82299928I22280J-1370417D01*
G01*
X27559000Y-179500667D02*
X27565448Y-82299928D01*
X127529559Y-82227378D02*
G75*
G03*
X126107071Y-80880047I-1370459J-22322D01*
G01*
X126179621Y-180844073D02*
X28981400Y-180847999D01*
X28912780Y-80877528D02*
X126107071Y-80880047D01*
X127529471Y-82227379D02*
X127526953Y-179421673D01*
X126179622Y-180844159D02*
G75*
G03*
X127526953Y-179421673I-22322J1370459D01*
G01*
X27558995Y-179500667D02*
G75*
G03*
X28981400Y-180847999I1370405J22267D01*
G01*
%TO.C,kibuzzard-633BFCC9*%
G36*
X116507419Y-140939838D02*
G01*
X116507419Y-140942219D01*
X115690650Y-141104144D01*
X115690650Y-140777913D01*
X116507419Y-140939838D01*
G37*
G36*
X114858403Y-142817453D02*
G01*
X114858403Y-142282863D01*
X115031044Y-142282863D01*
X116769356Y-142668625D01*
X116769356Y-142394781D01*
X115269169Y-142123319D01*
X115269169Y-142120938D01*
X116769356Y-141849475D01*
X116769356Y-141585156D01*
X115031044Y-141973300D01*
X115031044Y-142282863D01*
X114858403Y-142282863D01*
X114858403Y-141501813D01*
X115031044Y-141501813D01*
X116769356Y-141092238D01*
X116769356Y-140782675D01*
X115031044Y-140370719D01*
X115031044Y-140646944D01*
X115488244Y-140737431D01*
X115488244Y-141144625D01*
X115031044Y-141235113D01*
X115031044Y-141501813D01*
X114858403Y-141501813D01*
X114858403Y-140113544D01*
X115031044Y-140113544D01*
X116769356Y-140113544D01*
X116769356Y-139846844D01*
X115238212Y-139846844D01*
X115238212Y-139292013D01*
X115031044Y-139292013D01*
X115031044Y-140113544D01*
X114858403Y-140113544D01*
X114858403Y-138710987D01*
X115031044Y-138710987D01*
X116769356Y-139096750D01*
X116769356Y-138822906D01*
X115269169Y-138551444D01*
X115269169Y-138549062D01*
X116769356Y-138277600D01*
X116769356Y-138013281D01*
X115031044Y-138401425D01*
X115031044Y-138710987D01*
X114858403Y-138710987D01*
X114858403Y-137775156D01*
X115031044Y-137775156D01*
X116769356Y-137775156D01*
X116769356Y-136941719D01*
X116562188Y-136941719D01*
X116562188Y-137508456D01*
X116066888Y-137508456D01*
X116066888Y-136965531D01*
X115864481Y-136965531D01*
X115864481Y-137508456D01*
X115238212Y-137508456D01*
X115238212Y-136941719D01*
X115031044Y-136941719D01*
X115031044Y-137775156D01*
X114858403Y-137775156D01*
X114858403Y-136251156D01*
X115007231Y-136251156D01*
X115026281Y-136445228D01*
X115083431Y-136632156D01*
X115312031Y-136632156D01*
X115238808Y-136458920D01*
X115214400Y-136282112D01*
X115234938Y-136150846D01*
X115296553Y-136057084D01*
X115399245Y-136000827D01*
X115543012Y-135982075D01*
X115684399Y-136003506D01*
X115779947Y-136067800D01*
X115834418Y-136184481D01*
X115852575Y-136363075D01*
X115852575Y-136410700D01*
X116062125Y-136410700D01*
X116062125Y-136363075D01*
X116079984Y-136196983D01*
X116133563Y-136084469D01*
X116225836Y-136020175D01*
X116359781Y-135998744D01*
X116486781Y-136026260D01*
X116562981Y-136108810D01*
X116588381Y-136246394D01*
X116563378Y-136414272D01*
X116488369Y-136598819D01*
X116709825Y-136598819D01*
X116756127Y-136461235D01*
X116783908Y-136327885D01*
X116793169Y-136198769D01*
X116766677Y-136002911D01*
X116687203Y-135858250D01*
X116560699Y-135768953D01*
X116393119Y-135739187D01*
X116240570Y-135757047D01*
X116118680Y-135810625D01*
X116027448Y-135899922D01*
X115966875Y-136024937D01*
X115964494Y-136024937D01*
X115915083Y-135889504D01*
X115826381Y-135792766D01*
X115698389Y-135734723D01*
X115531106Y-135715375D01*
X115371033Y-135730258D01*
X115240065Y-135774906D01*
X115138200Y-135849320D01*
X115065440Y-135953500D01*
X115021783Y-136087445D01*
X115007231Y-136251156D01*
X114858403Y-136251156D01*
X114858403Y-135566547D01*
X116941997Y-135566547D01*
X116941997Y-142817453D01*
X114858403Y-142817453D01*
G37*
%TO.C,kibuzzard-633BFE0C*%
G36*
X36175120Y-92047383D02*
G01*
X36175120Y-93156649D01*
X36085823Y-93174508D01*
X35947165Y-93142758D01*
X35852659Y-93047508D01*
X35812420Y-92939250D01*
X35788277Y-92783807D01*
X35780229Y-92581180D01*
X35788387Y-92397736D01*
X35812861Y-92254861D01*
X35853651Y-92152555D01*
X35948405Y-92060282D01*
X36085823Y-92029524D01*
X36175120Y-92047383D01*
G37*
G36*
X37186779Y-94546738D02*
G01*
X37186779Y-95639611D01*
X37098802Y-95657206D01*
X36962193Y-95625925D01*
X36869084Y-95532083D01*
X36829440Y-95425424D01*
X36805653Y-95272279D01*
X36797725Y-95072646D01*
X36805762Y-94891913D01*
X36829874Y-94751149D01*
X36870061Y-94650356D01*
X36963415Y-94559446D01*
X37098802Y-94529143D01*
X37186779Y-94546738D01*
G37*
G36*
X34561698Y-91732860D02*
G01*
X38539502Y-91732860D01*
X38539502Y-103389940D01*
X34561698Y-103389940D01*
X34561698Y-102854065D01*
X35785433Y-102854065D01*
X35797134Y-102979909D01*
X35832235Y-103082871D01*
X35890736Y-103162954D01*
X35972639Y-103220155D01*
X36077941Y-103254476D01*
X36206645Y-103265917D01*
X36359217Y-103250940D01*
X36506173Y-103206011D01*
X36506173Y-103026294D01*
X36369982Y-103083859D01*
X36230982Y-103103048D01*
X36099938Y-103074343D01*
X36021312Y-102988229D01*
X35995103Y-102844705D01*
X36011952Y-102733552D01*
X36062497Y-102658436D01*
X36154228Y-102615612D01*
X36294631Y-102601338D01*
X36332072Y-102601338D01*
X36332072Y-102436598D01*
X36294631Y-102436598D01*
X36164056Y-102422557D01*
X36075601Y-102380436D01*
X36025056Y-102307894D01*
X36008207Y-102202591D01*
X36029840Y-102102748D01*
X36094738Y-102042843D01*
X36202901Y-102022874D01*
X36334881Y-102042531D01*
X36479965Y-102101500D01*
X36479965Y-101927399D01*
X36326634Y-101880598D01*
X36655937Y-101880598D01*
X36961082Y-103247196D01*
X37204449Y-103247196D01*
X37291692Y-102854065D01*
X37657485Y-102854065D01*
X37669186Y-102979909D01*
X37704287Y-103082871D01*
X37762788Y-103162954D01*
X37844690Y-103220155D01*
X37949993Y-103254476D01*
X38078697Y-103265917D01*
X38231269Y-103250940D01*
X38378225Y-103206011D01*
X38378225Y-103026294D01*
X38242033Y-103083859D01*
X38103034Y-103103048D01*
X37971990Y-103074343D01*
X37893364Y-102988229D01*
X37867155Y-102844705D01*
X37884003Y-102733552D01*
X37934549Y-102658436D01*
X38026279Y-102615612D01*
X38166683Y-102601338D01*
X38204124Y-102601338D01*
X38204124Y-102436598D01*
X38166683Y-102436598D01*
X38036108Y-102422557D01*
X37947653Y-102380436D01*
X37897108Y-102307894D01*
X37880259Y-102202591D01*
X37901892Y-102102748D01*
X37966790Y-102042843D01*
X38074953Y-102022874D01*
X38206932Y-102042531D01*
X38352016Y-102101500D01*
X38352016Y-101927399D01*
X38191020Y-101878258D01*
X38037512Y-101861878D01*
X37883535Y-101882704D01*
X37769808Y-101945184D01*
X37699606Y-102044637D01*
X37676206Y-102176382D01*
X37690246Y-102296311D01*
X37732367Y-102392136D01*
X37802569Y-102463859D01*
X37900852Y-102511480D01*
X37900852Y-102513352D01*
X37794379Y-102552197D01*
X37718327Y-102621931D01*
X37672696Y-102722553D01*
X37657485Y-102854065D01*
X37291692Y-102854065D01*
X37507721Y-101880598D01*
X37292435Y-101880598D01*
X37079021Y-103059991D01*
X37077149Y-103059991D01*
X36863735Y-101880598D01*
X36655937Y-101880598D01*
X36326634Y-101880598D01*
X36318968Y-101878258D01*
X36165460Y-101861878D01*
X36011484Y-101882704D01*
X35897756Y-101945184D01*
X35827554Y-102044637D01*
X35804154Y-102176382D01*
X35818194Y-102296311D01*
X35860315Y-102392136D01*
X35930517Y-102463859D01*
X36028800Y-102511480D01*
X36028800Y-102513352D01*
X35922327Y-102552197D01*
X35846275Y-102621931D01*
X35800644Y-102722553D01*
X35785433Y-102854065D01*
X34561698Y-102854065D01*
X34561698Y-100073620D01*
X35731493Y-100073620D01*
X35736451Y-100242097D01*
X35751326Y-100385466D01*
X35776118Y-100503726D01*
X35829525Y-100638075D01*
X35900497Y-100724001D01*
X35993070Y-100770288D01*
X36111278Y-100785716D01*
X36229486Y-100770288D01*
X36322058Y-100724001D01*
X36393031Y-100638075D01*
X36446438Y-100503726D01*
X36471229Y-100385466D01*
X36486104Y-100242097D01*
X36491063Y-100073620D01*
X36486104Y-99905143D01*
X36471229Y-99761775D01*
X36446438Y-99643514D01*
X36393031Y-99509165D01*
X36322058Y-99423239D01*
X36236606Y-99380513D01*
X36629684Y-99380513D01*
X36939208Y-100766727D01*
X37186069Y-100766727D01*
X37283835Y-100326177D01*
X37655103Y-100326177D01*
X37666074Y-100475137D01*
X37698989Y-100592870D01*
X37753847Y-100679377D01*
X37832546Y-100738454D01*
X37936987Y-100773901D01*
X38067169Y-100785716D01*
X38208164Y-100771475D01*
X38338715Y-100728749D01*
X38338715Y-100548351D01*
X38209114Y-100602470D01*
X38082360Y-100620510D01*
X37985515Y-100604132D01*
X37919053Y-100554997D01*
X37880600Y-100465036D01*
X37867782Y-100326177D01*
X37876802Y-100194439D01*
X37903862Y-100106851D01*
X38015898Y-100041338D01*
X38088532Y-100060328D01*
X38154519Y-100117295D01*
X38329220Y-100117295D01*
X38310231Y-99380513D01*
X37693081Y-99380513D01*
X37693081Y-99543821D01*
X38116541Y-99543821D01*
X38129833Y-99927403D01*
X38126036Y-99927403D01*
X38049129Y-99891798D01*
X37958930Y-99879930D01*
X37849552Y-99897780D01*
X37764481Y-99951330D01*
X37703715Y-100040579D01*
X37667256Y-100165528D01*
X37655103Y-100326177D01*
X37283835Y-100326177D01*
X37493694Y-99380513D01*
X37275318Y-99380513D01*
X37058841Y-100576835D01*
X37056942Y-100576835D01*
X36840464Y-99380513D01*
X36629684Y-99380513D01*
X36236606Y-99380513D01*
X36229486Y-99376953D01*
X36111278Y-99361524D01*
X35993070Y-99376953D01*
X35900497Y-99423239D01*
X35829525Y-99509165D01*
X35776118Y-99643514D01*
X35751326Y-99761775D01*
X35736451Y-99905143D01*
X35731493Y-100073620D01*
X34561698Y-100073620D01*
X34561698Y-98286258D01*
X34685721Y-98286258D01*
X34918837Y-98286258D01*
X35255988Y-97611956D01*
X35259841Y-97611956D01*
X35259841Y-98286258D01*
X35475618Y-98286258D01*
X35710660Y-98286258D01*
X36375330Y-98286258D01*
X36375330Y-97338382D01*
X36693215Y-97338382D01*
X36899359Y-97338382D01*
X36899359Y-97037836D01*
X36943670Y-97030130D01*
X37044237Y-97051476D01*
X37122456Y-97115516D01*
X37178327Y-97222248D01*
X37211850Y-97371674D01*
X37223024Y-97563792D01*
X37214461Y-97739806D01*
X37188774Y-97883818D01*
X37145961Y-97995827D01*
X37086023Y-98075833D01*
X37008960Y-98123837D01*
X36914771Y-98139839D01*
X36812663Y-98124908D01*
X36702848Y-98080115D01*
X36702848Y-98257360D01*
X36818924Y-98293483D01*
X36947523Y-98305524D01*
X37061763Y-98293935D01*
X37160771Y-98259166D01*
X37244547Y-98201218D01*
X37313091Y-98120091D01*
X37366403Y-98015785D01*
X37394952Y-97920209D01*
X37617972Y-97920209D01*
X37634541Y-98058922D01*
X37684246Y-98166811D01*
X37767089Y-98243874D01*
X37883069Y-98290112D01*
X38032186Y-98305524D01*
X38151634Y-98295249D01*
X38260807Y-98264424D01*
X38359705Y-98213049D01*
X38359705Y-98012684D01*
X38258024Y-98082255D01*
X38150778Y-98123998D01*
X38037966Y-98137912D01*
X37952233Y-98124667D01*
X37887693Y-98084931D01*
X37847235Y-98019668D01*
X37833749Y-97929842D01*
X37844104Y-97844109D01*
X37875170Y-97775715D01*
X37930319Y-97719363D01*
X38012921Y-97669754D01*
X38130977Y-97608103D01*
X38223132Y-97543884D01*
X38289385Y-97477096D01*
X38349349Y-97363428D01*
X38369337Y-97226641D01*
X38344051Y-97072515D01*
X38268192Y-96956920D01*
X38145614Y-96884673D01*
X37980169Y-96860591D01*
X37867999Y-96867013D01*
X37760111Y-96886279D01*
X37656504Y-96918388D01*
X37656504Y-97111046D01*
X37805332Y-97048914D01*
X37955123Y-97028203D01*
X38039411Y-97040726D01*
X38103470Y-97078294D01*
X38157414Y-97217008D01*
X38140289Y-97314835D01*
X38088913Y-97392541D01*
X38003288Y-97450124D01*
X37872066Y-97516270D01*
X37771242Y-97583700D01*
X37700815Y-97652414D01*
X37638683Y-97771381D01*
X37617972Y-97920209D01*
X37394952Y-97920209D01*
X37404483Y-97888300D01*
X37427331Y-97737635D01*
X37434947Y-97563792D01*
X37427422Y-97398979D01*
X37404845Y-97256141D01*
X37367216Y-97135279D01*
X37314536Y-97036391D01*
X37246805Y-96959479D01*
X37164022Y-96904541D01*
X37066188Y-96871579D01*
X36953303Y-96860591D01*
X36816034Y-96871187D01*
X36693215Y-96902976D01*
X36693215Y-97338382D01*
X36375330Y-97338382D01*
X36375330Y-96879857D01*
X36159553Y-96879857D01*
X36159553Y-98118646D01*
X35710660Y-98118646D01*
X35710660Y-98286258D01*
X35475618Y-98286258D01*
X35475618Y-96879857D01*
X35259841Y-96879857D01*
X35259841Y-97496362D01*
X35255988Y-97496362D01*
X34926543Y-96879857D01*
X34695354Y-96879857D01*
X35063330Y-97550306D01*
X34685721Y-98286258D01*
X34561698Y-98286258D01*
X34561698Y-95805790D01*
X35577774Y-95805790D01*
X35804560Y-95805790D01*
X35878851Y-95430420D01*
X36213165Y-95430420D01*
X36287457Y-95805790D01*
X36506422Y-95805790D01*
X36333681Y-95072646D01*
X36584624Y-95072646D01*
X36591032Y-95249687D01*
X36610257Y-95400226D01*
X36642298Y-95524263D01*
X36712924Y-95665759D01*
X36809455Y-95757891D01*
X36936533Y-95808478D01*
X37098802Y-95825340D01*
X37258627Y-95815565D01*
X37405745Y-95786239D01*
X37405745Y-95434330D01*
X37605160Y-95434330D01*
X37621973Y-95575094D01*
X37672414Y-95684577D01*
X37756481Y-95762779D01*
X37874175Y-95809700D01*
X38025496Y-95825340D01*
X38146709Y-95814913D01*
X38257495Y-95783633D01*
X38357854Y-95731498D01*
X38357854Y-95528173D01*
X38254671Y-95598772D01*
X38145840Y-95641131D01*
X38031361Y-95655251D01*
X37944361Y-95641810D01*
X37878867Y-95601487D01*
X37837811Y-95535260D01*
X37824125Y-95444106D01*
X37834634Y-95357106D01*
X37866159Y-95287702D01*
X37922122Y-95230516D01*
X38005945Y-95180174D01*
X38125746Y-95117612D01*
X38219263Y-95052444D01*
X38286495Y-94984669D01*
X38347346Y-94869321D01*
X38367629Y-94730513D01*
X38341969Y-94574109D01*
X38264989Y-94456806D01*
X38186896Y-94402499D01*
X38089469Y-94369915D01*
X37972709Y-94359053D01*
X37858882Y-94365570D01*
X37749399Y-94385121D01*
X37644261Y-94417705D01*
X37644261Y-94613210D01*
X37795289Y-94550159D01*
X37947294Y-94529143D01*
X38032827Y-94541850D01*
X38097832Y-94579974D01*
X38152574Y-94720737D01*
X38135196Y-94820010D01*
X38083061Y-94898864D01*
X37996170Y-94957298D01*
X37863009Y-95024422D01*
X37760695Y-95092848D01*
X37689227Y-95162579D01*
X37626177Y-95283303D01*
X37605160Y-95434330D01*
X37405745Y-95434330D01*
X37405745Y-94398154D01*
X37252762Y-94368829D01*
X37098802Y-94359053D01*
X36933383Y-94376757D01*
X36802069Y-94429870D01*
X36704860Y-94518390D01*
X36652257Y-94612782D01*
X36614683Y-94736622D01*
X36592139Y-94889910D01*
X36584624Y-95072646D01*
X36333681Y-95072646D01*
X36170154Y-94378604D01*
X35915997Y-94378604D01*
X35577774Y-95805790D01*
X34561698Y-95805790D01*
X34561698Y-92581180D01*
X35563932Y-92581180D01*
X35570436Y-92760877D01*
X35589950Y-92913673D01*
X35622471Y-93039571D01*
X35694157Y-93183190D01*
X35792135Y-93276704D01*
X35921120Y-93328050D01*
X36085823Y-93345165D01*
X36248045Y-93335243D01*
X36297820Y-93325321D01*
X36619620Y-93325321D01*
X36841870Y-93325321D01*
X37151432Y-92273602D01*
X37155401Y-92273602D01*
X37155401Y-93325321D01*
X37373682Y-93325321D01*
X37373682Y-93275712D01*
X37582042Y-93275712D01*
X37688316Y-93314297D01*
X37800764Y-93337448D01*
X37919385Y-93345165D01*
X38035657Y-93333383D01*
X38136426Y-93298036D01*
X38221692Y-93239125D01*
X38291456Y-93156649D01*
X38345716Y-93050609D01*
X38384473Y-92921005D01*
X38407728Y-92767836D01*
X38415479Y-92591102D01*
X38407107Y-92413377D01*
X38381993Y-92261200D01*
X38340135Y-92134572D01*
X38281534Y-92033493D01*
X38177354Y-91935377D01*
X38043409Y-91876507D01*
X37879698Y-91856883D01*
X37753194Y-91867798D01*
X37631651Y-91900540D01*
X37631651Y-92079133D01*
X37758155Y-92043415D01*
X37879698Y-92031508D01*
X38021084Y-92063010D01*
X38119807Y-92157516D01*
X38162802Y-92261696D01*
X38188599Y-92406225D01*
X38197198Y-92591102D01*
X38189040Y-92780279D01*
X38164566Y-92929769D01*
X38123776Y-93039571D01*
X38034479Y-93140774D01*
X37913432Y-93174508D01*
X37794370Y-93150696D01*
X37794370Y-92630790D01*
X38044401Y-92630790D01*
X38044401Y-92462118D01*
X37582042Y-92462118D01*
X37582042Y-93275712D01*
X37373682Y-93275712D01*
X37373682Y-91876727D01*
X37143495Y-91876727D01*
X36833932Y-92928446D01*
X36827979Y-92928446D01*
X36827979Y-91876727D01*
X36619620Y-91876727D01*
X36619620Y-93325321D01*
X36297820Y-93325321D01*
X36397370Y-93305477D01*
X36397370Y-91896571D01*
X36242092Y-91866805D01*
X36085823Y-91856883D01*
X35917923Y-91874853D01*
X35784639Y-91928762D01*
X35685971Y-92018610D01*
X35632579Y-92114418D01*
X35594442Y-92240116D01*
X35571560Y-92395703D01*
X35563932Y-92581180D01*
X34561698Y-92581180D01*
X34561698Y-91732860D01*
G37*
G36*
X36210971Y-99564709D02*
G01*
X36244440Y-99628323D01*
X36270787Y-99731814D01*
X36283447Y-99824650D01*
X36291043Y-99938586D01*
X36293574Y-100073620D01*
X36289777Y-100231231D01*
X35965061Y-99667251D01*
X36022028Y-99554265D01*
X36111278Y-99521033D01*
X36210971Y-99564709D01*
G37*
G36*
X36179929Y-95264241D02*
G01*
X35912087Y-95264241D01*
X36045031Y-94593659D01*
X36046986Y-94593659D01*
X36179929Y-95264241D01*
G37*
G36*
X36265091Y-100453405D02*
G01*
X36206224Y-100587279D01*
X36111278Y-100626207D01*
X36011584Y-100582532D01*
X35978116Y-100518918D01*
X35951768Y-100415426D01*
X35939109Y-100322590D01*
X35931513Y-100208655D01*
X35928981Y-100073620D01*
X35930405Y-99970604D01*
X35934678Y-99881829D01*
X36265091Y-100453405D01*
G37*
%TO.C,kibuzzard-633BFD23*%
G36*
X57492900Y-167803909D02*
G01*
X64731900Y-167803909D01*
X64731900Y-169863691D01*
X57492900Y-169863691D01*
X57492900Y-169138600D01*
X57641728Y-169138600D01*
X57655486Y-169325396D01*
X57696761Y-169473033D01*
X57765553Y-169581513D01*
X57864243Y-169655596D01*
X57995211Y-169700046D01*
X58158459Y-169714863D01*
X58335267Y-169697003D01*
X58353457Y-169691050D01*
X58856166Y-169691050D01*
X59689603Y-169691050D01*
X59689603Y-167952737D01*
X59927728Y-167952737D01*
X60315872Y-169691050D01*
X60625434Y-169691050D01*
X61206459Y-169691050D01*
X62027991Y-169691050D01*
X62285166Y-169691050D01*
X62561391Y-169691050D01*
X62651878Y-169233850D01*
X63059072Y-169233850D01*
X63149559Y-169691050D01*
X63416259Y-169691050D01*
X63006684Y-167952737D01*
X63499603Y-167952737D01*
X63887747Y-169691050D01*
X64197309Y-169691050D01*
X64583072Y-167952737D01*
X64309228Y-167952737D01*
X64037766Y-169452925D01*
X64035384Y-169452925D01*
X63763922Y-167952737D01*
X63499603Y-167952737D01*
X63006684Y-167952737D01*
X62697122Y-167952737D01*
X62285166Y-169691050D01*
X62027991Y-169691050D01*
X62027991Y-167952737D01*
X61761291Y-167952737D01*
X61761291Y-169483881D01*
X61206459Y-169483881D01*
X61206459Y-169691050D01*
X60625434Y-169691050D01*
X61011197Y-167952737D01*
X60737353Y-167952737D01*
X60465891Y-169452925D01*
X60463509Y-169452925D01*
X60192047Y-167952737D01*
X59927728Y-167952737D01*
X59689603Y-167952737D01*
X58856166Y-167952737D01*
X58856166Y-168159906D01*
X59422903Y-168159906D01*
X59422903Y-168655206D01*
X58879978Y-168655206D01*
X58879978Y-168857613D01*
X59422903Y-168857613D01*
X59422903Y-169483881D01*
X58856166Y-169483881D01*
X58856166Y-169691050D01*
X58353457Y-169691050D01*
X58498978Y-169643425D01*
X58498978Y-169417206D01*
X58336458Y-169485072D01*
X58177509Y-169507694D01*
X58056066Y-169487155D01*
X57972722Y-169425541D01*
X57924502Y-169312729D01*
X57908428Y-169138600D01*
X57919739Y-168973401D01*
X57953672Y-168863566D01*
X58094166Y-168781412D01*
X58185248Y-168805225D01*
X58267997Y-168876663D01*
X58487072Y-168876663D01*
X58463259Y-167952737D01*
X57689353Y-167952737D01*
X57689353Y-168157525D01*
X58220372Y-168157525D01*
X58237041Y-168638537D01*
X58232278Y-168638537D01*
X58135837Y-168593889D01*
X58022728Y-168579006D01*
X57885568Y-168601390D01*
X57778888Y-168668541D01*
X57702688Y-168780460D01*
X57656968Y-168937146D01*
X57641728Y-169138600D01*
X57492900Y-169138600D01*
X57492900Y-167803909D01*
G37*
G36*
X63018591Y-169031444D02*
G01*
X62692359Y-169031444D01*
X62854284Y-168214675D01*
X62856666Y-168214675D01*
X63018591Y-169031444D01*
G37*
%TO.C,kibuzzard-633BFC9A*%
G36*
X116139913Y-102825550D02*
G01*
X116139913Y-102827931D01*
X115323144Y-102989856D01*
X115323144Y-102663625D01*
X116139913Y-102825550D01*
G37*
G36*
X114514709Y-104703166D02*
G01*
X114514709Y-104168575D01*
X114663537Y-104168575D01*
X116401850Y-104554338D01*
X116401850Y-104280494D01*
X114901662Y-104009031D01*
X114901662Y-104006650D01*
X116401850Y-103735188D01*
X116401850Y-103470869D01*
X114663537Y-103859013D01*
X114663537Y-104168575D01*
X114514709Y-104168575D01*
X114514709Y-103387525D01*
X114663537Y-103387525D01*
X116401850Y-102977950D01*
X116401850Y-102668388D01*
X114663537Y-102256431D01*
X114663537Y-102532656D01*
X115120737Y-102623144D01*
X115120737Y-103030338D01*
X114663537Y-103120825D01*
X114663537Y-103387525D01*
X114514709Y-103387525D01*
X114514709Y-101999256D01*
X114663537Y-101999256D01*
X116401850Y-101999256D01*
X116401850Y-101732556D01*
X114870706Y-101732556D01*
X114870706Y-101177725D01*
X114663537Y-101177725D01*
X114663537Y-101999256D01*
X114514709Y-101999256D01*
X114514709Y-100596700D01*
X114663537Y-100596700D01*
X116401850Y-100982462D01*
X116401850Y-100708619D01*
X114901662Y-100437156D01*
X114901662Y-100434775D01*
X116401850Y-100163312D01*
X116401850Y-99898994D01*
X114663537Y-100287137D01*
X114663537Y-100596700D01*
X114514709Y-100596700D01*
X114514709Y-99660869D01*
X114663537Y-99660869D01*
X116401850Y-99660869D01*
X116401850Y-98827431D01*
X116194681Y-98827431D01*
X116194681Y-99394169D01*
X115699381Y-99394169D01*
X115699381Y-98851244D01*
X115496975Y-98851244D01*
X115496975Y-99394169D01*
X114870706Y-99394169D01*
X114870706Y-98827431D01*
X114663537Y-98827431D01*
X114663537Y-99660869D01*
X114514709Y-99660869D01*
X114514709Y-98486912D01*
X114663537Y-98486912D01*
X114870706Y-98486912D01*
X115048425Y-98334027D01*
X115218272Y-98204661D01*
X115380245Y-98098817D01*
X115534346Y-98016494D01*
X115680574Y-97957692D01*
X115818930Y-97922410D01*
X115949413Y-97910650D01*
X116070856Y-97923449D01*
X116154200Y-97961847D01*
X116218494Y-98117819D01*
X116202883Y-98229737D01*
X116156052Y-98352769D01*
X116078000Y-98486912D01*
X116301838Y-98486912D01*
X116370629Y-98355150D01*
X116411904Y-98213862D01*
X116425663Y-98063050D01*
X116396195Y-97882373D01*
X116307791Y-97749916D01*
X116162237Y-97668655D01*
X115961319Y-97641569D01*
X115810506Y-97656518D01*
X115650169Y-97701365D01*
X115480306Y-97776109D01*
X115344277Y-97853723D01*
X115198128Y-97952024D01*
X115041859Y-98071012D01*
X114875469Y-98210687D01*
X114870706Y-98210687D01*
X114870706Y-97629662D01*
X114663537Y-97629662D01*
X114663537Y-98486912D01*
X114514709Y-98486912D01*
X114514709Y-97480834D01*
X116574491Y-97480834D01*
X116574491Y-104703166D01*
X114514709Y-104703166D01*
G37*
%TO.C,kibuzzard-633BFCF4*%
G36*
X99659281Y-168967150D02*
G01*
X99333050Y-168967150D01*
X99494975Y-168150381D01*
X99497356Y-168150381D01*
X99659281Y-168967150D01*
G37*
G36*
X95042037Y-169029063D02*
G01*
X95042037Y-169036206D01*
X94661037Y-169036206D01*
X94661037Y-168257538D01*
X94665800Y-168257538D01*
X95042037Y-169029063D01*
G37*
G36*
X94055009Y-167739616D02*
G01*
X101372591Y-167739616D01*
X101372591Y-169775584D01*
X94055009Y-169775584D01*
X94055009Y-169240994D01*
X94203837Y-169240994D01*
X94399100Y-169240994D01*
X94399100Y-169626756D01*
X94661037Y-169626756D01*
X95496856Y-169626756D01*
X96330294Y-169626756D01*
X96330294Y-167888444D01*
X96568419Y-167888444D01*
X96956562Y-169626756D01*
X97266125Y-169626756D01*
X97847150Y-169626756D01*
X98668681Y-169626756D01*
X98925856Y-169626756D01*
X99202081Y-169626756D01*
X99292569Y-169169556D01*
X99699763Y-169169556D01*
X99790250Y-169626756D01*
X100056950Y-169626756D01*
X99647375Y-167888444D01*
X100140294Y-167888444D01*
X100528438Y-169626756D01*
X100838000Y-169626756D01*
X101223763Y-167888444D01*
X100949919Y-167888444D01*
X100678456Y-169388631D01*
X100676075Y-169388631D01*
X100404613Y-167888444D01*
X100140294Y-167888444D01*
X99647375Y-167888444D01*
X99337813Y-167888444D01*
X98925856Y-169626756D01*
X98668681Y-169626756D01*
X98668681Y-167888444D01*
X98401981Y-167888444D01*
X98401981Y-169419588D01*
X97847150Y-169419588D01*
X97847150Y-169626756D01*
X97266125Y-169626756D01*
X97651887Y-167888444D01*
X97378044Y-167888444D01*
X97106581Y-169388631D01*
X97104200Y-169388631D01*
X96832737Y-167888444D01*
X96568419Y-167888444D01*
X96330294Y-167888444D01*
X95496856Y-167888444D01*
X95496856Y-168095612D01*
X96063594Y-168095612D01*
X96063594Y-168590912D01*
X95520669Y-168590912D01*
X95520669Y-168793319D01*
X96063594Y-168793319D01*
X96063594Y-169419588D01*
X95496856Y-169419588D01*
X95496856Y-169626756D01*
X94661037Y-169626756D01*
X94661037Y-169240994D01*
X95251587Y-169240994D01*
X95251587Y-169036206D01*
X94687231Y-167888444D01*
X94399100Y-167888444D01*
X94399100Y-169036206D01*
X94203837Y-169036206D01*
X94203837Y-169240994D01*
X94055009Y-169240994D01*
X94055009Y-167739616D01*
G37*
%TO.C,kibuzzard-633BFC8D*%
G36*
X88274922Y-92919550D02*
G01*
X87948691Y-92919550D01*
X88110616Y-92102781D01*
X88112997Y-92102781D01*
X88274922Y-92919550D01*
G37*
G36*
X82934969Y-91692016D02*
G01*
X89988231Y-91692016D01*
X89988231Y-93727984D01*
X82934969Y-93727984D01*
X82934969Y-93579156D01*
X83083797Y-93579156D01*
X83350497Y-93579156D01*
X84112497Y-93579156D01*
X84945934Y-93579156D01*
X84945934Y-91840844D01*
X85184059Y-91840844D01*
X85572203Y-93579156D01*
X85881766Y-93579156D01*
X86462791Y-93579156D01*
X87284322Y-93579156D01*
X87541497Y-93579156D01*
X87817722Y-93579156D01*
X87908209Y-93121956D01*
X88315403Y-93121956D01*
X88405891Y-93579156D01*
X88672591Y-93579156D01*
X88263016Y-91840844D01*
X88755934Y-91840844D01*
X89144078Y-93579156D01*
X89453641Y-93579156D01*
X89839403Y-91840844D01*
X89565559Y-91840844D01*
X89294097Y-93341031D01*
X89291716Y-93341031D01*
X89020253Y-91840844D01*
X88755934Y-91840844D01*
X88263016Y-91840844D01*
X87953453Y-91840844D01*
X87541497Y-93579156D01*
X87284322Y-93579156D01*
X87284322Y-91840844D01*
X87017622Y-91840844D01*
X87017622Y-93371988D01*
X86462791Y-93371988D01*
X86462791Y-93579156D01*
X85881766Y-93579156D01*
X86267528Y-91840844D01*
X85993684Y-91840844D01*
X85722222Y-93341031D01*
X85719841Y-93341031D01*
X85448378Y-91840844D01*
X85184059Y-91840844D01*
X84945934Y-91840844D01*
X84112497Y-91840844D01*
X84112497Y-92048012D01*
X84679234Y-92048012D01*
X84679234Y-92543312D01*
X84136309Y-92543312D01*
X84136309Y-92745719D01*
X84679234Y-92745719D01*
X84679234Y-93371988D01*
X84112497Y-93371988D01*
X84112497Y-93579156D01*
X83350497Y-93579156D01*
X83350497Y-92090875D01*
X83355259Y-92088494D01*
X83764834Y-92317094D01*
X83764834Y-92083731D01*
X83348116Y-91840844D01*
X83083797Y-91840844D01*
X83083797Y-93579156D01*
X82934969Y-93579156D01*
X82934969Y-91692016D01*
G37*
%TD*%
%LPC*%
D11*
%TO.C,J1*%
X29845000Y-111942800D03*
D12*
X29845000Y-109402800D03*
%TD*%
D13*
%TO.C,R25*%
X98272600Y-162763200D03*
D14*
X93192600Y-162763200D03*
%TD*%
D13*
%TO.C,R13*%
X65024000Y-87985600D03*
D14*
X65024000Y-82905600D03*
%TD*%
D13*
%TO.C,R12*%
X57277000Y-92837000D03*
D14*
X62357000Y-92837000D03*
%TD*%
D13*
%TO.C,R5*%
X36449000Y-111810800D03*
D14*
X41529000Y-111810800D03*
%TD*%
D15*
%TO.C,Q27*%
X116565800Y-152577800D03*
D16*
X116565800Y-150037800D03*
X116565800Y-147497800D03*
%TD*%
D17*
%TO.C,J7*%
X120168200Y-141804600D03*
D18*
X120168200Y-136804600D03*
%TD*%
D19*
%TO.C,D3*%
X33502600Y-133321000D03*
D20*
X33502600Y-128241000D03*
%TD*%
D21*
%TO.C,C17*%
X63728600Y-165435600D03*
X63728600Y-162935600D03*
%TD*%
D15*
%TO.C,Q26*%
X108204000Y-99364800D03*
D16*
X105664000Y-96824800D03*
X108204000Y-94284800D03*
%TD*%
D22*
%TO.C,IC1*%
X45034200Y-124891800D03*
D23*
X42494200Y-124891800D03*
X39954200Y-124891800D03*
X37414200Y-124891800D03*
X37414200Y-132511800D03*
X39954200Y-132511800D03*
X42494200Y-132511800D03*
X45034200Y-132511800D03*
%TD*%
D24*
%TO.C,H3*%
X122000000Y-176000000D03*
D25*
X122000000Y-176000000D03*
%TD*%
D15*
%TO.C,Q13*%
X85347800Y-162310200D03*
D16*
X87887800Y-159770200D03*
X90427800Y-162310200D03*
%TD*%
D13*
%TO.C,R30*%
X109448600Y-156311600D03*
D14*
X114528600Y-156311600D03*
%TD*%
D17*
%TO.C,J8*%
X120167400Y-103857000D03*
D18*
X120167400Y-98857000D03*
%TD*%
D15*
%TO.C,Q33*%
X123600800Y-113817400D03*
D16*
X123600800Y-111277400D03*
X123600800Y-108737400D03*
%TD*%
D15*
%TO.C,Q17*%
X85373200Y-169160200D03*
D16*
X87913200Y-169160200D03*
X90453200Y-169160200D03*
%TD*%
D13*
%TO.C,R20*%
X102006400Y-94241200D03*
D14*
X102006400Y-99321200D03*
%TD*%
D21*
%TO.C,C13*%
X81096800Y-97721800D03*
X83596800Y-97721800D03*
%TD*%
D26*
%TO.C,C4*%
X101705415Y-136575800D03*
D27*
X96705415Y-136575800D03*
%TD*%
D13*
%TO.C,R23*%
X113897400Y-162022000D03*
D14*
X113897400Y-167102000D03*
%TD*%
D13*
%TO.C,R39*%
X114300000Y-83158800D03*
D14*
X114300000Y-88238800D03*
%TD*%
D19*
%TO.C,D2*%
X45999400Y-155448000D03*
D20*
X35839400Y-155448000D03*
%TD*%
D13*
%TO.C,R26*%
X102006400Y-90127200D03*
D14*
X102006400Y-85047200D03*
%TD*%
D15*
%TO.C,Q36*%
X73355200Y-167700200D03*
D16*
X70815200Y-170240200D03*
X68275200Y-167700200D03*
%TD*%
D15*
%TO.C,Q21*%
X85195400Y-176018200D03*
D16*
X87735400Y-176018200D03*
X90275400Y-176018200D03*
%TD*%
D13*
%TO.C,R21*%
X69799200Y-99221200D03*
D14*
X69799200Y-94141200D03*
%TD*%
D15*
%TO.C,Q35*%
X49776000Y-166425200D03*
D16*
X52316000Y-168965200D03*
X49776000Y-171505200D03*
%TD*%
D15*
%TO.C,Q20*%
X73609200Y-86423200D03*
D16*
X76149200Y-86423200D03*
X78689200Y-86423200D03*
%TD*%
D13*
%TO.C,R27*%
X69799200Y-90127200D03*
D14*
X69799200Y-85047200D03*
%TD*%
D15*
%TO.C,Q18*%
X110620800Y-168440200D03*
D16*
X108080800Y-168440200D03*
X105540800Y-168440200D03*
%TD*%
D13*
%TO.C,R8*%
X41452800Y-114122200D03*
D14*
X36372800Y-114122200D03*
%TD*%
D26*
%TO.C,C20*%
X101172015Y-152654000D03*
D27*
X96172015Y-152654000D03*
%TD*%
D13*
%TO.C,R10*%
X41427400Y-109423200D03*
D14*
X36347400Y-109423200D03*
%TD*%
D15*
%TO.C,Q11*%
X98729800Y-100203000D03*
D16*
X96189800Y-102743000D03*
X93649800Y-100203000D03*
%TD*%
D13*
%TO.C,R34*%
X110897200Y-138836400D03*
D14*
X110897200Y-143916400D03*
%TD*%
D21*
%TO.C,C14*%
X103327200Y-163068000D03*
X100827200Y-163068000D03*
%TD*%
D11*
%TO.C,J2*%
X32893000Y-92608400D03*
D12*
X32893000Y-95148400D03*
X32893000Y-97688400D03*
X32893000Y-100228400D03*
X32893000Y-102768400D03*
%TD*%
D26*
%TO.C,C6*%
X68499985Y-135255000D03*
D27*
X73499985Y-135255000D03*
%TD*%
D15*
%TO.C,Q32*%
X122780000Y-126339600D03*
D16*
X122780000Y-128879600D03*
X122780000Y-131419600D03*
%TD*%
D21*
%TO.C,C16*%
X109956600Y-103327200D03*
X107456600Y-103327200D03*
%TD*%
D15*
%TO.C,Q19*%
X98729800Y-85703200D03*
D16*
X96189800Y-85703200D03*
X93649800Y-85703200D03*
%TD*%
D21*
%TO.C,C15*%
X110846400Y-133827200D03*
X110846400Y-136327200D03*
%TD*%
D13*
%TO.C,R37*%
X117957600Y-123393200D03*
D14*
X123037600Y-123393200D03*
%TD*%
D15*
%TO.C,Q25*%
X110650400Y-114655600D03*
D16*
X108110400Y-112115600D03*
X110650400Y-109575600D03*
%TD*%
D21*
%TO.C,R2*%
X33375600Y-108661200D03*
D28*
X33375600Y-118821200D03*
%TD*%
D25*
%TO.C,H1*%
X32000000Y-86000000D03*
D24*
X32000000Y-86000000D03*
%TD*%
D21*
%TO.C,R3*%
X55397400Y-127457200D03*
D28*
X55397400Y-137617200D03*
%TD*%
D26*
%TO.C,C1*%
X74087985Y-119430800D03*
D27*
X79087985Y-119430800D03*
%TD*%
D13*
%TO.C,R24*%
X86079800Y-97925000D03*
D14*
X91159800Y-97925000D03*
%TD*%
D21*
%TO.C,C7*%
X48187200Y-126644400D03*
X48187200Y-129144400D03*
%TD*%
%TO.C,C11*%
X52654200Y-104337800D03*
X52654200Y-106837800D03*
%TD*%
D15*
%TO.C,Q38*%
X73101200Y-175378200D03*
D16*
X70561200Y-175378200D03*
X68021200Y-175378200D03*
%TD*%
D21*
%TO.C,C5*%
X44918000Y-135382000D03*
X39918000Y-135382000D03*
%TD*%
D15*
%TO.C,Q15*%
X98729800Y-93315200D03*
D16*
X96189800Y-93315200D03*
X93649800Y-93315200D03*
%TD*%
D19*
%TO.C,D6*%
X60406200Y-88341200D03*
D29*
X57866200Y-88341200D03*
%TD*%
D30*
%TO.C,J9*%
X58068000Y-173507400D03*
D31*
X63068000Y-173507400D03*
%TD*%
D15*
%TO.C,Q37*%
X48006000Y-176102600D03*
D16*
X50546000Y-176102600D03*
X53086000Y-176102600D03*
%TD*%
D32*
%TO.C,C19*%
X47457287Y-160350200D03*
D21*
X49457287Y-160350200D03*
%TD*%
D26*
%TO.C,C23*%
X102061015Y-121843800D03*
D27*
X97061015Y-121843800D03*
%TD*%
D15*
%TO.C,Q28*%
X115845800Y-126339600D03*
D16*
X115845800Y-128879600D03*
X115845800Y-131419600D03*
%TD*%
D21*
%TO.C,C2*%
X29616400Y-127852800D03*
X29616400Y-132852800D03*
%TD*%
D33*
%TO.C,U1*%
X45044600Y-109941200D03*
D34*
X45044600Y-112481200D03*
X45044600Y-115021200D03*
X45044600Y-117561200D03*
X52664600Y-117561200D03*
X52664600Y-115021200D03*
X52664600Y-112481200D03*
X52664600Y-109941200D03*
%TD*%
D13*
%TO.C,R11*%
X56388000Y-105410000D03*
D14*
X61468000Y-105410000D03*
%TD*%
D19*
%TO.C,D4*%
X53776800Y-84556600D03*
D29*
X51236800Y-84556600D03*
%TD*%
D13*
%TO.C,R29*%
X113770400Y-171318400D03*
D14*
X113770400Y-176398400D03*
%TD*%
D13*
%TO.C,R36*%
X119938800Y-155930600D03*
D14*
X125018800Y-155930600D03*
%TD*%
D15*
%TO.C,Q23*%
X110549600Y-152806400D03*
D16*
X108009600Y-150266400D03*
X110549600Y-147726400D03*
%TD*%
D13*
%TO.C,R9*%
X49276000Y-101854000D03*
D14*
X49276000Y-106934000D03*
%TD*%
D35*
%TO.C,T1*%
X45440600Y-140065760D03*
X35941000Y-140065760D03*
X35941000Y-150764240D03*
X45440600Y-150764240D03*
%TD*%
D15*
%TO.C,Q34*%
X119481600Y-92816000D03*
D16*
X122021600Y-92816000D03*
X124561600Y-92816000D03*
%TD*%
D15*
%TO.C,Q12*%
X73609200Y-101514400D03*
D16*
X76149200Y-98974400D03*
X78689200Y-101514400D03*
%TD*%
D36*
%TO.C,RV1*%
X66899800Y-115609600D03*
X56899800Y-118109600D03*
X66899800Y-120609600D03*
%TD*%
D37*
%TO.C,U2*%
X62611000Y-110871000D03*
D38*
X62611000Y-109601000D03*
X62611000Y-108331000D03*
%TD*%
D15*
%TO.C,Q22*%
X110468400Y-175298200D03*
D16*
X107928400Y-175298200D03*
X105388400Y-175298200D03*
%TD*%
D24*
%TO.C,H5*%
X81483200Y-130911600D03*
D25*
X81483200Y-130911600D03*
%TD*%
D15*
%TO.C,Q24*%
X109009600Y-125298200D03*
D16*
X111549600Y-127838200D03*
X109009600Y-130378200D03*
%TD*%
D15*
%TO.C,Q29*%
X116666600Y-113817400D03*
D16*
X116666600Y-111277400D03*
X116666600Y-108737400D03*
%TD*%
D13*
%TO.C,R7*%
X51612800Y-134036600D03*
D14*
X51612800Y-128956600D03*
%TD*%
D13*
%TO.C,R40*%
X60655200Y-160374800D03*
D14*
X60655200Y-165454800D03*
%TD*%
D32*
%TO.C,C18*%
X53340000Y-155575000D03*
D21*
X53340000Y-157575000D03*
%TD*%
%TO.C,R4*%
X58851800Y-137642600D03*
D28*
X58851800Y-127482600D03*
%TD*%
D19*
%TO.C,D1*%
X47320200Y-121640600D03*
D20*
X52400200Y-121640600D03*
%TD*%
D13*
%TO.C,R38*%
X118591800Y-117779800D03*
D14*
X123671800Y-117779800D03*
%TD*%
D13*
%TO.C,R1*%
X31826200Y-135890000D03*
D14*
X36906200Y-135890000D03*
%TD*%
D15*
%TO.C,Q14*%
X111103400Y-161583000D03*
D16*
X108563400Y-164123000D03*
X106023400Y-161583000D03*
%TD*%
D15*
%TO.C,Q16*%
X73609200Y-93898800D03*
D16*
X76149200Y-93898800D03*
X78689200Y-93898800D03*
%TD*%
D30*
%TO.C,J6*%
X95152200Y-173427400D03*
D31*
X100152200Y-173427400D03*
%TD*%
D30*
%TO.C,J5*%
X88819400Y-88323800D03*
D31*
X83819400Y-88323800D03*
%TD*%
D25*
%TO.C,H4*%
X32000000Y-176000000D03*
D24*
X32000000Y-176000000D03*
%TD*%
D15*
%TO.C,Q31*%
X123500000Y-152628600D03*
D16*
X123500000Y-150088600D03*
X123500000Y-147548600D03*
%TD*%
D13*
%TO.C,R33*%
X105764800Y-86004400D03*
D14*
X110844800Y-86004400D03*
%TD*%
D21*
%TO.C,C12*%
X66294000Y-110744000D03*
X66294000Y-108244000D03*
%TD*%
D26*
%TO.C,C22*%
X89382600Y-108327185D03*
D27*
X89382600Y-113327185D03*
%TD*%
D13*
%TO.C,R28*%
X81969600Y-170886600D03*
D14*
X81969600Y-175966600D03*
%TD*%
D13*
%TO.C,R31*%
X109931200Y-122758200D03*
D14*
X115011200Y-122758200D03*
%TD*%
D26*
%TO.C,C21*%
X81686400Y-154283415D03*
D27*
X81686400Y-149283415D03*
%TD*%
D13*
%TO.C,R22*%
X82020400Y-166697200D03*
D14*
X82020400Y-161617200D03*
%TD*%
D13*
%TO.C,R6*%
X36372800Y-116611400D03*
D14*
X41452800Y-116611400D03*
%TD*%
D19*
%TO.C,D5*%
X53776800Y-91160600D03*
D29*
X51236800Y-91160600D03*
%TD*%
D15*
%TO.C,Q30*%
X116763800Y-92096000D03*
D16*
X114223800Y-92096000D03*
X111683800Y-92096000D03*
%TD*%
D13*
%TO.C,R17*%
X57276200Y-82854800D03*
D14*
X62356200Y-82854800D03*
%TD*%
D13*
%TO.C,R35*%
X107442000Y-106451400D03*
D14*
X112522000Y-106451400D03*
%TD*%
D24*
%TO.C,H2*%
X122000000Y-86000000D03*
D25*
X122000000Y-86000000D03*
%TD*%
D13*
%TO.C,R32*%
X115265200Y-117475000D03*
D14*
X110185200Y-117475000D03*
%TD*%
D26*
%TO.C,C3*%
X62661800Y-150749000D03*
D27*
X67661800Y-150749000D03*
%TD*%
D13*
%TO.C,R16*%
X29718000Y-123063000D03*
D14*
X34798000Y-123063000D03*
%TD*%
M02*
