%TF.GenerationSoftware,KiCad,Pcbnew,(5.1.10)-1*%
%TF.CreationDate,2021-11-19T12:16:16+02:00*%
%TF.ProjectId,25-station-led-alarm,32352d73-7461-4746-996f-6e2d6c65642d,rev?*%
%TF.SameCoordinates,Original*%
%TF.FileFunction,Copper,L1,Top*%
%TF.FilePolarity,Positive*%
%FSLAX46Y46*%
G04 Gerber Fmt 4.6, Leading zero omitted, Abs format (unit mm)*
G04 Created by KiCad (PCBNEW (5.1.10)-1) date 2021-11-19 12:16:16*
%MOMM*%
%LPD*%
G01*
G04 APERTURE LIST*
%TA.AperFunction,ComponentPad*%
%ADD10R,1.800000X1.800000*%
%TD*%
%TA.AperFunction,ComponentPad*%
%ADD11C,1.800000*%
%TD*%
%TA.AperFunction,ComponentPad*%
%ADD12C,1.300000*%
%TD*%
%TA.AperFunction,ComponentPad*%
%ADD13R,1.300000X1.300000*%
%TD*%
%TA.AperFunction,ComponentPad*%
%ADD14C,1.600000*%
%TD*%
%TA.AperFunction,ComponentPad*%
%ADD15O,1.600000X1.600000*%
%TD*%
%TA.AperFunction,ComponentPad*%
%ADD16C,1.524000*%
%TD*%
%TA.AperFunction,ComponentPad*%
%ADD17R,1.700000X1.700000*%
%TD*%
%TA.AperFunction,ComponentPad*%
%ADD18O,1.700000X1.700000*%
%TD*%
%TA.AperFunction,ComponentPad*%
%ADD19R,2.400000X2.400000*%
%TD*%
%TA.AperFunction,ComponentPad*%
%ADD20O,2.400000X2.400000*%
%TD*%
%TA.AperFunction,Conductor*%
%ADD21C,0.250000*%
%TD*%
%TA.AperFunction,Conductor*%
%ADD22C,1.000000*%
%TD*%
%TA.AperFunction,Conductor*%
%ADD23C,0.254000*%
%TD*%
%TA.AperFunction,Conductor*%
%ADD24C,0.100000*%
%TD*%
G04 APERTURE END LIST*
D10*
%TO.P,D1,1*%
%TO.N,Net-(D1-Pad1)*%
X160000000Y-132000000D03*
D11*
%TO.P,D1,2*%
%TO.N,+5V*%
X162540000Y-132000000D03*
%TD*%
%TO.P,D2,2*%
%TO.N,Net-(D1-Pad1)*%
X155540000Y-132000000D03*
D10*
%TO.P,D2,1*%
%TO.N,Net-(D10-Pad1)*%
X153000000Y-132000000D03*
%TD*%
D11*
%TO.P,D3,2*%
%TO.N,+5V*%
X162540000Y-138000000D03*
D10*
%TO.P,D3,1*%
%TO.N,Net-(D3-Pad1)*%
X160000000Y-138000000D03*
%TD*%
%TO.P,D4,1*%
%TO.N,Net-(D10-Pad2)*%
X160000000Y-126000000D03*
D11*
%TO.P,D4,2*%
%TO.N,+5V*%
X162540000Y-126000000D03*
%TD*%
D10*
%TO.P,D5,1*%
%TO.N,Net-(D5-Pad1)*%
X160000000Y-118000000D03*
D11*
%TO.P,D5,2*%
%TO.N,+5V*%
X162540000Y-118000000D03*
%TD*%
%TO.P,D6,2*%
%TO.N,+5V*%
X162540000Y-109000000D03*
D10*
%TO.P,D6,1*%
%TO.N,Net-(D11-Pad2)*%
X160000000Y-109000000D03*
%TD*%
%TO.P,D7,1*%
%TO.N,Net-(D12-Pad2)*%
X160000000Y-100000000D03*
D11*
%TO.P,D7,2*%
%TO.N,+5V*%
X162540000Y-100000000D03*
%TD*%
D10*
%TO.P,D8,1*%
%TO.N,Net-(D11-Pad1)*%
X152000000Y-118000000D03*
D11*
%TO.P,D8,2*%
%TO.N,Net-(D5-Pad1)*%
X154540000Y-118000000D03*
%TD*%
D10*
%TO.P,D9,1*%
%TO.N,Net-(D10-Pad1)*%
X153000000Y-138000000D03*
D11*
%TO.P,D9,2*%
%TO.N,Net-(D3-Pad1)*%
X155540000Y-138000000D03*
%TD*%
%TO.P,D10,2*%
%TO.N,Net-(D10-Pad2)*%
X155540000Y-126000000D03*
D10*
%TO.P,D10,1*%
%TO.N,Net-(D10-Pad1)*%
X153000000Y-126000000D03*
%TD*%
%TO.P,D11,1*%
%TO.N,Net-(D11-Pad1)*%
X152000000Y-109000000D03*
D11*
%TO.P,D11,2*%
%TO.N,Net-(D11-Pad2)*%
X154540000Y-109000000D03*
%TD*%
%TO.P,D12,2*%
%TO.N,Net-(D12-Pad2)*%
X154540000Y-100000000D03*
D10*
%TO.P,D12,1*%
%TO.N,Net-(D11-Pad1)*%
X152000000Y-100000000D03*
%TD*%
D12*
%TO.P,Q1,2*%
%TO.N,Net-(Q1-Pad2)*%
X141203680Y-122869960D03*
%TO.P,Q1,3*%
%TO.N,GND*%
X142473680Y-121599960D03*
D13*
%TO.P,Q1,1*%
%TO.N,Net-(Q1-Pad1)*%
X142473680Y-124139960D03*
%TD*%
D12*
%TO.P,Q2,2*%
%TO.N,Net-(Q2-Pad2)*%
X140246100Y-111089440D03*
%TO.P,Q2,3*%
%TO.N,GND*%
X141516100Y-109819440D03*
D13*
%TO.P,Q2,1*%
%TO.N,Net-(Q2-Pad1)*%
X141516100Y-112359440D03*
%TD*%
%TO.P,Q3,1*%
%TO.N,Net-(BZ1-Pad2)*%
X139694920Y-137581640D03*
D12*
%TO.P,Q3,3*%
%TO.N,GND*%
X137154920Y-137581640D03*
%TO.P,Q3,2*%
%TO.N,Net-(Q3-Pad2)*%
X138424920Y-138851640D03*
%TD*%
D14*
%TO.P,R1,1*%
%TO.N,+5V*%
X162000000Y-143000000D03*
D15*
%TO.P,R1,2*%
%TO.N,Net-(BZ1-Pad1)*%
X162000000Y-158240000D03*
%TD*%
D14*
%TO.P,R2,1*%
%TO.N,Net-(Q1-Pad2)*%
X129438400Y-115818920D03*
D15*
%TO.P,R2,2*%
%TO.N,GND*%
X129438400Y-100578920D03*
%TD*%
D14*
%TO.P,R3,1*%
%TO.N,Net-(D11-Pad1)*%
X147000000Y-100000000D03*
D15*
%TO.P,R3,2*%
%TO.N,Net-(Q2-Pad1)*%
X147000000Y-112700000D03*
%TD*%
D14*
%TO.P,R4,1*%
%TO.N,Net-(Q1-Pad2)*%
X129593340Y-122829320D03*
D15*
%TO.P,R4,2*%
%TO.N,/P1*%
X129593340Y-135529320D03*
%TD*%
%TO.P,R5,2*%
%TO.N,/P2*%
X135000000Y-98300000D03*
D14*
%TO.P,R5,1*%
%TO.N,Net-(Q2-Pad2)*%
X135000000Y-111000000D03*
%TD*%
D15*
%TO.P,R6,2*%
%TO.N,Net-(Q1-Pad1)*%
X147000000Y-124300000D03*
D14*
%TO.P,R6,1*%
%TO.N,Net-(D10-Pad1)*%
X147000000Y-137000000D03*
%TD*%
D15*
%TO.P,R7,2*%
%TO.N,GND*%
X135000000Y-131240000D03*
D14*
%TO.P,R7,1*%
%TO.N,Net-(Q2-Pad2)*%
X135000000Y-116000000D03*
%TD*%
D15*
%TO.P,R8,2*%
%TO.N,GND*%
X132778500Y-138132820D03*
D14*
%TO.P,R8,1*%
%TO.N,Net-(Q3-Pad2)*%
X132778500Y-153372820D03*
%TD*%
%TO.P,R9,1*%
%TO.N,Net-(Q3-Pad2)*%
X137772140Y-143090900D03*
D15*
%TO.P,R9,2*%
%TO.N,/P3*%
X137772140Y-155790900D03*
%TD*%
D16*
%TO.P,BZ1,1*%
%TO.N,Net-(BZ1-Pad1)*%
X146771360Y-152983000D03*
%TO.P,BZ1,2*%
%TO.N,Net-(BZ1-Pad2)*%
X146771360Y-146483000D03*
%TD*%
D17*
%TO.P,J1,1*%
%TO.N,/P3*%
X141127480Y-94145100D03*
D18*
%TO.P,J1,2*%
%TO.N,+5V*%
X141127480Y-91605100D03*
%TO.P,J1,3*%
%TO.N,/P1*%
X143667480Y-94145100D03*
%TO.P,J1,4*%
%TO.N,/P2*%
X143667480Y-91605100D03*
%TO.P,J1,5*%
%TO.N,N/C*%
X146207480Y-94145100D03*
%TO.P,J1,6*%
%TO.N,GND*%
X146207480Y-91605100D03*
%TD*%
D19*
%TO.P,D13,1*%
%TO.N,Net-(BZ1-Pad1)*%
X156486860Y-157688280D03*
D20*
%TO.P,D13,2*%
%TO.N,Net-(BZ1-Pad2)*%
X156486860Y-144988280D03*
%TD*%
D21*
%TO.N,GND*%
X138043920Y-91998800D02*
X139151360Y-91998800D01*
X138686540Y-91424760D02*
X138686540Y-92425520D01*
D22*
X146207480Y-91605100D02*
X149618700Y-91605100D01*
%TO.N,/P3*%
X137772140Y-151841200D02*
X137772140Y-155790900D01*
X141127480Y-95995100D02*
X141178280Y-96045900D01*
X141127480Y-94145100D02*
X141127480Y-95995100D01*
X141178280Y-96045900D02*
X141178280Y-98303080D01*
X141178280Y-98303080D02*
X126380240Y-113101120D01*
X126380240Y-113101120D02*
X126380240Y-140449300D01*
X126380240Y-140449300D02*
X137772140Y-151841200D01*
%TO.N,/P1*%
X129593340Y-134397950D02*
X129593340Y-135529320D01*
X129593340Y-129179320D02*
X129593340Y-134397950D01*
X144409160Y-114363500D02*
X129593340Y-129179320D01*
X143667480Y-94145100D02*
X144409160Y-94886780D01*
X144409160Y-94886780D02*
X144409160Y-114363500D01*
%TO.N,/P2*%
X135000000Y-97168630D02*
X135000000Y-98300000D01*
X135000000Y-93020880D02*
X135000000Y-97168630D01*
X138836400Y-89184480D02*
X135000000Y-93020880D01*
X142783560Y-89184480D02*
X138836400Y-89184480D01*
X143667480Y-91605100D02*
X143667480Y-90068400D01*
X143667480Y-90068400D02*
X142783560Y-89184480D01*
%TD*%
D23*
%TO.N,GND*%
X166340001Y-159340000D02*
X162929396Y-159340000D01*
X163114637Y-159154759D01*
X163271680Y-158919727D01*
X163379853Y-158658574D01*
X163435000Y-158381335D01*
X163435000Y-158098665D01*
X163379853Y-157821426D01*
X163271680Y-157560273D01*
X163114637Y-157325241D01*
X162914759Y-157125363D01*
X162679727Y-156968320D01*
X162418574Y-156860147D01*
X162141335Y-156805000D01*
X161858665Y-156805000D01*
X161581426Y-156860147D01*
X161320273Y-156968320D01*
X161085241Y-157125363D01*
X160885363Y-157325241D01*
X160728320Y-157560273D01*
X160620147Y-157821426D01*
X160565000Y-158098665D01*
X160565000Y-158381335D01*
X160620147Y-158658574D01*
X160728320Y-158919727D01*
X160885363Y-159154759D01*
X161070604Y-159340000D01*
X158137393Y-159340000D01*
X158138045Y-159339465D01*
X158217397Y-159242774D01*
X158276362Y-159132460D01*
X158312672Y-159012762D01*
X158324932Y-158888280D01*
X158324932Y-156488280D01*
X158312672Y-156363798D01*
X158276362Y-156244100D01*
X158217397Y-156133786D01*
X158138045Y-156037095D01*
X158041354Y-155957743D01*
X157931040Y-155898778D01*
X157811342Y-155862468D01*
X157686860Y-155850208D01*
X155286860Y-155850208D01*
X155162378Y-155862468D01*
X155042680Y-155898778D01*
X154932366Y-155957743D01*
X154835675Y-156037095D01*
X154756323Y-156133786D01*
X154697358Y-156244100D01*
X154661048Y-156363798D01*
X154648788Y-156488280D01*
X154648788Y-158888280D01*
X154661048Y-159012762D01*
X154697358Y-159132460D01*
X154756323Y-159242774D01*
X154835675Y-159339465D01*
X154836327Y-159340000D01*
X140493281Y-159340000D01*
X124817985Y-159162905D01*
X124815952Y-157521178D01*
X127082547Y-157521178D01*
X127220504Y-157821384D01*
X127569747Y-157997222D01*
X127946584Y-158101547D01*
X128336533Y-158130349D01*
X128724608Y-158082524D01*
X129095896Y-157959908D01*
X129355056Y-157821384D01*
X129493013Y-157521178D01*
X128287780Y-156315945D01*
X127082547Y-157521178D01*
X124815952Y-157521178D01*
X124814297Y-156185093D01*
X126293771Y-156185093D01*
X126341596Y-156573168D01*
X126464212Y-156944456D01*
X126602736Y-157203616D01*
X126902942Y-157341573D01*
X128108175Y-156136340D01*
X128467385Y-156136340D01*
X129672618Y-157341573D01*
X129972824Y-157203616D01*
X130148662Y-156854373D01*
X130252987Y-156477536D01*
X130281789Y-156087587D01*
X130233964Y-155699512D01*
X130111348Y-155328224D01*
X129972824Y-155069064D01*
X129672618Y-154931107D01*
X128467385Y-156136340D01*
X128108175Y-156136340D01*
X126902942Y-154931107D01*
X126602736Y-155069064D01*
X126426898Y-155418307D01*
X126322573Y-155795144D01*
X126293771Y-156185093D01*
X124814297Y-156185093D01*
X124812522Y-154751502D01*
X127082547Y-154751502D01*
X128287780Y-155956735D01*
X129493013Y-154751502D01*
X129355056Y-154451296D01*
X129005813Y-154275458D01*
X128628976Y-154171133D01*
X128239027Y-154142331D01*
X127850952Y-154190156D01*
X127479664Y-154312772D01*
X127220504Y-154451296D01*
X127082547Y-154751502D01*
X124812522Y-154751502D01*
X124810639Y-153231485D01*
X131343500Y-153231485D01*
X131343500Y-153514155D01*
X131398647Y-153791394D01*
X131506820Y-154052547D01*
X131663863Y-154287579D01*
X131863741Y-154487457D01*
X132098773Y-154644500D01*
X132359926Y-154752673D01*
X132637165Y-154807820D01*
X132919835Y-154807820D01*
X133197074Y-154752673D01*
X133458227Y-154644500D01*
X133693259Y-154487457D01*
X133893137Y-154287579D01*
X134050180Y-154052547D01*
X134158353Y-153791394D01*
X134213500Y-153514155D01*
X134213500Y-153231485D01*
X134158353Y-152954246D01*
X134050180Y-152693093D01*
X133893137Y-152458061D01*
X133693259Y-152258183D01*
X133458227Y-152101140D01*
X133197074Y-151992967D01*
X132919835Y-151937820D01*
X132637165Y-151937820D01*
X132359926Y-151992967D01*
X132098773Y-152101140D01*
X131863741Y-152258183D01*
X131663863Y-152458061D01*
X131506820Y-152693093D01*
X131398647Y-152954246D01*
X131343500Y-153231485D01*
X124810639Y-153231485D01*
X124804386Y-148184138D01*
X126508507Y-148184138D01*
X126646464Y-148484344D01*
X126995707Y-148660182D01*
X127372544Y-148764507D01*
X127762493Y-148793309D01*
X128150568Y-148745484D01*
X128521856Y-148622868D01*
X128781016Y-148484344D01*
X128918973Y-148184138D01*
X127713740Y-146978905D01*
X126508507Y-148184138D01*
X124804386Y-148184138D01*
X124802730Y-146848053D01*
X125719731Y-146848053D01*
X125767556Y-147236128D01*
X125890172Y-147607416D01*
X126028696Y-147866576D01*
X126328902Y-148004533D01*
X127534135Y-146799300D01*
X127893345Y-146799300D01*
X129098578Y-148004533D01*
X129398784Y-147866576D01*
X129574622Y-147517333D01*
X129678947Y-147140496D01*
X129707749Y-146750547D01*
X129659924Y-146362472D01*
X129537308Y-145991184D01*
X129398784Y-145732024D01*
X129098578Y-145594067D01*
X127893345Y-146799300D01*
X127534135Y-146799300D01*
X126328902Y-145594067D01*
X126028696Y-145732024D01*
X125852858Y-146081267D01*
X125748533Y-146458104D01*
X125719731Y-146848053D01*
X124802730Y-146848053D01*
X124800955Y-145414462D01*
X126508507Y-145414462D01*
X127713740Y-146619695D01*
X128918973Y-145414462D01*
X128781016Y-145114256D01*
X128431773Y-144938418D01*
X128054936Y-144834093D01*
X127664987Y-144805291D01*
X127276912Y-144853116D01*
X126905624Y-144975732D01*
X126646464Y-145114256D01*
X126508507Y-145414462D01*
X124800955Y-145414462D01*
X124760923Y-113101120D01*
X125239749Y-113101120D01*
X125245240Y-113156871D01*
X125245241Y-140393538D01*
X125239749Y-140449300D01*
X125261663Y-140671798D01*
X125326564Y-140885746D01*
X125326565Y-140885747D01*
X125431957Y-141082923D01*
X125573792Y-141255749D01*
X125617100Y-141291291D01*
X136637140Y-152311332D01*
X136637141Y-154906615D01*
X136500460Y-155111173D01*
X136392287Y-155372326D01*
X136337140Y-155649565D01*
X136337140Y-155932235D01*
X136392287Y-156209474D01*
X136500460Y-156470627D01*
X136657503Y-156705659D01*
X136857381Y-156905537D01*
X137092413Y-157062580D01*
X137353566Y-157170753D01*
X137630805Y-157225900D01*
X137913475Y-157225900D01*
X138190714Y-157170753D01*
X138451867Y-157062580D01*
X138686899Y-156905537D01*
X138886777Y-156705659D01*
X139043820Y-156470627D01*
X139151993Y-156209474D01*
X139207140Y-155932235D01*
X139207140Y-155649565D01*
X139151993Y-155372326D01*
X139043820Y-155111173D01*
X138907140Y-154906616D01*
X138907140Y-152845408D01*
X145374360Y-152845408D01*
X145374360Y-153120592D01*
X145428046Y-153390490D01*
X145533355Y-153644727D01*
X145686240Y-153873535D01*
X145880825Y-154068120D01*
X146109633Y-154221005D01*
X146363870Y-154326314D01*
X146633768Y-154380000D01*
X146908952Y-154380000D01*
X147178850Y-154326314D01*
X147433087Y-154221005D01*
X147661895Y-154068120D01*
X147856480Y-153873535D01*
X148009365Y-153644727D01*
X148114674Y-153390490D01*
X148168360Y-153120592D01*
X148168360Y-152845408D01*
X148114674Y-152575510D01*
X148009365Y-152321273D01*
X147856480Y-152092465D01*
X147661895Y-151897880D01*
X147433087Y-151744995D01*
X147178850Y-151639686D01*
X146908952Y-151586000D01*
X146633768Y-151586000D01*
X146363870Y-151639686D01*
X146109633Y-151744995D01*
X145880825Y-151897880D01*
X145686240Y-152092465D01*
X145533355Y-152321273D01*
X145428046Y-152575510D01*
X145374360Y-152845408D01*
X138907140Y-152845408D01*
X138907140Y-151896941D01*
X138912630Y-151841199D01*
X138907140Y-151785457D01*
X138907140Y-151785448D01*
X138890717Y-151618701D01*
X138825816Y-151404753D01*
X138720424Y-151207577D01*
X138578589Y-151034751D01*
X138535281Y-150999209D01*
X133881480Y-146345408D01*
X145374360Y-146345408D01*
X145374360Y-146620592D01*
X145428046Y-146890490D01*
X145533355Y-147144727D01*
X145686240Y-147373535D01*
X145880825Y-147568120D01*
X146109633Y-147721005D01*
X146363870Y-147826314D01*
X146633768Y-147880000D01*
X146908952Y-147880000D01*
X147178850Y-147826314D01*
X147433087Y-147721005D01*
X147661895Y-147568120D01*
X147856480Y-147373535D01*
X148009365Y-147144727D01*
X148114674Y-146890490D01*
X148168360Y-146620592D01*
X148168360Y-146345408D01*
X148114674Y-146075510D01*
X148009365Y-145821273D01*
X147856480Y-145592465D01*
X147661895Y-145397880D01*
X147433087Y-145244995D01*
X147178850Y-145139686D01*
X146908952Y-145086000D01*
X146633768Y-145086000D01*
X146363870Y-145139686D01*
X146109633Y-145244995D01*
X145880825Y-145397880D01*
X145686240Y-145592465D01*
X145533355Y-145821273D01*
X145428046Y-146075510D01*
X145374360Y-146345408D01*
X133881480Y-146345408D01*
X132343620Y-144807548D01*
X154651860Y-144807548D01*
X154651860Y-145169012D01*
X154722378Y-145523530D01*
X154860704Y-145857479D01*
X155061522Y-146158024D01*
X155317116Y-146413618D01*
X155617661Y-146614436D01*
X155951610Y-146752762D01*
X156306128Y-146823280D01*
X156667592Y-146823280D01*
X157022110Y-146752762D01*
X157356059Y-146614436D01*
X157656604Y-146413618D01*
X157912198Y-146158024D01*
X158113016Y-145857479D01*
X158251342Y-145523530D01*
X158321860Y-145169012D01*
X158321860Y-144807548D01*
X158251342Y-144453030D01*
X158113016Y-144119081D01*
X157912198Y-143818536D01*
X157656604Y-143562942D01*
X157356059Y-143362124D01*
X157022110Y-143223798D01*
X156667592Y-143153280D01*
X156306128Y-143153280D01*
X155951610Y-143223798D01*
X155617661Y-143362124D01*
X155317116Y-143562942D01*
X155061522Y-143818536D01*
X154860704Y-144119081D01*
X154722378Y-144453030D01*
X154651860Y-144807548D01*
X132343620Y-144807548D01*
X130485637Y-142949565D01*
X136337140Y-142949565D01*
X136337140Y-143232235D01*
X136392287Y-143509474D01*
X136500460Y-143770627D01*
X136657503Y-144005659D01*
X136857381Y-144205537D01*
X137092413Y-144362580D01*
X137353566Y-144470753D01*
X137630805Y-144525900D01*
X137913475Y-144525900D01*
X138190714Y-144470753D01*
X138451867Y-144362580D01*
X138686899Y-144205537D01*
X138886777Y-144005659D01*
X139043820Y-143770627D01*
X139151993Y-143509474D01*
X139207140Y-143232235D01*
X139207140Y-142949565D01*
X139189059Y-142858665D01*
X160565000Y-142858665D01*
X160565000Y-143141335D01*
X160620147Y-143418574D01*
X160728320Y-143679727D01*
X160885363Y-143914759D01*
X161085241Y-144114637D01*
X161320273Y-144271680D01*
X161581426Y-144379853D01*
X161858665Y-144435000D01*
X162141335Y-144435000D01*
X162418574Y-144379853D01*
X162679727Y-144271680D01*
X162914759Y-144114637D01*
X163114637Y-143914759D01*
X163271680Y-143679727D01*
X163379853Y-143418574D01*
X163435000Y-143141335D01*
X163435000Y-142858665D01*
X163379853Y-142581426D01*
X163271680Y-142320273D01*
X163114637Y-142085241D01*
X162914759Y-141885363D01*
X162679727Y-141728320D01*
X162418574Y-141620147D01*
X162141335Y-141565000D01*
X161858665Y-141565000D01*
X161581426Y-141620147D01*
X161320273Y-141728320D01*
X161085241Y-141885363D01*
X160885363Y-142085241D01*
X160728320Y-142320273D01*
X160620147Y-142581426D01*
X160565000Y-142858665D01*
X139189059Y-142858665D01*
X139151993Y-142672326D01*
X139043820Y-142411173D01*
X138886777Y-142176141D01*
X138686899Y-141976263D01*
X138451867Y-141819220D01*
X138190714Y-141711047D01*
X137913475Y-141655900D01*
X137630805Y-141655900D01*
X137353566Y-141711047D01*
X137092413Y-141819220D01*
X136857381Y-141976263D01*
X136657503Y-142176141D01*
X136500460Y-142411173D01*
X136392287Y-142672326D01*
X136337140Y-142949565D01*
X130485637Y-142949565D01*
X127515240Y-139979169D01*
X127515240Y-138481860D01*
X131386591Y-138481860D01*
X131481430Y-138746701D01*
X131626115Y-138987951D01*
X131815086Y-139196339D01*
X132041080Y-139363857D01*
X132295413Y-139484066D01*
X132429461Y-139524724D01*
X132651500Y-139402735D01*
X132651500Y-138259820D01*
X132905500Y-138259820D01*
X132905500Y-139402735D01*
X133127539Y-139524724D01*
X133261587Y-139484066D01*
X133515920Y-139363857D01*
X133741914Y-139196339D01*
X133930885Y-138987951D01*
X134075570Y-138746701D01*
X134170409Y-138481860D01*
X134162384Y-138467167D01*
X136448998Y-138467167D01*
X136502386Y-138695841D01*
X136732294Y-138801735D01*
X136978444Y-138860742D01*
X137139920Y-138867030D01*
X137139920Y-138978201D01*
X137189301Y-139226461D01*
X137286167Y-139460316D01*
X137426795Y-139670780D01*
X137605780Y-139849765D01*
X137816244Y-139990393D01*
X138050099Y-140087259D01*
X138298359Y-140136640D01*
X138551481Y-140136640D01*
X138799741Y-140087259D01*
X139033596Y-139990393D01*
X139244060Y-139849765D01*
X139423045Y-139670780D01*
X139563673Y-139460316D01*
X139660539Y-139226461D01*
X139709920Y-138978201D01*
X139709920Y-138869712D01*
X140344920Y-138869712D01*
X140469402Y-138857452D01*
X140589100Y-138821142D01*
X140699414Y-138762177D01*
X140796105Y-138682825D01*
X140875457Y-138586134D01*
X140934422Y-138475820D01*
X140970732Y-138356122D01*
X140982992Y-138231640D01*
X140982992Y-136931640D01*
X140975805Y-136858665D01*
X145565000Y-136858665D01*
X145565000Y-137141335D01*
X145620147Y-137418574D01*
X145728320Y-137679727D01*
X145885363Y-137914759D01*
X146085241Y-138114637D01*
X146320273Y-138271680D01*
X146581426Y-138379853D01*
X146858665Y-138435000D01*
X147141335Y-138435000D01*
X147418574Y-138379853D01*
X147679727Y-138271680D01*
X147914759Y-138114637D01*
X148114637Y-137914759D01*
X148271680Y-137679727D01*
X148379853Y-137418574D01*
X148435000Y-137141335D01*
X148435000Y-137100000D01*
X151461928Y-137100000D01*
X151461928Y-138900000D01*
X151474188Y-139024482D01*
X151510498Y-139144180D01*
X151569463Y-139254494D01*
X151648815Y-139351185D01*
X151745506Y-139430537D01*
X151855820Y-139489502D01*
X151975518Y-139525812D01*
X152100000Y-139538072D01*
X153900000Y-139538072D01*
X154024482Y-139525812D01*
X154144180Y-139489502D01*
X154254494Y-139430537D01*
X154351185Y-139351185D01*
X154430537Y-139254494D01*
X154489502Y-139144180D01*
X154495056Y-139125873D01*
X154561495Y-139192312D01*
X154812905Y-139360299D01*
X155092257Y-139476011D01*
X155388816Y-139535000D01*
X155691184Y-139535000D01*
X155987743Y-139476011D01*
X156267095Y-139360299D01*
X156518505Y-139192312D01*
X156732312Y-138978505D01*
X156900299Y-138727095D01*
X157016011Y-138447743D01*
X157075000Y-138151184D01*
X157075000Y-137848816D01*
X157016011Y-137552257D01*
X156900299Y-137272905D01*
X156784768Y-137100000D01*
X158461928Y-137100000D01*
X158461928Y-138900000D01*
X158474188Y-139024482D01*
X158510498Y-139144180D01*
X158569463Y-139254494D01*
X158648815Y-139351185D01*
X158745506Y-139430537D01*
X158855820Y-139489502D01*
X158975518Y-139525812D01*
X159100000Y-139538072D01*
X160900000Y-139538072D01*
X161024482Y-139525812D01*
X161144180Y-139489502D01*
X161254494Y-139430537D01*
X161351185Y-139351185D01*
X161430537Y-139254494D01*
X161489502Y-139144180D01*
X161495056Y-139125873D01*
X161561495Y-139192312D01*
X161812905Y-139360299D01*
X162092257Y-139476011D01*
X162388816Y-139535000D01*
X162691184Y-139535000D01*
X162987743Y-139476011D01*
X163267095Y-139360299D01*
X163518505Y-139192312D01*
X163732312Y-138978505D01*
X163900299Y-138727095D01*
X164016011Y-138447743D01*
X164075000Y-138151184D01*
X164075000Y-137848816D01*
X164016011Y-137552257D01*
X163900299Y-137272905D01*
X163732312Y-137021495D01*
X163518505Y-136807688D01*
X163267095Y-136639701D01*
X162987743Y-136523989D01*
X162691184Y-136465000D01*
X162388816Y-136465000D01*
X162092257Y-136523989D01*
X161812905Y-136639701D01*
X161561495Y-136807688D01*
X161495056Y-136874127D01*
X161489502Y-136855820D01*
X161430537Y-136745506D01*
X161351185Y-136648815D01*
X161254494Y-136569463D01*
X161144180Y-136510498D01*
X161024482Y-136474188D01*
X160900000Y-136461928D01*
X159100000Y-136461928D01*
X158975518Y-136474188D01*
X158855820Y-136510498D01*
X158745506Y-136569463D01*
X158648815Y-136648815D01*
X158569463Y-136745506D01*
X158510498Y-136855820D01*
X158474188Y-136975518D01*
X158461928Y-137100000D01*
X156784768Y-137100000D01*
X156732312Y-137021495D01*
X156518505Y-136807688D01*
X156267095Y-136639701D01*
X155987743Y-136523989D01*
X155691184Y-136465000D01*
X155388816Y-136465000D01*
X155092257Y-136523989D01*
X154812905Y-136639701D01*
X154561495Y-136807688D01*
X154495056Y-136874127D01*
X154489502Y-136855820D01*
X154430537Y-136745506D01*
X154351185Y-136648815D01*
X154254494Y-136569463D01*
X154144180Y-136510498D01*
X154024482Y-136474188D01*
X153900000Y-136461928D01*
X152100000Y-136461928D01*
X151975518Y-136474188D01*
X151855820Y-136510498D01*
X151745506Y-136569463D01*
X151648815Y-136648815D01*
X151569463Y-136745506D01*
X151510498Y-136855820D01*
X151474188Y-136975518D01*
X151461928Y-137100000D01*
X148435000Y-137100000D01*
X148435000Y-136858665D01*
X148379853Y-136581426D01*
X148271680Y-136320273D01*
X148114637Y-136085241D01*
X147914759Y-135885363D01*
X147679727Y-135728320D01*
X147418574Y-135620147D01*
X147141335Y-135565000D01*
X146858665Y-135565000D01*
X146581426Y-135620147D01*
X146320273Y-135728320D01*
X146085241Y-135885363D01*
X145885363Y-136085241D01*
X145728320Y-136320273D01*
X145620147Y-136581426D01*
X145565000Y-136858665D01*
X140975805Y-136858665D01*
X140970732Y-136807158D01*
X140934422Y-136687460D01*
X140875457Y-136577146D01*
X140796105Y-136480455D01*
X140699414Y-136401103D01*
X140589100Y-136342138D01*
X140469402Y-136305828D01*
X140344920Y-136293568D01*
X139044920Y-136293568D01*
X138920438Y-136305828D01*
X138800740Y-136342138D01*
X138690426Y-136401103D01*
X138593735Y-136480455D01*
X138514383Y-136577146D01*
X138455418Y-136687460D01*
X138419108Y-136807158D01*
X138406848Y-136931640D01*
X138406848Y-137271936D01*
X138404190Y-137255191D01*
X138316498Y-137017744D01*
X138269121Y-136929106D01*
X138040447Y-136875718D01*
X137334525Y-137581640D01*
X137348668Y-137595783D01*
X137169063Y-137775388D01*
X137154920Y-137761245D01*
X136448998Y-138467167D01*
X134162384Y-138467167D01*
X134049124Y-138259820D01*
X132905500Y-138259820D01*
X132651500Y-138259820D01*
X131507876Y-138259820D01*
X131386591Y-138481860D01*
X127515240Y-138481860D01*
X127515240Y-137783780D01*
X131386591Y-137783780D01*
X131507876Y-138005820D01*
X132651500Y-138005820D01*
X132651500Y-136862905D01*
X132905500Y-136862905D01*
X132905500Y-138005820D01*
X134049124Y-138005820D01*
X134170409Y-137783780D01*
X134125402Y-137658095D01*
X135865968Y-137658095D01*
X135905650Y-137908089D01*
X135993342Y-138145536D01*
X136040719Y-138234174D01*
X136269393Y-138287562D01*
X136975315Y-137581640D01*
X136269393Y-136875718D01*
X136040719Y-136929106D01*
X135934825Y-137159014D01*
X135875818Y-137405164D01*
X135865968Y-137658095D01*
X134125402Y-137658095D01*
X134075570Y-137518939D01*
X133930885Y-137277689D01*
X133741914Y-137069301D01*
X133515920Y-136901783D01*
X133261587Y-136781574D01*
X133127539Y-136740916D01*
X132905500Y-136862905D01*
X132651500Y-136862905D01*
X132429461Y-136740916D01*
X132295413Y-136781574D01*
X132041080Y-136901783D01*
X131815086Y-137069301D01*
X131626115Y-137277689D01*
X131481430Y-137518939D01*
X131386591Y-137783780D01*
X127515240Y-137783780D01*
X127515240Y-122687985D01*
X128158340Y-122687985D01*
X128158340Y-122970655D01*
X128213487Y-123247894D01*
X128321660Y-123509047D01*
X128478703Y-123744079D01*
X128678581Y-123943957D01*
X128913613Y-124101000D01*
X129174766Y-124209173D01*
X129452005Y-124264320D01*
X129734675Y-124264320D01*
X130011914Y-124209173D01*
X130273067Y-124101000D01*
X130508099Y-123943957D01*
X130707977Y-123744079D01*
X130865020Y-123509047D01*
X130973193Y-123247894D01*
X131028340Y-122970655D01*
X131028340Y-122687985D01*
X130973193Y-122410746D01*
X130865020Y-122149593D01*
X130707977Y-121914561D01*
X130508099Y-121714683D01*
X130273067Y-121557640D01*
X130011914Y-121449467D01*
X129734675Y-121394320D01*
X129452005Y-121394320D01*
X129174766Y-121449467D01*
X128913613Y-121557640D01*
X128678581Y-121714683D01*
X128478703Y-121914561D01*
X128321660Y-122149593D01*
X128213487Y-122410746D01*
X128158340Y-122687985D01*
X127515240Y-122687985D01*
X127515240Y-115677585D01*
X128003400Y-115677585D01*
X128003400Y-115960255D01*
X128058547Y-116237494D01*
X128166720Y-116498647D01*
X128323763Y-116733679D01*
X128523641Y-116933557D01*
X128758673Y-117090600D01*
X129019826Y-117198773D01*
X129297065Y-117253920D01*
X129579735Y-117253920D01*
X129856974Y-117198773D01*
X130118127Y-117090600D01*
X130353159Y-116933557D01*
X130553037Y-116733679D01*
X130710080Y-116498647D01*
X130818253Y-116237494D01*
X130873400Y-115960255D01*
X130873400Y-115858665D01*
X133565000Y-115858665D01*
X133565000Y-116141335D01*
X133620147Y-116418574D01*
X133728320Y-116679727D01*
X133885363Y-116914759D01*
X134085241Y-117114637D01*
X134320273Y-117271680D01*
X134581426Y-117379853D01*
X134858665Y-117435000D01*
X135141335Y-117435000D01*
X135418574Y-117379853D01*
X135679727Y-117271680D01*
X135914759Y-117114637D01*
X136114637Y-116914759D01*
X136271680Y-116679727D01*
X136379853Y-116418574D01*
X136435000Y-116141335D01*
X136435000Y-115858665D01*
X136379853Y-115581426D01*
X136271680Y-115320273D01*
X136114637Y-115085241D01*
X135914759Y-114885363D01*
X135679727Y-114728320D01*
X135418574Y-114620147D01*
X135141335Y-114565000D01*
X134858665Y-114565000D01*
X134581426Y-114620147D01*
X134320273Y-114728320D01*
X134085241Y-114885363D01*
X133885363Y-115085241D01*
X133728320Y-115320273D01*
X133620147Y-115581426D01*
X133565000Y-115858665D01*
X130873400Y-115858665D01*
X130873400Y-115677585D01*
X130818253Y-115400346D01*
X130710080Y-115139193D01*
X130553037Y-114904161D01*
X130353159Y-114704283D01*
X130118127Y-114547240D01*
X129856974Y-114439067D01*
X129579735Y-114383920D01*
X129297065Y-114383920D01*
X129019826Y-114439067D01*
X128758673Y-114547240D01*
X128523641Y-114704283D01*
X128323763Y-114904161D01*
X128166720Y-115139193D01*
X128058547Y-115400346D01*
X128003400Y-115677585D01*
X127515240Y-115677585D01*
X127515240Y-113571251D01*
X130227826Y-110858665D01*
X133565000Y-110858665D01*
X133565000Y-111141335D01*
X133620147Y-111418574D01*
X133728320Y-111679727D01*
X133885363Y-111914759D01*
X134085241Y-112114637D01*
X134320273Y-112271680D01*
X134581426Y-112379853D01*
X134858665Y-112435000D01*
X135141335Y-112435000D01*
X135418574Y-112379853D01*
X135679727Y-112271680D01*
X135914759Y-112114637D01*
X136114637Y-111914759D01*
X136271680Y-111679727D01*
X136379853Y-111418574D01*
X136435000Y-111141335D01*
X136435000Y-110962879D01*
X138961100Y-110962879D01*
X138961100Y-111216001D01*
X139010481Y-111464261D01*
X139107347Y-111698116D01*
X139247975Y-111908580D01*
X139426960Y-112087565D01*
X139637424Y-112228193D01*
X139871279Y-112325059D01*
X140119539Y-112374440D01*
X140228028Y-112374440D01*
X140228028Y-113009440D01*
X140240288Y-113133922D01*
X140276598Y-113253620D01*
X140335563Y-113363934D01*
X140414915Y-113460625D01*
X140511606Y-113539977D01*
X140621920Y-113598942D01*
X140741618Y-113635252D01*
X140866100Y-113647512D01*
X142166100Y-113647512D01*
X142290582Y-113635252D01*
X142410280Y-113598942D01*
X142520594Y-113539977D01*
X142617285Y-113460625D01*
X142696637Y-113363934D01*
X142755602Y-113253620D01*
X142791912Y-113133922D01*
X142804172Y-113009440D01*
X142804172Y-111709440D01*
X142791912Y-111584958D01*
X142755602Y-111465260D01*
X142696637Y-111354946D01*
X142617285Y-111258255D01*
X142520594Y-111178903D01*
X142410280Y-111119938D01*
X142290582Y-111083628D01*
X142166100Y-111071368D01*
X141825804Y-111071368D01*
X141842549Y-111068710D01*
X142079996Y-110981018D01*
X142168634Y-110933641D01*
X142222022Y-110704967D01*
X141516100Y-109999045D01*
X141501958Y-110013188D01*
X141322353Y-109833583D01*
X141336495Y-109819440D01*
X141695705Y-109819440D01*
X142401627Y-110525362D01*
X142630301Y-110471974D01*
X142736195Y-110242066D01*
X142795202Y-109995916D01*
X142805052Y-109742985D01*
X142765370Y-109492991D01*
X142677678Y-109255544D01*
X142630301Y-109166906D01*
X142401627Y-109113518D01*
X141695705Y-109819440D01*
X141336495Y-109819440D01*
X140630573Y-109113518D01*
X140401899Y-109166906D01*
X140296005Y-109396814D01*
X140236998Y-109642964D01*
X140230710Y-109804440D01*
X140119539Y-109804440D01*
X139871279Y-109853821D01*
X139637424Y-109950687D01*
X139426960Y-110091315D01*
X139247975Y-110270300D01*
X139107347Y-110480764D01*
X139010481Y-110714619D01*
X138961100Y-110962879D01*
X136435000Y-110962879D01*
X136435000Y-110858665D01*
X136379853Y-110581426D01*
X136271680Y-110320273D01*
X136114637Y-110085241D01*
X135914759Y-109885363D01*
X135679727Y-109728320D01*
X135418574Y-109620147D01*
X135141335Y-109565000D01*
X134858665Y-109565000D01*
X134581426Y-109620147D01*
X134320273Y-109728320D01*
X134085241Y-109885363D01*
X133885363Y-110085241D01*
X133728320Y-110320273D01*
X133620147Y-110581426D01*
X133565000Y-110858665D01*
X130227826Y-110858665D01*
X132152578Y-108933913D01*
X140810178Y-108933913D01*
X141516100Y-109639835D01*
X142222022Y-108933913D01*
X142168634Y-108705239D01*
X141938726Y-108599345D01*
X141692576Y-108540338D01*
X141439645Y-108530488D01*
X141189651Y-108570170D01*
X140952204Y-108657862D01*
X140863566Y-108705239D01*
X140810178Y-108933913D01*
X132152578Y-108933913D01*
X141941421Y-99145071D01*
X141984729Y-99109529D01*
X142126564Y-98936703D01*
X142231956Y-98739527D01*
X142296857Y-98525579D01*
X142313280Y-98358832D01*
X142318771Y-98303080D01*
X142313280Y-98247328D01*
X142313280Y-96101651D01*
X142318771Y-96045899D01*
X142296857Y-95823402D01*
X142262480Y-95710077D01*
X142262480Y-95562783D01*
X142331974Y-95525637D01*
X142428665Y-95446285D01*
X142508017Y-95349594D01*
X142566982Y-95239280D01*
X142588993Y-95166720D01*
X142720848Y-95298575D01*
X142964069Y-95461090D01*
X143234322Y-95573032D01*
X143274160Y-95580956D01*
X143274161Y-113893366D01*
X128830205Y-128337324D01*
X128786891Y-128372871D01*
X128645056Y-128545697D01*
X128539665Y-128742873D01*
X128539664Y-128742874D01*
X128474763Y-128956822D01*
X128452849Y-129179320D01*
X128458340Y-129235072D01*
X128458341Y-134342189D01*
X128458340Y-134342199D01*
X128458340Y-134645036D01*
X128321660Y-134849593D01*
X128213487Y-135110746D01*
X128158340Y-135387985D01*
X128158340Y-135670655D01*
X128213487Y-135947894D01*
X128321660Y-136209047D01*
X128478703Y-136444079D01*
X128678581Y-136643957D01*
X128913613Y-136801000D01*
X129174766Y-136909173D01*
X129452005Y-136964320D01*
X129734675Y-136964320D01*
X130011914Y-136909173D01*
X130273067Y-136801000D01*
X130430041Y-136696113D01*
X136448998Y-136696113D01*
X137154920Y-137402035D01*
X137860842Y-136696113D01*
X137807454Y-136467439D01*
X137577546Y-136361545D01*
X137331396Y-136302538D01*
X137078465Y-136292688D01*
X136828471Y-136332370D01*
X136591024Y-136420062D01*
X136502386Y-136467439D01*
X136448998Y-136696113D01*
X130430041Y-136696113D01*
X130508099Y-136643957D01*
X130707977Y-136444079D01*
X130865020Y-136209047D01*
X130973193Y-135947894D01*
X131028340Y-135670655D01*
X131028340Y-135387985D01*
X130973193Y-135110746D01*
X130865020Y-134849593D01*
X130728340Y-134645036D01*
X130728340Y-131589040D01*
X133608091Y-131589040D01*
X133702930Y-131853881D01*
X133847615Y-132095131D01*
X134036586Y-132303519D01*
X134262580Y-132471037D01*
X134516913Y-132591246D01*
X134650961Y-132631904D01*
X134873000Y-132509915D01*
X134873000Y-131367000D01*
X135127000Y-131367000D01*
X135127000Y-132509915D01*
X135349039Y-132631904D01*
X135483087Y-132591246D01*
X135737420Y-132471037D01*
X135963414Y-132303519D01*
X136152385Y-132095131D01*
X136297070Y-131853881D01*
X136391909Y-131589040D01*
X136270624Y-131367000D01*
X135127000Y-131367000D01*
X134873000Y-131367000D01*
X133729376Y-131367000D01*
X133608091Y-131589040D01*
X130728340Y-131589040D01*
X130728340Y-130890960D01*
X133608091Y-130890960D01*
X133729376Y-131113000D01*
X134873000Y-131113000D01*
X134873000Y-129970085D01*
X135127000Y-129970085D01*
X135127000Y-131113000D01*
X136270624Y-131113000D01*
X136277724Y-131100000D01*
X151461928Y-131100000D01*
X151461928Y-132900000D01*
X151474188Y-133024482D01*
X151510498Y-133144180D01*
X151569463Y-133254494D01*
X151648815Y-133351185D01*
X151745506Y-133430537D01*
X151855820Y-133489502D01*
X151975518Y-133525812D01*
X152100000Y-133538072D01*
X153900000Y-133538072D01*
X154024482Y-133525812D01*
X154144180Y-133489502D01*
X154254494Y-133430537D01*
X154351185Y-133351185D01*
X154430537Y-133254494D01*
X154489502Y-133144180D01*
X154495056Y-133125873D01*
X154561495Y-133192312D01*
X154812905Y-133360299D01*
X155092257Y-133476011D01*
X155388816Y-133535000D01*
X155691184Y-133535000D01*
X155987743Y-133476011D01*
X156267095Y-133360299D01*
X156518505Y-133192312D01*
X156732312Y-132978505D01*
X156900299Y-132727095D01*
X157016011Y-132447743D01*
X157075000Y-132151184D01*
X157075000Y-131848816D01*
X157016011Y-131552257D01*
X156900299Y-131272905D01*
X156784768Y-131100000D01*
X158461928Y-131100000D01*
X158461928Y-132900000D01*
X158474188Y-133024482D01*
X158510498Y-133144180D01*
X158569463Y-133254494D01*
X158648815Y-133351185D01*
X158745506Y-133430537D01*
X158855820Y-133489502D01*
X158975518Y-133525812D01*
X159100000Y-133538072D01*
X160900000Y-133538072D01*
X161024482Y-133525812D01*
X161144180Y-133489502D01*
X161254494Y-133430537D01*
X161351185Y-133351185D01*
X161430537Y-133254494D01*
X161489502Y-133144180D01*
X161495056Y-133125873D01*
X161561495Y-133192312D01*
X161812905Y-133360299D01*
X162092257Y-133476011D01*
X162388816Y-133535000D01*
X162691184Y-133535000D01*
X162987743Y-133476011D01*
X163267095Y-133360299D01*
X163518505Y-133192312D01*
X163732312Y-132978505D01*
X163900299Y-132727095D01*
X164016011Y-132447743D01*
X164075000Y-132151184D01*
X164075000Y-131848816D01*
X164016011Y-131552257D01*
X163900299Y-131272905D01*
X163732312Y-131021495D01*
X163518505Y-130807688D01*
X163267095Y-130639701D01*
X162987743Y-130523989D01*
X162691184Y-130465000D01*
X162388816Y-130465000D01*
X162092257Y-130523989D01*
X161812905Y-130639701D01*
X161561495Y-130807688D01*
X161495056Y-130874127D01*
X161489502Y-130855820D01*
X161430537Y-130745506D01*
X161351185Y-130648815D01*
X161254494Y-130569463D01*
X161144180Y-130510498D01*
X161024482Y-130474188D01*
X160900000Y-130461928D01*
X159100000Y-130461928D01*
X158975518Y-130474188D01*
X158855820Y-130510498D01*
X158745506Y-130569463D01*
X158648815Y-130648815D01*
X158569463Y-130745506D01*
X158510498Y-130855820D01*
X158474188Y-130975518D01*
X158461928Y-131100000D01*
X156784768Y-131100000D01*
X156732312Y-131021495D01*
X156518505Y-130807688D01*
X156267095Y-130639701D01*
X155987743Y-130523989D01*
X155691184Y-130465000D01*
X155388816Y-130465000D01*
X155092257Y-130523989D01*
X154812905Y-130639701D01*
X154561495Y-130807688D01*
X154495056Y-130874127D01*
X154489502Y-130855820D01*
X154430537Y-130745506D01*
X154351185Y-130648815D01*
X154254494Y-130569463D01*
X154144180Y-130510498D01*
X154024482Y-130474188D01*
X153900000Y-130461928D01*
X152100000Y-130461928D01*
X151975518Y-130474188D01*
X151855820Y-130510498D01*
X151745506Y-130569463D01*
X151648815Y-130648815D01*
X151569463Y-130745506D01*
X151510498Y-130855820D01*
X151474188Y-130975518D01*
X151461928Y-131100000D01*
X136277724Y-131100000D01*
X136391909Y-130890960D01*
X136297070Y-130626119D01*
X136152385Y-130384869D01*
X135963414Y-130176481D01*
X135737420Y-130008963D01*
X135483087Y-129888754D01*
X135349039Y-129848096D01*
X135127000Y-129970085D01*
X134873000Y-129970085D01*
X134650961Y-129848096D01*
X134516913Y-129888754D01*
X134262580Y-130008963D01*
X134036586Y-130176481D01*
X133847615Y-130384869D01*
X133702930Y-130626119D01*
X133608091Y-130890960D01*
X130728340Y-130890960D01*
X130728340Y-129649451D01*
X137634392Y-122743399D01*
X139918680Y-122743399D01*
X139918680Y-122996521D01*
X139968061Y-123244781D01*
X140064927Y-123478636D01*
X140205555Y-123689100D01*
X140384540Y-123868085D01*
X140595004Y-124008713D01*
X140828859Y-124105579D01*
X141077119Y-124154960D01*
X141185608Y-124154960D01*
X141185608Y-124789960D01*
X141197868Y-124914442D01*
X141234178Y-125034140D01*
X141293143Y-125144454D01*
X141372495Y-125241145D01*
X141469186Y-125320497D01*
X141579500Y-125379462D01*
X141699198Y-125415772D01*
X141823680Y-125428032D01*
X143123680Y-125428032D01*
X143248162Y-125415772D01*
X143367860Y-125379462D01*
X143478174Y-125320497D01*
X143574865Y-125241145D01*
X143654217Y-125144454D01*
X143713182Y-125034140D01*
X143749492Y-124914442D01*
X143761752Y-124789960D01*
X143761752Y-124158665D01*
X145565000Y-124158665D01*
X145565000Y-124441335D01*
X145620147Y-124718574D01*
X145728320Y-124979727D01*
X145885363Y-125214759D01*
X146085241Y-125414637D01*
X146320273Y-125571680D01*
X146581426Y-125679853D01*
X146858665Y-125735000D01*
X147141335Y-125735000D01*
X147418574Y-125679853D01*
X147679727Y-125571680D01*
X147914759Y-125414637D01*
X148114637Y-125214759D01*
X148191316Y-125100000D01*
X151461928Y-125100000D01*
X151461928Y-126900000D01*
X151474188Y-127024482D01*
X151510498Y-127144180D01*
X151569463Y-127254494D01*
X151648815Y-127351185D01*
X151745506Y-127430537D01*
X151855820Y-127489502D01*
X151975518Y-127525812D01*
X152100000Y-127538072D01*
X153900000Y-127538072D01*
X154024482Y-127525812D01*
X154144180Y-127489502D01*
X154254494Y-127430537D01*
X154351185Y-127351185D01*
X154430537Y-127254494D01*
X154489502Y-127144180D01*
X154495056Y-127125873D01*
X154561495Y-127192312D01*
X154812905Y-127360299D01*
X155092257Y-127476011D01*
X155388816Y-127535000D01*
X155691184Y-127535000D01*
X155987743Y-127476011D01*
X156267095Y-127360299D01*
X156518505Y-127192312D01*
X156732312Y-126978505D01*
X156900299Y-126727095D01*
X157016011Y-126447743D01*
X157075000Y-126151184D01*
X157075000Y-125848816D01*
X157016011Y-125552257D01*
X156900299Y-125272905D01*
X156784768Y-125100000D01*
X158461928Y-125100000D01*
X158461928Y-126900000D01*
X158474188Y-127024482D01*
X158510498Y-127144180D01*
X158569463Y-127254494D01*
X158648815Y-127351185D01*
X158745506Y-127430537D01*
X158855820Y-127489502D01*
X158975518Y-127525812D01*
X159100000Y-127538072D01*
X160900000Y-127538072D01*
X161024482Y-127525812D01*
X161144180Y-127489502D01*
X161254494Y-127430537D01*
X161351185Y-127351185D01*
X161430537Y-127254494D01*
X161489502Y-127144180D01*
X161495056Y-127125873D01*
X161561495Y-127192312D01*
X161812905Y-127360299D01*
X162092257Y-127476011D01*
X162388816Y-127535000D01*
X162691184Y-127535000D01*
X162987743Y-127476011D01*
X163267095Y-127360299D01*
X163518505Y-127192312D01*
X163732312Y-126978505D01*
X163900299Y-126727095D01*
X164016011Y-126447743D01*
X164075000Y-126151184D01*
X164075000Y-125848816D01*
X164016011Y-125552257D01*
X163900299Y-125272905D01*
X163732312Y-125021495D01*
X163518505Y-124807688D01*
X163267095Y-124639701D01*
X162987743Y-124523989D01*
X162691184Y-124465000D01*
X162388816Y-124465000D01*
X162092257Y-124523989D01*
X161812905Y-124639701D01*
X161561495Y-124807688D01*
X161495056Y-124874127D01*
X161489502Y-124855820D01*
X161430537Y-124745506D01*
X161351185Y-124648815D01*
X161254494Y-124569463D01*
X161144180Y-124510498D01*
X161024482Y-124474188D01*
X160900000Y-124461928D01*
X159100000Y-124461928D01*
X158975518Y-124474188D01*
X158855820Y-124510498D01*
X158745506Y-124569463D01*
X158648815Y-124648815D01*
X158569463Y-124745506D01*
X158510498Y-124855820D01*
X158474188Y-124975518D01*
X158461928Y-125100000D01*
X156784768Y-125100000D01*
X156732312Y-125021495D01*
X156518505Y-124807688D01*
X156267095Y-124639701D01*
X155987743Y-124523989D01*
X155691184Y-124465000D01*
X155388816Y-124465000D01*
X155092257Y-124523989D01*
X154812905Y-124639701D01*
X154561495Y-124807688D01*
X154495056Y-124874127D01*
X154489502Y-124855820D01*
X154430537Y-124745506D01*
X154351185Y-124648815D01*
X154254494Y-124569463D01*
X154144180Y-124510498D01*
X154024482Y-124474188D01*
X153900000Y-124461928D01*
X152100000Y-124461928D01*
X151975518Y-124474188D01*
X151855820Y-124510498D01*
X151745506Y-124569463D01*
X151648815Y-124648815D01*
X151569463Y-124745506D01*
X151510498Y-124855820D01*
X151474188Y-124975518D01*
X151461928Y-125100000D01*
X148191316Y-125100000D01*
X148271680Y-124979727D01*
X148379853Y-124718574D01*
X148435000Y-124441335D01*
X148435000Y-124158665D01*
X148379853Y-123881426D01*
X148271680Y-123620273D01*
X148114637Y-123385241D01*
X147914759Y-123185363D01*
X147679727Y-123028320D01*
X147418574Y-122920147D01*
X147141335Y-122865000D01*
X146858665Y-122865000D01*
X146581426Y-122920147D01*
X146320273Y-123028320D01*
X146085241Y-123185363D01*
X145885363Y-123385241D01*
X145728320Y-123620273D01*
X145620147Y-123881426D01*
X145565000Y-124158665D01*
X143761752Y-124158665D01*
X143761752Y-123489960D01*
X143749492Y-123365478D01*
X143713182Y-123245780D01*
X143654217Y-123135466D01*
X143574865Y-123038775D01*
X143478174Y-122959423D01*
X143367860Y-122900458D01*
X143248162Y-122864148D01*
X143123680Y-122851888D01*
X142783384Y-122851888D01*
X142800129Y-122849230D01*
X143037576Y-122761538D01*
X143126214Y-122714161D01*
X143179602Y-122485487D01*
X142473680Y-121779565D01*
X142459538Y-121793708D01*
X142279933Y-121614103D01*
X142294075Y-121599960D01*
X142653285Y-121599960D01*
X143359207Y-122305882D01*
X143587881Y-122252494D01*
X143693775Y-122022586D01*
X143752782Y-121776436D01*
X143762632Y-121523505D01*
X143722950Y-121273511D01*
X143635258Y-121036064D01*
X143587881Y-120947426D01*
X143359207Y-120894038D01*
X142653285Y-121599960D01*
X142294075Y-121599960D01*
X141588153Y-120894038D01*
X141359479Y-120947426D01*
X141253585Y-121177334D01*
X141194578Y-121423484D01*
X141188290Y-121584960D01*
X141077119Y-121584960D01*
X140828859Y-121634341D01*
X140595004Y-121731207D01*
X140384540Y-121871835D01*
X140205555Y-122050820D01*
X140064927Y-122261284D01*
X139968061Y-122495139D01*
X139918680Y-122743399D01*
X137634392Y-122743399D01*
X139663358Y-120714433D01*
X141767758Y-120714433D01*
X142473680Y-121420355D01*
X143179602Y-120714433D01*
X143126214Y-120485759D01*
X142896306Y-120379865D01*
X142650156Y-120320858D01*
X142397225Y-120311008D01*
X142147231Y-120350690D01*
X141909784Y-120438382D01*
X141821146Y-120485759D01*
X141767758Y-120714433D01*
X139663358Y-120714433D01*
X143277792Y-117100000D01*
X150461928Y-117100000D01*
X150461928Y-118900000D01*
X150474188Y-119024482D01*
X150510498Y-119144180D01*
X150569463Y-119254494D01*
X150648815Y-119351185D01*
X150745506Y-119430537D01*
X150855820Y-119489502D01*
X150975518Y-119525812D01*
X151100000Y-119538072D01*
X152900000Y-119538072D01*
X153024482Y-119525812D01*
X153144180Y-119489502D01*
X153254494Y-119430537D01*
X153351185Y-119351185D01*
X153430537Y-119254494D01*
X153489502Y-119144180D01*
X153495056Y-119125873D01*
X153561495Y-119192312D01*
X153812905Y-119360299D01*
X154092257Y-119476011D01*
X154388816Y-119535000D01*
X154691184Y-119535000D01*
X154987743Y-119476011D01*
X155267095Y-119360299D01*
X155518505Y-119192312D01*
X155732312Y-118978505D01*
X155900299Y-118727095D01*
X156016011Y-118447743D01*
X156075000Y-118151184D01*
X156075000Y-117848816D01*
X156016011Y-117552257D01*
X155900299Y-117272905D01*
X155784768Y-117100000D01*
X158461928Y-117100000D01*
X158461928Y-118900000D01*
X158474188Y-119024482D01*
X158510498Y-119144180D01*
X158569463Y-119254494D01*
X158648815Y-119351185D01*
X158745506Y-119430537D01*
X158855820Y-119489502D01*
X158975518Y-119525812D01*
X159100000Y-119538072D01*
X160900000Y-119538072D01*
X161024482Y-119525812D01*
X161144180Y-119489502D01*
X161254494Y-119430537D01*
X161351185Y-119351185D01*
X161430537Y-119254494D01*
X161489502Y-119144180D01*
X161495056Y-119125873D01*
X161561495Y-119192312D01*
X161812905Y-119360299D01*
X162092257Y-119476011D01*
X162388816Y-119535000D01*
X162691184Y-119535000D01*
X162987743Y-119476011D01*
X163267095Y-119360299D01*
X163518505Y-119192312D01*
X163732312Y-118978505D01*
X163900299Y-118727095D01*
X164016011Y-118447743D01*
X164075000Y-118151184D01*
X164075000Y-117848816D01*
X164016011Y-117552257D01*
X163900299Y-117272905D01*
X163732312Y-117021495D01*
X163518505Y-116807688D01*
X163267095Y-116639701D01*
X162987743Y-116523989D01*
X162691184Y-116465000D01*
X162388816Y-116465000D01*
X162092257Y-116523989D01*
X161812905Y-116639701D01*
X161561495Y-116807688D01*
X161495056Y-116874127D01*
X161489502Y-116855820D01*
X161430537Y-116745506D01*
X161351185Y-116648815D01*
X161254494Y-116569463D01*
X161144180Y-116510498D01*
X161024482Y-116474188D01*
X160900000Y-116461928D01*
X159100000Y-116461928D01*
X158975518Y-116474188D01*
X158855820Y-116510498D01*
X158745506Y-116569463D01*
X158648815Y-116648815D01*
X158569463Y-116745506D01*
X158510498Y-116855820D01*
X158474188Y-116975518D01*
X158461928Y-117100000D01*
X155784768Y-117100000D01*
X155732312Y-117021495D01*
X155518505Y-116807688D01*
X155267095Y-116639701D01*
X154987743Y-116523989D01*
X154691184Y-116465000D01*
X154388816Y-116465000D01*
X154092257Y-116523989D01*
X153812905Y-116639701D01*
X153561495Y-116807688D01*
X153495056Y-116874127D01*
X153489502Y-116855820D01*
X153430537Y-116745506D01*
X153351185Y-116648815D01*
X153254494Y-116569463D01*
X153144180Y-116510498D01*
X153024482Y-116474188D01*
X152900000Y-116461928D01*
X151100000Y-116461928D01*
X150975518Y-116474188D01*
X150855820Y-116510498D01*
X150745506Y-116569463D01*
X150648815Y-116648815D01*
X150569463Y-116745506D01*
X150510498Y-116855820D01*
X150474188Y-116975518D01*
X150461928Y-117100000D01*
X143277792Y-117100000D01*
X145172306Y-115205487D01*
X145215609Y-115169949D01*
X145285128Y-115085241D01*
X145357444Y-114997123D01*
X145462836Y-114799947D01*
X145527737Y-114585999D01*
X145549651Y-114363500D01*
X145544160Y-114307748D01*
X145544160Y-112558665D01*
X145565000Y-112558665D01*
X145565000Y-112841335D01*
X145620147Y-113118574D01*
X145728320Y-113379727D01*
X145885363Y-113614759D01*
X146085241Y-113814637D01*
X146320273Y-113971680D01*
X146581426Y-114079853D01*
X146858665Y-114135000D01*
X147141335Y-114135000D01*
X147418574Y-114079853D01*
X147679727Y-113971680D01*
X147914759Y-113814637D01*
X148114637Y-113614759D01*
X148271680Y-113379727D01*
X148379853Y-113118574D01*
X148435000Y-112841335D01*
X148435000Y-112558665D01*
X148379853Y-112281426D01*
X148271680Y-112020273D01*
X148114637Y-111785241D01*
X147914759Y-111585363D01*
X147679727Y-111428320D01*
X147418574Y-111320147D01*
X147141335Y-111265000D01*
X146858665Y-111265000D01*
X146581426Y-111320147D01*
X146320273Y-111428320D01*
X146085241Y-111585363D01*
X145885363Y-111785241D01*
X145728320Y-112020273D01*
X145620147Y-112281426D01*
X145565000Y-112558665D01*
X145544160Y-112558665D01*
X145544160Y-108100000D01*
X150461928Y-108100000D01*
X150461928Y-109900000D01*
X150474188Y-110024482D01*
X150510498Y-110144180D01*
X150569463Y-110254494D01*
X150648815Y-110351185D01*
X150745506Y-110430537D01*
X150855820Y-110489502D01*
X150975518Y-110525812D01*
X151100000Y-110538072D01*
X152900000Y-110538072D01*
X153024482Y-110525812D01*
X153144180Y-110489502D01*
X153254494Y-110430537D01*
X153351185Y-110351185D01*
X153430537Y-110254494D01*
X153489502Y-110144180D01*
X153495056Y-110125873D01*
X153561495Y-110192312D01*
X153812905Y-110360299D01*
X154092257Y-110476011D01*
X154388816Y-110535000D01*
X154691184Y-110535000D01*
X154987743Y-110476011D01*
X155267095Y-110360299D01*
X155518505Y-110192312D01*
X155732312Y-109978505D01*
X155900299Y-109727095D01*
X156016011Y-109447743D01*
X156075000Y-109151184D01*
X156075000Y-108848816D01*
X156016011Y-108552257D01*
X155900299Y-108272905D01*
X155784768Y-108100000D01*
X158461928Y-108100000D01*
X158461928Y-109900000D01*
X158474188Y-110024482D01*
X158510498Y-110144180D01*
X158569463Y-110254494D01*
X158648815Y-110351185D01*
X158745506Y-110430537D01*
X158855820Y-110489502D01*
X158975518Y-110525812D01*
X159100000Y-110538072D01*
X160900000Y-110538072D01*
X161024482Y-110525812D01*
X161144180Y-110489502D01*
X161254494Y-110430537D01*
X161351185Y-110351185D01*
X161430537Y-110254494D01*
X161489502Y-110144180D01*
X161495056Y-110125873D01*
X161561495Y-110192312D01*
X161812905Y-110360299D01*
X162092257Y-110476011D01*
X162388816Y-110535000D01*
X162691184Y-110535000D01*
X162987743Y-110476011D01*
X163267095Y-110360299D01*
X163518505Y-110192312D01*
X163732312Y-109978505D01*
X163900299Y-109727095D01*
X164016011Y-109447743D01*
X164075000Y-109151184D01*
X164075000Y-108848816D01*
X164016011Y-108552257D01*
X163900299Y-108272905D01*
X163732312Y-108021495D01*
X163518505Y-107807688D01*
X163267095Y-107639701D01*
X162987743Y-107523989D01*
X162691184Y-107465000D01*
X162388816Y-107465000D01*
X162092257Y-107523989D01*
X161812905Y-107639701D01*
X161561495Y-107807688D01*
X161495056Y-107874127D01*
X161489502Y-107855820D01*
X161430537Y-107745506D01*
X161351185Y-107648815D01*
X161254494Y-107569463D01*
X161144180Y-107510498D01*
X161024482Y-107474188D01*
X160900000Y-107461928D01*
X159100000Y-107461928D01*
X158975518Y-107474188D01*
X158855820Y-107510498D01*
X158745506Y-107569463D01*
X158648815Y-107648815D01*
X158569463Y-107745506D01*
X158510498Y-107855820D01*
X158474188Y-107975518D01*
X158461928Y-108100000D01*
X155784768Y-108100000D01*
X155732312Y-108021495D01*
X155518505Y-107807688D01*
X155267095Y-107639701D01*
X154987743Y-107523989D01*
X154691184Y-107465000D01*
X154388816Y-107465000D01*
X154092257Y-107523989D01*
X153812905Y-107639701D01*
X153561495Y-107807688D01*
X153495056Y-107874127D01*
X153489502Y-107855820D01*
X153430537Y-107745506D01*
X153351185Y-107648815D01*
X153254494Y-107569463D01*
X153144180Y-107510498D01*
X153024482Y-107474188D01*
X152900000Y-107461928D01*
X151100000Y-107461928D01*
X150975518Y-107474188D01*
X150855820Y-107510498D01*
X150745506Y-107569463D01*
X150648815Y-107648815D01*
X150569463Y-107745506D01*
X150510498Y-107855820D01*
X150474188Y-107975518D01*
X150461928Y-108100000D01*
X145544160Y-108100000D01*
X145544160Y-99858665D01*
X145565000Y-99858665D01*
X145565000Y-100141335D01*
X145620147Y-100418574D01*
X145728320Y-100679727D01*
X145885363Y-100914759D01*
X146085241Y-101114637D01*
X146320273Y-101271680D01*
X146581426Y-101379853D01*
X146858665Y-101435000D01*
X147141335Y-101435000D01*
X147418574Y-101379853D01*
X147679727Y-101271680D01*
X147914759Y-101114637D01*
X148114637Y-100914759D01*
X148271680Y-100679727D01*
X148379853Y-100418574D01*
X148435000Y-100141335D01*
X148435000Y-99858665D01*
X148379853Y-99581426D01*
X148271680Y-99320273D01*
X148124499Y-99100000D01*
X150461928Y-99100000D01*
X150461928Y-100900000D01*
X150474188Y-101024482D01*
X150510498Y-101144180D01*
X150569463Y-101254494D01*
X150648815Y-101351185D01*
X150745506Y-101430537D01*
X150855820Y-101489502D01*
X150975518Y-101525812D01*
X151100000Y-101538072D01*
X152900000Y-101538072D01*
X153024482Y-101525812D01*
X153144180Y-101489502D01*
X153254494Y-101430537D01*
X153351185Y-101351185D01*
X153430537Y-101254494D01*
X153489502Y-101144180D01*
X153495056Y-101125873D01*
X153561495Y-101192312D01*
X153812905Y-101360299D01*
X154092257Y-101476011D01*
X154388816Y-101535000D01*
X154691184Y-101535000D01*
X154987743Y-101476011D01*
X155267095Y-101360299D01*
X155518505Y-101192312D01*
X155732312Y-100978505D01*
X155900299Y-100727095D01*
X156016011Y-100447743D01*
X156075000Y-100151184D01*
X156075000Y-99848816D01*
X156016011Y-99552257D01*
X155900299Y-99272905D01*
X155784768Y-99100000D01*
X158461928Y-99100000D01*
X158461928Y-100900000D01*
X158474188Y-101024482D01*
X158510498Y-101144180D01*
X158569463Y-101254494D01*
X158648815Y-101351185D01*
X158745506Y-101430537D01*
X158855820Y-101489502D01*
X158975518Y-101525812D01*
X159100000Y-101538072D01*
X160900000Y-101538072D01*
X161024482Y-101525812D01*
X161144180Y-101489502D01*
X161254494Y-101430537D01*
X161351185Y-101351185D01*
X161430537Y-101254494D01*
X161489502Y-101144180D01*
X161495056Y-101125873D01*
X161561495Y-101192312D01*
X161812905Y-101360299D01*
X162092257Y-101476011D01*
X162388816Y-101535000D01*
X162691184Y-101535000D01*
X162987743Y-101476011D01*
X163267095Y-101360299D01*
X163518505Y-101192312D01*
X163732312Y-100978505D01*
X163900299Y-100727095D01*
X164016011Y-100447743D01*
X164075000Y-100151184D01*
X164075000Y-99848816D01*
X164016011Y-99552257D01*
X163900299Y-99272905D01*
X163732312Y-99021495D01*
X163518505Y-98807688D01*
X163267095Y-98639701D01*
X162987743Y-98523989D01*
X162691184Y-98465000D01*
X162388816Y-98465000D01*
X162092257Y-98523989D01*
X161812905Y-98639701D01*
X161561495Y-98807688D01*
X161495056Y-98874127D01*
X161489502Y-98855820D01*
X161430537Y-98745506D01*
X161351185Y-98648815D01*
X161254494Y-98569463D01*
X161144180Y-98510498D01*
X161024482Y-98474188D01*
X160900000Y-98461928D01*
X159100000Y-98461928D01*
X158975518Y-98474188D01*
X158855820Y-98510498D01*
X158745506Y-98569463D01*
X158648815Y-98648815D01*
X158569463Y-98745506D01*
X158510498Y-98855820D01*
X158474188Y-98975518D01*
X158461928Y-99100000D01*
X155784768Y-99100000D01*
X155732312Y-99021495D01*
X155518505Y-98807688D01*
X155267095Y-98639701D01*
X154987743Y-98523989D01*
X154691184Y-98465000D01*
X154388816Y-98465000D01*
X154092257Y-98523989D01*
X153812905Y-98639701D01*
X153561495Y-98807688D01*
X153495056Y-98874127D01*
X153489502Y-98855820D01*
X153430537Y-98745506D01*
X153351185Y-98648815D01*
X153254494Y-98569463D01*
X153144180Y-98510498D01*
X153024482Y-98474188D01*
X152900000Y-98461928D01*
X151100000Y-98461928D01*
X150975518Y-98474188D01*
X150855820Y-98510498D01*
X150745506Y-98569463D01*
X150648815Y-98648815D01*
X150569463Y-98745506D01*
X150510498Y-98855820D01*
X150474188Y-98975518D01*
X150461928Y-99100000D01*
X148124499Y-99100000D01*
X148114637Y-99085241D01*
X147914759Y-98885363D01*
X147679727Y-98728320D01*
X147418574Y-98620147D01*
X147141335Y-98565000D01*
X146858665Y-98565000D01*
X146581426Y-98620147D01*
X146320273Y-98728320D01*
X146085241Y-98885363D01*
X145885363Y-99085241D01*
X145728320Y-99320273D01*
X145620147Y-99581426D01*
X145565000Y-99858665D01*
X145544160Y-99858665D01*
X145544160Y-95477696D01*
X145774322Y-95573032D01*
X146061220Y-95630100D01*
X146353740Y-95630100D01*
X146640638Y-95573032D01*
X146910891Y-95461090D01*
X147154112Y-95298575D01*
X147360955Y-95091732D01*
X147523470Y-94848511D01*
X147635412Y-94578258D01*
X147692480Y-94291360D01*
X147692480Y-93998840D01*
X147635412Y-93711942D01*
X147523470Y-93441689D01*
X147360955Y-93198468D01*
X147154112Y-92991625D01*
X146978074Y-92874000D01*
X147207749Y-92702688D01*
X147324306Y-92573378D01*
X160641027Y-92573378D01*
X160778984Y-92873584D01*
X161128227Y-93049422D01*
X161505064Y-93153747D01*
X161895013Y-93182549D01*
X162283088Y-93134724D01*
X162654376Y-93012108D01*
X162913536Y-92873584D01*
X163051493Y-92573378D01*
X161846260Y-91368145D01*
X160641027Y-92573378D01*
X147324306Y-92573378D01*
X147402658Y-92486455D01*
X147551637Y-92236352D01*
X147648961Y-91961991D01*
X147528294Y-91732100D01*
X146334480Y-91732100D01*
X146334480Y-91752100D01*
X146080480Y-91752100D01*
X146080480Y-91732100D01*
X146060480Y-91732100D01*
X146060480Y-91478100D01*
X146080480Y-91478100D01*
X146080480Y-90284945D01*
X146334480Y-90284945D01*
X146334480Y-91478100D01*
X147528294Y-91478100D01*
X147648961Y-91248209D01*
X147645089Y-91237293D01*
X159852251Y-91237293D01*
X159900076Y-91625368D01*
X160022692Y-91996656D01*
X160161216Y-92255816D01*
X160461422Y-92393773D01*
X161666655Y-91188540D01*
X162025865Y-91188540D01*
X163231098Y-92393773D01*
X163531304Y-92255816D01*
X163707142Y-91906573D01*
X163811467Y-91529736D01*
X163840269Y-91139787D01*
X163792444Y-90751712D01*
X163669828Y-90380424D01*
X163531304Y-90121264D01*
X163231098Y-89983307D01*
X162025865Y-91188540D01*
X161666655Y-91188540D01*
X160461422Y-89983307D01*
X160161216Y-90121264D01*
X159985378Y-90470507D01*
X159881053Y-90847344D01*
X159852251Y-91237293D01*
X147645089Y-91237293D01*
X147551637Y-90973848D01*
X147402658Y-90723745D01*
X147207749Y-90507512D01*
X146974400Y-90333459D01*
X146711579Y-90208275D01*
X146564370Y-90163624D01*
X146334480Y-90284945D01*
X146080480Y-90284945D01*
X145850590Y-90163624D01*
X145703381Y-90208275D01*
X145440560Y-90333459D01*
X145207211Y-90507512D01*
X145012302Y-90723745D01*
X144942675Y-90840634D01*
X144820955Y-90658468D01*
X144802480Y-90639993D01*
X144802480Y-90124152D01*
X144807971Y-90068400D01*
X144786057Y-89845901D01*
X144773256Y-89803702D01*
X160641027Y-89803702D01*
X161846260Y-91008935D01*
X163051493Y-89803702D01*
X162913536Y-89503496D01*
X162564293Y-89327658D01*
X162187456Y-89223333D01*
X161797507Y-89194531D01*
X161409432Y-89242356D01*
X161038144Y-89364972D01*
X160778984Y-89503496D01*
X160641027Y-89803702D01*
X144773256Y-89803702D01*
X144721156Y-89631953D01*
X144615764Y-89434777D01*
X144509469Y-89305256D01*
X144509467Y-89305254D01*
X144473929Y-89261951D01*
X144430625Y-89226413D01*
X143625555Y-88421344D01*
X143590009Y-88378031D01*
X143417183Y-88236196D01*
X143220007Y-88130804D01*
X143006059Y-88065903D01*
X142839312Y-88049480D01*
X142839311Y-88049480D01*
X142783560Y-88043989D01*
X142727809Y-88049480D01*
X138892151Y-88049480D01*
X138836400Y-88043989D01*
X138780648Y-88049480D01*
X138613901Y-88065903D01*
X138399953Y-88130804D01*
X138202777Y-88236196D01*
X138029951Y-88378031D01*
X137994409Y-88421339D01*
X134236865Y-92178884D01*
X134193551Y-92214431D01*
X134051716Y-92387257D01*
X133946325Y-92584433D01*
X133946324Y-92584434D01*
X133881423Y-92798382D01*
X133859509Y-93020880D01*
X133865000Y-93076632D01*
X133865001Y-97112869D01*
X133865000Y-97112879D01*
X133865000Y-97415716D01*
X133728320Y-97620273D01*
X133620147Y-97881426D01*
X133565000Y-98158665D01*
X133565000Y-98441335D01*
X133620147Y-98718574D01*
X133728320Y-98979727D01*
X133885363Y-99214759D01*
X134085241Y-99414637D01*
X134320273Y-99571680D01*
X134581426Y-99679853D01*
X134858665Y-99735000D01*
X135141335Y-99735000D01*
X135418574Y-99679853D01*
X135679727Y-99571680D01*
X135914759Y-99414637D01*
X136114637Y-99214759D01*
X136271680Y-98979727D01*
X136379853Y-98718574D01*
X136435000Y-98441335D01*
X136435000Y-98158665D01*
X136379853Y-97881426D01*
X136271680Y-97620273D01*
X136135000Y-97415716D01*
X136135000Y-93491011D01*
X139306532Y-90319480D01*
X140378617Y-90319480D01*
X140180848Y-90451625D01*
X139974005Y-90658468D01*
X139811490Y-90901689D01*
X139699548Y-91171942D01*
X139642480Y-91458840D01*
X139642480Y-91751360D01*
X139699548Y-92038258D01*
X139811490Y-92308511D01*
X139974005Y-92551732D01*
X140105860Y-92683587D01*
X140033300Y-92705598D01*
X139922986Y-92764563D01*
X139826295Y-92843915D01*
X139746943Y-92940606D01*
X139687978Y-93050920D01*
X139651668Y-93170618D01*
X139639408Y-93295100D01*
X139639408Y-94995100D01*
X139651668Y-95119582D01*
X139687978Y-95239280D01*
X139746943Y-95349594D01*
X139826295Y-95446285D01*
X139922986Y-95525637D01*
X139992481Y-95562783D01*
X139992481Y-95939339D01*
X139986989Y-95995100D01*
X140008903Y-96217598D01*
X140043280Y-96330923D01*
X140043281Y-97832947D01*
X125617105Y-112259124D01*
X125573791Y-112294671D01*
X125431956Y-112467497D01*
X125326565Y-112664673D01*
X125326564Y-112664674D01*
X125261663Y-112878622D01*
X125239749Y-113101120D01*
X124760923Y-113101120D01*
X124745844Y-100927960D01*
X128046491Y-100927960D01*
X128141330Y-101192801D01*
X128286015Y-101434051D01*
X128474986Y-101642439D01*
X128700980Y-101809957D01*
X128955313Y-101930166D01*
X129089361Y-101970824D01*
X129311400Y-101848835D01*
X129311400Y-100705920D01*
X129565400Y-100705920D01*
X129565400Y-101848835D01*
X129787439Y-101970824D01*
X129921487Y-101930166D01*
X130175820Y-101809957D01*
X130401814Y-101642439D01*
X130590785Y-101434051D01*
X130735470Y-101192801D01*
X130830309Y-100927960D01*
X130709024Y-100705920D01*
X129565400Y-100705920D01*
X129311400Y-100705920D01*
X128167776Y-100705920D01*
X128046491Y-100927960D01*
X124745844Y-100927960D01*
X124744980Y-100229880D01*
X128046491Y-100229880D01*
X128167776Y-100451920D01*
X129311400Y-100451920D01*
X129311400Y-99309005D01*
X129565400Y-99309005D01*
X129565400Y-100451920D01*
X130709024Y-100451920D01*
X130830309Y-100229880D01*
X130735470Y-99965039D01*
X130590785Y-99723789D01*
X130401814Y-99515401D01*
X130175820Y-99347883D01*
X129921487Y-99227674D01*
X129787439Y-99187016D01*
X129565400Y-99309005D01*
X129311400Y-99309005D01*
X129089361Y-99187016D01*
X128955313Y-99227674D01*
X128700980Y-99347883D01*
X128474986Y-99515401D01*
X128286015Y-99723789D01*
X128141330Y-99965039D01*
X128046491Y-100229880D01*
X124744980Y-100229880D01*
X124735906Y-92906118D01*
X127194307Y-92906118D01*
X127332264Y-93206324D01*
X127681507Y-93382162D01*
X128058344Y-93486487D01*
X128448293Y-93515289D01*
X128836368Y-93467464D01*
X129207656Y-93344848D01*
X129466816Y-93206324D01*
X129604773Y-92906118D01*
X128399540Y-91700885D01*
X127194307Y-92906118D01*
X124735906Y-92906118D01*
X124734250Y-91570033D01*
X126405531Y-91570033D01*
X126453356Y-91958108D01*
X126575972Y-92329396D01*
X126714496Y-92588556D01*
X127014702Y-92726513D01*
X128219935Y-91521280D01*
X128579145Y-91521280D01*
X129784378Y-92726513D01*
X130084584Y-92588556D01*
X130260422Y-92239313D01*
X130364747Y-91862476D01*
X130393549Y-91472527D01*
X130345724Y-91084452D01*
X130223108Y-90713164D01*
X130084584Y-90454004D01*
X129784378Y-90316047D01*
X128579145Y-91521280D01*
X128219935Y-91521280D01*
X127014702Y-90316047D01*
X126714496Y-90454004D01*
X126538658Y-90803247D01*
X126434333Y-91180084D01*
X126405531Y-91570033D01*
X124734250Y-91570033D01*
X124732474Y-90136442D01*
X127194307Y-90136442D01*
X128399540Y-91341675D01*
X129604773Y-90136442D01*
X129466816Y-89836236D01*
X129117573Y-89660398D01*
X128740736Y-89556073D01*
X128350787Y-89527271D01*
X127962712Y-89575096D01*
X127591424Y-89697712D01*
X127332264Y-89836236D01*
X127194307Y-90136442D01*
X124732474Y-90136442D01*
X124729406Y-87660000D01*
X166340000Y-87660000D01*
X166340001Y-159340000D01*
%TA.AperFunction,Conductor*%
D24*
G36*
X166340001Y-159340000D02*
G01*
X162929396Y-159340000D01*
X163114637Y-159154759D01*
X163271680Y-158919727D01*
X163379853Y-158658574D01*
X163435000Y-158381335D01*
X163435000Y-158098665D01*
X163379853Y-157821426D01*
X163271680Y-157560273D01*
X163114637Y-157325241D01*
X162914759Y-157125363D01*
X162679727Y-156968320D01*
X162418574Y-156860147D01*
X162141335Y-156805000D01*
X161858665Y-156805000D01*
X161581426Y-156860147D01*
X161320273Y-156968320D01*
X161085241Y-157125363D01*
X160885363Y-157325241D01*
X160728320Y-157560273D01*
X160620147Y-157821426D01*
X160565000Y-158098665D01*
X160565000Y-158381335D01*
X160620147Y-158658574D01*
X160728320Y-158919727D01*
X160885363Y-159154759D01*
X161070604Y-159340000D01*
X158137393Y-159340000D01*
X158138045Y-159339465D01*
X158217397Y-159242774D01*
X158276362Y-159132460D01*
X158312672Y-159012762D01*
X158324932Y-158888280D01*
X158324932Y-156488280D01*
X158312672Y-156363798D01*
X158276362Y-156244100D01*
X158217397Y-156133786D01*
X158138045Y-156037095D01*
X158041354Y-155957743D01*
X157931040Y-155898778D01*
X157811342Y-155862468D01*
X157686860Y-155850208D01*
X155286860Y-155850208D01*
X155162378Y-155862468D01*
X155042680Y-155898778D01*
X154932366Y-155957743D01*
X154835675Y-156037095D01*
X154756323Y-156133786D01*
X154697358Y-156244100D01*
X154661048Y-156363798D01*
X154648788Y-156488280D01*
X154648788Y-158888280D01*
X154661048Y-159012762D01*
X154697358Y-159132460D01*
X154756323Y-159242774D01*
X154835675Y-159339465D01*
X154836327Y-159340000D01*
X140493281Y-159340000D01*
X124817985Y-159162905D01*
X124815952Y-157521178D01*
X127082547Y-157521178D01*
X127220504Y-157821384D01*
X127569747Y-157997222D01*
X127946584Y-158101547D01*
X128336533Y-158130349D01*
X128724608Y-158082524D01*
X129095896Y-157959908D01*
X129355056Y-157821384D01*
X129493013Y-157521178D01*
X128287780Y-156315945D01*
X127082547Y-157521178D01*
X124815952Y-157521178D01*
X124814297Y-156185093D01*
X126293771Y-156185093D01*
X126341596Y-156573168D01*
X126464212Y-156944456D01*
X126602736Y-157203616D01*
X126902942Y-157341573D01*
X128108175Y-156136340D01*
X128467385Y-156136340D01*
X129672618Y-157341573D01*
X129972824Y-157203616D01*
X130148662Y-156854373D01*
X130252987Y-156477536D01*
X130281789Y-156087587D01*
X130233964Y-155699512D01*
X130111348Y-155328224D01*
X129972824Y-155069064D01*
X129672618Y-154931107D01*
X128467385Y-156136340D01*
X128108175Y-156136340D01*
X126902942Y-154931107D01*
X126602736Y-155069064D01*
X126426898Y-155418307D01*
X126322573Y-155795144D01*
X126293771Y-156185093D01*
X124814297Y-156185093D01*
X124812522Y-154751502D01*
X127082547Y-154751502D01*
X128287780Y-155956735D01*
X129493013Y-154751502D01*
X129355056Y-154451296D01*
X129005813Y-154275458D01*
X128628976Y-154171133D01*
X128239027Y-154142331D01*
X127850952Y-154190156D01*
X127479664Y-154312772D01*
X127220504Y-154451296D01*
X127082547Y-154751502D01*
X124812522Y-154751502D01*
X124810639Y-153231485D01*
X131343500Y-153231485D01*
X131343500Y-153514155D01*
X131398647Y-153791394D01*
X131506820Y-154052547D01*
X131663863Y-154287579D01*
X131863741Y-154487457D01*
X132098773Y-154644500D01*
X132359926Y-154752673D01*
X132637165Y-154807820D01*
X132919835Y-154807820D01*
X133197074Y-154752673D01*
X133458227Y-154644500D01*
X133693259Y-154487457D01*
X133893137Y-154287579D01*
X134050180Y-154052547D01*
X134158353Y-153791394D01*
X134213500Y-153514155D01*
X134213500Y-153231485D01*
X134158353Y-152954246D01*
X134050180Y-152693093D01*
X133893137Y-152458061D01*
X133693259Y-152258183D01*
X133458227Y-152101140D01*
X133197074Y-151992967D01*
X132919835Y-151937820D01*
X132637165Y-151937820D01*
X132359926Y-151992967D01*
X132098773Y-152101140D01*
X131863741Y-152258183D01*
X131663863Y-152458061D01*
X131506820Y-152693093D01*
X131398647Y-152954246D01*
X131343500Y-153231485D01*
X124810639Y-153231485D01*
X124804386Y-148184138D01*
X126508507Y-148184138D01*
X126646464Y-148484344D01*
X126995707Y-148660182D01*
X127372544Y-148764507D01*
X127762493Y-148793309D01*
X128150568Y-148745484D01*
X128521856Y-148622868D01*
X128781016Y-148484344D01*
X128918973Y-148184138D01*
X127713740Y-146978905D01*
X126508507Y-148184138D01*
X124804386Y-148184138D01*
X124802730Y-146848053D01*
X125719731Y-146848053D01*
X125767556Y-147236128D01*
X125890172Y-147607416D01*
X126028696Y-147866576D01*
X126328902Y-148004533D01*
X127534135Y-146799300D01*
X127893345Y-146799300D01*
X129098578Y-148004533D01*
X129398784Y-147866576D01*
X129574622Y-147517333D01*
X129678947Y-147140496D01*
X129707749Y-146750547D01*
X129659924Y-146362472D01*
X129537308Y-145991184D01*
X129398784Y-145732024D01*
X129098578Y-145594067D01*
X127893345Y-146799300D01*
X127534135Y-146799300D01*
X126328902Y-145594067D01*
X126028696Y-145732024D01*
X125852858Y-146081267D01*
X125748533Y-146458104D01*
X125719731Y-146848053D01*
X124802730Y-146848053D01*
X124800955Y-145414462D01*
X126508507Y-145414462D01*
X127713740Y-146619695D01*
X128918973Y-145414462D01*
X128781016Y-145114256D01*
X128431773Y-144938418D01*
X128054936Y-144834093D01*
X127664987Y-144805291D01*
X127276912Y-144853116D01*
X126905624Y-144975732D01*
X126646464Y-145114256D01*
X126508507Y-145414462D01*
X124800955Y-145414462D01*
X124760923Y-113101120D01*
X125239749Y-113101120D01*
X125245240Y-113156871D01*
X125245241Y-140393538D01*
X125239749Y-140449300D01*
X125261663Y-140671798D01*
X125326564Y-140885746D01*
X125326565Y-140885747D01*
X125431957Y-141082923D01*
X125573792Y-141255749D01*
X125617100Y-141291291D01*
X136637140Y-152311332D01*
X136637141Y-154906615D01*
X136500460Y-155111173D01*
X136392287Y-155372326D01*
X136337140Y-155649565D01*
X136337140Y-155932235D01*
X136392287Y-156209474D01*
X136500460Y-156470627D01*
X136657503Y-156705659D01*
X136857381Y-156905537D01*
X137092413Y-157062580D01*
X137353566Y-157170753D01*
X137630805Y-157225900D01*
X137913475Y-157225900D01*
X138190714Y-157170753D01*
X138451867Y-157062580D01*
X138686899Y-156905537D01*
X138886777Y-156705659D01*
X139043820Y-156470627D01*
X139151993Y-156209474D01*
X139207140Y-155932235D01*
X139207140Y-155649565D01*
X139151993Y-155372326D01*
X139043820Y-155111173D01*
X138907140Y-154906616D01*
X138907140Y-152845408D01*
X145374360Y-152845408D01*
X145374360Y-153120592D01*
X145428046Y-153390490D01*
X145533355Y-153644727D01*
X145686240Y-153873535D01*
X145880825Y-154068120D01*
X146109633Y-154221005D01*
X146363870Y-154326314D01*
X146633768Y-154380000D01*
X146908952Y-154380000D01*
X147178850Y-154326314D01*
X147433087Y-154221005D01*
X147661895Y-154068120D01*
X147856480Y-153873535D01*
X148009365Y-153644727D01*
X148114674Y-153390490D01*
X148168360Y-153120592D01*
X148168360Y-152845408D01*
X148114674Y-152575510D01*
X148009365Y-152321273D01*
X147856480Y-152092465D01*
X147661895Y-151897880D01*
X147433087Y-151744995D01*
X147178850Y-151639686D01*
X146908952Y-151586000D01*
X146633768Y-151586000D01*
X146363870Y-151639686D01*
X146109633Y-151744995D01*
X145880825Y-151897880D01*
X145686240Y-152092465D01*
X145533355Y-152321273D01*
X145428046Y-152575510D01*
X145374360Y-152845408D01*
X138907140Y-152845408D01*
X138907140Y-151896941D01*
X138912630Y-151841199D01*
X138907140Y-151785457D01*
X138907140Y-151785448D01*
X138890717Y-151618701D01*
X138825816Y-151404753D01*
X138720424Y-151207577D01*
X138578589Y-151034751D01*
X138535281Y-150999209D01*
X133881480Y-146345408D01*
X145374360Y-146345408D01*
X145374360Y-146620592D01*
X145428046Y-146890490D01*
X145533355Y-147144727D01*
X145686240Y-147373535D01*
X145880825Y-147568120D01*
X146109633Y-147721005D01*
X146363870Y-147826314D01*
X146633768Y-147880000D01*
X146908952Y-147880000D01*
X147178850Y-147826314D01*
X147433087Y-147721005D01*
X147661895Y-147568120D01*
X147856480Y-147373535D01*
X148009365Y-147144727D01*
X148114674Y-146890490D01*
X148168360Y-146620592D01*
X148168360Y-146345408D01*
X148114674Y-146075510D01*
X148009365Y-145821273D01*
X147856480Y-145592465D01*
X147661895Y-145397880D01*
X147433087Y-145244995D01*
X147178850Y-145139686D01*
X146908952Y-145086000D01*
X146633768Y-145086000D01*
X146363870Y-145139686D01*
X146109633Y-145244995D01*
X145880825Y-145397880D01*
X145686240Y-145592465D01*
X145533355Y-145821273D01*
X145428046Y-146075510D01*
X145374360Y-146345408D01*
X133881480Y-146345408D01*
X132343620Y-144807548D01*
X154651860Y-144807548D01*
X154651860Y-145169012D01*
X154722378Y-145523530D01*
X154860704Y-145857479D01*
X155061522Y-146158024D01*
X155317116Y-146413618D01*
X155617661Y-146614436D01*
X155951610Y-146752762D01*
X156306128Y-146823280D01*
X156667592Y-146823280D01*
X157022110Y-146752762D01*
X157356059Y-146614436D01*
X157656604Y-146413618D01*
X157912198Y-146158024D01*
X158113016Y-145857479D01*
X158251342Y-145523530D01*
X158321860Y-145169012D01*
X158321860Y-144807548D01*
X158251342Y-144453030D01*
X158113016Y-144119081D01*
X157912198Y-143818536D01*
X157656604Y-143562942D01*
X157356059Y-143362124D01*
X157022110Y-143223798D01*
X156667592Y-143153280D01*
X156306128Y-143153280D01*
X155951610Y-143223798D01*
X155617661Y-143362124D01*
X155317116Y-143562942D01*
X155061522Y-143818536D01*
X154860704Y-144119081D01*
X154722378Y-144453030D01*
X154651860Y-144807548D01*
X132343620Y-144807548D01*
X130485637Y-142949565D01*
X136337140Y-142949565D01*
X136337140Y-143232235D01*
X136392287Y-143509474D01*
X136500460Y-143770627D01*
X136657503Y-144005659D01*
X136857381Y-144205537D01*
X137092413Y-144362580D01*
X137353566Y-144470753D01*
X137630805Y-144525900D01*
X137913475Y-144525900D01*
X138190714Y-144470753D01*
X138451867Y-144362580D01*
X138686899Y-144205537D01*
X138886777Y-144005659D01*
X139043820Y-143770627D01*
X139151993Y-143509474D01*
X139207140Y-143232235D01*
X139207140Y-142949565D01*
X139189059Y-142858665D01*
X160565000Y-142858665D01*
X160565000Y-143141335D01*
X160620147Y-143418574D01*
X160728320Y-143679727D01*
X160885363Y-143914759D01*
X161085241Y-144114637D01*
X161320273Y-144271680D01*
X161581426Y-144379853D01*
X161858665Y-144435000D01*
X162141335Y-144435000D01*
X162418574Y-144379853D01*
X162679727Y-144271680D01*
X162914759Y-144114637D01*
X163114637Y-143914759D01*
X163271680Y-143679727D01*
X163379853Y-143418574D01*
X163435000Y-143141335D01*
X163435000Y-142858665D01*
X163379853Y-142581426D01*
X163271680Y-142320273D01*
X163114637Y-142085241D01*
X162914759Y-141885363D01*
X162679727Y-141728320D01*
X162418574Y-141620147D01*
X162141335Y-141565000D01*
X161858665Y-141565000D01*
X161581426Y-141620147D01*
X161320273Y-141728320D01*
X161085241Y-141885363D01*
X160885363Y-142085241D01*
X160728320Y-142320273D01*
X160620147Y-142581426D01*
X160565000Y-142858665D01*
X139189059Y-142858665D01*
X139151993Y-142672326D01*
X139043820Y-142411173D01*
X138886777Y-142176141D01*
X138686899Y-141976263D01*
X138451867Y-141819220D01*
X138190714Y-141711047D01*
X137913475Y-141655900D01*
X137630805Y-141655900D01*
X137353566Y-141711047D01*
X137092413Y-141819220D01*
X136857381Y-141976263D01*
X136657503Y-142176141D01*
X136500460Y-142411173D01*
X136392287Y-142672326D01*
X136337140Y-142949565D01*
X130485637Y-142949565D01*
X127515240Y-139979169D01*
X127515240Y-138481860D01*
X131386591Y-138481860D01*
X131481430Y-138746701D01*
X131626115Y-138987951D01*
X131815086Y-139196339D01*
X132041080Y-139363857D01*
X132295413Y-139484066D01*
X132429461Y-139524724D01*
X132651500Y-139402735D01*
X132651500Y-138259820D01*
X132905500Y-138259820D01*
X132905500Y-139402735D01*
X133127539Y-139524724D01*
X133261587Y-139484066D01*
X133515920Y-139363857D01*
X133741914Y-139196339D01*
X133930885Y-138987951D01*
X134075570Y-138746701D01*
X134170409Y-138481860D01*
X134162384Y-138467167D01*
X136448998Y-138467167D01*
X136502386Y-138695841D01*
X136732294Y-138801735D01*
X136978444Y-138860742D01*
X137139920Y-138867030D01*
X137139920Y-138978201D01*
X137189301Y-139226461D01*
X137286167Y-139460316D01*
X137426795Y-139670780D01*
X137605780Y-139849765D01*
X137816244Y-139990393D01*
X138050099Y-140087259D01*
X138298359Y-140136640D01*
X138551481Y-140136640D01*
X138799741Y-140087259D01*
X139033596Y-139990393D01*
X139244060Y-139849765D01*
X139423045Y-139670780D01*
X139563673Y-139460316D01*
X139660539Y-139226461D01*
X139709920Y-138978201D01*
X139709920Y-138869712D01*
X140344920Y-138869712D01*
X140469402Y-138857452D01*
X140589100Y-138821142D01*
X140699414Y-138762177D01*
X140796105Y-138682825D01*
X140875457Y-138586134D01*
X140934422Y-138475820D01*
X140970732Y-138356122D01*
X140982992Y-138231640D01*
X140982992Y-136931640D01*
X140975805Y-136858665D01*
X145565000Y-136858665D01*
X145565000Y-137141335D01*
X145620147Y-137418574D01*
X145728320Y-137679727D01*
X145885363Y-137914759D01*
X146085241Y-138114637D01*
X146320273Y-138271680D01*
X146581426Y-138379853D01*
X146858665Y-138435000D01*
X147141335Y-138435000D01*
X147418574Y-138379853D01*
X147679727Y-138271680D01*
X147914759Y-138114637D01*
X148114637Y-137914759D01*
X148271680Y-137679727D01*
X148379853Y-137418574D01*
X148435000Y-137141335D01*
X148435000Y-137100000D01*
X151461928Y-137100000D01*
X151461928Y-138900000D01*
X151474188Y-139024482D01*
X151510498Y-139144180D01*
X151569463Y-139254494D01*
X151648815Y-139351185D01*
X151745506Y-139430537D01*
X151855820Y-139489502D01*
X151975518Y-139525812D01*
X152100000Y-139538072D01*
X153900000Y-139538072D01*
X154024482Y-139525812D01*
X154144180Y-139489502D01*
X154254494Y-139430537D01*
X154351185Y-139351185D01*
X154430537Y-139254494D01*
X154489502Y-139144180D01*
X154495056Y-139125873D01*
X154561495Y-139192312D01*
X154812905Y-139360299D01*
X155092257Y-139476011D01*
X155388816Y-139535000D01*
X155691184Y-139535000D01*
X155987743Y-139476011D01*
X156267095Y-139360299D01*
X156518505Y-139192312D01*
X156732312Y-138978505D01*
X156900299Y-138727095D01*
X157016011Y-138447743D01*
X157075000Y-138151184D01*
X157075000Y-137848816D01*
X157016011Y-137552257D01*
X156900299Y-137272905D01*
X156784768Y-137100000D01*
X158461928Y-137100000D01*
X158461928Y-138900000D01*
X158474188Y-139024482D01*
X158510498Y-139144180D01*
X158569463Y-139254494D01*
X158648815Y-139351185D01*
X158745506Y-139430537D01*
X158855820Y-139489502D01*
X158975518Y-139525812D01*
X159100000Y-139538072D01*
X160900000Y-139538072D01*
X161024482Y-139525812D01*
X161144180Y-139489502D01*
X161254494Y-139430537D01*
X161351185Y-139351185D01*
X161430537Y-139254494D01*
X161489502Y-139144180D01*
X161495056Y-139125873D01*
X161561495Y-139192312D01*
X161812905Y-139360299D01*
X162092257Y-139476011D01*
X162388816Y-139535000D01*
X162691184Y-139535000D01*
X162987743Y-139476011D01*
X163267095Y-139360299D01*
X163518505Y-139192312D01*
X163732312Y-138978505D01*
X163900299Y-138727095D01*
X164016011Y-138447743D01*
X164075000Y-138151184D01*
X164075000Y-137848816D01*
X164016011Y-137552257D01*
X163900299Y-137272905D01*
X163732312Y-137021495D01*
X163518505Y-136807688D01*
X163267095Y-136639701D01*
X162987743Y-136523989D01*
X162691184Y-136465000D01*
X162388816Y-136465000D01*
X162092257Y-136523989D01*
X161812905Y-136639701D01*
X161561495Y-136807688D01*
X161495056Y-136874127D01*
X161489502Y-136855820D01*
X161430537Y-136745506D01*
X161351185Y-136648815D01*
X161254494Y-136569463D01*
X161144180Y-136510498D01*
X161024482Y-136474188D01*
X160900000Y-136461928D01*
X159100000Y-136461928D01*
X158975518Y-136474188D01*
X158855820Y-136510498D01*
X158745506Y-136569463D01*
X158648815Y-136648815D01*
X158569463Y-136745506D01*
X158510498Y-136855820D01*
X158474188Y-136975518D01*
X158461928Y-137100000D01*
X156784768Y-137100000D01*
X156732312Y-137021495D01*
X156518505Y-136807688D01*
X156267095Y-136639701D01*
X155987743Y-136523989D01*
X155691184Y-136465000D01*
X155388816Y-136465000D01*
X155092257Y-136523989D01*
X154812905Y-136639701D01*
X154561495Y-136807688D01*
X154495056Y-136874127D01*
X154489502Y-136855820D01*
X154430537Y-136745506D01*
X154351185Y-136648815D01*
X154254494Y-136569463D01*
X154144180Y-136510498D01*
X154024482Y-136474188D01*
X153900000Y-136461928D01*
X152100000Y-136461928D01*
X151975518Y-136474188D01*
X151855820Y-136510498D01*
X151745506Y-136569463D01*
X151648815Y-136648815D01*
X151569463Y-136745506D01*
X151510498Y-136855820D01*
X151474188Y-136975518D01*
X151461928Y-137100000D01*
X148435000Y-137100000D01*
X148435000Y-136858665D01*
X148379853Y-136581426D01*
X148271680Y-136320273D01*
X148114637Y-136085241D01*
X147914759Y-135885363D01*
X147679727Y-135728320D01*
X147418574Y-135620147D01*
X147141335Y-135565000D01*
X146858665Y-135565000D01*
X146581426Y-135620147D01*
X146320273Y-135728320D01*
X146085241Y-135885363D01*
X145885363Y-136085241D01*
X145728320Y-136320273D01*
X145620147Y-136581426D01*
X145565000Y-136858665D01*
X140975805Y-136858665D01*
X140970732Y-136807158D01*
X140934422Y-136687460D01*
X140875457Y-136577146D01*
X140796105Y-136480455D01*
X140699414Y-136401103D01*
X140589100Y-136342138D01*
X140469402Y-136305828D01*
X140344920Y-136293568D01*
X139044920Y-136293568D01*
X138920438Y-136305828D01*
X138800740Y-136342138D01*
X138690426Y-136401103D01*
X138593735Y-136480455D01*
X138514383Y-136577146D01*
X138455418Y-136687460D01*
X138419108Y-136807158D01*
X138406848Y-136931640D01*
X138406848Y-137271936D01*
X138404190Y-137255191D01*
X138316498Y-137017744D01*
X138269121Y-136929106D01*
X138040447Y-136875718D01*
X137334525Y-137581640D01*
X137348668Y-137595783D01*
X137169063Y-137775388D01*
X137154920Y-137761245D01*
X136448998Y-138467167D01*
X134162384Y-138467167D01*
X134049124Y-138259820D01*
X132905500Y-138259820D01*
X132651500Y-138259820D01*
X131507876Y-138259820D01*
X131386591Y-138481860D01*
X127515240Y-138481860D01*
X127515240Y-137783780D01*
X131386591Y-137783780D01*
X131507876Y-138005820D01*
X132651500Y-138005820D01*
X132651500Y-136862905D01*
X132905500Y-136862905D01*
X132905500Y-138005820D01*
X134049124Y-138005820D01*
X134170409Y-137783780D01*
X134125402Y-137658095D01*
X135865968Y-137658095D01*
X135905650Y-137908089D01*
X135993342Y-138145536D01*
X136040719Y-138234174D01*
X136269393Y-138287562D01*
X136975315Y-137581640D01*
X136269393Y-136875718D01*
X136040719Y-136929106D01*
X135934825Y-137159014D01*
X135875818Y-137405164D01*
X135865968Y-137658095D01*
X134125402Y-137658095D01*
X134075570Y-137518939D01*
X133930885Y-137277689D01*
X133741914Y-137069301D01*
X133515920Y-136901783D01*
X133261587Y-136781574D01*
X133127539Y-136740916D01*
X132905500Y-136862905D01*
X132651500Y-136862905D01*
X132429461Y-136740916D01*
X132295413Y-136781574D01*
X132041080Y-136901783D01*
X131815086Y-137069301D01*
X131626115Y-137277689D01*
X131481430Y-137518939D01*
X131386591Y-137783780D01*
X127515240Y-137783780D01*
X127515240Y-122687985D01*
X128158340Y-122687985D01*
X128158340Y-122970655D01*
X128213487Y-123247894D01*
X128321660Y-123509047D01*
X128478703Y-123744079D01*
X128678581Y-123943957D01*
X128913613Y-124101000D01*
X129174766Y-124209173D01*
X129452005Y-124264320D01*
X129734675Y-124264320D01*
X130011914Y-124209173D01*
X130273067Y-124101000D01*
X130508099Y-123943957D01*
X130707977Y-123744079D01*
X130865020Y-123509047D01*
X130973193Y-123247894D01*
X131028340Y-122970655D01*
X131028340Y-122687985D01*
X130973193Y-122410746D01*
X130865020Y-122149593D01*
X130707977Y-121914561D01*
X130508099Y-121714683D01*
X130273067Y-121557640D01*
X130011914Y-121449467D01*
X129734675Y-121394320D01*
X129452005Y-121394320D01*
X129174766Y-121449467D01*
X128913613Y-121557640D01*
X128678581Y-121714683D01*
X128478703Y-121914561D01*
X128321660Y-122149593D01*
X128213487Y-122410746D01*
X128158340Y-122687985D01*
X127515240Y-122687985D01*
X127515240Y-115677585D01*
X128003400Y-115677585D01*
X128003400Y-115960255D01*
X128058547Y-116237494D01*
X128166720Y-116498647D01*
X128323763Y-116733679D01*
X128523641Y-116933557D01*
X128758673Y-117090600D01*
X129019826Y-117198773D01*
X129297065Y-117253920D01*
X129579735Y-117253920D01*
X129856974Y-117198773D01*
X130118127Y-117090600D01*
X130353159Y-116933557D01*
X130553037Y-116733679D01*
X130710080Y-116498647D01*
X130818253Y-116237494D01*
X130873400Y-115960255D01*
X130873400Y-115858665D01*
X133565000Y-115858665D01*
X133565000Y-116141335D01*
X133620147Y-116418574D01*
X133728320Y-116679727D01*
X133885363Y-116914759D01*
X134085241Y-117114637D01*
X134320273Y-117271680D01*
X134581426Y-117379853D01*
X134858665Y-117435000D01*
X135141335Y-117435000D01*
X135418574Y-117379853D01*
X135679727Y-117271680D01*
X135914759Y-117114637D01*
X136114637Y-116914759D01*
X136271680Y-116679727D01*
X136379853Y-116418574D01*
X136435000Y-116141335D01*
X136435000Y-115858665D01*
X136379853Y-115581426D01*
X136271680Y-115320273D01*
X136114637Y-115085241D01*
X135914759Y-114885363D01*
X135679727Y-114728320D01*
X135418574Y-114620147D01*
X135141335Y-114565000D01*
X134858665Y-114565000D01*
X134581426Y-114620147D01*
X134320273Y-114728320D01*
X134085241Y-114885363D01*
X133885363Y-115085241D01*
X133728320Y-115320273D01*
X133620147Y-115581426D01*
X133565000Y-115858665D01*
X130873400Y-115858665D01*
X130873400Y-115677585D01*
X130818253Y-115400346D01*
X130710080Y-115139193D01*
X130553037Y-114904161D01*
X130353159Y-114704283D01*
X130118127Y-114547240D01*
X129856974Y-114439067D01*
X129579735Y-114383920D01*
X129297065Y-114383920D01*
X129019826Y-114439067D01*
X128758673Y-114547240D01*
X128523641Y-114704283D01*
X128323763Y-114904161D01*
X128166720Y-115139193D01*
X128058547Y-115400346D01*
X128003400Y-115677585D01*
X127515240Y-115677585D01*
X127515240Y-113571251D01*
X130227826Y-110858665D01*
X133565000Y-110858665D01*
X133565000Y-111141335D01*
X133620147Y-111418574D01*
X133728320Y-111679727D01*
X133885363Y-111914759D01*
X134085241Y-112114637D01*
X134320273Y-112271680D01*
X134581426Y-112379853D01*
X134858665Y-112435000D01*
X135141335Y-112435000D01*
X135418574Y-112379853D01*
X135679727Y-112271680D01*
X135914759Y-112114637D01*
X136114637Y-111914759D01*
X136271680Y-111679727D01*
X136379853Y-111418574D01*
X136435000Y-111141335D01*
X136435000Y-110962879D01*
X138961100Y-110962879D01*
X138961100Y-111216001D01*
X139010481Y-111464261D01*
X139107347Y-111698116D01*
X139247975Y-111908580D01*
X139426960Y-112087565D01*
X139637424Y-112228193D01*
X139871279Y-112325059D01*
X140119539Y-112374440D01*
X140228028Y-112374440D01*
X140228028Y-113009440D01*
X140240288Y-113133922D01*
X140276598Y-113253620D01*
X140335563Y-113363934D01*
X140414915Y-113460625D01*
X140511606Y-113539977D01*
X140621920Y-113598942D01*
X140741618Y-113635252D01*
X140866100Y-113647512D01*
X142166100Y-113647512D01*
X142290582Y-113635252D01*
X142410280Y-113598942D01*
X142520594Y-113539977D01*
X142617285Y-113460625D01*
X142696637Y-113363934D01*
X142755602Y-113253620D01*
X142791912Y-113133922D01*
X142804172Y-113009440D01*
X142804172Y-111709440D01*
X142791912Y-111584958D01*
X142755602Y-111465260D01*
X142696637Y-111354946D01*
X142617285Y-111258255D01*
X142520594Y-111178903D01*
X142410280Y-111119938D01*
X142290582Y-111083628D01*
X142166100Y-111071368D01*
X141825804Y-111071368D01*
X141842549Y-111068710D01*
X142079996Y-110981018D01*
X142168634Y-110933641D01*
X142222022Y-110704967D01*
X141516100Y-109999045D01*
X141501958Y-110013188D01*
X141322353Y-109833583D01*
X141336495Y-109819440D01*
X141695705Y-109819440D01*
X142401627Y-110525362D01*
X142630301Y-110471974D01*
X142736195Y-110242066D01*
X142795202Y-109995916D01*
X142805052Y-109742985D01*
X142765370Y-109492991D01*
X142677678Y-109255544D01*
X142630301Y-109166906D01*
X142401627Y-109113518D01*
X141695705Y-109819440D01*
X141336495Y-109819440D01*
X140630573Y-109113518D01*
X140401899Y-109166906D01*
X140296005Y-109396814D01*
X140236998Y-109642964D01*
X140230710Y-109804440D01*
X140119539Y-109804440D01*
X139871279Y-109853821D01*
X139637424Y-109950687D01*
X139426960Y-110091315D01*
X139247975Y-110270300D01*
X139107347Y-110480764D01*
X139010481Y-110714619D01*
X138961100Y-110962879D01*
X136435000Y-110962879D01*
X136435000Y-110858665D01*
X136379853Y-110581426D01*
X136271680Y-110320273D01*
X136114637Y-110085241D01*
X135914759Y-109885363D01*
X135679727Y-109728320D01*
X135418574Y-109620147D01*
X135141335Y-109565000D01*
X134858665Y-109565000D01*
X134581426Y-109620147D01*
X134320273Y-109728320D01*
X134085241Y-109885363D01*
X133885363Y-110085241D01*
X133728320Y-110320273D01*
X133620147Y-110581426D01*
X133565000Y-110858665D01*
X130227826Y-110858665D01*
X132152578Y-108933913D01*
X140810178Y-108933913D01*
X141516100Y-109639835D01*
X142222022Y-108933913D01*
X142168634Y-108705239D01*
X141938726Y-108599345D01*
X141692576Y-108540338D01*
X141439645Y-108530488D01*
X141189651Y-108570170D01*
X140952204Y-108657862D01*
X140863566Y-108705239D01*
X140810178Y-108933913D01*
X132152578Y-108933913D01*
X141941421Y-99145071D01*
X141984729Y-99109529D01*
X142126564Y-98936703D01*
X142231956Y-98739527D01*
X142296857Y-98525579D01*
X142313280Y-98358832D01*
X142318771Y-98303080D01*
X142313280Y-98247328D01*
X142313280Y-96101651D01*
X142318771Y-96045899D01*
X142296857Y-95823402D01*
X142262480Y-95710077D01*
X142262480Y-95562783D01*
X142331974Y-95525637D01*
X142428665Y-95446285D01*
X142508017Y-95349594D01*
X142566982Y-95239280D01*
X142588993Y-95166720D01*
X142720848Y-95298575D01*
X142964069Y-95461090D01*
X143234322Y-95573032D01*
X143274160Y-95580956D01*
X143274161Y-113893366D01*
X128830205Y-128337324D01*
X128786891Y-128372871D01*
X128645056Y-128545697D01*
X128539665Y-128742873D01*
X128539664Y-128742874D01*
X128474763Y-128956822D01*
X128452849Y-129179320D01*
X128458340Y-129235072D01*
X128458341Y-134342189D01*
X128458340Y-134342199D01*
X128458340Y-134645036D01*
X128321660Y-134849593D01*
X128213487Y-135110746D01*
X128158340Y-135387985D01*
X128158340Y-135670655D01*
X128213487Y-135947894D01*
X128321660Y-136209047D01*
X128478703Y-136444079D01*
X128678581Y-136643957D01*
X128913613Y-136801000D01*
X129174766Y-136909173D01*
X129452005Y-136964320D01*
X129734675Y-136964320D01*
X130011914Y-136909173D01*
X130273067Y-136801000D01*
X130430041Y-136696113D01*
X136448998Y-136696113D01*
X137154920Y-137402035D01*
X137860842Y-136696113D01*
X137807454Y-136467439D01*
X137577546Y-136361545D01*
X137331396Y-136302538D01*
X137078465Y-136292688D01*
X136828471Y-136332370D01*
X136591024Y-136420062D01*
X136502386Y-136467439D01*
X136448998Y-136696113D01*
X130430041Y-136696113D01*
X130508099Y-136643957D01*
X130707977Y-136444079D01*
X130865020Y-136209047D01*
X130973193Y-135947894D01*
X131028340Y-135670655D01*
X131028340Y-135387985D01*
X130973193Y-135110746D01*
X130865020Y-134849593D01*
X130728340Y-134645036D01*
X130728340Y-131589040D01*
X133608091Y-131589040D01*
X133702930Y-131853881D01*
X133847615Y-132095131D01*
X134036586Y-132303519D01*
X134262580Y-132471037D01*
X134516913Y-132591246D01*
X134650961Y-132631904D01*
X134873000Y-132509915D01*
X134873000Y-131367000D01*
X135127000Y-131367000D01*
X135127000Y-132509915D01*
X135349039Y-132631904D01*
X135483087Y-132591246D01*
X135737420Y-132471037D01*
X135963414Y-132303519D01*
X136152385Y-132095131D01*
X136297070Y-131853881D01*
X136391909Y-131589040D01*
X136270624Y-131367000D01*
X135127000Y-131367000D01*
X134873000Y-131367000D01*
X133729376Y-131367000D01*
X133608091Y-131589040D01*
X130728340Y-131589040D01*
X130728340Y-130890960D01*
X133608091Y-130890960D01*
X133729376Y-131113000D01*
X134873000Y-131113000D01*
X134873000Y-129970085D01*
X135127000Y-129970085D01*
X135127000Y-131113000D01*
X136270624Y-131113000D01*
X136277724Y-131100000D01*
X151461928Y-131100000D01*
X151461928Y-132900000D01*
X151474188Y-133024482D01*
X151510498Y-133144180D01*
X151569463Y-133254494D01*
X151648815Y-133351185D01*
X151745506Y-133430537D01*
X151855820Y-133489502D01*
X151975518Y-133525812D01*
X152100000Y-133538072D01*
X153900000Y-133538072D01*
X154024482Y-133525812D01*
X154144180Y-133489502D01*
X154254494Y-133430537D01*
X154351185Y-133351185D01*
X154430537Y-133254494D01*
X154489502Y-133144180D01*
X154495056Y-133125873D01*
X154561495Y-133192312D01*
X154812905Y-133360299D01*
X155092257Y-133476011D01*
X155388816Y-133535000D01*
X155691184Y-133535000D01*
X155987743Y-133476011D01*
X156267095Y-133360299D01*
X156518505Y-133192312D01*
X156732312Y-132978505D01*
X156900299Y-132727095D01*
X157016011Y-132447743D01*
X157075000Y-132151184D01*
X157075000Y-131848816D01*
X157016011Y-131552257D01*
X156900299Y-131272905D01*
X156784768Y-131100000D01*
X158461928Y-131100000D01*
X158461928Y-132900000D01*
X158474188Y-133024482D01*
X158510498Y-133144180D01*
X158569463Y-133254494D01*
X158648815Y-133351185D01*
X158745506Y-133430537D01*
X158855820Y-133489502D01*
X158975518Y-133525812D01*
X159100000Y-133538072D01*
X160900000Y-133538072D01*
X161024482Y-133525812D01*
X161144180Y-133489502D01*
X161254494Y-133430537D01*
X161351185Y-133351185D01*
X161430537Y-133254494D01*
X161489502Y-133144180D01*
X161495056Y-133125873D01*
X161561495Y-133192312D01*
X161812905Y-133360299D01*
X162092257Y-133476011D01*
X162388816Y-133535000D01*
X162691184Y-133535000D01*
X162987743Y-133476011D01*
X163267095Y-133360299D01*
X163518505Y-133192312D01*
X163732312Y-132978505D01*
X163900299Y-132727095D01*
X164016011Y-132447743D01*
X164075000Y-132151184D01*
X164075000Y-131848816D01*
X164016011Y-131552257D01*
X163900299Y-131272905D01*
X163732312Y-131021495D01*
X163518505Y-130807688D01*
X163267095Y-130639701D01*
X162987743Y-130523989D01*
X162691184Y-130465000D01*
X162388816Y-130465000D01*
X162092257Y-130523989D01*
X161812905Y-130639701D01*
X161561495Y-130807688D01*
X161495056Y-130874127D01*
X161489502Y-130855820D01*
X161430537Y-130745506D01*
X161351185Y-130648815D01*
X161254494Y-130569463D01*
X161144180Y-130510498D01*
X161024482Y-130474188D01*
X160900000Y-130461928D01*
X159100000Y-130461928D01*
X158975518Y-130474188D01*
X158855820Y-130510498D01*
X158745506Y-130569463D01*
X158648815Y-130648815D01*
X158569463Y-130745506D01*
X158510498Y-130855820D01*
X158474188Y-130975518D01*
X158461928Y-131100000D01*
X156784768Y-131100000D01*
X156732312Y-131021495D01*
X156518505Y-130807688D01*
X156267095Y-130639701D01*
X155987743Y-130523989D01*
X155691184Y-130465000D01*
X155388816Y-130465000D01*
X155092257Y-130523989D01*
X154812905Y-130639701D01*
X154561495Y-130807688D01*
X154495056Y-130874127D01*
X154489502Y-130855820D01*
X154430537Y-130745506D01*
X154351185Y-130648815D01*
X154254494Y-130569463D01*
X154144180Y-130510498D01*
X154024482Y-130474188D01*
X153900000Y-130461928D01*
X152100000Y-130461928D01*
X151975518Y-130474188D01*
X151855820Y-130510498D01*
X151745506Y-130569463D01*
X151648815Y-130648815D01*
X151569463Y-130745506D01*
X151510498Y-130855820D01*
X151474188Y-130975518D01*
X151461928Y-131100000D01*
X136277724Y-131100000D01*
X136391909Y-130890960D01*
X136297070Y-130626119D01*
X136152385Y-130384869D01*
X135963414Y-130176481D01*
X135737420Y-130008963D01*
X135483087Y-129888754D01*
X135349039Y-129848096D01*
X135127000Y-129970085D01*
X134873000Y-129970085D01*
X134650961Y-129848096D01*
X134516913Y-129888754D01*
X134262580Y-130008963D01*
X134036586Y-130176481D01*
X133847615Y-130384869D01*
X133702930Y-130626119D01*
X133608091Y-130890960D01*
X130728340Y-130890960D01*
X130728340Y-129649451D01*
X137634392Y-122743399D01*
X139918680Y-122743399D01*
X139918680Y-122996521D01*
X139968061Y-123244781D01*
X140064927Y-123478636D01*
X140205555Y-123689100D01*
X140384540Y-123868085D01*
X140595004Y-124008713D01*
X140828859Y-124105579D01*
X141077119Y-124154960D01*
X141185608Y-124154960D01*
X141185608Y-124789960D01*
X141197868Y-124914442D01*
X141234178Y-125034140D01*
X141293143Y-125144454D01*
X141372495Y-125241145D01*
X141469186Y-125320497D01*
X141579500Y-125379462D01*
X141699198Y-125415772D01*
X141823680Y-125428032D01*
X143123680Y-125428032D01*
X143248162Y-125415772D01*
X143367860Y-125379462D01*
X143478174Y-125320497D01*
X143574865Y-125241145D01*
X143654217Y-125144454D01*
X143713182Y-125034140D01*
X143749492Y-124914442D01*
X143761752Y-124789960D01*
X143761752Y-124158665D01*
X145565000Y-124158665D01*
X145565000Y-124441335D01*
X145620147Y-124718574D01*
X145728320Y-124979727D01*
X145885363Y-125214759D01*
X146085241Y-125414637D01*
X146320273Y-125571680D01*
X146581426Y-125679853D01*
X146858665Y-125735000D01*
X147141335Y-125735000D01*
X147418574Y-125679853D01*
X147679727Y-125571680D01*
X147914759Y-125414637D01*
X148114637Y-125214759D01*
X148191316Y-125100000D01*
X151461928Y-125100000D01*
X151461928Y-126900000D01*
X151474188Y-127024482D01*
X151510498Y-127144180D01*
X151569463Y-127254494D01*
X151648815Y-127351185D01*
X151745506Y-127430537D01*
X151855820Y-127489502D01*
X151975518Y-127525812D01*
X152100000Y-127538072D01*
X153900000Y-127538072D01*
X154024482Y-127525812D01*
X154144180Y-127489502D01*
X154254494Y-127430537D01*
X154351185Y-127351185D01*
X154430537Y-127254494D01*
X154489502Y-127144180D01*
X154495056Y-127125873D01*
X154561495Y-127192312D01*
X154812905Y-127360299D01*
X155092257Y-127476011D01*
X155388816Y-127535000D01*
X155691184Y-127535000D01*
X155987743Y-127476011D01*
X156267095Y-127360299D01*
X156518505Y-127192312D01*
X156732312Y-126978505D01*
X156900299Y-126727095D01*
X157016011Y-126447743D01*
X157075000Y-126151184D01*
X157075000Y-125848816D01*
X157016011Y-125552257D01*
X156900299Y-125272905D01*
X156784768Y-125100000D01*
X158461928Y-125100000D01*
X158461928Y-126900000D01*
X158474188Y-127024482D01*
X158510498Y-127144180D01*
X158569463Y-127254494D01*
X158648815Y-127351185D01*
X158745506Y-127430537D01*
X158855820Y-127489502D01*
X158975518Y-127525812D01*
X159100000Y-127538072D01*
X160900000Y-127538072D01*
X161024482Y-127525812D01*
X161144180Y-127489502D01*
X161254494Y-127430537D01*
X161351185Y-127351185D01*
X161430537Y-127254494D01*
X161489502Y-127144180D01*
X161495056Y-127125873D01*
X161561495Y-127192312D01*
X161812905Y-127360299D01*
X162092257Y-127476011D01*
X162388816Y-127535000D01*
X162691184Y-127535000D01*
X162987743Y-127476011D01*
X163267095Y-127360299D01*
X163518505Y-127192312D01*
X163732312Y-126978505D01*
X163900299Y-126727095D01*
X164016011Y-126447743D01*
X164075000Y-126151184D01*
X164075000Y-125848816D01*
X164016011Y-125552257D01*
X163900299Y-125272905D01*
X163732312Y-125021495D01*
X163518505Y-124807688D01*
X163267095Y-124639701D01*
X162987743Y-124523989D01*
X162691184Y-124465000D01*
X162388816Y-124465000D01*
X162092257Y-124523989D01*
X161812905Y-124639701D01*
X161561495Y-124807688D01*
X161495056Y-124874127D01*
X161489502Y-124855820D01*
X161430537Y-124745506D01*
X161351185Y-124648815D01*
X161254494Y-124569463D01*
X161144180Y-124510498D01*
X161024482Y-124474188D01*
X160900000Y-124461928D01*
X159100000Y-124461928D01*
X158975518Y-124474188D01*
X158855820Y-124510498D01*
X158745506Y-124569463D01*
X158648815Y-124648815D01*
X158569463Y-124745506D01*
X158510498Y-124855820D01*
X158474188Y-124975518D01*
X158461928Y-125100000D01*
X156784768Y-125100000D01*
X156732312Y-125021495D01*
X156518505Y-124807688D01*
X156267095Y-124639701D01*
X155987743Y-124523989D01*
X155691184Y-124465000D01*
X155388816Y-124465000D01*
X155092257Y-124523989D01*
X154812905Y-124639701D01*
X154561495Y-124807688D01*
X154495056Y-124874127D01*
X154489502Y-124855820D01*
X154430537Y-124745506D01*
X154351185Y-124648815D01*
X154254494Y-124569463D01*
X154144180Y-124510498D01*
X154024482Y-124474188D01*
X153900000Y-124461928D01*
X152100000Y-124461928D01*
X151975518Y-124474188D01*
X151855820Y-124510498D01*
X151745506Y-124569463D01*
X151648815Y-124648815D01*
X151569463Y-124745506D01*
X151510498Y-124855820D01*
X151474188Y-124975518D01*
X151461928Y-125100000D01*
X148191316Y-125100000D01*
X148271680Y-124979727D01*
X148379853Y-124718574D01*
X148435000Y-124441335D01*
X148435000Y-124158665D01*
X148379853Y-123881426D01*
X148271680Y-123620273D01*
X148114637Y-123385241D01*
X147914759Y-123185363D01*
X147679727Y-123028320D01*
X147418574Y-122920147D01*
X147141335Y-122865000D01*
X146858665Y-122865000D01*
X146581426Y-122920147D01*
X146320273Y-123028320D01*
X146085241Y-123185363D01*
X145885363Y-123385241D01*
X145728320Y-123620273D01*
X145620147Y-123881426D01*
X145565000Y-124158665D01*
X143761752Y-124158665D01*
X143761752Y-123489960D01*
X143749492Y-123365478D01*
X143713182Y-123245780D01*
X143654217Y-123135466D01*
X143574865Y-123038775D01*
X143478174Y-122959423D01*
X143367860Y-122900458D01*
X143248162Y-122864148D01*
X143123680Y-122851888D01*
X142783384Y-122851888D01*
X142800129Y-122849230D01*
X143037576Y-122761538D01*
X143126214Y-122714161D01*
X143179602Y-122485487D01*
X142473680Y-121779565D01*
X142459538Y-121793708D01*
X142279933Y-121614103D01*
X142294075Y-121599960D01*
X142653285Y-121599960D01*
X143359207Y-122305882D01*
X143587881Y-122252494D01*
X143693775Y-122022586D01*
X143752782Y-121776436D01*
X143762632Y-121523505D01*
X143722950Y-121273511D01*
X143635258Y-121036064D01*
X143587881Y-120947426D01*
X143359207Y-120894038D01*
X142653285Y-121599960D01*
X142294075Y-121599960D01*
X141588153Y-120894038D01*
X141359479Y-120947426D01*
X141253585Y-121177334D01*
X141194578Y-121423484D01*
X141188290Y-121584960D01*
X141077119Y-121584960D01*
X140828859Y-121634341D01*
X140595004Y-121731207D01*
X140384540Y-121871835D01*
X140205555Y-122050820D01*
X140064927Y-122261284D01*
X139968061Y-122495139D01*
X139918680Y-122743399D01*
X137634392Y-122743399D01*
X139663358Y-120714433D01*
X141767758Y-120714433D01*
X142473680Y-121420355D01*
X143179602Y-120714433D01*
X143126214Y-120485759D01*
X142896306Y-120379865D01*
X142650156Y-120320858D01*
X142397225Y-120311008D01*
X142147231Y-120350690D01*
X141909784Y-120438382D01*
X141821146Y-120485759D01*
X141767758Y-120714433D01*
X139663358Y-120714433D01*
X143277792Y-117100000D01*
X150461928Y-117100000D01*
X150461928Y-118900000D01*
X150474188Y-119024482D01*
X150510498Y-119144180D01*
X150569463Y-119254494D01*
X150648815Y-119351185D01*
X150745506Y-119430537D01*
X150855820Y-119489502D01*
X150975518Y-119525812D01*
X151100000Y-119538072D01*
X152900000Y-119538072D01*
X153024482Y-119525812D01*
X153144180Y-119489502D01*
X153254494Y-119430537D01*
X153351185Y-119351185D01*
X153430537Y-119254494D01*
X153489502Y-119144180D01*
X153495056Y-119125873D01*
X153561495Y-119192312D01*
X153812905Y-119360299D01*
X154092257Y-119476011D01*
X154388816Y-119535000D01*
X154691184Y-119535000D01*
X154987743Y-119476011D01*
X155267095Y-119360299D01*
X155518505Y-119192312D01*
X155732312Y-118978505D01*
X155900299Y-118727095D01*
X156016011Y-118447743D01*
X156075000Y-118151184D01*
X156075000Y-117848816D01*
X156016011Y-117552257D01*
X155900299Y-117272905D01*
X155784768Y-117100000D01*
X158461928Y-117100000D01*
X158461928Y-118900000D01*
X158474188Y-119024482D01*
X158510498Y-119144180D01*
X158569463Y-119254494D01*
X158648815Y-119351185D01*
X158745506Y-119430537D01*
X158855820Y-119489502D01*
X158975518Y-119525812D01*
X159100000Y-119538072D01*
X160900000Y-119538072D01*
X161024482Y-119525812D01*
X161144180Y-119489502D01*
X161254494Y-119430537D01*
X161351185Y-119351185D01*
X161430537Y-119254494D01*
X161489502Y-119144180D01*
X161495056Y-119125873D01*
X161561495Y-119192312D01*
X161812905Y-119360299D01*
X162092257Y-119476011D01*
X162388816Y-119535000D01*
X162691184Y-119535000D01*
X162987743Y-119476011D01*
X163267095Y-119360299D01*
X163518505Y-119192312D01*
X163732312Y-118978505D01*
X163900299Y-118727095D01*
X164016011Y-118447743D01*
X164075000Y-118151184D01*
X164075000Y-117848816D01*
X164016011Y-117552257D01*
X163900299Y-117272905D01*
X163732312Y-117021495D01*
X163518505Y-116807688D01*
X163267095Y-116639701D01*
X162987743Y-116523989D01*
X162691184Y-116465000D01*
X162388816Y-116465000D01*
X162092257Y-116523989D01*
X161812905Y-116639701D01*
X161561495Y-116807688D01*
X161495056Y-116874127D01*
X161489502Y-116855820D01*
X161430537Y-116745506D01*
X161351185Y-116648815D01*
X161254494Y-116569463D01*
X161144180Y-116510498D01*
X161024482Y-116474188D01*
X160900000Y-116461928D01*
X159100000Y-116461928D01*
X158975518Y-116474188D01*
X158855820Y-116510498D01*
X158745506Y-116569463D01*
X158648815Y-116648815D01*
X158569463Y-116745506D01*
X158510498Y-116855820D01*
X158474188Y-116975518D01*
X158461928Y-117100000D01*
X155784768Y-117100000D01*
X155732312Y-117021495D01*
X155518505Y-116807688D01*
X155267095Y-116639701D01*
X154987743Y-116523989D01*
X154691184Y-116465000D01*
X154388816Y-116465000D01*
X154092257Y-116523989D01*
X153812905Y-116639701D01*
X153561495Y-116807688D01*
X153495056Y-116874127D01*
X153489502Y-116855820D01*
X153430537Y-116745506D01*
X153351185Y-116648815D01*
X153254494Y-116569463D01*
X153144180Y-116510498D01*
X153024482Y-116474188D01*
X152900000Y-116461928D01*
X151100000Y-116461928D01*
X150975518Y-116474188D01*
X150855820Y-116510498D01*
X150745506Y-116569463D01*
X150648815Y-116648815D01*
X150569463Y-116745506D01*
X150510498Y-116855820D01*
X150474188Y-116975518D01*
X150461928Y-117100000D01*
X143277792Y-117100000D01*
X145172306Y-115205487D01*
X145215609Y-115169949D01*
X145285128Y-115085241D01*
X145357444Y-114997123D01*
X145462836Y-114799947D01*
X145527737Y-114585999D01*
X145549651Y-114363500D01*
X145544160Y-114307748D01*
X145544160Y-112558665D01*
X145565000Y-112558665D01*
X145565000Y-112841335D01*
X145620147Y-113118574D01*
X145728320Y-113379727D01*
X145885363Y-113614759D01*
X146085241Y-113814637D01*
X146320273Y-113971680D01*
X146581426Y-114079853D01*
X146858665Y-114135000D01*
X147141335Y-114135000D01*
X147418574Y-114079853D01*
X147679727Y-113971680D01*
X147914759Y-113814637D01*
X148114637Y-113614759D01*
X148271680Y-113379727D01*
X148379853Y-113118574D01*
X148435000Y-112841335D01*
X148435000Y-112558665D01*
X148379853Y-112281426D01*
X148271680Y-112020273D01*
X148114637Y-111785241D01*
X147914759Y-111585363D01*
X147679727Y-111428320D01*
X147418574Y-111320147D01*
X147141335Y-111265000D01*
X146858665Y-111265000D01*
X146581426Y-111320147D01*
X146320273Y-111428320D01*
X146085241Y-111585363D01*
X145885363Y-111785241D01*
X145728320Y-112020273D01*
X145620147Y-112281426D01*
X145565000Y-112558665D01*
X145544160Y-112558665D01*
X145544160Y-108100000D01*
X150461928Y-108100000D01*
X150461928Y-109900000D01*
X150474188Y-110024482D01*
X150510498Y-110144180D01*
X150569463Y-110254494D01*
X150648815Y-110351185D01*
X150745506Y-110430537D01*
X150855820Y-110489502D01*
X150975518Y-110525812D01*
X151100000Y-110538072D01*
X152900000Y-110538072D01*
X153024482Y-110525812D01*
X153144180Y-110489502D01*
X153254494Y-110430537D01*
X153351185Y-110351185D01*
X153430537Y-110254494D01*
X153489502Y-110144180D01*
X153495056Y-110125873D01*
X153561495Y-110192312D01*
X153812905Y-110360299D01*
X154092257Y-110476011D01*
X154388816Y-110535000D01*
X154691184Y-110535000D01*
X154987743Y-110476011D01*
X155267095Y-110360299D01*
X155518505Y-110192312D01*
X155732312Y-109978505D01*
X155900299Y-109727095D01*
X156016011Y-109447743D01*
X156075000Y-109151184D01*
X156075000Y-108848816D01*
X156016011Y-108552257D01*
X155900299Y-108272905D01*
X155784768Y-108100000D01*
X158461928Y-108100000D01*
X158461928Y-109900000D01*
X158474188Y-110024482D01*
X158510498Y-110144180D01*
X158569463Y-110254494D01*
X158648815Y-110351185D01*
X158745506Y-110430537D01*
X158855820Y-110489502D01*
X158975518Y-110525812D01*
X159100000Y-110538072D01*
X160900000Y-110538072D01*
X161024482Y-110525812D01*
X161144180Y-110489502D01*
X161254494Y-110430537D01*
X161351185Y-110351185D01*
X161430537Y-110254494D01*
X161489502Y-110144180D01*
X161495056Y-110125873D01*
X161561495Y-110192312D01*
X161812905Y-110360299D01*
X162092257Y-110476011D01*
X162388816Y-110535000D01*
X162691184Y-110535000D01*
X162987743Y-110476011D01*
X163267095Y-110360299D01*
X163518505Y-110192312D01*
X163732312Y-109978505D01*
X163900299Y-109727095D01*
X164016011Y-109447743D01*
X164075000Y-109151184D01*
X164075000Y-108848816D01*
X164016011Y-108552257D01*
X163900299Y-108272905D01*
X163732312Y-108021495D01*
X163518505Y-107807688D01*
X163267095Y-107639701D01*
X162987743Y-107523989D01*
X162691184Y-107465000D01*
X162388816Y-107465000D01*
X162092257Y-107523989D01*
X161812905Y-107639701D01*
X161561495Y-107807688D01*
X161495056Y-107874127D01*
X161489502Y-107855820D01*
X161430537Y-107745506D01*
X161351185Y-107648815D01*
X161254494Y-107569463D01*
X161144180Y-107510498D01*
X161024482Y-107474188D01*
X160900000Y-107461928D01*
X159100000Y-107461928D01*
X158975518Y-107474188D01*
X158855820Y-107510498D01*
X158745506Y-107569463D01*
X158648815Y-107648815D01*
X158569463Y-107745506D01*
X158510498Y-107855820D01*
X158474188Y-107975518D01*
X158461928Y-108100000D01*
X155784768Y-108100000D01*
X155732312Y-108021495D01*
X155518505Y-107807688D01*
X155267095Y-107639701D01*
X154987743Y-107523989D01*
X154691184Y-107465000D01*
X154388816Y-107465000D01*
X154092257Y-107523989D01*
X153812905Y-107639701D01*
X153561495Y-107807688D01*
X153495056Y-107874127D01*
X153489502Y-107855820D01*
X153430537Y-107745506D01*
X153351185Y-107648815D01*
X153254494Y-107569463D01*
X153144180Y-107510498D01*
X153024482Y-107474188D01*
X152900000Y-107461928D01*
X151100000Y-107461928D01*
X150975518Y-107474188D01*
X150855820Y-107510498D01*
X150745506Y-107569463D01*
X150648815Y-107648815D01*
X150569463Y-107745506D01*
X150510498Y-107855820D01*
X150474188Y-107975518D01*
X150461928Y-108100000D01*
X145544160Y-108100000D01*
X145544160Y-99858665D01*
X145565000Y-99858665D01*
X145565000Y-100141335D01*
X145620147Y-100418574D01*
X145728320Y-100679727D01*
X145885363Y-100914759D01*
X146085241Y-101114637D01*
X146320273Y-101271680D01*
X146581426Y-101379853D01*
X146858665Y-101435000D01*
X147141335Y-101435000D01*
X147418574Y-101379853D01*
X147679727Y-101271680D01*
X147914759Y-101114637D01*
X148114637Y-100914759D01*
X148271680Y-100679727D01*
X148379853Y-100418574D01*
X148435000Y-100141335D01*
X148435000Y-99858665D01*
X148379853Y-99581426D01*
X148271680Y-99320273D01*
X148124499Y-99100000D01*
X150461928Y-99100000D01*
X150461928Y-100900000D01*
X150474188Y-101024482D01*
X150510498Y-101144180D01*
X150569463Y-101254494D01*
X150648815Y-101351185D01*
X150745506Y-101430537D01*
X150855820Y-101489502D01*
X150975518Y-101525812D01*
X151100000Y-101538072D01*
X152900000Y-101538072D01*
X153024482Y-101525812D01*
X153144180Y-101489502D01*
X153254494Y-101430537D01*
X153351185Y-101351185D01*
X153430537Y-101254494D01*
X153489502Y-101144180D01*
X153495056Y-101125873D01*
X153561495Y-101192312D01*
X153812905Y-101360299D01*
X154092257Y-101476011D01*
X154388816Y-101535000D01*
X154691184Y-101535000D01*
X154987743Y-101476011D01*
X155267095Y-101360299D01*
X155518505Y-101192312D01*
X155732312Y-100978505D01*
X155900299Y-100727095D01*
X156016011Y-100447743D01*
X156075000Y-100151184D01*
X156075000Y-99848816D01*
X156016011Y-99552257D01*
X155900299Y-99272905D01*
X155784768Y-99100000D01*
X158461928Y-99100000D01*
X158461928Y-100900000D01*
X158474188Y-101024482D01*
X158510498Y-101144180D01*
X158569463Y-101254494D01*
X158648815Y-101351185D01*
X158745506Y-101430537D01*
X158855820Y-101489502D01*
X158975518Y-101525812D01*
X159100000Y-101538072D01*
X160900000Y-101538072D01*
X161024482Y-101525812D01*
X161144180Y-101489502D01*
X161254494Y-101430537D01*
X161351185Y-101351185D01*
X161430537Y-101254494D01*
X161489502Y-101144180D01*
X161495056Y-101125873D01*
X161561495Y-101192312D01*
X161812905Y-101360299D01*
X162092257Y-101476011D01*
X162388816Y-101535000D01*
X162691184Y-101535000D01*
X162987743Y-101476011D01*
X163267095Y-101360299D01*
X163518505Y-101192312D01*
X163732312Y-100978505D01*
X163900299Y-100727095D01*
X164016011Y-100447743D01*
X164075000Y-100151184D01*
X164075000Y-99848816D01*
X164016011Y-99552257D01*
X163900299Y-99272905D01*
X163732312Y-99021495D01*
X163518505Y-98807688D01*
X163267095Y-98639701D01*
X162987743Y-98523989D01*
X162691184Y-98465000D01*
X162388816Y-98465000D01*
X162092257Y-98523989D01*
X161812905Y-98639701D01*
X161561495Y-98807688D01*
X161495056Y-98874127D01*
X161489502Y-98855820D01*
X161430537Y-98745506D01*
X161351185Y-98648815D01*
X161254494Y-98569463D01*
X161144180Y-98510498D01*
X161024482Y-98474188D01*
X160900000Y-98461928D01*
X159100000Y-98461928D01*
X158975518Y-98474188D01*
X158855820Y-98510498D01*
X158745506Y-98569463D01*
X158648815Y-98648815D01*
X158569463Y-98745506D01*
X158510498Y-98855820D01*
X158474188Y-98975518D01*
X158461928Y-99100000D01*
X155784768Y-99100000D01*
X155732312Y-99021495D01*
X155518505Y-98807688D01*
X155267095Y-98639701D01*
X154987743Y-98523989D01*
X154691184Y-98465000D01*
X154388816Y-98465000D01*
X154092257Y-98523989D01*
X153812905Y-98639701D01*
X153561495Y-98807688D01*
X153495056Y-98874127D01*
X153489502Y-98855820D01*
X153430537Y-98745506D01*
X153351185Y-98648815D01*
X153254494Y-98569463D01*
X153144180Y-98510498D01*
X153024482Y-98474188D01*
X152900000Y-98461928D01*
X151100000Y-98461928D01*
X150975518Y-98474188D01*
X150855820Y-98510498D01*
X150745506Y-98569463D01*
X150648815Y-98648815D01*
X150569463Y-98745506D01*
X150510498Y-98855820D01*
X150474188Y-98975518D01*
X150461928Y-99100000D01*
X148124499Y-99100000D01*
X148114637Y-99085241D01*
X147914759Y-98885363D01*
X147679727Y-98728320D01*
X147418574Y-98620147D01*
X147141335Y-98565000D01*
X146858665Y-98565000D01*
X146581426Y-98620147D01*
X146320273Y-98728320D01*
X146085241Y-98885363D01*
X145885363Y-99085241D01*
X145728320Y-99320273D01*
X145620147Y-99581426D01*
X145565000Y-99858665D01*
X145544160Y-99858665D01*
X145544160Y-95477696D01*
X145774322Y-95573032D01*
X146061220Y-95630100D01*
X146353740Y-95630100D01*
X146640638Y-95573032D01*
X146910891Y-95461090D01*
X147154112Y-95298575D01*
X147360955Y-95091732D01*
X147523470Y-94848511D01*
X147635412Y-94578258D01*
X147692480Y-94291360D01*
X147692480Y-93998840D01*
X147635412Y-93711942D01*
X147523470Y-93441689D01*
X147360955Y-93198468D01*
X147154112Y-92991625D01*
X146978074Y-92874000D01*
X147207749Y-92702688D01*
X147324306Y-92573378D01*
X160641027Y-92573378D01*
X160778984Y-92873584D01*
X161128227Y-93049422D01*
X161505064Y-93153747D01*
X161895013Y-93182549D01*
X162283088Y-93134724D01*
X162654376Y-93012108D01*
X162913536Y-92873584D01*
X163051493Y-92573378D01*
X161846260Y-91368145D01*
X160641027Y-92573378D01*
X147324306Y-92573378D01*
X147402658Y-92486455D01*
X147551637Y-92236352D01*
X147648961Y-91961991D01*
X147528294Y-91732100D01*
X146334480Y-91732100D01*
X146334480Y-91752100D01*
X146080480Y-91752100D01*
X146080480Y-91732100D01*
X146060480Y-91732100D01*
X146060480Y-91478100D01*
X146080480Y-91478100D01*
X146080480Y-90284945D01*
X146334480Y-90284945D01*
X146334480Y-91478100D01*
X147528294Y-91478100D01*
X147648961Y-91248209D01*
X147645089Y-91237293D01*
X159852251Y-91237293D01*
X159900076Y-91625368D01*
X160022692Y-91996656D01*
X160161216Y-92255816D01*
X160461422Y-92393773D01*
X161666655Y-91188540D01*
X162025865Y-91188540D01*
X163231098Y-92393773D01*
X163531304Y-92255816D01*
X163707142Y-91906573D01*
X163811467Y-91529736D01*
X163840269Y-91139787D01*
X163792444Y-90751712D01*
X163669828Y-90380424D01*
X163531304Y-90121264D01*
X163231098Y-89983307D01*
X162025865Y-91188540D01*
X161666655Y-91188540D01*
X160461422Y-89983307D01*
X160161216Y-90121264D01*
X159985378Y-90470507D01*
X159881053Y-90847344D01*
X159852251Y-91237293D01*
X147645089Y-91237293D01*
X147551637Y-90973848D01*
X147402658Y-90723745D01*
X147207749Y-90507512D01*
X146974400Y-90333459D01*
X146711579Y-90208275D01*
X146564370Y-90163624D01*
X146334480Y-90284945D01*
X146080480Y-90284945D01*
X145850590Y-90163624D01*
X145703381Y-90208275D01*
X145440560Y-90333459D01*
X145207211Y-90507512D01*
X145012302Y-90723745D01*
X144942675Y-90840634D01*
X144820955Y-90658468D01*
X144802480Y-90639993D01*
X144802480Y-90124152D01*
X144807971Y-90068400D01*
X144786057Y-89845901D01*
X144773256Y-89803702D01*
X160641027Y-89803702D01*
X161846260Y-91008935D01*
X163051493Y-89803702D01*
X162913536Y-89503496D01*
X162564293Y-89327658D01*
X162187456Y-89223333D01*
X161797507Y-89194531D01*
X161409432Y-89242356D01*
X161038144Y-89364972D01*
X160778984Y-89503496D01*
X160641027Y-89803702D01*
X144773256Y-89803702D01*
X144721156Y-89631953D01*
X144615764Y-89434777D01*
X144509469Y-89305256D01*
X144509467Y-89305254D01*
X144473929Y-89261951D01*
X144430625Y-89226413D01*
X143625555Y-88421344D01*
X143590009Y-88378031D01*
X143417183Y-88236196D01*
X143220007Y-88130804D01*
X143006059Y-88065903D01*
X142839312Y-88049480D01*
X142839311Y-88049480D01*
X142783560Y-88043989D01*
X142727809Y-88049480D01*
X138892151Y-88049480D01*
X138836400Y-88043989D01*
X138780648Y-88049480D01*
X138613901Y-88065903D01*
X138399953Y-88130804D01*
X138202777Y-88236196D01*
X138029951Y-88378031D01*
X137994409Y-88421339D01*
X134236865Y-92178884D01*
X134193551Y-92214431D01*
X134051716Y-92387257D01*
X133946325Y-92584433D01*
X133946324Y-92584434D01*
X133881423Y-92798382D01*
X133859509Y-93020880D01*
X133865000Y-93076632D01*
X133865001Y-97112869D01*
X133865000Y-97112879D01*
X133865000Y-97415716D01*
X133728320Y-97620273D01*
X133620147Y-97881426D01*
X133565000Y-98158665D01*
X133565000Y-98441335D01*
X133620147Y-98718574D01*
X133728320Y-98979727D01*
X133885363Y-99214759D01*
X134085241Y-99414637D01*
X134320273Y-99571680D01*
X134581426Y-99679853D01*
X134858665Y-99735000D01*
X135141335Y-99735000D01*
X135418574Y-99679853D01*
X135679727Y-99571680D01*
X135914759Y-99414637D01*
X136114637Y-99214759D01*
X136271680Y-98979727D01*
X136379853Y-98718574D01*
X136435000Y-98441335D01*
X136435000Y-98158665D01*
X136379853Y-97881426D01*
X136271680Y-97620273D01*
X136135000Y-97415716D01*
X136135000Y-93491011D01*
X139306532Y-90319480D01*
X140378617Y-90319480D01*
X140180848Y-90451625D01*
X139974005Y-90658468D01*
X139811490Y-90901689D01*
X139699548Y-91171942D01*
X139642480Y-91458840D01*
X139642480Y-91751360D01*
X139699548Y-92038258D01*
X139811490Y-92308511D01*
X139974005Y-92551732D01*
X140105860Y-92683587D01*
X140033300Y-92705598D01*
X139922986Y-92764563D01*
X139826295Y-92843915D01*
X139746943Y-92940606D01*
X139687978Y-93050920D01*
X139651668Y-93170618D01*
X139639408Y-93295100D01*
X139639408Y-94995100D01*
X139651668Y-95119582D01*
X139687978Y-95239280D01*
X139746943Y-95349594D01*
X139826295Y-95446285D01*
X139922986Y-95525637D01*
X139992481Y-95562783D01*
X139992481Y-95939339D01*
X139986989Y-95995100D01*
X140008903Y-96217598D01*
X140043280Y-96330923D01*
X140043281Y-97832947D01*
X125617105Y-112259124D01*
X125573791Y-112294671D01*
X125431956Y-112467497D01*
X125326565Y-112664673D01*
X125326564Y-112664674D01*
X125261663Y-112878622D01*
X125239749Y-113101120D01*
X124760923Y-113101120D01*
X124745844Y-100927960D01*
X128046491Y-100927960D01*
X128141330Y-101192801D01*
X128286015Y-101434051D01*
X128474986Y-101642439D01*
X128700980Y-101809957D01*
X128955313Y-101930166D01*
X129089361Y-101970824D01*
X129311400Y-101848835D01*
X129311400Y-100705920D01*
X129565400Y-100705920D01*
X129565400Y-101848835D01*
X129787439Y-101970824D01*
X129921487Y-101930166D01*
X130175820Y-101809957D01*
X130401814Y-101642439D01*
X130590785Y-101434051D01*
X130735470Y-101192801D01*
X130830309Y-100927960D01*
X130709024Y-100705920D01*
X129565400Y-100705920D01*
X129311400Y-100705920D01*
X128167776Y-100705920D01*
X128046491Y-100927960D01*
X124745844Y-100927960D01*
X124744980Y-100229880D01*
X128046491Y-100229880D01*
X128167776Y-100451920D01*
X129311400Y-100451920D01*
X129311400Y-99309005D01*
X129565400Y-99309005D01*
X129565400Y-100451920D01*
X130709024Y-100451920D01*
X130830309Y-100229880D01*
X130735470Y-99965039D01*
X130590785Y-99723789D01*
X130401814Y-99515401D01*
X130175820Y-99347883D01*
X129921487Y-99227674D01*
X129787439Y-99187016D01*
X129565400Y-99309005D01*
X129311400Y-99309005D01*
X129089361Y-99187016D01*
X128955313Y-99227674D01*
X128700980Y-99347883D01*
X128474986Y-99515401D01*
X128286015Y-99723789D01*
X128141330Y-99965039D01*
X128046491Y-100229880D01*
X124744980Y-100229880D01*
X124735906Y-92906118D01*
X127194307Y-92906118D01*
X127332264Y-93206324D01*
X127681507Y-93382162D01*
X128058344Y-93486487D01*
X128448293Y-93515289D01*
X128836368Y-93467464D01*
X129207656Y-93344848D01*
X129466816Y-93206324D01*
X129604773Y-92906118D01*
X128399540Y-91700885D01*
X127194307Y-92906118D01*
X124735906Y-92906118D01*
X124734250Y-91570033D01*
X126405531Y-91570033D01*
X126453356Y-91958108D01*
X126575972Y-92329396D01*
X126714496Y-92588556D01*
X127014702Y-92726513D01*
X128219935Y-91521280D01*
X128579145Y-91521280D01*
X129784378Y-92726513D01*
X130084584Y-92588556D01*
X130260422Y-92239313D01*
X130364747Y-91862476D01*
X130393549Y-91472527D01*
X130345724Y-91084452D01*
X130223108Y-90713164D01*
X130084584Y-90454004D01*
X129784378Y-90316047D01*
X128579145Y-91521280D01*
X128219935Y-91521280D01*
X127014702Y-90316047D01*
X126714496Y-90454004D01*
X126538658Y-90803247D01*
X126434333Y-91180084D01*
X126405531Y-91570033D01*
X124734250Y-91570033D01*
X124732474Y-90136442D01*
X127194307Y-90136442D01*
X128399540Y-91341675D01*
X129604773Y-90136442D01*
X129466816Y-89836236D01*
X129117573Y-89660398D01*
X128740736Y-89556073D01*
X128350787Y-89527271D01*
X127962712Y-89575096D01*
X127591424Y-89697712D01*
X127332264Y-89836236D01*
X127194307Y-90136442D01*
X124732474Y-90136442D01*
X124729406Y-87660000D01*
X166340000Y-87660000D01*
X166340001Y-159340000D01*
G37*
%TD.AperFunction*%
%TD*%
M02*
