M48
; DRILL file {KiCad (5.1.0)-1} date 23-Dec-21 09:16:54
; FORMAT={-:-/ absolute / metric / decimal}
; #@! TF.CreationDate,2021-12-23T09:16:54+02:00
; #@! TF.GenerationSoftware,Kicad,Pcbnew,(5.1.0)-1
; #@! TF.FileFunction,Plated,1,4,PTH
FMAT,2
METRIC
T1C0.200
T2C0.400
T3C0.700
T4C0.750
T5C0.800
T6C1.000
T7C1.300
%
G90
G05
T1
X138.43Y-83.058
T2
X89.637Y-73.584
X90.018Y-69.52
X91.237Y-68.224
X92.202Y-93.802
X97.434Y-69.291
X99.416Y-109.042
X99.974Y-94.158
X101.219Y-83.312
X101.397Y-92.253
X101.854Y-70.002
X102.108Y-67.818
X103.149Y-94.945
X103.759Y-92.964
X104.674Y-67.792
X105.41Y-78.74
X106.274Y-94.996
X106.502Y-93.04
X107.086Y-85.598
X107.696Y-73.406
X109.017Y-80.594
X109.296Y-94.996
X109.423Y-93.066
X109.601Y-110.134
X112.014Y-94.996
X112.014Y-99.517
X112.878Y-93.066
X113.563Y-70.028
X113.563Y-74.752
X113.614Y-72.974
X114.046Y-96.774
X114.198Y-87.706
X114.3Y-94.996
X114.808Y-99.822
X115.646Y-91.77
X115.824Y-86.36
X115.9Y-89.484
X116.053Y-70.282
X116.332Y-97.79
X116.586Y-94.488
X117.932Y-85.979
X117.983Y-88.265
X118.11Y-83.566
X118.212Y-81.026
X118.288Y-96.037
X118.491Y-92.456
X120.142Y-90.678
X120.269Y-93.751
X120.396Y-86.106
X120.396Y-88.392
X120.65Y-83.566
X120.904Y-81.026
X121.006Y-74.498
X121.717Y-92.405
X121.844Y-95.174
X122.936Y-86.106
X122.936Y-88.392
X123.215Y-81.128
X123.241Y-83.566
X123.977Y-97.257
X125.501Y-86.044
X125.527Y-68.732
X125.527Y-81.28
X125.603Y-88.138
X125.73Y-83.566
X127.965Y-68.504
X130.277Y-74.498
X131.445Y-68.58
X132.08Y-86.106
X134.645Y-68.402
X137.16Y-83.82
X137.414Y-102.362
X138.278Y-74.295
X139.954Y-84.582
T3
X122.834Y-108.712
X125.374Y-111.252
X127.914Y-108.712
X84.049Y-97.587
X84.049Y-102.667
X86.589Y-100.127
X103.886Y-71.12
X111.506Y-71.12
X127.762Y-114.554
X135.382Y-114.554
X91.44Y-71.12
X99.06Y-71.12
X93.802Y-107.34
X93.802Y-112.42
X96.342Y-109.88
X103.886Y-76.708
X111.506Y-76.708
X91.44Y-73.66
X99.06Y-73.66
T4
X134.188Y-107.01
X135.458Y-105.74
X136.728Y-107.01
X86.36Y-71.12
X86.36Y-73.66
X87.63Y-72.39
T5
X140.945Y-76.94
X140.945Y-81.94
X119.38Y-71.12
X119.38Y-78.74
X121.92Y-71.12
X121.92Y-78.74
X124.46Y-71.12
X124.46Y-78.74
X127.0Y-71.12
X127.0Y-78.74
X129.54Y-71.12
X129.54Y-78.74
X132.08Y-71.12
X132.08Y-78.74
X134.62Y-71.12
X134.62Y-78.74
X137.16Y-71.12
X137.16Y-78.74
X110.998Y-83.058
X110.998Y-85.598
X110.998Y-88.138
X110.998Y-90.678
X140.945Y-69.494
X140.945Y-74.494
T6
X140.767Y-103.683
X140.767Y-106.223
X86.92Y-63.05
X86.92Y-65.59
X89.46Y-63.05
X89.46Y-65.59
X92.0Y-63.05
X92.0Y-65.59
X94.54Y-63.05
X94.54Y-65.59
X97.08Y-63.05
X97.08Y-65.59
X99.62Y-63.05
X99.62Y-65.59
X102.16Y-63.05
X102.16Y-65.59
X104.7Y-63.05
X104.7Y-65.59
X107.24Y-63.05
X107.24Y-65.59
X109.78Y-63.05
X109.78Y-65.59
X112.32Y-63.05
X112.32Y-65.59
X114.86Y-63.05
X114.86Y-65.59
X117.4Y-63.05
X117.4Y-65.59
X119.94Y-63.05
X119.94Y-65.59
X122.48Y-63.05
X122.48Y-65.59
X125.02Y-63.05
X125.02Y-65.59
X127.56Y-63.05
X127.56Y-65.59
X130.1Y-63.05
X130.1Y-65.59
X132.64Y-63.05
X132.64Y-65.59
X135.18Y-63.05
X135.18Y-65.59
X81.28Y-71.12
X81.28Y-73.66
T7
X92.315Y-84.695
X92.315Y-91.44
X95.688Y-83.317
X95.688Y-92.817
X99.06Y-84.695
X99.06Y-91.44
X104.978Y-105.029
X106.355Y-101.656
X106.355Y-108.401
X113.1Y-101.656
X113.1Y-108.401
X114.478Y-105.029
X125.654Y-93.574
X127.031Y-90.201
X127.031Y-96.946
X133.776Y-90.201
X133.776Y-96.946
X135.154Y-93.574
T0
M30
