%TF.GenerationSoftware,KiCad,Pcbnew,(5.1.0)-1*%
%TF.CreationDate,2021-12-23T09:16:39+02:00*%
%TF.ProjectId,RPI_HAT_sensors,5250495f-4841-4545-9f73-656e736f7273,rev?*%
%TF.SameCoordinates,Original*%
%TF.FileFunction,Legend,Top*%
%TF.FilePolarity,Positive*%
%FSLAX46Y46*%
G04 Gerber Fmt 4.6, Leading zero omitted, Abs format (unit mm)*
G04 Created by KiCad (PCBNEW (5.1.0)-1) date 2021-12-23 09:16:39*
%MOMM*%
%LPD*%
G04 APERTURE LIST*
%ADD10C,0.200000*%
%ADD11C,0.150000*%
%ADD12C,0.100000*%
%ADD13C,0.120000*%
G04 APERTURE END LIST*
D10*
X140779523Y-100544380D02*
X140303333Y-100544380D01*
X140255714Y-101020571D01*
X140303333Y-100972952D01*
X140398571Y-100925333D01*
X140636666Y-100925333D01*
X140731904Y-100972952D01*
X140779523Y-101020571D01*
X140827142Y-101115809D01*
X140827142Y-101353904D01*
X140779523Y-101449142D01*
X140731904Y-101496761D01*
X140636666Y-101544380D01*
X140398571Y-101544380D01*
X140303333Y-101496761D01*
X140255714Y-101449142D01*
X141112857Y-100544380D02*
X141446190Y-101544380D01*
X141779523Y-100544380D01*
X81089523Y-67778380D02*
X80613333Y-67778380D01*
X80565714Y-68254571D01*
X80613333Y-68206952D01*
X80708571Y-68159333D01*
X80946666Y-68159333D01*
X81041904Y-68206952D01*
X81089523Y-68254571D01*
X81137142Y-68349809D01*
X81137142Y-68587904D01*
X81089523Y-68683142D01*
X81041904Y-68730761D01*
X80946666Y-68778380D01*
X80708571Y-68778380D01*
X80613333Y-68730761D01*
X80565714Y-68683142D01*
X81422857Y-67778380D02*
X81756190Y-68778380D01*
X82089523Y-67778380D01*
D11*
X102250666Y-113792000D02*
G75*
G03X102250666Y-113792000I-1666666J0D01*
G01*
X98084000Y-113792000D02*
X103084000Y-113792000D01*
X100584000Y-111292000D02*
X100584000Y-116292000D01*
X83454666Y-107188000D02*
G75*
G03X83454666Y-107188000I-1666666J0D01*
G01*
X79288000Y-107188000D02*
X84288000Y-107188000D01*
X81788000Y-104688000D02*
X81788000Y-109688000D01*
X83200666Y-78994000D02*
G75*
G03X83200666Y-78994000I-1666666J0D01*
G01*
X79034000Y-78994000D02*
X84034000Y-78994000D01*
X81534000Y-76494000D02*
X81534000Y-81494000D01*
D12*
X78546356Y-63817611D02*
X78546356Y-113817611D01*
X78546356Y-63817611D02*
G75*
G02X81546356Y-60817611I3000000J0D01*
G01*
X140546356Y-60817611D02*
X81546356Y-60817611D01*
X140546356Y-60817611D02*
G75*
G02X143546356Y-63817611I0J-3000000D01*
G01*
X143546356Y-113817611D02*
X143546356Y-63817611D01*
X81546356Y-116817611D02*
G75*
G02X78546356Y-113817611I0J3000000D01*
G01*
X81546356Y-116817611D02*
X140546356Y-116817611D01*
X143546351Y-113822847D02*
G75*
G02X140546356Y-116817611I-2999995J5236D01*
G01*
D13*
X119888000Y-105029000D02*
G75*
G03X119888000Y-105029000I-10160000J0D01*
G01*
X109727999Y-111480599D02*
G75*
G02X109728001Y-98475801I50801J6502399D01*
G01*
X105847500Y-88067500D02*
G75*
G03X105847500Y-88067500I-10160000J0D01*
G01*
X89235901Y-88067499D02*
G75*
G02X102240699Y-88067501I6502399J-50801D01*
G01*
X130403601Y-87122001D02*
G75*
G02X130403599Y-100126799I-50801J-6502399D01*
G01*
X140563600Y-93573600D02*
G75*
G03X140563600Y-93573600I-10160000J0D01*
G01*
X118050000Y-73930000D02*
G75*
G02X118050000Y-75930000I0J-1000000D01*
G01*
X118050000Y-75930000D02*
X118050000Y-77180000D01*
X118050000Y-77180000D02*
X138490000Y-77180000D01*
X138490000Y-77180000D02*
X138490000Y-72680000D01*
X138490000Y-72680000D02*
X118050000Y-72680000D01*
X118050000Y-72680000D02*
X118050000Y-73930000D01*
X87978600Y-100126800D02*
G75*
G03X87978600Y-100126800I-3930000J0D01*
G01*
X97732200Y-109880400D02*
G75*
G03X97732200Y-109880400I-3930000J0D01*
G01*
X129304400Y-108712000D02*
G75*
G03X129304400Y-108712000I-3930000J0D01*
G01*
X79950000Y-74990000D02*
X82610000Y-74990000D01*
X79950000Y-72390000D02*
X79950000Y-74990000D01*
X82610000Y-72390000D02*
X82610000Y-74990000D01*
X79950000Y-72390000D02*
X82610000Y-72390000D01*
X79950000Y-71120000D02*
X79950000Y-69790000D01*
X79950000Y-69790000D02*
X81280000Y-69790000D01*
X84510000Y-70590000D02*
X84510000Y-74190000D01*
X84521522Y-70551522D02*
G75*
G02X88960000Y-72390000I1838478J-1838478D01*
G01*
X84521522Y-74228478D02*
G75*
G03X88960000Y-72390000I1838478J1838478D01*
G01*
X92380000Y-71120000D02*
X93330000Y-71120000D01*
X98120000Y-71120000D02*
X97170000Y-71120000D01*
X93330000Y-72040000D02*
X97170000Y-72040000D01*
X93330000Y-70200000D02*
X93330000Y-72040000D01*
X97170000Y-70200000D02*
X93330000Y-70200000D01*
X97170000Y-72040000D02*
X97170000Y-70200000D01*
X93330000Y-72740000D02*
X93330000Y-74580000D01*
X93330000Y-74580000D02*
X97170000Y-74580000D01*
X97170000Y-74580000D02*
X97170000Y-72740000D01*
X97170000Y-72740000D02*
X93330000Y-72740000D01*
X92380000Y-73660000D02*
X93330000Y-73660000D01*
X98120000Y-73660000D02*
X97170000Y-73660000D01*
X109616000Y-72040000D02*
X109616000Y-70200000D01*
X109616000Y-70200000D02*
X105776000Y-70200000D01*
X105776000Y-70200000D02*
X105776000Y-72040000D01*
X105776000Y-72040000D02*
X109616000Y-72040000D01*
X110566000Y-71120000D02*
X109616000Y-71120000D01*
X104826000Y-71120000D02*
X105776000Y-71120000D01*
X113868000Y-92998000D02*
X108128000Y-92998000D01*
X108118000Y-92998000D02*
X108118000Y-80738000D01*
X108118000Y-80738000D02*
X113878000Y-80738000D01*
X113878000Y-80738000D02*
X113878000Y-92988000D01*
X114158000Y-93278000D02*
X114158000Y-91278000D01*
X114158000Y-93278000D02*
X112548000Y-93278000D01*
X142665600Y-69324400D02*
X142665600Y-74664400D01*
X139223600Y-69324400D02*
X139223600Y-74664400D01*
X142665600Y-69324400D02*
X141999600Y-69324400D01*
X139889600Y-69324400D02*
X139223600Y-69324400D01*
X142665600Y-74664400D02*
X141999600Y-74664400D01*
X139889600Y-74664400D02*
X139223600Y-74664400D01*
X141999600Y-76770400D02*
X142665600Y-76770400D01*
X139223600Y-76770400D02*
X139889600Y-76770400D01*
X141999600Y-82110400D02*
X142665600Y-82110400D01*
X139223600Y-82110400D02*
X139889600Y-82110400D01*
X142665600Y-82110400D02*
X142665600Y-76770400D01*
X139223600Y-82110400D02*
X139223600Y-76770400D01*
X139436800Y-107552800D02*
X142096800Y-107552800D01*
X139436800Y-104952800D02*
X139436800Y-107552800D01*
X142096800Y-104952800D02*
X142096800Y-107552800D01*
X139436800Y-104952800D02*
X142096800Y-104952800D01*
X139436800Y-103682800D02*
X139436800Y-102352800D01*
X139436800Y-102352800D02*
X140766800Y-102352800D01*
X133658200Y-108860200D02*
X137258200Y-108860200D01*
X133619722Y-108848678D02*
G75*
G02X135458200Y-104410200I1838478J1838478D01*
G01*
X137296678Y-108848678D02*
G75*
G03X135458200Y-104410200I-1838478J1838478D01*
G01*
X105776000Y-75788000D02*
X105776000Y-77628000D01*
X105776000Y-77628000D02*
X109616000Y-77628000D01*
X109616000Y-77628000D02*
X109616000Y-75788000D01*
X109616000Y-75788000D02*
X105776000Y-75788000D01*
X104826000Y-76708000D02*
X105776000Y-76708000D01*
X110566000Y-76708000D02*
X109616000Y-76708000D01*
X128702000Y-114554000D02*
X129652000Y-114554000D01*
X134442000Y-114554000D02*
X133492000Y-114554000D01*
X129652000Y-115474000D02*
X133492000Y-115474000D01*
X129652000Y-113634000D02*
X129652000Y-115474000D01*
X133492000Y-113634000D02*
X129652000Y-113634000D01*
X133492000Y-115474000D02*
X133492000Y-113634000D01*
D11*
X103124095Y-114260380D02*
X103124095Y-115069904D01*
X103171714Y-115165142D01*
X103219333Y-115212761D01*
X103314571Y-115260380D01*
X103505047Y-115260380D01*
X103600285Y-115212761D01*
X103647904Y-115165142D01*
X103695523Y-115069904D01*
X103695523Y-114260380D01*
X104076476Y-114260380D02*
X104695523Y-114260380D01*
X104362190Y-114641333D01*
X104505047Y-114641333D01*
X104600285Y-114688952D01*
X104647904Y-114736571D01*
X104695523Y-114831809D01*
X104695523Y-115069904D01*
X104647904Y-115165142D01*
X104600285Y-115212761D01*
X104505047Y-115260380D01*
X104219333Y-115260380D01*
X104124095Y-115212761D01*
X104076476Y-115165142D01*
X81338095Y-64852380D02*
X81338095Y-63852380D01*
X81338095Y-64328571D02*
X81909523Y-64328571D01*
X81909523Y-64852380D02*
X81909523Y-63852380D01*
X82909523Y-64852380D02*
X82338095Y-64852380D01*
X82623809Y-64852380D02*
X82623809Y-63852380D01*
X82528571Y-63995238D01*
X82433333Y-64090476D01*
X82338095Y-64138095D01*
X139338095Y-64872380D02*
X139338095Y-63872380D01*
X139338095Y-64348571D02*
X139909523Y-64348571D01*
X139909523Y-64872380D02*
X139909523Y-63872380D01*
X140338095Y-63967619D02*
X140385714Y-63920000D01*
X140480952Y-63872380D01*
X140719047Y-63872380D01*
X140814285Y-63920000D01*
X140861904Y-63967619D01*
X140909523Y-64062857D01*
X140909523Y-64158095D01*
X140861904Y-64300952D01*
X140290476Y-64872380D01*
X140909523Y-64872380D01*
X81338095Y-113862380D02*
X81338095Y-112862380D01*
X81338095Y-113338571D02*
X81909523Y-113338571D01*
X81909523Y-113862380D02*
X81909523Y-112862380D01*
X82290476Y-112862380D02*
X82909523Y-112862380D01*
X82576190Y-113243333D01*
X82719047Y-113243333D01*
X82814285Y-113290952D01*
X82861904Y-113338571D01*
X82909523Y-113433809D01*
X82909523Y-113671904D01*
X82861904Y-113767142D01*
X82814285Y-113814761D01*
X82719047Y-113862380D01*
X82433333Y-113862380D01*
X82338095Y-113814761D01*
X82290476Y-113767142D01*
X139328095Y-113852380D02*
X139328095Y-112852380D01*
X139328095Y-113328571D02*
X139899523Y-113328571D01*
X139899523Y-113852380D02*
X139899523Y-112852380D01*
X140804285Y-113185714D02*
X140804285Y-113852380D01*
X140566190Y-112804761D02*
X140328095Y-113519047D01*
X140947142Y-113519047D01*
X84034380Y-88391904D02*
X84843904Y-88391904D01*
X84939142Y-88344285D01*
X84986761Y-88296666D01*
X85034380Y-88201428D01*
X85034380Y-88010952D01*
X84986761Y-87915714D01*
X84939142Y-87868095D01*
X84843904Y-87820476D01*
X84034380Y-87820476D01*
X85034380Y-86820476D02*
X85034380Y-87391904D01*
X85034380Y-87106190D02*
X84034380Y-87106190D01*
X84177238Y-87201428D01*
X84272476Y-87296666D01*
X84320095Y-87391904D01*
X140930380Y-94233904D02*
X141739904Y-94233904D01*
X141835142Y-94186285D01*
X141882761Y-94138666D01*
X141930380Y-94043428D01*
X141930380Y-93852952D01*
X141882761Y-93757714D01*
X141835142Y-93710095D01*
X141739904Y-93662476D01*
X140930380Y-93662476D01*
X141025619Y-93233904D02*
X140978000Y-93186285D01*
X140930380Y-93091047D01*
X140930380Y-92852952D01*
X140978000Y-92757714D01*
X141025619Y-92710095D01*
X141120857Y-92662476D01*
X141216095Y-92662476D01*
X141358952Y-92710095D01*
X141930380Y-93281523D01*
X141930380Y-92662476D01*
X116502380Y-75691904D02*
X117311904Y-75691904D01*
X117407142Y-75644285D01*
X117454761Y-75596666D01*
X117502380Y-75501428D01*
X117502380Y-75310952D01*
X117454761Y-75215714D01*
X117407142Y-75168095D01*
X117311904Y-75120476D01*
X116502380Y-75120476D01*
X116835714Y-74215714D02*
X117502380Y-74215714D01*
X116454761Y-74453809D02*
X117169047Y-74691904D01*
X117169047Y-74072857D01*
X83453361Y-105639180D02*
X83120028Y-105162990D01*
X82881933Y-105639180D02*
X82881933Y-104639180D01*
X83262885Y-104639180D01*
X83358123Y-104686800D01*
X83405742Y-104734419D01*
X83453361Y-104829657D01*
X83453361Y-104972514D01*
X83405742Y-105067752D01*
X83358123Y-105115371D01*
X83262885Y-105162990D01*
X82881933Y-105162990D01*
X83739076Y-104639180D02*
X84072409Y-105639180D01*
X84405742Y-104639180D01*
X85262885Y-105639180D02*
X84691457Y-105639180D01*
X84977171Y-105639180D02*
X84977171Y-104639180D01*
X84881933Y-104782038D01*
X84786695Y-104877276D01*
X84691457Y-104924895D01*
X93206961Y-115392780D02*
X92873628Y-114916590D01*
X92635533Y-115392780D02*
X92635533Y-114392780D01*
X93016485Y-114392780D01*
X93111723Y-114440400D01*
X93159342Y-114488019D01*
X93206961Y-114583257D01*
X93206961Y-114726114D01*
X93159342Y-114821352D01*
X93111723Y-114868971D01*
X93016485Y-114916590D01*
X92635533Y-114916590D01*
X93492676Y-114392780D02*
X93826009Y-115392780D01*
X94159342Y-114392780D01*
X94445057Y-114488019D02*
X94492676Y-114440400D01*
X94587914Y-114392780D01*
X94826009Y-114392780D01*
X94921247Y-114440400D01*
X94968866Y-114488019D01*
X95016485Y-114583257D01*
X95016485Y-114678495D01*
X94968866Y-114821352D01*
X94397438Y-115392780D01*
X95016485Y-115392780D01*
X123102761Y-114244380D02*
X122769428Y-113768190D01*
X122531333Y-114244380D02*
X122531333Y-113244380D01*
X122912285Y-113244380D01*
X123007523Y-113292000D01*
X123055142Y-113339619D01*
X123102761Y-113434857D01*
X123102761Y-113577714D01*
X123055142Y-113672952D01*
X123007523Y-113720571D01*
X122912285Y-113768190D01*
X122531333Y-113768190D01*
X123388476Y-113244380D02*
X123721809Y-114244380D01*
X124055142Y-113244380D01*
X124293238Y-113244380D02*
X124912285Y-113244380D01*
X124578952Y-113625333D01*
X124721809Y-113625333D01*
X124817047Y-113672952D01*
X124864666Y-113720571D01*
X124912285Y-113815809D01*
X124912285Y-114053904D01*
X124864666Y-114149142D01*
X124817047Y-114196761D01*
X124721809Y-114244380D01*
X124436095Y-114244380D01*
X124340857Y-114196761D01*
X124293238Y-114149142D01*
X80946666Y-75652380D02*
X80946666Y-76366666D01*
X80899047Y-76509523D01*
X80803809Y-76604761D01*
X80660952Y-76652380D01*
X80565714Y-76652380D01*
X81946666Y-76652380D02*
X81375238Y-76652380D01*
X81660952Y-76652380D02*
X81660952Y-75652380D01*
X81565714Y-75795238D01*
X81470476Y-75890476D01*
X81375238Y-75938095D01*
X86264761Y-76747619D02*
X86169523Y-76700000D01*
X86074285Y-76604761D01*
X85931428Y-76461904D01*
X85836190Y-76414285D01*
X85740952Y-76414285D01*
X85788571Y-76652380D02*
X85693333Y-76604761D01*
X85598095Y-76509523D01*
X85550476Y-76319047D01*
X85550476Y-75985714D01*
X85598095Y-75795238D01*
X85693333Y-75700000D01*
X85788571Y-75652380D01*
X85979047Y-75652380D01*
X86074285Y-75700000D01*
X86169523Y-75795238D01*
X86217142Y-75985714D01*
X86217142Y-76319047D01*
X86169523Y-76509523D01*
X86074285Y-76604761D01*
X85979047Y-76652380D01*
X85788571Y-76652380D01*
X87169523Y-76652380D02*
X86598095Y-76652380D01*
X86883809Y-76652380D02*
X86883809Y-75652380D01*
X86788571Y-75795238D01*
X86693333Y-75890476D01*
X86598095Y-75938095D01*
X95083333Y-69540380D02*
X94750000Y-69064190D01*
X94511904Y-69540380D02*
X94511904Y-68540380D01*
X94892857Y-68540380D01*
X94988095Y-68588000D01*
X95035714Y-68635619D01*
X95083333Y-68730857D01*
X95083333Y-68873714D01*
X95035714Y-68968952D01*
X94988095Y-69016571D01*
X94892857Y-69064190D01*
X94511904Y-69064190D01*
X96035714Y-69540380D02*
X95464285Y-69540380D01*
X95750000Y-69540380D02*
X95750000Y-68540380D01*
X95654761Y-68683238D01*
X95559523Y-68778476D01*
X95464285Y-68826095D01*
X94829333Y-76144380D02*
X94496000Y-75668190D01*
X94257904Y-76144380D02*
X94257904Y-75144380D01*
X94638857Y-75144380D01*
X94734095Y-75192000D01*
X94781714Y-75239619D01*
X94829333Y-75334857D01*
X94829333Y-75477714D01*
X94781714Y-75572952D01*
X94734095Y-75620571D01*
X94638857Y-75668190D01*
X94257904Y-75668190D01*
X95210285Y-75239619D02*
X95257904Y-75192000D01*
X95353142Y-75144380D01*
X95591238Y-75144380D01*
X95686476Y-75192000D01*
X95734095Y-75239619D01*
X95781714Y-75334857D01*
X95781714Y-75430095D01*
X95734095Y-75572952D01*
X95162666Y-76144380D01*
X95781714Y-76144380D01*
X107275333Y-69794380D02*
X106942000Y-69318190D01*
X106703904Y-69794380D02*
X106703904Y-68794380D01*
X107084857Y-68794380D01*
X107180095Y-68842000D01*
X107227714Y-68889619D01*
X107275333Y-68984857D01*
X107275333Y-69127714D01*
X107227714Y-69222952D01*
X107180095Y-69270571D01*
X107084857Y-69318190D01*
X106703904Y-69318190D01*
X107608666Y-68794380D02*
X108227714Y-68794380D01*
X107894380Y-69175333D01*
X108037238Y-69175333D01*
X108132476Y-69222952D01*
X108180095Y-69270571D01*
X108227714Y-69365809D01*
X108227714Y-69603904D01*
X108180095Y-69699142D01*
X108132476Y-69746761D01*
X108037238Y-69794380D01*
X107751523Y-69794380D01*
X107656285Y-69746761D01*
X107608666Y-69699142D01*
X114260380Y-85597904D02*
X115069904Y-85597904D01*
X115165142Y-85550285D01*
X115212761Y-85502666D01*
X115260380Y-85407428D01*
X115260380Y-85216952D01*
X115212761Y-85121714D01*
X115165142Y-85074095D01*
X115069904Y-85026476D01*
X114260380Y-85026476D01*
X114260380Y-84074095D02*
X114260380Y-84550285D01*
X114736571Y-84597904D01*
X114688952Y-84550285D01*
X114641333Y-84455047D01*
X114641333Y-84216952D01*
X114688952Y-84121714D01*
X114736571Y-84074095D01*
X114831809Y-84026476D01*
X115069904Y-84026476D01*
X115165142Y-84074095D01*
X115212761Y-84121714D01*
X115260380Y-84216952D01*
X115260380Y-84455047D01*
X115212761Y-84550285D01*
X115165142Y-84597904D01*
X138787142Y-68492666D02*
X138834761Y-68540285D01*
X138882380Y-68683142D01*
X138882380Y-68778380D01*
X138834761Y-68921238D01*
X138739523Y-69016476D01*
X138644285Y-69064095D01*
X138453809Y-69111714D01*
X138310952Y-69111714D01*
X138120476Y-69064095D01*
X138025238Y-69016476D01*
X137930000Y-68921238D01*
X137882380Y-68778380D01*
X137882380Y-68683142D01*
X137930000Y-68540285D01*
X137977619Y-68492666D01*
X138882380Y-67540285D02*
X138882380Y-68111714D01*
X138882380Y-67826000D02*
X137882380Y-67826000D01*
X138025238Y-67921238D01*
X138120476Y-68016476D01*
X138168095Y-68111714D01*
X142089142Y-84494666D02*
X142136761Y-84542285D01*
X142184380Y-84685142D01*
X142184380Y-84780380D01*
X142136761Y-84923238D01*
X142041523Y-85018476D01*
X141946285Y-85066095D01*
X141755809Y-85113714D01*
X141612952Y-85113714D01*
X141422476Y-85066095D01*
X141327238Y-85018476D01*
X141232000Y-84923238D01*
X141184380Y-84780380D01*
X141184380Y-84685142D01*
X141232000Y-84542285D01*
X141279619Y-84494666D01*
X141279619Y-84113714D02*
X141232000Y-84066095D01*
X141184380Y-83970857D01*
X141184380Y-83732761D01*
X141232000Y-83637523D01*
X141279619Y-83589904D01*
X141374857Y-83542285D01*
X141470095Y-83542285D01*
X141612952Y-83589904D01*
X142184380Y-84161333D01*
X142184380Y-83542285D01*
X140433466Y-108418380D02*
X140433466Y-109132666D01*
X140385847Y-109275523D01*
X140290609Y-109370761D01*
X140147752Y-109418380D01*
X140052514Y-109418380D01*
X140862038Y-108513619D02*
X140909657Y-108466000D01*
X141004895Y-108418380D01*
X141242990Y-108418380D01*
X141338228Y-108466000D01*
X141385847Y-108513619D01*
X141433466Y-108608857D01*
X141433466Y-108704095D01*
X141385847Y-108846952D01*
X140814419Y-109418380D01*
X141433466Y-109418380D01*
X132373619Y-106775238D02*
X132326000Y-106870476D01*
X132230761Y-106965714D01*
X132087904Y-107108571D01*
X132040285Y-107203809D01*
X132040285Y-107299047D01*
X132278380Y-107251428D02*
X132230761Y-107346666D01*
X132135523Y-107441904D01*
X131945047Y-107489523D01*
X131611714Y-107489523D01*
X131421238Y-107441904D01*
X131326000Y-107346666D01*
X131278380Y-107251428D01*
X131278380Y-107060952D01*
X131326000Y-106965714D01*
X131421238Y-106870476D01*
X131611714Y-106822857D01*
X131945047Y-106822857D01*
X132135523Y-106870476D01*
X132230761Y-106965714D01*
X132278380Y-107060952D01*
X132278380Y-107251428D01*
X131373619Y-106441904D02*
X131326000Y-106394285D01*
X131278380Y-106299047D01*
X131278380Y-106060952D01*
X131326000Y-105965714D01*
X131373619Y-105918095D01*
X131468857Y-105870476D01*
X131564095Y-105870476D01*
X131706952Y-105918095D01*
X132278380Y-106489523D01*
X132278380Y-105870476D01*
X107529333Y-75240380D02*
X107196000Y-74764190D01*
X106957904Y-75240380D02*
X106957904Y-74240380D01*
X107338857Y-74240380D01*
X107434095Y-74288000D01*
X107481714Y-74335619D01*
X107529333Y-74430857D01*
X107529333Y-74573714D01*
X107481714Y-74668952D01*
X107434095Y-74716571D01*
X107338857Y-74764190D01*
X106957904Y-74764190D01*
X108386476Y-74573714D02*
X108386476Y-75240380D01*
X108148380Y-74192761D02*
X107910285Y-74907047D01*
X108529333Y-74907047D01*
X132167333Y-113228380D02*
X131834000Y-112752190D01*
X131595904Y-113228380D02*
X131595904Y-112228380D01*
X131976857Y-112228380D01*
X132072095Y-112276000D01*
X132119714Y-112323619D01*
X132167333Y-112418857D01*
X132167333Y-112561714D01*
X132119714Y-112656952D01*
X132072095Y-112704571D01*
X131976857Y-112752190D01*
X131595904Y-112752190D01*
X133072095Y-112228380D02*
X132595904Y-112228380D01*
X132548285Y-112704571D01*
X132595904Y-112656952D01*
X132691142Y-112609333D01*
X132929238Y-112609333D01*
X133024476Y-112656952D01*
X133072095Y-112704571D01*
X133119714Y-112799809D01*
X133119714Y-113037904D01*
X133072095Y-113133142D01*
X133024476Y-113180761D01*
X132929238Y-113228380D01*
X132691142Y-113228380D01*
X132595904Y-113180761D01*
X132548285Y-113133142D01*
X80462571Y-82288071D02*
X80129238Y-82288071D01*
X80129238Y-82811880D02*
X80129238Y-81811880D01*
X80605428Y-81811880D01*
X80986380Y-82811880D02*
X80986380Y-81811880D01*
X81462571Y-82811880D02*
X81462571Y-81811880D01*
X81700666Y-81811880D01*
X81843523Y-81859500D01*
X81938761Y-81954738D01*
X81986380Y-82049976D01*
X82034000Y-82240452D01*
X82034000Y-82383309D01*
X81986380Y-82573785D01*
X81938761Y-82669023D01*
X81843523Y-82764261D01*
X81700666Y-82811880D01*
X81462571Y-82811880D01*
X82986380Y-82811880D02*
X82414952Y-82811880D01*
X82700666Y-82811880D02*
X82700666Y-81811880D01*
X82605428Y-81954738D01*
X82510190Y-82049976D01*
X82414952Y-82097595D01*
X85288571Y-107688071D02*
X84955238Y-107688071D01*
X84955238Y-108211880D02*
X84955238Y-107211880D01*
X85431428Y-107211880D01*
X85812380Y-108211880D02*
X85812380Y-107211880D01*
X86288571Y-108211880D02*
X86288571Y-107211880D01*
X86526666Y-107211880D01*
X86669523Y-107259500D01*
X86764761Y-107354738D01*
X86812380Y-107449976D01*
X86860000Y-107640452D01*
X86860000Y-107783309D01*
X86812380Y-107973785D01*
X86764761Y-108069023D01*
X86669523Y-108164261D01*
X86526666Y-108211880D01*
X86288571Y-108211880D01*
X87240952Y-107307119D02*
X87288571Y-107259500D01*
X87383809Y-107211880D01*
X87621904Y-107211880D01*
X87717142Y-107259500D01*
X87764761Y-107307119D01*
X87812380Y-107402357D01*
X87812380Y-107497595D01*
X87764761Y-107640452D01*
X87193333Y-108211880D01*
X87812380Y-108211880D01*
X118308571Y-111498071D02*
X117975238Y-111498071D01*
X117975238Y-112021880D02*
X117975238Y-111021880D01*
X118451428Y-111021880D01*
X118832380Y-112021880D02*
X118832380Y-111021880D01*
X119308571Y-112021880D02*
X119308571Y-111021880D01*
X119546666Y-111021880D01*
X119689523Y-111069500D01*
X119784761Y-111164738D01*
X119832380Y-111259976D01*
X119880000Y-111450452D01*
X119880000Y-111593309D01*
X119832380Y-111783785D01*
X119784761Y-111879023D01*
X119689523Y-111974261D01*
X119546666Y-112021880D01*
X119308571Y-112021880D01*
X120213333Y-111021880D02*
X120832380Y-111021880D01*
X120499047Y-111402833D01*
X120641904Y-111402833D01*
X120737142Y-111450452D01*
X120784761Y-111498071D01*
X120832380Y-111593309D01*
X120832380Y-111831404D01*
X120784761Y-111926642D01*
X120737142Y-111974261D01*
X120641904Y-112021880D01*
X120356190Y-112021880D01*
X120260952Y-111974261D01*
X120213333Y-111926642D01*
M02*
