%TF.GenerationSoftware,KiCad,Pcbnew,(6.0.4)*%
%TF.CreationDate,2022-07-22T13:04:17+03:00*%
%TF.ProjectId,shiled_v2,7368696c-6564-45f7-9632-2e6b69636164,rev?*%
%TF.SameCoordinates,Original*%
%TF.FileFunction,Other,User*%
%FSLAX46Y46*%
G04 Gerber Fmt 4.6, Leading zero omitted, Abs format (unit mm)*
G04 Created by KiCad (PCBNEW (6.0.4)) date 2022-07-22 13:04:17*
%MOMM*%
%LPD*%
G01*
G04 APERTURE LIST*
%TA.AperFunction,Profile*%
%ADD10C,0.100000*%
%TD*%
%ADD11C,0.100000*%
%ADD12C,0.050000*%
G04 APERTURE END LIST*
D10*
X143546356Y-113817611D02*
X143546356Y-63817611D01*
X78546356Y-63817611D02*
X78546356Y-113817611D01*
X140546356Y-116817611D02*
G75*
G03*
X143546356Y-113817611I37J2999963D01*
G01*
X140546356Y-60817611D02*
X81546356Y-60817611D01*
X81546356Y-116817611D02*
X140546356Y-116817611D01*
X143546389Y-63817611D02*
G75*
G03*
X140546356Y-60817611I-2999989J11D01*
G01*
X81546356Y-60817556D02*
G75*
G03*
X78546356Y-63817611I44J-3000044D01*
G01*
X78546389Y-113817611D02*
G75*
G03*
X81546356Y-116817611I3000011J11D01*
G01*
D11*
X85535000Y-105640600D02*
X93535000Y-105640600D01*
X93535000Y-105640600D02*
X93535000Y-112040600D01*
X93535000Y-112040600D02*
X85535000Y-112040600D01*
X85535000Y-112040600D02*
X85535000Y-105640600D01*
D12*
X79404600Y-107177800D02*
X83104600Y-107177800D01*
X83104600Y-109077800D02*
X79404600Y-109077800D01*
X79404600Y-109077800D02*
X79404600Y-107177800D01*
X83104600Y-107177800D02*
X83104600Y-109077800D01*
X83104600Y-106995000D02*
X79404600Y-106995000D01*
X79404600Y-105095000D02*
X83104600Y-105095000D01*
X83104600Y-105095000D02*
X83104600Y-106995000D01*
X79404600Y-106995000D02*
X79404600Y-105095000D01*
X83990800Y-71437000D02*
X86290800Y-71437000D01*
X83990800Y-76137000D02*
X83990800Y-71437000D01*
X86290800Y-71437000D02*
X86290800Y-76137000D01*
X83990800Y-76137000D02*
X86290800Y-76137000D01*
X101660200Y-84946200D02*
X101660200Y-82846200D01*
X97120200Y-84946200D02*
X101660200Y-84946200D01*
X101660200Y-82846200D02*
X97120200Y-82846200D01*
X97120200Y-82846200D02*
X97120200Y-84946200D01*
X93895200Y-85633600D02*
X95995200Y-85633600D01*
X93895200Y-81093600D02*
X93895200Y-85633600D01*
X95995200Y-85633600D02*
X95995200Y-81093600D01*
X95995200Y-81093600D02*
X93895200Y-81093600D01*
X83276400Y-109317400D02*
X83276400Y-105617400D01*
X85176400Y-105617400D02*
X85176400Y-109317400D01*
X85176400Y-109317400D02*
X83276400Y-109317400D01*
X83276400Y-105617400D02*
X85176400Y-105617400D01*
X101241000Y-69990000D02*
X101241000Y-74790000D01*
X97641000Y-69990000D02*
X101241000Y-69990000D01*
X101241000Y-74790000D02*
X97641000Y-74790000D01*
X97641000Y-74790000D02*
X97641000Y-69990000D01*
X96288000Y-70137000D02*
X96288000Y-74897000D01*
X96288000Y-70137000D02*
X92688000Y-70137000D01*
X92688000Y-74897000D02*
X92688000Y-70137000D01*
X92688000Y-74897000D02*
X96288000Y-74897000D01*
X110901600Y-82412800D02*
X110901600Y-84312800D01*
X107201600Y-84312800D02*
X107201600Y-82412800D01*
X110901600Y-84312800D02*
X107201600Y-84312800D01*
X107201600Y-82412800D02*
X110901600Y-82412800D01*
X103112600Y-82409400D02*
X106812600Y-82409400D01*
X106812600Y-84309400D02*
X103112600Y-84309400D01*
X103112600Y-84309400D02*
X103112600Y-82409400D01*
X106812600Y-82409400D02*
X106812600Y-84309400D01*
X98491000Y-79066000D02*
X98491000Y-75366000D01*
X100391000Y-75366000D02*
X100391000Y-79066000D01*
X100391000Y-79066000D02*
X98491000Y-79066000D01*
X98491000Y-75366000D02*
X100391000Y-75366000D01*
X97846000Y-77023000D02*
X94146000Y-77023000D01*
X94146000Y-75123000D02*
X97846000Y-75123000D01*
X97846000Y-75123000D02*
X97846000Y-77023000D01*
X94146000Y-77023000D02*
X94146000Y-75123000D01*
X94178000Y-77282000D02*
X97878000Y-77282000D01*
X97878000Y-79182000D02*
X94178000Y-79182000D01*
X94178000Y-79182000D02*
X94178000Y-77282000D01*
X97878000Y-77282000D02*
X97878000Y-79182000D01*
X86785000Y-67939000D02*
X86785000Y-73539000D01*
X92285000Y-73539000D02*
X92285000Y-67939000D01*
X86785000Y-73539000D02*
X92285000Y-73539000D01*
X92285000Y-67939000D02*
X86785000Y-67939000D01*
X83080000Y-76954000D02*
X83080000Y-68304000D01*
X79480000Y-76954000D02*
X83080000Y-76954000D01*
X83080000Y-68304000D02*
X79480000Y-68304000D01*
X79480000Y-68304000D02*
X79480000Y-76954000D01*
X83080000Y-86225000D02*
X83080000Y-77575000D01*
X79480000Y-86225000D02*
X83080000Y-86225000D01*
X83080000Y-77575000D02*
X79480000Y-77575000D01*
X79480000Y-77575000D02*
X79480000Y-86225000D01*
X89274000Y-73723000D02*
X91574000Y-73723000D01*
X89274000Y-78423000D02*
X89274000Y-73723000D01*
X91574000Y-73723000D02*
X91574000Y-78423000D01*
X89274000Y-78423000D02*
X91574000Y-78423000D01*
X83432000Y-79819000D02*
X85732000Y-79819000D01*
X83432000Y-84519000D02*
X83432000Y-79819000D01*
X85732000Y-79819000D02*
X85732000Y-84519000D01*
X83432000Y-84519000D02*
X85732000Y-84519000D01*
X91857000Y-78969000D02*
X91857000Y-75209000D01*
X93817000Y-78969000D02*
X91857000Y-78969000D01*
X91857000Y-75209000D02*
X93817000Y-75209000D01*
X93817000Y-75209000D02*
X93817000Y-78969000D01*
X92735000Y-67854000D02*
X96495000Y-67854000D01*
X92735000Y-69814000D02*
X92735000Y-67854000D01*
X96495000Y-67854000D02*
X96495000Y-69814000D01*
X96495000Y-69814000D02*
X92735000Y-69814000D01*
X95976000Y-110388000D02*
X95976000Y-114148000D01*
X94016000Y-110388000D02*
X95976000Y-110388000D01*
X95976000Y-114148000D02*
X94016000Y-114148000D01*
X94016000Y-114148000D02*
X94016000Y-110388000D01*
X125320200Y-74476200D02*
X119170200Y-74476200D01*
X119170200Y-78076200D02*
X125320200Y-78076200D01*
X119170200Y-74476200D02*
X119170200Y-78076200D01*
X125320200Y-78076200D02*
X125320200Y-74476200D01*
X98973000Y-95065000D02*
G75*
G03*
X98973000Y-95065000I-9750000J0D01*
G01*
X131582600Y-68605000D02*
X133542600Y-68605000D01*
X131582600Y-72365000D02*
X131582600Y-68605000D01*
X133542600Y-72365000D02*
X131582600Y-72365000D01*
X133542600Y-68605000D02*
X133542600Y-72365000D01*
X128056200Y-76505200D02*
X126096200Y-76505200D01*
X126096200Y-72745200D02*
X128056200Y-72745200D01*
X128056200Y-72745200D02*
X128056200Y-76505200D01*
X126096200Y-76505200D02*
X126096200Y-72745200D01*
X132552400Y-84730200D02*
X132552400Y-81030200D01*
X132552400Y-81030200D02*
X134452400Y-81030200D01*
X134452400Y-81030200D02*
X134452400Y-84730200D01*
X134452400Y-84730200D02*
X132552400Y-84730200D01*
X86077200Y-84899000D02*
X86077200Y-79439000D01*
X91137200Y-79439000D02*
X91137200Y-84899000D01*
X86077200Y-84899000D02*
X91137200Y-84899000D01*
X91137200Y-79439000D02*
X86077200Y-79439000D01*
X119954000Y-70175000D02*
X121854000Y-70175000D01*
X119954000Y-73875000D02*
X119954000Y-70175000D01*
X121854000Y-70175000D02*
X121854000Y-73875000D01*
X121854000Y-73875000D02*
X119954000Y-73875000D01*
X109789000Y-116169000D02*
X120589000Y-116169000D01*
X120589000Y-105319000D02*
X109789000Y-105319000D01*
X109789000Y-105319000D02*
X109789000Y-116169000D01*
X120589000Y-116169000D02*
X120589000Y-105319000D01*
X93958000Y-105515000D02*
X93958000Y-109115000D01*
X93958000Y-109115000D02*
X97558000Y-109115000D01*
X97558000Y-105515000D02*
X93958000Y-105515000D01*
X97558000Y-109115000D02*
X97558000Y-105515000D01*
X136616000Y-81000200D02*
X136616000Y-84760200D01*
X134656000Y-81000200D02*
X136616000Y-81000200D01*
X134656000Y-84760200D02*
X134656000Y-81000200D01*
X136616000Y-84760200D02*
X134656000Y-84760200D01*
X127467600Y-72185000D02*
X131307600Y-72185000D01*
X131307600Y-68785000D02*
X127467600Y-68785000D01*
X127467600Y-68785000D02*
X127467600Y-72185000D01*
X131307600Y-72185000D02*
X131307600Y-68785000D01*
X140121000Y-94938000D02*
G75*
G03*
X140121000Y-94938000I-9750000J0D01*
G01*
X119191400Y-72044600D02*
X115491400Y-72044600D01*
X115491400Y-70144600D02*
X119191400Y-70144600D01*
X119191400Y-70144600D02*
X119191400Y-72044600D01*
X115491400Y-72044600D02*
X115491400Y-70144600D01*
X103839400Y-72557600D02*
X107539400Y-72557600D01*
X107539400Y-74457600D02*
X103839400Y-74457600D01*
X103839400Y-74457600D02*
X103839400Y-72557600D01*
X107539400Y-72557600D02*
X107539400Y-74457600D01*
X122442900Y-78282400D02*
X124402900Y-78282400D01*
X122442900Y-82042400D02*
X122442900Y-78282400D01*
X124402900Y-82042400D02*
X122442900Y-82042400D01*
X124402900Y-78282400D02*
X124402900Y-82042400D01*
X120263100Y-78290900D02*
X122163100Y-78290900D01*
X122163100Y-78290900D02*
X122163100Y-81990900D01*
X120263100Y-81990900D02*
X120263100Y-78290900D01*
X122163100Y-81990900D02*
X120263100Y-81990900D01*
X128179000Y-72745200D02*
X130139000Y-72745200D01*
X130139000Y-76505200D02*
X128179000Y-76505200D01*
X128179000Y-76505200D02*
X128179000Y-72745200D01*
X130139000Y-72745200D02*
X130139000Y-76505200D01*
X125117000Y-110341000D02*
X121517000Y-110341000D01*
X121517000Y-110341000D02*
X121517000Y-113941000D01*
X125117000Y-113941000D02*
X125117000Y-110341000D01*
X121517000Y-113941000D02*
X125117000Y-113941000D01*
X119351000Y-95250000D02*
G75*
G03*
X119351000Y-95250000I-9750000J0D01*
G01*
X124739000Y-79741200D02*
X128499000Y-79741200D01*
X124739000Y-81701200D02*
X124739000Y-79741200D01*
X128499000Y-81701200D02*
X124739000Y-81701200D01*
X128499000Y-79741200D02*
X128499000Y-81701200D01*
X124781100Y-83754000D02*
X124781100Y-81854000D01*
X128481100Y-81854000D02*
X128481100Y-83754000D01*
X128481100Y-83754000D02*
X124781100Y-83754000D01*
X124781100Y-81854000D02*
X128481100Y-81854000D01*
X113253200Y-74270000D02*
X113253200Y-70510000D01*
X115213200Y-74270000D02*
X113253200Y-74270000D01*
X113253200Y-70510000D02*
X115213200Y-70510000D01*
X115213200Y-70510000D02*
X115213200Y-74270000D01*
X118964400Y-80227800D02*
X118964400Y-72527800D01*
X118964400Y-72527800D02*
X115464400Y-72527800D01*
X115464400Y-80227800D02*
X118964400Y-80227800D01*
X115464400Y-72527800D02*
X115464400Y-80227800D01*
X125512000Y-105471000D02*
X125512000Y-116271000D01*
X136362000Y-116271000D02*
X136362000Y-105471000D01*
X136362000Y-105471000D02*
X125512000Y-105471000D01*
X125512000Y-116271000D02*
X136362000Y-116271000D01*
X121390000Y-108734000D02*
X124990000Y-108734000D01*
X124990000Y-108734000D02*
X124990000Y-105134000D01*
X121390000Y-105134000D02*
X121390000Y-108734000D01*
X124990000Y-105134000D02*
X121390000Y-105134000D01*
X140734400Y-72677800D02*
X130334400Y-72677800D01*
X140734400Y-80077800D02*
X140734400Y-72677800D01*
X130334400Y-72677800D02*
X130334400Y-80077800D01*
X130334400Y-80077800D02*
X140734400Y-80077800D01*
X108549000Y-105344000D02*
X97699000Y-105344000D01*
X108549000Y-116144000D02*
X108549000Y-105344000D01*
X97699000Y-105344000D02*
X97699000Y-116144000D01*
X97699000Y-116144000D02*
X108549000Y-116144000D01*
X118216800Y-69911000D02*
X114516800Y-69911000D01*
X118216800Y-68011000D02*
X118216800Y-69911000D01*
X114516800Y-68011000D02*
X118216800Y-68011000D01*
X114516800Y-69911000D02*
X114516800Y-68011000D01*
X124018000Y-74113000D02*
X124018000Y-70413000D01*
X125918000Y-74113000D02*
X124018000Y-74113000D01*
X124018000Y-70413000D02*
X125918000Y-70413000D01*
X125918000Y-70413000D02*
X125918000Y-74113000D01*
X114747600Y-80981600D02*
X102247600Y-80981600D01*
X102247600Y-74981600D02*
X114747600Y-74981600D01*
X114747600Y-74981600D02*
X114747600Y-80981600D01*
X102247600Y-80981600D02*
X102247600Y-74981600D01*
X90269000Y-114173000D02*
G75*
G03*
X90269000Y-114173000I-1750000J0D01*
G01*
M02*
