M48
; DRILL file {KiCad (6.0.4)} date Fri Jul 22 13:04:20 2022
; FORMAT={-:-/ absolute / metric / decimal}
; #@! TF.CreationDate,2022-07-22T13:04:20+03:00
; #@! TF.GenerationSoftware,Kicad,Pcbnew,(6.0.4)
; #@! TF.FileFunction,Plated,1,2,PTH
FMAT,2
METRIC
; #@! TA.AperFunction,Plated,PTH,ViaDrill
T1C0.200
; #@! TA.AperFunction,Plated,PTH,ViaDrill
T2C0.500
; #@! TA.AperFunction,Plated,PTH,ComponentDrill
T3C0.700
; #@! TA.AperFunction,Plated,PTH,ComponentDrill
T4C0.750
; #@! TA.AperFunction,Plated,PTH,ComponentDrill
T5C0.800
; #@! TA.AperFunction,Plated,PTH,ComponentDrill
T6C1.000
; #@! TA.AperFunction,Plated,PTH,ComponentDrill
T7C1.300
%
G90
G05
T1
X80.899Y-109.601
X82.779Y-78.41
X82.829Y-79.781
X82.855Y-73.787
X82.855Y-76.81
X83.388Y-79.756
X83.414Y-78.41
X83.439Y-76.784
X83.49Y-73.762
X84.557Y-73.685
X84.709Y-70.993
X84.87Y-78.274
X85.623Y-77.521
X85.649Y-73.711
X85.725Y-78.435
X86.233Y-72.187
X91.237Y-76.048
X94.132Y-72.619
X94.996Y-114.452
X96.647Y-69.875
X99.771Y-69.698
X101.676Y-76.606
X101.676Y-77.876
X101.702Y-79.644
X101.702Y-81.043
X113.97Y-70.155
X115.57Y-81.204
X118.796Y-81.153
X123.038Y-82.88
X125.578Y-79.477
X127.076Y-76.759
X129.159Y-76.784
X130.327Y-68.504
X132.436Y-67.522
X133.384Y-66.777
X133.604Y-75.362
X133.782Y-69.469
X133.985Y-72.365
X135.458Y-70.155
X135.865Y-68.123
X136.652Y-68.936
X136.982Y-83.922
X137.262Y-69.596
X137.376Y-67.513
X139.979Y-72.187
X139.979Y-75.311
T2
X116.027Y-75.463
X118.059Y-75.463
T3
X94.945Y-82.144
X94.945Y-84.684
X98.17Y-83.896
X100.71Y-83.896
T4
X88.087Y-80.854
X88.087Y-83.504
X89.838Y-82.169
T5
X104.688Y-77.982
X107.228Y-77.982
X109.768Y-77.982
X112.308Y-77.982
T6
X81.28Y-70.104
X81.28Y-72.644
X81.28Y-75.184
X81.28Y-79.375
X81.28Y-81.915
X81.28Y-84.455
X84.473Y-95.065
X85.863Y-91.705
X85.863Y-98.425
X86.92Y-63.05
X86.92Y-65.59
X89.46Y-63.05
X89.46Y-65.59
X92.0Y-63.05
X92.0Y-65.59
X92.583Y-91.705
X92.583Y-98.425
X93.973Y-95.065
X94.54Y-63.05
X94.54Y-65.59
X95.758Y-107.315
X97.08Y-63.05
X97.08Y-65.59
X99.62Y-63.05
X99.62Y-65.59
X102.16Y-63.05
X102.16Y-65.59
X104.7Y-63.05
X104.7Y-65.59
X104.851Y-95.25
X106.241Y-91.89
X106.241Y-98.61
X107.24Y-63.05
X107.24Y-65.59
X109.78Y-63.05
X109.78Y-65.59
X112.32Y-63.05
X112.32Y-65.59
X112.961Y-91.89
X112.961Y-98.61
X114.351Y-95.25
X114.86Y-63.05
X114.86Y-65.59
X117.4Y-63.05
X117.4Y-65.59
X119.94Y-63.05
X119.94Y-65.59
X120.98Y-76.276
X122.48Y-63.05
X122.48Y-65.59
X123.19Y-106.934
X123.317Y-112.141
X123.52Y-76.276
X125.02Y-63.05
X125.02Y-65.59
X125.621Y-94.938
X127.011Y-91.578
X127.011Y-98.298
X127.56Y-63.05
X127.56Y-65.59
X130.1Y-63.05
X130.1Y-65.59
X132.64Y-63.05
X132.64Y-65.59
X133.731Y-91.578
X133.731Y-98.298
X135.121Y-94.938
X135.18Y-63.05
X135.18Y-65.59
T7
X100.649Y-108.244
X103.149Y-113.244
X105.649Y-108.244
X112.689Y-110.769
X117.689Y-108.269
X117.689Y-113.269
X128.462Y-108.371
X130.962Y-113.371
X133.462Y-108.371
T0
M30
