%TF.GenerationSoftware,KiCad,Pcbnew,(6.0.4)*%
%TF.CreationDate,2022-07-22T13:04:17+03:00*%
%TF.ProjectId,shiled_v2,7368696c-6564-45f7-9632-2e6b69636164,rev?*%
%TF.SameCoordinates,Original*%
%TF.FileFunction,Legend,Bot*%
%TF.FilePolarity,Positive*%
%FSLAX46Y46*%
G04 Gerber Fmt 4.6, Leading zero omitted, Abs format (unit mm)*
G04 Created by KiCad (PCBNEW (6.0.4)) date 2022-07-22 13:04:17*
%MOMM*%
%LPD*%
G01*
G04 APERTURE LIST*
G04 Aperture macros list*
%AMRoundRect*
0 Rectangle with rounded corners*
0 $1 Rounding radius*
0 $2 $3 $4 $5 $6 $7 $8 $9 X,Y pos of 4 corners*
0 Add a 4 corners polygon primitive as box body*
4,1,4,$2,$3,$4,$5,$6,$7,$8,$9,$2,$3,0*
0 Add four circle primitives for the rounded corners*
1,1,$1+$1,$2,$3*
1,1,$1+$1,$4,$5*
1,1,$1+$1,$6,$7*
1,1,$1+$1,$8,$9*
0 Add four rect primitives between the rounded corners*
20,1,$1+$1,$2,$3,$4,$5,0*
20,1,$1+$1,$4,$5,$6,$7,0*
20,1,$1+$1,$6,$7,$8,$9,0*
20,1,$1+$1,$8,$9,$2,$3,0*%
G04 Aperture macros list end*
%TA.AperFunction,Profile*%
%ADD10C,0.100000*%
%TD*%
%ADD11C,0.150000*%
%ADD12C,0.010000*%
%ADD13C,0.120000*%
%ADD14C,1.400000*%
%ADD15O,1.400000X1.400000*%
%ADD16R,1.700000X1.700000*%
%ADD17O,1.700000X1.700000*%
%ADD18C,1.500000*%
%ADD19C,3.000000*%
%ADD20R,2.000000X2.000000*%
%ADD21C,2.000000*%
%ADD22R,1.800000X1.100000*%
%ADD23RoundRect,0.275000X-0.625000X0.275000X-0.625000X-0.275000X0.625000X-0.275000X0.625000X0.275000X0*%
%ADD24C,2.340000*%
%ADD25R,1.500000X1.500000*%
%ADD26R,1.300000X1.300000*%
G04 APERTURE END LIST*
D10*
X143546356Y-113817611D02*
X143546356Y-63817611D01*
X78546356Y-63817611D02*
X78546356Y-113817611D01*
X140546356Y-116817611D02*
G75*
G03*
X143546356Y-113817611I37J2999963D01*
G01*
X140546356Y-60817611D02*
X81546356Y-60817611D01*
X81546356Y-116817611D02*
X140546356Y-116817611D01*
X143546389Y-63817611D02*
G75*
G03*
X140546356Y-60817611I-2999989J11D01*
G01*
X81546356Y-60817556D02*
G75*
G03*
X78546356Y-63817611I44J-3000044D01*
G01*
X78546389Y-113817611D02*
G75*
G03*
X81546356Y-116817611I3000011J11D01*
G01*
D11*
X83602380Y-63986666D02*
X84316666Y-63986666D01*
X84459523Y-63939047D01*
X84554761Y-63843809D01*
X84602380Y-63700952D01*
X84602380Y-63605714D01*
X84602380Y-64986666D02*
X84602380Y-64415238D01*
X84602380Y-64700952D02*
X83602380Y-64700952D01*
X83745238Y-64605714D01*
X83840476Y-64510476D01*
X83888095Y-64415238D01*
G36*
X142742971Y-107157822D02*
G01*
X139222178Y-107157822D01*
X139222178Y-106290198D01*
X142742971Y-106290198D01*
X142742971Y-107157822D01*
G37*
D12*
X142742971Y-107157822D02*
X139222178Y-107157822D01*
X139222178Y-106290198D01*
X142742971Y-106290198D01*
X142742971Y-107157822D01*
G36*
X141981662Y-101900696D02*
G01*
X142021314Y-101901782D01*
X142089109Y-101901782D01*
X142089109Y-102014951D01*
X141929577Y-102014951D01*
X141914682Y-102192732D01*
X141912682Y-102217037D01*
X141908023Y-102277880D01*
X141904731Y-102327389D01*
X141903092Y-102360992D01*
X141903390Y-102374116D01*
X141907724Y-102370343D01*
X141927496Y-102350676D01*
X141961679Y-102315818D01*
X142008541Y-102267576D01*
X142066354Y-102207757D01*
X142133387Y-102138167D01*
X142207912Y-102060615D01*
X142288197Y-101976907D01*
X142372513Y-101888849D01*
X142459130Y-101798250D01*
X142546319Y-101706915D01*
X142632349Y-101616653D01*
X142715492Y-101529269D01*
X142794016Y-101446572D01*
X142866192Y-101370368D01*
X142930291Y-101302463D01*
X142984583Y-101244666D01*
X143081592Y-101141040D01*
X143082034Y-101229315D01*
X143082475Y-101317589D01*
X142481938Y-101949158D01*
X141881401Y-102580726D01*
X141869396Y-102724674D01*
X141821365Y-103300635D01*
X141812876Y-103402791D01*
X141802343Y-103530612D01*
X141792621Y-103649767D01*
X141783898Y-103757914D01*
X141776358Y-103852713D01*
X141770187Y-103931819D01*
X141765573Y-103992892D01*
X141762700Y-104033590D01*
X141761754Y-104051570D01*
X141764251Y-104059808D01*
X141775471Y-104077599D01*
X141796751Y-104104411D01*
X141807021Y-104116129D01*
X141829225Y-104141466D01*
X141874023Y-104189986D01*
X141932281Y-104251192D01*
X142005129Y-104326307D01*
X142093703Y-104416550D01*
X142199134Y-104523145D01*
X142268492Y-104593093D01*
X142365179Y-104690658D01*
X142461526Y-104787941D01*
X142554638Y-104882014D01*
X142641618Y-104969950D01*
X142719569Y-105048820D01*
X142785596Y-105115699D01*
X142836802Y-105167658D01*
X143037514Y-105371620D01*
X143001058Y-105409671D01*
X142992460Y-105418245D01*
X142967095Y-105439297D01*
X142949695Y-105447723D01*
X142936071Y-105440530D01*
X142910743Y-105418944D01*
X142880379Y-105387995D01*
X142861896Y-105368448D01*
X142827427Y-105332752D01*
X142778712Y-105282684D01*
X142717469Y-105220001D01*
X142645420Y-105146457D01*
X142564285Y-105063810D01*
X142475784Y-104973815D01*
X142381637Y-104878228D01*
X142283565Y-104778805D01*
X141741161Y-104229343D01*
X141719066Y-104514746D01*
X141714250Y-104575662D01*
X141707216Y-104657548D01*
X141700872Y-104719569D01*
X141694748Y-104764987D01*
X141688373Y-104797062D01*
X141681277Y-104819052D01*
X141672991Y-104834219D01*
X141661393Y-104855416D01*
X141651850Y-104894386D01*
X141649010Y-104950531D01*
X141649010Y-105032773D01*
X141422674Y-105032773D01*
X141422674Y-104856733D01*
X140577082Y-104856733D01*
X140528203Y-104912262D01*
X140514836Y-104926722D01*
X140442388Y-104984813D01*
X140360532Y-105020576D01*
X140271900Y-105032773D01*
X140193692Y-105026306D01*
X140105233Y-104999047D01*
X140029507Y-104950328D01*
X140014748Y-104936403D01*
X139977864Y-104891328D01*
X139945503Y-104838819D01*
X139922297Y-104787061D01*
X139912879Y-104744239D01*
X139912697Y-104738023D01*
X139911342Y-104715246D01*
X139907800Y-104699513D01*
X139900390Y-104692068D01*
X139887431Y-104694156D01*
X139867243Y-104707020D01*
X139838145Y-104731905D01*
X139798456Y-104770053D01*
X139746496Y-104822710D01*
X139680584Y-104891119D01*
X139599040Y-104976524D01*
X139555604Y-105022112D01*
X139483000Y-105098441D01*
X139414309Y-105170808D01*
X139352223Y-105236366D01*
X139299434Y-105292274D01*
X139258634Y-105335686D01*
X139232515Y-105363758D01*
X139161119Y-105441436D01*
X139072863Y-105353416D01*
X139618690Y-104781287D01*
X139653105Y-104745188D01*
X139775546Y-104616272D01*
X139880651Y-104504754D01*
X139968736Y-104410288D01*
X140040116Y-104332529D01*
X140090588Y-104276174D01*
X140297247Y-104276174D01*
X140298872Y-104289434D01*
X140299156Y-104290819D01*
X140312698Y-104322228D01*
X140339748Y-104336863D01*
X140423129Y-104368063D01*
X140497418Y-104420038D01*
X140555846Y-104488791D01*
X140595890Y-104571315D01*
X140615026Y-104664606D01*
X140621364Y-104743565D01*
X141570838Y-104743565D01*
X141577458Y-104715273D01*
X141578629Y-104708329D01*
X141582268Y-104677281D01*
X141587234Y-104627081D01*
X141593157Y-104561727D01*
X141599669Y-104485219D01*
X141606401Y-104401555D01*
X141628724Y-104116129D01*
X141327826Y-103810565D01*
X141272636Y-103754704D01*
X141205109Y-103686888D01*
X141144529Y-103626643D01*
X141093021Y-103576052D01*
X141052710Y-103537200D01*
X141025722Y-103512170D01*
X141014182Y-103503046D01*
X141006444Y-103507405D01*
X140983395Y-103527241D01*
X140948709Y-103560375D01*
X140905487Y-103603820D01*
X140856832Y-103654587D01*
X140844140Y-103668051D01*
X140787229Y-103728275D01*
X140719414Y-103799864D01*
X140645800Y-103877437D01*
X140571493Y-103955611D01*
X140501599Y-104029005D01*
X140497401Y-104033409D01*
X140432420Y-104101785D01*
X140382836Y-104154732D01*
X140346688Y-104194767D01*
X140322016Y-104224411D01*
X140306858Y-104246181D01*
X140299256Y-104262595D01*
X140297247Y-104276174D01*
X140090588Y-104276174D01*
X140095105Y-104271131D01*
X140134019Y-104225748D01*
X140157173Y-104196035D01*
X140164882Y-104181644D01*
X140164883Y-104181559D01*
X140163825Y-104163624D01*
X140160737Y-104123421D01*
X140155858Y-104063687D01*
X140149432Y-103987158D01*
X140141700Y-103896569D01*
X140132905Y-103794657D01*
X140123287Y-103684159D01*
X140113091Y-103567811D01*
X140102556Y-103448348D01*
X140091926Y-103328507D01*
X140081442Y-103211025D01*
X140071346Y-103098637D01*
X140061881Y-102994081D01*
X140053288Y-102900091D01*
X140045809Y-102819405D01*
X140039687Y-102754759D01*
X140035162Y-102708888D01*
X140032478Y-102684530D01*
X140027067Y-102643732D01*
X140156253Y-102643732D01*
X140157908Y-102674653D01*
X140161549Y-102726653D01*
X140166995Y-102797487D01*
X140174063Y-102884911D01*
X140182570Y-102986681D01*
X140192335Y-103100552D01*
X140203174Y-103224279D01*
X140214907Y-103355618D01*
X140224079Y-103456908D01*
X140235566Y-103582526D01*
X140246322Y-103698762D01*
X140256131Y-103803380D01*
X140264781Y-103894140D01*
X140272057Y-103968804D01*
X140277746Y-104025134D01*
X140281634Y-104060891D01*
X140283506Y-104073837D01*
X140289188Y-104069826D01*
X140310020Y-104050138D01*
X140343872Y-104016322D01*
X140388412Y-103970837D01*
X140441310Y-103916146D01*
X140500236Y-103854710D01*
X140562858Y-103788990D01*
X140626848Y-103721449D01*
X140689874Y-103654547D01*
X140749606Y-103590746D01*
X140803713Y-103532507D01*
X140849865Y-103482292D01*
X140885733Y-103442563D01*
X140908984Y-103415780D01*
X140915778Y-103406477D01*
X141097601Y-103406477D01*
X141373305Y-103681968D01*
X141440726Y-103749224D01*
X141504267Y-103812162D01*
X141553490Y-103860100D01*
X141590196Y-103894594D01*
X141616190Y-103917199D01*
X141633276Y-103929471D01*
X141643256Y-103932966D01*
X141647935Y-103929238D01*
X141649116Y-103919844D01*
X141649873Y-103904749D01*
X141652601Y-103865883D01*
X141657108Y-103806895D01*
X141663179Y-103730473D01*
X141670596Y-103639305D01*
X141679142Y-103536080D01*
X141688602Y-103423483D01*
X141698758Y-103304205D01*
X141707723Y-103199077D01*
X141717066Y-103088351D01*
X141725443Y-102987814D01*
X141732653Y-102899943D01*
X141738496Y-102827215D01*
X141742769Y-102772110D01*
X141745273Y-102737104D01*
X141745805Y-102724674D01*
X141745384Y-102724908D01*
X141733509Y-102736350D01*
X141707130Y-102763198D01*
X141668570Y-102803018D01*
X141620153Y-102853372D01*
X141564203Y-102911828D01*
X141503042Y-102975948D01*
X141438995Y-103043298D01*
X141374385Y-103111443D01*
X141311535Y-103177948D01*
X141252768Y-103240377D01*
X141200409Y-103296295D01*
X141099533Y-103404406D01*
X141097601Y-103406477D01*
X140915778Y-103406477D01*
X140917290Y-103404406D01*
X140909148Y-103393383D01*
X140885478Y-103366999D01*
X140848478Y-103327527D01*
X140800350Y-103277191D01*
X140743296Y-103218217D01*
X140679520Y-103152830D01*
X140611222Y-103083255D01*
X140540605Y-103011716D01*
X140469871Y-102940438D01*
X140401222Y-102871647D01*
X140336861Y-102807566D01*
X140278989Y-102750422D01*
X140229810Y-102702439D01*
X140191524Y-102665841D01*
X140166334Y-102642854D01*
X140156442Y-102635703D01*
X140156253Y-102643732D01*
X140027067Y-102643732D01*
X140025390Y-102631089D01*
X139750297Y-102631089D01*
X139750140Y-102530495D01*
X139850891Y-102530495D01*
X139932624Y-102530495D01*
X139939895Y-102530489D01*
X139980950Y-102529613D01*
X140003277Y-102525867D01*
X140012529Y-102517270D01*
X140014357Y-102501840D01*
X140006306Y-102479159D01*
X139978730Y-102441428D01*
X139932624Y-102392179D01*
X139850891Y-102311172D01*
X139850891Y-102530495D01*
X139750140Y-102530495D01*
X139749968Y-102420471D01*
X139749639Y-102209852D01*
X139297914Y-101750891D01*
X138846189Y-101291931D01*
X138845570Y-101204848D01*
X138844951Y-101117767D01*
X139386769Y-101666952D01*
X139439137Y-101719998D01*
X139547803Y-101829772D01*
X139640709Y-101923114D01*
X139719055Y-102001173D01*
X139784043Y-102065097D01*
X139836872Y-102116035D01*
X139878743Y-102155135D01*
X139910855Y-102183548D01*
X139934410Y-102202420D01*
X139950608Y-102212901D01*
X139960649Y-102216139D01*
X139977579Y-102215158D01*
X139987084Y-102207996D01*
X139988723Y-102188401D01*
X139984782Y-102150124D01*
X139982065Y-102126025D01*
X139978284Y-102085744D01*
X139976760Y-102058961D01*
X139976015Y-102049728D01*
X139968746Y-102039839D01*
X139948668Y-102036562D01*
X139909689Y-102037992D01*
X139899737Y-102038553D01*
X139859898Y-102037921D01*
X139831560Y-102029167D01*
X139811586Y-102014951D01*
X140094852Y-102014951D01*
X140099013Y-102062104D01*
X140100935Y-102083498D01*
X140106924Y-102141909D01*
X140112826Y-102180381D01*
X140119727Y-102202912D01*
X140128712Y-102213498D01*
X140140870Y-102216139D01*
X140151801Y-102217937D01*
X140159050Y-102226530D01*
X140163100Y-102246505D01*
X140164863Y-102282450D01*
X140165248Y-102338952D01*
X140165248Y-102461766D01*
X140205447Y-102501840D01*
X140303565Y-102599654D01*
X140441881Y-102737542D01*
X140441881Y-102631089D01*
X141196337Y-102631089D01*
X141196337Y-102870000D01*
X140577831Y-102870000D01*
X140787592Y-103086906D01*
X140827770Y-103128334D01*
X140883328Y-103185200D01*
X140931570Y-103234082D01*
X140969971Y-103272441D01*
X140996003Y-103297741D01*
X141007140Y-103307442D01*
X141011373Y-103304767D01*
X141031224Y-103286782D01*
X141065451Y-103253481D01*
X141112227Y-103206712D01*
X141169724Y-103148325D01*
X141236112Y-103080169D01*
X141309564Y-103004094D01*
X141388251Y-102921950D01*
X141467341Y-102838943D01*
X141544871Y-102757136D01*
X141607746Y-102690083D01*
X141657502Y-102636007D01*
X141695678Y-102593129D01*
X141723811Y-102559673D01*
X141743440Y-102533861D01*
X141756101Y-102513914D01*
X141763334Y-102498056D01*
X141766675Y-102484509D01*
X141767561Y-102477910D01*
X141771488Y-102441548D01*
X141776459Y-102388018D01*
X141781927Y-102323421D01*
X141787344Y-102253862D01*
X141789181Y-102229635D01*
X141794488Y-102164178D01*
X141799548Y-102107717D01*
X141803863Y-102065618D01*
X141806934Y-102043243D01*
X141812955Y-102014951D01*
X140094852Y-102014951D01*
X139811586Y-102014951D01*
X139803630Y-102009289D01*
X139798820Y-102005104D01*
X139759482Y-101954427D01*
X139743903Y-101901782D01*
X140084698Y-101901782D01*
X141499221Y-101901782D01*
X141711881Y-101901782D01*
X141768908Y-101901782D01*
X141785993Y-101901662D01*
X141811308Y-101899462D01*
X141818616Y-101892334D01*
X141812943Y-101877508D01*
X141811267Y-101874682D01*
X141792448Y-101852944D01*
X141765183Y-101828820D01*
X141737987Y-101809254D01*
X141719371Y-101801188D01*
X141717697Y-101802463D01*
X141713544Y-101819976D01*
X141711881Y-101851485D01*
X141711881Y-101901782D01*
X141499221Y-101901782D01*
X141495526Y-101811095D01*
X141491832Y-101720407D01*
X141416386Y-101705252D01*
X141378551Y-101698379D01*
X141315368Y-101688756D01*
X141256065Y-101681496D01*
X141171188Y-101672893D01*
X141171188Y-101776040D01*
X140592773Y-101776040D01*
X140592773Y-101685122D01*
X140520471Y-101693753D01*
X140409998Y-101712249D01*
X140298816Y-101745691D01*
X140206850Y-101792324D01*
X140132542Y-101852786D01*
X140084698Y-101901782D01*
X139743903Y-101901782D01*
X139742172Y-101895934D01*
X139747474Y-101834575D01*
X139775975Y-101775297D01*
X139778733Y-101771606D01*
X139816822Y-101739851D01*
X139866476Y-101721067D01*
X139920002Y-101716071D01*
X139969707Y-101725678D01*
X140007900Y-101750704D01*
X140020831Y-101763480D01*
X140033428Y-101766576D01*
X140051467Y-101756998D01*
X140081928Y-101733082D01*
X140091274Y-101725731D01*
X140163430Y-101679339D01*
X140248915Y-101638084D01*
X140318830Y-101612575D01*
X140693367Y-101612575D01*
X140693367Y-101675446D01*
X141070594Y-101675446D01*
X141070594Y-101612575D01*
X140693367Y-101612575D01*
X140318830Y-101612575D01*
X140339767Y-101604936D01*
X140428027Y-101582868D01*
X140505736Y-101574852D01*
X140513991Y-101574788D01*
X140559879Y-101570321D01*
X140585079Y-101557795D01*
X140592773Y-101535784D01*
X140593676Y-101528849D01*
X140598615Y-101522885D01*
X140610611Y-101518519D01*
X140632680Y-101515503D01*
X140667836Y-101513590D01*
X140719094Y-101512530D01*
X140789471Y-101512077D01*
X140881980Y-101511980D01*
X140968660Y-101512150D01*
X141042332Y-101512834D01*
X141096265Y-101514215D01*
X141133288Y-101516470D01*
X141156230Y-101519778D01*
X141167920Y-101524320D01*
X141171188Y-101530272D01*
X141181937Y-101544888D01*
X141212055Y-101554215D01*
X141223582Y-101555847D01*
X141262886Y-101561591D01*
X141315188Y-101569378D01*
X141372376Y-101578003D01*
X141403916Y-101582393D01*
X141450074Y-101587148D01*
X141482641Y-101588295D01*
X141496023Y-101585495D01*
X141498308Y-101583671D01*
X141519405Y-101579165D01*
X141557355Y-101576029D01*
X141606048Y-101574852D01*
X141711881Y-101574852D01*
X141711894Y-101612575D01*
X141711894Y-101615718D01*
X141712388Y-101628668D01*
X141718819Y-101650411D01*
X141737123Y-101668851D01*
X141772830Y-101690801D01*
X141804174Y-101710854D01*
X141851893Y-101749356D01*
X141895138Y-101792579D01*
X141928219Y-101834627D01*
X141945442Y-101869604D01*
X141949662Y-101883081D01*
X141957480Y-101892334D01*
X141960116Y-101895454D01*
X141981662Y-101900696D01*
G37*
X141981662Y-101900696D02*
X142021314Y-101901782D01*
X142089109Y-101901782D01*
X142089109Y-102014951D01*
X141929577Y-102014951D01*
X141914682Y-102192732D01*
X141912682Y-102217037D01*
X141908023Y-102277880D01*
X141904731Y-102327389D01*
X141903092Y-102360992D01*
X141903390Y-102374116D01*
X141907724Y-102370343D01*
X141927496Y-102350676D01*
X141961679Y-102315818D01*
X142008541Y-102267576D01*
X142066354Y-102207757D01*
X142133387Y-102138167D01*
X142207912Y-102060615D01*
X142288197Y-101976907D01*
X142372513Y-101888849D01*
X142459130Y-101798250D01*
X142546319Y-101706915D01*
X142632349Y-101616653D01*
X142715492Y-101529269D01*
X142794016Y-101446572D01*
X142866192Y-101370368D01*
X142930291Y-101302463D01*
X142984583Y-101244666D01*
X143081592Y-101141040D01*
X143082034Y-101229315D01*
X143082475Y-101317589D01*
X142481938Y-101949158D01*
X141881401Y-102580726D01*
X141869396Y-102724674D01*
X141821365Y-103300635D01*
X141812876Y-103402791D01*
X141802343Y-103530612D01*
X141792621Y-103649767D01*
X141783898Y-103757914D01*
X141776358Y-103852713D01*
X141770187Y-103931819D01*
X141765573Y-103992892D01*
X141762700Y-104033590D01*
X141761754Y-104051570D01*
X141764251Y-104059808D01*
X141775471Y-104077599D01*
X141796751Y-104104411D01*
X141807021Y-104116129D01*
X141829225Y-104141466D01*
X141874023Y-104189986D01*
X141932281Y-104251192D01*
X142005129Y-104326307D01*
X142093703Y-104416550D01*
X142199134Y-104523145D01*
X142268492Y-104593093D01*
X142365179Y-104690658D01*
X142461526Y-104787941D01*
X142554638Y-104882014D01*
X142641618Y-104969950D01*
X142719569Y-105048820D01*
X142785596Y-105115699D01*
X142836802Y-105167658D01*
X143037514Y-105371620D01*
X143001058Y-105409671D01*
X142992460Y-105418245D01*
X142967095Y-105439297D01*
X142949695Y-105447723D01*
X142936071Y-105440530D01*
X142910743Y-105418944D01*
X142880379Y-105387995D01*
X142861896Y-105368448D01*
X142827427Y-105332752D01*
X142778712Y-105282684D01*
X142717469Y-105220001D01*
X142645420Y-105146457D01*
X142564285Y-105063810D01*
X142475784Y-104973815D01*
X142381637Y-104878228D01*
X142283565Y-104778805D01*
X141741161Y-104229343D01*
X141719066Y-104514746D01*
X141714250Y-104575662D01*
X141707216Y-104657548D01*
X141700872Y-104719569D01*
X141694748Y-104764987D01*
X141688373Y-104797062D01*
X141681277Y-104819052D01*
X141672991Y-104834219D01*
X141661393Y-104855416D01*
X141651850Y-104894386D01*
X141649010Y-104950531D01*
X141649010Y-105032773D01*
X141422674Y-105032773D01*
X141422674Y-104856733D01*
X140577082Y-104856733D01*
X140528203Y-104912262D01*
X140514836Y-104926722D01*
X140442388Y-104984813D01*
X140360532Y-105020576D01*
X140271900Y-105032773D01*
X140193692Y-105026306D01*
X140105233Y-104999047D01*
X140029507Y-104950328D01*
X140014748Y-104936403D01*
X139977864Y-104891328D01*
X139945503Y-104838819D01*
X139922297Y-104787061D01*
X139912879Y-104744239D01*
X139912697Y-104738023D01*
X139911342Y-104715246D01*
X139907800Y-104699513D01*
X139900390Y-104692068D01*
X139887431Y-104694156D01*
X139867243Y-104707020D01*
X139838145Y-104731905D01*
X139798456Y-104770053D01*
X139746496Y-104822710D01*
X139680584Y-104891119D01*
X139599040Y-104976524D01*
X139555604Y-105022112D01*
X139483000Y-105098441D01*
X139414309Y-105170808D01*
X139352223Y-105236366D01*
X139299434Y-105292274D01*
X139258634Y-105335686D01*
X139232515Y-105363758D01*
X139161119Y-105441436D01*
X139072863Y-105353416D01*
X139618690Y-104781287D01*
X139653105Y-104745188D01*
X139775546Y-104616272D01*
X139880651Y-104504754D01*
X139968736Y-104410288D01*
X140040116Y-104332529D01*
X140090588Y-104276174D01*
X140297247Y-104276174D01*
X140298872Y-104289434D01*
X140299156Y-104290819D01*
X140312698Y-104322228D01*
X140339748Y-104336863D01*
X140423129Y-104368063D01*
X140497418Y-104420038D01*
X140555846Y-104488791D01*
X140595890Y-104571315D01*
X140615026Y-104664606D01*
X140621364Y-104743565D01*
X141570838Y-104743565D01*
X141577458Y-104715273D01*
X141578629Y-104708329D01*
X141582268Y-104677281D01*
X141587234Y-104627081D01*
X141593157Y-104561727D01*
X141599669Y-104485219D01*
X141606401Y-104401555D01*
X141628724Y-104116129D01*
X141327826Y-103810565D01*
X141272636Y-103754704D01*
X141205109Y-103686888D01*
X141144529Y-103626643D01*
X141093021Y-103576052D01*
X141052710Y-103537200D01*
X141025722Y-103512170D01*
X141014182Y-103503046D01*
X141006444Y-103507405D01*
X140983395Y-103527241D01*
X140948709Y-103560375D01*
X140905487Y-103603820D01*
X140856832Y-103654587D01*
X140844140Y-103668051D01*
X140787229Y-103728275D01*
X140719414Y-103799864D01*
X140645800Y-103877437D01*
X140571493Y-103955611D01*
X140501599Y-104029005D01*
X140497401Y-104033409D01*
X140432420Y-104101785D01*
X140382836Y-104154732D01*
X140346688Y-104194767D01*
X140322016Y-104224411D01*
X140306858Y-104246181D01*
X140299256Y-104262595D01*
X140297247Y-104276174D01*
X140090588Y-104276174D01*
X140095105Y-104271131D01*
X140134019Y-104225748D01*
X140157173Y-104196035D01*
X140164882Y-104181644D01*
X140164883Y-104181559D01*
X140163825Y-104163624D01*
X140160737Y-104123421D01*
X140155858Y-104063687D01*
X140149432Y-103987158D01*
X140141700Y-103896569D01*
X140132905Y-103794657D01*
X140123287Y-103684159D01*
X140113091Y-103567811D01*
X140102556Y-103448348D01*
X140091926Y-103328507D01*
X140081442Y-103211025D01*
X140071346Y-103098637D01*
X140061881Y-102994081D01*
X140053288Y-102900091D01*
X140045809Y-102819405D01*
X140039687Y-102754759D01*
X140035162Y-102708888D01*
X140032478Y-102684530D01*
X140027067Y-102643732D01*
X140156253Y-102643732D01*
X140157908Y-102674653D01*
X140161549Y-102726653D01*
X140166995Y-102797487D01*
X140174063Y-102884911D01*
X140182570Y-102986681D01*
X140192335Y-103100552D01*
X140203174Y-103224279D01*
X140214907Y-103355618D01*
X140224079Y-103456908D01*
X140235566Y-103582526D01*
X140246322Y-103698762D01*
X140256131Y-103803380D01*
X140264781Y-103894140D01*
X140272057Y-103968804D01*
X140277746Y-104025134D01*
X140281634Y-104060891D01*
X140283506Y-104073837D01*
X140289188Y-104069826D01*
X140310020Y-104050138D01*
X140343872Y-104016322D01*
X140388412Y-103970837D01*
X140441310Y-103916146D01*
X140500236Y-103854710D01*
X140562858Y-103788990D01*
X140626848Y-103721449D01*
X140689874Y-103654547D01*
X140749606Y-103590746D01*
X140803713Y-103532507D01*
X140849865Y-103482292D01*
X140885733Y-103442563D01*
X140908984Y-103415780D01*
X140915778Y-103406477D01*
X141097601Y-103406477D01*
X141373305Y-103681968D01*
X141440726Y-103749224D01*
X141504267Y-103812162D01*
X141553490Y-103860100D01*
X141590196Y-103894594D01*
X141616190Y-103917199D01*
X141633276Y-103929471D01*
X141643256Y-103932966D01*
X141647935Y-103929238D01*
X141649116Y-103919844D01*
X141649873Y-103904749D01*
X141652601Y-103865883D01*
X141657108Y-103806895D01*
X141663179Y-103730473D01*
X141670596Y-103639305D01*
X141679142Y-103536080D01*
X141688602Y-103423483D01*
X141698758Y-103304205D01*
X141707723Y-103199077D01*
X141717066Y-103088351D01*
X141725443Y-102987814D01*
X141732653Y-102899943D01*
X141738496Y-102827215D01*
X141742769Y-102772110D01*
X141745273Y-102737104D01*
X141745805Y-102724674D01*
X141745384Y-102724908D01*
X141733509Y-102736350D01*
X141707130Y-102763198D01*
X141668570Y-102803018D01*
X141620153Y-102853372D01*
X141564203Y-102911828D01*
X141503042Y-102975948D01*
X141438995Y-103043298D01*
X141374385Y-103111443D01*
X141311535Y-103177948D01*
X141252768Y-103240377D01*
X141200409Y-103296295D01*
X141099533Y-103404406D01*
X141097601Y-103406477D01*
X140915778Y-103406477D01*
X140917290Y-103404406D01*
X140909148Y-103393383D01*
X140885478Y-103366999D01*
X140848478Y-103327527D01*
X140800350Y-103277191D01*
X140743296Y-103218217D01*
X140679520Y-103152830D01*
X140611222Y-103083255D01*
X140540605Y-103011716D01*
X140469871Y-102940438D01*
X140401222Y-102871647D01*
X140336861Y-102807566D01*
X140278989Y-102750422D01*
X140229810Y-102702439D01*
X140191524Y-102665841D01*
X140166334Y-102642854D01*
X140156442Y-102635703D01*
X140156253Y-102643732D01*
X140027067Y-102643732D01*
X140025390Y-102631089D01*
X139750297Y-102631089D01*
X139750140Y-102530495D01*
X139850891Y-102530495D01*
X139932624Y-102530495D01*
X139939895Y-102530489D01*
X139980950Y-102529613D01*
X140003277Y-102525867D01*
X140012529Y-102517270D01*
X140014357Y-102501840D01*
X140006306Y-102479159D01*
X139978730Y-102441428D01*
X139932624Y-102392179D01*
X139850891Y-102311172D01*
X139850891Y-102530495D01*
X139750140Y-102530495D01*
X139749968Y-102420471D01*
X139749639Y-102209852D01*
X139297914Y-101750891D01*
X138846189Y-101291931D01*
X138845570Y-101204848D01*
X138844951Y-101117767D01*
X139386769Y-101666952D01*
X139439137Y-101719998D01*
X139547803Y-101829772D01*
X139640709Y-101923114D01*
X139719055Y-102001173D01*
X139784043Y-102065097D01*
X139836872Y-102116035D01*
X139878743Y-102155135D01*
X139910855Y-102183548D01*
X139934410Y-102202420D01*
X139950608Y-102212901D01*
X139960649Y-102216139D01*
X139977579Y-102215158D01*
X139987084Y-102207996D01*
X139988723Y-102188401D01*
X139984782Y-102150124D01*
X139982065Y-102126025D01*
X139978284Y-102085744D01*
X139976760Y-102058961D01*
X139976015Y-102049728D01*
X139968746Y-102039839D01*
X139948668Y-102036562D01*
X139909689Y-102037992D01*
X139899737Y-102038553D01*
X139859898Y-102037921D01*
X139831560Y-102029167D01*
X139811586Y-102014951D01*
X140094852Y-102014951D01*
X140099013Y-102062104D01*
X140100935Y-102083498D01*
X140106924Y-102141909D01*
X140112826Y-102180381D01*
X140119727Y-102202912D01*
X140128712Y-102213498D01*
X140140870Y-102216139D01*
X140151801Y-102217937D01*
X140159050Y-102226530D01*
X140163100Y-102246505D01*
X140164863Y-102282450D01*
X140165248Y-102338952D01*
X140165248Y-102461766D01*
X140205447Y-102501840D01*
X140303565Y-102599654D01*
X140441881Y-102737542D01*
X140441881Y-102631089D01*
X141196337Y-102631089D01*
X141196337Y-102870000D01*
X140577831Y-102870000D01*
X140787592Y-103086906D01*
X140827770Y-103128334D01*
X140883328Y-103185200D01*
X140931570Y-103234082D01*
X140969971Y-103272441D01*
X140996003Y-103297741D01*
X141007140Y-103307442D01*
X141011373Y-103304767D01*
X141031224Y-103286782D01*
X141065451Y-103253481D01*
X141112227Y-103206712D01*
X141169724Y-103148325D01*
X141236112Y-103080169D01*
X141309564Y-103004094D01*
X141388251Y-102921950D01*
X141467341Y-102838943D01*
X141544871Y-102757136D01*
X141607746Y-102690083D01*
X141657502Y-102636007D01*
X141695678Y-102593129D01*
X141723811Y-102559673D01*
X141743440Y-102533861D01*
X141756101Y-102513914D01*
X141763334Y-102498056D01*
X141766675Y-102484509D01*
X141767561Y-102477910D01*
X141771488Y-102441548D01*
X141776459Y-102388018D01*
X141781927Y-102323421D01*
X141787344Y-102253862D01*
X141789181Y-102229635D01*
X141794488Y-102164178D01*
X141799548Y-102107717D01*
X141803863Y-102065618D01*
X141806934Y-102043243D01*
X141812955Y-102014951D01*
X140094852Y-102014951D01*
X139811586Y-102014951D01*
X139803630Y-102009289D01*
X139798820Y-102005104D01*
X139759482Y-101954427D01*
X139743903Y-101901782D01*
X140084698Y-101901782D01*
X141499221Y-101901782D01*
X141711881Y-101901782D01*
X141768908Y-101901782D01*
X141785993Y-101901662D01*
X141811308Y-101899462D01*
X141818616Y-101892334D01*
X141812943Y-101877508D01*
X141811267Y-101874682D01*
X141792448Y-101852944D01*
X141765183Y-101828820D01*
X141737987Y-101809254D01*
X141719371Y-101801188D01*
X141717697Y-101802463D01*
X141713544Y-101819976D01*
X141711881Y-101851485D01*
X141711881Y-101901782D01*
X141499221Y-101901782D01*
X141495526Y-101811095D01*
X141491832Y-101720407D01*
X141416386Y-101705252D01*
X141378551Y-101698379D01*
X141315368Y-101688756D01*
X141256065Y-101681496D01*
X141171188Y-101672893D01*
X141171188Y-101776040D01*
X140592773Y-101776040D01*
X140592773Y-101685122D01*
X140520471Y-101693753D01*
X140409998Y-101712249D01*
X140298816Y-101745691D01*
X140206850Y-101792324D01*
X140132542Y-101852786D01*
X140084698Y-101901782D01*
X139743903Y-101901782D01*
X139742172Y-101895934D01*
X139747474Y-101834575D01*
X139775975Y-101775297D01*
X139778733Y-101771606D01*
X139816822Y-101739851D01*
X139866476Y-101721067D01*
X139920002Y-101716071D01*
X139969707Y-101725678D01*
X140007900Y-101750704D01*
X140020831Y-101763480D01*
X140033428Y-101766576D01*
X140051467Y-101756998D01*
X140081928Y-101733082D01*
X140091274Y-101725731D01*
X140163430Y-101679339D01*
X140248915Y-101638084D01*
X140318830Y-101612575D01*
X140693367Y-101612575D01*
X140693367Y-101675446D01*
X141070594Y-101675446D01*
X141070594Y-101612575D01*
X140693367Y-101612575D01*
X140318830Y-101612575D01*
X140339767Y-101604936D01*
X140428027Y-101582868D01*
X140505736Y-101574852D01*
X140513991Y-101574788D01*
X140559879Y-101570321D01*
X140585079Y-101557795D01*
X140592773Y-101535784D01*
X140593676Y-101528849D01*
X140598615Y-101522885D01*
X140610611Y-101518519D01*
X140632680Y-101515503D01*
X140667836Y-101513590D01*
X140719094Y-101512530D01*
X140789471Y-101512077D01*
X140881980Y-101511980D01*
X140968660Y-101512150D01*
X141042332Y-101512834D01*
X141096265Y-101514215D01*
X141133288Y-101516470D01*
X141156230Y-101519778D01*
X141167920Y-101524320D01*
X141171188Y-101530272D01*
X141181937Y-101544888D01*
X141212055Y-101554215D01*
X141223582Y-101555847D01*
X141262886Y-101561591D01*
X141315188Y-101569378D01*
X141372376Y-101578003D01*
X141403916Y-101582393D01*
X141450074Y-101587148D01*
X141482641Y-101588295D01*
X141496023Y-101585495D01*
X141498308Y-101583671D01*
X141519405Y-101579165D01*
X141557355Y-101576029D01*
X141606048Y-101574852D01*
X141711881Y-101574852D01*
X141711894Y-101612575D01*
X141711894Y-101615718D01*
X141712388Y-101628668D01*
X141718819Y-101650411D01*
X141737123Y-101668851D01*
X141772830Y-101690801D01*
X141804174Y-101710854D01*
X141851893Y-101749356D01*
X141895138Y-101792579D01*
X141928219Y-101834627D01*
X141945442Y-101869604D01*
X141949662Y-101883081D01*
X141957480Y-101892334D01*
X141960116Y-101895454D01*
X141981662Y-101900696D01*
D13*
X85590000Y-65590000D02*
X85590000Y-66920000D01*
X85590000Y-64320000D02*
X88190000Y-64320000D01*
X88190000Y-66920000D02*
X136510000Y-66920000D01*
X85590000Y-61720000D02*
X85590000Y-64320000D01*
X85590000Y-61720000D02*
X136510000Y-61720000D01*
X136510000Y-61720000D02*
X136510000Y-66920000D01*
X88190000Y-64320000D02*
X88190000Y-66920000D01*
X85590000Y-66920000D02*
X86920000Y-66920000D01*
%LPC*%
D14*
X98170200Y-83896200D03*
D15*
X100710200Y-83896200D03*
D14*
X94945200Y-82143600D03*
D15*
X94945200Y-84683600D03*
D16*
X81280000Y-70104000D03*
D17*
X81280000Y-72644000D03*
X81280000Y-75184000D03*
D16*
X81280000Y-79375000D03*
D17*
X81280000Y-81915000D03*
X81280000Y-84455000D03*
D18*
X82040000Y-64310000D03*
D19*
X140040000Y-64330000D03*
X82040000Y-113320000D03*
X140030000Y-113310000D03*
D16*
X123520200Y-76276200D03*
D17*
X120980200Y-76276200D03*
D20*
X92583000Y-98425000D03*
D21*
X93973000Y-95065000D03*
X92583000Y-91705000D03*
X85863000Y-91705000D03*
X84473000Y-95065000D03*
X85863000Y-98425000D03*
D22*
X87687200Y-80854000D03*
D23*
X90238200Y-82169000D03*
X87687200Y-83504000D03*
D24*
X117689000Y-108269000D03*
X112689000Y-110769000D03*
X117689000Y-113269000D03*
D16*
X95758000Y-107315000D03*
D20*
X133731000Y-98298000D03*
D21*
X135121000Y-94938000D03*
X133731000Y-91578000D03*
X127011000Y-91578000D03*
X125621000Y-94938000D03*
X127011000Y-98298000D03*
D16*
X123317000Y-112141000D03*
D20*
X112961000Y-98610000D03*
D21*
X114351000Y-95250000D03*
X112961000Y-91890000D03*
X106241000Y-91890000D03*
X104851000Y-95250000D03*
X106241000Y-98610000D03*
D24*
X128462000Y-108371000D03*
X130962000Y-113371000D03*
X133462000Y-108371000D03*
D16*
X123190000Y-106934000D03*
D24*
X100649000Y-108244000D03*
X103149000Y-113244000D03*
X105649000Y-108244000D03*
D25*
X104687600Y-77981600D03*
D18*
X107227600Y-77981600D03*
X109767600Y-77981600D03*
X112307600Y-77981600D03*
D26*
X86920000Y-65590000D03*
D17*
X86920000Y-63050000D03*
X89460000Y-65590000D03*
X89460000Y-63050000D03*
X92000000Y-65590000D03*
X92000000Y-63050000D03*
X94540000Y-65590000D03*
X94540000Y-63050000D03*
X97080000Y-65590000D03*
X97080000Y-63050000D03*
X99620000Y-65590000D03*
X99620000Y-63050000D03*
X102160000Y-65590000D03*
X102160000Y-63050000D03*
X104700000Y-65590000D03*
X104700000Y-63050000D03*
X107240000Y-65590000D03*
X107240000Y-63050000D03*
X109780000Y-65590000D03*
X109780000Y-63050000D03*
X112320000Y-65590000D03*
X112320000Y-63050000D03*
X114860000Y-65590000D03*
X114860000Y-63050000D03*
X117400000Y-65590000D03*
X117400000Y-63050000D03*
X119940000Y-65590000D03*
X119940000Y-63050000D03*
X122480000Y-65590000D03*
X122480000Y-63050000D03*
X125020000Y-65590000D03*
X125020000Y-63050000D03*
X127560000Y-65590000D03*
X127560000Y-63050000D03*
X130100000Y-65590000D03*
X130100000Y-63050000D03*
X132640000Y-65590000D03*
X132640000Y-63050000D03*
X135180000Y-65590000D03*
X135180000Y-63050000D03*
M02*
