%TF.GenerationSoftware,KiCad,Pcbnew,(6.0.4)*%
%TF.CreationDate,2022-07-22T13:04:17+03:00*%
%TF.ProjectId,shiled_v2,7368696c-6564-45f7-9632-2e6b69636164,rev?*%
%TF.SameCoordinates,Original*%
%TF.FileFunction,Soldermask,Bot*%
%TF.FilePolarity,Negative*%
%FSLAX46Y46*%
G04 Gerber Fmt 4.6, Leading zero omitted, Abs format (unit mm)*
G04 Created by KiCad (PCBNEW (6.0.4)) date 2022-07-22 13:04:17*
%MOMM*%
%LPD*%
G01*
G04 APERTURE LIST*
G04 Aperture macros list*
%AMRoundRect*
0 Rectangle with rounded corners*
0 $1 Rounding radius*
0 $2 $3 $4 $5 $6 $7 $8 $9 X,Y pos of 4 corners*
0 Add a 4 corners polygon primitive as box body*
4,1,4,$2,$3,$4,$5,$6,$7,$8,$9,$2,$3,0*
0 Add four circle primitives for the rounded corners*
1,1,$1+$1,$2,$3*
1,1,$1+$1,$4,$5*
1,1,$1+$1,$6,$7*
1,1,$1+$1,$8,$9*
0 Add four rect primitives between the rounded corners*
20,1,$1+$1,$2,$3,$4,$5,0*
20,1,$1+$1,$4,$5,$6,$7,0*
20,1,$1+$1,$6,$7,$8,$9,0*
20,1,$1+$1,$8,$9,$2,$3,0*%
G04 Aperture macros list end*
%TA.AperFunction,Profile*%
%ADD10C,0.100000*%
%TD*%
%ADD11C,1.400000*%
%ADD12O,1.400000X1.400000*%
%ADD13R,1.700000X1.700000*%
%ADD14O,1.700000X1.700000*%
%ADD15C,1.500000*%
%ADD16C,3.000000*%
%ADD17R,2.000000X2.000000*%
%ADD18C,2.000000*%
%ADD19R,1.800000X1.100000*%
%ADD20RoundRect,0.275000X-0.625000X0.275000X-0.625000X-0.275000X0.625000X-0.275000X0.625000X0.275000X0*%
%ADD21C,2.340000*%
%ADD22R,1.500000X1.500000*%
%ADD23R,1.300000X1.300000*%
G04 APERTURE END LIST*
D10*
X143546356Y-113817611D02*
X143546356Y-63817611D01*
X78546356Y-63817611D02*
X78546356Y-113817611D01*
X140546356Y-116817611D02*
G75*
G03*
X143546356Y-113817611I37J2999963D01*
G01*
X140546356Y-60817611D02*
X81546356Y-60817611D01*
X81546356Y-116817611D02*
X140546356Y-116817611D01*
X143546389Y-63817611D02*
G75*
G03*
X140546356Y-60817611I-2999989J11D01*
G01*
X81546356Y-60817556D02*
G75*
G03*
X78546356Y-63817611I44J-3000044D01*
G01*
X78546389Y-113817611D02*
G75*
G03*
X81546356Y-116817611I3000011J11D01*
G01*
D11*
X98170200Y-83896200D03*
D12*
X100710200Y-83896200D03*
D11*
X94945200Y-82143600D03*
D12*
X94945200Y-84683600D03*
D13*
X81280000Y-70104000D03*
D14*
X81280000Y-72644000D03*
X81280000Y-75184000D03*
D13*
X81280000Y-79375000D03*
D14*
X81280000Y-81915000D03*
X81280000Y-84455000D03*
D15*
X82040000Y-64310000D03*
D16*
X140040000Y-64330000D03*
X82040000Y-113320000D03*
X140030000Y-113310000D03*
D13*
X123520200Y-76276200D03*
D14*
X120980200Y-76276200D03*
D17*
X92583000Y-98425000D03*
D18*
X93973000Y-95065000D03*
X92583000Y-91705000D03*
X85863000Y-91705000D03*
X84473000Y-95065000D03*
X85863000Y-98425000D03*
D19*
X87687200Y-80854000D03*
D20*
X90238200Y-82169000D03*
X87687200Y-83504000D03*
D21*
X117689000Y-108269000D03*
X112689000Y-110769000D03*
X117689000Y-113269000D03*
D13*
X95758000Y-107315000D03*
D17*
X133731000Y-98298000D03*
D18*
X135121000Y-94938000D03*
X133731000Y-91578000D03*
X127011000Y-91578000D03*
X125621000Y-94938000D03*
X127011000Y-98298000D03*
D13*
X123317000Y-112141000D03*
D17*
X112961000Y-98610000D03*
D18*
X114351000Y-95250000D03*
X112961000Y-91890000D03*
X106241000Y-91890000D03*
X104851000Y-95250000D03*
X106241000Y-98610000D03*
D21*
X128462000Y-108371000D03*
X130962000Y-113371000D03*
X133462000Y-108371000D03*
D13*
X123190000Y-106934000D03*
D21*
X100649000Y-108244000D03*
X103149000Y-113244000D03*
X105649000Y-108244000D03*
D22*
X104687600Y-77981600D03*
D15*
X107227600Y-77981600D03*
X109767600Y-77981600D03*
X112307600Y-77981600D03*
D23*
X86920000Y-65590000D03*
D14*
X86920000Y-63050000D03*
X89460000Y-65590000D03*
X89460000Y-63050000D03*
X92000000Y-65590000D03*
X92000000Y-63050000D03*
X94540000Y-65590000D03*
X94540000Y-63050000D03*
X97080000Y-65590000D03*
X97080000Y-63050000D03*
X99620000Y-65590000D03*
X99620000Y-63050000D03*
X102160000Y-65590000D03*
X102160000Y-63050000D03*
X104700000Y-65590000D03*
X104700000Y-63050000D03*
X107240000Y-65590000D03*
X107240000Y-63050000D03*
X109780000Y-65590000D03*
X109780000Y-63050000D03*
X112320000Y-65590000D03*
X112320000Y-63050000D03*
X114860000Y-65590000D03*
X114860000Y-63050000D03*
X117400000Y-65590000D03*
X117400000Y-63050000D03*
X119940000Y-65590000D03*
X119940000Y-63050000D03*
X122480000Y-65590000D03*
X122480000Y-63050000D03*
X125020000Y-65590000D03*
X125020000Y-63050000D03*
X127560000Y-65590000D03*
X127560000Y-63050000D03*
X130100000Y-65590000D03*
X130100000Y-63050000D03*
X132640000Y-65590000D03*
X132640000Y-63050000D03*
X135180000Y-65590000D03*
X135180000Y-63050000D03*
M02*
