%TF.GenerationSoftware,KiCad,Pcbnew,(6.0.4)*%
%TF.CreationDate,2022-07-22T13:04:17+03:00*%
%TF.ProjectId,shiled_v2,7368696c-6564-45f7-9632-2e6b69636164,rev?*%
%TF.SameCoordinates,Original*%
%TF.FileFunction,Legend,Top*%
%TF.FilePolarity,Positive*%
%FSLAX46Y46*%
G04 Gerber Fmt 4.6, Leading zero omitted, Abs format (unit mm)*
G04 Created by KiCad (PCBNEW (6.0.4)) date 2022-07-22 13:04:17*
%MOMM*%
%LPD*%
G01*
G04 APERTURE LIST*
G04 Aperture macros list*
%AMRoundRect*
0 Rectangle with rounded corners*
0 $1 Rounding radius*
0 $2 $3 $4 $5 $6 $7 $8 $9 X,Y pos of 4 corners*
0 Add a 4 corners polygon primitive as box body*
4,1,4,$2,$3,$4,$5,$6,$7,$8,$9,$2,$3,0*
0 Add four circle primitives for the rounded corners*
1,1,$1+$1,$2,$3*
1,1,$1+$1,$4,$5*
1,1,$1+$1,$6,$7*
1,1,$1+$1,$8,$9*
0 Add four rect primitives between the rounded corners*
20,1,$1+$1,$2,$3,$4,$5,0*
20,1,$1+$1,$4,$5,$6,$7,0*
20,1,$1+$1,$6,$7,$8,$9,0*
20,1,$1+$1,$8,$9,$2,$3,0*%
G04 Aperture macros list end*
%TA.AperFunction,Profile*%
%ADD10C,0.100000*%
%TD*%
%ADD11C,0.254000*%
%ADD12C,0.150000*%
%ADD13C,0.212500*%
%ADD14C,0.125000*%
%ADD15C,0.200000*%
%ADD16C,0.100000*%
%ADD17C,0.120000*%
%ADD18R,1.000000X0.700000*%
%ADD19RoundRect,0.250000X-0.350000X-0.450000X0.350000X-0.450000X0.350000X0.450000X-0.350000X0.450000X0*%
%ADD20RoundRect,0.250000X0.350000X0.450000X-0.350000X0.450000X-0.350000X-0.450000X0.350000X-0.450000X0*%
%ADD21R,1.200000X0.900000*%
%ADD22C,1.400000*%
%ADD23O,1.400000X1.400000*%
%ADD24RoundRect,0.250000X0.450000X-0.350000X0.450000X0.350000X-0.450000X0.350000X-0.450000X-0.350000X0*%
%ADD25R,0.650000X1.560000*%
%ADD26R,4.200000X1.500000*%
%ADD27R,1.700000X1.700000*%
%ADD28O,1.700000X1.700000*%
%ADD29RoundRect,0.250000X-0.475000X0.337500X-0.475000X-0.337500X0.475000X-0.337500X0.475000X0.337500X0*%
%ADD30RoundRect,0.250000X0.337500X0.475000X-0.337500X0.475000X-0.337500X-0.475000X0.337500X-0.475000X0*%
%ADD31RoundRect,0.250000X0.475000X-0.337500X0.475000X0.337500X-0.475000X0.337500X-0.475000X-0.337500X0*%
%ADD32C,1.500000*%
%ADD33C,3.000000*%
%ADD34R,2.000000X2.000000*%
%ADD35C,2.000000*%
%ADD36RoundRect,0.250000X-0.450000X0.350000X-0.450000X-0.350000X0.450000X-0.350000X0.450000X0.350000X0*%
%ADD37R,1.800000X1.100000*%
%ADD38RoundRect,0.275000X-0.625000X0.275000X-0.625000X-0.275000X0.625000X-0.275000X0.625000X0.275000X0*%
%ADD39C,2.340000*%
%ADD40RoundRect,0.150000X0.587500X0.150000X-0.587500X0.150000X-0.587500X-0.150000X0.587500X-0.150000X0*%
%ADD41RoundRect,0.100000X0.100000X-0.637500X0.100000X0.637500X-0.100000X0.637500X-0.100000X-0.637500X0*%
%ADD42RoundRect,0.150000X0.150000X-0.825000X0.150000X0.825000X-0.150000X0.825000X-0.150000X-0.825000X0*%
%ADD43R,1.500000X1.500000*%
%ADD44R,1.300000X1.300000*%
G04 APERTURE END LIST*
D10*
X143546356Y-113817611D02*
X143546356Y-63817611D01*
X78546356Y-63817611D02*
X78546356Y-113817611D01*
X140546356Y-116817611D02*
G75*
G03*
X143546356Y-113817611I37J2999963D01*
G01*
X140546356Y-60817611D02*
X81546356Y-60817611D01*
X81546356Y-116817611D02*
X140546356Y-116817611D01*
X143546389Y-63817611D02*
G75*
G03*
X140546356Y-60817611I-2999989J11D01*
G01*
X81546356Y-60817556D02*
G75*
G03*
X78546356Y-63817611I44J-3000044D01*
G01*
X78546389Y-113817611D02*
G75*
G03*
X81546356Y-116817611I3000011J11D01*
G01*
D11*
X88567380Y-109354647D02*
X88748809Y-109415123D01*
X89051190Y-109415123D01*
X89172142Y-109354647D01*
X89232619Y-109294171D01*
X89293095Y-109173219D01*
X89293095Y-109052266D01*
X89232619Y-108931314D01*
X89172142Y-108870838D01*
X89051190Y-108810361D01*
X88809285Y-108749885D01*
X88688333Y-108689409D01*
X88627857Y-108628933D01*
X88567380Y-108507980D01*
X88567380Y-108387028D01*
X88627857Y-108266076D01*
X88688333Y-108205600D01*
X88809285Y-108145123D01*
X89111666Y-108145123D01*
X89293095Y-108205600D01*
X90502619Y-109415123D02*
X89776904Y-109415123D01*
X90139761Y-109415123D02*
X90139761Y-108145123D01*
X90018809Y-108326552D01*
X89897857Y-108447504D01*
X89776904Y-108507980D01*
D12*
X80621142Y-110154980D02*
X80287809Y-109678790D01*
X80049714Y-110154980D02*
X80049714Y-109154980D01*
X80430666Y-109154980D01*
X80525904Y-109202600D01*
X80573523Y-109250219D01*
X80621142Y-109345457D01*
X80621142Y-109488314D01*
X80573523Y-109583552D01*
X80525904Y-109631171D01*
X80430666Y-109678790D01*
X80049714Y-109678790D01*
X81002095Y-109250219D02*
X81049714Y-109202600D01*
X81144952Y-109154980D01*
X81383047Y-109154980D01*
X81478285Y-109202600D01*
X81525904Y-109250219D01*
X81573523Y-109345457D01*
X81573523Y-109440695D01*
X81525904Y-109583552D01*
X80954476Y-110154980D01*
X81573523Y-110154980D01*
X82192571Y-109154980D02*
X82287809Y-109154980D01*
X82383047Y-109202600D01*
X82430666Y-109250219D01*
X82478285Y-109345457D01*
X82525904Y-109535933D01*
X82525904Y-109774028D01*
X82478285Y-109964504D01*
X82430666Y-110059742D01*
X82383047Y-110107361D01*
X82287809Y-110154980D01*
X82192571Y-110154980D01*
X82097333Y-110107361D01*
X82049714Y-110059742D01*
X82002095Y-109964504D01*
X81954476Y-109774028D01*
X81954476Y-109535933D01*
X82002095Y-109345457D01*
X82049714Y-109250219D01*
X82097333Y-109202600D01*
X82192571Y-109154980D01*
X80475342Y-104846380D02*
X80142009Y-104370190D01*
X79903914Y-104846380D02*
X79903914Y-103846380D01*
X80284866Y-103846380D01*
X80380104Y-103894000D01*
X80427723Y-103941619D01*
X80475342Y-104036857D01*
X80475342Y-104179714D01*
X80427723Y-104274952D01*
X80380104Y-104322571D01*
X80284866Y-104370190D01*
X79903914Y-104370190D01*
X81427723Y-104846380D02*
X80856295Y-104846380D01*
X81142009Y-104846380D02*
X81142009Y-103846380D01*
X81046771Y-103989238D01*
X80951533Y-104084476D01*
X80856295Y-104132095D01*
X81903914Y-104846380D02*
X82094390Y-104846380D01*
X82189628Y-104798761D01*
X82237247Y-104751142D01*
X82332485Y-104608285D01*
X82380104Y-104417809D01*
X82380104Y-104036857D01*
X82332485Y-103941619D01*
X82284866Y-103894000D01*
X82189628Y-103846380D01*
X81999152Y-103846380D01*
X81903914Y-103894000D01*
X81856295Y-103941619D01*
X81808676Y-104036857D01*
X81808676Y-104274952D01*
X81856295Y-104370190D01*
X81903914Y-104417809D01*
X81999152Y-104465428D01*
X82189628Y-104465428D01*
X82284866Y-104417809D01*
X82332485Y-104370190D01*
X82380104Y-104274952D01*
X84199504Y-77388980D02*
X84199504Y-76388980D01*
X84437600Y-76388980D01*
X84580457Y-76436600D01*
X84675695Y-76531838D01*
X84723314Y-76627076D01*
X84770933Y-76817552D01*
X84770933Y-76960409D01*
X84723314Y-77150885D01*
X84675695Y-77246123D01*
X84580457Y-77341361D01*
X84437600Y-77388980D01*
X84199504Y-77388980D01*
X85104266Y-76388980D02*
X85723314Y-76388980D01*
X85389980Y-76769933D01*
X85532838Y-76769933D01*
X85628076Y-76817552D01*
X85675695Y-76865171D01*
X85723314Y-76960409D01*
X85723314Y-77198504D01*
X85675695Y-77293742D01*
X85628076Y-77341361D01*
X85532838Y-77388980D01*
X85247123Y-77388980D01*
X85151885Y-77341361D01*
X85104266Y-77293742D01*
X97698733Y-86304380D02*
X97365400Y-85828190D01*
X97127304Y-86304380D02*
X97127304Y-85304380D01*
X97508257Y-85304380D01*
X97603495Y-85352000D01*
X97651114Y-85399619D01*
X97698733Y-85494857D01*
X97698733Y-85637714D01*
X97651114Y-85732952D01*
X97603495Y-85780571D01*
X97508257Y-85828190D01*
X97127304Y-85828190D01*
X98555876Y-85304380D02*
X98365400Y-85304380D01*
X98270161Y-85352000D01*
X98222542Y-85399619D01*
X98127304Y-85542476D01*
X98079685Y-85732952D01*
X98079685Y-86113904D01*
X98127304Y-86209142D01*
X98174923Y-86256761D01*
X98270161Y-86304380D01*
X98460638Y-86304380D01*
X98555876Y-86256761D01*
X98603495Y-86209142D01*
X98651114Y-86113904D01*
X98651114Y-85875809D01*
X98603495Y-85780571D01*
X98555876Y-85732952D01*
X98460638Y-85685333D01*
X98270161Y-85685333D01*
X98174923Y-85732952D01*
X98127304Y-85780571D01*
X98079685Y-85875809D01*
X92594133Y-85110580D02*
X92260800Y-84634390D01*
X92022704Y-85110580D02*
X92022704Y-84110580D01*
X92403657Y-84110580D01*
X92498895Y-84158200D01*
X92546514Y-84205819D01*
X92594133Y-84301057D01*
X92594133Y-84443914D01*
X92546514Y-84539152D01*
X92498895Y-84586771D01*
X92403657Y-84634390D01*
X92022704Y-84634390D01*
X93498895Y-84110580D02*
X93022704Y-84110580D01*
X92975085Y-84586771D01*
X93022704Y-84539152D01*
X93117942Y-84491533D01*
X93356038Y-84491533D01*
X93451276Y-84539152D01*
X93498895Y-84586771D01*
X93546514Y-84682009D01*
X93546514Y-84920104D01*
X93498895Y-85015342D01*
X93451276Y-85062961D01*
X93356038Y-85110580D01*
X93117942Y-85110580D01*
X93022704Y-85062961D01*
X92975085Y-85015342D01*
X84034333Y-105252780D02*
X83701000Y-104776590D01*
X83462904Y-105252780D02*
X83462904Y-104252780D01*
X83843857Y-104252780D01*
X83939095Y-104300400D01*
X83986714Y-104348019D01*
X84034333Y-104443257D01*
X84034333Y-104586114D01*
X83986714Y-104681352D01*
X83939095Y-104728971D01*
X83843857Y-104776590D01*
X83462904Y-104776590D01*
X84367666Y-104252780D02*
X85034333Y-104252780D01*
X84605761Y-105252780D01*
X101371495Y-70419980D02*
X101371495Y-71229504D01*
X101419114Y-71324742D01*
X101466733Y-71372361D01*
X101561971Y-71419980D01*
X101752447Y-71419980D01*
X101847685Y-71372361D01*
X101895304Y-71324742D01*
X101942923Y-71229504D01*
X101942923Y-70419980D01*
X102323876Y-70419980D02*
X102990542Y-70419980D01*
X102561971Y-71419980D01*
D13*
X96435523Y-73164619D02*
X97123619Y-73164619D01*
X97204571Y-73124142D01*
X97245047Y-73083666D01*
X97285523Y-73002714D01*
X97285523Y-72840809D01*
X97245047Y-72759857D01*
X97204571Y-72719380D01*
X97123619Y-72678904D01*
X96435523Y-72678904D01*
X96435523Y-72355095D02*
X96435523Y-71828904D01*
X96759333Y-72112238D01*
X96759333Y-71990809D01*
X96799809Y-71909857D01*
X96840285Y-71869380D01*
X96921238Y-71828904D01*
X97123619Y-71828904D01*
X97204571Y-71869380D01*
X97245047Y-71909857D01*
X97285523Y-71990809D01*
X97285523Y-72233666D01*
X97245047Y-72314619D01*
X97204571Y-72355095D01*
D12*
X111625142Y-83840580D02*
X111291809Y-83364390D01*
X111053714Y-83840580D02*
X111053714Y-82840580D01*
X111434666Y-82840580D01*
X111529904Y-82888200D01*
X111577523Y-82935819D01*
X111625142Y-83031057D01*
X111625142Y-83173914D01*
X111577523Y-83269152D01*
X111529904Y-83316771D01*
X111434666Y-83364390D01*
X111053714Y-83364390D01*
X112577523Y-83840580D02*
X112006095Y-83840580D01*
X112291809Y-83840580D02*
X112291809Y-82840580D01*
X112196571Y-82983438D01*
X112101333Y-83078676D01*
X112006095Y-83126295D01*
X113148952Y-83269152D02*
X113053714Y-83221533D01*
X113006095Y-83173914D01*
X112958476Y-83078676D01*
X112958476Y-83031057D01*
X113006095Y-82935819D01*
X113053714Y-82888200D01*
X113148952Y-82840580D01*
X113339428Y-82840580D01*
X113434666Y-82888200D01*
X113482285Y-82935819D01*
X113529904Y-83031057D01*
X113529904Y-83078676D01*
X113482285Y-83173914D01*
X113434666Y-83221533D01*
X113339428Y-83269152D01*
X113148952Y-83269152D01*
X113053714Y-83316771D01*
X113006095Y-83364390D01*
X112958476Y-83459628D01*
X112958476Y-83650104D01*
X113006095Y-83745342D01*
X113053714Y-83792961D01*
X113148952Y-83840580D01*
X113339428Y-83840580D01*
X113434666Y-83792961D01*
X113482285Y-83745342D01*
X113529904Y-83650104D01*
X113529904Y-83459628D01*
X113482285Y-83364390D01*
X113434666Y-83316771D01*
X113339428Y-83269152D01*
X104233742Y-85542380D02*
X103900409Y-85066190D01*
X103662314Y-85542380D02*
X103662314Y-84542380D01*
X104043266Y-84542380D01*
X104138504Y-84590000D01*
X104186123Y-84637619D01*
X104233742Y-84732857D01*
X104233742Y-84875714D01*
X104186123Y-84970952D01*
X104138504Y-85018571D01*
X104043266Y-85066190D01*
X103662314Y-85066190D01*
X105186123Y-85542380D02*
X104614695Y-85542380D01*
X104900409Y-85542380D02*
X104900409Y-84542380D01*
X104805171Y-84685238D01*
X104709933Y-84780476D01*
X104614695Y-84828095D01*
X105519457Y-84542380D02*
X106186123Y-84542380D01*
X105757552Y-85542380D01*
X99179142Y-80462380D02*
X98845809Y-79986190D01*
X98607714Y-80462380D02*
X98607714Y-79462380D01*
X98988666Y-79462380D01*
X99083904Y-79510000D01*
X99131523Y-79557619D01*
X99179142Y-79652857D01*
X99179142Y-79795714D01*
X99131523Y-79890952D01*
X99083904Y-79938571D01*
X98988666Y-79986190D01*
X98607714Y-79986190D01*
X100131523Y-80462380D02*
X99560095Y-80462380D01*
X99845809Y-80462380D02*
X99845809Y-79462380D01*
X99750571Y-79605238D01*
X99655333Y-79700476D01*
X99560095Y-79748095D01*
X100512476Y-79557619D02*
X100560095Y-79510000D01*
X100655333Y-79462380D01*
X100893428Y-79462380D01*
X100988666Y-79510000D01*
X101036285Y-79557619D01*
X101083904Y-79652857D01*
X101083904Y-79748095D01*
X101036285Y-79890952D01*
X100464857Y-80462380D01*
X101083904Y-80462380D01*
D14*
X97254190Y-74616428D02*
X97016095Y-74783095D01*
X97254190Y-74902142D02*
X96754190Y-74902142D01*
X96754190Y-74711666D01*
X96778000Y-74664047D01*
X96801809Y-74640238D01*
X96849428Y-74616428D01*
X96920857Y-74616428D01*
X96968476Y-74640238D01*
X96992285Y-74664047D01*
X97016095Y-74711666D01*
X97016095Y-74902142D01*
X97254190Y-74140238D02*
X97254190Y-74425952D01*
X97254190Y-74283095D02*
X96754190Y-74283095D01*
X96825619Y-74330714D01*
X96873238Y-74378333D01*
X96897047Y-74425952D01*
X97254190Y-73664047D02*
X97254190Y-73949761D01*
X97254190Y-73806904D02*
X96754190Y-73806904D01*
X96825619Y-73854523D01*
X96873238Y-73902142D01*
X96897047Y-73949761D01*
D12*
X95369142Y-80462380D02*
X95035809Y-79986190D01*
X94797714Y-80462380D02*
X94797714Y-79462380D01*
X95178666Y-79462380D01*
X95273904Y-79510000D01*
X95321523Y-79557619D01*
X95369142Y-79652857D01*
X95369142Y-79795714D01*
X95321523Y-79890952D01*
X95273904Y-79938571D01*
X95178666Y-79986190D01*
X94797714Y-79986190D01*
X96321523Y-80462380D02*
X95750095Y-80462380D01*
X96035809Y-80462380D02*
X96035809Y-79462380D01*
X95940571Y-79605238D01*
X95845333Y-79700476D01*
X95750095Y-79748095D01*
X96940571Y-79462380D02*
X97035809Y-79462380D01*
X97131047Y-79510000D01*
X97178666Y-79557619D01*
X97226285Y-79652857D01*
X97273904Y-79843333D01*
X97273904Y-80081428D01*
X97226285Y-80271904D01*
X97178666Y-80367142D01*
X97131047Y-80414761D01*
X97035809Y-80462380D01*
X96940571Y-80462380D01*
X96845333Y-80414761D01*
X96797714Y-80367142D01*
X96750095Y-80271904D01*
X96702476Y-80081428D01*
X96702476Y-79843333D01*
X96750095Y-79652857D01*
X96797714Y-79557619D01*
X96845333Y-79510000D01*
X96940571Y-79462380D01*
X85685333Y-69540380D02*
X85209142Y-69540380D01*
X85209142Y-68540380D01*
X86542476Y-69540380D02*
X85971047Y-69540380D01*
X86256761Y-69540380D02*
X86256761Y-68540380D01*
X86161523Y-68683238D01*
X86066285Y-68778476D01*
X85971047Y-68826095D01*
X80311666Y-67001380D02*
X80311666Y-67715666D01*
X80264047Y-67858523D01*
X80168809Y-67953761D01*
X80025952Y-68001380D01*
X79930714Y-68001380D01*
X81264047Y-67001380D02*
X80787857Y-67001380D01*
X80740238Y-67477571D01*
X80787857Y-67429952D01*
X80883095Y-67382333D01*
X81121190Y-67382333D01*
X81216428Y-67429952D01*
X81264047Y-67477571D01*
X81311666Y-67572809D01*
X81311666Y-67810904D01*
X81264047Y-67906142D01*
X81216428Y-67953761D01*
X81121190Y-68001380D01*
X80883095Y-68001380D01*
X80787857Y-67953761D01*
X80740238Y-67906142D01*
X80819666Y-86574380D02*
X80819666Y-87288666D01*
X80772047Y-87431523D01*
X80676809Y-87526761D01*
X80533952Y-87574380D01*
X80438714Y-87574380D01*
X81248238Y-86669619D02*
X81295857Y-86622000D01*
X81391095Y-86574380D01*
X81629190Y-86574380D01*
X81724428Y-86622000D01*
X81772047Y-86669619D01*
X81819666Y-86764857D01*
X81819666Y-86860095D01*
X81772047Y-87002952D01*
X81200619Y-87574380D01*
X81819666Y-87574380D01*
X88876380Y-76811095D02*
X87876380Y-76811095D01*
X87876380Y-76573000D01*
X87924000Y-76430142D01*
X88019238Y-76334904D01*
X88114476Y-76287285D01*
X88304952Y-76239666D01*
X88447809Y-76239666D01*
X88638285Y-76287285D01*
X88733523Y-76334904D01*
X88828761Y-76430142D01*
X88876380Y-76573000D01*
X88876380Y-76811095D01*
X87971619Y-75858714D02*
X87924000Y-75811095D01*
X87876380Y-75715857D01*
X87876380Y-75477761D01*
X87924000Y-75382523D01*
X87971619Y-75334904D01*
X88066857Y-75287285D01*
X88162095Y-75287285D01*
X88304952Y-75334904D01*
X88876380Y-75906333D01*
X88876380Y-75287285D01*
X83843904Y-85796380D02*
X83843904Y-84796380D01*
X84082000Y-84796380D01*
X84224857Y-84844000D01*
X84320095Y-84939238D01*
X84367714Y-85034476D01*
X84415333Y-85224952D01*
X84415333Y-85367809D01*
X84367714Y-85558285D01*
X84320095Y-85653523D01*
X84224857Y-85748761D01*
X84082000Y-85796380D01*
X83843904Y-85796380D01*
X85367714Y-85796380D02*
X84796285Y-85796380D01*
X85082000Y-85796380D02*
X85082000Y-84796380D01*
X84986761Y-84939238D01*
X84891523Y-85034476D01*
X84796285Y-85082095D01*
X92194142Y-80113142D02*
X92146523Y-80160761D01*
X92003666Y-80208380D01*
X91908428Y-80208380D01*
X91765571Y-80160761D01*
X91670333Y-80065523D01*
X91622714Y-79970285D01*
X91575095Y-79779809D01*
X91575095Y-79636952D01*
X91622714Y-79446476D01*
X91670333Y-79351238D01*
X91765571Y-79256000D01*
X91908428Y-79208380D01*
X92003666Y-79208380D01*
X92146523Y-79256000D01*
X92194142Y-79303619D01*
X93146523Y-80208380D02*
X92575095Y-80208380D01*
X92860809Y-80208380D02*
X92860809Y-79208380D01*
X92765571Y-79351238D01*
X92670333Y-79446476D01*
X92575095Y-79494095D01*
X93765571Y-79208380D02*
X93860809Y-79208380D01*
X93956047Y-79256000D01*
X94003666Y-79303619D01*
X94051285Y-79398857D01*
X94098904Y-79589333D01*
X94098904Y-79827428D01*
X94051285Y-80017904D01*
X94003666Y-80113142D01*
X93956047Y-80160761D01*
X93860809Y-80208380D01*
X93765571Y-80208380D01*
X93670333Y-80160761D01*
X93622714Y-80113142D01*
X93575095Y-80017904D01*
X93527476Y-79827428D01*
X93527476Y-79589333D01*
X93575095Y-79398857D01*
X93622714Y-79303619D01*
X93670333Y-79256000D01*
X93765571Y-79208380D01*
X97369333Y-69191142D02*
X97321714Y-69238761D01*
X97178857Y-69286380D01*
X97083619Y-69286380D01*
X96940761Y-69238761D01*
X96845523Y-69143523D01*
X96797904Y-69048285D01*
X96750285Y-68857809D01*
X96750285Y-68714952D01*
X96797904Y-68524476D01*
X96845523Y-68429238D01*
X96940761Y-68334000D01*
X97083619Y-68286380D01*
X97178857Y-68286380D01*
X97321714Y-68334000D01*
X97369333Y-68381619D01*
X97940761Y-68714952D02*
X97845523Y-68667333D01*
X97797904Y-68619714D01*
X97750285Y-68524476D01*
X97750285Y-68476857D01*
X97797904Y-68381619D01*
X97845523Y-68334000D01*
X97940761Y-68286380D01*
X98131238Y-68286380D01*
X98226476Y-68334000D01*
X98274095Y-68381619D01*
X98321714Y-68476857D01*
X98321714Y-68524476D01*
X98274095Y-68619714D01*
X98226476Y-68667333D01*
X98131238Y-68714952D01*
X97940761Y-68714952D01*
X97845523Y-68762571D01*
X97797904Y-68810190D01*
X97750285Y-68905428D01*
X97750285Y-69095904D01*
X97797904Y-69191142D01*
X97845523Y-69238761D01*
X97940761Y-69286380D01*
X98131238Y-69286380D01*
X98226476Y-69238761D01*
X98274095Y-69191142D01*
X98321714Y-69095904D01*
X98321714Y-68905428D01*
X98274095Y-68810190D01*
X98226476Y-68762571D01*
X98131238Y-68714952D01*
X92670333Y-114530142D02*
X92622714Y-114577761D01*
X92479857Y-114625380D01*
X92384619Y-114625380D01*
X92241761Y-114577761D01*
X92146523Y-114482523D01*
X92098904Y-114387285D01*
X92051285Y-114196809D01*
X92051285Y-114053952D01*
X92098904Y-113863476D01*
X92146523Y-113768238D01*
X92241761Y-113673000D01*
X92384619Y-113625380D01*
X92479857Y-113625380D01*
X92622714Y-113673000D01*
X92670333Y-113720619D01*
X93003666Y-113625380D02*
X93670333Y-113625380D01*
X93241761Y-114625380D01*
X81338095Y-64852380D02*
X81338095Y-63852380D01*
X81338095Y-64328571D02*
X81909523Y-64328571D01*
X81909523Y-64852380D02*
X81909523Y-63852380D01*
X82909523Y-64852380D02*
X82338095Y-64852380D01*
X82623809Y-64852380D02*
X82623809Y-63852380D01*
X82528571Y-63995238D01*
X82433333Y-64090476D01*
X82338095Y-64138095D01*
X139338095Y-64872380D02*
X139338095Y-63872380D01*
X139338095Y-64348571D02*
X139909523Y-64348571D01*
X139909523Y-64872380D02*
X139909523Y-63872380D01*
X140290476Y-63872380D02*
X140909523Y-63872380D01*
X140576190Y-64253333D01*
X140719047Y-64253333D01*
X140814285Y-64300952D01*
X140861904Y-64348571D01*
X140909523Y-64443809D01*
X140909523Y-64681904D01*
X140861904Y-64777142D01*
X140814285Y-64824761D01*
X140719047Y-64872380D01*
X140433333Y-64872380D01*
X140338095Y-64824761D01*
X140290476Y-64777142D01*
X81338095Y-113862380D02*
X81338095Y-112862380D01*
X81338095Y-113338571D02*
X81909523Y-113338571D01*
X81909523Y-113862380D02*
X81909523Y-112862380D01*
X82338095Y-112957619D02*
X82385714Y-112910000D01*
X82480952Y-112862380D01*
X82719047Y-112862380D01*
X82814285Y-112910000D01*
X82861904Y-112957619D01*
X82909523Y-113052857D01*
X82909523Y-113148095D01*
X82861904Y-113290952D01*
X82290476Y-113862380D01*
X82909523Y-113862380D01*
X139328095Y-113852380D02*
X139328095Y-112852380D01*
X139328095Y-113328571D02*
X139899523Y-113328571D01*
X139899523Y-113852380D02*
X139899523Y-112852380D01*
X140804285Y-113185714D02*
X140804285Y-113852380D01*
X140566190Y-112804761D02*
X140328095Y-113519047D01*
X140947142Y-113519047D01*
X122388380Y-73858333D02*
X123102666Y-73858333D01*
X123245523Y-73905952D01*
X123340761Y-74001190D01*
X123388380Y-74144047D01*
X123388380Y-74239285D01*
X123388380Y-73382142D02*
X122388380Y-73382142D01*
X122388380Y-73001190D01*
X122436000Y-72905952D01*
X122483619Y-72858333D01*
X122578857Y-72810714D01*
X122721714Y-72810714D01*
X122816952Y-72858333D01*
X122864571Y-72905952D01*
X122912190Y-73001190D01*
X122912190Y-73382142D01*
X123388380Y-71858333D02*
X123388380Y-72429761D01*
X123388380Y-72144047D02*
X122388380Y-72144047D01*
X122531238Y-72239285D01*
X122626476Y-72334523D01*
X122674095Y-72429761D01*
X80010095Y-102068380D02*
X80010095Y-102877904D01*
X80057714Y-102973142D01*
X80105333Y-103020761D01*
X80200571Y-103068380D01*
X80391047Y-103068380D01*
X80486285Y-103020761D01*
X80533904Y-102973142D01*
X80581523Y-102877904D01*
X80581523Y-102068380D01*
X81486285Y-102068380D02*
X81295809Y-102068380D01*
X81200571Y-102116000D01*
X81152952Y-102163619D01*
X81057714Y-102306476D01*
X81010095Y-102496952D01*
X81010095Y-102877904D01*
X81057714Y-102973142D01*
X81105333Y-103020761D01*
X81200571Y-103068380D01*
X81391047Y-103068380D01*
X81486285Y-103020761D01*
X81533904Y-102973142D01*
X81581523Y-102877904D01*
X81581523Y-102639809D01*
X81533904Y-102544571D01*
X81486285Y-102496952D01*
X81391047Y-102449333D01*
X81200571Y-102449333D01*
X81105333Y-102496952D01*
X81057714Y-102544571D01*
X81010095Y-102639809D01*
X132243533Y-68251342D02*
X132195914Y-68298961D01*
X132053057Y-68346580D01*
X131957819Y-68346580D01*
X131814961Y-68298961D01*
X131719723Y-68203723D01*
X131672104Y-68108485D01*
X131624485Y-67918009D01*
X131624485Y-67775152D01*
X131672104Y-67584676D01*
X131719723Y-67489438D01*
X131814961Y-67394200D01*
X131957819Y-67346580D01*
X132053057Y-67346580D01*
X132195914Y-67394200D01*
X132243533Y-67441819D01*
X133100676Y-67679914D02*
X133100676Y-68346580D01*
X132862580Y-67298961D02*
X132624485Y-68013247D01*
X133243533Y-68013247D01*
X126833333Y-77827142D02*
X126785714Y-77874761D01*
X126642857Y-77922380D01*
X126547619Y-77922380D01*
X126404761Y-77874761D01*
X126309523Y-77779523D01*
X126261904Y-77684285D01*
X126214285Y-77493809D01*
X126214285Y-77350952D01*
X126261904Y-77160476D01*
X126309523Y-77065238D01*
X126404761Y-76970000D01*
X126547619Y-76922380D01*
X126642857Y-76922380D01*
X126785714Y-76970000D01*
X126833333Y-77017619D01*
X127690476Y-76922380D02*
X127500000Y-76922380D01*
X127404761Y-76970000D01*
X127357142Y-77017619D01*
X127261904Y-77160476D01*
X127214285Y-77350952D01*
X127214285Y-77731904D01*
X127261904Y-77827142D01*
X127309523Y-77874761D01*
X127404761Y-77922380D01*
X127595238Y-77922380D01*
X127690476Y-77874761D01*
X127738095Y-77827142D01*
X127785714Y-77731904D01*
X127785714Y-77493809D01*
X127738095Y-77398571D01*
X127690476Y-77350952D01*
X127595238Y-77303333D01*
X127404761Y-77303333D01*
X127309523Y-77350952D01*
X127261904Y-77398571D01*
X127214285Y-77493809D01*
X131430733Y-84399380D02*
X131097400Y-83923190D01*
X130859304Y-84399380D02*
X130859304Y-83399380D01*
X131240257Y-83399380D01*
X131335495Y-83447000D01*
X131383114Y-83494619D01*
X131430733Y-83589857D01*
X131430733Y-83732714D01*
X131383114Y-83827952D01*
X131335495Y-83875571D01*
X131240257Y-83923190D01*
X130859304Y-83923190D01*
X131764066Y-83399380D02*
X132383114Y-83399380D01*
X132049780Y-83780333D01*
X132192638Y-83780333D01*
X132287876Y-83827952D01*
X132335495Y-83875571D01*
X132383114Y-83970809D01*
X132383114Y-84208904D01*
X132335495Y-84304142D01*
X132287876Y-84351761D01*
X132192638Y-84399380D01*
X131906923Y-84399380D01*
X131811685Y-84351761D01*
X131764066Y-84304142D01*
X92067961Y-82716619D02*
X91972723Y-82669000D01*
X91877485Y-82573761D01*
X91734628Y-82430904D01*
X91639390Y-82383285D01*
X91544152Y-82383285D01*
X91591771Y-82621380D02*
X91496533Y-82573761D01*
X91401295Y-82478523D01*
X91353676Y-82288047D01*
X91353676Y-81954714D01*
X91401295Y-81764238D01*
X91496533Y-81669000D01*
X91591771Y-81621380D01*
X91782247Y-81621380D01*
X91877485Y-81669000D01*
X91972723Y-81764238D01*
X92020342Y-81954714D01*
X92020342Y-82288047D01*
X91972723Y-82478523D01*
X91877485Y-82573761D01*
X91782247Y-82621380D01*
X91591771Y-82621380D01*
X92972723Y-82621380D02*
X92401295Y-82621380D01*
X92687009Y-82621380D02*
X92687009Y-81621380D01*
X92591771Y-81764238D01*
X92496533Y-81859476D01*
X92401295Y-81907095D01*
X121600933Y-69921380D02*
X121267600Y-69445190D01*
X121029504Y-69921380D02*
X121029504Y-68921380D01*
X121410457Y-68921380D01*
X121505695Y-68969000D01*
X121553314Y-69016619D01*
X121600933Y-69111857D01*
X121600933Y-69254714D01*
X121553314Y-69349952D01*
X121505695Y-69397571D01*
X121410457Y-69445190D01*
X121029504Y-69445190D01*
X122077123Y-69921380D02*
X122267600Y-69921380D01*
X122362838Y-69873761D01*
X122410457Y-69826142D01*
X122505695Y-69683285D01*
X122553314Y-69492809D01*
X122553314Y-69111857D01*
X122505695Y-69016619D01*
X122458076Y-68969000D01*
X122362838Y-68921380D01*
X122172361Y-68921380D01*
X122077123Y-68969000D01*
X122029504Y-69016619D01*
X121981885Y-69111857D01*
X121981885Y-69349952D01*
X122029504Y-69445190D01*
X122077123Y-69492809D01*
X122172361Y-69540428D01*
X122362838Y-69540428D01*
X122458076Y-69492809D01*
X122505695Y-69445190D01*
X122553314Y-69349952D01*
X119927761Y-116022380D02*
X119594428Y-115546190D01*
X119356333Y-116022380D02*
X119356333Y-115022380D01*
X119737285Y-115022380D01*
X119832523Y-115070000D01*
X119880142Y-115117619D01*
X119927761Y-115212857D01*
X119927761Y-115355714D01*
X119880142Y-115450952D01*
X119832523Y-115498571D01*
X119737285Y-115546190D01*
X119356333Y-115546190D01*
X120213476Y-115022380D02*
X120546809Y-116022380D01*
X120880142Y-115022380D01*
X121165857Y-115117619D02*
X121213476Y-115070000D01*
X121308714Y-115022380D01*
X121546809Y-115022380D01*
X121642047Y-115070000D01*
X121689666Y-115117619D01*
X121737285Y-115212857D01*
X121737285Y-115308095D01*
X121689666Y-115450952D01*
X121118238Y-116022380D01*
X121737285Y-116022380D01*
X95424666Y-104437380D02*
X95424666Y-105151666D01*
X95377047Y-105294523D01*
X95281809Y-105389761D01*
X95138952Y-105437380D01*
X95043714Y-105437380D01*
X95805619Y-104437380D02*
X96424666Y-104437380D01*
X96091333Y-104818333D01*
X96234190Y-104818333D01*
X96329428Y-104865952D01*
X96377047Y-104913571D01*
X96424666Y-105008809D01*
X96424666Y-105246904D01*
X96377047Y-105342142D01*
X96329428Y-105389761D01*
X96234190Y-105437380D01*
X95948476Y-105437380D01*
X95853238Y-105389761D01*
X95805619Y-105342142D01*
X137450533Y-82145142D02*
X137402914Y-82192761D01*
X137260057Y-82240380D01*
X137164819Y-82240380D01*
X137021961Y-82192761D01*
X136926723Y-82097523D01*
X136879104Y-82002285D01*
X136831485Y-81811809D01*
X136831485Y-81668952D01*
X136879104Y-81478476D01*
X136926723Y-81383238D01*
X137021961Y-81288000D01*
X137164819Y-81240380D01*
X137260057Y-81240380D01*
X137402914Y-81288000D01*
X137450533Y-81335619D01*
X137783866Y-81240380D02*
X138402914Y-81240380D01*
X138069580Y-81621333D01*
X138212438Y-81621333D01*
X138307676Y-81668952D01*
X138355295Y-81716571D01*
X138402914Y-81811809D01*
X138402914Y-82049904D01*
X138355295Y-82145142D01*
X138307676Y-82192761D01*
X138212438Y-82240380D01*
X137926723Y-82240380D01*
X137831485Y-82192761D01*
X137783866Y-82145142D01*
X127889095Y-67524380D02*
X127889095Y-68333904D01*
X127936714Y-68429142D01*
X127984333Y-68476761D01*
X128079571Y-68524380D01*
X128270047Y-68524380D01*
X128365285Y-68476761D01*
X128412904Y-68429142D01*
X128460523Y-68333904D01*
X128460523Y-67524380D01*
X129460523Y-68524380D02*
X128889095Y-68524380D01*
X129174809Y-68524380D02*
X129174809Y-67524380D01*
X129079571Y-67667238D01*
X128984333Y-67762476D01*
X128889095Y-67810095D01*
X121132695Y-101585780D02*
X121132695Y-102395304D01*
X121180314Y-102490542D01*
X121227933Y-102538161D01*
X121323171Y-102585780D01*
X121513647Y-102585780D01*
X121608885Y-102538161D01*
X121656504Y-102490542D01*
X121704123Y-102395304D01*
X121704123Y-101585780D01*
X122227933Y-102585780D02*
X122418409Y-102585780D01*
X122513647Y-102538161D01*
X122561266Y-102490542D01*
X122656504Y-102347685D01*
X122704123Y-102157209D01*
X122704123Y-101776257D01*
X122656504Y-101681019D01*
X122608885Y-101633400D01*
X122513647Y-101585780D01*
X122323171Y-101585780D01*
X122227933Y-101633400D01*
X122180314Y-101681019D01*
X122132695Y-101776257D01*
X122132695Y-102014352D01*
X122180314Y-102109590D01*
X122227933Y-102157209D01*
X122323171Y-102204828D01*
X122513647Y-102204828D01*
X122608885Y-102157209D01*
X122656504Y-102109590D01*
X122704123Y-102014352D01*
X120010180Y-69324457D02*
X119533990Y-69657790D01*
X120010180Y-69895885D02*
X119010180Y-69895885D01*
X119010180Y-69514933D01*
X119057800Y-69419695D01*
X119105419Y-69372076D01*
X119200657Y-69324457D01*
X119343514Y-69324457D01*
X119438752Y-69372076D01*
X119486371Y-69419695D01*
X119533990Y-69514933D01*
X119533990Y-69895885D01*
X120010180Y-68372076D02*
X120010180Y-68943504D01*
X120010180Y-68657790D02*
X119010180Y-68657790D01*
X119153038Y-68753028D01*
X119248276Y-68848266D01*
X119295895Y-68943504D01*
X119343514Y-67514933D02*
X120010180Y-67514933D01*
X118962561Y-67753028D02*
X119676847Y-67991123D01*
X119676847Y-67372076D01*
X108518133Y-73988980D02*
X108184800Y-73512790D01*
X107946704Y-73988980D02*
X107946704Y-72988980D01*
X108327657Y-72988980D01*
X108422895Y-73036600D01*
X108470514Y-73084219D01*
X108518133Y-73179457D01*
X108518133Y-73322314D01*
X108470514Y-73417552D01*
X108422895Y-73465171D01*
X108327657Y-73512790D01*
X107946704Y-73512790D01*
X109089561Y-73417552D02*
X108994323Y-73369933D01*
X108946704Y-73322314D01*
X108899085Y-73227076D01*
X108899085Y-73179457D01*
X108946704Y-73084219D01*
X108994323Y-73036600D01*
X109089561Y-72988980D01*
X109280038Y-72988980D01*
X109375276Y-73036600D01*
X109422895Y-73084219D01*
X109470514Y-73179457D01*
X109470514Y-73227076D01*
X109422895Y-73322314D01*
X109375276Y-73369933D01*
X109280038Y-73417552D01*
X109089561Y-73417552D01*
X108994323Y-73465171D01*
X108946704Y-73512790D01*
X108899085Y-73608028D01*
X108899085Y-73798504D01*
X108946704Y-73893742D01*
X108994323Y-73941361D01*
X109089561Y-73988980D01*
X109280038Y-73988980D01*
X109375276Y-73941361D01*
X109422895Y-73893742D01*
X109470514Y-73798504D01*
X109470514Y-73608028D01*
X109422895Y-73512790D01*
X109375276Y-73465171D01*
X109280038Y-73417552D01*
X123302733Y-83211942D02*
X123255114Y-83259561D01*
X123112257Y-83307180D01*
X123017019Y-83307180D01*
X122874161Y-83259561D01*
X122778923Y-83164323D01*
X122731304Y-83069085D01*
X122683685Y-82878609D01*
X122683685Y-82735752D01*
X122731304Y-82545276D01*
X122778923Y-82450038D01*
X122874161Y-82354800D01*
X123017019Y-82307180D01*
X123112257Y-82307180D01*
X123255114Y-82354800D01*
X123302733Y-82402419D01*
X124255114Y-83307180D02*
X123683685Y-83307180D01*
X123969400Y-83307180D02*
X123969400Y-82307180D01*
X123874161Y-82450038D01*
X123778923Y-82545276D01*
X123683685Y-82592895D01*
X121092933Y-83205580D02*
X120759600Y-82729390D01*
X120521504Y-83205580D02*
X120521504Y-82205580D01*
X120902457Y-82205580D01*
X120997695Y-82253200D01*
X121045314Y-82300819D01*
X121092933Y-82396057D01*
X121092933Y-82538914D01*
X121045314Y-82634152D01*
X120997695Y-82681771D01*
X120902457Y-82729390D01*
X120521504Y-82729390D01*
X122045314Y-83205580D02*
X121473885Y-83205580D01*
X121759600Y-83205580D02*
X121759600Y-82205580D01*
X121664361Y-82348438D01*
X121569123Y-82443676D01*
X121473885Y-82491295D01*
X128992333Y-77827142D02*
X128944714Y-77874761D01*
X128801857Y-77922380D01*
X128706619Y-77922380D01*
X128563761Y-77874761D01*
X128468523Y-77779523D01*
X128420904Y-77684285D01*
X128373285Y-77493809D01*
X128373285Y-77350952D01*
X128420904Y-77160476D01*
X128468523Y-77065238D01*
X128563761Y-76970000D01*
X128706619Y-76922380D01*
X128801857Y-76922380D01*
X128944714Y-76970000D01*
X128992333Y-77017619D01*
X129897095Y-76922380D02*
X129420904Y-76922380D01*
X129373285Y-77398571D01*
X129420904Y-77350952D01*
X129516142Y-77303333D01*
X129754238Y-77303333D01*
X129849476Y-77350952D01*
X129897095Y-77398571D01*
X129944714Y-77493809D01*
X129944714Y-77731904D01*
X129897095Y-77827142D01*
X129849476Y-77874761D01*
X129754238Y-77922380D01*
X129516142Y-77922380D01*
X129420904Y-77874761D01*
X129373285Y-77827142D01*
X122983666Y-109263380D02*
X122983666Y-109977666D01*
X122936047Y-110120523D01*
X122840809Y-110215761D01*
X122697952Y-110263380D01*
X122602714Y-110263380D01*
X123888428Y-109263380D02*
X123697952Y-109263380D01*
X123602714Y-109311000D01*
X123555095Y-109358619D01*
X123459857Y-109501476D01*
X123412238Y-109691952D01*
X123412238Y-110072904D01*
X123459857Y-110168142D01*
X123507476Y-110215761D01*
X123602714Y-110263380D01*
X123793190Y-110263380D01*
X123888428Y-110215761D01*
X123936047Y-110168142D01*
X123983666Y-110072904D01*
X123983666Y-109834809D01*
X123936047Y-109739571D01*
X123888428Y-109691952D01*
X123793190Y-109644333D01*
X123602714Y-109644333D01*
X123507476Y-109691952D01*
X123459857Y-109739571D01*
X123412238Y-109834809D01*
X100457095Y-102576380D02*
X100457095Y-103385904D01*
X100504714Y-103481142D01*
X100552333Y-103528761D01*
X100647571Y-103576380D01*
X100838047Y-103576380D01*
X100933285Y-103528761D01*
X100980904Y-103481142D01*
X101028523Y-103385904D01*
X101028523Y-102576380D01*
X101647571Y-103004952D02*
X101552333Y-102957333D01*
X101504714Y-102909714D01*
X101457095Y-102814476D01*
X101457095Y-102766857D01*
X101504714Y-102671619D01*
X101552333Y-102624000D01*
X101647571Y-102576380D01*
X101838047Y-102576380D01*
X101933285Y-102624000D01*
X101980904Y-102671619D01*
X102028523Y-102766857D01*
X102028523Y-102814476D01*
X101980904Y-102909714D01*
X101933285Y-102957333D01*
X101838047Y-103004952D01*
X101647571Y-103004952D01*
X101552333Y-103052571D01*
X101504714Y-103100190D01*
X101457095Y-103195428D01*
X101457095Y-103385904D01*
X101504714Y-103481142D01*
X101552333Y-103528761D01*
X101647571Y-103576380D01*
X101838047Y-103576380D01*
X101933285Y-103528761D01*
X101980904Y-103481142D01*
X102028523Y-103385904D01*
X102028523Y-103195428D01*
X101980904Y-103100190D01*
X101933285Y-103052571D01*
X101838047Y-103004952D01*
X129373333Y-81256142D02*
X129325714Y-81303761D01*
X129182857Y-81351380D01*
X129087619Y-81351380D01*
X128944761Y-81303761D01*
X128849523Y-81208523D01*
X128801904Y-81113285D01*
X128754285Y-80922809D01*
X128754285Y-80779952D01*
X128801904Y-80589476D01*
X128849523Y-80494238D01*
X128944761Y-80399000D01*
X129087619Y-80351380D01*
X129182857Y-80351380D01*
X129325714Y-80399000D01*
X129373333Y-80446619D01*
X129754285Y-80446619D02*
X129801904Y-80399000D01*
X129897142Y-80351380D01*
X130135238Y-80351380D01*
X130230476Y-80399000D01*
X130278095Y-80446619D01*
X130325714Y-80541857D01*
X130325714Y-80637095D01*
X130278095Y-80779952D01*
X129706666Y-81351380D01*
X130325714Y-81351380D01*
X129373333Y-83256380D02*
X129040000Y-82780190D01*
X128801904Y-83256380D02*
X128801904Y-82256380D01*
X129182857Y-82256380D01*
X129278095Y-82304000D01*
X129325714Y-82351619D01*
X129373333Y-82446857D01*
X129373333Y-82589714D01*
X129325714Y-82684952D01*
X129278095Y-82732571D01*
X129182857Y-82780190D01*
X128801904Y-82780190D01*
X129754285Y-82351619D02*
X129801904Y-82304000D01*
X129897142Y-82256380D01*
X130135238Y-82256380D01*
X130230476Y-82304000D01*
X130278095Y-82351619D01*
X130325714Y-82446857D01*
X130325714Y-82542095D01*
X130278095Y-82684952D01*
X129706666Y-83256380D01*
X130325714Y-83256380D01*
X111974333Y-71731142D02*
X111926714Y-71778761D01*
X111783857Y-71826380D01*
X111688619Y-71826380D01*
X111545761Y-71778761D01*
X111450523Y-71683523D01*
X111402904Y-71588285D01*
X111355285Y-71397809D01*
X111355285Y-71254952D01*
X111402904Y-71064476D01*
X111450523Y-70969238D01*
X111545761Y-70874000D01*
X111688619Y-70826380D01*
X111783857Y-70826380D01*
X111926714Y-70874000D01*
X111974333Y-70921619D01*
X112450523Y-71826380D02*
X112641000Y-71826380D01*
X112736238Y-71778761D01*
X112783857Y-71731142D01*
X112879095Y-71588285D01*
X112926714Y-71397809D01*
X112926714Y-71016857D01*
X112879095Y-70921619D01*
X112831476Y-70874000D01*
X112736238Y-70826380D01*
X112545761Y-70826380D01*
X112450523Y-70874000D01*
X112402904Y-70921619D01*
X112355285Y-71016857D01*
X112355285Y-71254952D01*
X112402904Y-71350190D01*
X112450523Y-71397809D01*
X112545761Y-71445428D01*
X112736238Y-71445428D01*
X112831476Y-71397809D01*
X112879095Y-71350190D01*
X112926714Y-71254952D01*
X116586095Y-80859380D02*
X116586095Y-81668904D01*
X116633714Y-81764142D01*
X116681333Y-81811761D01*
X116776571Y-81859380D01*
X116967047Y-81859380D01*
X117062285Y-81811761D01*
X117109904Y-81764142D01*
X117157523Y-81668904D01*
X117157523Y-80859380D01*
X118109904Y-80859380D02*
X117633714Y-80859380D01*
X117586095Y-81335571D01*
X117633714Y-81287952D01*
X117728952Y-81240333D01*
X117967047Y-81240333D01*
X118062285Y-81287952D01*
X118109904Y-81335571D01*
X118157523Y-81430809D01*
X118157523Y-81668904D01*
X118109904Y-81764142D01*
X118062285Y-81811761D01*
X117967047Y-81859380D01*
X117728952Y-81859380D01*
X117633714Y-81811761D01*
X117586095Y-81764142D01*
X135715361Y-116098580D02*
X135382028Y-115622390D01*
X135143933Y-116098580D02*
X135143933Y-115098580D01*
X135524885Y-115098580D01*
X135620123Y-115146200D01*
X135667742Y-115193819D01*
X135715361Y-115289057D01*
X135715361Y-115431914D01*
X135667742Y-115527152D01*
X135620123Y-115574771D01*
X135524885Y-115622390D01*
X135143933Y-115622390D01*
X136001076Y-115098580D02*
X136334409Y-116098580D01*
X136667742Y-115098580D01*
X136905838Y-115098580D02*
X137524885Y-115098580D01*
X137191552Y-115479533D01*
X137334409Y-115479533D01*
X137429647Y-115527152D01*
X137477266Y-115574771D01*
X137524885Y-115670009D01*
X137524885Y-115908104D01*
X137477266Y-116003342D01*
X137429647Y-116050961D01*
X137334409Y-116098580D01*
X137048695Y-116098580D01*
X136953457Y-116050961D01*
X136905838Y-116003342D01*
X122856666Y-104056380D02*
X122856666Y-104770666D01*
X122809047Y-104913523D01*
X122713809Y-105008761D01*
X122570952Y-105056380D01*
X122475714Y-105056380D01*
X123761428Y-104389714D02*
X123761428Y-105056380D01*
X123523333Y-104008761D02*
X123285238Y-104723047D01*
X123904285Y-104723047D01*
X141097095Y-75830180D02*
X141097095Y-76639704D01*
X141144714Y-76734942D01*
X141192333Y-76782561D01*
X141287571Y-76830180D01*
X141478047Y-76830180D01*
X141573285Y-76782561D01*
X141620904Y-76734942D01*
X141668523Y-76639704D01*
X141668523Y-75830180D01*
X142097095Y-75925419D02*
X142144714Y-75877800D01*
X142239952Y-75830180D01*
X142478047Y-75830180D01*
X142573285Y-75877800D01*
X142620904Y-75925419D01*
X142668523Y-76020657D01*
X142668523Y-76115895D01*
X142620904Y-76258752D01*
X142049476Y-76830180D01*
X142668523Y-76830180D01*
X97728161Y-115996980D02*
X97394828Y-115520790D01*
X97156733Y-115996980D02*
X97156733Y-114996980D01*
X97537685Y-114996980D01*
X97632923Y-115044600D01*
X97680542Y-115092219D01*
X97728161Y-115187457D01*
X97728161Y-115330314D01*
X97680542Y-115425552D01*
X97632923Y-115473171D01*
X97537685Y-115520790D01*
X97156733Y-115520790D01*
X98013876Y-114996980D02*
X98347209Y-115996980D01*
X98680542Y-114996980D01*
X99537685Y-115996980D02*
X98966257Y-115996980D01*
X99251971Y-115996980D02*
X99251971Y-114996980D01*
X99156733Y-115139838D01*
X99061495Y-115235076D01*
X98966257Y-115282695D01*
X112310942Y-69413380D02*
X111977609Y-68937190D01*
X111739514Y-69413380D02*
X111739514Y-68413380D01*
X112120466Y-68413380D01*
X112215704Y-68461000D01*
X112263323Y-68508619D01*
X112310942Y-68603857D01*
X112310942Y-68746714D01*
X112263323Y-68841952D01*
X112215704Y-68889571D01*
X112120466Y-68937190D01*
X111739514Y-68937190D01*
X113263323Y-69413380D02*
X112691895Y-69413380D01*
X112977609Y-69413380D02*
X112977609Y-68413380D01*
X112882371Y-68556238D01*
X112787133Y-68651476D01*
X112691895Y-68699095D01*
X113596657Y-68413380D02*
X114215704Y-68413380D01*
X113882371Y-68794333D01*
X114025228Y-68794333D01*
X114120466Y-68841952D01*
X114168085Y-68889571D01*
X114215704Y-68984809D01*
X114215704Y-69222904D01*
X114168085Y-69318142D01*
X114120466Y-69365761D01*
X114025228Y-69413380D01*
X113739514Y-69413380D01*
X113644276Y-69365761D01*
X113596657Y-69318142D01*
X124801333Y-70124580D02*
X124468000Y-69648390D01*
X124229904Y-70124580D02*
X124229904Y-69124580D01*
X124610857Y-69124580D01*
X124706095Y-69172200D01*
X124753714Y-69219819D01*
X124801333Y-69315057D01*
X124801333Y-69457914D01*
X124753714Y-69553152D01*
X124706095Y-69600771D01*
X124610857Y-69648390D01*
X124229904Y-69648390D01*
X125658476Y-69457914D02*
X125658476Y-70124580D01*
X125420380Y-69076961D02*
X125182285Y-69791247D01*
X125801333Y-69791247D01*
X110642495Y-73696580D02*
X110642495Y-74506104D01*
X110690114Y-74601342D01*
X110737733Y-74648961D01*
X110832971Y-74696580D01*
X111023447Y-74696580D01*
X111118685Y-74648961D01*
X111166304Y-74601342D01*
X111213923Y-74506104D01*
X111213923Y-73696580D01*
X112118685Y-74029914D02*
X112118685Y-74696580D01*
X111880590Y-73648961D02*
X111642495Y-74363247D01*
X112261542Y-74363247D01*
X85971071Y-115244428D02*
X85971071Y-115577761D01*
X86494880Y-115577761D02*
X85494880Y-115577761D01*
X85494880Y-115101571D01*
X86494880Y-114720619D02*
X85494880Y-114720619D01*
X86494880Y-114244428D02*
X85494880Y-114244428D01*
X85494880Y-114006333D01*
X85542500Y-113863476D01*
X85637738Y-113768238D01*
X85732976Y-113720619D01*
X85923452Y-113673000D01*
X86066309Y-113673000D01*
X86256785Y-113720619D01*
X86352023Y-113768238D01*
X86447261Y-113863476D01*
X86494880Y-114006333D01*
X86494880Y-114244428D01*
X86494880Y-112720619D02*
X86494880Y-113292047D01*
X86494880Y-113006333D02*
X85494880Y-113006333D01*
X85637738Y-113101571D01*
X85732976Y-113196809D01*
X85780595Y-113292047D01*
D15*
X86335000Y-106140600D02*
X86335000Y-106140600D01*
X86335000Y-106340600D02*
X86335000Y-106340600D01*
D16*
X88035000Y-106340600D02*
X91035000Y-106340600D01*
X88035000Y-111540600D02*
X91035000Y-111540600D01*
X86935000Y-108440600D02*
X86935000Y-109440600D01*
X92135000Y-108440600D02*
X92135000Y-109440600D01*
D15*
X86335000Y-106140600D02*
G75*
G03*
X86335000Y-106340600I0J-100000D01*
G01*
X86335000Y-106340600D02*
G75*
G03*
X86335000Y-106140600I0J100000D01*
G01*
G36*
X138831439Y-109656166D02*
G01*
X138831439Y-108676083D01*
X139104291Y-108676083D01*
X139126119Y-109036247D01*
X139191603Y-109383314D01*
X142291197Y-109383314D01*
X142339704Y-109142720D01*
X142368808Y-108898245D01*
X142378509Y-108649889D01*
X142351831Y-108340415D01*
X142271794Y-108087209D01*
X142138400Y-107890270D01*
X141951648Y-107749600D01*
X141711539Y-107665198D01*
X141418072Y-107637064D01*
X141125575Y-107679083D01*
X140876734Y-107805141D01*
X140694470Y-107994500D01*
X140601700Y-108226423D01*
X140597334Y-108226423D01*
X140507839Y-108021785D01*
X140352859Y-107861894D01*
X140145492Y-107758756D01*
X139898834Y-107724377D01*
X139612799Y-107762445D01*
X139390326Y-107876650D01*
X139231418Y-108066991D01*
X139136072Y-108333469D01*
X139104291Y-108676083D01*
X138831439Y-108676083D01*
X138831439Y-107135017D01*
X139147947Y-107135017D01*
X142334853Y-107135017D01*
X142334853Y-105607048D01*
X141955044Y-105607048D01*
X141955044Y-106646067D01*
X140806884Y-106646067D01*
X140806884Y-105650705D01*
X140435806Y-105650705D01*
X140435806Y-106646067D01*
X139527756Y-106646067D01*
X139527756Y-105607048D01*
X139147947Y-105607048D01*
X139147947Y-107135017D01*
X138831439Y-107135017D01*
X138831439Y-104939108D01*
X139147947Y-104939108D01*
X139527756Y-104939108D01*
X139527756Y-104450158D01*
X141955044Y-104450158D01*
X141955044Y-104939108D01*
X142334853Y-104939108D01*
X142334853Y-103454795D01*
X141955044Y-103454795D01*
X141955044Y-103943745D01*
X139527756Y-103943745D01*
X139527756Y-103454795D01*
X139147947Y-103454795D01*
X139147947Y-104939108D01*
X138831439Y-104939108D01*
X138831439Y-102302270D01*
X139147947Y-102302270D01*
X142334853Y-103053158D01*
X142334853Y-102564208D01*
X141496653Y-102398314D01*
X141496653Y-101651792D01*
X142334853Y-101485898D01*
X142334853Y-100979486D01*
X139147947Y-101734739D01*
X139147947Y-102302270D01*
X138831439Y-102302270D01*
X138831439Y-100706634D01*
X142651361Y-100706634D01*
X142651361Y-109656166D01*
X138831439Y-109656166D01*
G37*
G36*
X141125575Y-102324098D02*
G01*
X139628166Y-102027236D01*
X139628166Y-102022870D01*
X141125575Y-101726008D01*
X141125575Y-102324098D01*
G37*
G36*
X141677281Y-108146205D02*
G01*
X141861183Y-108246069D01*
X141967595Y-108413600D01*
X142003066Y-108649889D01*
X141968141Y-108894364D01*
X140806884Y-108894364D01*
X140806884Y-108711008D01*
X140842901Y-108442522D01*
X140950950Y-108256983D01*
X141137580Y-108148934D01*
X141409341Y-108112917D01*
X141677281Y-108146205D01*
G37*
G36*
X140159135Y-108226423D02*
G01*
X140315752Y-108331198D01*
X140405793Y-108510189D01*
X140435806Y-108767761D01*
X140435806Y-108894364D01*
X139514659Y-108894364D01*
X139479734Y-108676083D01*
X139529697Y-108406869D01*
X139679583Y-108245341D01*
X139929394Y-108191498D01*
X140159135Y-108226423D01*
G37*
D17*
X81027536Y-107392800D02*
X81481664Y-107392800D01*
X81027536Y-108862800D02*
X81481664Y-108862800D01*
X81481664Y-106780000D02*
X81027536Y-106780000D01*
X81481664Y-105310000D02*
X81027536Y-105310000D01*
X84140800Y-76037000D02*
X84140800Y-72137000D01*
X84140800Y-76037000D02*
X86140800Y-76037000D01*
X86140800Y-76037000D02*
X86140800Y-72137000D01*
X99090200Y-83896200D02*
X99710200Y-83896200D01*
X99090200Y-83896200D02*
G75*
G03*
X99090200Y-83896200I-920000J0D01*
G01*
X94945200Y-83063600D02*
X94945200Y-83683600D01*
X95865200Y-82143600D02*
G75*
G03*
X95865200Y-82143600I-920000J0D01*
G01*
X83491400Y-107694464D02*
X83491400Y-107240336D01*
X84961400Y-107694464D02*
X84961400Y-107240336D01*
X101051000Y-73290000D02*
X101051000Y-70340000D01*
X97831000Y-71490000D02*
X97831000Y-73290000D01*
X92878000Y-71617000D02*
X92878000Y-74067000D01*
X96098000Y-73417000D02*
X96098000Y-71617000D01*
X108824536Y-84097800D02*
X109278664Y-84097800D01*
X108824536Y-82627800D02*
X109278664Y-82627800D01*
X104735536Y-82624400D02*
X105189664Y-82624400D01*
X104735536Y-84094400D02*
X105189664Y-84094400D01*
X98706000Y-77443064D02*
X98706000Y-76988936D01*
X100176000Y-77443064D02*
X100176000Y-76988936D01*
X96223064Y-76808000D02*
X95768936Y-76808000D01*
X96223064Y-75338000D02*
X95768936Y-75338000D01*
X95800936Y-77497000D02*
X96255064Y-77497000D01*
X95800936Y-78967000D02*
X96255064Y-78967000D01*
X86935000Y-68189000D02*
X86935000Y-73289000D01*
X92135000Y-68189000D02*
X92135000Y-73289000D01*
X79950000Y-76514000D02*
X82610000Y-76514000D01*
X79950000Y-71374000D02*
X79950000Y-76514000D01*
X79950000Y-70104000D02*
X79950000Y-68774000D01*
X82610000Y-71374000D02*
X82610000Y-76514000D01*
X79950000Y-68774000D02*
X81280000Y-68774000D01*
X79950000Y-71374000D02*
X82610000Y-71374000D01*
X79950000Y-85785000D02*
X82610000Y-85785000D01*
X79950000Y-80645000D02*
X79950000Y-85785000D01*
X79950000Y-79375000D02*
X79950000Y-78045000D01*
X82610000Y-80645000D02*
X82610000Y-85785000D01*
X79950000Y-78045000D02*
X81280000Y-78045000D01*
X79950000Y-80645000D02*
X82610000Y-80645000D01*
X89424000Y-78323000D02*
X89424000Y-74423000D01*
X89424000Y-78323000D02*
X91424000Y-78323000D01*
X91424000Y-78323000D02*
X91424000Y-74423000D01*
X83582000Y-84419000D02*
X83582000Y-80519000D01*
X83582000Y-84419000D02*
X85582000Y-84419000D01*
X85582000Y-84419000D02*
X85582000Y-80519000D01*
X93572000Y-76827748D02*
X93572000Y-77350252D01*
X92102000Y-76827748D02*
X92102000Y-77350252D01*
X94876252Y-69569000D02*
X94353748Y-69569000D01*
X94876252Y-68099000D02*
X94353748Y-68099000D01*
X94261000Y-112529252D02*
X94261000Y-112006748D01*
X95731000Y-112529252D02*
X95731000Y-112006748D01*
X119650200Y-74946200D02*
X119650200Y-77606200D01*
X124850200Y-74946200D02*
X124850200Y-76276200D01*
X122250200Y-74946200D02*
X119650200Y-74946200D01*
X123520200Y-74946200D02*
X124850200Y-74946200D01*
X122250200Y-74946200D02*
X122250200Y-77606200D01*
X122250200Y-77606200D02*
X119650200Y-77606200D01*
X98848000Y-95065000D02*
G75*
G03*
X98848000Y-95065000I-9625000J0D01*
G01*
X133297600Y-70223748D02*
X133297600Y-70746252D01*
X131827600Y-70223748D02*
X131827600Y-70746252D01*
X126341200Y-74886452D02*
X126341200Y-74363948D01*
X127811200Y-74886452D02*
X127811200Y-74363948D01*
X134237400Y-82653136D02*
X134237400Y-83107264D01*
X132767400Y-82653136D02*
X132767400Y-83107264D01*
X86237200Y-80369000D02*
X86237200Y-83969000D01*
X90537200Y-81349000D02*
G75*
G03*
X86245459Y-80357125I-2450000J-820000D01*
G01*
X86259516Y-83977445D02*
G75*
G03*
X90537200Y-82949000I1827684J1808445D01*
G01*
X120169000Y-71797936D02*
X120169000Y-72252064D01*
X121639000Y-71797936D02*
X121639000Y-72252064D01*
X120458000Y-110769000D02*
G75*
G03*
X120458000Y-110769000I-5270000J0D01*
G01*
X94428000Y-108585000D02*
X94428000Y-108645000D01*
X94428000Y-107315000D02*
X94428000Y-105985000D01*
X94428000Y-108645000D02*
X97088000Y-108645000D01*
X94428000Y-105985000D02*
X95758000Y-105985000D01*
X97088000Y-108585000D02*
X97088000Y-108645000D01*
X94428000Y-108585000D02*
X97088000Y-108585000D01*
X134901000Y-83141452D02*
X134901000Y-82618948D01*
X136371000Y-83141452D02*
X136371000Y-82618948D01*
X129387600Y-72045000D02*
X128737600Y-72045000D01*
X129387600Y-72045000D02*
X131062600Y-72045000D01*
X129387600Y-68925000D02*
X130037600Y-68925000D01*
X129387600Y-68925000D02*
X128737600Y-68925000D01*
X139996000Y-94938000D02*
G75*
G03*
X139996000Y-94938000I-9625000J0D01*
G01*
X117114336Y-70359600D02*
X117568464Y-70359600D01*
X117114336Y-71829600D02*
X117568464Y-71829600D01*
X105462336Y-72772600D02*
X105916464Y-72772600D01*
X105462336Y-74242600D02*
X105916464Y-74242600D01*
X124157900Y-79901148D02*
X124157900Y-80423652D01*
X122687900Y-79901148D02*
X122687900Y-80423652D01*
X121948100Y-79913836D02*
X121948100Y-80367964D01*
X120478100Y-79913836D02*
X120478100Y-80367964D01*
X129894000Y-74886452D02*
X129894000Y-74363948D01*
X128424000Y-74886452D02*
X128424000Y-74363948D01*
X121987000Y-110811000D02*
X123317000Y-110811000D01*
X121987000Y-113411000D02*
X124647000Y-113411000D01*
X121987000Y-113411000D02*
X121987000Y-113471000D01*
X121987000Y-113471000D02*
X124647000Y-113471000D01*
X124647000Y-113411000D02*
X124647000Y-113471000D01*
X121987000Y-112141000D02*
X121987000Y-110811000D01*
X119226000Y-95250000D02*
G75*
G03*
X119226000Y-95250000I-9625000J0D01*
G01*
X126880252Y-81456200D02*
X126357748Y-81456200D01*
X126880252Y-79986200D02*
X126357748Y-79986200D01*
X126858164Y-82069000D02*
X126404036Y-82069000D01*
X126858164Y-83539000D02*
X126404036Y-83539000D01*
X114968200Y-72128748D02*
X114968200Y-72651252D01*
X113498200Y-72128748D02*
X113498200Y-72651252D01*
X118824400Y-76377800D02*
X118824400Y-74177800D01*
X115604400Y-76377800D02*
X115604400Y-79977800D01*
X115604400Y-76377800D02*
X115604400Y-74177800D01*
X118824400Y-76377800D02*
X118824400Y-78577800D01*
X136232000Y-110872000D02*
G75*
G03*
X136232000Y-110872000I-5270000J0D01*
G01*
X121860000Y-106934000D02*
X121860000Y-105604000D01*
X121860000Y-108204000D02*
X121860000Y-108264000D01*
X124520000Y-108204000D02*
X124520000Y-108264000D01*
X121860000Y-105604000D02*
X123190000Y-105604000D01*
X121860000Y-108204000D02*
X124520000Y-108204000D01*
X121860000Y-108264000D02*
X124520000Y-108264000D01*
X140594400Y-76377800D02*
X140594400Y-78327800D01*
X130474400Y-76377800D02*
X130474400Y-79827800D01*
X130474400Y-76377800D02*
X130474400Y-74427800D01*
X140594400Y-76377800D02*
X140594400Y-74427800D01*
X108419000Y-110745000D02*
G75*
G03*
X108419000Y-110745000I-5270000J0D01*
G01*
X116139736Y-68226000D02*
X116593864Y-68226000D01*
X116139736Y-69696000D02*
X116593864Y-69696000D01*
X125703000Y-72035936D02*
X125703000Y-72490064D01*
X124233000Y-72035936D02*
X124233000Y-72490064D01*
X102367600Y-80851600D02*
X102367600Y-75111600D01*
X102087600Y-81141600D02*
X102087600Y-79531600D01*
X102087600Y-81141600D02*
X104087600Y-81141600D01*
X114627600Y-75101600D02*
X114627600Y-80861600D01*
X102367600Y-75101600D02*
X114627600Y-75101600D01*
X114627600Y-80861600D02*
X102377600Y-80861600D01*
%LPC*%
D18*
X86535000Y-107090600D03*
X92535000Y-107090600D03*
X86535000Y-110790600D03*
X92535000Y-110790600D03*
D19*
X80254600Y-108127800D03*
X82254600Y-108127800D03*
D20*
X82254600Y-106045000D03*
X80254600Y-106045000D03*
D21*
X85140800Y-75437000D03*
X85140800Y-72137000D03*
D22*
X98170200Y-83896200D03*
D23*
X100710200Y-83896200D03*
D22*
X94945200Y-82143600D03*
D23*
X94945200Y-84683600D03*
D24*
X84226400Y-108467400D03*
X84226400Y-106467400D03*
D25*
X100391000Y-73740000D03*
X99441000Y-73740000D03*
X98491000Y-73740000D03*
X98491000Y-71040000D03*
X99441000Y-71040000D03*
X100391000Y-71040000D03*
X93538000Y-73867000D03*
X94488000Y-73867000D03*
X95438000Y-73867000D03*
X95438000Y-71167000D03*
X93538000Y-71167000D03*
D19*
X110051600Y-83362800D03*
X108051600Y-83362800D03*
X103962600Y-83359400D03*
X105962600Y-83359400D03*
D24*
X99441000Y-78216000D03*
X99441000Y-76216000D03*
D20*
X96996000Y-76073000D03*
X94996000Y-76073000D03*
D19*
X95028000Y-78232000D03*
X97028000Y-78232000D03*
D26*
X89535000Y-68939000D03*
X89535000Y-72539000D03*
D27*
X81280000Y-70104000D03*
D28*
X81280000Y-72644000D03*
X81280000Y-75184000D03*
D27*
X81280000Y-79375000D03*
D28*
X81280000Y-81915000D03*
X81280000Y-84455000D03*
D21*
X90424000Y-77723000D03*
X90424000Y-74423000D03*
X84582000Y-83819000D03*
X84582000Y-80519000D03*
D29*
X92837000Y-76051500D03*
X92837000Y-78126500D03*
D30*
X95652500Y-68834000D03*
X93577500Y-68834000D03*
D31*
X94996000Y-113305500D03*
X94996000Y-111230500D03*
D32*
X82040000Y-64310000D03*
D33*
X140040000Y-64330000D03*
X82040000Y-113320000D03*
X140030000Y-113310000D03*
D27*
X123520200Y-76276200D03*
D28*
X120980200Y-76276200D03*
D34*
X92583000Y-98425000D03*
D35*
X93973000Y-95065000D03*
X92583000Y-91705000D03*
X85863000Y-91705000D03*
X84473000Y-95065000D03*
X85863000Y-98425000D03*
D29*
X132562600Y-69447500D03*
X132562600Y-71522500D03*
D31*
X127076200Y-75662700D03*
X127076200Y-73587700D03*
D36*
X133502400Y-81880200D03*
X133502400Y-83880200D03*
D37*
X87687200Y-80854000D03*
D38*
X90238200Y-82169000D03*
X87687200Y-83504000D03*
D36*
X120904000Y-71025000D03*
X120904000Y-73025000D03*
D39*
X117689000Y-108269000D03*
X112689000Y-110769000D03*
X117689000Y-113269000D03*
D27*
X95758000Y-107315000D03*
D31*
X135636000Y-83917700D03*
X135636000Y-81842700D03*
D40*
X130325100Y-71435000D03*
X130325100Y-69535000D03*
X128450100Y-70485000D03*
D34*
X133731000Y-98298000D03*
D35*
X135121000Y-94938000D03*
X133731000Y-91578000D03*
X127011000Y-91578000D03*
X125621000Y-94938000D03*
X127011000Y-98298000D03*
D19*
X116341400Y-71094600D03*
X118341400Y-71094600D03*
X104689400Y-73507600D03*
X106689400Y-73507600D03*
D29*
X123422900Y-79124900D03*
X123422900Y-81199900D03*
D36*
X121213100Y-79140900D03*
X121213100Y-81140900D03*
D31*
X129159000Y-75662700D03*
X129159000Y-73587700D03*
D27*
X123317000Y-112141000D03*
D34*
X112961000Y-98610000D03*
D35*
X114351000Y-95250000D03*
X112961000Y-91890000D03*
X106241000Y-91890000D03*
X104851000Y-95250000D03*
X106241000Y-98610000D03*
D30*
X127656500Y-80721200D03*
X125581500Y-80721200D03*
D20*
X127631100Y-82804000D03*
X125631100Y-82804000D03*
D29*
X114233200Y-71352500D03*
X114233200Y-73427500D03*
D41*
X116239400Y-79240300D03*
X116889400Y-79240300D03*
X117539400Y-79240300D03*
X118189400Y-79240300D03*
X118189400Y-73515300D03*
X117539400Y-73515300D03*
X116889400Y-73515300D03*
X116239400Y-73515300D03*
D39*
X128462000Y-108371000D03*
X130962000Y-113371000D03*
X133462000Y-108371000D03*
D27*
X123190000Y-106934000D03*
D42*
X131089400Y-78852800D03*
X132359400Y-78852800D03*
X133629400Y-78852800D03*
X134899400Y-78852800D03*
X136169400Y-78852800D03*
X137439400Y-78852800D03*
X138709400Y-78852800D03*
X139979400Y-78852800D03*
X139979400Y-73902800D03*
X138709400Y-73902800D03*
X137439400Y-73902800D03*
X136169400Y-73902800D03*
X134899400Y-73902800D03*
X133629400Y-73902800D03*
X132359400Y-73902800D03*
X131089400Y-73902800D03*
D39*
X100649000Y-108244000D03*
X103149000Y-113244000D03*
X105649000Y-108244000D03*
D19*
X115366800Y-68961000D03*
X117366800Y-68961000D03*
D36*
X124968000Y-71263000D03*
X124968000Y-73263000D03*
D43*
X104687600Y-77981600D03*
D32*
X107227600Y-77981600D03*
X109767600Y-77981600D03*
X112307600Y-77981600D03*
D33*
X88519000Y-114173000D03*
D44*
X86920000Y-65590000D03*
D28*
X86920000Y-63050000D03*
X89460000Y-65590000D03*
X89460000Y-63050000D03*
X92000000Y-65590000D03*
X92000000Y-63050000D03*
X94540000Y-65590000D03*
X94540000Y-63050000D03*
X97080000Y-65590000D03*
X97080000Y-63050000D03*
X99620000Y-65590000D03*
X99620000Y-63050000D03*
X102160000Y-65590000D03*
X102160000Y-63050000D03*
X104700000Y-65590000D03*
X104700000Y-63050000D03*
X107240000Y-65590000D03*
X107240000Y-63050000D03*
X109780000Y-65590000D03*
X109780000Y-63050000D03*
X112320000Y-65590000D03*
X112320000Y-63050000D03*
X114860000Y-65590000D03*
X114860000Y-63050000D03*
X117400000Y-65590000D03*
X117400000Y-63050000D03*
X119940000Y-65590000D03*
X119940000Y-63050000D03*
X122480000Y-65590000D03*
X122480000Y-63050000D03*
X125020000Y-65590000D03*
X125020000Y-63050000D03*
X127560000Y-65590000D03*
X127560000Y-63050000D03*
X130100000Y-65590000D03*
X130100000Y-63050000D03*
X132640000Y-65590000D03*
X132640000Y-63050000D03*
X135180000Y-65590000D03*
X135180000Y-63050000D03*
M02*
