%TF.GenerationSoftware,KiCad,Pcbnew,(5.1.10)-1*%
%TF.CreationDate,2021-07-21T08:52:03+03:00*%
%TF.ProjectId,SGX-CH4-sensor_v2,5347582d-4348-4342-9d73-656e736f725f,rev?*%
%TF.SameCoordinates,Original*%
%TF.FileFunction,Copper,L1,Top*%
%TF.FilePolarity,Positive*%
%FSLAX46Y46*%
G04 Gerber Fmt 4.6, Leading zero omitted, Abs format (unit mm)*
G04 Created by KiCad (PCBNEW (5.1.10)-1) date 2021-07-21 08:52:03*
%MOMM*%
%LPD*%
G01*
G04 APERTURE LIST*
%TA.AperFunction,ComponentPad*%
%ADD10R,1.600000X1.600000*%
%TD*%
%TA.AperFunction,ComponentPad*%
%ADD11O,1.600000X1.600000*%
%TD*%
%TA.AperFunction,ComponentPad*%
%ADD12C,3.500000*%
%TD*%
%TA.AperFunction,ComponentPad*%
%ADD13C,1.524000*%
%TD*%
%TA.AperFunction,ComponentPad*%
%ADD14C,1.270000*%
%TD*%
%TA.AperFunction,ComponentPad*%
%ADD15C,1.600000*%
%TD*%
%TA.AperFunction,ComponentPad*%
%ADD16R,1.700000X1.700000*%
%TD*%
%TA.AperFunction,ComponentPad*%
%ADD17O,1.700000X1.700000*%
%TD*%
%TA.AperFunction,ViaPad*%
%ADD18C,1.200000*%
%TD*%
%TA.AperFunction,Conductor*%
%ADD19C,1.500000*%
%TD*%
%TA.AperFunction,Conductor*%
%ADD20C,1.000000*%
%TD*%
%TA.AperFunction,Conductor*%
%ADD21C,0.500000*%
%TD*%
G04 APERTURE END LIST*
D10*
%TO.P,D1,1*%
%TO.N,Net-(C1-Pad1)*%
X106273600Y-93116400D03*
D11*
%TO.P,D1,2*%
%TO.N,Net-(C1-Pad2)*%
X98653600Y-93116400D03*
%TD*%
%TO.P,D2,2*%
%TO.N,Net-(C1-Pad2)*%
X98729800Y-96901000D03*
D10*
%TO.P,D2,1*%
%TO.N,Net-(C1-Pad1)*%
X106349800Y-96901000D03*
%TD*%
%TO.P,D3,1*%
%TO.N,Net-(C1-Pad1)*%
X106349800Y-100380800D03*
D11*
%TO.P,D3,2*%
%TO.N,Net-(C1-Pad2)*%
X98729800Y-100380800D03*
%TD*%
D12*
%TO.P,U2,2*%
%TO.N,Net-(C1-Pad1)*%
X103380000Y-57460000D03*
%TO.P,U2,4*%
%TO.N,Net-(J1-Pad6)*%
X99580000Y-65335000D03*
%TO.P,U2,3*%
%TO.N,Net-(C1-Pad2)*%
X103380000Y-62540000D03*
%TO.P,U2,5*%
%TO.N,Net-(U1-Pad3)*%
X95760000Y-60000000D03*
D13*
%TO.P,U2,P1*%
%TO.N,N/C*%
X100000000Y-60000000D03*
D12*
%TO.P,U2,1*%
%TO.N,Net-(J1-Pad5)*%
X99580000Y-54665000D03*
%TD*%
D14*
%TO.P,F1,2*%
%TO.N,Net-(C1-Pad1)*%
X105455400Y-104927600D03*
%TO.P,F1,1*%
%TO.N,Net-(F1-Pad1)*%
X100355400Y-106527600D03*
%TD*%
D15*
%TO.P,C1,1*%
%TO.N,Net-(C1-Pad1)*%
X95935800Y-108000800D03*
%TO.P,C1,2*%
%TO.N,Net-(C1-Pad2)*%
X92400266Y-104465266D03*
%TD*%
%TO.P,C2,1*%
%TO.N,Net-(C1-Pad2)*%
X102412800Y-68859400D03*
%TO.P,C2,2*%
%TO.N,Net-(C1-Pad1)*%
X97412800Y-68859400D03*
%TD*%
D16*
%TO.P,J1,1*%
%TO.N,Net-(J1-Pad1)*%
X93116400Y-95148400D03*
D17*
%TO.P,J1,2*%
%TO.N,Net-(C1-Pad2)*%
X95656400Y-95148400D03*
%TO.P,J1,3*%
%TO.N,Net-(F1-Pad1)*%
X93116400Y-97688400D03*
%TO.P,J1,4*%
%TO.N,Net-(J1-Pad1)*%
X95656400Y-97688400D03*
%TO.P,J1,5*%
%TO.N,Net-(J1-Pad5)*%
X93116400Y-100228400D03*
%TO.P,J1,6*%
%TO.N,Net-(J1-Pad6)*%
X95656400Y-100228400D03*
%TD*%
D18*
%TO.N,Net-(C1-Pad2)*%
X104927400Y-68554600D03*
%TO.N,Net-(C1-Pad1)*%
X95097600Y-69037200D03*
%TO.N,Net-(J1-Pad1)*%
X93040200Y-92405200D03*
%TO.N,Net-(C1-Pad2)*%
X97205800Y-91084400D03*
%TO.N,Net-(C1-Pad1)*%
X108407200Y-96977200D03*
%TO.N,Net-(J1-Pad6)*%
X96824800Y-102565200D03*
%TO.N,Net-(J1-Pad5)*%
X89839800Y-102006400D03*
%TO.N,Net-(J1-Pad6)*%
X105918000Y-65989200D03*
%TO.N,Net-(J1-Pad5)*%
X96316800Y-55041800D03*
%TO.N,Net-(J1-Pad1)*%
X92913200Y-67056000D03*
%TO.N,Net-(C1-Pad1)*%
X91084400Y-62865000D03*
%TO.N,Net-(C1-Pad2)*%
X97536000Y-63017400D03*
%TD*%
D19*
%TO.N,Net-(C1-Pad1)*%
X97235000Y-69037200D02*
X97412800Y-68859400D01*
D20*
X91084400Y-62865000D02*
X91418400Y-62865000D01*
X95097600Y-69037200D02*
X95097600Y-66544200D01*
X95097600Y-66544200D02*
X94909000Y-66355600D01*
X91418400Y-62865000D02*
X94909000Y-66355600D01*
X95594800Y-68112000D02*
X96520000Y-69037200D01*
X95594800Y-67041400D02*
X95594800Y-68112000D01*
D19*
X96520000Y-69037200D02*
X97235000Y-69037200D01*
X95097600Y-69037200D02*
X96520000Y-69037200D01*
D20*
X94909000Y-66355600D02*
X95594800Y-67041400D01*
X95594800Y-67041400D02*
X97412800Y-68859400D01*
D21*
%TO.N,Net-(C1-Pad2)*%
X103380000Y-64684598D02*
X103380000Y-62540000D01*
D19*
X104622600Y-68859400D02*
X104927400Y-68554600D01*
X102412800Y-68859400D02*
X104622600Y-68859400D01*
X103380000Y-67007200D02*
X104927400Y-68554600D01*
X103380000Y-67892200D02*
X103380000Y-65661000D01*
X102412800Y-68859400D02*
X103380000Y-67892200D01*
X103380000Y-65661000D02*
X103380000Y-67007200D01*
X103380000Y-62540000D02*
X103380000Y-65661000D01*
D20*
%TO.N,Net-(F1-Pad1)*%
X96850200Y-106527600D02*
X100355400Y-106527600D01*
X90068400Y-99745800D02*
X96850200Y-106527600D01*
X90068400Y-98755200D02*
X90068400Y-99745800D01*
X91135200Y-97688400D02*
X90068400Y-98755200D01*
X93116400Y-97688400D02*
X91135200Y-97688400D01*
%TD*%
M02*
