M48
; DRILL file {KiCad (5.1.10)-1} date 07/21/21 08:52:11
; FORMAT={-:-/ absolute / metric / decimal}
; #@! TF.CreationDate,2021-07-21T08:52:11+03:00
; #@! TF.GenerationSoftware,Kicad,Pcbnew,(5.1.10)-1
; #@! TF.FileFunction,Plated,1,2,PTH
FMAT,2
METRIC
T1C0.610
T2C0.710
T3C0.762
T4C0.800
T5C1.000
T6C2.300
%
G90
G05
T1
X105.455Y-104.928
T2
X100.355Y-106.528
T3
X100.0Y-60.0
T4
X89.84Y-102.006
X91.084Y-62.865
X92.4Y-104.465
X92.913Y-67.056
X93.04Y-92.405
X95.098Y-69.037
X95.936Y-108.001
X96.317Y-55.042
X96.825Y-102.565
X97.206Y-91.084
X97.413Y-68.859
X97.536Y-63.017
X98.654Y-93.116
X98.73Y-96.901
X98.73Y-100.381
X102.413Y-68.859
X104.927Y-68.555
X105.918Y-65.989
X106.274Y-93.116
X106.35Y-96.901
X106.35Y-100.381
X108.407Y-96.977
T5
X93.116Y-95.148
X93.116Y-97.688
X93.116Y-100.228
X95.656Y-95.148
X95.656Y-97.688
X95.656Y-100.228
T6
X95.76Y-60.0
X99.58Y-54.665
X99.58Y-65.335
X103.38Y-57.46
X103.38Y-62.54
T0
M30
