M48
; DRILL file {KiCad (5.1.0)-1} date 23-Dec-21 12:13:55
; FORMAT={-:-/ absolute / metric / decimal}
; #@! TF.CreationDate,2021-12-23T12:13:55+02:00
; #@! TF.GenerationSoftware,Kicad,Pcbnew,(5.1.0)-1
; #@! TF.FileFunction,Plated,1,4,PTH
FMAT,2
METRIC
T1C0.200
T2C0.400
T3C0.700
T4C0.750
T5C0.800
T6C1.000
T7C1.300
%
G90
G05
T1
X98.552Y-78.74
X104.8Y-74.422
X111.023Y-73.609
X111.379Y-90.551
X115.519Y-70.129
X116.484Y-70.307
X116.865Y-94.285
X118.999Y-74.041
X120.04Y-96.291
X126.619Y-102.895
T2
X95.809Y-90.805
X95.809Y-92.837
X97.841Y-92.837
X98.349Y-90.805
X99.873Y-92.837
X100.381Y-90.805
X102.413Y-68.961
X102.413Y-92.837
X103.251Y-73.05
X104.648Y-69.469
X104.953Y-79.121
X104.953Y-92.837
X105.969Y-75.565
X105.969Y-90.805
X106.477Y-83.693
X106.985Y-69.469
X107.696Y-73.406
X108.001Y-91.313
X108.509Y-92.837
X110.033Y-80.137
X110.541Y-91.313
X110.541Y-92.837
X111.557Y-89.281
X113.081Y-80.645
X114.097Y-91.313
X115.113Y-72.517
X115.621Y-68.961
X115.621Y-74.549
X115.621Y-95.885
X116.129Y-90.297
X116.637Y-81.153
X117.145Y-92.329
X117.653Y-88.773
X118.161Y-95.885
X118.669Y-81.661
X118.669Y-85.217
X118.669Y-90.805
X119.177Y-68.961
X120.193Y-97.917
X120.701Y-81.661
X120.701Y-85.217
X120.701Y-89.281
X121.717Y-92.329
X123.241Y-81.661
X123.241Y-85.217
X123.241Y-89.281
X125.781Y-81.661
X125.781Y-85.217
X125.781Y-87.757
X127.813Y-68.453
X130.861Y-68.453
X134.417Y-68.453
X134.417Y-110.617
T3
X93.218Y-74.27
X100.838Y-74.27
X93.193Y-71.958
X100.813Y-71.958
X113.411Y-77.445
X113.411Y-85.065
X127.762Y-114.554
X135.382Y-114.554
X84.074Y-102.006
X84.074Y-107.086
X86.614Y-104.546
X115.672Y-77.445
X115.672Y-85.065
X93.802Y-107.34
X93.802Y-112.42
X96.342Y-109.88
X102.464Y-76.911
X110.084Y-76.911
X122.834Y-108.712
X125.374Y-111.252
X127.914Y-108.712
X93.193Y-69.418
X100.813Y-69.418
X103.886Y-71.12
X111.506Y-71.12
T4
X134.188Y-107.01
X135.458Y-105.74
X136.728Y-107.01
X88.113Y-69.418
X88.113Y-71.958
X89.383Y-70.688
T5
X140.945Y-76.94
X140.945Y-81.94
X103.937Y-82.347
X103.937Y-84.887
X103.937Y-87.427
X103.937Y-89.967
X109.601Y-82.652
X109.601Y-87.652
X119.38Y-71.12
X119.38Y-78.74
X121.92Y-71.12
X121.92Y-78.74
X124.46Y-71.12
X124.46Y-78.74
X127.0Y-71.12
X127.0Y-78.74
X129.54Y-71.12
X129.54Y-78.74
X132.08Y-71.12
X132.08Y-78.74
X134.62Y-71.12
X134.62Y-78.74
X137.16Y-71.12
X137.16Y-78.74
X140.945Y-69.494
X140.945Y-74.494
T6
X140.767Y-103.683
X140.767Y-106.223
X83.033Y-69.418
X83.033Y-71.958
X87.63Y-75.717
X90.17Y-75.717
X86.92Y-63.05
X86.92Y-65.59
X89.46Y-63.05
X89.46Y-65.59
X92.0Y-63.05
X92.0Y-65.59
X94.54Y-63.05
X94.54Y-65.59
X97.08Y-63.05
X97.08Y-65.59
X99.62Y-63.05
X99.62Y-65.59
X102.16Y-63.05
X102.16Y-65.59
X104.7Y-63.05
X104.7Y-65.59
X107.24Y-63.05
X107.24Y-65.59
X109.78Y-63.05
X109.78Y-65.59
X112.32Y-63.05
X112.32Y-65.59
X114.86Y-63.05
X114.86Y-65.59
X117.4Y-63.05
X117.4Y-65.59
X119.94Y-63.05
X119.94Y-65.59
X122.48Y-63.05
X122.48Y-65.59
X125.02Y-63.05
X125.02Y-65.59
X127.56Y-63.05
X127.56Y-65.59
X130.1Y-63.05
X130.1Y-65.59
X132.64Y-63.05
X132.64Y-65.59
X135.18Y-63.05
X135.18Y-65.59
T7
X86.315Y-85.273
X86.315Y-92.018
X89.687Y-83.896
X89.687Y-93.396
X93.06Y-85.273
X93.06Y-92.018
X104.978Y-105.029
X106.355Y-101.656
X106.355Y-108.401
X113.1Y-101.656
X113.1Y-108.401
X114.478Y-105.029
X125.654Y-93.574
X127.031Y-90.201
X127.031Y-96.946
X133.776Y-90.201
X133.776Y-96.946
X135.154Y-93.574
T0
M30
