G04 #@! TF.GenerationSoftware,KiCad,Pcbnew,(5.1.0)-1*
G04 #@! TF.CreationDate,2021-12-23T12:13:41+02:00*
G04 #@! TF.ProjectId,RPI_HAT_sensors,5250495f-4841-4545-9f73-656e736f7273,rev?*
G04 #@! TF.SameCoordinates,Original*
G04 #@! TF.FileFunction,Legend,Top*
G04 #@! TF.FilePolarity,Positive*
%FSLAX46Y46*%
G04 Gerber Fmt 4.6, Leading zero omitted, Abs format (unit mm)*
G04 Created by KiCad (PCBNEW (5.1.0)-1) date 2021-12-23 12:13:41*
%MOMM*%
%LPD*%
G04 APERTURE LIST*
%ADD10C,0.200000*%
%ADD11C,0.100000*%
%ADD12C,0.120000*%
%ADD13C,0.150000*%
G04 APERTURE END LIST*
D10*
X82232523Y-66762380D02*
X81756333Y-66762380D01*
X81708714Y-67238571D01*
X81756333Y-67190952D01*
X81851571Y-67143333D01*
X82089666Y-67143333D01*
X82184904Y-67190952D01*
X82232523Y-67238571D01*
X82280142Y-67333809D01*
X82280142Y-67571904D01*
X82232523Y-67667142D01*
X82184904Y-67714761D01*
X82089666Y-67762380D01*
X81851571Y-67762380D01*
X81756333Y-67714761D01*
X81708714Y-67667142D01*
X82565857Y-66762380D02*
X82899190Y-67762380D01*
X83232523Y-66762380D01*
X140779523Y-100544380D02*
X140303333Y-100544380D01*
X140255714Y-101020571D01*
X140303333Y-100972952D01*
X140398571Y-100925333D01*
X140636666Y-100925333D01*
X140731904Y-100972952D01*
X140779523Y-101020571D01*
X140827142Y-101115809D01*
X140827142Y-101353904D01*
X140779523Y-101449142D01*
X140731904Y-101496761D01*
X140636666Y-101544380D01*
X140398571Y-101544380D01*
X140303333Y-101496761D01*
X140255714Y-101449142D01*
X141112857Y-100544380D02*
X141446190Y-101544380D01*
X141779523Y-100544380D01*
D11*
X78546356Y-63817611D02*
X78546356Y-113817611D01*
X78546356Y-63817611D02*
G75*
G02X81546356Y-60817611I3000000J0D01*
G01*
X140546356Y-60817611D02*
X81546356Y-60817611D01*
X140546356Y-60817611D02*
G75*
G02X143546356Y-63817611I0J-3000000D01*
G01*
X143546356Y-113817611D02*
X143546356Y-63817611D01*
X81546356Y-116817611D02*
G75*
G02X78546356Y-113817611I0J3000000D01*
G01*
X81546356Y-116817611D02*
X140546356Y-116817611D01*
X143546351Y-113822847D02*
G75*
G02X140546356Y-116817611I-2999995J5236D01*
G01*
D12*
X81702600Y-73288200D02*
X84362600Y-73288200D01*
X81702600Y-70688200D02*
X81702600Y-73288200D01*
X84362600Y-70688200D02*
X84362600Y-73288200D01*
X81702600Y-70688200D02*
X84362600Y-70688200D01*
X81702600Y-69418200D02*
X81702600Y-68088200D01*
X81702600Y-68088200D02*
X83032600Y-68088200D01*
X86262600Y-68888200D02*
X86262600Y-72488200D01*
X86274122Y-68849722D02*
G75*
G02X90712600Y-70688200I1838478J-1838478D01*
G01*
X86274122Y-72526678D02*
G75*
G03X90712600Y-70688200I1838478J1838478D01*
G01*
X94132600Y-69418200D02*
X95082600Y-69418200D01*
X99872600Y-69418200D02*
X98922600Y-69418200D01*
X95082600Y-70338200D02*
X98922600Y-70338200D01*
X95082600Y-68498200D02*
X95082600Y-70338200D01*
X98922600Y-68498200D02*
X95082600Y-68498200D01*
X98922600Y-70338200D02*
X98922600Y-68498200D01*
X95082600Y-71038200D02*
X95082600Y-72878200D01*
X95082600Y-72878200D02*
X98922600Y-72878200D01*
X98922600Y-72878200D02*
X98922600Y-71038200D01*
X98922600Y-71038200D02*
X95082600Y-71038200D01*
X94132600Y-71958200D02*
X95082600Y-71958200D01*
X99872600Y-71958200D02*
X98922600Y-71958200D01*
X119888000Y-105029000D02*
G75*
G03X119888000Y-105029000I-10160000J0D01*
G01*
X109727999Y-111480599D02*
G75*
G02X109728001Y-98475801I50801J6502399D01*
G01*
X99847400Y-88646000D02*
G75*
G03X99847400Y-88646000I-10160000J0D01*
G01*
X83235801Y-88645999D02*
G75*
G02X96240599Y-88646001I6502399J-50801D01*
G01*
X130403601Y-87122001D02*
G75*
G02X130403599Y-100126799I-50801J-6502399D01*
G01*
X140563600Y-93573600D02*
G75*
G03X140563600Y-93573600I-10160000J0D01*
G01*
X118050000Y-73930000D02*
G75*
G02X118050000Y-75930000I0J-1000000D01*
G01*
X118050000Y-75930000D02*
X118050000Y-77180000D01*
X118050000Y-77180000D02*
X138490000Y-77180000D01*
X138490000Y-77180000D02*
X138490000Y-72680000D01*
X138490000Y-72680000D02*
X118050000Y-72680000D01*
X118050000Y-72680000D02*
X118050000Y-73930000D01*
X88004000Y-104546400D02*
G75*
G03X88004000Y-104546400I-3930000J0D01*
G01*
X97732200Y-109880400D02*
G75*
G03X97732200Y-109880400I-3930000J0D01*
G01*
X129304400Y-108712000D02*
G75*
G03X129304400Y-108712000I-3930000J0D01*
G01*
X109616000Y-72040000D02*
X109616000Y-70200000D01*
X109616000Y-70200000D02*
X105776000Y-70200000D01*
X105776000Y-70200000D02*
X105776000Y-72040000D01*
X105776000Y-72040000D02*
X109616000Y-72040000D01*
X110566000Y-71120000D02*
X109616000Y-71120000D01*
X104826000Y-71120000D02*
X105776000Y-71120000D01*
X106806800Y-92286800D02*
X101066800Y-92286800D01*
X101056800Y-92286800D02*
X101056800Y-80026800D01*
X101056800Y-80026800D02*
X106816800Y-80026800D01*
X106816800Y-80026800D02*
X106816800Y-92276800D01*
X107096800Y-92566800D02*
X107096800Y-90566800D01*
X107096800Y-92566800D02*
X105486800Y-92566800D01*
X142665600Y-69324400D02*
X142665600Y-74664400D01*
X139223600Y-69324400D02*
X139223600Y-74664400D01*
X142665600Y-69324400D02*
X141999600Y-69324400D01*
X139889600Y-69324400D02*
X139223600Y-69324400D01*
X142665600Y-74664400D02*
X141999600Y-74664400D01*
X139889600Y-74664400D02*
X139223600Y-74664400D01*
X141999600Y-76770400D02*
X142665600Y-76770400D01*
X139223600Y-76770400D02*
X139889600Y-76770400D01*
X141999600Y-82110400D02*
X142665600Y-82110400D01*
X139223600Y-82110400D02*
X139889600Y-82110400D01*
X142665600Y-82110400D02*
X142665600Y-76770400D01*
X139223600Y-82110400D02*
X139223600Y-76770400D01*
X139436800Y-107552800D02*
X142096800Y-107552800D01*
X139436800Y-104952800D02*
X139436800Y-107552800D01*
X142096800Y-104952800D02*
X142096800Y-107552800D01*
X139436800Y-104952800D02*
X142096800Y-104952800D01*
X139436800Y-103682800D02*
X139436800Y-102352800D01*
X139436800Y-102352800D02*
X140766800Y-102352800D01*
X133658200Y-108860200D02*
X137258200Y-108860200D01*
X133619722Y-108848678D02*
G75*
G02X135458200Y-104410200I1838478J1838478D01*
G01*
X137296678Y-108848678D02*
G75*
G03X135458200Y-104410200I-1838478J1838478D01*
G01*
X104353600Y-75991200D02*
X104353600Y-77831200D01*
X104353600Y-77831200D02*
X108193600Y-77831200D01*
X108193600Y-77831200D02*
X108193600Y-75991200D01*
X108193600Y-75991200D02*
X104353600Y-75991200D01*
X103403600Y-76911200D02*
X104353600Y-76911200D01*
X109143600Y-76911200D02*
X108193600Y-76911200D01*
X128702000Y-114554000D02*
X129652000Y-114554000D01*
X134442000Y-114554000D02*
X133492000Y-114554000D01*
X129652000Y-115474000D02*
X133492000Y-115474000D01*
X129652000Y-113634000D02*
X129652000Y-115474000D01*
X133492000Y-113634000D02*
X129652000Y-113634000D01*
X133492000Y-115474000D02*
X133492000Y-113634000D01*
X111322000Y-82481600D02*
X111322000Y-87821600D01*
X107880000Y-82481600D02*
X107880000Y-87821600D01*
X111322000Y-82481600D02*
X110656000Y-82481600D01*
X108546000Y-82481600D02*
X107880000Y-82481600D01*
X111322000Y-87821600D02*
X110656000Y-87821600D01*
X108546000Y-87821600D02*
X107880000Y-87821600D01*
X91500000Y-77047400D02*
X91500000Y-74387400D01*
X88900000Y-77047400D02*
X91500000Y-77047400D01*
X88900000Y-74387400D02*
X91500000Y-74387400D01*
X88900000Y-77047400D02*
X88900000Y-74387400D01*
X87630000Y-77047400D02*
X86300000Y-77047400D01*
X86300000Y-77047400D02*
X86300000Y-75717400D01*
X95108000Y-73349600D02*
X95108000Y-75189600D01*
X95108000Y-75189600D02*
X98948000Y-75189600D01*
X98948000Y-75189600D02*
X98948000Y-73349600D01*
X98948000Y-73349600D02*
X95108000Y-73349600D01*
X94158000Y-74269600D02*
X95108000Y-74269600D01*
X99898000Y-74269600D02*
X98948000Y-74269600D01*
X113411000Y-84124600D02*
X113411000Y-83174600D01*
X113411000Y-78384600D02*
X113411000Y-79334600D01*
X114331000Y-83174600D02*
X114331000Y-79334600D01*
X112491000Y-83174600D02*
X114331000Y-83174600D01*
X112491000Y-79334600D02*
X112491000Y-83174600D01*
X114331000Y-79334600D02*
X112491000Y-79334600D01*
X116591600Y-79334600D02*
X114751600Y-79334600D01*
X114751600Y-79334600D02*
X114751600Y-83174600D01*
X114751600Y-83174600D02*
X116591600Y-83174600D01*
X116591600Y-83174600D02*
X116591600Y-79334600D01*
X115671600Y-78384600D02*
X115671600Y-79334600D01*
X115671600Y-84124600D02*
X115671600Y-83174600D01*
D13*
X112802000Y-93079200D02*
X112902000Y-93079200D01*
X112802000Y-88429200D02*
X113002000Y-88429200D01*
X116052000Y-88429200D02*
X115852000Y-88429200D01*
X116052000Y-93079200D02*
X115852000Y-93079200D01*
X112802000Y-93079200D02*
X112802000Y-88429200D01*
X116052000Y-93079200D02*
X116052000Y-88429200D01*
X112902000Y-93079200D02*
X112902000Y-94429200D01*
X86126771Y-111218671D02*
X85793438Y-111218671D01*
X85793438Y-111742480D02*
X85793438Y-110742480D01*
X86269628Y-110742480D01*
X86650580Y-111742480D02*
X86650580Y-110742480D01*
X87126771Y-111742480D02*
X87126771Y-110742480D01*
X87364866Y-110742480D01*
X87507723Y-110790100D01*
X87602961Y-110885338D01*
X87650580Y-110980576D01*
X87698200Y-111171052D01*
X87698200Y-111313909D01*
X87650580Y-111504385D01*
X87602961Y-111599623D01*
X87507723Y-111694861D01*
X87364866Y-111742480D01*
X87126771Y-111742480D01*
X88079152Y-110837719D02*
X88126771Y-110790100D01*
X88222009Y-110742480D01*
X88460104Y-110742480D01*
X88555342Y-110790100D01*
X88602961Y-110837719D01*
X88650580Y-110932957D01*
X88650580Y-111028195D01*
X88602961Y-111171052D01*
X88031533Y-111742480D01*
X88650580Y-111742480D01*
X82699266Y-73950580D02*
X82699266Y-74664866D01*
X82651647Y-74807723D01*
X82556409Y-74902961D01*
X82413552Y-74950580D01*
X82318314Y-74950580D01*
X83699266Y-74950580D02*
X83127838Y-74950580D01*
X83413552Y-74950580D02*
X83413552Y-73950580D01*
X83318314Y-74093438D01*
X83223076Y-74188676D01*
X83127838Y-74236295D01*
X86044019Y-70453238D02*
X85996400Y-70548476D01*
X85901161Y-70643714D01*
X85758304Y-70786571D01*
X85710685Y-70881809D01*
X85710685Y-70977047D01*
X85948780Y-70929428D02*
X85901161Y-71024666D01*
X85805923Y-71119904D01*
X85615447Y-71167523D01*
X85282114Y-71167523D01*
X85091638Y-71119904D01*
X84996400Y-71024666D01*
X84948780Y-70929428D01*
X84948780Y-70738952D01*
X84996400Y-70643714D01*
X85091638Y-70548476D01*
X85282114Y-70500857D01*
X85615447Y-70500857D01*
X85805923Y-70548476D01*
X85901161Y-70643714D01*
X85948780Y-70738952D01*
X85948780Y-70929428D01*
X85948780Y-69548476D02*
X85948780Y-70119904D01*
X85948780Y-69834190D02*
X84948780Y-69834190D01*
X85091638Y-69929428D01*
X85186876Y-70024666D01*
X85234495Y-70119904D01*
X96835933Y-67838580D02*
X96502600Y-67362390D01*
X96264504Y-67838580D02*
X96264504Y-66838580D01*
X96645457Y-66838580D01*
X96740695Y-66886200D01*
X96788314Y-66933819D01*
X96835933Y-67029057D01*
X96835933Y-67171914D01*
X96788314Y-67267152D01*
X96740695Y-67314771D01*
X96645457Y-67362390D01*
X96264504Y-67362390D01*
X97788314Y-67838580D02*
X97216885Y-67838580D01*
X97502600Y-67838580D02*
X97502600Y-66838580D01*
X97407361Y-66981438D01*
X97312123Y-67076676D01*
X97216885Y-67124295D01*
X96581933Y-76652380D02*
X96248600Y-76176190D01*
X96010504Y-76652380D02*
X96010504Y-75652380D01*
X96391457Y-75652380D01*
X96486695Y-75700000D01*
X96534314Y-75747619D01*
X96581933Y-75842857D01*
X96581933Y-75985714D01*
X96534314Y-76080952D01*
X96486695Y-76128571D01*
X96391457Y-76176190D01*
X96010504Y-76176190D01*
X96962885Y-75747619D02*
X97010504Y-75700000D01*
X97105742Y-75652380D01*
X97343838Y-75652380D01*
X97439076Y-75700000D01*
X97486695Y-75747619D01*
X97534314Y-75842857D01*
X97534314Y-75938095D01*
X97486695Y-76080952D01*
X96915266Y-76652380D01*
X97534314Y-76652380D01*
X90952771Y-99204471D02*
X90619438Y-99204471D01*
X90619438Y-99728280D02*
X90619438Y-98728280D01*
X91095628Y-98728280D01*
X91476580Y-99728280D02*
X91476580Y-98728280D01*
X91952771Y-99728280D02*
X91952771Y-98728280D01*
X92190866Y-98728280D01*
X92333723Y-98775900D01*
X92428961Y-98871138D01*
X92476580Y-98966376D01*
X92524200Y-99156852D01*
X92524200Y-99299709D01*
X92476580Y-99490185D01*
X92428961Y-99585423D01*
X92333723Y-99680661D01*
X92190866Y-99728280D01*
X91952771Y-99728280D01*
X93476580Y-99728280D02*
X92905152Y-99728280D01*
X93190866Y-99728280D02*
X93190866Y-98728280D01*
X93095628Y-98871138D01*
X93000390Y-98966376D01*
X92905152Y-99013995D01*
X103124095Y-114260380D02*
X103124095Y-115069904D01*
X103171714Y-115165142D01*
X103219333Y-115212761D01*
X103314571Y-115260380D01*
X103505047Y-115260380D01*
X103600285Y-115212761D01*
X103647904Y-115165142D01*
X103695523Y-115069904D01*
X103695523Y-114260380D01*
X104076476Y-114260380D02*
X104695523Y-114260380D01*
X104362190Y-114641333D01*
X104505047Y-114641333D01*
X104600285Y-114688952D01*
X104647904Y-114736571D01*
X104695523Y-114831809D01*
X104695523Y-115069904D01*
X104647904Y-115165142D01*
X104600285Y-115212761D01*
X104505047Y-115260380D01*
X104219333Y-115260380D01*
X104124095Y-115212761D01*
X104076476Y-115165142D01*
X81338095Y-64852380D02*
X81338095Y-63852380D01*
X81338095Y-64328571D02*
X81909523Y-64328571D01*
X81909523Y-64852380D02*
X81909523Y-63852380D01*
X82909523Y-64852380D02*
X82338095Y-64852380D01*
X82623809Y-64852380D02*
X82623809Y-63852380D01*
X82528571Y-63995238D01*
X82433333Y-64090476D01*
X82338095Y-64138095D01*
X139338095Y-64872380D02*
X139338095Y-63872380D01*
X139338095Y-64348571D02*
X139909523Y-64348571D01*
X139909523Y-64872380D02*
X139909523Y-63872380D01*
X140338095Y-63967619D02*
X140385714Y-63920000D01*
X140480952Y-63872380D01*
X140719047Y-63872380D01*
X140814285Y-63920000D01*
X140861904Y-63967619D01*
X140909523Y-64062857D01*
X140909523Y-64158095D01*
X140861904Y-64300952D01*
X140290476Y-64872380D01*
X140909523Y-64872380D01*
X81338095Y-113862380D02*
X81338095Y-112862380D01*
X81338095Y-113338571D02*
X81909523Y-113338571D01*
X81909523Y-113862380D02*
X81909523Y-112862380D01*
X82290476Y-112862380D02*
X82909523Y-112862380D01*
X82576190Y-113243333D01*
X82719047Y-113243333D01*
X82814285Y-113290952D01*
X82861904Y-113338571D01*
X82909523Y-113433809D01*
X82909523Y-113671904D01*
X82861904Y-113767142D01*
X82814285Y-113814761D01*
X82719047Y-113862380D01*
X82433333Y-113862380D01*
X82338095Y-113814761D01*
X82290476Y-113767142D01*
X139328095Y-113852380D02*
X139328095Y-112852380D01*
X139328095Y-113328571D02*
X139899523Y-113328571D01*
X139899523Y-113852380D02*
X139899523Y-112852380D01*
X140804285Y-113185714D02*
X140804285Y-113852380D01*
X140566190Y-112804761D02*
X140328095Y-113519047D01*
X140947142Y-113519047D01*
X78034280Y-88970404D02*
X78843804Y-88970404D01*
X78939042Y-88922785D01*
X78986661Y-88875166D01*
X79034280Y-88779928D01*
X79034280Y-88589452D01*
X78986661Y-88494214D01*
X78939042Y-88446595D01*
X78843804Y-88398976D01*
X78034280Y-88398976D01*
X79034280Y-87398976D02*
X79034280Y-87970404D01*
X79034280Y-87684690D02*
X78034280Y-87684690D01*
X78177138Y-87779928D01*
X78272376Y-87875166D01*
X78319995Y-87970404D01*
X140930380Y-94233904D02*
X141739904Y-94233904D01*
X141835142Y-94186285D01*
X141882761Y-94138666D01*
X141930380Y-94043428D01*
X141930380Y-93852952D01*
X141882761Y-93757714D01*
X141835142Y-93710095D01*
X141739904Y-93662476D01*
X140930380Y-93662476D01*
X141025619Y-93233904D02*
X140978000Y-93186285D01*
X140930380Y-93091047D01*
X140930380Y-92852952D01*
X140978000Y-92757714D01*
X141025619Y-92710095D01*
X141120857Y-92662476D01*
X141216095Y-92662476D01*
X141358952Y-92710095D01*
X141930380Y-93281523D01*
X141930380Y-92662476D01*
X116502380Y-75691904D02*
X117311904Y-75691904D01*
X117407142Y-75644285D01*
X117454761Y-75596666D01*
X117502380Y-75501428D01*
X117502380Y-75310952D01*
X117454761Y-75215714D01*
X117407142Y-75168095D01*
X117311904Y-75120476D01*
X116502380Y-75120476D01*
X116835714Y-74215714D02*
X117502380Y-74215714D01*
X116454761Y-74453809D02*
X117169047Y-74691904D01*
X117169047Y-74072857D01*
X83478761Y-110058780D02*
X83145428Y-109582590D01*
X82907333Y-110058780D02*
X82907333Y-109058780D01*
X83288285Y-109058780D01*
X83383523Y-109106400D01*
X83431142Y-109154019D01*
X83478761Y-109249257D01*
X83478761Y-109392114D01*
X83431142Y-109487352D01*
X83383523Y-109534971D01*
X83288285Y-109582590D01*
X82907333Y-109582590D01*
X83764476Y-109058780D02*
X84097809Y-110058780D01*
X84431142Y-109058780D01*
X85288285Y-110058780D02*
X84716857Y-110058780D01*
X85002571Y-110058780D02*
X85002571Y-109058780D01*
X84907333Y-109201638D01*
X84812095Y-109296876D01*
X84716857Y-109344495D01*
X93206961Y-115392780D02*
X92873628Y-114916590D01*
X92635533Y-115392780D02*
X92635533Y-114392780D01*
X93016485Y-114392780D01*
X93111723Y-114440400D01*
X93159342Y-114488019D01*
X93206961Y-114583257D01*
X93206961Y-114726114D01*
X93159342Y-114821352D01*
X93111723Y-114868971D01*
X93016485Y-114916590D01*
X92635533Y-114916590D01*
X93492676Y-114392780D02*
X93826009Y-115392780D01*
X94159342Y-114392780D01*
X94445057Y-114488019D02*
X94492676Y-114440400D01*
X94587914Y-114392780D01*
X94826009Y-114392780D01*
X94921247Y-114440400D01*
X94968866Y-114488019D01*
X95016485Y-114583257D01*
X95016485Y-114678495D01*
X94968866Y-114821352D01*
X94397438Y-115392780D01*
X95016485Y-115392780D01*
X123102761Y-114244380D02*
X122769428Y-113768190D01*
X122531333Y-114244380D02*
X122531333Y-113244380D01*
X122912285Y-113244380D01*
X123007523Y-113292000D01*
X123055142Y-113339619D01*
X123102761Y-113434857D01*
X123102761Y-113577714D01*
X123055142Y-113672952D01*
X123007523Y-113720571D01*
X122912285Y-113768190D01*
X122531333Y-113768190D01*
X123388476Y-113244380D02*
X123721809Y-114244380D01*
X124055142Y-113244380D01*
X124293238Y-113244380D02*
X124912285Y-113244380D01*
X124578952Y-113625333D01*
X124721809Y-113625333D01*
X124817047Y-113672952D01*
X124864666Y-113720571D01*
X124912285Y-113815809D01*
X124912285Y-114053904D01*
X124864666Y-114149142D01*
X124817047Y-114196761D01*
X124721809Y-114244380D01*
X124436095Y-114244380D01*
X124340857Y-114196761D01*
X124293238Y-114149142D01*
X109053333Y-69794380D02*
X108720000Y-69318190D01*
X108481904Y-69794380D02*
X108481904Y-68794380D01*
X108862857Y-68794380D01*
X108958095Y-68842000D01*
X109005714Y-68889619D01*
X109053333Y-68984857D01*
X109053333Y-69127714D01*
X109005714Y-69222952D01*
X108958095Y-69270571D01*
X108862857Y-69318190D01*
X108481904Y-69318190D01*
X109386666Y-68794380D02*
X110005714Y-68794380D01*
X109672380Y-69175333D01*
X109815238Y-69175333D01*
X109910476Y-69222952D01*
X109958095Y-69270571D01*
X110005714Y-69365809D01*
X110005714Y-69603904D01*
X109958095Y-69699142D01*
X109910476Y-69746761D01*
X109815238Y-69794380D01*
X109529523Y-69794380D01*
X109434285Y-69746761D01*
X109386666Y-69699142D01*
X101560380Y-86105904D02*
X102369904Y-86105904D01*
X102465142Y-86058285D01*
X102512761Y-86010666D01*
X102560380Y-85915428D01*
X102560380Y-85724952D01*
X102512761Y-85629714D01*
X102465142Y-85582095D01*
X102369904Y-85534476D01*
X101560380Y-85534476D01*
X101560380Y-84582095D02*
X101560380Y-85058285D01*
X102036571Y-85105904D01*
X101988952Y-85058285D01*
X101941333Y-84963047D01*
X101941333Y-84724952D01*
X101988952Y-84629714D01*
X102036571Y-84582095D01*
X102131809Y-84534476D01*
X102369904Y-84534476D01*
X102465142Y-84582095D01*
X102512761Y-84629714D01*
X102560380Y-84724952D01*
X102560380Y-84963047D01*
X102512761Y-85058285D01*
X102465142Y-85105904D01*
X138787142Y-68492666D02*
X138834761Y-68540285D01*
X138882380Y-68683142D01*
X138882380Y-68778380D01*
X138834761Y-68921238D01*
X138739523Y-69016476D01*
X138644285Y-69064095D01*
X138453809Y-69111714D01*
X138310952Y-69111714D01*
X138120476Y-69064095D01*
X138025238Y-69016476D01*
X137930000Y-68921238D01*
X137882380Y-68778380D01*
X137882380Y-68683142D01*
X137930000Y-68540285D01*
X137977619Y-68492666D01*
X138882380Y-67540285D02*
X138882380Y-68111714D01*
X138882380Y-67826000D02*
X137882380Y-67826000D01*
X138025238Y-67921238D01*
X138120476Y-68016476D01*
X138168095Y-68111714D01*
X142089142Y-84494666D02*
X142136761Y-84542285D01*
X142184380Y-84685142D01*
X142184380Y-84780380D01*
X142136761Y-84923238D01*
X142041523Y-85018476D01*
X141946285Y-85066095D01*
X141755809Y-85113714D01*
X141612952Y-85113714D01*
X141422476Y-85066095D01*
X141327238Y-85018476D01*
X141232000Y-84923238D01*
X141184380Y-84780380D01*
X141184380Y-84685142D01*
X141232000Y-84542285D01*
X141279619Y-84494666D01*
X141279619Y-84113714D02*
X141232000Y-84066095D01*
X141184380Y-83970857D01*
X141184380Y-83732761D01*
X141232000Y-83637523D01*
X141279619Y-83589904D01*
X141374857Y-83542285D01*
X141470095Y-83542285D01*
X141612952Y-83589904D01*
X142184380Y-84161333D01*
X142184380Y-83542285D01*
X140433466Y-108418380D02*
X140433466Y-109132666D01*
X140385847Y-109275523D01*
X140290609Y-109370761D01*
X140147752Y-109418380D01*
X140052514Y-109418380D01*
X140862038Y-108513619D02*
X140909657Y-108466000D01*
X141004895Y-108418380D01*
X141242990Y-108418380D01*
X141338228Y-108466000D01*
X141385847Y-108513619D01*
X141433466Y-108608857D01*
X141433466Y-108704095D01*
X141385847Y-108846952D01*
X140814419Y-109418380D01*
X141433466Y-109418380D01*
X132373619Y-106775238D02*
X132326000Y-106870476D01*
X132230761Y-106965714D01*
X132087904Y-107108571D01*
X132040285Y-107203809D01*
X132040285Y-107299047D01*
X132278380Y-107251428D02*
X132230761Y-107346666D01*
X132135523Y-107441904D01*
X131945047Y-107489523D01*
X131611714Y-107489523D01*
X131421238Y-107441904D01*
X131326000Y-107346666D01*
X131278380Y-107251428D01*
X131278380Y-107060952D01*
X131326000Y-106965714D01*
X131421238Y-106870476D01*
X131611714Y-106822857D01*
X131945047Y-106822857D01*
X132135523Y-106870476D01*
X132230761Y-106965714D01*
X132278380Y-107060952D01*
X132278380Y-107251428D01*
X131373619Y-106441904D02*
X131326000Y-106394285D01*
X131278380Y-106299047D01*
X131278380Y-106060952D01*
X131326000Y-105965714D01*
X131373619Y-105918095D01*
X131468857Y-105870476D01*
X131564095Y-105870476D01*
X131706952Y-105918095D01*
X132278380Y-106489523D01*
X132278380Y-105870476D01*
X107529333Y-75443580D02*
X107196000Y-74967390D01*
X106957904Y-75443580D02*
X106957904Y-74443580D01*
X107338857Y-74443580D01*
X107434095Y-74491200D01*
X107481714Y-74538819D01*
X107529333Y-74634057D01*
X107529333Y-74776914D01*
X107481714Y-74872152D01*
X107434095Y-74919771D01*
X107338857Y-74967390D01*
X106957904Y-74967390D01*
X108386476Y-74776914D02*
X108386476Y-75443580D01*
X108148380Y-74395961D02*
X107910285Y-75110247D01*
X108529333Y-75110247D01*
X132167333Y-113228380D02*
X131834000Y-112752190D01*
X131595904Y-113228380D02*
X131595904Y-112228380D01*
X131976857Y-112228380D01*
X132072095Y-112276000D01*
X132119714Y-112323619D01*
X132167333Y-112418857D01*
X132167333Y-112561714D01*
X132119714Y-112656952D01*
X132072095Y-112704571D01*
X131976857Y-112752190D01*
X131595904Y-112752190D01*
X133072095Y-112228380D02*
X132595904Y-112228380D01*
X132548285Y-112704571D01*
X132595904Y-112656952D01*
X132691142Y-112609333D01*
X132929238Y-112609333D01*
X133024476Y-112656952D01*
X133072095Y-112704571D01*
X133119714Y-112799809D01*
X133119714Y-113037904D01*
X133072095Y-113133142D01*
X133024476Y-113180761D01*
X132929238Y-113228380D01*
X132691142Y-113228380D01*
X132595904Y-113180761D01*
X132548285Y-113133142D01*
X118308571Y-111498071D02*
X117975238Y-111498071D01*
X117975238Y-112021880D02*
X117975238Y-111021880D01*
X118451428Y-111021880D01*
X118832380Y-112021880D02*
X118832380Y-111021880D01*
X119308571Y-112021880D02*
X119308571Y-111021880D01*
X119546666Y-111021880D01*
X119689523Y-111069500D01*
X119784761Y-111164738D01*
X119832380Y-111259976D01*
X119880000Y-111450452D01*
X119880000Y-111593309D01*
X119832380Y-111783785D01*
X119784761Y-111879023D01*
X119689523Y-111974261D01*
X119546666Y-112021880D01*
X119308571Y-112021880D01*
X120213333Y-111021880D02*
X120832380Y-111021880D01*
X120499047Y-111402833D01*
X120641904Y-111402833D01*
X120737142Y-111450452D01*
X120784761Y-111498071D01*
X120832380Y-111593309D01*
X120832380Y-111831404D01*
X120784761Y-111926642D01*
X120737142Y-111974261D01*
X120641904Y-112021880D01*
X120356190Y-112021880D01*
X120260952Y-111974261D01*
X120213333Y-111926642D01*
X110085142Y-85510666D02*
X110132761Y-85558285D01*
X110180380Y-85701142D01*
X110180380Y-85796380D01*
X110132761Y-85939238D01*
X110037523Y-86034476D01*
X109942285Y-86082095D01*
X109751809Y-86129714D01*
X109608952Y-86129714D01*
X109418476Y-86082095D01*
X109323238Y-86034476D01*
X109228000Y-85939238D01*
X109180380Y-85796380D01*
X109180380Y-85701142D01*
X109228000Y-85558285D01*
X109275619Y-85510666D01*
X109180380Y-85177333D02*
X109180380Y-84558285D01*
X109561333Y-84891619D01*
X109561333Y-84748761D01*
X109608952Y-84653523D01*
X109656571Y-84605904D01*
X109751809Y-84558285D01*
X109989904Y-84558285D01*
X110085142Y-84605904D01*
X110132761Y-84653523D01*
X110180380Y-84748761D01*
X110180380Y-85034476D01*
X110132761Y-85129714D01*
X110085142Y-85177333D01*
X84752380Y-76550733D02*
X85466666Y-76550733D01*
X85609523Y-76598352D01*
X85704761Y-76693590D01*
X85752380Y-76836447D01*
X85752380Y-76931685D01*
X85752380Y-76074542D02*
X84752380Y-76074542D01*
X84752380Y-75693590D01*
X84800000Y-75598352D01*
X84847619Y-75550733D01*
X84942857Y-75503114D01*
X85085714Y-75503114D01*
X85180952Y-75550733D01*
X85228571Y-75598352D01*
X85276190Y-75693590D01*
X85276190Y-76074542D01*
X85752380Y-74550733D02*
X85752380Y-75122161D01*
X85752380Y-74836447D02*
X84752380Y-74836447D01*
X84895238Y-74931685D01*
X84990476Y-75026923D01*
X85038095Y-75122161D01*
X96861333Y-72801980D02*
X96528000Y-72325790D01*
X96289904Y-72801980D02*
X96289904Y-71801980D01*
X96670857Y-71801980D01*
X96766095Y-71849600D01*
X96813714Y-71897219D01*
X96861333Y-71992457D01*
X96861333Y-72135314D01*
X96813714Y-72230552D01*
X96766095Y-72278171D01*
X96670857Y-72325790D01*
X96289904Y-72325790D01*
X97718476Y-71801980D02*
X97528000Y-71801980D01*
X97432761Y-71849600D01*
X97385142Y-71897219D01*
X97289904Y-72040076D01*
X97242285Y-72230552D01*
X97242285Y-72611504D01*
X97289904Y-72706742D01*
X97337523Y-72754361D01*
X97432761Y-72801980D01*
X97623238Y-72801980D01*
X97718476Y-72754361D01*
X97766095Y-72706742D01*
X97813714Y-72611504D01*
X97813714Y-72373409D01*
X97766095Y-72278171D01*
X97718476Y-72230552D01*
X97623238Y-72182933D01*
X97432761Y-72182933D01*
X97337523Y-72230552D01*
X97289904Y-72278171D01*
X97242285Y-72373409D01*
X113736380Y-82462666D02*
X113260190Y-82796000D01*
X113736380Y-83034095D02*
X112736380Y-83034095D01*
X112736380Y-82653142D01*
X112784000Y-82557904D01*
X112831619Y-82510285D01*
X112926857Y-82462666D01*
X113069714Y-82462666D01*
X113164952Y-82510285D01*
X113212571Y-82557904D01*
X113260190Y-82653142D01*
X113260190Y-83034095D01*
X112736380Y-82129333D02*
X112736380Y-81462666D01*
X113736380Y-81891238D01*
X118043980Y-81421266D02*
X117567790Y-81754600D01*
X118043980Y-81992695D02*
X117043980Y-81992695D01*
X117043980Y-81611742D01*
X117091600Y-81516504D01*
X117139219Y-81468885D01*
X117234457Y-81421266D01*
X117377314Y-81421266D01*
X117472552Y-81468885D01*
X117520171Y-81516504D01*
X117567790Y-81611742D01*
X117567790Y-81992695D01*
X117472552Y-80849838D02*
X117424933Y-80945076D01*
X117377314Y-80992695D01*
X117282076Y-81040314D01*
X117234457Y-81040314D01*
X117139219Y-80992695D01*
X117091600Y-80945076D01*
X117043980Y-80849838D01*
X117043980Y-80659361D01*
X117091600Y-80564123D01*
X117139219Y-80516504D01*
X117234457Y-80468885D01*
X117282076Y-80468885D01*
X117377314Y-80516504D01*
X117424933Y-80564123D01*
X117472552Y-80659361D01*
X117472552Y-80849838D01*
X117520171Y-80945076D01*
X117567790Y-80992695D01*
X117663028Y-81040314D01*
X117853504Y-81040314D01*
X117948742Y-80992695D01*
X117996361Y-80945076D01*
X118043980Y-80849838D01*
X118043980Y-80659361D01*
X117996361Y-80564123D01*
X117948742Y-80516504D01*
X117853504Y-80468885D01*
X117663028Y-80468885D01*
X117567790Y-80516504D01*
X117520171Y-80564123D01*
X117472552Y-80659361D01*
X111329380Y-93217904D02*
X112138904Y-93217904D01*
X112234142Y-93170285D01*
X112281761Y-93122666D01*
X112329380Y-93027428D01*
X112329380Y-92836952D01*
X112281761Y-92741714D01*
X112234142Y-92694095D01*
X112138904Y-92646476D01*
X111329380Y-92646476D01*
X111329380Y-91741714D02*
X111329380Y-91932190D01*
X111377000Y-92027428D01*
X111424619Y-92075047D01*
X111567476Y-92170285D01*
X111757952Y-92217904D01*
X112138904Y-92217904D01*
X112234142Y-92170285D01*
X112281761Y-92122666D01*
X112329380Y-92027428D01*
X112329380Y-91836952D01*
X112281761Y-91741714D01*
X112234142Y-91694095D01*
X112138904Y-91646476D01*
X111900809Y-91646476D01*
X111805571Y-91694095D01*
X111757952Y-91741714D01*
X111710333Y-91836952D01*
X111710333Y-92027428D01*
X111757952Y-92122666D01*
X111805571Y-92170285D01*
X111900809Y-92217904D01*
M02*
