G04 #@! TF.GenerationSoftware,KiCad,Pcbnew,(5.1.0)-1*
G04 #@! TF.CreationDate,2021-12-28T09:15:10+02:00*
G04 #@! TF.ProjectId,RPI_HAT_sensors,5250495f-4841-4545-9f73-656e736f7273,rev?*
G04 #@! TF.SameCoordinates,Original*
G04 #@! TF.FileFunction,Legend,Bot*
G04 #@! TF.FilePolarity,Positive*
%FSLAX46Y46*%
G04 Gerber Fmt 4.6, Leading zero omitted, Abs format (unit mm)*
G04 Created by KiCad (PCBNEW (5.1.0)-1) date 2021-12-28 09:15:10*
%MOMM*%
%LPD*%
G04 APERTURE LIST*
%ADD10C,0.100000*%
%ADD11C,0.120000*%
%ADD12C,0.150000*%
G04 APERTURE END LIST*
D10*
X78546356Y-63817611D02*
X78546356Y-113817611D01*
X78546356Y-63817611D02*
G75*
G02X81546356Y-60817611I3000000J0D01*
G01*
X140546356Y-60817611D02*
X81546356Y-60817611D01*
X140546356Y-60817611D02*
G75*
G02X143546356Y-63817611I0J-3000000D01*
G01*
X143546356Y-113817611D02*
X143546356Y-63817611D01*
X81546356Y-116817611D02*
G75*
G02X78546356Y-113817611I0J3000000D01*
G01*
X81546356Y-116817611D02*
X140546356Y-116817611D01*
X143546351Y-113822847D02*
G75*
G02X140546356Y-116817611I-2999995J5236D01*
G01*
D11*
X85590000Y-61720000D02*
X85590000Y-64320000D01*
X85590000Y-61720000D02*
X136510000Y-61720000D01*
X136510000Y-61720000D02*
X136510000Y-66920000D01*
X88190000Y-66920000D02*
X136510000Y-66920000D01*
X88190000Y-64320000D02*
X88190000Y-66920000D01*
X85590000Y-64320000D02*
X88190000Y-64320000D01*
X85590000Y-66920000D02*
X86920000Y-66920000D01*
X85590000Y-65590000D02*
X85590000Y-66920000D01*
D12*
X83602380Y-63986666D02*
X84316666Y-63986666D01*
X84459523Y-63939047D01*
X84554761Y-63843809D01*
X84602380Y-63700952D01*
X84602380Y-63605714D01*
X83602380Y-64367619D02*
X83602380Y-64986666D01*
X83983333Y-64653333D01*
X83983333Y-64796190D01*
X84030952Y-64891428D01*
X84078571Y-64939047D01*
X84173809Y-64986666D01*
X84411904Y-64986666D01*
X84507142Y-64939047D01*
X84554761Y-64891428D01*
X84602380Y-64796190D01*
X84602380Y-64510476D01*
X84554761Y-64415238D01*
X84507142Y-64367619D01*
M02*
